<svg width="33" height="33" viewBox="0 0 33 33" fill="none" xmlns="http://www.w3.org/2000/svg">
<g clip-path="url(#clip0_2191_1282)">
<path d="M27.0384 23.1857H29.7424V25.8896H2.70312V23.1857H5.40705V13.7219C5.40705 10.8534 6.54656 8.10243 8.57489 6.07409C10.6032 4.04576 13.3542 2.90625 16.2227 2.90625C19.0912 2.90625 21.8423 4.04576 23.8706 6.07409C25.8989 8.10243 27.0384 10.8534 27.0384 13.7219V23.1857ZM24.3345 23.1857V13.7219C24.3345 11.5706 23.4799 9.50731 21.9586 7.98606C20.4374 6.4648 18.3741 5.61017 16.2227 5.61017C14.0714 5.61017 12.0081 6.4648 10.4869 7.98606C8.9656 9.50731 8.11097 11.5706 8.11097 13.7219V23.1857H24.3345ZM12.1669 28.5935H20.2786V31.2974H12.1669V28.5935Z" fill="black"/>
</g>
<circle cx="24.3336" cy="6.96253" r="5.40785" fill="#ED5B75"/>
<defs>
<clipPath id="clip0_2191_1282">
<rect width="32.4471" height="32.4471" fill="white" transform="translate(0 0.203125)"/>
</clipPath>
</defs>
</svg>
