<svg width="35" height="35" viewBox="0 0 35 35" fill="none" xmlns="http://www.w3.org/2000/svg">
<path d="M13.1263 1.4585V4.37516H21.8763V1.4585H24.793V4.37516H30.6263C31.0131 4.37516 31.384 4.52881 31.6575 4.8023C31.931 5.07579 32.0846 5.44672 32.0846 5.8335V29.1668C32.0846 29.5536 31.931 29.9245 31.6575 30.198C31.384 30.4715 31.0131 30.6252 30.6263 30.6252H4.3763C3.98953 30.6252 3.6186 30.4715 3.3451 30.198C3.07161 29.9245 2.91797 29.5536 2.91797 29.1668V5.8335C2.91797 5.44672 3.07161 5.07579 3.3451 4.8023C3.6186 4.52881 3.98953 4.37516 4.3763 4.37516H10.2096V1.4585H13.1263ZM29.168 11.6668H5.83464V27.7085H29.168V11.6668ZM21.9288 14.7818L23.9909 16.8439L16.7721 24.0627L11.6155 18.906L13.6805 16.8439L16.7736 19.9385L21.9303 14.7818H21.9288Z" fill="#959595"/>
</svg>
