<svg width="31" height="31" viewBox="0 0 31 31" fill="none" xmlns="http://www.w3.org/2000/svg">
<path d="M15.5013 0.916504C23.5557 0.916504 30.0846 7.44546 30.0846 15.4998C30.0846 23.5542 23.5557 30.0832 15.5013 30.0832C7.44693 30.0832 0.917969 23.5542 0.917969 15.4998C0.917969 7.44546 7.44693 0.916504 15.5013 0.916504ZM15.5013 5.2915C9.86339 5.2915 5.29297 9.86192 5.29297 15.4998C5.29297 18.2007 6.34297 20.658 8.05505 22.4838L8.28255 22.7171L10.3446 20.6565C9.0263 19.3353 8.20963 17.5123 8.20963 15.4998C8.20963 11.4734 11.4748 8.20817 15.5013 8.20817C16.1546 8.20817 16.7876 8.29421 17.3898 8.45609L19.6692 6.17817C18.3961 5.60942 16.9859 5.2915 15.5013 5.2915ZM24.823 11.3334L22.5465 13.6113C22.7069 14.2136 22.793 14.8465 22.793 15.4998C22.793 17.5123 21.9763 19.3353 20.658 20.6565L22.7201 22.7186C24.5663 20.8709 25.7096 18.3188 25.7096 15.4998C25.7096 14.0153 25.3932 12.605 24.823 11.3334ZM21.6876 7.25005L16.2553 12.6809C16.0146 12.6167 15.7623 12.5832 15.5013 12.5832C13.8898 12.5832 12.5846 13.8884 12.5846 15.4998C12.5846 17.1113 13.8898 18.4165 15.5013 18.4165C17.1128 18.4165 18.418 17.1113 18.418 15.4998C18.418 15.2388 18.3844 14.9865 18.3203 14.7459L23.7511 9.31213L21.689 7.25005H21.6876Z" fill="white"/>
</svg>
