<svg width="70" height="70" viewBox="0 0 70 70" fill="none" xmlns="http://www.w3.org/2000/svg">
<g filter="url(#filter0_d_348_9859)">
<circle cx="34.7999" cy="22.1046" r="16.7999" fill="black"/>
</g>
<path d="M34.8 5.30469C25.5215 5.30469 18 12.8262 18 22.1047C18 31.3832 25.5215 38.9047 34.8 38.9047C44.0785 38.9047 51.6 31.3832 51.6 22.1047C51.6 12.8262 44.0785 5.30469 34.8 5.30469ZM38.7795 16.9142H36.2543C35.955 16.9142 35.6225 17.3079 35.6225 17.8312V19.6547H38.7813L38.3035 22.2552H35.6225V30.0619H32.6423V22.2552H29.9385V19.6547H32.6423V18.1252C32.6423 15.9307 34.1648 14.1474 36.2543 14.1474H38.7795V16.9142Z" fill="white"/>
<defs>
<filter id="filter0_d_348_9859" x="0" y="0.304688" width="69.6016" height="69.6016" filterUnits="userSpaceOnUse" color-interpolation-filters="sRGB">
<feFlood flood-opacity="0" result="BackgroundImageFix"/>
<feColorMatrix in="SourceAlpha" type="matrix" values="0 0 0 0 0 0 0 0 0 0 0 0 0 0 0 0 0 0 127 0" result="hardAlpha"/>
<feOffset dy="13"/>
<feGaussianBlur stdDeviation="9"/>
<feColorMatrix type="matrix" values="0 0 0 0 0.0658854 0 0 0 0 0.0730469 0 0 0 0 0.1375 0 0 0 0.08 0"/>
<feBlend mode="normal" in2="BackgroundImageFix" result="effect1_dropShadow_348_9859"/>
<feBlend mode="normal" in="SourceGraphic" in2="effect1_dropShadow_348_9859" result="shape"/>
</filter>
</defs>
</svg>
