<svg width="54" height="95" viewBox="0 0 54 95" fill="none" xmlns="http://www.w3.org/2000/svg">
<g clip-path="url(#clip0_1768_11082)">
<path fill-rule="evenodd" clip-rule="evenodd" d="M19.1 81.6H52.9C53.5 81.6 54 82.1 54 82.7V93.7C54 94.3 53.5 94.8 52.9 94.8H19.1C18.5 94.8 18 94.3 18 93.7V82.7C18 82.1 18.5 81.6 19.1 81.6ZM20.8 20.8V58C20.8 58.5 20.5 58.9 20 59C19.5 59.1 19 59 18.8 58.6L14.5 52.4C14.4 52.2 14.3 52 14.3 51.8V40.6C14.3 38.9 12.9 37.5 11.2 37.5C9.5 37.5 8.1 38.9 8.1 40.6V57.1C8.1 58 8.5 58.8 9.1 59.4C9.2 59.5 9.3 59.6 9.3 59.6L21.9 75.2C22.1 75.4 22.1 75.6 22.1 75.9V78.8H43.4H45.6H50.3V71C50.3 70.6 50.5 70.3 50.8 70.1C51.7 69.5 52.2 68.6 52.2 67.5V35.6C52.2 33.9 50.8 32.5 49.1 32.5C47.4 32.5 46 33.9 46 35.6V44.9C46 45.5 45.5 46 44.9 46C44.3 46 43.8 45.5 43.8 44.9V32.5C43.8 30.8 42.4 29.4 40.7 29.4C39 29.4 37.6 30.8 37.6 32.5V45C37.6 45.6 37.1 46.1 36.5 46.1C35.9 46.1 35.4 45.6 35.4 45V32.5C35.4 30.8 34 29.4 32.3 29.4C30.6 29.4 29.2 30.8 29.2 32.5V45C29.2 45.6 28.7 46.1 28.1 46.1C27.5 46.1 27 45.6 27 45V20.8C27 19.1 25.6 17.7 23.9 17.7C22.2 17.7 20.8 19.1 20.8 20.8ZM37.6 5C37.9 4.5 37.7 3.8 37.2 3.6C36.7 3.3 36 3.5 35.8 4L29.3 15.3C29 15.8 29.2 16.4 29.7 16.7C30.2 17 30.9 16.8 31.1 16.3L37.6 5ZM46.6 14.7C47.1 14.4 47.3 13.8 47 13.3C46.7 12.8 46.1 12.6 45.6 12.9L34.3 19.4C33.8 19.7 33.6 20.3 33.9 20.8C34.2 21.3 34.8 21.5 35.3 21.2L46.6 14.7ZM2.4 13C1.9 12.7 1.2 12.9 1 13.4C0.700001 13.9 0.900002 14.5 1.4 14.8L12.7 21.3C13.2 21.6 13.9 21.4 14.1 20.9C14.4 20.4 14.2 19.7 13.7 19.5L2.4 13ZM12.1 4C11.8 3.5 11.2 3.3 10.7 3.6C10.2 3.9 10 4.5 10.3 5L16.8 16.3C17.1 16.8 17.7 17 18.2 16.7C18.7 16.4 18.9 15.8 18.6 15.3L12.1 4ZM25 1.1C25 0.5 24.5 0 23.9 0C23.3 0 22.8 0.5 22.8 1.1V14.1C22.8 14.7 23.3 15.2 23.9 15.2C24.5 15.2 25 14.7 25 14.1V1.1ZM24.1 84.7C22.2 84.7 20.6 86.3 20.6 88.2C20.6 90.1 22.2 91.7 24.1 91.7C26 91.7 27.6 90.1 27.6 88.2C27.6 86.3 26 84.7 24.1 84.7Z" fill="#0F6A91"/>
</g>
<defs>
<clipPath id="clip0_1768_11082">
<rect width="53.2" height="94.8" fill="white" transform="matrix(-1 0 0 1 54 0)"/>
</clipPath>
</defs>
</svg>
