<svg width="494" height="504" viewBox="0 0 494 504" fill="none" xmlns="http://www.w3.org/2000/svg">
<g clip-path="url(#clip0_1768_11086)">
<g opacity="0.7">
<path opacity="0.7" d="M22.9555 136.619C12.8414 163.942 8.63662 191.493 7.84113 217.678C7.72749 221.321 7.61385 225.078 7.72749 228.721C7.84113 240.447 8.63662 251.946 10.114 263.103C11.9322 277.334 14.7733 291.109 18.4098 304.088C24.2055 325.035 32.0468 344.162 40.6835 360.67C47.502 373.762 54.8887 385.26 62.5027 394.824C147.052 501.953 203.305 490.341 226.033 488.747C260.921 486.243 378.881 379.454 404.337 355.091C429.906 330.614 457.18 307.617 476.044 277.106C494.909 246.595 531.956 145.613 377.858 49.2984C367.858 43.4922 357.857 38.483 347.857 34.1568C167.735 -53.733 56.2524 46.9076 22.9555 136.619Z" fill="#6970CF"/>
</g>
<g opacity="0.7">
<path opacity="0.7" d="M22.7283 136.389C12.5005 163.713 8.40945 191.264 7.50031 217.448C7.38667 221.091 7.27303 224.848 7.38667 228.492C7.50031 240.218 8.2958 251.602 9.6595 262.759C11.4778 276.99 14.3188 290.766 17.9553 303.744C23.7511 324.692 31.5923 343.818 40.2291 360.326C47.0476 373.419 54.4343 384.917 62.0483 394.48C146.598 501.61 202.85 489.998 225.579 488.404C260.466 485.899 378.426 379.111 403.882 354.748C429.452 330.271 456.725 307.274 475.59 276.763C494.454 246.252 531.502 145.269 377.404 48.955C367.403 43.1488 357.403 38.1396 347.402 33.8134C167.394 -53.9625 56.0253 46.6781 22.7283 136.389Z" fill="white"/>
</g>
<path d="M78.64 468.137C78.9809 470.414 81.9356 470.983 83.072 468.934C88.1859 459.826 100.8 442.635 128.415 430.112C154.553 418.272 132.62 388.785 112.278 398.576C90.4588 409.164 74.208 438.195 78.64 468.137Z" fill="#6970CF"/>
<path opacity="0.2" d="M82.0493 464.948C82.0493 464.948 83.5266 459.711 88.2996 454.132C95.1181 446.049 105.005 437.283 95.5727 442.065C95.5727 442.065 105.459 434.437 116.369 429.997C127.165 425.443 106.482 426.012 106.482 426.012C106.482 426.012 130.688 411.44 126.938 406.886C123.869 403.243 109.323 414.741 109.323 414.741C109.323 414.741 111.937 404.609 109.323 404.267C106.596 404.04 97.7318 424.646 97.7318 424.646C97.7318 424.646 98.7546 418.157 95.5727 418.84C92.2771 419.637 78.2991 450.375 82.0493 464.948Z" fill="#263238"/>
<path d="M63.753 467.34C63.6393 469.389 61.0256 470.072 59.8891 468.478C54.548 460.85 41.9338 446.961 16.3644 438.423C-7.7276 430.339 8.86407 402.447 27.6149 409.278C47.8431 416.564 64.8894 440.7 63.753 467.34Z" fill="#6970CF"/>
<path opacity="0.2" d="M60.1164 463.128C60.1164 463.128 58.2981 458.916 53.6388 454.59C46.934 448.442 37.6154 441.953 46.1385 445.026C46.1385 445.026 36.9335 439.562 27.1603 436.829C17.5008 434.097 35.1152 432.389 35.1152 432.389C35.1152 432.389 12.9551 422.485 15.6825 418.272C17.9554 414.857 31.5924 423.168 31.5924 423.168C31.5924 423.168 28.2968 414.857 30.4559 414.288C32.6151 413.718 42.3883 430.34 42.3883 430.34C42.3883 430.34 40.7973 424.989 43.6384 425.217C46.4794 425.672 61.7074 450.263 60.1164 463.128Z" fill="black"/>
<path d="M28.6377 426.012C28.6377 426.012 56.0253 439.673 65.9121 480.772" stroke="#263238" stroke-width="0.75" stroke-miterlimit="10" stroke-linecap="round" stroke-linejoin="round"/>
<path d="M73.6398 468.934C72.2761 471.438 68.526 470.869 68.0714 468.023C65.9122 455.272 58.2982 430.226 31.2515 404.496C5.68216 380.133 43.5248 354.632 63.0712 374.213C84.3221 395.503 91.2543 435.918 73.6398 468.934Z" fill="#6970CF"/>
<path opacity="0.2" d="M70.9125 463.813C70.9125 463.813 71.0262 456.982 67.3897 448.557C62.1621 436.375 53.639 422.145 63.1849 431.48C63.1849 431.48 54.2072 418.729 42.8431 409.394C31.4789 400.058 56.1391 408.141 56.1391 408.141C56.1391 408.141 32.6153 381.729 38.752 377.744C43.8658 374.443 56.9346 393.683 56.9346 393.683C56.9346 393.683 57.6165 380.59 60.7984 381.16C64.094 381.729 66.9351 409.735 66.9351 409.735C66.9351 409.735 68.0715 401.538 71.708 403.588C75.5718 405.637 80.913 447.646 70.9125 463.813Z" fill="#263238"/>
<path d="M54.3208 395.957C54.3208 395.957 80.572 429.428 68.4124 487.148" stroke="#263238" stroke-width="0.75" stroke-miterlimit="10" stroke-linecap="round" stroke-linejoin="round"/>
<path d="M113.301 417.477C113.301 417.477 84.2084 436.034 77.8445 483.394" stroke="#263238" stroke-width="0.75" stroke-miterlimit="10" stroke-linecap="round" stroke-linejoin="round"/>
<path d="M89.6632 502.859H53.2979C49.2068 502.859 45.7975 499.899 45.343 495.914L43.411 479.179C43.1838 477.585 44.4338 476.219 46.0248 476.219H96.8226C98.4136 476.219 99.6636 477.585 99.4363 479.179L97.5044 495.914C97.0499 499.899 93.6406 502.859 89.6632 502.859Z" fill="white" stroke="#263238" stroke-miterlimit="10"/>
<path d="M52.5025 484.188H46.9341" stroke="#263238" stroke-linecap="round" stroke-linejoin="round"/>
<path d="M96.2545 484.188H58.4119" stroke="#263238" stroke-linecap="round" stroke-linejoin="round"/>
<path d="M411.837 443.205C411.951 443.433 411.042 444.343 414.11 444.457C421.838 444.799 435.588 444.343 440.702 437.285C448.089 427.266 431.156 428.063 432.747 422.599C434.452 417.02 452.634 421.688 456.157 413.719C459.68 405.749 446.498 407.343 447.066 403.245C447.748 399.146 461.612 404.497 466.158 396.072C470.703 387.648 458.657 392.088 460.589 388.672C462.521 385.143 477.977 370.684 471.726 367.497C465.476 364.195 450.93 379.337 446.157 380.931C441.384 382.525 440.361 367.724 433.997 372.62C427.747 377.629 431.724 400.057 424.451 402.789C418.997 404.838 421.951 396.869 415.246 397.097C406.382 397.325 403.314 428.746 411.837 443.205Z" fill="#6970CF"/>
<g opacity="0.1">
<path opacity="0.1" d="M411.837 443.205C411.951 443.433 411.042 444.343 414.11 444.457C421.838 444.799 435.588 444.343 440.702 437.285C448.089 427.266 431.156 428.063 432.747 422.599C434.452 417.02 452.634 421.688 456.157 413.719C459.68 405.749 446.498 407.343 447.066 403.245C447.748 399.146 461.612 404.497 466.158 396.072C470.703 387.648 458.657 392.088 460.589 388.672C462.521 385.143 477.977 370.684 471.726 367.497C465.476 364.195 450.93 379.337 446.157 380.931C441.384 382.525 440.361 367.724 433.997 372.62C427.747 377.629 431.724 400.057 424.451 402.789C418.997 404.838 421.951 396.869 415.246 397.097C406.382 397.325 403.314 428.746 411.837 443.205Z" fill="black"/>
</g>
<path d="M442.52 396.98C442.52 396.98 412.405 417.587 405.928 470.07" stroke="#263238" stroke-width="0.75" stroke-miterlimit="10" stroke-linecap="round" stroke-linejoin="round"/>
<path d="M447.18 403.47C439.907 401.876 435.475 403.356 435.475 403.356" stroke="#263238" stroke-width="0.75" stroke-miterlimit="10" stroke-linecap="round" stroke-linejoin="round"/>
<path d="M438.884 381.727C438.884 381.727 429.792 393.794 429.906 409.619" stroke="#263238" stroke-width="0.75" stroke-miterlimit="10" stroke-linecap="round" stroke-linejoin="round"/>
<path d="M420.928 422.939C420.928 422.939 427.406 416.792 436.043 419.979" stroke="#263238" stroke-width="0.75" stroke-miterlimit="10" stroke-linecap="round" stroke-linejoin="round"/>
<path d="M416.269 432.275C416.269 432.275 412.86 424.306 414.792 413.035" stroke="#263238" stroke-width="0.75" stroke-miterlimit="10" stroke-linecap="round" stroke-linejoin="round"/>
<path d="M402.632 451.286C396.268 451.4 385.359 445.48 381.154 439.674C376.835 433.868 388.995 437.397 387.745 432.843C386.495 428.289 371.494 431.591 368.653 425.101C365.926 418.498 376.722 419.978 376.267 416.677C375.813 413.261 364.562 413.944 361.039 407C357.403 400.055 367.29 403.926 365.812 400.966C364.221 398.12 351.834 385.824 357.062 383.32C362.289 380.815 373.881 393.452 377.745 394.932C381.608 396.298 382.518 387.532 387.631 391.744C392.745 395.957 388.881 414.286 394.904 416.677C399.337 418.498 397.405 410.074 402.518 412.237C411.383 415.994 405.246 451.172 402.632 451.286Z" fill="#6970CF"/>
<g opacity="0.3">
<path opacity="0.3" d="M402.632 451.286C396.268 451.4 385.359 445.48 381.154 439.674C376.835 433.868 388.995 437.397 387.745 432.843C386.495 428.289 371.494 431.591 368.653 425.101C365.926 418.498 376.722 419.978 376.267 416.677C375.813 413.261 364.562 413.944 361.039 407C357.403 400.055 367.29 403.926 365.812 400.966C364.221 398.12 351.834 385.824 357.062 383.32C362.289 380.815 373.881 393.452 377.745 394.932C381.608 396.298 382.518 387.532 387.631 391.744C392.745 395.957 388.881 414.286 394.904 416.677C399.337 418.498 397.405 410.074 402.518 412.237C411.383 415.994 405.246 451.172 402.632 451.286Z" fill="white"/>
</g>
<path d="M371.835 396.984C371.835 396.984 403.655 428.178 405.473 474.856" stroke="#263238" stroke-width="0.75" stroke-miterlimit="10" stroke-linecap="round" stroke-linejoin="round"/>
<path d="M371.04 411.441C378.199 411.327 383.881 413.946 384.336 414.06" stroke="#263238" stroke-width="0.75" stroke-miterlimit="10" stroke-linecap="round" stroke-linejoin="round"/>
<path d="M382.972 394.934C382.972 394.934 390.132 406.204 388.882 420.094" stroke="#263238" stroke-width="0.75" stroke-miterlimit="10" stroke-linecap="round" stroke-linejoin="round"/>
<path d="M393.427 427.949C393.427 427.949 388.2 422.598 380.358 424.647" stroke="#263238" stroke-width="0.75" stroke-miterlimit="10" stroke-linecap="round" stroke-linejoin="round"/>
<path d="M399.223 440.927C399.223 440.927 402.859 434.097 402.064 424.078" stroke="#263238" stroke-width="0.75" stroke-miterlimit="10" stroke-linecap="round" stroke-linejoin="round"/>
<path d="M375.131 474.171C375.131 490.337 389.109 503.43 406.496 503.43C423.769 503.43 437.861 490.337 437.861 474.171C437.861 465.063 427.861 456.866 419.224 451.516H393.882C385.018 456.866 375.131 465.063 375.131 474.171Z" fill="white" stroke="#263238" stroke-miterlimit="10"/>
<path d="M387.518 475.422H382.063" stroke="#263238" stroke-linecap="round" stroke-linejoin="round"/>
<path d="M431.383 475.422H393.541" stroke="#263238" stroke-linecap="round" stroke-linejoin="round"/>
<path d="M363.085 66.142V54.0742" stroke="#263238" stroke-miterlimit="10" stroke-linecap="round" stroke-linejoin="round"/>
<path d="M367.517 62.5L363.085 66.94L358.653 62.5" stroke="#263238" stroke-miterlimit="10" stroke-linecap="round" stroke-linejoin="round"/>
<path d="M368.54 51.3438H357.744" stroke="#263238" stroke-miterlimit="10" stroke-linecap="round" stroke-linejoin="round"/>
<path d="M359.562 43.9431C360.585 43.7154 361.721 43.6016 362.858 43.6016C371.267 43.6016 377.972 50.4324 377.972 58.7432C377.972 67.054 371.154 73.8848 362.858 73.8848C354.562 73.9987 347.743 67.1679 347.743 58.7432C347.743 55.2139 348.993 51.9124 351.039 49.2939" stroke="#263238" stroke-miterlimit="10" stroke-linecap="round" stroke-linejoin="round"/>
<path d="M354.562 46.1072C355.244 45.6518 355.812 45.3103 356.608 44.9688" stroke="#263238" stroke-miterlimit="10" stroke-linecap="round" stroke-linejoin="round"/>
<path d="M109.891 51.7969H133.302V63.8646H97.6182V51.7969H100.346" stroke="#263238" stroke-miterlimit="10" stroke-linecap="round" stroke-linejoin="round"/>
<path d="M103.641 51.7969H107.05" stroke="#263238" stroke-miterlimit="10" stroke-linecap="round" stroke-linejoin="round"/>
<path d="M122.392 74.4525L115.46 81.3971L108.528 74.4525H111.823V67.5078H119.097V74.4525H122.392Z" stroke="#263238" stroke-miterlimit="10" stroke-linecap="round" stroke-linejoin="round"/>
<path d="M300.355 403.359H324.56L307.173 423.283L289.786 403.359H294.9" stroke="#263238" stroke-miterlimit="10" stroke-linecap="round" stroke-linejoin="round"/>
<path d="M307.173 387.648H318.424L307.173 400.399L296.036 387.648H301.491" stroke="#263238" stroke-miterlimit="10" stroke-linecap="round" stroke-linejoin="round"/>
<path d="M474.226 92.1016H3.52295V358.276H474.226V92.1016Z" fill="#BFBFBF" stroke="#263238" stroke-linecap="round" stroke-linejoin="round"/>
<path d="M469.34 97.3359H8.52319V353.264H469.34V97.3359Z" fill="#6970CF"/>
<path opacity="0.9" d="M469.34 97.3359H8.52319V353.264H469.34V97.3359Z" fill="white" stroke="#263238" stroke-miterlimit="10"/>
<path d="M469.34 97.3359H8.52319V353.264H469.34V97.3359Z" stroke="#263238" stroke-miterlimit="10"/>
<path d="M469.34 97.1094H8.52319V123.408H469.34V97.1094Z" fill="#6970CF" stroke="#263238" stroke-linecap="round" stroke-linejoin="round"/>
<path opacity="0.2" d="M374.79 102.234H318.424V118.287H374.79V102.234Z" fill="black"/>
<path d="M362.971 105.535H327.856V115.44H362.971V105.535Z" fill="white" stroke="#263238" stroke-linecap="round" stroke-linejoin="round"/>
<path d="M109.664 105.535H39.3201V115.44H109.664V105.535Z" fill="white" stroke="#263238" stroke-linecap="round" stroke-linejoin="round"/>
<path d="M308.991 105.535H273.876V115.44H308.991V105.535Z" fill="white" stroke="#263238" stroke-linecap="round" stroke-linejoin="round"/>
<path d="M416.951 105.535H381.836V115.44H416.951V105.535Z" fill="white" stroke="#263238" stroke-linecap="round" stroke-linejoin="round"/>
<path d="M75.3446 209.705C94.1105 209.705 109.323 194.668 109.323 176.12C109.323 157.572 94.1105 142.535 75.3446 142.535C56.5786 142.535 41.3657 157.572 41.3657 176.12C41.3657 194.668 56.5786 209.705 75.3446 209.705Z" fill="#6970CF" stroke="#263238" stroke-linecap="round" stroke-linejoin="round"/>
<path d="M42.3884 222.57H109.096" stroke="#263238" stroke-width="2" stroke-linecap="round" stroke-linejoin="round"/>
<path d="M72.7307 239.191H55.7981V248.641H72.7307V239.191Z" fill="#263238" stroke="#263238" stroke-linecap="round" stroke-linejoin="round"/>
<path d="M89.6633 257.406H55.7981V266.856H89.6633V257.406Z" fill="#263238" stroke="#263238" stroke-linecap="round" stroke-linejoin="round"/>
<path d="M81.3675 275.734H55.7981V285.184H81.3675V275.734Z" fill="#263238" stroke="#263238" stroke-linecap="round" stroke-linejoin="round"/>
<path d="M93.4135 293.949H55.7981V303.398H93.4135V293.949Z" fill="#263238" stroke="#263238" stroke-linecap="round" stroke-linejoin="round"/>
<path d="M451.725 138.551H126.824V337.555H451.725V138.551Z" fill="white" stroke="#263238" stroke-linecap="round" stroke-linejoin="round"/>
<path d="M434.111 189.781H375.472V290.308H434.111V189.781Z" fill="#BFBFBF" stroke="#263238" stroke-linecap="round" stroke-linejoin="round"/>
<path d="M387.063 203.898H422.633" stroke="#263238" stroke-width="2" stroke-linecap="round" stroke-linejoin="round"/>
<path d="M387.063 236.688H422.633" stroke="#263238" stroke-width="2" stroke-linecap="round" stroke-linejoin="round"/>
<path d="M387.063 269.359H422.633" stroke="#263238" stroke-width="2" stroke-linecap="round" stroke-linejoin="round"/>
<path d="M375.472 122.953H316.833V223.48H375.472V122.953Z" fill="#BFBFBF" stroke="#263238" stroke-linecap="round" stroke-linejoin="round"/>
<path opacity="0.2" d="M369.903 195.02H323.083V211.072H369.903V195.02Z" fill="white"/>
<path d="M328.765 137.41H364.335" stroke="#263238" stroke-width="2" stroke-linecap="round" stroke-linejoin="round"/>
<path d="M328.765 170.199H364.335" stroke="#263238" stroke-width="2" stroke-linecap="round" stroke-linejoin="round"/>
<path d="M328.765 202.984H364.335" stroke="#6970CF" stroke-width="2" stroke-linecap="round" stroke-linejoin="round"/>
<path d="M371.949 212.094L367.858 214.598L370.812 219.152L367.062 221.429L364.221 216.875L360.357 219.266L358.88 204.238L371.949 212.094Z" fill="white" stroke="#263238" stroke-linecap="round" stroke-linejoin="round"/>
<path d="M238.193 228.717L242.284 213.461C229.897 204.923 217.169 192.969 205.691 182.722C200.577 178.169 196.032 172.704 191.6 167.239C185.236 159.384 178.758 151.528 172.394 143.787C168.985 139.574 160.576 124.661 151.939 131.605C145.688 135.818 145.688 150.959 149.098 160.067C152.734 169.63 156.939 175.55 164.439 181.47C171.94 187.39 191.031 207.541 194.213 210.046C207.509 220.747 222.169 225.757 238.193 228.717Z" fill="#263238"/>
<path d="M238.193 228.717L242.284 213.461C229.897 204.923 217.169 192.969 205.691 182.722C200.577 178.169 196.032 172.704 191.6 167.239C185.236 159.384 178.758 151.528 172.394 143.787C168.985 139.574 160.576 124.661 151.939 131.605C145.688 135.818 145.688 150.959 149.098 160.067C152.734 169.63 156.939 175.55 164.439 181.47C171.94 187.39 191.031 207.541 194.213 210.046C207.509 220.747 222.169 225.757 238.193 228.717Z" stroke="#263238" stroke-width="0.9208" stroke-miterlimit="10" stroke-linecap="round" stroke-linejoin="round"/>
<path d="M264.444 148.001C264.444 148.001 264.103 149.823 264.103 149.709C264.103 149.595 265.808 148.57 266.603 149.026C267.512 149.481 268.08 150.164 268.08 150.164L269.899 147.773L266.262 146.977L264.444 148.001Z" fill="#263238" stroke="#263238" stroke-miterlimit="10" stroke-linecap="round" stroke-linejoin="round"/>
<path d="M266.376 146.861L264.444 148C264.217 148.91 263.989 150.049 263.989 150.96C263.989 151.984 265.808 152.781 266.717 153.123C268.308 152.44 270.581 150.846 272.172 150.163C274.444 147.43 276.149 150.96 273.99 154.489C273.99 154.489 268.421 158.587 264.444 160.978C261.716 161.32 258.989 161.889 256.375 162.686C254.898 160.181 250.807 154.603 250.807 154.603C252.625 153.351 257.512 143.901 260.125 140.827C260.125 140.827 265.694 140.486 268.08 140.372C270.467 140.258 271.035 142.194 273.194 144.812L266.376 146.861Z" fill="#757575" stroke="#263238" stroke-miterlimit="10" stroke-linecap="round" stroke-linejoin="round"/>
<path d="M260.58 140.714L271.717 139.348C277.058 139.575 281.831 140.031 285.127 141.625C285.695 141.966 286.377 141.966 286.718 142.535C287.286 143.446 286.604 144.015 285.581 144.357C284.558 144.698 283.308 144.812 282.286 144.585C280.24 144.129 273.194 144.585 273.194 144.585C269.217 145.154 264.444 147.886 264.444 147.886" fill="#757575"/>
<path d="M260.58 140.714L271.717 139.348C277.058 139.575 281.831 140.031 285.127 141.625C285.695 141.966 286.377 141.966 286.718 142.535C287.286 143.446 286.604 144.015 285.581 144.357C284.558 144.698 283.308 144.812 282.286 144.585C280.24 144.129 273.194 144.585 273.194 144.585C269.217 145.154 264.444 147.886 264.444 147.886" stroke="#263238" stroke-miterlimit="10" stroke-linecap="round" stroke-linejoin="round"/>
<path d="M273.081 148.343C273.081 148.798 272.74 149.709 272.285 149.937C270.808 150.847 268.989 151.986 267.512 152.669C266.489 152.441 265.012 151.189 265.012 151.189C265.012 151.189 264.33 150.62 264.217 150.506C264.33 149.823 265.467 149.14 266.035 149.026C267.171 148.798 268.308 150.164 268.308 150.164C267.512 149.253 267.853 149.595 267.853 149.595C267.626 149.481 267.512 149.367 267.285 149.253C267.285 149.253 267.512 148.57 267.853 148.457C268.649 148.798 269.785 148.229 269.785 148.229C268.876 148.912 267.399 147.66 266.489 146.977L273.081 148.343Z" fill="#757575" stroke="#263238" stroke-miterlimit="10" stroke-linecap="round" stroke-linejoin="round"/>
<path d="M258.989 164.395L250.466 150.961C234.442 156.653 215.692 160.41 199.214 164.281C191.827 165.989 207.055 193.426 211.487 192.173C229.67 186.937 244.67 176.918 258.989 164.395Z" fill="#263238"/>
<path opacity="0.4" d="M199.214 164.281C196.145 164.964 192.963 165.533 189.895 165.875L207.737 192.97C209.555 192.629 210.805 192.401 211.487 192.173C229.783 186.937 244.67 176.918 259.103 164.395L250.58 150.961C234.443 156.653 215.692 160.41 199.214 164.281Z" fill="black" stroke="#263238" stroke-miterlimit="10" stroke-linecap="round" stroke-linejoin="round"/>
<path d="M258.989 164.395L250.466 150.961C234.442 156.653 215.692 160.41 199.214 164.281C191.827 165.989 207.055 193.426 211.487 192.173C229.67 186.937 244.67 176.918 258.989 164.395Z" stroke="#263238" stroke-miterlimit="10" stroke-linecap="round" stroke-linejoin="round"/>
<path d="M142.166 502.973L154.78 503.315H155.462H167.053C171.258 503.315 170.803 500.241 171.258 496.029C171.826 490.906 169.099 485.555 169.099 485.555H149.666C148.87 486.807 148.302 487.945 147.961 489.084C137.393 496.712 142.166 502.973 142.166 502.973Z" fill="#263238" stroke="#263238" stroke-miterlimit="10" stroke-linecap="round" stroke-linejoin="round"/>
<path d="M237.056 502.973L225.124 503.315H223.76H213.078C208.078 503.315 207.85 499.216 207.964 494.207C208.078 489.653 210.35 485.555 210.35 485.555H230.692C231.601 486.921 232.283 488.287 232.738 489.539C242.966 499.558 237.056 502.973 237.056 502.973Z" fill="#263238" stroke="#263238" stroke-miterlimit="10" stroke-linecap="round" stroke-linejoin="round"/>
<path d="M225.124 503.316C224.897 503.316 224.556 503.316 224.328 503.316H223.76H225.124Z" fill="#263238" stroke="#263238" stroke-miterlimit="10" stroke-linecap="round" stroke-linejoin="round"/>
<path d="M250.921 288.372C250.921 288.372 245.011 394.25 241.602 412.807C240.579 418.499 235.579 458.118 234.784 466.429C234.784 466.429 236.375 473.943 234.897 480.09L233.42 483.392C231.033 488.515 209.669 488.743 208.987 487.263C208.305 485.896 205.464 485.555 208.76 466.315C209.101 464.152 209.669 441.496 210.578 411.213C210.919 401.194 212.283 393.453 211.146 368.293C211.146 367.154 205.578 302.148 205.464 301.009L204.328 301.465C204.214 302.717 204.1 303.969 203.987 305.108C203.418 310.686 202.396 316.265 200.918 321.729L180.463 398.007V411.896C180.804 428.745 179.326 448.896 174.667 465.062L175.122 469.275C175.917 477.244 177.849 486.466 168.871 487.946L150.689 488.856C147.62 488.856 144.211 488.515 144.439 485.555L146.143 473.259C149.893 459.029 148.53 413.604 149.211 398.917L156.825 289.397L161.257 256.95L247.852 255.129L250.921 288.372Z" fill="#6970CF"/>
<path opacity="0.2" d="M204.1 273.345C190.009 274.483 175.349 271.865 159.098 266.514C158.871 266.4 158.644 266.286 158.417 266.058C158.417 266.058 191.827 268.222 248.875 259.797C248.875 259.797 242.284 261.391 228.761 267.197C220.578 270.726 212.51 272.662 204.1 273.345Z" fill="black"/>
<path opacity="0.2" d="M173.531 301.578C177.395 308.295 188.077 308.295 192.054 315.012C195.805 321.387 197.736 332.658 195.009 343.929L198.532 330.951C202.509 324.12 201.6 319.452 203.078 311.824C203.305 310.686 203.987 303.058 204.328 301.578C204.328 301.578 194.1 304.197 193.304 304.31C184.781 304.538 181.372 303.514 173.531 301.578Z" fill="black"/>
<path opacity="0.2" d="M212.623 366.128C212.964 369.771 213.533 373.642 215.578 376.716C217.624 379.79 221.601 381.839 225.124 380.587C226.829 380.017 228.192 378.651 230.011 378.537C231.147 378.424 232.283 378.879 232.624 379.904C233.079 380.814 232.624 381.611 232.056 382.294C230.692 384.116 228.76 385.482 227.624 387.531C226.601 389.581 226.942 392.654 229.215 393.338C227.056 393.224 223.988 394.021 224.101 396.184C224.215 398.688 228.647 399.599 228.306 401.99C223.76 407.568 220.919 414.513 219.896 421.572C217.851 436.941 225.01 451.741 222.51 466.655C222.056 469.046 223.419 471.55 225.806 472.233C225.919 472.233 226.147 472.347 226.26 472.347C222.056 473.713 217.737 474.396 213.305 474.396C211.373 476.56 222.851 487.717 222.737 486.464C222.737 486.35 217.51 488.969 217.396 488.855C210.919 487.83 208.646 490.677 203.646 484.187C202.623 482.821 201.827 481.113 201.6 479.406C191.486 421.116 208.078 350.531 205.805 301.805C205.919 302.26 219.328 307.042 229.215 302.602C231.942 301.349 221.487 311.937 217.851 323.549C213.873 337.439 211.487 351.783 212.623 366.128Z" fill="black"/>
<path opacity="0.2" d="M177.167 382.638C176.145 384.118 175.008 385.598 173.417 386.167C170.576 387.306 159.098 373.075 156.144 372.05C159.78 383.435 166.712 388.103 170.235 394.023C170.69 394.934 171.258 395.844 171.031 396.869C170.349 400.284 158.644 397.21 157.621 400.512C160.235 402.903 169.326 404.383 172.167 402.447C174.894 427.152 168.871 454.134 154.666 474.399C158.189 475.879 161.939 473.829 164.78 471.211C164.894 476.903 160.576 485.556 156.144 488.857C161.371 489.996 171.258 488.174 174.667 483.962C179.213 478.497 175.69 470.186 176.145 463.128C176.372 459.485 177.622 456.069 178.758 452.54C182.849 439.448 183.986 425.444 181.94 411.897C181.258 407.229 180.236 402.675 180.577 398.007C180.917 393.226 182.736 388.672 184.327 384.118C185.69 380.475 196.259 354.062 192.168 354.062C192.282 354.176 179.781 378.767 177.167 382.638Z" fill="black"/>
<path d="M250.921 288.372C250.921 288.372 245.011 394.25 241.602 412.807C240.579 418.499 235.579 458.118 234.784 466.429C234.784 466.429 236.375 473.943 234.897 480.09L233.42 483.392C231.033 488.515 209.669 488.743 208.987 487.263C208.305 485.896 205.464 485.555 208.76 466.315C209.101 464.152 209.669 441.496 210.578 411.213C210.919 401.194 212.283 393.453 211.146 368.293C211.146 367.154 205.578 302.148 205.464 301.009L204.328 301.465C204.214 302.717 204.1 303.969 203.987 305.108C203.418 310.686 202.396 316.265 200.918 321.729L180.463 398.007V411.896C180.804 428.745 179.326 448.896 174.667 465.062L175.122 469.275C175.917 477.244 177.849 486.466 168.871 487.946L150.689 488.856C147.62 488.856 144.211 488.515 144.439 485.555L146.143 473.259C149.893 459.029 148.53 413.604 149.211 398.917L156.825 289.397L161.257 256.95L247.852 255.129L250.921 288.372Z" stroke="#263238" stroke-linecap="round" stroke-linejoin="round"/>
<path d="M192.281 120.11L200.236 100.186L197.509 82.654L200.236 63.5278L216.828 57.2662L230.579 57.1523L235.465 61.3647L236.829 67.1709C236.829 67.1709 241.147 82.5402 239.67 85.0448C238.193 87.5494 236.943 90.0541 236.943 90.0541C236.943 90.0541 240.238 97.568 240.352 100.642C240.466 104.285 236.261 100.87 234.783 104.968C233.42 109.067 232.283 118.63 227.169 118.288C222.056 117.947 219.328 117.605 218.078 121.931C216.828 126.257 213.76 138.097 213.76 138.097L192.281 120.11Z" fill="#757575"/>
<path opacity="0.3" d="M213.078 75.2539C212.851 79.6939 214.555 83.2232 211.828 91.1925C211.828 91.1925 209.782 86.0694 207.055 85.9555C204.782 85.9555 203.418 87.3217 203.418 89.4848C203.418 91.6479 204.328 94.3802 206.259 95.5186C206.259 95.5186 204.1 100.756 203.532 102.691C202.282 102.691 200.123 100.073 200.123 100.073L197.736 83.7924C202.85 80.1493 207.282 77.6447 213.078 75.2539Z" fill="black"/>
<path d="M192.281 120.11L200.236 100.186L197.509 82.654L200.236 63.5278L216.828 57.2662L230.579 57.1523L235.465 61.3647L236.829 67.1709C236.829 67.1709 241.147 82.5402 239.67 85.0448C238.193 87.5494 236.943 90.0541 236.943 90.0541C236.943 90.0541 240.238 97.568 240.352 100.642C240.466 104.285 236.261 100.87 234.783 104.968C233.42 109.067 232.283 118.63 227.169 118.288C222.056 117.947 219.328 117.605 218.078 121.931C216.828 126.257 213.76 138.097 213.76 138.097L192.281 120.11Z" stroke="#263238" stroke-miterlimit="10" stroke-linecap="round" stroke-linejoin="round"/>
<path d="M232.738 88.5757C232.624 89.6003 231.942 90.3973 231.261 90.2834C230.579 90.1696 230.238 89.2588 230.351 88.2342C230.465 87.2096 231.147 86.4126 231.829 86.5265C232.511 86.6403 232.965 87.5511 232.738 88.5757Z" fill="#263238"/>
<path d="M227.965 83.7917C227.965 83.7917 231.488 78.8963 235.92 82.7671" stroke="#263238" stroke-miterlimit="10" stroke-linecap="round" stroke-linejoin="round"/>
<path d="M229.67 105.653C229.67 105.653 225.919 105.539 223.874 101.668" stroke="#263238" stroke-miterlimit="10" stroke-linecap="round" stroke-linejoin="round"/>
<path d="M225.692 118.061C225.692 118.061 214.783 112.596 212.055 108.953L218.192 121.932C218.078 121.932 218.76 115.898 225.692 118.061Z" fill="#263238" stroke="#263238" stroke-miterlimit="10" stroke-linecap="round" stroke-linejoin="round"/>
<path d="M186.827 122.161C186.827 122.161 192.963 121.933 202.623 122.388C210.01 122.844 217.51 123.641 224.783 124.893C224.783 124.893 222.283 116.924 215.237 116.354C208.305 115.785 192.054 115.785 192.054 115.785L186.827 122.161Z" fill="white" stroke="#263238" stroke-linecap="round" stroke-linejoin="round"/>
<path d="M247.739 188.191L247.17 192.517C244.784 210.163 245.466 228.037 249.102 245.456L252.057 259.459C252.057 259.459 227.056 265.038 210.805 266.973C173.531 271.299 154.893 265.379 154.893 265.379C154.78 258.548 155.234 251.717 156.712 245.114C166.712 197.526 148.189 139.237 152.962 131.837C156.598 126.258 186.827 122.046 186.827 122.046C186.827 122.046 214.669 121.249 224.897 124.778L226.147 125.575C239.67 130.243 250.466 135.252 256.375 139.351L254.216 144.701C253.989 147.32 247.739 188.191 247.739 188.191Z" fill="#263238"/>
<path d="M150.461 203.105C150.461 203.105 154.893 218.019 150.348 228.493L157.734 230.77C157.734 230.77 159.439 218.133 158.416 208.001L150.461 203.105Z" fill="#6970CF"/>
<path opacity="0.6" d="M150.461 203.105C150.461 203.105 154.893 218.019 150.348 228.493L157.734 230.77C157.734 230.77 159.439 218.133 158.416 208.001L150.461 203.105Z" fill="white"/>
<g opacity="0.2">
<path opacity="0.2" d="M183.531 207.999C184.895 210.959 186.372 214.033 186.258 217.221C186.145 224.507 178.872 229.402 172.394 233.045C186.599 228.264 201.941 226.67 216.942 228.264C213.078 227.808 206.373 220.408 203.418 218.018C198.873 214.147 194.441 210.048 190.35 205.722C182.622 197.639 175.349 188.645 169.667 179.082C174.212 188.645 178.872 198.322 183.531 207.999Z" fill="black"/>
</g>
<g opacity="0.2">
<path opacity="0.2" d="M214.555 215.172C221.487 216.538 228.988 214.375 234.101 209.479C230.806 207.316 226.487 208.682 222.51 209.251C218.078 209.821 213.419 209.024 209.441 207.088C207.737 206.291 201.259 200.03 199.554 201.282C194.441 204.811 212.169 214.716 214.555 215.172Z" fill="black"/>
</g>
<g opacity="0.2">
<path opacity="0.2" d="M227.283 239.534C224.328 239.648 219.328 236.802 216.146 236.119C212.169 235.322 208.078 234.98 203.986 234.98C196.941 234.98 186.599 236.688 177.622 239.876C180.463 244.43 196.486 241.242 201.259 241.014C210.009 240.445 218.646 239.99 227.283 239.534Z" fill="black"/>
</g>
<path d="M247.739 188.191L247.17 192.517C244.784 210.163 245.466 228.037 249.102 245.456L252.057 259.459C252.057 259.459 227.056 265.038 210.805 266.973C173.531 271.299 154.893 265.379 154.893 265.379C154.78 258.548 155.234 251.717 156.712 245.114C166.712 197.526 148.189 139.237 152.962 131.837C156.598 126.258 186.827 122.046 186.827 122.046C186.827 122.046 214.669 121.249 224.897 124.778L226.147 125.575C239.67 130.243 250.466 135.252 256.375 139.351L254.216 144.701C253.989 147.32 247.739 188.191 247.739 188.191Z" stroke="#263238" stroke-miterlimit="10" stroke-linecap="round" stroke-linejoin="round"/>
<path d="M166.257 172.363C176.599 194.791 193.759 214.259 214.896 227.351" stroke="#757575" stroke-miterlimit="10" stroke-linecap="round" stroke-linejoin="round"/>
<path d="M164.212 167.926C164.553 168.837 164.666 168.837 165.007 169.861" stroke="#757575" stroke-linecap="round" stroke-linejoin="round"/>
<path d="M161.371 160.184C161.939 161.664 162.394 163.257 162.962 164.737" stroke="#757575" stroke-linecap="round" stroke-linejoin="round"/>
<path d="M201.146 209.137C204.668 212.78 208.987 215.626 213.873 216.764C221.033 218.472 229.442 215.854 232.852 209.478" stroke="#757575" stroke-miterlimit="10" stroke-linecap="round" stroke-linejoin="round"/>
<path d="M196.827 204.016C197.509 205.04 198.304 205.951 199.1 206.976" stroke="#757575" stroke-miterlimit="10" stroke-linecap="round" stroke-linejoin="round"/>
<path d="M174.667 240.902C192.168 234.071 212.169 233.844 229.783 239.991" stroke="#757575" stroke-linecap="round" stroke-linejoin="round"/>
<path d="M191.372 230.198C197.623 228.262 204.555 228.262 210.805 230.198" stroke="#757575" stroke-miterlimit="10" stroke-linecap="round" stroke-linejoin="round"/>
<path d="M213.646 127.965C223.874 127.965 234.101 129.673 243.761 132.86" stroke="#263238" stroke-linecap="round" stroke-linejoin="round"/>
<path d="M203.418 89.5977C203.759 91.4192 204.782 93.81 205.464 94.6069C207.168 96.8839 208.873 97.2254 210.578 96.77" stroke="#263238" stroke-linecap="round" stroke-linejoin="round"/>
<path d="M237.738 67.3989C240.806 67.8542 243.079 71.1558 242.397 74.1158C244.102 72.9773 244.557 70.245 243.647 68.4235C242.625 66.6019 239.67 66.6019 237.738 67.3989Z" fill="#263238" stroke="#263238" stroke-miterlimit="10" stroke-linecap="round" stroke-linejoin="round"/>
<path d="M236.715 62.7293C235.352 59.997 233.533 57.6062 231.374 55.4431C223.874 48.0431 202.964 56.9231 198.191 61.5909C193.191 66.4863 194.1 84.8156 196.259 84.3602C202.168 83.2218 213.305 82.311 213.305 82.311C217.283 81.4002 212.623 72.0648 216.26 70.2432C231.26 62.3878 236.033 69.5601 236.943 67.7386C237.852 66.0309 238.534 63.754 236.715 62.7293Z" fill="#263238" stroke="#263238" stroke-miterlimit="10" stroke-linecap="round" stroke-linejoin="round"/>
<path d="M191.827 84.1328C189.213 85.9544 185.463 85.0436 182.963 86.8651C181.031 88.2313 180.349 90.7359 179.895 93.1267C179.099 98.3637 179.326 103.828 180.69 109.065C184.895 106.447 189.554 101.893 192.395 97.9083C195.35 93.8098 194.441 88.3451 191.827 84.1328Z" fill="#263238" stroke="#263238" stroke-miterlimit="10" stroke-linecap="round" stroke-linejoin="round"/>
<path d="M195.236 81.8555C193.304 82.0832 191.6 83.677 191.259 85.4986C190.918 87.434 192.054 89.4832 193.873 90.2801C195.009 90.8494 196.6 90.7355 197.395 89.7109C197.964 89.0278 198.077 88.117 198.077 87.3201C198.305 85.2709 197.964 82.6524 195.918 82.3109" fill="#6970CF"/>
<path d="M195.236 81.8555C193.304 82.0832 191.6 83.677 191.259 85.4986C190.918 87.434 192.054 89.4832 193.873 90.2801C195.009 90.8494 196.6 90.7355 197.395 89.7109C197.964 89.0278 198.077 88.117 198.077 87.3201C198.305 85.2709 197.964 82.6524 195.918 82.3109" stroke="#263238" stroke-linecap="round" stroke-linejoin="round"/>
<path d="M316.492 151.417C318.537 150.051 321.378 149.595 322.628 147.432C324.106 144.7 325.583 141.968 327.06 139.235C326.265 135.478 324.447 131.721 321.492 129.103C324.447 123.866 325.697 121.361 328.538 116.124C328.538 114.075 327.515 113.506 326.151 114.303C322.742 119.198 320.128 122.386 316.719 127.281C314.674 126.485 312.287 126.143 310.128 126.485C307.855 128.761 306.264 131.494 305.355 134.568C304.219 138.552 304.559 142.878 306.15 146.635C310.355 145.952 314.219 148.115 316.492 151.417Z" fill="#757575" stroke="#263238" stroke-miterlimit="10" stroke-linecap="round" stroke-linejoin="round"/>
<path d="M246.489 171.339C246.034 175.437 247.625 179.649 250.807 182.382C257.057 187.846 278.422 201.85 283.195 202.419C285.013 202.646 286.831 202.533 288.65 202.077C295.127 200.711 316.946 152.212 316.946 152.212C315.81 149.138 310.923 146.634 307.514 146.52C304.218 146.406 302.4 147.431 300.468 150.163C300.355 150.391 282.854 172.932 282.854 172.932C280.126 172.932 268.762 158.702 267.853 156.197C265.126 148.683 260.466 141.738 256.262 139.348C256.262 139.348 250.125 140.145 246.489 171.339Z" fill="#263238" stroke="#263238" stroke-miterlimit="10" stroke-linecap="round" stroke-linejoin="round"/>
<path d="M284.218 174.641C284.218 174.641 290.468 178.739 292.513 181.699" stroke="#757575" stroke-miterlimit="10" stroke-linecap="round" stroke-linejoin="round"/>
<path d="M284.331 177.262C285.922 179.083 286.718 181.474 286.604 183.865" stroke="#757575" stroke-miterlimit="10" stroke-linecap="round" stroke-linejoin="round"/>
<path d="M267.171 154.605C268.876 158.59 269.444 163.03 268.99 167.242" stroke="#757575" stroke-miterlimit="10" stroke-linecap="round" stroke-linejoin="round"/>
<path d="M232.511 387.648C228.306 390.153 223.533 391.519 218.646 391.747C222.965 391.519 227.738 392.088 231.601 394.138" stroke="#263238" stroke-linecap="round" stroke-linejoin="round"/>
<path d="M217.624 399.031C222.51 399.828 227.283 400.967 232.056 402.333" stroke="#263238" stroke-linecap="round" stroke-linejoin="round"/>
<path d="M240.693 296.113C230.92 304.652 217.283 307.27 205.464 301.009C193.872 306.018 176.94 305.449 166.826 297.935" stroke="#263238" stroke-linecap="round" stroke-linejoin="round"/>
<path d="M245.352 291.332C244.557 292.243 243.875 293.154 242.966 294.064" stroke="#263238" stroke-linecap="round" stroke-linejoin="round"/>
<path d="M221.146 273.914H211.714" stroke="#263238" stroke-linecap="round" stroke-linejoin="round"/>
<path d="M228.306 273.914H224.101" stroke="#263238" stroke-linecap="round" stroke-linejoin="round"/>
<path d="M241.375 273.914H230.806" stroke="#263238" stroke-linecap="round" stroke-linejoin="round"/>
<path d="M176.258 273.914H197.964" stroke="#263238" stroke-linecap="round" stroke-linejoin="round"/>
<path d="M168.303 273.914H172.053" stroke="#263238" stroke-linecap="round" stroke-linejoin="round"/>
<path d="M151.257 473.714C157.962 475.763 165.803 473.258 169.894 467.68" stroke="#263238" stroke-linecap="round" stroke-linejoin="round"/>
<path d="M213.078 473.941C218.192 475.535 224.101 474.283 228.079 470.867L213.078 473.941Z" fill="#6970CF"/>
<path d="M213.078 473.941C218.192 475.535 224.101 474.283 228.079 470.867" stroke="#263238" stroke-linecap="round" stroke-linejoin="round"/>
<path d="M176.258 399.145C176.144 399.145 175.917 399.145 175.803 399.145C171.599 404.041 162.848 404.268 157.621 400.511C161.143 399.714 164.78 399.031 168.303 398.234" stroke="#263238" stroke-linecap="round" stroke-linejoin="round"/>
<path d="M159.78 379.793C163.303 386.282 168.644 391.747 175.121 395.39" stroke="#263238" stroke-linecap="round" stroke-linejoin="round"/>
<path d="M156.143 370.684C156.484 372.164 157.052 373.757 157.621 375.237" stroke="#263238" stroke-linecap="round" stroke-linejoin="round"/>
<path d="M257.966 141.965C256.83 141.965 255.921 142.648 255.353 143.673C250.693 151.414 248.42 162.457 249.557 176.916" stroke="#757575" stroke-miterlimit="10" stroke-linecap="round" stroke-linejoin="round"/>
<path d="M158.985 128.762C152.962 135.593 152.962 151.417 156.03 168.836" stroke="#757575" stroke-miterlimit="10" stroke-linecap="round" stroke-linejoin="round"/>
<path d="M204.441 277.102L205.123 295.772" stroke="#263238" stroke-linecap="round" stroke-linejoin="round"/>
<path d="M204.214 269.93L204.328 273.914" stroke="#263238" stroke-linecap="round" stroke-linejoin="round"/>
<path d="M478.09 503.43H0.568115" stroke="#263238" stroke-miterlimit="10" stroke-linecap="round" stroke-linejoin="round"/>
</g>
<defs>
<clipPath id="clip0_1768_11086">
<rect width="494" height="504" fill="white"/>
</clipPath>
</defs>
</svg>
