<svg width="68" height="78" viewBox="0 0 68 78" fill="none" xmlns="http://www.w3.org/2000/svg">
<g clip-path="url(#clip0_1768_11080)">
<path fill-rule="evenodd" clip-rule="evenodd" d="M67.2987 14.7V76.3C67.2987 76.9 66.7987 77.4 66.1987 77.4H1.19874C0.598743 77.4 0.0987431 76.9 0.0987431 76.3V14.7V1.1C-0.00125694 0.5 0.498743 0 1.09874 0H66.0987C66.6987 0 67.1987 0.5 67.1987 1.1V14.7H67.2987ZM23.7987 62.4C23.1987 62.4 22.6987 61.9 22.6987 61.3C22.6987 60.7 23.1987 60.2 23.7987 60.2H43.4987C44.0987 60.2 44.5987 60.7 44.5987 61.3C44.5987 61.9 44.0987 62.4 43.4987 62.4H23.7987ZM37.5987 69.9C36.9987 69.9 36.4987 69.4 36.4987 68.8C36.4987 68.2 36.9987 67.7 37.5987 67.7H58.5987C59.1987 67.7 59.6987 68.2 59.6987 68.8C59.6987 69.4 59.1987 69.9 58.5987 69.9H37.5987ZM8.69874 69.9C8.09874 69.9 7.59874 69.4 7.59874 68.8C7.59874 68.2 8.09874 67.7 8.69874 67.7H29.5987C30.1987 67.7 30.6987 68.2 30.6987 68.8C30.6987 69.4 30.1987 69.9 29.5987 69.9H8.69874ZM8.69874 54.5C8.09874 54.5 7.59874 54 7.59874 53.4C7.59874 52.8 8.09874 52.3 8.69874 52.3H58.5987C59.1987 52.3 59.6987 52.8 59.6987 53.4C59.6987 54 59.1987 54.5 58.5987 54.5H8.69874ZM8.69874 47C8.09874 47 7.59874 46.5 7.59874 45.9C7.59874 45.3 8.09874 44.8 8.69874 44.8H58.5987C59.1987 44.8 59.6987 45.3 59.6987 45.9C59.6987 46.5 59.1987 47 58.5987 47H8.69874ZM8.69874 39.4C8.09874 39.4 7.59874 38.9 7.59874 38.3C7.59874 37.7 8.09874 37.2 8.69874 37.2H58.5987C59.1987 37.2 59.6987 37.7 59.6987 38.3C59.6987 38.9 59.1987 39.4 58.5987 39.4H8.69874ZM8.69874 31.9C8.09874 31.9 7.59874 31.4 7.59874 30.8C7.59874 30.2 8.09874 29.7 8.69874 29.7H58.5987C59.1987 29.7 59.6987 30.2 59.6987 30.8C59.6987 31.4 59.1987 31.9 58.5987 31.9H8.69874ZM8.69874 23.3C8.09874 23.3 7.59874 22.8 7.59874 22.2C7.59874 21.6 8.09874 21.1 8.69874 21.1H34.8987C35.4987 21.1 35.9987 21.6 35.9987 22.2C35.9987 22.8 35.4987 23.3 34.8987 23.3H8.69874ZM2.29874 15.8V75.1H64.9987V15.8H2.29874ZM29.1987 5.2C28.8987 5 28.4987 5 28.0987 5C27.6987 5 27.2987 5 26.9987 5.2C26.6987 5.3 26.3987 5.5 26.0987 5.8C26.0987 5.8 26.0987 5.8 26.0987 5.9C25.7987 6.2 25.5987 6.5 25.4987 6.9C25.3987 7.2 25.2987 7.6 25.2987 8C25.2987 8.4 25.3987 8.8 25.4987 9.1C25.6987 9.5 25.8987 9.8 26.0987 10.1C26.3987 10.4 26.6987 10.6 27.0987 10.7C27.3987 10.8 27.7987 10.9 28.1987 10.9C28.5987 10.9 28.9987 10.8 29.2987 10.7C29.6987 10.5 29.9987 10.3 30.2987 10.1C30.5987 9.8 30.7987 9.5 30.8987 9.1C30.9987 8.8 31.0987 8.4 31.0987 8C31.0987 7.6 30.9987 7.2 30.8987 6.9C30.7987 6.6 30.5987 6.3 30.2987 6L30.1987 5.9C29.8987 5.5 29.5987 5.3 29.1987 5.2ZM19.6987 5.2C19.2987 5 18.9987 5 18.5987 5C18.1987 5 17.7987 5 17.3987 5.2C17.0987 5.3 16.7987 5.5 16.4987 5.8C16.4987 5.8 16.4987 5.8 16.4987 5.9C16.1987 6.2 15.9987 6.5 15.8987 6.9C15.7987 7.2 15.6987 7.6 15.6987 8C15.6987 8.4 15.7987 8.8 15.8987 9.1C16.0987 9.5 16.2987 9.8 16.4987 10.1C16.7987 10.4 17.0987 10.6 17.4987 10.7C17.7987 10.8 18.1987 10.9 18.5987 10.9C18.9987 10.9 19.3987 10.8 19.6987 10.7C20.0987 10.5 20.3987 10.3 20.6987 10.1C20.9987 9.8 21.1987 9.5 21.2987 9.1C21.3987 8.8 21.4987 8.4 21.4987 8C21.4987 7.6 21.3987 7.2 21.2987 6.9C21.1987 6.6 20.9987 6.3 20.6987 6L20.5987 5.9C20.2987 5.5 19.9987 5.3 19.6987 5.2ZM10.0987 5.2C9.79874 5 9.39874 5 8.99874 5C8.59874 5 8.19874 5 7.89874 5.2C7.49874 5.3 7.19874 5.5 6.99874 5.8C6.99874 5.8 6.99874 5.8 6.99874 5.9C6.69874 6.2 6.49874 6.5 6.39874 6.9C6.09874 7.1 6.09874 7.5 6.09874 7.9C6.09874 8.3 6.19874 8.7 6.29874 9C6.39874 9.4 6.69874 9.7 6.89874 10C7.19874 10.3 7.49874 10.5 7.89874 10.6C8.19874 10.7 8.59874 10.8 8.99874 10.8C9.39874 10.8 9.79874 10.7 10.0987 10.6C10.4987 10.4 10.7987 10.2 11.0987 10C11.3987 9.7 11.5987 9.4 11.6987 9C11.7987 8.7 11.8987 8.3 11.8987 7.9C11.8987 7.5 11.7987 7.1 11.6987 6.8C11.5987 6.5 11.3987 6.2 11.0987 5.9L10.9987 5.8C10.7987 5.5 10.4987 5.3 10.0987 5.2ZM35.4987 9C34.8987 9 34.3987 8.5 34.3987 7.9C34.3987 7.3 34.8987 6.8 35.4987 6.8H60.9987C61.5987 6.8 62.0987 7.3 62.0987 7.9C62.0987 8.5 61.5987 9 60.9987 9H35.4987Z" fill="#0F6A91"/>
</g>
<defs>
<clipPath id="clip0_1768_11080">
<rect width="67.3" height="77.4" fill="white"/>
</clipPath>
</defs>
</svg>
