<svg width="628" height="585" viewBox="0 0 628 585" fill="none" xmlns="http://www.w3.org/2000/svg">
<path d="M586.813 560.574H270.492C269.144 558.476 267.945 556.528 266.598 554.431C232.599 502.584 178.081 465.722 118.621 448.339C91.9617 440.547 63.0554 435.902 41.6378 418.22C19.6211 400.089 9.43652 371.019 5.09308 342.848C-0.148987 308.683 2.69672 270.322 25.9116 244.698C53.1703 214.579 98.8513 211.133 134.348 191.353C195.455 157.338 219.119 79.8673 274.685 37.4608C309.732 10.7882 357.061 0.448802 399.447 6.29281C459.655 14.6842 516.27 54.9928 533.344 114.182C538.137 130.665 539.934 148.347 538.436 167.228C535.74 202.591 528.102 238.255 535.291 272.869C543.229 311.08 568.091 343.297 582.919 379.41C601.341 424.364 603.887 474.712 596.099 522.663C594.002 535.4 591.007 548.287 586.813 560.574Z" fill="#7981EC"/>
<path opacity="0.7" d="M586.813 560.574H270.492C269.144 558.476 267.945 556.528 266.598 554.431C232.599 502.584 178.081 465.722 118.621 448.339C91.9617 440.547 63.0554 435.902 41.6378 418.22C19.6211 400.089 9.43652 371.019 5.09308 342.848C-0.148987 308.683 2.69672 270.322 25.9116 244.698C53.1703 214.579 98.8513 211.133 134.348 191.353C195.455 157.338 219.119 79.8673 274.685 37.4608C309.732 10.7882 357.061 0.448802 399.447 6.29281C459.655 14.6842 516.27 54.9928 533.344 114.182C538.137 130.665 539.934 148.347 538.436 167.228C535.74 202.591 528.102 238.255 535.291 272.869C543.229 311.08 568.091 343.297 582.919 379.41C601.341 424.364 603.887 474.712 596.099 522.663C594.002 535.4 591.007 548.287 586.813 560.574Z" fill="white"/>
<path d="M627.25 560.574H0.747757" stroke="#263238" stroke-miterlimit="10" stroke-linecap="round" stroke-linejoin="round"/>
<path d="M272.287 83.7654V60.2395L289.961 58.741C291.009 54.9949 292.507 51.5484 294.304 48.2518L282.921 34.7656L299.546 17.9828L313.026 29.3712C316.321 27.573 319.915 26.0745 323.51 25.0256L325.007 7.34375H348.522L350.02 25.0256C353.764 26.0745 357.209 27.573 360.504 29.3712L373.983 17.9828L390.608 34.6158L379.225 48.1019C381.023 51.3986 382.521 54.9949 383.569 58.5912L401.242 60.0896V83.6155L383.569 85.114C382.521 88.8601 381.023 92.3066 379.225 95.6032L390.608 109.089L373.983 125.722L360.504 114.334C357.209 116.132 353.614 117.631 350.02 118.68L348.522 136.361H325.007L323.51 118.68C319.765 117.631 316.321 116.132 313.026 114.334L299.546 125.722L282.921 109.389L294.304 95.9029C292.507 92.6063 291.009 89.01 289.961 85.4137L272.287 83.7654ZM336.84 99.3494C351.967 99.3494 364.098 87.062 364.098 72.0773C364.098 56.9429 351.817 44.8053 336.84 44.8053C321.712 44.8053 309.581 57.0927 309.581 72.0773C309.581 87.062 321.862 99.3494 336.84 99.3494Z" stroke="#263238" stroke-miterlimit="10" stroke-linecap="round" stroke-linejoin="round"/>
<path d="M19.6201 313.629V302.39L28.0074 301.641C28.4567 299.843 29.2056 298.195 30.1042 296.546L24.7124 290.103L32.6504 282.161L39.0907 287.556C40.7382 286.657 42.3857 285.907 44.183 285.458L44.9319 277.066H56.1649L56.9137 285.458C58.711 285.907 60.3585 286.657 62.006 287.556L68.4463 282.161L76.3843 290.103L70.9924 296.546C71.8911 298.195 72.6399 299.843 73.0892 301.641L81.4766 302.39V313.629L73.0892 314.378C72.6399 316.176 71.8911 317.825 70.9924 319.473L76.3843 325.916L68.4463 333.858L62.006 328.464C60.3585 329.363 58.711 330.112 56.9137 330.562L56.1649 338.953H44.9319L44.183 330.562C42.3857 330.112 40.7382 329.363 39.0907 328.464L32.6504 333.858L24.7124 325.916L30.1042 319.473C29.2056 317.825 28.4567 316.176 28.0074 314.378L19.6201 313.629ZM50.6232 321.121C57.8123 321.121 63.6535 315.277 63.6535 308.085C63.6535 300.892 57.8123 295.048 50.6232 295.048C43.4341 295.048 37.5929 300.892 37.5929 308.085C37.4431 315.277 43.2843 321.121 50.6232 321.121Z" stroke="#263238" stroke-miterlimit="10" stroke-linecap="round" stroke-linejoin="round"/>
<path d="M28.1557 108.34C27.7064 106.092 27.4068 103.845 27.4068 101.447C27.4068 84.5145 41.186 70.7287 58.1104 70.7287C60.9561 70.7287 63.5022 71.1782 66.1981 71.7776C71.2904 62.7868 80.8759 56.793 91.9592 56.793C107.685 56.793 120.416 69.0804 121.465 84.5145C122.962 84.2148 124.46 84.065 125.958 84.065C138.389 84.065 148.574 93.3555 149.921 105.493C157.26 105.643 163.102 111.637 163.102 118.979C163.102 126.471 157.111 132.465 149.622 132.465H36.8425C29.3539 132.465 23.3629 126.471 23.3629 118.979C23.2132 114.484 25.0105 110.738 28.1557 108.34Z" stroke="#263238" stroke-miterlimit="10" stroke-linecap="round" stroke-linejoin="round"/>
<path d="M90.1641 121.828V152.996" stroke="#263238" stroke-miterlimit="10" stroke-linecap="round" stroke-linejoin="round"/>
<path d="M90.1641 103.246V115.683" stroke="#263238" stroke-miterlimit="10" stroke-linecap="round" stroke-linejoin="round"/>
<path d="M90.1641 91.5586V98.3017" stroke="#263238" stroke-miterlimit="10" stroke-linecap="round" stroke-linejoin="round"/>
<path d="M96.0039 149.25L90.1628 156.592L84.1718 149.25" stroke="#263238" stroke-miterlimit="10" stroke-linecap="round" stroke-linejoin="round"/>
<path d="M371.738 472.918C371.288 470.671 370.989 468.423 370.989 466.025C370.989 449.093 384.768 435.307 401.692 435.307C404.538 435.307 407.084 435.756 409.78 436.356C414.872 427.365 424.458 421.371 435.541 421.371C451.267 421.371 463.998 433.658 465.047 449.093C466.544 448.793 468.042 448.643 469.54 448.643C481.971 448.643 492.156 457.934 493.504 470.071C500.842 470.221 506.684 476.215 506.684 483.557C506.684 491.05 500.693 497.043 493.204 497.043H380.425C372.936 497.043 366.945 491.05 366.945 483.557C366.795 479.212 368.592 475.466 371.738 472.918Z" stroke="#263238" stroke-miterlimit="10" stroke-linecap="round" stroke-linejoin="round"/>
<path d="M433.746 490.901V459.883" stroke="#263238" stroke-miterlimit="10" stroke-linecap="round" stroke-linejoin="round"/>
<path d="M433.746 509.629V497.191" stroke="#263238" stroke-miterlimit="10" stroke-linecap="round" stroke-linejoin="round"/>
<path d="M433.746 521.167V514.574" stroke="#263238" stroke-miterlimit="10" stroke-linecap="round" stroke-linejoin="round"/>
<path d="M427.754 463.478L433.745 456.285L439.586 463.478" stroke="#263238" stroke-miterlimit="10" stroke-linecap="round" stroke-linejoin="round"/>
<path d="M227.055 102.645H616.316V84.8131C616.316 81.3666 613.471 78.5195 610.026 78.5195H233.346C229.901 78.5195 227.055 81.3666 227.055 84.8131V102.645Z" fill="#7981EC" stroke="#263238" stroke-miterlimit="10" stroke-linecap="round" stroke-linejoin="round"/>
<path d="M205.936 107.141H599.391V384.206H205.936V107.141Z" fill="white" stroke="#263238" stroke-miterlimit="10" stroke-linecap="round" stroke-linejoin="round"/>
<path d="M199.795 90.5095C199.795 93.8061 202.491 96.5033 205.786 96.5033C209.081 96.5033 211.777 93.8061 211.777 90.5095C211.777 87.2129 209.081 84.5156 205.786 84.5156C202.491 84.5156 199.795 87.2129 199.795 90.5095Z" fill="white" stroke="#263238" stroke-miterlimit="10" stroke-linecap="round" stroke-linejoin="round"/>
<path d="M221.065 90.5095C221.065 93.8061 223.761 96.5033 227.056 96.5033C230.351 96.5033 233.047 93.8061 233.047 90.5095C233.047 87.2129 230.351 84.5156 227.056 84.5156C223.761 84.5156 221.065 87.2129 221.065 90.5095Z" fill="white" stroke="#263238" stroke-miterlimit="10" stroke-linecap="round" stroke-linejoin="round"/>
<path d="M242.331 90.5095C242.331 93.8061 245.027 96.5033 248.322 96.5033C251.617 96.5033 254.312 93.8061 254.312 90.5095C254.312 87.2129 251.617 84.5156 248.322 84.5156C245.027 84.5156 242.331 87.2129 242.331 90.5095Z" fill="white" stroke="#263238" stroke-miterlimit="10" stroke-linecap="round" stroke-linejoin="round"/>
<path d="M217.771 118.98H233.348" stroke="#263238" stroke-width="2" stroke-miterlimit="10" stroke-linecap="round" stroke-linejoin="round"/>
<path d="M217.771 125.273H233.348" stroke="#263238" stroke-width="2" stroke-miterlimit="10" stroke-linecap="round" stroke-linejoin="round"/>
<path d="M217.771 131.566H233.348" stroke="#263238" stroke-width="2" stroke-miterlimit="10" stroke-linecap="round" stroke-linejoin="round"/>
<path d="M572.133 282.461H454.261" stroke="#263238" stroke-width="2" stroke-miterlimit="10" stroke-linecap="round" stroke-linejoin="round"/>
<path d="M572.133 291.75H454.261" stroke="#263238" stroke-width="2" stroke-miterlimit="10" stroke-linecap="round" stroke-linejoin="round"/>
<path d="M572.133 301.191H479.124" stroke="#263238" stroke-width="2" stroke-miterlimit="10" stroke-linecap="round" stroke-linejoin="round"/>
<path d="M322.012 110.137V110.886" stroke="#263238" stroke-linecap="round" stroke-linejoin="round"/>
<path d="M322.012 115.383V376.565" stroke="#263238" stroke-linecap="round" stroke-linejoin="round" stroke-dasharray="1 1"/>
<path d="M322.012 378.812V379.562" stroke="#263238" stroke-linecap="round" stroke-linejoin="round"/>
<path d="M594.598 322.02H593.849" stroke="#263238" stroke-linecap="round" stroke-linejoin="round"/>
<path d="M589.355 322.02H214.922" stroke="#263238" stroke-linecap="round" stroke-linejoin="round" stroke-dasharray="1 1"/>
<path d="M212.676 322.02H211.927" stroke="#263238" stroke-linecap="round" stroke-linejoin="round"/>
<path d="M319.615 319.32H324.707V324.415H319.615V319.32Z" fill="white" stroke="#263238" stroke-miterlimit="10" stroke-linecap="round" stroke-linejoin="round"/>
<path d="M440.035 0.75H513.873C515.67 0.75 517.168 2.24846 517.168 4.04662V38.3614C517.168 40.1596 515.67 41.658 513.873 41.658H480.773L477.029 55.1442L473.284 41.658H440.184C438.387 41.658 436.889 40.1596 436.889 38.3614V4.04662C436.74 2.24846 438.237 0.75 440.035 0.75Z" fill="#7981EC" stroke="#263238" stroke-miterlimit="10" stroke-linecap="round" stroke-linejoin="round"/>
<path d="M504.887 10.6406H449.021" stroke="#263238" stroke-width="2" stroke-miterlimit="10" stroke-linecap="round" stroke-linejoin="round"/>
<path d="M504.887 17.6836H449.021" stroke="#263238" stroke-width="2" stroke-miterlimit="10" stroke-linecap="round" stroke-linejoin="round"/>
<path d="M504.887 24.7266H449.021" stroke="#263238" stroke-width="2" stroke-miterlimit="10" stroke-linecap="round" stroke-linejoin="round"/>
<path d="M504.887 31.7695H462.8" stroke="#263238" stroke-width="2" stroke-miterlimit="10" stroke-linecap="round" stroke-linejoin="round"/>
<path d="M470.138 365.777H550.566V416.126H470.138V365.777Z" fill="#263238" stroke="#263238" stroke-miterlimit="10" stroke-linecap="round" stroke-linejoin="round"/>
<path d="M470.138 365.777H550.566V373.419H470.138V365.777Z" fill="#7981EC" stroke="#263238" stroke-miterlimit="10" stroke-linecap="round" stroke-linejoin="round"/>
<path d="M542.328 379.863H521.809" stroke="white" stroke-miterlimit="10" stroke-linecap="round" stroke-linejoin="round"/>
<path d="M532.145 385.559H496.498" stroke="white" stroke-miterlimit="10" stroke-linecap="round" stroke-linejoin="round"/>
<path d="M536.637 390.953H526.153" stroke="white" stroke-miterlimit="10" stroke-linecap="round" stroke-linejoin="round"/>
<path d="M532.145 397.246H508.181" stroke="white" stroke-miterlimit="10" stroke-linecap="round" stroke-linejoin="round"/>
<path d="M542.328 402.941H521.809" stroke="white" stroke-miterlimit="10" stroke-linecap="round" stroke-linejoin="round"/>
<path d="M342.681 272.273H411.727" stroke="#263238" stroke-miterlimit="10" stroke-linecap="round" stroke-linejoin="round"/>
<path d="M341.333 304.188C341.333 304.188 341.333 272.121 377.129 272.121C412.924 272.121 413.074 304.188 413.074 304.188" stroke="#263238" stroke-miterlimit="10" stroke-linecap="round" stroke-linejoin="round"/>
<path d="M341.333 307.185C339.678 307.185 338.337 305.843 338.337 304.188C338.337 302.533 339.678 301.191 341.333 301.191C342.987 301.191 344.328 302.533 344.328 304.188C344.328 305.843 342.987 307.185 341.333 307.185Z" fill="#7981EC" stroke="#263238" stroke-miterlimit="10" stroke-linecap="round" stroke-linejoin="round"/>
<path d="M416.07 304.188C416.07 302.54 414.722 301.191 413.075 301.191C411.427 301.191 410.079 302.54 410.079 304.188C410.079 305.837 411.427 307.185 413.075 307.185C414.722 307.185 416.07 305.837 416.07 304.188Z" fill="#7981EC" stroke="#263238" stroke-miterlimit="10" stroke-linecap="round" stroke-linejoin="round"/>
<path d="M343.922 274.875H338.68V269.63H343.922V274.875Z" fill="#7981EC" stroke="#263238" stroke-miterlimit="10" stroke-linecap="round" stroke-linejoin="round"/>
<path d="M379.773 274.875H374.531V269.63H379.773V274.875Z" fill="#7981EC" stroke="#263238" stroke-miterlimit="10" stroke-linecap="round" stroke-linejoin="round"/>
<path d="M415.625 274.875H410.383V269.63H415.625V274.875Z" fill="#7981EC" stroke="#263238" stroke-miterlimit="10" stroke-linecap="round" stroke-linejoin="round"/>
<path d="M529.297 175.919V165.28L537.235 164.531C537.684 162.883 538.433 161.234 539.182 159.736L534.089 153.592L541.578 146.1L547.719 151.195C549.217 150.295 550.864 149.696 552.512 149.247L553.26 141.305H563.595L564.344 149.247C565.991 149.696 567.639 150.445 569.136 151.195L575.277 146.1L582.766 153.592L577.674 159.736C578.572 161.234 579.171 162.883 579.621 164.531L587.559 165.28V175.919L579.621 176.668C579.171 178.317 578.422 179.965 577.674 181.463L582.766 187.607L575.277 195.1L569.136 190.005C567.639 190.904 565.991 191.503 564.344 191.953L563.595 199.895H552.961L552.212 191.953C550.565 191.503 548.917 190.754 547.419 190.005L541.279 195.1L533.79 187.607L538.882 181.463C537.984 179.965 537.384 178.317 536.935 176.668L529.297 175.919ZM558.353 182.812C565.093 182.812 570.634 177.268 570.634 170.525C570.634 163.782 565.093 158.237 558.353 158.237C551.613 158.237 546.071 163.782 546.071 170.525C546.071 177.418 551.463 182.812 558.353 182.812Z" fill="#7981EC" stroke="#263238" stroke-miterlimit="10" stroke-linecap="round" stroke-linejoin="round"/>
<path d="M493.203 199.596V192.404L498.595 191.954C498.895 190.755 499.344 189.706 499.943 188.657L496.498 184.462L501.591 179.367L505.784 182.813C506.833 182.214 507.881 181.764 509.079 181.465L509.529 176.07H516.718L517.167 181.465C518.365 181.764 519.414 182.214 520.462 182.813L524.656 179.367L529.748 184.462L526.303 188.657C526.902 189.706 527.352 190.755 527.651 191.954L533.043 192.404V199.596L527.651 200.046C527.352 201.244 526.902 202.293 526.303 203.342L529.748 207.538L524.656 212.633L520.462 209.186C519.414 209.786 518.365 210.235 517.167 210.535L516.718 215.929H509.529L509.079 210.535C507.881 210.235 506.833 209.786 505.784 209.186L501.591 212.633L496.498 207.538L499.943 203.342C499.344 202.293 498.895 201.244 498.595 200.046L493.203 199.596ZM513.123 204.391C517.766 204.391 521.51 200.645 521.51 196C521.51 191.355 517.766 187.608 513.123 187.608C508.48 187.608 504.736 191.355 504.736 196C504.736 200.645 508.48 204.391 513.123 204.391Z" fill="#7981EC" stroke="#263238" stroke-miterlimit="10" stroke-linecap="round" stroke-linejoin="round"/>
<path d="M307.184 339.551H249.221" stroke="#263238" stroke-width="2" stroke-miterlimit="10" stroke-linecap="round" stroke-linejoin="round"/>
<path d="M307.184 348.84H249.221" stroke="#263238" stroke-width="2" stroke-miterlimit="10" stroke-linecap="round" stroke-linejoin="round"/>
<path d="M307.184 358.43H274.233" stroke="#263238" stroke-width="2" stroke-miterlimit="10" stroke-linecap="round" stroke-linejoin="round"/>
<path d="M383.719 362.18H414.273C418.467 362.18 421.762 358.883 421.762 354.688C421.762 350.492 418.467 347.195 414.273 347.195H383.719C379.526 347.195 376.231 350.492 376.231 354.688C376.231 358.883 379.526 362.18 383.719 362.18Z" fill="#7981EC" stroke="#263238" stroke-miterlimit="10" stroke-linecap="round" stroke-linejoin="round"/>
<path d="M326.805 362.18H357.359C361.553 362.18 364.848 358.883 364.848 354.688C364.848 350.492 361.553 347.195 357.359 347.195H326.805C322.612 347.195 319.317 350.492 319.317 354.688C319.317 358.883 322.612 362.18 326.805 362.18Z" fill="#7981EC" stroke="#263238" stroke-miterlimit="10" stroke-linecap="round" stroke-linejoin="round"/>
<path d="M238.29 201.543H302.992V266.277H238.29V201.543Z" fill="white" stroke="#263238" stroke-miterlimit="10" stroke-linecap="round" stroke-linejoin="round"/>
<path d="M302.992 201.543L238.29 266.277" stroke="#263238" stroke-miterlimit="10" stroke-linecap="round" stroke-linejoin="round"/>
<path d="M238.29 201.543L302.992 266.277" stroke="#263238" stroke-miterlimit="10" stroke-linecap="round" stroke-linejoin="round"/>
<path d="M167.896 163.035H248.324V213.384H167.896V163.035Z" fill="#263238" stroke="#263238" stroke-miterlimit="10" stroke-linecap="round" stroke-linejoin="round"/>
<path d="M167.896 163.035H248.324V170.677H167.896V163.035Z" fill="#7981EC" stroke="#263238" stroke-miterlimit="10" stroke-linecap="round" stroke-linejoin="round"/>
<path d="M240.086 177.121H219.567" stroke="white" stroke-miterlimit="10" stroke-linecap="round" stroke-linejoin="round"/>
<path d="M229.902 182.816H194.256" stroke="white" stroke-miterlimit="10" stroke-linecap="round" stroke-linejoin="round"/>
<path d="M234.395 188.211H223.91" stroke="white" stroke-miterlimit="10" stroke-linecap="round" stroke-linejoin="round"/>
<path d="M229.902 194.504H205.939" stroke="white" stroke-miterlimit="10" stroke-linecap="round" stroke-linejoin="round"/>
<path d="M240.086 200.199H219.567" stroke="white" stroke-miterlimit="10" stroke-linecap="round" stroke-linejoin="round"/>
<path d="M277.677 127.969V143.103L284.267 149.696H299.395V127.969H277.677Z" fill="white" stroke="#263238" stroke-miterlimit="10" stroke-linecap="round" stroke-linejoin="round"/>
<path d="M277.676 143.102L284.266 149.695V143.102H277.676Z" fill="white" stroke="#263238" stroke-miterlimit="10" stroke-linecap="round" stroke-linejoin="round"/>
<path d="M509.228 244.852V259.986L515.818 266.579H530.945V244.852H509.228Z" fill="white" stroke="#263238" stroke-miterlimit="10" stroke-linecap="round" stroke-linejoin="round"/>
<path d="M509.226 259.984L515.816 266.578V259.984H509.226Z" fill="white" stroke="#263238" stroke-miterlimit="10" stroke-linecap="round" stroke-linejoin="round"/>
<path d="M591.453 338.055V353.189L598.193 359.782H613.32V338.055H591.453Z" fill="white" stroke="#263238" stroke-miterlimit="10" stroke-linecap="round" stroke-linejoin="round"/>
<path d="M591.452 353.188L598.191 359.781V353.188H591.452Z" fill="white" stroke="#263238" stroke-miterlimit="10" stroke-linecap="round" stroke-linejoin="round"/>
<path d="M318.869 245.897C326.807 246.646 336.842 237.056 336.842 237.056C336.842 237.056 338.34 238.554 339.688 236.756C341.036 234.958 346.577 230.612 346.877 226.866C347.176 223.12 340.586 217.126 340.586 217.126C345.679 218.475 346.278 215.478 346.278 215.478C346.278 215.478 337.741 208.435 334.745 208.285C333.547 208.285 328.455 211.132 323.512 215.178C318.42 219.374 308.685 233.909 308.685 233.909C308.685 233.909 275.884 257.734 267.647 263.728C256.713 271.82 243.833 286.055 243.833 286.055C243.833 286.055 200.398 305.685 188.417 316.474L204.592 354.835C204.592 354.835 244.132 328.312 248.026 321.569C251.92 314.826 255.964 318.872 259.858 314.526C263.753 310.181 267.647 305.086 267.647 305.086C267.647 305.086 277.232 300.89 286.518 291.45C295.804 282.01 303.892 267.474 308.984 258.783C314.076 249.942 318.869 245.897 318.869 245.897Z" fill="white" stroke="#263238" stroke-miterlimit="10" stroke-linecap="round" stroke-linejoin="round"/>
<path d="M316.47 240.204C316.47 240.204 328.303 237.356 329.201 229.564C329.501 227.017 331.747 224.17 331.747 224.17C331.747 224.17 342.681 223.571 342.082 219.075L327.404 217.727C327.404 217.727 319.316 220.424 314.673 228.515" fill="white"/>
<path d="M316.47 240.204C316.47 240.204 328.303 237.356 329.201 229.564C329.501 227.017 331.747 224.17 331.747 224.17C331.747 224.17 342.681 223.571 342.082 219.075L327.404 217.727C327.404 217.727 319.316 220.424 314.673 228.515" stroke="#263238" stroke-miterlimit="10" stroke-linecap="round" stroke-linejoin="round"/>
<path d="M336.84 237.055C336.84 237.055 336.091 236.006 336.391 233.908C336.391 233.908 333.095 233.309 333.545 230.462C333.545 230.462 328.752 229.862 331.897 224.168" stroke="#263238" stroke-miterlimit="10" stroke-linecap="round" stroke-linejoin="round"/>
<path d="M333.545 230.463C333.545 230.463 339.986 225.668 340.734 223.57" stroke="#263238" stroke-miterlimit="10" stroke-linecap="round" stroke-linejoin="round"/>
<path d="M336.39 233.91C336.39 233.91 343.28 229.714 343.43 227.316" stroke="#263238" stroke-miterlimit="10" stroke-linecap="round" stroke-linejoin="round"/>
<path d="M334.893 212.332C334.893 212.332 337.14 216.228 340.734 217.127" stroke="#263238" stroke-miterlimit="10" stroke-linecap="round" stroke-linejoin="round"/>
<path d="M335.941 213.828C335.941 213.828 334.144 214.727 332.646 215.926" stroke="#263238" stroke-miterlimit="10" stroke-linecap="round" stroke-linejoin="round"/>
<path d="M84.9215 346.591C84.9215 346.591 110.832 335.353 137.192 329.059C163.553 322.915 206.088 317.371 206.088 317.371C206.088 317.371 194.406 436.948 197.401 444.141C200.547 451.334 218.969 475.459 218.969 475.459C218.969 475.459 118.77 514.569 101.247 517.865C83.7233 521.162 92.8595 460.624 92.8595 460.624C92.8595 460.624 74.5872 383.603 84.9215 346.591Z" fill="#263238"/>
<path d="M120.869 333.707C120.869 333.707 118.473 338.203 124.764 340.6C140.939 346.594 158.313 341.35 156.366 334.906C155.617 332.509 151.723 334.906 151.873 325.915C151.873 324.717 152.322 323.368 152.921 321.869C153.969 319.622 155.467 317.224 157.115 314.977C159.811 311.081 162.656 308.084 162.656 308.084C162.656 308.084 136.895 291.601 117.874 308.084C117.874 308.084 124.913 311.68 120.869 333.707Z" fill="white" stroke="#263238" stroke-miterlimit="10" stroke-linecap="round" stroke-linejoin="round"/>
<path d="M88.9663 546.637C99.1509 563.12 150.523 570.912 178.681 570.162C206.688 569.413 287.566 531.202 293.108 523.111C298.2 515.618 310.631 490.744 291.46 475.759C289.962 474.561 288.165 473.512 286.218 472.463C273.038 465.27 185.57 487.747 185.57 487.747C185.57 487.747 180.178 484.301 178.082 484.6C171.941 485.349 167.597 490.294 155.316 493.891C146.629 496.438 123.115 486.848 107.988 495.089C106.34 495.989 104.842 497.037 103.345 498.386C89.2659 511.872 78.7817 530.153 88.9663 546.637Z" fill="#7981EC"/>
<path opacity="0.3" d="M107.837 495.088C123.264 494.039 137.043 497.336 146.629 503.03C158.012 509.773 211.78 535.696 211.78 535.696C211.63 532.849 208.635 527.305 208.635 527.305C213.727 522.81 226.907 519.213 226.907 519.213C237.242 510.522 277.83 484.299 291.16 475.908C289.662 474.709 287.865 473.66 285.918 472.611C272.738 465.418 185.27 487.895 185.27 487.895C185.27 487.895 179.878 484.449 177.782 484.749C171.641 485.498 167.298 490.443 155.016 494.039C146.479 496.437 122.965 486.847 107.837 495.088Z" fill="black" fill-opacity="0.7"/>
<path d="M88.9663 546.637C99.1509 563.12 150.523 570.912 178.681 570.162C206.688 569.413 287.566 531.202 293.108 523.111C298.2 515.618 310.631 490.744 291.46 475.759C289.962 474.561 288.165 473.512 286.218 472.463C273.038 465.27 185.57 487.747 185.57 487.747C185.57 487.747 180.178 484.301 178.082 484.6C171.941 485.349 167.597 490.294 155.316 493.891C146.629 496.438 123.115 486.848 107.988 495.089C106.34 495.989 104.842 497.037 103.345 498.386C89.2659 511.872 78.7817 530.154 88.9663 546.637Z" stroke="#263238" stroke-miterlimit="10" stroke-linecap="round" stroke-linejoin="round"/>
<path d="M104.692 561.625L103.344 567.319C103.344 567.319 106.789 577.059 121.916 578.708C137.043 580.356 146.029 583.652 153.368 584.102C160.707 584.551 164.901 583.952 164.901 583.952L166.398 581.704L104.692 561.625Z" fill="white" stroke="#263238" stroke-miterlimit="10" stroke-linecap="round" stroke-linejoin="round"/>
<path d="M192.609 561.024L166.399 581.553C166.399 581.553 146.03 579.905 128.806 575.859C116.375 573.012 105.591 568.816 104.992 563.122C104.093 554.581 113.229 552.183 124.163 552.483C126.26 552.483 128.357 552.633 130.453 552.933C147.977 554.881 170.143 545.141 170.143 545.141L192.609 561.024Z" fill="#263238"/>
<path opacity="0.3" d="M104.842 563.121C109.485 564.919 115.476 567.616 119.37 570.313C119.37 570.313 143.783 582.9 181.227 569.864L192.609 561.023L169.994 545.289C169.994 545.289 147.827 554.879 130.304 553.081C128.207 552.931 126.11 552.632 124.013 552.632C113.229 552.332 104.093 554.729 104.842 563.121Z" fill="black" fill-opacity="0.7"/>
<path d="M192.609 561.024L166.399 581.553C166.399 581.553 146.03 579.905 128.806 575.859C116.375 573.012 105.591 568.816 104.992 563.122C104.093 554.581 113.229 552.183 124.163 552.483C126.26 552.483 128.357 552.633 130.453 552.933C147.977 554.881 170.143 545.141 170.143 545.141L192.609 561.024Z" stroke="#263238" stroke-miterlimit="10" stroke-linecap="round" stroke-linejoin="round"/>
<path d="M168.197 569.118C172.99 569.867 167.748 579.607 161.308 576.61C154.867 573.763 163.404 568.368 168.197 569.118Z" fill="white"/>
<path opacity="0.2" d="M159.36 575.111C162.655 574.661 165.95 574.062 169.545 573.313C170.444 571.365 170.294 569.417 168.197 569.117C164.153 568.517 157.563 572.114 159.36 575.111Z" fill="black" fill-opacity="0.7"/>
<path d="M168.197 569.118C172.99 569.867 167.748 579.607 161.308 576.61C154.867 573.763 163.404 568.368 168.197 569.118Z" stroke="#263238" stroke-miterlimit="10" stroke-linecap="round" stroke-linejoin="round"/>
<path d="M128.805 576.01C116.374 573.163 105.59 568.967 104.991 563.273C104.093 554.732 113.229 552.334 124.162 552.634C124.612 553.233 135.246 563.423 128.805 576.01Z" fill="white"/>
<path opacity="0.3" d="M104.841 563.122C109.484 564.92 115.475 567.617 119.369 570.314C119.369 570.314 122.963 572.112 129.553 573.761C133.747 562.223 124.311 553.082 123.862 552.782C113.228 552.333 104.092 554.73 104.841 563.122Z" fill="black" fill-opacity="0.7"/>
<path d="M128.805 576.01C116.374 573.163 105.59 568.967 104.991 563.273C104.093 554.732 113.229 552.334 124.162 552.634C124.612 553.233 135.246 563.423 128.805 576.01Z" stroke="#263238" stroke-miterlimit="10" stroke-linecap="round" stroke-linejoin="round"/>
<path d="M137.642 565.368C136.893 565.368 136.294 564.919 136.144 564.17C135.844 558.775 131.651 554.28 131.651 554.28C131.201 553.83 131.201 552.931 131.651 552.482C132.1 552.032 132.999 552.032 133.448 552.482C133.598 552.632 138.391 557.576 138.69 564.02C138.84 564.619 138.391 565.219 137.642 565.368Z" fill="white" stroke="#263238" stroke-miterlimit="10" stroke-linecap="round" stroke-linejoin="round"/>
<path d="M142.885 565.668C142.885 565.668 142.735 565.668 142.885 565.668C141.986 565.668 141.537 565.069 141.387 564.47C141.237 558.925 137.493 554.28 137.343 554.13C136.894 553.531 137.044 552.782 137.493 552.332C138.092 551.883 138.841 551.883 139.29 552.482C139.44 552.632 143.784 558.026 143.784 564.32C144.083 564.919 143.484 565.519 142.885 565.668Z" fill="white" stroke="#263238" stroke-miterlimit="10" stroke-linecap="round" stroke-linejoin="round"/>
<path d="M149.024 564.919C148.276 564.919 147.677 564.47 147.527 563.721C147.077 559.225 143.183 553.381 143.183 553.231C142.734 552.632 142.884 551.883 143.483 551.433C144.082 550.984 144.831 551.134 145.28 551.733C145.43 552.033 149.624 558.176 150.073 563.421C150.223 564.32 149.773 564.919 149.024 564.919Z" fill="white" stroke="#263238" stroke-miterlimit="10" stroke-linecap="round" stroke-linejoin="round"/>
<path d="M155.015 564.321C154.865 564.321 154.715 564.321 154.715 564.321C153.966 564.171 153.517 563.572 153.667 562.823C154.565 557.278 149.473 552.633 149.473 552.483C148.874 552.034 148.874 551.135 149.323 550.685C149.773 550.086 150.671 550.086 151.121 550.535C151.42 550.835 157.411 556.229 156.213 563.122C156.063 563.872 155.464 564.321 155.015 564.321Z" fill="white" stroke="#263238" stroke-miterlimit="10" stroke-linecap="round" stroke-linejoin="round"/>
<path d="M161.309 562.821C161.159 562.821 161.009 562.821 160.859 562.821C160.11 562.671 159.661 561.922 159.811 561.323C161.009 556.378 156.066 550.833 156.066 550.833C155.617 550.234 155.617 549.485 156.216 549.035C156.815 548.586 157.564 548.586 158.014 549.185C158.313 549.485 163.855 555.778 162.357 562.072C162.357 562.372 161.908 562.821 161.309 562.821Z" fill="white" stroke="#263238" stroke-miterlimit="10" stroke-linecap="round" stroke-linejoin="round"/>
<path d="M296.252 553.23L298.199 558.775C298.199 558.775 295.803 568.814 280.975 572.111C266.148 575.258 257.461 579.603 250.272 580.802C243.083 582.001 238.739 581.851 238.739 581.851L237.092 579.753L296.252 553.23Z" fill="white" stroke="#263238" stroke-miterlimit="10" stroke-linecap="round" stroke-linejoin="round"/>
<path d="M208.785 561.771L237.092 579.602C237.092 579.602 257.162 575.856 273.936 570.012C286.068 565.816 296.402 560.572 296.402 554.878C296.402 546.187 286.967 544.838 276.183 546.336C274.086 546.636 272.139 546.936 270.042 547.385C252.818 551.132 229.753 543.789 229.753 543.789L208.785 561.771Z" fill="#263238"/>
<path opacity="0.3" d="M208.786 561.771L225.41 572.26C242.035 567.165 252.969 556.526 259.109 548.434C244.432 548.434 229.604 543.789 229.604 543.789L208.786 561.771Z" fill="black" fill-opacity="0.7"/>
<path d="M208.785 561.771L237.092 579.602C237.092 579.602 257.162 575.856 273.936 570.012C286.068 565.816 296.402 560.572 296.402 554.878C296.402 546.187 286.967 544.838 276.183 546.336C274.086 546.636 272.139 546.936 270.042 547.385C252.818 551.132 229.753 543.789 229.753 543.789L208.785 561.771Z" stroke="#263238" stroke-miterlimit="10" stroke-linecap="round" stroke-linejoin="round"/>
<path d="M273.788 570.012C285.92 565.816 296.254 560.572 296.254 554.878C296.254 546.187 286.818 544.838 276.034 546.336C275.585 546.786 266.149 558.174 273.788 570.012Z" fill="white" stroke="#263238" stroke-miterlimit="10" stroke-linecap="round" stroke-linejoin="round"/>
<path d="M263.903 560.271C264.652 560.271 265.251 559.672 265.251 558.922C264.951 553.528 268.696 548.733 268.696 548.583C269.145 547.984 268.995 547.234 268.396 546.785C267.797 546.335 267.048 546.485 266.599 547.085C266.449 547.384 262.256 552.779 262.705 559.072C262.705 559.821 263.304 560.271 263.903 560.271Z" fill="white" stroke="#263238" stroke-miterlimit="10" stroke-linecap="round" stroke-linejoin="round"/>
<path d="M258.811 561.172C259.709 561.172 260.159 560.423 260.159 559.824C259.709 554.429 263.004 549.185 263.004 549.185C263.454 548.585 263.304 547.836 262.705 547.386C262.106 546.937 261.357 547.087 260.908 547.686C260.758 547.986 257.013 553.53 257.613 559.974C257.613 560.573 258.062 561.172 258.811 561.172Z" fill="white" stroke="#263238" stroke-miterlimit="10" stroke-linecap="round" stroke-linejoin="round"/>
<path d="M252.518 561.17C253.267 561.17 253.866 560.571 253.866 559.822C253.717 555.326 257.012 549.033 257.012 549.033C257.311 548.433 257.161 547.684 256.413 547.235C255.813 546.935 255.065 547.085 254.615 547.834C254.465 548.134 251.021 554.727 251.17 559.971C251.32 560.571 251.77 561.17 252.518 561.17Z" fill="white" stroke="#263238" stroke-miterlimit="10" stroke-linecap="round" stroke-linejoin="round"/>
<path d="M246.676 561.172C246.826 561.172 246.976 561.172 246.976 561.172C247.725 561.022 248.024 560.273 247.874 559.523C246.377 554.129 251.02 548.884 251.02 548.884C251.469 548.285 251.469 547.536 250.87 547.086C250.271 546.637 249.522 546.637 249.073 547.236C248.773 547.536 243.531 553.529 245.328 560.273C245.478 560.722 246.077 561.172 246.676 561.172Z" fill="white" stroke="#263238" stroke-miterlimit="10" stroke-linecap="round" stroke-linejoin="round"/>
<path d="M240.087 560.272C240.237 560.272 240.386 560.272 240.536 560.272C241.285 559.972 241.585 559.373 241.285 558.623C239.637 553.828 243.831 547.834 243.981 547.685C244.43 547.085 244.28 546.336 243.681 545.886C243.082 545.437 242.333 545.587 241.884 546.186C241.734 546.486 236.792 553.379 238.889 559.373C239.038 559.972 239.638 560.272 240.087 560.272Z" fill="white" stroke="#263238" stroke-miterlimit="10" stroke-linecap="round" stroke-linejoin="round"/>
<path d="M233.947 567.316C229.304 568.515 235.445 577.656 241.586 574.06C247.726 570.463 238.59 566.118 233.947 567.316Z" fill="white" stroke="#263238" stroke-miterlimit="10" stroke-linecap="round" stroke-linejoin="round"/>
<path d="M287.414 519.215C280.524 528.955 259.856 539.744 239.487 548.585C237.24 552.181 232.747 559.074 226.606 565.367C214.025 578.404 208.783 571.062 208.783 571.062C208.783 571.062 200.845 570.163 189.013 568.514C188.264 570.013 186.467 572.41 183.022 571.811C181.524 571.511 178.529 569.413 175.234 566.416C145.579 561.921 105.29 554.429 94.3561 545.738" fill="#7981EC"/>
<path d="M287.414 519.215C280.524 528.955 259.856 539.744 239.487 548.585C237.24 552.181 232.747 559.074 226.606 565.367C214.025 578.404 208.783 571.062 208.783 571.062C208.783 571.062 200.845 570.163 189.013 568.514C188.264 570.013 186.467 572.41 183.022 571.811C181.524 571.511 178.529 569.413 175.234 566.416C145.579 561.921 105.29 554.429 94.3561 545.738" stroke="#263238" stroke-miterlimit="10" stroke-linecap="round" stroke-linejoin="round"/>
<path d="M106.04 500.634C111.132 494.94 116.374 494.79 127.158 495.54C127.158 495.54 155.315 504.53 174.935 516.368C194.556 528.206 223.163 540.793 223.163 540.793C223.163 540.793 231.849 538.246 237.99 540.793C237.99 540.793 242.184 541.093 239.338 548.585" stroke="#263238" stroke-miterlimit="10" stroke-linecap="round" stroke-linejoin="round"/>
<path d="M93.009 534.5C93.009 534.5 92.8592 543.191 105.141 549.185" stroke="#263238" stroke-miterlimit="10" stroke-linecap="round" stroke-linejoin="round"/>
<path d="M229.152 498.086C229.152 498.086 209.682 512.172 205.788 521.462C205.788 521.462 198.299 524.609 194.704 527.156" stroke="#263238" stroke-miterlimit="10" stroke-linecap="round" stroke-linejoin="round"/>
<path d="M204.293 509.773C202.945 513.819 202.496 518.165 203.544 522.361" stroke="#263238" stroke-miterlimit="10" stroke-linecap="round" stroke-linejoin="round"/>
<path d="M208.785 500.633C207.737 502.131 206.838 503.78 205.939 505.578" stroke="#263238" stroke-miterlimit="10" stroke-linecap="round" stroke-linejoin="round"/>
<path d="M181.078 499.434C181.078 499.434 174.488 508.125 172.99 515.167" stroke="#263238" stroke-miterlimit="10" stroke-linecap="round" stroke-linejoin="round"/>
<path d="M144.832 552.032C142.436 551.882 140.039 551.582 137.643 551.133" stroke="#263238" stroke-miterlimit="10" stroke-linecap="round" stroke-linejoin="round"/>
<path d="M205.938 545.887C188.114 549.333 168.644 551.881 149.922 552.33" stroke="#263238" stroke-miterlimit="10" stroke-linecap="round" stroke-linejoin="round"/>
<path d="M74.1381 413.725C74.1381 413.725 77.5828 475.012 81.7765 478.608C85.9701 482.204 92.4104 483.253 104.842 484.302C117.273 485.351 171.94 488.648 171.94 488.648L177.781 470.966C177.781 470.966 148.725 467.969 135.695 463.174C122.814 458.379 105.89 455.232 105.89 455.232C105.89 455.232 108.286 439.798 108.286 433.205C108.286 426.611 108.286 409.679 108.286 401.887" fill="white"/>
<path d="M74.1381 413.725C74.1381 413.725 77.5828 475.012 81.7765 478.608C85.9701 482.204 92.4104 483.253 104.842 484.302C117.273 485.351 171.94 488.648 171.94 488.648L177.781 470.966C177.781 470.966 148.725 467.969 135.695 463.174C122.814 458.379 105.89 455.232 105.89 455.232C105.89 455.232 108.286 439.798 108.286 433.205C108.286 426.611 108.286 409.679 108.286 401.887" stroke="#263238" stroke-miterlimit="10" stroke-linecap="round" stroke-linejoin="round"/>
<path d="M84.9214 346.594C71.5916 354.835 67.6975 373.866 72.1907 414.474C72.1907 414.474 68.2966 419.269 74.1378 421.667C74.1378 421.667 96.0047 413.575 106.039 419.119C116.224 424.814 113.528 411.327 113.528 411.327C113.528 411.327 117.722 374.016 108.436 367.273" fill="#263238"/>
<path d="M109.785 361.426C109.785 361.426 122.665 374.762 111.283 408.478C111.283 408.478 112.78 414.621 112.78 416.869C112.78 419.117 109.635 420.315 109.635 420.315" stroke="white" stroke-miterlimit="10" stroke-linecap="round" stroke-linejoin="round"/>
<path d="M124.762 384.055C124.762 384.055 123.863 400.538 113.678 407.73" stroke="white" stroke-miterlimit="10" stroke-linecap="round" stroke-linejoin="round"/>
<path d="M121.468 345.844C121.468 345.844 141.388 353.487 157.264 345.095C166.699 340.15 162.805 332.059 162.805 332.059" stroke="white" stroke-miterlimit="10" stroke-linecap="round" stroke-linejoin="round"/>
<path d="M264.501 500.637H156.214C153.818 500.637 151.272 500.337 149.025 499.738L127.608 494.193C127.009 494.043 126.559 493.444 126.559 492.845C126.559 492.095 127.158 491.496 127.907 491.496H268.994C269.743 491.496 270.342 492.095 270.342 492.845V494.793C270.491 498.089 267.796 500.637 264.501 500.637Z" fill="#757575" stroke="#263238" stroke-miterlimit="10" stroke-linecap="round" stroke-linejoin="round"/>
<path d="M275.283 495.391H166.697C164.75 495.391 163.702 493.893 164.151 491.945L184.371 413.575C184.82 411.627 186.767 410.129 188.714 410.129H297.3C299.247 410.129 300.295 411.627 299.846 413.575L279.627 491.945C279.177 493.743 277.23 495.391 275.283 495.391Z" fill="#999999" stroke="#263238" stroke-miterlimit="10" stroke-linecap="round" stroke-linejoin="round"/>
<path d="M293.407 412.676H295.504" stroke="#263238" stroke-miterlimit="10" stroke-linecap="round" stroke-linejoin="round"/>
<path d="M277.53 412.676H288.164" stroke="#263238" stroke-miterlimit="10" stroke-linecap="round" stroke-linejoin="round"/>
<path d="M169.243 485.351L187.066 416.122C187.515 414.174 189.462 412.676 191.409 412.676H275.133" stroke="#263238" stroke-miterlimit="10" stroke-linecap="round" stroke-linejoin="round"/>
<path d="M167.746 491.493L168.195 489.695" stroke="#263238" stroke-miterlimit="10" stroke-linecap="round" stroke-linejoin="round"/>
<path d="M242.633 454.634C242.633 455.233 242.483 455.833 242.183 456.582C240.836 461.377 236.342 464.224 232.298 463.026C228.255 461.827 226.008 457.032 227.506 452.237C228.854 447.441 233.347 444.594 237.391 445.793C237.84 445.943 238.289 446.093 238.739 446.393C238.439 449.839 239.937 453.136 242.633 454.634Z" fill="white" stroke="#263238" stroke-miterlimit="10" stroke-linecap="round" stroke-linejoin="round"/>
<path d="M194.707 307.632C204.143 306.583 209.235 297.593 214.926 296.244C220.618 294.895 224.212 293.247 224.212 293.247C224.212 293.247 226.159 286.504 229.005 288.752C231.851 291.149 235.745 341.947 232 340.299C228.256 338.651 228.256 344.644 228.256 344.644L193.359 375.363L164.153 323.516C164.003 323.816 185.271 308.681 194.707 307.632Z" fill="#263238"/>
<path d="M479.125 126.468V125.719H478.376" stroke="#263238" stroke-linecap="round" stroke-linejoin="round"/>
<path d="M474.031 125.719H347.323" stroke="#263238" stroke-linecap="round" stroke-linejoin="round" stroke-dasharray="0.98 0.98"/>
<path d="M345.078 125.719H344.329V126.468" stroke="#263238" stroke-linecap="round" stroke-linejoin="round"/>
<path d="M344.328 130.965V212.631" stroke="#263238" stroke-linecap="round" stroke-linejoin="round" stroke-dasharray="1 1"/>
<path d="M344.329 214.879V215.628H345.078" stroke="#263238" stroke-linecap="round" stroke-linejoin="round"/>
<path d="M349.421 215.625H476.129" stroke="#263238" stroke-linecap="round" stroke-linejoin="round" stroke-dasharray="0.98 0.98"/>
<path d="M478.376 215.628H479.125V214.879" stroke="#263238" stroke-linecap="round" stroke-linejoin="round"/>
<path d="M479.125 210.381V128.715" stroke="#263238" stroke-linecap="round" stroke-linejoin="round" stroke-dasharray="1 1"/>
<path d="M411.726 127.968C410.485 127.968 409.479 126.962 409.479 125.72C409.479 124.479 410.485 123.473 411.726 123.473C412.967 123.473 413.973 124.479 413.973 125.72C413.973 126.962 412.967 127.968 411.726 127.968Z" fill="#7981EC" stroke="#263238" stroke-miterlimit="10" stroke-linecap="round" stroke-linejoin="round"/>
<path d="M479.124 172.921C477.884 172.921 476.878 171.915 476.878 170.673C476.878 169.432 477.884 168.426 479.124 168.426C480.365 168.426 481.371 169.432 481.371 170.673C481.371 171.915 480.365 172.921 479.124 172.921Z" fill="#7981EC" stroke="#263238" stroke-miterlimit="10" stroke-linecap="round" stroke-linejoin="round"/>
<path d="M411.726 217.874C410.485 217.874 409.479 216.868 409.479 215.627C409.479 214.385 410.485 213.379 411.726 213.379C412.967 213.379 413.973 214.385 413.973 215.627C413.973 216.868 412.967 217.874 411.726 217.874Z" fill="#7981EC" stroke="#263238" stroke-miterlimit="10" stroke-linecap="round" stroke-linejoin="round"/>
<path d="M344.332 172.921C343.091 172.921 342.085 171.915 342.085 170.673C342.085 169.432 343.091 168.426 344.332 168.426C345.572 168.426 346.578 169.432 346.578 170.673C346.578 171.915 345.572 172.921 344.332 172.921Z" fill="#7981EC" stroke="#263238" stroke-miterlimit="10" stroke-linecap="round" stroke-linejoin="round"/>
<path d="M341.783 213.078H346.875V218.173H341.783V213.078Z" fill="#7981EC" stroke="#263238" stroke-miterlimit="10" stroke-linecap="round" stroke-linejoin="round"/>
<path d="M341.783 123.172H346.875V128.267H341.783V123.172Z" fill="#7981EC" stroke="#263238" stroke-miterlimit="10" stroke-linecap="round" stroke-linejoin="round"/>
<path d="M476.58 213.078H481.672V218.173H476.58V213.078Z" fill="#7981EC" stroke="#263238" stroke-miterlimit="10" stroke-linecap="round" stroke-linejoin="round"/>
<path d="M476.58 123.172H481.672V128.267H476.58V123.172Z" fill="#7981EC" stroke="#263238" stroke-miterlimit="10" stroke-linecap="round" stroke-linejoin="round"/>
<path d="M352.868 133.66H470.141V208.284H352.868V133.66Z" fill="white" stroke="#263238" stroke-miterlimit="10" stroke-linecap="round" stroke-linejoin="round"/>
<path d="M352.868 186.258L365.898 199.295L401.245 163.931L416.072 178.766L439.737 155.09L470.141 185.658V208.285H352.868V186.258Z" fill="#7981EC" stroke="#263238" stroke-miterlimit="10" stroke-linecap="round" stroke-linejoin="round"/>
<path d="M377.13 163.03C372.58 163.03 368.892 159.34 368.892 154.788C368.892 150.237 372.58 146.547 377.13 146.547C381.679 146.547 385.367 150.237 385.367 154.788C385.367 159.34 381.679 163.03 377.13 163.03Z" fill="#7981EC" stroke="#263238" stroke-miterlimit="10" stroke-linecap="round" stroke-linejoin="round"/>
<path d="M188.414 321.418C188.414 321.418 197.251 338.201 198.449 363.824" stroke="white" stroke-miterlimit="10" stroke-linecap="round" stroke-linejoin="round"/>
<path d="M214.777 332.957C214.777 332.957 212.081 347.192 204.293 357.532" stroke="white" stroke-miterlimit="10" stroke-linecap="round" stroke-linejoin="round"/>
<path d="M177.93 391.695C177.93 391.695 164.45 436.05 135.094 449.086" stroke="white" stroke-miterlimit="10" stroke-linecap="round" stroke-linejoin="round"/>
<path d="M142.435 311.527C142.435 311.527 143.783 321.267 152.92 321.867C153.968 319.619 155.466 317.222 157.113 314.974C150.973 313.026 142.435 311.527 142.435 311.527Z" fill="#263238"/>
<path d="M122.667 312.278C122.667 312.278 107.09 314.226 100.65 293.247C94.2099 272.419 99.3022 256.685 124.913 249.042C139.142 244.847 153.37 248.293 158.612 259.082C162.956 268.373 161.009 276.015 161.907 279.162C163.106 282.608 173.59 285.605 173.59 288.003C173.59 289.951 167.749 293.397 167.749 293.397L169.396 298.642L167.749 299.541C167.749 299.541 170.744 311.229 169.396 315.275C168.348 318.271 142.137 319.47 140.041 312.128" fill="white"/>
<path d="M122.667 312.278C122.667 312.278 107.09 314.226 100.65 293.247C94.2099 272.419 99.3022 256.685 124.913 249.042C139.142 244.847 153.37 248.293 158.612 259.082C162.956 268.373 161.009 276.015 161.907 279.162C163.106 282.608 173.59 285.605 173.59 288.003C173.59 289.951 167.749 293.397 167.749 293.397L169.396 298.642L167.749 299.541C167.749 299.541 170.744 311.229 169.396 315.275C168.348 318.271 142.137 319.47 140.041 312.128" stroke="#263238" stroke-miterlimit="10" stroke-linecap="round" stroke-linejoin="round"/>
<path d="M158.461 266.727C158.461 266.727 153.369 268.075 151.871 270.772" stroke="#263238" stroke-miterlimit="10" stroke-linecap="round" stroke-linejoin="round"/>
<path d="M157.563 278.564C157.713 280.062 157.414 281.411 156.815 281.411C156.215 281.561 155.467 280.362 155.167 278.864C155.017 277.365 155.317 276.017 155.916 276.017C156.665 275.867 157.264 277.065 157.563 278.564Z" fill="#263238"/>
<path d="M167.898 299.242C167.898 299.242 159.511 302.389 156.366 300.441" stroke="#263238" stroke-miterlimit="10" stroke-linecap="round" stroke-linejoin="round"/>
<path d="M164.903 277.366C165.502 280.663 164.753 283.66 163.255 283.96C161.757 284.259 159.96 281.712 159.361 278.415C158.762 275.119 159.511 272.122 161.008 271.822C162.506 271.522 164.303 273.92 164.903 277.366Z" stroke="#263238" stroke-miterlimit="10" stroke-linecap="round" stroke-linejoin="round"/>
<path d="M99.9002 260.283C99.9002 260.283 101.098 251.592 109.635 245.148C118.173 238.855 128.507 237.506 128.507 237.506C128.507 237.506 123.564 239.604 121.617 242.601C121.617 242.601 134.498 233.011 149.625 239.304C164.902 245.598 162.955 262.081 162.955 262.081L160.708 257.735C160.708 257.735 161.008 262.83 158.312 264.778C158.312 264.778 156.664 259.833 155.017 257.586C155.017 257.586 150.973 269.723 139.89 273.919C139.89 273.919 141.088 271.521 140.04 267.925C140.04 267.925 133.899 281.261 135.696 287.855L133.749 291.301C133.749 291.301 126.71 284.108 120.868 290.102C117.573 293.549 127.159 306.585 128.507 306.585L122.666 315.127C122.666 315.127 108.138 317.224 99.7504 301.491C91.3631 285.757 93.46 279.014 93.46 279.014C93.46 279.014 90.764 282.91 90.3147 285.007C90.4645 284.708 88.0681 267.775 99.9002 260.283Z" fill="#263238"/>
<path d="M134.199 292.648C134.199 292.648 129.706 277.514 120.121 282.908C110.535 288.303 117.425 296.245 120.869 299.391C124.314 302.538 126.86 308.083 129.107 308.083C131.354 308.083 131.803 305.385 131.803 305.385" fill="white"/>
<path d="M134.199 292.648C134.199 292.648 129.706 277.514 120.121 282.908C110.535 288.303 117.425 296.245 120.869 299.391C124.314 302.538 126.86 308.083 129.107 308.083C131.354 308.083 131.803 305.385 131.803 305.385" stroke="#263238" stroke-miterlimit="10" stroke-linecap="round" stroke-linejoin="round"/>
<path d="M159.363 278.414L132.704 283.958" stroke="#263238" stroke-miterlimit="10" stroke-linecap="round" stroke-linejoin="round"/>
</svg>
