<svg width="337" height="314" viewBox="0 0 337 314" fill="none" xmlns="http://www.w3.org/2000/svg">
<g clip-path="url(#clip0_1768_5754)">
<path d="M110.978 6.07433C110.978 6.07433 166.217 -13.5775 220.457 17.7225C274.625 49.0224 302.03 111.194 325.51 161.002C348.991 210.81 335.502 261.405 294.109 284.558C252.715 307.64 224.596 273.625 166.502 271.981C108.409 270.337 92.8506 278.627 44.6057 245.826C-3.56769 212.954 -12.2746 135.419 25.6932 78.0356C63.7324 20.5095 110.978 6.07433 110.978 6.07433Z" fill="url(#paint0_linear_1768_5754)"/>
<path d="M320.086 183.871C320.086 183.871 318.73 186.372 319.944 188.73C321.157 191.089 322.584 193.447 321.728 194.662C320.871 195.877 318.159 197.306 318.445 199.878C318.73 202.38 322.299 207.453 320.086 210.24C317.874 213.027 314.163 212.884 314.02 216.029C313.877 219.173 317.588 221.674 316.518 224.461C315.447 227.248 309.452 227.891 309.452 229.821C309.452 231.75 311.808 233.822 309.881 235.895C307.954 237.967 298.676 243.398 297.32 241.183C295.964 238.968 293.323 232.822 295.107 224.104C295.393 222.603 297.463 222.317 297.748 220.245C298.034 218.172 297.177 214.456 298.604 212.384C300.103 210.312 304.813 209.597 305.099 207.953C305.384 206.31 303.315 202.308 305.384 199.807C307.454 197.306 312.307 196.091 312.307 194.447C312.307 192.804 310.808 190.731 312.878 188.516C315.09 186.229 320.086 183.871 320.086 183.871Z" fill="#7981EC"/>
<path d="M313.02 201.309C309.951 210.599 304.527 223.247 302.386 229.321C299.745 236.753 297.39 242.113 296.248 249.473C295.035 256.905 294.392 306.499 294.392 306.499" stroke="#263238" stroke-miterlimit="10" stroke-linecap="round" stroke-linejoin="round"/>
<path d="M319.371 184.73C319.371 184.73 316.873 186.803 314.661 195.807C314.518 196.379 314.375 197.022 314.161 197.665" stroke="#263238" stroke-miterlimit="10" stroke-linecap="round" stroke-linejoin="round"/>
<path d="M273.912 200.734C273.912 200.734 274.982 202.735 274.054 204.665C273.127 206.594 271.913 208.452 272.627 209.381C273.341 210.31 275.482 211.525 275.196 213.526C274.982 215.527 272.127 219.6 273.912 221.815C275.696 224.102 278.622 223.959 278.765 226.46C278.907 228.962 275.91 230.962 276.766 233.249C277.623 235.536 282.476 235.965 282.476 237.537C282.476 239.109 280.549 240.753 282.119 242.396C283.689 244.04 291.111 248.399 292.182 246.612C293.252 244.826 295.393 239.895 293.966 232.963C293.752 231.82 292.039 231.534 291.825 229.891C291.611 228.247 292.325 225.246 291.111 223.602C289.898 221.958 286.116 221.315 285.902 220.029C285.687 218.743 287.329 215.527 285.687 213.526C284.046 211.525 280.121 210.596 280.121 209.238C280.121 207.952 281.334 206.308 279.621 204.522C277.908 202.592 273.912 200.734 273.912 200.734Z" fill="#7981EC"/>
<path d="M279.549 214.668C282.047 222.1 286.329 232.176 288.113 237.107C290.254 243.038 292.11 247.326 293.037 253.257C293.965 259.188 294.465 298.849 294.465 298.849" stroke="#263238" stroke-miterlimit="10" stroke-linecap="round" stroke-linejoin="round"/>
<path d="M274.481 201.449C274.481 201.449 276.479 203.093 278.263 210.31C278.406 210.811 278.477 211.239 278.691 211.811" stroke="#263238" stroke-miterlimit="10" stroke-linecap="round" stroke-linejoin="round"/>
<path d="M314.592 234.25C314.592 234.25 313.735 235.965 314.521 237.537C315.306 239.109 316.305 240.682 315.734 241.468C315.163 242.254 313.379 243.254 313.593 244.898C313.807 246.613 316.162 249.971 314.663 251.829C313.165 253.687 310.738 253.616 310.595 255.688C310.524 257.761 312.95 259.476 312.308 261.334C311.594 263.192 307.526 263.621 307.526 264.907C307.526 266.193 309.097 267.551 307.812 268.98C306.527 270.338 300.318 273.982 299.391 272.482C298.534 270.981 296.679 266.908 297.892 261.048C298.106 260.047 299.462 259.833 299.676 258.475C299.89 257.118 299.248 254.616 300.247 253.259C301.246 251.901 304.386 251.401 304.6 250.257C304.814 249.185 303.387 246.47 304.814 244.826C306.17 243.111 309.453 242.325 309.453 241.253C309.453 240.181 308.454 238.752 309.882 237.323C311.238 235.822 314.592 234.25 314.592 234.25Z" fill="#7981EC"/>
<path d="M309.883 245.898C307.813 252.116 304.245 260.548 302.746 264.621C300.962 269.552 299.392 273.125 298.607 278.127C297.822 283.058 297.393 301.424 297.393 301.424" stroke="#263238" stroke-miterlimit="10" stroke-linecap="round" stroke-linejoin="round"/>
<path d="M314.094 234.82C314.094 234.82 312.381 236.178 310.954 242.252C310.882 242.61 310.739 243.038 310.597 243.467" stroke="#263238" stroke-miterlimit="10" stroke-linecap="round" stroke-linejoin="round"/>
<path d="M263.635 231.82C263.635 231.82 264.92 233.25 264.491 234.965C264.063 236.68 263.492 238.466 264.206 239.109C264.991 239.753 266.918 240.324 267.132 241.968C267.346 243.683 265.776 247.47 267.632 248.971C269.487 250.472 271.914 249.829 272.485 251.829C273.056 253.83 271.057 256.046 272.128 257.689C273.198 259.333 277.266 258.833 277.552 260.047C277.837 261.334 276.624 262.977 278.194 264.049C279.764 265.121 286.616 267.194 287.186 265.55C287.686 263.906 288.542 259.476 286.045 254.116C285.616 253.187 284.189 253.33 283.689 252.044C283.19 250.758 283.19 248.185 281.905 247.042C280.621 245.898 277.409 246.184 276.981 245.112C276.553 244.112 277.266 241.182 275.553 239.824C273.841 238.538 270.486 238.466 270.201 237.394C269.987 236.322 270.629 234.75 268.916 233.607C267.275 232.535 263.635 231.82 263.635 231.82Z" fill="#7981EC"/>
<path d="M270.915 242.039C274.341 247.613 279.765 254.974 282.12 258.618C284.974 263.049 288.4 265.836 289.185 270.766C289.97 275.697 290.398 294.063 290.398 294.063" stroke="#263238" stroke-miterlimit="10" stroke-linecap="round" stroke-linejoin="round"/>
<path d="M264.276 232.25C264.276 232.25 266.203 233.179 269.058 238.753C269.272 239.11 269.415 239.468 269.629 239.896" stroke="#263238" stroke-miterlimit="10" stroke-linecap="round" stroke-linejoin="round"/>
<path d="M298.748 312.071H287.757C281.976 309.069 277.837 301.495 277.837 292.633C277.837 286.845 279.621 281.557 282.476 277.77H304.029C306.884 281.557 308.668 286.774 308.668 292.633C308.668 301.495 304.6 309.069 298.748 312.071Z" fill="white" stroke="#263238" stroke-miterlimit="10" stroke-linecap="round" stroke-linejoin="round"/>
<path d="M287.541 312.07H298.746V313.714H287.541V312.07Z" fill="white" stroke="#263238" stroke-miterlimit="10" stroke-linecap="round" stroke-linejoin="round"/>
<path d="M134.958 34.9453H310.238V167.791H134.958V34.9453Z" stroke="#263238" stroke-miterlimit="10" stroke-linecap="round" stroke-linejoin="round"/>
<path d="M139.028 38.5195H306.172V164.363H139.028V38.5195Z" stroke="#263238" stroke-miterlimit="10" stroke-linecap="round" stroke-linejoin="round"/>
<path d="M255.215 56.9546C255.215 56.9546 282.549 54.9537 284.832 59.2414C287.116 63.529 285.475 141.922 284.19 142.922C282.906 143.923 246.008 144.566 242.44 143.28C238.8 141.993 243.724 62.2427 243.724 59.956C243.724 57.6692 252.289 56.6688 252.289 56.6688" stroke="#263238" stroke-width="2" stroke-miterlimit="10" stroke-linecap="round" stroke-linejoin="round"/>
<path d="M282.047 121.843C281.976 132.205 281.761 139.78 281.262 139.994C279.62 140.637 244.721 143.638 243.794 140.351C242.794 137.064 246.434 62.6016 246.434 62.6016" stroke="#263238" stroke-width="2" stroke-miterlimit="10" stroke-linecap="round" stroke-linejoin="round"/>
<path d="M247.647 62.2445C247.647 62.2445 280.905 60.9582 281.19 62.6018C281.405 63.6023 282.047 94.4735 282.047 116.912" stroke="#263238" stroke-width="2" stroke-miterlimit="10" stroke-linecap="round" stroke-linejoin="round"/>
<path d="M280.266 68.1758H248.007" stroke="#263238" stroke-width="2" stroke-miterlimit="10" stroke-linecap="round" stroke-linejoin="round"/>
<path d="M250.932 66.6751C252.93 68.7475 250.932 66.6751 249.647 63.6737C248.362 60.6724 250.932 64.2454 253.929 66.6751C256.855 69.0333 255.214 67.2468 254.286 63.9596C253.287 60.6724 255.285 63.9596 257.926 66.032C260.566 68.1043 259.21 67.2468 258.283 63.6737C257.283 60.1007 258.283 63.6737 262.208 66.032C266.133 68.3902 264.206 68.3902 262.208 64.8171C260.21 61.2441 263.492 64.8171 267.132 66.032C270.772 67.2468 267.132 66.032 265.848 62.7448C264.563 59.4575 268.131 63.6737 270.772 65.4603C273.413 67.2468 270.772 65.4603 270.13 63.3879C269.487 61.3155 271.771 63.9596 274.412 66.6751C277.052 69.3906 274.412 66.6751 274.055 64.3169C273.698 61.9587 276.981 68.1758 276.981 68.1758C276.981 68.1758 275.982 62.2445 276.624 63.6737C277.266 65.1744 278.266 66.3893 278.266 66.3893" stroke="#7981EC" stroke-width="2" stroke-miterlimit="10" stroke-linecap="round" stroke-linejoin="round"/>
<path d="M262.492 73.75H278.621V90.5434H262.492V73.75Z" stroke="#7981EC" stroke-width="2" stroke-miterlimit="10" stroke-linecap="round" stroke-linejoin="round"/>
<path d="M275.267 73.75L277.907 76.7514L272.341 74.7505L277.907 80.0386L268.701 74.1073L277.907 83.9689L265.418 74.7505L278.621 86.9703L262.777 76.0368L278.621 90.5434L262.777 80.0386L273.982 89.9002L262.492 83.6831L269.7 89.5429L262.777 87.2561L264.133 89.5429" stroke="#7981EC" stroke-width="2" stroke-miterlimit="10" stroke-linecap="round" stroke-linejoin="round"/>
<path d="M248.575 125.129H260.922V137.992H248.575V125.129Z" stroke="#7981EC" stroke-width="2" stroke-miterlimit="10" stroke-linecap="round" stroke-linejoin="round"/>
<path d="M258.353 125.129L260.422 127.416L256.14 125.915L260.422 129.917L253.357 125.415L260.422 132.99L250.859 125.915L260.922 135.205L248.789 126.915L260.922 137.992L248.789 129.917L257.353 137.492L248.575 132.704L254.142 137.206L248.789 135.491L249.86 137.206" stroke="#7981EC" stroke-width="2" stroke-miterlimit="10" stroke-linecap="round" stroke-linejoin="round"/>
<path d="M278.906 96.832H247.362" stroke="#263238" stroke-width="2" stroke-miterlimit="10" stroke-linecap="round" stroke-linejoin="round"/>
<path d="M279.266 99.7617L248.006 100.119" stroke="#263238" stroke-width="2" stroke-miterlimit="10" stroke-linecap="round" stroke-linejoin="round"/>
<path d="M259.211 74.75H249.005" stroke="#263238" stroke-width="2" stroke-miterlimit="10" stroke-linecap="round" stroke-linejoin="round"/>
<path d="M259.211 78.6797H249.005" stroke="#263238" stroke-width="2" stroke-miterlimit="10" stroke-linecap="round" stroke-linejoin="round"/>
<path d="M259.211 82.6797H249.005" stroke="#263238" stroke-width="2" stroke-miterlimit="10" stroke-linecap="round" stroke-linejoin="round"/>
<path d="M259.211 86.6133H249.005" stroke="#263238" stroke-width="2" stroke-miterlimit="10" stroke-linecap="round" stroke-linejoin="round"/>
<path d="M248.004 101.762H278.621V116.554H248.004V101.762Z" stroke="#7981EC" stroke-width="2" stroke-miterlimit="10" stroke-linecap="round" stroke-linejoin="round"/>
<path d="M278.908 104.763L274.626 102.119L279.551 109.694L271.343 102.119L278.623 112.981L265.777 101.762L276.91 114.911L263.136 102.119L273.627 114.911L258.497 101.762L270.701 116.268L255.571 102.119L267.061 115.625L251.646 101.762L263.422 116.268L248.006 101.762L259.211 115.911L248.648 106.693L255.571 115.268L248.648 110.623L250.004 112.838L251.289 114.911" stroke="#7981EC" stroke-width="2" stroke-miterlimit="10" stroke-linecap="round" stroke-linejoin="round"/>
<path d="M277.266 120.555H249.004" stroke="#263238" stroke-width="2" stroke-miterlimit="10" stroke-linecap="round" stroke-linejoin="round"/>
<path d="M277.91 124.129H268.704" stroke="#263238" stroke-width="2" stroke-miterlimit="10" stroke-linecap="round" stroke-linejoin="round"/>
<path d="M242.367 64.244L219.815 61.457" stroke="#263238" stroke-width="2" stroke-miterlimit="10" stroke-linecap="round" stroke-linejoin="round"/>
<path d="M246.008 80.3242H222.314" stroke="#263238" stroke-width="2" stroke-miterlimit="10" stroke-linecap="round" stroke-linejoin="round"/>
<path d="M283.548 110.336L293.754 113.98" stroke="#263238" stroke-width="2" stroke-miterlimit="10" stroke-linecap="round" stroke-linejoin="round"/>
<path d="M254.571 140.277C254.571 140.277 256.57 150.496 243.081 153.14" stroke="#263238" stroke-width="2" stroke-miterlimit="10" stroke-linecap="round" stroke-linejoin="round"/>
<path d="M245.007 150.496L241.724 153.497L246.363 154.784" stroke="#263238" stroke-width="2" stroke-miterlimit="10" stroke-linecap="round" stroke-linejoin="round"/>
<path d="M225.309 77.3945L220.027 80.6817L224.666 82.6826" stroke="#263238" stroke-width="2" stroke-miterlimit="10" stroke-linecap="round" stroke-linejoin="round"/>
<path d="M224.098 60.457L218.531 61.1002L222.456 64.7447" stroke="#263238" stroke-width="2" stroke-miterlimit="10" stroke-linecap="round" stroke-linejoin="round"/>
<path d="M292.398 110.621L297.965 115.266L291.114 115.623" stroke="#263238" stroke-width="2" stroke-miterlimit="10" stroke-linecap="round" stroke-linejoin="round"/>
<path d="M205.897 77.3945H218.387V90.5434H205.897V77.3945Z" fill="#7981EC"/>
<path d="M215.461 80.3242L208.181 80.6815" stroke="#263238" stroke-width="2" stroke-miterlimit="10" stroke-linecap="round" stroke-linejoin="round"/>
<path d="M215.461 82.9688L208.181 83.3261" stroke="#263238" stroke-width="2" stroke-miterlimit="10" stroke-linecap="round" stroke-linejoin="round"/>
<path d="M215.461 85.6133L208.181 85.9706" stroke="#263238" stroke-width="2" stroke-miterlimit="10" stroke-linecap="round" stroke-linejoin="round"/>
<path d="M225.773 95.1411L238.176 96.6055L236.638 109.664L224.235 108.199L225.773 95.1411Z" fill="#7981EC"/>
<path d="M234.875 99.1877L227.667 98.6875" stroke="#263238" stroke-width="2" stroke-miterlimit="10" stroke-linecap="round" stroke-linejoin="round"/>
<path d="M234.59 101.832L227.382 101.332" stroke="#263238" stroke-width="2" stroke-miterlimit="10" stroke-linecap="round" stroke-linejoin="round"/>
<path d="M234.305 104.478L227.097 103.906" stroke="#263238" stroke-width="2" stroke-miterlimit="10" stroke-linecap="round" stroke-linejoin="round"/>
<path d="M290.577 117.508L302.98 118.973L301.443 132.031L289.04 130.566L290.577 117.508Z" fill="#7981EC"/>
<path d="M299.746 121.63L292.467 121.059" stroke="#263238" stroke-width="2" stroke-miterlimit="10" stroke-linecap="round" stroke-linejoin="round"/>
<path d="M299.391 124.199L292.182 123.699" stroke="#263238" stroke-width="2" stroke-miterlimit="10" stroke-linecap="round" stroke-linejoin="round"/>
<path d="M299.105 126.844L291.897 126.344" stroke="#263238" stroke-width="2" stroke-miterlimit="10" stroke-linecap="round" stroke-linejoin="round"/>
<path d="M225.944 144.986L238.363 143.664L239.751 156.739L227.332 158.061L225.944 144.986Z" fill="#7981EC"/>
<path d="M235.73 146.926L228.594 147.998" stroke="#263238" stroke-width="2" stroke-miterlimit="10" stroke-linecap="round" stroke-linejoin="round"/>
<path d="M236.016 149.5L228.879 150.572" stroke="#263238" stroke-width="2" stroke-miterlimit="10" stroke-linecap="round" stroke-linejoin="round"/>
<path d="M236.301 152.145L229.164 153.216" stroke="#263238" stroke-width="2" stroke-miterlimit="10" stroke-linecap="round" stroke-linejoin="round"/>
<path d="M134.958 167.863H310.238V172.365H134.958V167.863Z" fill="#263238" stroke="#263238" stroke-miterlimit="10" stroke-linecap="round" stroke-linejoin="round"/>
<path d="M64.5881 200.017V191.656H89.7811V200.017C89.7811 202.733 90.7088 205.377 92.4217 207.521L93.4922 208.878H60.8056L61.8761 207.521C63.6603 205.377 64.5881 202.733 64.5881 200.017Z" fill="#263238" stroke="#263238" stroke-miterlimit="10" stroke-linecap="round" stroke-linejoin="round"/>
<path d="M66.0139 200.017V191.656H91.2068V200.017C91.2068 202.733 92.1346 205.377 93.8474 207.521L94.918 208.878H62.2314L63.3019 207.521C65.0861 205.377 66.0139 202.733 66.0139 200.017Z" fill="white" stroke="#263238" stroke-miterlimit="10" stroke-linecap="round" stroke-linejoin="round"/>
<path d="M65.8724 194.016H91.1367V196.588H65.8724V194.016Z" fill="#263238"/>
<path d="M34.1125 194.301H123.18C126.534 194.301 129.246 191.586 129.246 188.227V125.984C129.246 122.626 126.534 119.91 123.18 119.91H34.1125C30.7582 119.91 28.0462 122.626 28.0462 125.984V188.227C28.0462 191.586 30.7582 194.301 34.1125 194.301Z" fill="#263238" stroke="#263238" stroke-miterlimit="10" stroke-linecap="round" stroke-linejoin="round"/>
<path d="M31.4015 194.301H120.469C123.823 194.301 126.535 191.586 126.535 188.227V125.984C126.535 122.626 123.823 119.91 120.469 119.91H31.4015C28.0472 119.91 25.3352 122.626 25.3352 125.984V188.227C25.3352 191.586 28.0472 194.301 31.4015 194.301Z" fill="#263238" stroke="#263238" stroke-miterlimit="10" stroke-linecap="round" stroke-linejoin="round"/>
<path d="M34.1125 194.299H123.18C126.534 194.299 129.246 191.584 129.246 188.225V182.723H28.0462V188.225C28.0462 191.584 30.7582 194.299 34.1125 194.299Z" fill="white" stroke="#263238" stroke-miterlimit="10" stroke-linecap="round" stroke-linejoin="round"/>
<path d="M33.1151 124.484H124.109V177.008H33.1151V124.484Z" fill="white"/>
<path d="M92.4182 171.363H110.332C111.545 171.363 112.473 170.363 112.473 169.219V132.202C112.473 130.988 111.474 130.059 110.332 130.059H92.4182C91.205 130.059 90.2772 131.059 90.2772 132.202V169.219C90.2772 170.363 91.2763 171.363 92.4182 171.363Z" fill="#263238"/>
<path d="M92.2032 133.488H110.688V167.933H92.2032V133.488Z" fill="#7981EC"/>
<path d="M67.7246 134.059H84.4961V135.774H67.7246V134.059Z" fill="#263238"/>
<path d="M76.4318 137.777H84.2109V145.852H76.4318V137.777Z" fill="#7981EC"/>
<path d="M68.8674 162.645H73.0781V167.004H68.8674V162.645Z" fill="#7981EC"/>
<path d="M68.081 151.711H83.9961V159.786H68.081V151.711Z" fill="#7981EC"/>
<path d="M75.0039 138.348H68.6522" stroke="#263238" stroke-miterlimit="10" stroke-linecap="round" stroke-linejoin="round"/>
<path d="M75.0039 140.422H68.6522" stroke="#263238" stroke-miterlimit="10" stroke-linecap="round" stroke-linejoin="round"/>
<path d="M75.0039 142.422H68.6522" stroke="#263238" stroke-miterlimit="10" stroke-linecap="round" stroke-linejoin="round"/>
<path d="M75.0039 144.422H68.6522" stroke="#263238" stroke-miterlimit="10" stroke-linecap="round" stroke-linejoin="round"/>
<path d="M83.7109 149.066H68.4382" stroke="#263238" stroke-miterlimit="10" stroke-linecap="round" stroke-linejoin="round"/>
<path d="M83.7109 161.789H68.4382" stroke="#263238" stroke-miterlimit="10" stroke-linecap="round" stroke-linejoin="round"/>
<path d="M66.2957 132.273H85.9219V168.719H66.2957V132.273Z" stroke="#263238" stroke-miterlimit="10" stroke-linecap="round" stroke-linejoin="round"/>
<path d="M42.3204 132.273H60.8047V145.851H42.3204V132.273Z" fill="#BFBFBF"/>
<path d="M42.3204 132.273H60.8047V135.132H42.3204V132.273Z" fill="#263238"/>
<path d="M54.5259 137.277H59.3789V141.994H54.5259V137.277Z" stroke="#263238" stroke-miterlimit="10" stroke-linecap="round" stroke-linejoin="round"/>
<path d="M44.8892 137.277H49.7422V141.994H44.8892V137.277Z" stroke="#263238" stroke-miterlimit="10" stroke-linecap="round" stroke-linejoin="round"/>
<path d="M44.1039 133.918C44.1039 134.275 44.3894 134.632 44.8176 134.632C45.1744 134.632 45.5312 134.347 45.5312 133.918C45.5312 133.489 45.2458 133.203 44.8176 133.203C44.4607 133.275 44.1039 133.56 44.1039 133.918Z" fill="white"/>
<path d="M48.173 134.632C47.7789 134.632 47.4594 134.312 47.4594 133.918C47.4594 133.523 47.7789 133.203 48.173 133.203C48.5672 133.203 48.8867 133.523 48.8867 133.918C48.8867 134.312 48.5672 134.632 48.173 134.632Z" fill="white"/>
<path d="M43.8184 153.281H57.9492V163.715H43.8184V153.281Z" fill="#BFBFBF"/>
<path d="M43.8184 153.281H57.9492V155.497H43.8184V153.281Z" fill="#263238"/>
<path d="M45.1745 154.497C45.1745 154.783 45.3886 155.069 45.7454 155.069C46.0309 155.069 46.3164 154.855 46.3164 154.497C46.3164 154.212 46.1023 153.926 45.7454 153.926C45.3886 153.997 45.1745 154.212 45.1745 154.497Z" fill="white"/>
<path d="M47.7448 154.497C47.7448 154.783 47.9589 155.069 48.3158 155.069C48.6013 155.069 48.8867 154.855 48.8867 154.497C48.8867 154.212 48.6726 153.926 48.3158 153.926C47.9589 153.997 47.7448 154.212 47.7448 154.497Z" fill="white"/>
<path d="M115.186 127.27H121.109V173.934H115.186V127.27Z" fill="#BFBFBF"/>
<path d="M115.186 127.27H121.109V129.413H115.186V127.27Z" fill="#263238"/>
<path d="M116.829 130.844H119.684V134.202H116.829V130.844Z" stroke="#263238" stroke-miterlimit="10" stroke-linecap="round" stroke-linejoin="round"/>
<path d="M116.829 136.344H119.684V139.702H116.829V136.344Z" stroke="#263238" stroke-miterlimit="10" stroke-linecap="round" stroke-linejoin="round"/>
<path d="M116.829 141.777H119.684V145.136H116.829V141.777Z" stroke="#263238" stroke-miterlimit="10" stroke-linecap="round" stroke-linejoin="round"/>
<path d="M116.829 147.277H119.684V150.636H116.829V147.277Z" stroke="#263238" stroke-miterlimit="10" stroke-linecap="round" stroke-linejoin="round"/>
<path d="M116.829 152.781H119.684V156.14H116.829V152.781Z" stroke="#263238" stroke-miterlimit="10" stroke-linecap="round" stroke-linejoin="round"/>
<path d="M116.829 158.211H119.684V161.57H116.829V158.211Z" stroke="#263238" stroke-miterlimit="10" stroke-linecap="round" stroke-linejoin="round"/>
<path d="M116.829 163.715H119.684V167.074H116.829V163.715Z" stroke="#263238" stroke-miterlimit="10" stroke-linecap="round" stroke-linejoin="round"/>
<path d="M116.829 169.219H119.684V172.577H116.829V169.219Z" stroke="#263238" stroke-miterlimit="10" stroke-linecap="round" stroke-linejoin="round"/>
<path d="M35.7522 126.77H111.402V128.699H35.7522V126.77Z" fill="#BFBFBF"/>
<path d="M35.7522 173.004H111.402V174.933H35.7522V173.004Z" fill="#BFBFBF"/>
<path d="M62.2303 208.879H94.9883V210.38H62.2303V208.879Z" fill="#263238" stroke="#263238" stroke-miterlimit="10" stroke-linecap="round" stroke-linejoin="round"/>
<path d="M40.8211 207.664H116.828V210.38H40.8211V207.664Z" fill="white" stroke="#263238" stroke-miterlimit="10" stroke-linecap="round" stroke-linejoin="round"/>
<path d="M184.912 313.64H188.052L189.551 218.883H183.413L184.912 313.64Z" fill="white" stroke="#263238" stroke-miterlimit="10" stroke-linecap="round" stroke-linejoin="round"/>
<path d="M184.914 313.64H186.27L186.127 218.883H183.415L184.914 313.64Z" fill="#263238" stroke="#263238" stroke-miterlimit="10" stroke-linecap="round" stroke-linejoin="round"/>
<path d="M140.881 313.64H143.949L145.52 218.883H139.311L140.881 313.64Z" fill="white" stroke="#263238" stroke-miterlimit="10" stroke-linecap="round" stroke-linejoin="round"/>
<path d="M140.882 313.64H142.238L142.096 218.883H139.312L140.882 313.64Z" fill="#263238" stroke="#263238" stroke-miterlimit="10" stroke-linecap="round" stroke-linejoin="round"/>
<path d="M156.65 313.64H159.719L161.289 218.883H155.08L156.65 313.64Z" fill="#263238" stroke="#263238" stroke-miterlimit="10" stroke-linecap="round" stroke-linejoin="round"/>
<path d="M156.652 313.64H158.008L157.865 218.883H155.082L156.652 313.64Z" fill="#263238" stroke="#263238" stroke-miterlimit="10" stroke-linecap="round" stroke-linejoin="round"/>
<path d="M126.892 313.64H129.961L131.531 218.883H125.322L126.892 313.64Z" fill="#263238" stroke="#263238" stroke-miterlimit="10" stroke-linecap="round" stroke-linejoin="round"/>
<path d="M126.894 313.64H128.25L128.107 218.883H125.324L126.894 313.64Z" fill="#263238" stroke="#263238" stroke-miterlimit="10" stroke-linecap="round" stroke-linejoin="round"/>
<path d="M124.536 220.312H173.066V279.625H124.536V220.312Z" fill="#263238" stroke="#263238" stroke-miterlimit="10" stroke-linecap="round" stroke-linejoin="round"/>
<path d="M137.954 220.312H186.484V279.625H137.954V220.312Z" fill="white" stroke="#263238" stroke-miterlimit="10" stroke-linecap="round" stroke-linejoin="round"/>
<path d="M39.9665 313.64H43.0354L44.6055 218.883H38.3965L39.9665 313.64Z" fill="white" stroke="#263238" stroke-miterlimit="10" stroke-linecap="round" stroke-linejoin="round"/>
<path d="M39.9682 313.64H41.3242L41.1815 218.883H38.3981L39.9682 313.64Z" fill="#263238" stroke="#263238" stroke-miterlimit="10" stroke-linecap="round" stroke-linejoin="round"/>
<path d="M11.7048 313.64H14.7736L16.3438 218.883H10.1347L11.7048 313.64Z" fill="#263238" stroke="#263238" stroke-miterlimit="10" stroke-linecap="round" stroke-linejoin="round"/>
<path d="M11.7065 313.64H13.0625L12.8484 218.883H10.1364L11.7065 313.64Z" fill="#263238" stroke="#263238" stroke-miterlimit="10" stroke-linecap="round" stroke-linejoin="round"/>
<path d="M8.1355 215.312H193.621V221.815H8.1355V215.312Z" fill="white" stroke="#263238" stroke-miterlimit="10" stroke-linecap="round" stroke-linejoin="round"/>
<path d="M8.1355 215.312H193.621V218.6H8.1355V215.312Z" fill="#263238" stroke="#263238" stroke-miterlimit="10" stroke-linecap="round" stroke-linejoin="round"/>
<path d="M8.13373 215.312H35.5391V221.815H8.13373V215.312Z" fill="#263238" stroke="#263238" stroke-miterlimit="10" stroke-linecap="round" stroke-linejoin="round"/>
<path d="M2.21123 210.023H198.688V216.526H2.21123V210.023Z" fill="white" stroke="#263238" stroke-miterlimit="10" stroke-linecap="round" stroke-linejoin="round"/>
<path d="M2.14152 210.023H29.5469V216.526H2.14152V210.023Z" fill="#263238" stroke="#263238" stroke-miterlimit="10" stroke-linecap="round" stroke-linejoin="round"/>
<path d="M140.95 226.031H183.414V246.755H140.95V226.031Z" fill="white" stroke="#263238" stroke-miterlimit="10" stroke-linecap="round" stroke-linejoin="round"/>
<path d="M157.507 234.25H166.785V237.466H157.507V234.25Z" fill="#263238" stroke="#263238" stroke-miterlimit="10" stroke-linecap="round" stroke-linejoin="round"/>
<path d="M140.95 252.113H183.414V272.837H140.95V252.113Z" fill="white" stroke="#263238" stroke-miterlimit="10" stroke-linecap="round" stroke-linejoin="round"/>
<path d="M157.507 260.332H166.785V263.548H157.507V260.332Z" fill="#263238" stroke="#263238" stroke-miterlimit="10" stroke-linecap="round" stroke-linejoin="round"/>
<path d="M75.5629 258.242H62.8594V232.659H75.5629V258.242Z" fill="#263238"/>
<path d="M72.4221 284.598H66.0703V249.224H72.4221V284.598Z" fill="#263238"/>
<path d="M66.6567 281.84C66.6567 281.84 61.3041 287.914 47.6014 289.986C40.3932 291.13 32.8282 292.488 26.2624 295.989C22.0516 298.204 13.7016 303.064 13.7016 308.638C13.7016 311.425 15.914 313.64 18.6973 313.64C21.4807 313.64 23.6931 311.425 23.6931 308.638C23.6931 307.351 23.1935 306.137 22.3371 305.208C23.0508 304.064 27.547 297.275 37.1103 295.132C47.53 292.845 55.1664 293.774 69.7969 284.055L66.6567 281.84Z" fill="#263238"/>
<path d="M71.1543 281.84C71.1543 281.84 76.5069 287.914 90.2095 289.986C97.4177 291.13 104.983 292.488 111.549 295.989C115.759 298.204 124.109 303.064 124.109 308.638C124.109 311.425 121.897 313.64 119.114 313.64C116.33 313.64 114.118 311.425 114.118 308.638C114.118 307.351 114.617 306.137 115.474 305.208C114.76 304.064 110.264 297.275 100.701 295.132C90.2809 292.845 82.6445 293.774 68.0141 284.055L71.1543 281.84Z" fill="#263238"/>
<path d="M71.3676 304.281H66.586C66.3005 304.281 66.0864 304.496 66.0864 304.781V313.214C66.0864 313.5 66.3005 313.714 66.586 313.714H71.3676C71.6531 313.714 71.8672 313.5 71.8672 313.214V304.781C71.8672 304.496 71.6531 304.281 71.3676 304.281Z" fill="#263238"/>
<path d="M70.3292 313.688H67.6172V282.745H70.3292V313.688Z" fill="#263238"/>
<path d="M38.4687 158.928C39.9675 166.932 41.038 175.721 41.3235 184.583C41.5376 191.228 41.6089 196.874 41.7516 201.876C42.0371 217.455 42.2512 226.102 44.6777 228.388C44.9632 228.603 47.0329 229.817 51.2436 230.175C52.4569 230.246 56.168 230.318 61.3065 230.318C77.5784 230.246 94.6354 230.103 94.9209 230.103H95.92C95.9914 230.175 95.9914 230.175 96.0627 230.246C105.84 230.175 108.338 230.103 108.481 230.103H109.48C111.55 231.89 110.336 234.177 108.552 234.177C107.196 234.177 83.9302 234.391 68.0151 234.391C65.2318 234.391 62.5198 234.391 60.236 234.391C56.3821 234.391 52.671 234.391 49.4594 234.391C41.1094 234.391 34.258 234.32 32.3311 234.177C26.4789 233.676 23.8383 231.675 23.5528 231.461C19.6275 227.959 19.4848 220.313 19.128 201.805C19.0566 196.802 18.9139 191.157 18.6998 184.511C18.4143 175.65 17.2724 166.789 15.7737 158.785H38.4687V158.928Z" fill="#263238"/>
<path d="M164.649 292.347L163.079 300.779C163.079 300.779 164.507 303.781 170.073 306.353C175.64 308.926 178.281 309.926 178.281 310.641C178.281 311.355 178.638 312.928 177.21 313.499C175.783 314.071 145.451 313.499 145.451 313.499C145.451 313.499 143.881 312.785 143.881 309.354C143.881 305.924 145.309 299.707 145.309 298.278C145.309 296.849 146.308 293.419 146.308 292.918C146.308 292.418 158.512 293.061 158.512 293.061C158.512 293.061 162.009 289.703 164.649 292.347Z" fill="white" stroke="#263238" stroke-miterlimit="10" stroke-linecap="round" stroke-linejoin="round"/>
<path d="M158.441 293.062C158.441 293.062 157.585 301.066 157.014 301.638C156.443 302.21 145.238 302.21 145.238 302.21" fill="white"/>
<path d="M158.441 293.062C158.441 293.062 157.585 301.066 157.014 301.638C156.443 302.21 145.238 302.21 145.238 302.21" stroke="#263238" stroke-miterlimit="10" stroke-linecap="round" stroke-linejoin="round"/>
<path d="M145.237 298.277L157.727 298.42" stroke="#263238" stroke-miterlimit="10" stroke-linecap="round" stroke-linejoin="round"/>
<path d="M178.211 312H144.168" stroke="#263238" stroke-miterlimit="10" stroke-linecap="round" stroke-linejoin="round"/>
<path d="M142.383 191.66C142.383 191.66 152.303 225.032 153.516 229.606C154.729 234.179 147.735 274.555 147.735 275.27C147.735 275.984 146.736 278.2 146.736 280.558C146.736 282.916 147.735 283.702 147.236 284.417C146.736 285.131 145.095 286.846 145.309 288.276C145.523 289.705 145.808 290.205 146.736 291.205C147.735 292.206 148.663 292.42 148.663 292.42H154.444C154.444 292.42 155.871 281.558 159.725 252.759C163.579 224.032 157.299 207.596 156.085 202.236C154.872 196.948 152.446 192.303 152.446 192.303L142.383 191.66Z" fill="#263238" stroke="#263238" stroke-miterlimit="10" stroke-linecap="round" stroke-linejoin="round"/>
<path d="M172.856 292.347L171.286 300.779C171.286 300.779 172.714 303.781 178.28 306.353C183.847 308.926 186.488 309.926 186.488 310.641C186.488 311.355 186.845 312.928 185.417 313.499C183.99 314.071 153.658 313.499 153.658 313.499C153.658 313.499 152.088 312.785 152.088 309.354C152.088 305.924 153.516 299.707 153.516 298.278C153.516 296.849 154.515 293.419 154.515 292.918C154.515 292.418 166.719 293.061 166.719 293.061C166.719 293.061 170.216 289.703 172.856 292.347Z" fill="white" stroke="#263238" stroke-miterlimit="10" stroke-linecap="round" stroke-linejoin="round"/>
<path d="M166.648 293.062C166.648 293.062 165.792 301.066 165.221 301.638C164.65 302.21 153.445 302.21 153.445 302.21" fill="white"/>
<path d="M166.648 293.062C166.648 293.062 165.792 301.066 165.221 301.638C164.65 302.21 153.445 302.21 153.445 302.21" stroke="#263238" stroke-miterlimit="10" stroke-linecap="round" stroke-linejoin="round"/>
<path d="M153.444 298.277L165.934 298.42" stroke="#263238" stroke-miterlimit="10" stroke-linecap="round" stroke-linejoin="round"/>
<path d="M186.418 312H152.375" stroke="#263238" stroke-miterlimit="10" stroke-linecap="round" stroke-linejoin="round"/>
<path d="M182.204 191.66C182.204 191.66 182.418 212.67 181.205 221.602C179.992 230.535 175.424 251.33 174.711 262.692C173.997 274.055 172.784 279.343 172.784 279.343C172.784 279.343 174.496 280.772 174.496 282.273C174.496 283.773 173.497 283.702 173.783 285.917C173.997 288.061 174.996 288.847 174.282 289.776C173.569 290.777 173.069 292.706 170.643 293.135C168.216 293.635 156.869 293.349 154.442 292.92C152.015 292.42 150.802 289.991 150.802 288.061C150.802 286.132 151.516 284.702 151.516 282.487C151.516 280.272 150.303 278.414 150.303 276.913C150.303 275.484 150.802 274.769 150.802 273.269C150.802 271.839 153.942 248.615 153.942 243.827C153.942 238.967 154.157 222.531 153.443 218.458C152.729 214.385 149.089 194.804 149.089 194.804L182.204 191.66Z" fill="#7981EC" stroke="#263238" stroke-miterlimit="10" stroke-linecap="round" stroke-linejoin="round"/>
<path d="M166.859 198.736C166.859 198.736 162.72 200.236 158.01 200.451C153.228 200.665 151.087 201.094 151.087 201.094L149.802 195.02L166.859 198.736Z" fill="#263238" stroke="#263238" stroke-miterlimit="10" stroke-linecap="round" stroke-linejoin="round"/>
<path d="M169.5 199.809C169.5 199.809 168.287 233.038 165.932 244.114C163.576 255.191 160.436 273.342 161.221 275.772C162.006 278.13 163.22 283.704 163.22 283.704C163.22 283.704 158.866 282.918 158.866 285.276C158.866 287.634 165.218 289.206 163.576 290.421C162.006 291.636 160.436 292.922 160.436 292.922" stroke="#263238" stroke-miterlimit="10" stroke-linecap="round" stroke-linejoin="round"/>
<path d="M155.512 284.63C155.512 284.63 168.644 286.774 164.933 287.489C161.222 288.203 154.156 287.346 153.8 286.417C153.371 285.559 154.442 284.487 155.512 284.63Z" fill="#263238" stroke="#263238" stroke-miterlimit="10" stroke-linecap="round" stroke-linejoin="round"/>
<path d="M213.319 55.096L213.676 69.96L199.759 69.817L199.616 54.9531L213.319 55.096Z" fill="#7981EC"/>
<path d="M197.477 82.4666C197.477 82.4666 200.474 79.4653 201.83 76.6783C203.186 73.8913 205.113 72.2477 205.113 70.3182C205.113 68.3888 204.257 63.9582 204.614 62.1002C204.971 60.2422 204.614 56.5262 203.4 56.5262C202.187 56.5262 201.331 57.5982 201.616 58.813C201.83 60.0278 200.903 64.2441 200.903 64.2441C200.903 64.2441 199.903 56.1689 199.832 55.6687C199.689 55.1685 198.048 55.1685 197.334 55.5258C196.62 55.8831 195.764 55.7402 195.764 57.3123C195.764 58.8845 196.121 60.671 196.121 61.0283C196.121 61.3856 192.767 63.3151 192.624 64.7443C192.481 66.1735 192.838 69.6751 193.694 71.1043C194.551 72.5335 195.05 73.534 195.122 74.0342C195.264 74.5344 191.839 79.6082 191.839 79.6082L197.477 82.4666Z" fill="white" stroke="#263238" stroke-miterlimit="10" stroke-linecap="round" stroke-linejoin="round"/>
<path d="M191.84 77.3945L200.047 83.6831C200.047 83.6831 186.059 112.696 185.559 113.625C185.06 114.626 174.925 120.843 174.925 120.843L159.724 101.977C159.724 101.977 178.779 95.903 179.279 95.1883C179.778 94.5452 191.84 77.3945 191.84 77.3945Z" fill="#263238" stroke="#263238" stroke-miterlimit="10" stroke-linecap="round" stroke-linejoin="round"/>
<path d="M182.134 183.941L182.848 195.232C182.848 195.232 173.57 199.162 163.578 198.948C153.587 198.805 140.241 194.803 140.241 194.803L138.243 183.727C138.243 183.727 162.294 185.727 169.645 185.013C176.995 184.298 182.134 183.941 182.134 183.941Z" fill="white" stroke="#263238" stroke-miterlimit="10" stroke-linecap="round" stroke-linejoin="round"/>
<path d="M189.269 180.367L189.84 183.583C189.84 183.583 182.275 187.728 165.575 189.3C148.66 190.872 135.101 186.084 135.101 186.084L134.958 180.51C134.958 180.51 148.161 183.94 162.078 183.726C175.994 183.511 189.269 180.367 189.269 180.367Z" fill="#263238" stroke="#263238" stroke-miterlimit="10" stroke-linecap="round" stroke-linejoin="round"/>
<path d="M175.711 113.91C175.711 113.91 181.564 124.272 183.562 132.347C185.56 140.422 189.414 177.51 189.985 179.654C190.556 181.798 177.995 186.086 169.859 186.229C161.723 186.372 143.31 186.8 140.099 185.514C136.887 184.228 133.818 182.513 133.818 180.512C133.818 178.511 133.676 171.222 133.676 165.362C133.676 159.502 135.46 128.345 137.101 121.199C138.743 114.053 139.813 109.051 140.313 108.193C140.813 107.336 144.738 103.048 152.802 103.548C160.796 104.12 167.576 107.121 170.644 108.908C173.713 110.694 175.711 113.91 175.711 113.91Z" fill="#263238" stroke="#263238" stroke-miterlimit="10" stroke-linecap="round" stroke-linejoin="round"/>
<path d="M229.521 125.413C229.521 125.413 232.448 126.628 232.662 129.487C232.876 132.417 227.595 135.275 224.454 139.634C221.314 143.993 217.246 148.567 217.246 148.567L210.966 157.285L203.472 150.997L222.741 128.558C222.741 128.558 221.742 126.414 222.956 125.628C224.24 124.985 227.38 124.484 229.521 125.413Z" fill="white" stroke="#263238" stroke-miterlimit="10" stroke-linecap="round" stroke-linejoin="round"/>
<path d="M229.023 132.202L207.328 124.984C207.328 124.984 205.9 131.059 199.334 137.276C192.84 143.564 186.774 147.638 186.774 147.638L206.4 158.785L229.023 132.202Z" fill="white" stroke="#263238" stroke-miterlimit="10" stroke-linecap="round" stroke-linejoin="round"/>
<path d="M229.021 132.202C229.021 132.202 227.594 130.773 227.308 128.343C227.094 125.914 229.449 125.414 229.449 125.414L207.967 119.125C207.967 119.125 203.899 120.554 207.254 124.913L229.021 132.202Z" fill="white" stroke="#263238" stroke-miterlimit="10" stroke-linecap="round" stroke-linejoin="round"/>
<path d="M200.259 155.14C200.259 155.14 205.112 154.425 205.327 152.996C205.541 151.567 206.54 148.422 207.468 147.208C208.467 145.993 213.034 143.563 214.462 141.919C215.889 140.204 216.888 137.846 217.816 138.061C218.815 138.275 220.243 139.275 219.743 140.204C219.243 141.205 217.102 145.278 217.102 145.278L216.603 146.993C216.603 146.993 220.956 146.279 221.67 145.993C222.384 145.778 223.383 146.207 223.383 147.422C223.383 148.637 224.382 148.637 223.169 149.351C221.955 150.066 220.528 151.066 220.528 151.066C220.528 151.066 218.815 154.925 218.387 155.64C217.887 156.355 214.033 158.07 213.32 158.57C212.606 159.07 208.752 160.285 206.825 160.714C204.898 161.214 200.545 162.858 200.545 162.858L199.332 157.284L200.259 155.14Z" fill="white" stroke="#263238" stroke-miterlimit="10" stroke-linecap="round" stroke-linejoin="round"/>
<path d="M149.089 121.84C149.089 121.84 149.588 142.349 149.588 143.35C149.588 144.35 148.874 164.145 151.015 165.788C153.156 167.432 163.79 169.647 179.277 169.147C194.693 168.647 201.473 165.288 201.473 165.288L200.259 155.141L170.856 152.997C170.856 152.997 173.996 130.558 173.496 122.769C172.997 115.051 166.716 110.906 166.716 110.906" fill="#263238"/>
<path d="M149.089 121.84C149.089 121.84 149.588 142.349 149.588 143.35C149.588 144.35 148.874 164.145 151.015 165.788C153.156 167.432 163.79 169.647 179.277 169.147C194.693 168.647 201.473 165.288 201.473 165.288L200.259 155.141L170.856 152.997C170.856 152.997 173.996 130.558 173.496 122.769C172.997 115.051 166.716 110.906 166.716 110.906" stroke="#263238" stroke-miterlimit="10" stroke-linecap="round" stroke-linejoin="round"/>
<path d="M181.633 170.075C181.633 170.075 152.443 171.075 150.873 167.502C149.303 163.929 149.303 128.484 149.303 128.484" stroke="#707070" stroke-miterlimit="10" stroke-linecap="round" stroke-linejoin="round"/>
<path d="M168.787 115.121C168.787 115.121 174.925 121.767 173.925 130.557C172.926 139.346 170.857 152.995 170.857 152.995L182.133 153.639" stroke="#707070" stroke-miterlimit="10" stroke-linecap="round" stroke-linejoin="round"/>
<path d="M181.205 59.3845C181.205 59.3845 185.273 66.3877 184.488 67.3167C183.702 68.2457 184.345 69.9608 184.345 69.9608C184.345 69.9608 188.413 73.1051 188.056 74.177C187.77 75.2489 184.488 78.2503 184.488 78.2503C184.488 78.2503 183.845 86.6827 183.06 87.4688C182.275 88.2548 176.994 89.1838 175.923 89.3267C174.853 89.4697 174.211 89.827 174.211 89.827L171.07 106.62L153.657 90.8989L156.44 83.3955C156.44 83.3955 158.01 73.4624 157.867 68.7459C157.725 64.0295 165.789 58.4556 170.642 57.0978C175.495 55.5971 181.205 59.3845 181.205 59.3845Z" fill="white" stroke="#263238" stroke-miterlimit="10" stroke-linecap="round" stroke-linejoin="round"/>
<path d="M177.993 49.8804C177.993 49.8804 182.061 45.6642 186.843 48.9514C191.696 52.2386 190.268 57.5267 185.915 59.3847C181.561 61.2427 176.423 59.8849 178.136 61.7429C179.848 63.6009 180.348 67.6742 177.636 68.4602C174.924 69.2463 175.424 72.1762 175.424 73.4625C175.424 74.7488 173.211 74.5344 172.783 73.4625C172.283 72.3906 171.07 69.3892 168.144 70.6755C165.218 71.8904 165.361 78.7506 166.431 80.4657C167.502 82.1808 168.644 82.0378 168.644 82.0378C168.644 82.0378 166.931 82.681 168.001 84.6819C169.072 86.6828 169.072 86.6828 169.072 86.6828C169.072 86.6828 166.574 89.6127 160.365 88.5408C154.156 87.4689 152.729 84.6819 153.656 82.3237C154.584 79.9655 156.797 79.6796 154.441 76.2495C152.086 72.8194 146.377 68.7461 146.805 60.9568C147.162 55.8116 159.294 50.9523 159.294 50.9523C159.294 50.9523 156.511 46.3073 162.863 43.3059C169.215 40.376 176.566 43.8062 176.066 46.879C175.638 50.0233 177.993 49.8804 177.993 49.8804Z" fill="#263238" stroke="#263238" stroke-miterlimit="10" stroke-linecap="round" stroke-linejoin="round"/>
<path d="M184.557 66.7439C184.557 66.7439 186.556 66.2436 186.698 67.1726C186.841 68.1016 186.698 72.7466 186.698 72.7466C186.698 72.7466 185.485 73.5327 184.343 73.2468C183.273 72.961 183.844 69.0306 183.844 69.0306" stroke="#263238" stroke-miterlimit="10" stroke-linecap="round" stroke-linejoin="round"/>
<path d="M172.21 71.9591L186.555 69.6009V68.6719L172.21 71.9591Z" fill="#263238" stroke="#263238" stroke-miterlimit="10" stroke-linecap="round" stroke-linejoin="round"/>
<path d="M151.658 85.9701C151.658 85.9701 159.58 91.7584 165.004 97.6182C170.427 103.549 176.993 110.052 177.279 112.125C177.564 114.126 176.993 117.27 173.853 113.983C170.713 110.696 165.003 106.336 160.65 106.051C156.297 105.765 149.588 107.909 146.162 108.409C142.737 108.909 140.596 109.838 139.311 107.909C138.026 105.979 141.309 101.834 141.309 99.6191C141.309 97.4038 140.81 93.6878 142.38 91.0438C144.093 88.4712 149.017 85.184 151.658 85.9701Z" fill="#757575" stroke="#263238" stroke-miterlimit="10" stroke-linecap="round" stroke-linejoin="round"/>
<path d="M141.522 93.6875C141.522 93.6875 142.45 96.6889 143.306 98.0466C144.234 99.4044 156.938 101.977 156.938 101.977C156.938 101.977 146.446 101.405 144.519 101.405C142.593 101.405 140.309 103.192 140.309 103.192L141.379 100.333C141.379 100.333 140.951 95.0453 141.522 93.6875Z" fill="#263238" stroke="#263238" stroke-miterlimit="10" stroke-linecap="round" stroke-linejoin="round"/>
<path d="M326.508 313.645H0.355767" stroke="#263238" stroke-miterlimit="10" stroke-linecap="round" stroke-linejoin="round"/>
</g>
<defs>
<linearGradient id="paint0_linear_1768_5754" x1="36.2907" y1="39.2817" x2="260.33" y2="184.132" gradientUnits="userSpaceOnUse">
<stop stop-color="#AABDFF" stop-opacity="0"/>
<stop offset="0.6875" stop-color="#89AEF4" stop-opacity="0.29"/>
<stop offset="1" stop-color="#EDEFFF" stop-opacity="0.4"/>
</linearGradient>
<clipPath id="clip0_1768_5754">
<rect width="337" height="314" fill="white" transform="matrix(-1 0 0 1 337 0)"/>
</clipPath>
</defs>
</svg>
