<svg width="471" height="431" viewBox="0 0 471 431" fill="none" xmlns="http://www.w3.org/2000/svg">
<g clip-path="url(#clip0_1768_11688)">
<path d="M354.413 92.4552C318.897 30.114 262.982 -4.64923 195.651 0.52827C128.32 5.70576 125.255 56.0014 125.255 112.32C125.255 168.004 45.6625 142.011 20.2945 209.213C0.52852 261.622 51.8988 357.247 75.5756 396.976H411.491C424.492 351.964 448.169 263.418 450.811 206.043C455.356 103.022 382.74 142.223 354.413 92.4552Z" fill="#6970CF"/>
<path opacity="0.7" d="M354.413 92.4552C318.897 30.114 262.982 -4.64923 195.651 0.52827C128.32 5.70576 125.255 56.0014 125.255 112.32C125.255 168.004 45.6625 142.011 20.2945 209.213C0.52852 261.622 51.8988 357.247 75.5756 396.976H411.491C424.492 351.964 448.169 263.418 450.811 206.043C455.356 103.022 382.74 142.223 354.413 92.4552Z" fill="white"/>
<path d="M326.613 324.915C326.613 324.915 348.282 259.721 321.117 319.949C321.117 319.949 311.498 267.54 314.035 324.703C314.035 324.703 286.025 280.853 309.596 334.213C309.596 334.213 273.235 295.435 310.758 345.942C310.758 345.942 384.22 342.244 327.142 339.708C327.142 339.708 393.522 311.601 330.207 331.783C330.207 331.889 386.863 275.887 326.613 324.915Z" fill="#6970CF"/>
<path d="M321.962 326.289C321.962 326.289 307.376 346.893 302.091 368.237" stroke="#263238" stroke-width="0.75" stroke-miterlimit="10" stroke-linecap="round" stroke-linejoin="round"/>
<path d="M282.008 327.028C282.008 327.028 230.955 286.771 275.772 330.41C275.772 330.41 225.987 322.168 277.78 338.229C277.78 338.229 229.687 349.112 284.862 345.202C284.862 345.202 238.565 365.173 295.749 347.95C295.749 347.95 316.044 281.382 295.538 331.36C295.538 331.36 291.838 263.208 289.513 326.077C289.407 325.972 257.591 257.608 282.008 327.028Z" fill="#6970CF"/>
<path opacity="0.3" d="M281.78 327.126C281.78 327.126 230.726 286.868 275.543 330.507C275.543 330.507 225.759 322.265 277.552 338.326C277.552 338.326 229.458 349.21 284.634 345.3C284.634 345.3 238.337 365.27 295.521 348.047C295.521 348.047 315.815 281.479 295.309 331.458C295.309 331.458 291.61 263.305 289.284 326.175C289.179 326.069 257.363 257.705 281.78 327.126Z" fill="white"/>
<path d="M306.108 370.244C296.912 339.602 280.74 332.1 280.74 332.1" stroke="#263238" stroke-width="0.75" stroke-miterlimit="10" stroke-linecap="round" stroke-linejoin="round"/>
<path d="M302.726 330.516C302.726 330.516 309.279 336.644 310.97 344.991C310.97 344.991 319.003 341.822 330.525 342.35" stroke="#263238" stroke-width="0.5" stroke-miterlimit="10" stroke-linecap="round" stroke-linejoin="round"/>
<path d="M309.596 323.963C309.596 323.963 314.141 329.457 310.97 345.096L328.199 333.05" stroke="#263238" stroke-width="0.5" stroke-miterlimit="10" stroke-linecap="round" stroke-linejoin="round"/>
<path d="M297.652 331.359C297.652 331.359 294.692 338.016 295.01 346.047C295.01 346.047 287.716 346.892 282.643 349.216" stroke="#263238" stroke-width="0.5" stroke-miterlimit="10" stroke-linecap="round" stroke-linejoin="round"/>
<path d="M289.619 329.354C289.619 329.354 290.253 336.856 294.904 345.943C294.904 345.943 290.147 341.716 277.675 340.976" stroke="#263238" stroke-width="0.5" stroke-miterlimit="10" stroke-linecap="round" stroke-linejoin="round"/>
<path d="M288.562 365.912H295.115H296.912H310.864H312.238H319.109L314.458 394.441H312.978V395.603C312.978 396.449 312.344 397.083 311.498 397.083H310.124C309.279 397.083 308.645 396.449 308.645 395.603V394.441H299.132V395.603C299.132 396.449 298.497 397.083 297.652 397.083H296.278C295.432 397.083 294.798 396.449 294.798 395.603V394.441H293.318L288.562 365.912Z" fill="#263238" stroke="#263238" stroke-width="0.75" stroke-miterlimit="10" stroke-linecap="round" stroke-linejoin="round"/>
<path d="M423.012 396.977H66.2742C44.7113 400.252 27.4822 404.584 32.8729 409.445C45.5569 420.856 136.882 407.543 134.239 420.751C131.597 433.959 200.091 430.683 237.297 430.683C274.504 430.683 315.198 427.196 302.197 417.053C289.09 406.909 376.081 414.305 413.394 414.305C440.664 414.305 459.373 406.698 423.012 396.977Z" fill="#6970CF"/>
<path d="M0.422852 396.977H470.577" stroke="#263238" stroke-width="0.75" stroke-miterlimit="10" stroke-linecap="round" stroke-linejoin="round"/>
<path d="M338.663 281.17H157.387C152.525 281.17 148.614 277.26 148.614 272.4V34.1294C148.614 29.2689 152.525 25.3594 157.387 25.3594H338.663C343.525 25.3594 347.436 29.2689 347.436 34.1294V272.4C347.436 277.26 343.525 281.17 338.663 281.17Z" fill="#263238" stroke="#263238" stroke-miterlimit="10" stroke-linecap="round" stroke-linejoin="round"/>
<path d="M335.492 277.365H154.216C149.354 277.365 145.443 273.456 145.443 268.595V30.3247C145.443 25.4642 149.354 21.5547 154.216 21.5547H335.492C340.354 21.5547 344.265 25.4642 344.265 30.3247V268.595C344.265 273.456 340.354 277.365 335.492 277.365Z" fill="#6970CF"/>
<path opacity="0.8" d="M335.492 277.365H154.216C149.354 277.365 145.443 273.456 145.443 268.595V30.3247C145.443 25.4642 149.354 21.5547 154.216 21.5547H335.492C340.354 21.5547 344.265 25.4642 344.265 30.3247V268.595C344.265 273.456 340.354 277.365 335.492 277.365Z" fill="white"/>
<path d="M335.492 277.365H154.216C149.354 277.365 145.443 273.456 145.443 268.595V30.3247C145.443 25.4642 149.354 21.5547 154.216 21.5547H335.492C340.354 21.5547 344.265 25.4642 344.265 30.3247V268.595C344.265 273.456 340.354 277.365 335.492 277.365Z" stroke="#263238" stroke-miterlimit="10" stroke-linecap="round" stroke-linejoin="round"/>
<path d="M335.809 58.2207H154.005V129.121H335.809V58.2207Z" fill="white" stroke="#263238" stroke-miterlimit="10" stroke-linecap="round" stroke-linejoin="round"/>
<path d="M335.809 129.015L154.005 58.2207" stroke="#263238" stroke-width="0.75" stroke-miterlimit="10" stroke-linecap="round" stroke-linejoin="round"/>
<path d="M154.005 129.015L335.809 58.2207" stroke="#263238" stroke-width="0.75" stroke-miterlimit="10" stroke-linecap="round" stroke-linejoin="round"/>
<path d="M244.907 143.385H154.005V214.285H244.907V143.385Z" fill="#6970CF"/>
<path opacity="0.5" d="M244.907 143.385H154.005V214.285H244.907V143.385Z" fill="white"/>
<path d="M244.907 143.385H154.005V214.285H244.907V143.385Z" stroke="#263238" stroke-miterlimit="10" stroke-linecap="round" stroke-linejoin="round"/>
<path d="M284.228 36.9824H205.481C204.635 36.9824 203.896 36.2428 203.896 35.3974C203.896 34.5521 204.635 33.8125 205.481 33.8125H284.228C285.073 33.8125 285.813 34.5521 285.813 35.3974C285.813 36.3484 285.073 36.9824 284.228 36.9824Z" fill="#263238" stroke="#263238" stroke-width="0.75" stroke-miterlimit="10" stroke-linecap="round" stroke-linejoin="round"/>
<path d="M334.224 146.555H255.477C254.632 146.555 253.892 145.815 253.892 144.97C253.892 144.124 254.632 143.385 255.477 143.385H334.224C335.069 143.385 335.809 144.124 335.809 144.97C335.809 145.921 335.069 146.555 334.224 146.555Z" fill="#263238" stroke="#263238" stroke-width="0.75" stroke-miterlimit="10" stroke-linecap="round" stroke-linejoin="round"/>
<path d="M317.312 164.094H255.477C254.632 164.094 253.892 163.354 253.892 162.509C253.892 161.663 254.632 160.924 255.477 160.924H317.312C318.157 160.924 318.897 161.663 318.897 162.509C318.897 163.354 318.157 164.094 317.312 164.094Z" fill="#263238" stroke="#263238" stroke-width="0.75" stroke-miterlimit="10" stroke-linecap="round" stroke-linejoin="round"/>
<path d="M309.067 176.457H255.372C254.526 176.457 253.786 175.717 253.786 174.872C253.786 174.027 254.526 173.287 255.372 173.287H309.067C309.913 173.287 310.653 174.027 310.653 174.872C310.653 175.823 309.913 176.457 309.067 176.457Z" fill="#263238" stroke="#263238" stroke-width="0.75" stroke-miterlimit="10" stroke-linecap="round" stroke-linejoin="round"/>
<path d="M324.711 188.926H255.477C254.632 188.926 253.892 188.186 253.892 187.341C253.892 186.496 254.632 185.756 255.477 185.756H324.711C325.556 185.756 326.296 186.496 326.296 187.341C326.296 188.186 325.556 188.926 324.711 188.926Z" fill="#263238" stroke="#263238" stroke-width="0.75" stroke-miterlimit="10" stroke-linecap="round" stroke-linejoin="round"/>
<path d="M318.052 201.287H255.477C254.632 201.287 253.892 200.547 253.892 199.702C253.892 198.857 254.632 198.117 255.477 198.117H318.052C318.897 198.117 319.637 198.857 319.637 199.702C319.637 200.547 318.897 201.287 318.052 201.287Z" fill="#263238" stroke="#263238" stroke-width="0.75" stroke-miterlimit="10" stroke-linecap="round" stroke-linejoin="round"/>
<path d="M309.067 213.65H255.372C254.526 213.65 253.786 212.911 253.786 212.065C253.786 211.22 254.526 210.48 255.372 210.48H309.067C309.913 210.48 310.653 211.22 310.653 212.065C310.653 212.911 309.913 213.65 309.067 213.65Z" fill="#263238" stroke="#263238" stroke-width="0.75" stroke-miterlimit="10" stroke-linecap="round" stroke-linejoin="round"/>
<path d="M296.171 47.7597H193.642C192.797 47.7597 192.057 47.0201 192.057 46.1748C192.057 45.3295 192.797 44.5898 193.642 44.5898H296.171C297.017 44.5898 297.757 45.3295 297.757 46.1748C297.757 47.0201 297.017 47.7597 296.171 47.7597Z" fill="#263238" stroke="#263238" stroke-width="0.75" stroke-miterlimit="10" stroke-linecap="round" stroke-linejoin="round"/>
<path d="M244.907 266.482C254.247 266.482 261.819 258.913 261.819 249.576C261.819 240.239 254.247 232.67 244.907 232.67C235.567 232.67 227.995 240.239 227.995 249.576C227.995 258.913 235.567 266.482 244.907 266.482Z" fill="#6970CF" stroke="#263238" stroke-width="0.75" stroke-miterlimit="10" stroke-linecap="round" stroke-linejoin="round"/>
<path d="M194.171 266.482C203.511 266.482 211.083 258.913 211.083 249.576C211.083 240.239 203.511 232.67 194.171 232.67C184.831 232.67 177.259 240.239 177.259 249.576C177.259 258.913 184.831 266.482 194.171 266.482Z" fill="#6970CF" stroke="#263238" stroke-miterlimit="10" stroke-linecap="round" stroke-linejoin="round"/>
<path d="M295.643 266.482C304.984 266.482 312.556 258.913 312.556 249.576C312.556 240.239 304.984 232.67 295.643 232.67C286.303 232.67 278.731 240.239 278.731 249.576C278.731 258.913 286.303 266.482 295.643 266.482Z" fill="#6970CF" stroke="#263238" stroke-miterlimit="10" stroke-linecap="round" stroke-linejoin="round"/>
<path d="M289.407 173.921H261.079V134.932H281.691L289.407 142.645V173.921Z" fill="white" stroke="#263238" stroke-miterlimit="10" stroke-linecap="round" stroke-linejoin="round"/>
<path d="M281.69 134.932V135.988V143.702H289.407V142.645L281.69 134.932Z" fill="#263238" stroke="#263238" stroke-width="0.75" stroke-miterlimit="10" stroke-linecap="round" stroke-linejoin="round"/>
<path d="M281.69 142.645H289.407L281.69 134.932V142.645Z" fill="white" stroke="#263238" stroke-miterlimit="10" stroke-linecap="round" stroke-linejoin="round"/>
<path d="M274.08 144.758H278.625L282.113 166.313H278.731L278.097 162.087V162.192H274.292L273.657 166.419H270.486L274.08 144.758ZM277.78 159.128L276.3 148.456H276.194L274.714 159.128H277.78Z" fill="#6970CF" stroke="#6970CF" stroke-width="0.5" stroke-miterlimit="10" stroke-linecap="round" stroke-linejoin="round"/>
<path d="M271.966 143.701H276.511L279.999 165.256H276.617L275.982 161.03V161.136H272.177L271.543 165.362H268.372L271.966 143.701ZM275.665 158.071L274.186 147.399H274.08L272.6 158.071H275.665Z" fill="white" stroke="#263238" stroke-width="0.75" stroke-miterlimit="10" stroke-linecap="round" stroke-linejoin="round"/>
<path d="M373.861 244.189L392.887 316.04C392.887 316.04 393.099 323.965 396.904 329.988L402.083 390.533C402.083 390.533 406.1 396.661 420.264 390.533C420.264 390.533 420.898 347.211 415.613 320.267L411.173 268.915C411.173 268.915 412.97 258.137 410.328 244.718L373.861 244.189Z" fill="#263238"/>
<path opacity="0.5" d="M405.148 243.027C405.148 243.027 406.839 261.201 397.115 273.88C387.391 286.56 391.09 301.036 390.35 315.617C389.61 330.199 380.309 277.367 380.309 277.367L394.79 241.23L405.148 243.027Z" fill="black"/>
<path d="M373.861 244.189L392.887 316.04C392.887 316.04 393.099 323.965 396.904 329.988L402.083 390.533C402.083 390.533 406.1 396.661 420.264 390.533C420.264 390.533 420.898 347.211 415.613 320.267L411.173 268.915C411.173 268.915 412.97 258.137 410.328 244.718L373.861 244.189Z" stroke="#263238" stroke-width="0.75" stroke-miterlimit="10" stroke-linecap="round" stroke-linejoin="round"/>
<path d="M403.14 390.533C403.14 390.533 393.944 394.76 390.667 394.76C388.448 394.76 384.22 392.435 382.211 397.718C382.211 397.718 379.78 402.368 394.261 404.058C405.465 405.326 417.198 404.692 421.955 404.27C423.117 404.164 423.963 403.107 423.751 401.839L423.54 400.888C423.54 400.888 423.223 393.915 418.889 390.428H403.14V390.533Z" fill="#6970CF" stroke="#263238" stroke-miterlimit="10" stroke-linecap="round" stroke-linejoin="round"/>
<path d="M391.724 401.416C382.317 399.62 382.528 396.979 382.528 396.979C382.423 397.19 382.317 397.401 382.211 397.718C382.211 397.718 379.78 402.367 394.261 404.058C405.465 405.326 417.198 404.692 421.955 404.269C423.117 404.164 423.963 403.107 423.751 401.839L423.646 401.522L415.084 402.262C415.19 402.262 401.132 403.318 391.724 401.416Z" fill="white" stroke="#263238" stroke-width="0.75" stroke-miterlimit="10" stroke-linecap="round" stroke-linejoin="round"/>
<path d="M402.929 318.047C402.929 318.047 406.417 322.485 413.393 321.851" stroke="#7F7F7F" stroke-width="0.75" stroke-linecap="round" stroke-linejoin="round"/>
<path d="M355.681 241.23C355.681 241.23 350.924 253.699 359.697 306.742C359.697 306.742 358.112 311.813 361.283 321.746L365.511 355.769V389.582C365.511 389.582 368.471 396.767 385.594 389.582C385.594 389.582 386.123 329.565 384.326 316.885L388.342 278.213C388.765 274.514 390.668 271.344 393.627 269.126C397.432 266.378 402.295 260.567 403.035 248.733L355.681 241.23Z" fill="#263238" stroke="#263238" stroke-width="0.75" stroke-miterlimit="10" stroke-linecap="round" stroke-linejoin="round"/>
<path d="M366.674 389.053C366.674 389.053 356.527 393.702 352.933 393.702C350.396 393.702 345.746 391.166 343.526 396.978C343.526 396.978 340.883 402.155 356.844 403.951C369.211 405.325 382.106 404.585 387.391 404.163C388.66 404.057 389.611 402.789 389.4 401.521L389.188 400.465C389.188 400.465 388.765 392.857 384.009 388.947H366.674V389.053Z" fill="#6970CF" stroke="#263238" stroke-miterlimit="10" stroke-linecap="round" stroke-linejoin="round"/>
<path d="M353.99 401.099C343.632 399.091 343.843 396.238 343.843 396.238C343.737 396.45 343.632 396.767 343.526 397.084C343.526 397.084 340.883 402.261 356.844 404.057C369.211 405.431 382.106 404.691 387.391 404.269C388.66 404.163 389.611 402.895 389.4 401.627L389.294 401.204L379.781 402.05C379.887 402.05 364.349 403.106 353.99 401.099Z" fill="white" stroke="#263238" stroke-width="0.75" stroke-miterlimit="10" stroke-linecap="round" stroke-linejoin="round"/>
<path d="M368.894 314.455C368.894 314.455 373.016 319.421 381.366 318.787" stroke="#7F7F7F" stroke-width="0.75" stroke-linecap="round" stroke-linejoin="round"/>
<path d="M376.504 107.566C376.504 107.566 367.942 111.37 367.308 107.566C367.308 107.566 370.479 106.509 372.487 103.551C374.495 100.592 385.171 101.438 385.171 101.438C385.171 101.438 403.774 99.6413 401.449 109.257C401.449 109.257 408.848 116.23 402.506 126.374C396.164 136.518 392.464 139.899 392.464 139.899L386.122 138.842L377.349 112.004L376.504 107.566Z" fill="#263238" stroke="#263238" stroke-width="0.75" stroke-miterlimit="10" stroke-linecap="round" stroke-linejoin="round"/>
<path d="M377.772 146.978V142.963C377.772 142.963 370.901 144.019 369.95 142.223C368.999 140.427 370.584 133.136 370.584 133.136C370.584 133.136 367.308 133.242 367.308 131.762C367.308 130.178 371.219 123.732 371.219 123.732C371.219 123.732 370.796 118.555 371.219 116.864C371.641 115.173 376.504 105.875 376.504 105.875C376.504 105.875 383.585 109.785 383.374 111.898C383.163 114.011 381.154 116.019 382.74 117.815C384.431 119.611 386.651 124.366 385.911 126.691L386.968 127.43C386.968 127.43 387.602 123.204 389.927 122.464C392.253 121.724 394.155 126.479 392.57 129.755C390.879 133.03 388.976 132.502 388.976 132.502C388.976 132.502 389.927 138.208 392.359 140.11L393.098 146.027L377.772 146.978Z" fill="white"/>
<path d="M370.056 142.329C370.056 142.329 373.544 143.174 381.26 140.11C388.87 136.94 389.082 132.502 389.082 132.502L389.399 133.136C389.399 133.136 388.765 140.11 377.878 143.068C369.104 145.499 369.104 143.702 369.104 143.702L370.056 142.329Z" fill="#263238" stroke="#263238" stroke-width="0.5" stroke-miterlimit="10" stroke-linecap="round" stroke-linejoin="round"/>
<path d="M377.772 146.978V142.963C377.772 142.963 370.901 144.019 369.95 142.223C368.999 140.427 370.584 133.136 370.584 133.136C370.584 133.136 367.308 133.242 367.308 131.762C367.308 130.178 371.219 123.732 371.219 123.732C371.219 123.732 370.796 118.555 371.219 116.864C371.641 115.173 376.504 105.875 376.504 105.875C376.504 105.875 383.585 109.785 383.374 111.898C383.163 114.011 381.154 116.019 382.74 117.815C384.431 119.611 386.651 124.366 385.911 126.691L386.968 127.43C386.968 127.43 387.602 123.204 389.927 122.464C392.253 121.724 394.155 126.479 392.57 129.755C390.879 133.03 388.976 132.502 388.976 132.502C388.976 132.502 389.927 138.208 392.359 140.11L393.098 146.027L377.772 146.978Z" stroke="#263238" stroke-miterlimit="10" stroke-linecap="round" stroke-linejoin="round"/>
<path d="M377.455 133.242C377.455 133.242 376.293 137.046 372.487 135.038" stroke="#263238" stroke-width="0.75" stroke-miterlimit="10" stroke-linecap="round" stroke-linejoin="round"/>
<path d="M373.227 118.449C373.227 118.449 375.658 118.132 376.503 120.562" stroke="#263238" stroke-width="0.75" stroke-miterlimit="10" stroke-linecap="round" stroke-linejoin="round"/>
<path d="M372.487 122.465C372.487 123.205 372.804 123.839 373.227 123.839C373.65 123.839 373.967 123.205 373.967 122.465C373.967 121.726 373.65 121.092 373.227 121.092C372.804 121.092 372.487 121.726 372.487 122.465Z" fill="#2E353A"/>
<path d="M417.093 170.014C417.093 170.014 437.071 211.117 432.843 217.456C428.615 223.796 410.434 244.718 410.434 244.718L403.035 236.264L417.833 211.117L410.223 195.584C410.117 195.584 406.629 183.327 417.093 170.014Z" fill="#6970CF"/>
<path opacity="0.2" d="M418.044 176.882C418.044 176.882 419.313 190.829 418.044 198.014C416.776 205.2 424.809 205.939 423.858 210.166C422.906 214.392 409.694 220.521 410.434 244.823C411.279 269.02 401.449 203.615 401.449 203.615L408.637 177.833L413.71 171.07L418.044 176.882Z" fill="black"/>
<path d="M417.093 170.014C417.093 170.014 437.071 211.117 432.843 217.456C428.615 223.796 410.434 244.718 410.434 244.718L403.035 236.264L417.833 211.117L410.223 195.584C410.117 195.584 406.629 183.327 417.093 170.014Z" stroke="#263238" stroke-miterlimit="10" stroke-linecap="round" stroke-linejoin="round"/>
<path d="M420.369 210.589C420.369 210.589 423.752 209.532 427.24 210.589" stroke="#263238" stroke-width="0.75" stroke-miterlimit="10" stroke-linecap="round" stroke-linejoin="round"/>
<path d="M373.122 153.001L377.879 145.182C377.879 145.182 391.091 139.793 397.75 145.182L401.45 155.643L373.122 153.001Z" fill="#6970CF" stroke="#263238" stroke-miterlimit="10" stroke-linecap="round" stroke-linejoin="round"/>
<path d="M354.096 243.766L358.007 211.327L356.421 162.722C356.315 158.39 359.064 154.48 363.292 153.213C376.716 149.303 405.466 144.548 417.093 170.013C418.044 172.126 418.361 174.556 417.939 176.881L410.011 222.316L412.125 247.041C412.231 247.041 386.546 265.955 354.096 243.766Z" fill="#6970CF"/>
<path opacity="0.2" d="M365.194 160.926C365.194 160.926 372.593 170.118 365.194 188.187C357.795 206.15 390.034 214.497 390.034 218.407C390.034 222.316 402.189 220.203 402.929 224.112C403.669 228.022 386.546 231.72 387.18 241.23C387.814 250.739 407.157 249.788 407.157 249.788L395.53 261.834L354.413 260.777L335.281 241.23L348.177 203.508L354.307 173.711L356.316 162.616L365.194 160.926Z" fill="black"/>
<path d="M354.096 243.766L358.007 211.327L356.421 162.722C356.315 158.39 359.064 154.48 363.292 153.213C376.716 149.303 405.466 144.548 417.093 170.013C418.044 172.126 418.361 174.556 417.939 176.881L410.011 222.316L412.125 247.041C412.231 247.041 386.546 265.955 354.096 243.766Z" stroke="#263238" stroke-miterlimit="10" stroke-linecap="round" stroke-linejoin="round"/>
<path d="M407.157 223.268C407.157 223.268 367.52 231.721 365.406 223.268C363.292 214.815 376.504 220.098 387.18 218.83" stroke="#263238" stroke-width="0.75" stroke-miterlimit="10" stroke-linecap="round" stroke-linejoin="round"/>
<path d="M309.067 173.289L296.383 168.746C296.383 168.746 293.107 160.081 290.675 158.285C288.244 156.489 285.39 153.002 284.65 154.375C284.122 155.326 285.602 157.862 287.61 159.553C289.83 161.455 288.879 163.885 288.456 164.836C288.033 165.893 284.439 167.478 281.585 168.429C278.731 169.38 272.072 166.949 270.381 168.64C268.69 170.331 273.023 170.965 273.023 170.965C273.023 170.965 269.747 171.176 269.43 173.078C269.218 174.24 272.495 173.5 274.08 173.289C275.666 173.078 279.048 172.866 279.048 172.866C279.048 172.866 273.446 174.768 273.869 176.353C274.292 177.938 278.203 175.508 281.479 174.98C281.479 174.98 277.04 177.199 277.674 178.572C278.203 180.052 280.317 177.938 284.122 176.459L292.05 174.663L304.945 181.637L309.067 173.289Z" fill="white" stroke="#263238" stroke-miterlimit="10" stroke-linecap="round" stroke-linejoin="round"/>
<path d="M274.187 170.859C274.187 170.859 277.252 171.599 279.683 171.388" stroke="#263238" stroke-width="0.75" stroke-miterlimit="10" stroke-linecap="round" stroke-linejoin="round"/>
<path d="M362.023 154.271C361.178 153.954 360.227 154.165 359.592 154.799L336.867 178.89L299.66 168.641L295.538 178.996C295.538 178.996 323.76 194.74 338.03 193.894C348.917 193.26 362.235 181.532 367.943 175.932C369.845 174.03 370.797 171.282 370.268 168.641" fill="#6970CF"/>
<path d="M362.023 154.271C361.178 153.954 360.227 154.165 359.592 154.799L336.867 178.89L299.66 168.641L295.538 178.996C295.538 178.996 323.76 194.74 338.03 193.894C348.917 193.26 362.235 181.532 367.943 175.932C369.845 174.03 370.797 171.282 370.268 168.641" stroke="#263238" stroke-miterlimit="10" stroke-linecap="round" stroke-linejoin="round"/>
<path d="M303.465 177.937C303.571 178.571 303.148 179.311 302.408 179.417C301.774 179.522 301.034 179.1 300.928 178.36C300.822 177.726 301.245 176.986 301.985 176.881C302.725 176.775 303.359 177.303 303.465 177.937Z" fill="white" stroke="#263238" stroke-width="0.75" stroke-miterlimit="10" stroke-linecap="round" stroke-linejoin="round"/>
<path d="M336.549 186.075C337.712 183.011 336.126 180.37 337.817 180.053C339.614 179.736 339.614 185.124 342.468 185.019" stroke="#263238" stroke-width="0.75" stroke-miterlimit="10" stroke-linecap="round" stroke-linejoin="round"/>
<path d="M205.903 397.926L179.267 394.968V334.634L193.008 326.392V323.328H156.33V326.287L170.071 334.423V394.756L143.434 397.715C141.003 398.032 139.101 400.04 139.101 402.575V405.006H210.448V402.575C210.237 400.251 208.44 398.138 205.903 397.926Z" fill="white" stroke="#263238" stroke-width="0.75" stroke-miterlimit="10" stroke-linecap="round" stroke-linejoin="round"/>
<path d="M148.297 287.932H141.004V321.004H148.297V287.932Z" fill="white" stroke="#263238" stroke-width="0.75" stroke-miterlimit="10" stroke-linecap="round" stroke-linejoin="round"/>
<path d="M213.303 327.978H135.824C133.288 327.978 131.279 325.971 131.279 323.435V318.891C131.279 316.355 133.288 314.348 135.824 314.348H213.303C215.839 314.348 217.848 316.355 217.848 318.891V323.435C217.953 325.865 215.839 327.978 213.303 327.978Z" fill="#263238" stroke="#263238" stroke-miterlimit="10" stroke-linecap="round" stroke-linejoin="round"/>
<path d="M159.924 290.996H129.377C124.514 290.996 120.604 287.086 120.604 282.226V262.889C120.604 258.029 124.514 254.119 129.377 254.119H159.924C164.786 254.119 168.697 258.029 168.697 262.889V282.226C168.697 287.086 164.786 290.996 159.924 290.996Z" fill="#263238"/>
<path opacity="0.5" d="M167.957 290.996H137.41C132.548 290.996 128.637 287.086 128.637 282.226V262.889C128.637 258.029 132.548 254.119 137.41 254.119H167.957C172.819 254.119 176.73 258.029 176.73 262.889V282.226C176.73 287.086 172.819 290.996 167.957 290.996Z" fill="black"/>
<path d="M159.924 290.996H129.377C124.514 290.996 120.604 287.086 120.604 282.226V262.889C120.604 258.029 124.514 254.119 129.377 254.119H159.924C164.786 254.119 168.697 258.029 168.697 262.889V282.226C168.697 287.086 164.786 290.996 159.924 290.996Z" stroke="#263238" stroke-miterlimit="10" stroke-linecap="round" stroke-linejoin="round"/>
<path d="M202.521 312.127C203.367 311.388 205.27 309.908 210.026 307.689" stroke="#263238" stroke-width="0.75" stroke-miterlimit="10" stroke-linecap="round" stroke-linejoin="round"/>
<path d="M207.067 305.26C207.067 305.26 199.456 311.494 200.936 312.445" stroke="#263238" stroke-width="0.75" stroke-miterlimit="10" stroke-linecap="round" stroke-linejoin="round"/>
<path d="M231.272 363.904L233.597 380.599C233.597 380.599 229.158 384.191 228.946 394.124L236.768 396.871L238.882 394.124L245.858 401.415C245.858 401.415 258.225 407.015 259.916 403.211C261.608 399.513 254.737 396.765 249.029 388.524C247.55 386.41 242.476 380.388 242.476 380.388L243.004 362.953L231.272 363.904Z" fill="#263238" stroke="#263238" stroke-width="0.75" stroke-miterlimit="10" stroke-linecap="round" stroke-linejoin="round"/>
<path d="M171.446 292.898C171.446 292.898 237.085 288.46 240.045 297.759C243.005 307.057 244.484 336.643 244.59 348.477C244.696 360.206 243.85 375.21 243.85 375.21C243.85 375.21 237.931 377.218 231.8 375.21C231.8 375.21 228.946 358.092 226.832 349.745C224.718 341.398 222.499 330.303 223.767 312.763C223.767 312.763 160.876 322.273 160.558 311.284C160.136 300.189 171.446 292.898 171.446 292.898Z" fill="white"/>
<path opacity="0.5" d="M171.446 292.898C171.446 292.898 237.085 288.46 240.045 297.759C243.005 307.057 244.484 336.643 244.59 348.477C244.696 360.206 243.85 375.21 243.85 375.21C243.85 375.21 237.931 377.218 231.8 375.21C231.8 375.21 228.946 358.092 226.832 349.745C224.718 341.398 222.499 330.303 223.767 312.763C223.767 312.763 160.876 322.273 160.558 311.284C160.136 300.189 171.446 292.898 171.446 292.898Z" fill="black"/>
<path opacity="0.2" d="M215.205 295.752C215.205 295.752 230.955 295.541 229.369 312.13C227.678 328.719 223.978 318.998 225.247 343.089C226.515 367.18 212.457 320.794 212.457 320.794V299.662L215.205 295.752Z" fill="black"/>
<path d="M171.446 292.898C171.446 292.898 237.085 288.46 240.045 297.759C243.005 307.057 244.484 336.643 244.59 348.477C244.696 360.206 243.85 375.21 243.85 375.21C243.85 375.21 237.931 377.218 231.8 375.21C231.8 375.21 228.946 358.092 226.832 349.745C224.718 341.398 222.499 330.303 223.767 312.763C223.767 312.763 160.876 322.273 160.558 311.284C160.136 300.189 171.446 292.898 171.446 292.898Z" stroke="#263238" stroke-miterlimit="10" stroke-linecap="round" stroke-linejoin="round"/>
<path d="M230.743 306.74C230.743 306.74 230.109 309.804 225.775 312.763" stroke="#263238" stroke-width="0.75" stroke-miterlimit="10" stroke-linecap="round" stroke-linejoin="round"/>
<path d="M245.33 371.301L244.907 375.739C244.907 375.739 237.402 379.754 230.743 376.056L229.369 371.723C229.369 371.723 233.809 374.788 245.33 371.301Z" fill="#6970CF"/>
<path opacity="0.3" d="M245.33 371.301L244.907 375.739C244.907 375.739 237.402 379.754 230.743 376.056L229.369 371.723C229.369 371.723 233.809 374.788 245.33 371.301Z" fill="#6970CF" stroke="#263238" stroke-width="0.75" stroke-miterlimit="10"/>
<path d="M245.33 371.301L244.907 375.739C244.907 375.739 237.402 379.754 230.743 376.056L229.369 371.723C229.369 371.723 233.809 374.788 245.33 371.301Z" stroke="#263238" stroke-width="0.75" stroke-miterlimit="10" stroke-linecap="round" stroke-linejoin="round"/>
<path d="M242.159 381.973C242.159 381.973 246.07 385.565 250.087 391.905" stroke="#7F7F7F" stroke-linecap="round" stroke-linejoin="round"/>
<path d="M183.602 352.279L176.308 367.495C176.308 367.495 170.6 368.023 164.893 376.159L169.86 382.816L173.137 381.654L174.934 391.586C174.934 391.586 182.122 403.103 185.61 400.99C189.098 398.877 184.976 392.748 184.659 382.71C184.553 380.069 183.813 372.355 183.813 372.355L193.96 358.091L183.602 352.279Z" fill="#263238" stroke="#263238" stroke-width="0.75" stroke-miterlimit="10" stroke-linecap="round" stroke-linejoin="round"/>
<path d="M148.826 295.327C148.826 295.327 139.524 313.924 151.468 315.614C163.412 317.305 199.773 315.192 199.773 315.192C199.773 315.192 192.374 326.815 187.723 338.015C182.967 349.11 178.316 360.627 178.316 360.627C178.316 360.627 180.324 366.121 188.675 367.178C188.675 367.178 195.44 356.612 210.238 340.128C225.036 323.645 229.052 307.161 225.987 301.561C222.816 295.961 206.538 292.897 180.113 291.629L148.826 295.327Z" fill="white"/>
<path opacity="0.5" d="M148.826 295.327C148.826 295.327 139.524 313.924 151.468 315.614C163.412 317.305 199.773 315.192 199.773 315.192C199.773 315.192 192.374 326.815 187.723 338.015C182.967 349.11 178.316 360.627 178.316 360.627C178.316 360.627 180.324 366.121 188.675 367.178C188.675 367.178 195.44 356.612 210.238 340.128C225.036 323.645 229.052 307.161 225.987 301.561C222.816 295.961 206.538 292.897 180.113 291.629L148.826 295.327Z" fill="black"/>
<path d="M148.826 295.327C148.826 295.327 139.524 313.924 151.468 315.614C163.412 317.305 199.773 315.192 199.773 315.192C199.773 315.192 192.374 326.815 187.723 338.015C182.967 349.11 178.316 360.627 178.316 360.627C178.316 360.627 180.324 366.121 188.675 367.178C188.675 367.178 195.44 356.612 210.238 340.128C225.036 323.645 229.052 307.161 225.987 301.561C222.816 295.961 206.538 292.897 180.113 291.629L148.826 295.327Z" stroke="#263238" stroke-miterlimit="10" stroke-linecap="round" stroke-linejoin="round"/>
<path d="M191.318 365.488L188.464 368.975C188.464 368.975 180.008 368.235 176.52 361.473L177.788 357.035C177.894 357.035 179.902 362.107 191.318 365.488Z" fill="#6970CF"/>
<path opacity="0.3" d="M191.318 365.488L188.464 368.975C188.464 368.975 180.008 368.235 176.52 361.473L177.788 357.035C177.894 357.035 179.902 362.107 191.318 365.488Z" fill="#6970CF" stroke="#263238" stroke-width="0.75" stroke-miterlimit="10"/>
<path d="M191.318 365.488L188.464 368.975C188.464 368.975 180.008 368.235 176.52 361.473L177.788 357.035C177.894 357.035 179.902 362.107 191.318 365.488Z" stroke="#263238" stroke-width="0.75" stroke-miterlimit="10" stroke-linecap="round" stroke-linejoin="round"/>
<path d="M182.333 373.729C182.756 376.053 183.601 380.702 183.919 385.774" stroke="#7F7F7F" stroke-linecap="round" stroke-linejoin="round"/>
<path d="M178.949 184.064C178.949 184.064 187.088 180.049 178.526 174.66C169.965 169.271 155.061 184.064 155.061 184.064L153.581 190.932C153.581 190.932 154.215 196.427 156.224 199.596C157.809 202.132 160.663 202.132 161.931 204.774C163.94 208.684 163.305 211.431 165.419 209.74C170.599 205.514 172.29 188.819 172.29 188.819L178.949 184.064Z" fill="#263238" stroke="#263238" stroke-miterlimit="10" stroke-linecap="round" stroke-linejoin="round"/>
<path d="M175.779 217.138L177.258 208.79L166.583 199.703L163.623 213.439L175.779 217.138Z" fill="white"/>
<path d="M165.525 200.654C165.525 200.654 166.371 205.409 169.013 208.368C171.55 211.326 178.315 214.919 178.315 214.919L178.949 209.213L168.379 201.182L166.582 199.703L165.525 200.654Z" fill="#263238" stroke="#263238" stroke-width="0.5" stroke-miterlimit="10" stroke-linecap="round" stroke-linejoin="round"/>
<path d="M175.779 217.138L177.258 208.79L166.583 199.703L163.623 213.439L175.779 217.138Z" stroke="#263238" stroke-miterlimit="10" stroke-linecap="round" stroke-linejoin="round"/>
<path d="M179.267 181.211C179.267 181.211 184.129 189.664 184.023 192.094C184.023 192.094 190.365 208.683 184.023 211.431C179.055 213.544 172.925 209.423 170.494 207.521C169.859 206.993 169.225 206.359 168.908 205.619L166.794 202.027C166.794 202.027 164.257 202.766 161.932 199.491C159.607 196.215 162.038 193.045 164.574 195.053C164.574 195.053 166.477 191.038 165.949 188.819C165.314 186.6 168.274 186.6 168.38 184.275C168.274 184.275 175.039 183.958 179.267 181.211Z" fill="white"/>
<path d="M179.267 181.211C179.267 181.211 184.129 189.664 184.023 192.094C184.023 192.094 190.365 208.683 184.023 211.431C179.055 213.544 172.925 209.423 170.494 207.521C169.859 206.993 169.225 206.359 168.908 205.619L166.794 202.027C166.794 202.027 164.257 202.766 161.932 199.491C159.607 196.215 162.038 193.045 164.574 195.053C164.574 195.053 166.477 191.038 165.949 188.819C165.314 186.6 168.274 186.6 168.38 184.275C168.274 184.275 175.039 183.958 179.267 181.211Z" stroke="#263238" stroke-miterlimit="10" stroke-linecap="round" stroke-linejoin="round"/>
<path d="M178.315 204.035C178.315 204.035 179.901 206.148 183.072 203.295" stroke="#263238" stroke-width="0.75" stroke-miterlimit="10" stroke-linecap="round" stroke-linejoin="round"/>
<path d="M180.958 194.102C181.592 196.427 180.852 198.54 179.478 198.857C178.104 199.174 176.413 197.695 175.884 195.37C175.25 193.046 176.201 192.2 177.681 191.883C179.055 191.566 180.324 191.883 180.958 194.102Z" stroke="#263238" stroke-width="0.75" stroke-miterlimit="10" stroke-linecap="round" stroke-linejoin="round"/>
<path d="M187.405 192.307C188.039 194.631 187.511 196.639 186.348 196.956C185.186 197.273 183.811 195.688 183.177 193.363C182.543 191.039 183.283 190.299 184.446 189.982C185.714 189.665 186.877 189.982 187.405 192.307Z" fill="white" stroke="#263238" stroke-width="0.75" stroke-miterlimit="10" stroke-linecap="round" stroke-linejoin="round"/>
<path d="M175.039 191.883C175.039 191.883 176.413 189.03 179.373 190.403" stroke="#263238" stroke-width="0.75" stroke-miterlimit="10" stroke-linecap="round" stroke-linejoin="round"/>
<path d="M182.12 189.558C182.12 189.558 182.332 188.395 183.494 187.973" stroke="#263238" stroke-width="0.75" stroke-miterlimit="10" stroke-linecap="round" stroke-linejoin="round"/>
<path d="M175.779 195.476L173.136 196.532L164.469 194.947" stroke="#263238" stroke-width="0.75" stroke-miterlimit="10" stroke-linecap="round" stroke-linejoin="round"/>
<path d="M183.178 192.939L180.958 193.785" stroke="#263238" stroke-width="0.75" stroke-miterlimit="10" stroke-linecap="round" stroke-linejoin="round"/>
<path d="M179.795 194.631C179.901 195.371 179.584 196.005 179.161 196.005C178.738 196.005 178.316 195.476 178.21 194.842C178.104 194.103 178.421 193.469 178.844 193.469C179.267 193.469 179.69 193.997 179.795 194.631Z" fill="#263238"/>
<path d="M185.08 192.729C185.186 193.468 184.974 193.997 184.657 194.102C184.34 194.102 184.023 193.574 183.917 192.94C183.811 192.2 184.023 191.672 184.34 191.566C184.657 191.566 184.974 192.095 185.08 192.729Z" fill="#263238"/>
<path d="M182.543 193.15L186.982 197.06C187.405 197.483 187.405 198.222 186.877 198.539L184.551 200.018" fill="white"/>
<path d="M182.543 193.15L186.982 197.06C187.405 197.483 187.405 198.222 186.877 198.539L184.551 200.018" stroke="#263238" stroke-width="0.75" stroke-miterlimit="10" stroke-linecap="round" stroke-linejoin="round"/>
<path d="M157.492 184.381C157.492 184.381 156.753 170.328 145.76 175.928C134.873 181.528 145.231 198.011 142.06 201.604C138.784 205.196 145.02 203.611 145.76 200.97C146.5 198.328 145.865 205.408 147.451 205.619C148.931 205.83 149.248 199.596 150.622 199.596C151.996 199.596 150.199 203.506 151.362 203.928C152.525 204.351 155.167 196.215 155.907 191.777C156.541 187.339 157.492 184.381 157.492 184.381Z" fill="#263238" stroke="#263238" stroke-miterlimit="10" stroke-linecap="round" stroke-linejoin="round"/>
<path d="M157.492 182.479C157.492 182.479 153.687 186.705 155.167 197.271C155.167 197.271 147.768 186.494 157.492 182.479Z" fill="#6970CF" stroke="#263238" stroke-miterlimit="10" stroke-linecap="round" stroke-linejoin="round"/>
<path d="M166.477 184.065C166.477 184.065 170.705 185.227 171.233 188.714C171.867 192.201 173.876 180.683 166.477 184.065Z" fill="#263238" stroke="#263238" stroke-width="0.75" stroke-miterlimit="10" stroke-linecap="round" stroke-linejoin="round"/>
<path d="M180.535 183.325C180.535 183.325 185.08 181.951 186.454 184.91C186.454 184.91 185.82 177.725 180.535 183.325Z" fill="#263238" stroke="#263238" stroke-width="0.75" stroke-miterlimit="10" stroke-linecap="round" stroke-linejoin="round"/>
<path d="M216.896 180.26C217.847 180.049 218.799 181.211 218.799 181.211C219.75 179.52 221.335 182.373 221.335 182.373C222.71 180.788 223.344 184.275 223.344 184.275C223.344 184.275 224.718 183.958 224.612 185.755C224.401 188.079 221.653 193.468 221.653 193.468L219.856 202.555L213.197 201.815L215.311 193.045C215.311 193.045 214.465 191.355 213.408 189.241C213.408 189.241 212.14 186.494 212.351 184.275C212.562 182.162 215.945 180.577 216.896 180.26Z" fill="white" stroke="#263238" stroke-miterlimit="10" stroke-linecap="round" stroke-linejoin="round"/>
<path d="M216.896 182.479C216.896 182.479 218.905 186.599 218.588 182.479C218.588 182.479 220.067 187.656 220.913 183.429C220.913 183.429 220.385 188.184 222.287 185.543C222.287 185.543 221.442 187.022 221.864 187.656C222.181 188.29 223.238 187.233 223.238 187.233" fill="white"/>
<path d="M216.896 182.479C216.896 182.479 218.905 186.599 218.588 182.479C218.588 182.479 220.067 187.656 220.913 183.429C220.913 183.429 220.385 188.184 222.287 185.543C222.287 185.543 221.442 187.022 221.864 187.656C222.181 188.29 223.238 187.233 223.238 187.233" stroke="#263238" stroke-width="0.75" stroke-miterlimit="10" stroke-linecap="round" stroke-linejoin="round"/>
<path d="M184.446 219.989L205.692 220.412L213.725 198.223L220.807 200.653C220.807 200.653 217.213 228.759 213.619 230.45C210.026 232.141 188.04 234.465 188.04 234.465C188.04 234.465 181.064 227.069 184.446 219.989Z" fill="#6970CF"/>
<path opacity="0.2" d="M182.544 219.355C182.544 219.355 188.252 220.201 191.951 226.435C195.545 232.669 206.326 232.141 206.326 232.141L210.026 237.318L194.488 242.707L183.072 238.797L177.259 227.492V224.216L182.544 219.355Z" fill="black"/>
<path d="M184.446 219.989L205.692 220.412L213.725 198.223L220.807 200.653C220.807 200.653 217.213 228.759 213.619 230.45C210.026 232.141 188.04 234.465 188.04 234.465C188.04 234.465 181.064 227.069 184.446 219.989Z" stroke="#263238" stroke-miterlimit="10" stroke-linecap="round" stroke-linejoin="round"/>
<path d="M212.457 200.02L220.702 202.767L221.23 199.069L213.408 196.533L212.457 200.02Z" fill="#6970CF" stroke="#263238" stroke-miterlimit="10" stroke-linecap="round" stroke-linejoin="round"/>
<path d="M224.084 189.876C220.913 190.615 217.742 188.608 217.002 185.438L208.758 149.618L220.385 146.977L228.629 182.796C229.264 185.966 227.255 189.136 224.084 189.876Z" fill="white" stroke="#263238" stroke-width="0.75" stroke-miterlimit="10" stroke-linecap="round" stroke-linejoin="round"/>
<path d="M219.222 149.936H211.611V155.43H219.222V149.936Z" fill="#6970CF"/>
<path opacity="0.7" d="M218.51 149.177L211.092 150.873L212.317 156.229L219.736 154.533L218.51 149.177Z" fill="white"/>
<path d="M220.702 156.486H213.092V161.981H220.702V156.486Z" fill="#6970CF"/>
<path opacity="0.3" d="M219.984 155.735L212.565 157.432L213.791 162.788L221.21 161.091L219.984 155.735Z" fill="white"/>
<path d="M221.585 162.37L214.166 164.066L215.392 169.422L222.81 167.726L221.585 162.37Z" fill="#6970CF"/>
<path d="M223.768 169.693H216.157V175.188H223.768V169.693Z" fill="#6970CF"/>
<path opacity="0.2" d="M223.057 168.928L215.639 170.625L216.864 175.981L224.283 174.284L223.057 168.928Z" fill="black"/>
<path d="M225.247 176.244H217.637V181.739H225.247V176.244Z" fill="#6970CF"/>
<path opacity="0.3" d="M224.547 175.467L217.128 177.164L218.354 182.52L225.773 180.823L224.547 175.467Z" fill="black"/>
<path d="M214.042 183.537C214.042 183.537 214.465 181.635 216.262 182.903C217.953 184.171 220.49 184.593 220.173 185.333C219.856 186.073 219.221 186.601 216.79 185.65C216.79 185.65 216.367 185.861 217.002 186.707C217.742 187.657 218.587 188.82 218.587 189.771" fill="white"/>
<path d="M214.042 183.537C214.042 183.537 214.465 181.635 216.262 182.903C217.953 184.171 220.49 184.593 220.173 185.333C219.856 186.073 219.221 186.601 216.79 185.65C216.79 185.65 216.367 185.861 217.002 186.707C217.742 187.657 218.587 188.82 218.587 189.771" stroke="#263238" stroke-width="0.75" stroke-miterlimit="10" stroke-linecap="round" stroke-linejoin="round"/>
<path d="M144.809 220.517L151.468 279.9L147.24 297.757C147.24 297.757 151.679 298.708 164.046 294.904C176.413 290.994 189.626 292.157 189.626 292.157C189.626 292.157 195.122 252.639 192.902 240.276C190.683 227.914 184.552 219.989 184.552 219.989C184.552 219.989 160.875 209.634 146.394 217.559C145.232 218.193 144.597 219.355 144.809 220.517Z" fill="#6970CF"/>
<path opacity="0.12" d="M154.639 235.311C154.639 235.311 157.916 247.462 157.388 254.858C156.859 262.255 174.405 260.67 173.56 265.742C172.714 270.813 156.225 276.308 155.696 280.957C155.168 285.606 149.037 297.018 167.429 293.954C185.821 290.889 153.688 307.795 153.688 307.795L125.783 302.09L135.191 277.47L144.809 236.684L154.639 235.311Z" fill="black"/>
<path d="M144.809 220.517L151.468 279.9L147.24 297.757C147.24 297.757 151.679 298.708 164.046 294.904C176.413 290.994 189.626 292.157 189.626 292.157C189.626 292.157 195.122 252.639 192.902 240.276C190.683 227.914 184.552 219.989 184.552 219.989C184.552 219.989 160.875 209.634 146.394 217.559C145.232 218.193 144.597 219.355 144.809 220.517Z" stroke="#263238" stroke-miterlimit="10" stroke-linecap="round" stroke-linejoin="round"/>
<path d="M159.818 214.918L162.989 208.789C162.989 208.789 167.957 210.48 173.876 211.853C179.901 213.121 178.422 214.918 178.422 214.918L176.942 219.567C176.836 219.567 174.511 221.891 159.818 214.918Z" fill="#6970CF" stroke="#263238" stroke-miterlimit="10" stroke-linecap="round" stroke-linejoin="round"/>
<path d="M148.191 260.987C148.191 260.987 151.574 258.345 152.419 259.402C153.265 260.564 151.468 260.141 150.094 264.051" stroke="#263238" stroke-miterlimit="10" stroke-linecap="round" stroke-linejoin="round"/>
<path d="M178.632 289.198C178.103 286.662 179.794 284.126 182.437 283.598L211.399 277.998L213.196 287.296L184.234 292.897C181.591 293.425 179.055 291.734 178.632 289.198Z" fill="white" stroke="#263238" stroke-width="0.75" stroke-miterlimit="10" stroke-linecap="round" stroke-linejoin="round"/>
<path d="M211.716 281.168H205.585V285.5H211.716V281.168Z" fill="#6970CF"/>
<path opacity="0.7" d="M211.329 285.93L210.171 279.912L205.915 280.73L207.073 286.749L211.329 285.93Z" fill="white"/>
<path d="M206.431 282.119H200.301V286.451H206.431V282.119Z" fill="#6970CF"/>
<path opacity="0.3" d="M206.097 286.96L204.938 280.941L200.683 281.76L201.841 287.778L206.097 286.96Z" fill="white"/>
<path d="M200.758 288.004L199.6 281.986L195.344 282.805L196.502 288.823L200.758 288.004Z" fill="#6970CF"/>
<path d="M195.756 284.232H189.625V288.565H195.756V284.232Z" fill="#6970CF"/>
<path opacity="0.2" d="M195.401 288.95L194.243 282.932L189.987 283.75L191.146 289.768L195.401 288.95Z" fill="black"/>
<path d="M190.47 285.184H184.34V289.516H190.47V285.184Z" fill="#6970CF"/>
<path opacity="0.3" d="M190.168 289.977L189.01 283.959L184.754 284.777L185.912 290.795L190.168 289.977Z" fill="black"/>
<path d="M179.795 290.36C178.104 288.353 178.315 285.394 180.324 283.703L202.626 264.473L208.863 271.658L186.56 290.888C184.446 292.579 181.486 292.368 179.795 290.36Z" fill="white" stroke="#263238" stroke-width="0.75" stroke-miterlimit="10" stroke-linecap="round" stroke-linejoin="round"/>
<path d="M205.903 268.172H199.772V272.504H205.903V268.172Z" fill="#6970CF"/>
<path opacity="0.7" d="M206.469 271.235L202.456 266.602L199.18 269.437L203.193 274.071L206.469 271.235Z" fill="white"/>
<path d="M201.78 271.656H195.649V275.988H201.78V271.656Z" fill="#6970CF"/>
<path opacity="0.3" d="M202.4 274.709L198.387 270.076L195.11 272.912L199.124 277.545L202.4 274.709Z" fill="white"/>
<path d="M198.318 278.334L194.305 273.701L191.028 276.537L195.041 281.17L198.318 278.334Z" fill="#6970CF"/>
<path d="M193.642 278.736H187.512V283.069H193.642V278.736Z" fill="#6970CF"/>
<path opacity="0.2" d="M194.246 281.809L190.232 277.176L186.956 280.012L190.969 284.645L194.246 281.809Z" fill="black"/>
<path d="M189.625 282.33H183.494V286.662H189.625V282.33Z" fill="#6970CF"/>
<path opacity="0.3" d="M190.162 285.434L186.148 280.801L182.872 283.637L186.885 288.27L190.162 285.434Z" fill="black"/>
<path d="M180.641 290.572C178.209 289.727 176.835 286.979 177.681 284.549L187.3 256.76L196.284 259.824L186.665 287.613C185.82 290.149 183.177 291.417 180.641 290.572Z" fill="white" stroke="#263238" stroke-width="0.75" stroke-miterlimit="10" stroke-linecap="round" stroke-linejoin="round"/>
<path d="M193.641 259.506H187.511V263.838H193.641V259.506Z" fill="#6970CF"/>
<path opacity="0.7" d="M194.171 260.62L188.378 258.613L186.959 262.707L192.752 264.713L194.171 260.62Z" fill="white"/>
<path d="M191.95 264.578H185.819V268.91H191.95V264.578Z" fill="#6970CF"/>
<path opacity="0.3" d="M192.485 265.719L186.692 263.713L185.274 267.806L191.066 269.813L192.485 265.719Z" fill="white"/>
<path d="M190.702 270.784L184.909 268.777L183.49 272.871L189.283 274.877L190.702 270.784Z" fill="#6970CF"/>
<path d="M188.357 274.828H182.227V279.16H188.357V274.828Z" fill="#6970CF"/>
<path opacity="0.2" d="M188.881 275.948L183.088 273.941L181.669 278.035L187.462 280.041L188.881 275.948Z" fill="black"/>
<path d="M186.665 279.9H180.534V284.233H186.665V279.9Z" fill="#6970CF"/>
<path opacity="0.3" d="M187.195 281.047L181.402 279.041L179.983 283.135L185.776 285.141L187.195 281.047Z" fill="black"/>
<path d="M169.543 273.137L177.576 278.948C177.576 278.948 186.666 278.948 188.357 281.484C190.049 283.914 190.471 286.767 188.992 287.718C187.512 288.669 189.731 285.077 185.609 283.175C185.609 283.175 187.723 292.79 184.024 290.677C184.024 290.677 183.495 292.262 182.121 290.782C182.121 290.782 182.544 288.881 181.593 287.296C181.17 286.556 180.853 286.028 179.69 285.816C179.69 285.816 182.227 289.303 180.536 290.254C179.161 290.994 178.422 285.922 176.625 285.394C176.625 285.394 173.454 285.288 171.868 282.224L165.632 278.948L169.543 273.137Z" fill="white" stroke="#263238" stroke-miterlimit="10" stroke-linecap="round" stroke-linejoin="round"/>
<path d="M184.341 289.304C184.447 288.353 184.447 286.345 182.967 284.338" stroke="#263238" stroke-width="0.75" stroke-miterlimit="10" stroke-linecap="round" stroke-linejoin="round"/>
<path d="M186.35 281.59C186.35 281.59 186.138 282.329 184.553 282.118C183.39 282.012 181.593 284.443 179.69 284.126" stroke="#263238" stroke-width="0.75" stroke-miterlimit="10" stroke-linecap="round" stroke-linejoin="round"/>
<path d="M146.5 218.827C146.077 218.298 145.231 218.404 144.914 219.038C143.223 223.476 138.467 238.48 141.003 265.001C141.003 265.001 143.012 270.39 166.688 280.745L171.234 273.771L153.687 259.507C153.687 259.507 156.013 240.487 154.216 233.408" fill="#6970CF"/>
<path d="M146.5 218.827C146.077 218.298 145.231 218.404 144.914 219.038C143.223 223.476 138.467 238.48 141.003 265.001C141.003 265.001 143.012 270.39 166.688 280.745L171.234 273.771L153.687 259.507C153.687 259.507 156.013 240.487 154.216 233.408" stroke="#263238" stroke-miterlimit="10" stroke-linecap="round" stroke-linejoin="round"/>
<path d="M170.283 272.293L164.786 281.063L169.12 282.648L173.665 274.935L170.283 272.293Z" fill="#6970CF" stroke="#263238" stroke-miterlimit="10" stroke-linecap="round" stroke-linejoin="round"/>
<path d="M74.7303 133.348C74.836 136.201 75.1531 144.654 75.1531 144.654L91.9595 154.798L93.0165 135.567L93.545 109.151L96.2932 105.348C96.2932 105.348 100.415 99.0077 93.545 96.5775C86.6745 94.1472 88.5771 98.6907 81.7066 99.4304C74.836 100.276 58.7696 110.948 66.0629 120.457C73.3562 129.861 74.6246 128.593 74.7303 133.348Z" fill="#999999"/>
<path d="M81.2837 128.276C81.2837 128.276 82.8692 129.756 84.7718 129.967C84.7718 129.967 87.4143 137.363 88.6827 138.314C89.9511 139.371 94.7076 140.111 94.7076 140.111L96.0817 130.39L86.3573 124.05L81.0723 122.465L81.2837 128.276Z" fill="#263238" stroke="#263238" stroke-miterlimit="10" stroke-linecap="round" stroke-linejoin="round"/>
<path d="M74.7303 133.348C74.836 136.201 75.1531 144.654 75.1531 144.654L91.9595 154.798L93.0165 135.567L93.545 109.151L96.2932 105.348C96.2932 105.348 100.415 99.0077 93.545 96.5775C86.6745 94.1472 88.5771 98.6907 81.7066 99.4304C74.836 100.276 58.7696 110.948 66.0629 120.457C73.3562 129.861 74.6246 128.593 74.7303 133.348Z" stroke="#263238" stroke-miterlimit="10" stroke-linecap="round" stroke-linejoin="round"/>
<path d="M93.6504 109.151L96.3986 105.348C96.3986 105.348 100.521 99.0077 93.6504 96.5775C86.7799 94.1472 88.6825 98.6907 81.812 99.4304C74.9415 100.276 58.8751 110.948 66.1684 120.457C70.9249 126.586 73.0389 128.276 74.0959 129.967C75.2586 129.333 77.2669 128.699 79.1695 130.601C81.9177 133.348 84.6659 118.027 84.6659 118.027L93.6504 111.687V109.151Z" fill="#263238" stroke="#263238" stroke-miterlimit="10" stroke-linecap="round" stroke-linejoin="round"/>
<path d="M81.3894 119.296C81.3894 119.296 74.6245 119.507 78.324 124.579C82.0236 129.756 85.7231 128.7 85.7231 128.7L89.8454 136.624C89.8454 136.624 104.221 138.632 107.603 137.681C110.985 136.624 105.172 124.896 105.172 124.896L107.392 122.36C107.92 121.726 107.814 120.881 107.18 120.352L101.789 116.02C102.212 113.379 96.3988 105.348 96.3988 105.348C96.3988 105.348 87.7314 105.242 86.8858 108.201C86.0402 111.16 85.7231 113.484 85.7231 113.484L80.7552 115.492L81.3894 119.296Z" fill="#999999"/>
<path opacity="0.3" d="M84.6662 111.266L85.7232 113.379C85.7232 113.379 90.0569 116.338 90.2683 117.923C90.5854 120.036 88.26 121.515 92.9108 125.953C97.5616 130.497 101.895 125.213 105.172 124.685C108.449 124.157 111.091 132.293 111.091 132.293L110.774 139.689L93.0165 140.218L89.2113 137.787L84.1377 129.334C84.1377 129.334 89.5284 128.806 86.8859 124.051C83.0807 117.394 78.7469 118.345 78.7469 118.345L75.6816 115.704L83.5035 110.104L84.6662 111.266Z" fill="black"/>
<path d="M81.3894 119.296C81.3894 119.296 74.6245 119.507 78.324 124.579C82.0236 129.756 85.7231 128.7 85.7231 128.7L89.8454 136.624C89.8454 136.624 104.221 138.632 107.603 137.681C110.985 136.624 105.172 124.896 105.172 124.896L107.392 122.36C107.92 121.726 107.814 120.881 107.18 120.352L101.789 116.02C102.212 113.379 96.3988 105.348 96.3988 105.348C96.3988 105.348 87.7314 105.242 86.8858 108.201C86.0402 111.16 85.7231 113.484 85.7231 113.484L80.7552 115.492L81.3894 119.296Z" stroke="#263238" stroke-miterlimit="10" stroke-linecap="round" stroke-linejoin="round"/>
<path d="M100.521 116.653C100.838 117.498 100.733 118.238 100.415 118.343C100.098 118.449 99.5699 117.921 99.3585 117.075C99.0414 116.23 99.1471 115.49 99.4642 115.385C99.7813 115.173 100.204 115.807 100.521 116.653Z" fill="#263238"/>
<path d="M99.1476 112.745C99.1476 112.745 96.7165 112.216 95.9766 115.598" stroke="#263238" stroke-miterlimit="10" stroke-linecap="round" stroke-linejoin="round"/>
<path d="M104.115 126.48C104.115 126.48 103.27 128.911 99.9932 127.643" stroke="#263238" stroke-miterlimit="10" stroke-linecap="round" stroke-linejoin="round"/>
<path d="M163.73 125.951C164.787 126.374 164.893 128.276 164.893 128.276C167.112 127.325 166.584 131.34 166.584 131.34C169.121 130.706 167.112 134.721 167.112 134.721C167.112 134.721 168.698 135.461 167.218 137.046C165.21 139.159 158.55 142.435 158.55 142.435L149.989 150.043L143.964 144.231L152.526 137.152C152.526 137.152 152.948 134.827 153.477 131.869C153.477 131.869 154.322 128.17 156.225 126.268C158.128 124.578 162.673 125.529 163.73 125.951Z" fill="#999999" stroke="#263238" stroke-miterlimit="10" stroke-linecap="round" stroke-linejoin="round"/>
<path d="M162.145 128.17C162.145 128.17 160.982 133.77 163.836 129.438C163.836 129.438 161.405 135.566 165.421 132.185C165.421 132.185 161.299 136.517 165.21 135.249C165.21 135.249 163.307 136.095 163.202 136.94C163.096 137.891 164.893 137.574 164.893 137.574" fill="#999999"/>
<path d="M162.145 128.17C162.145 128.17 160.982 133.77 163.836 129.438C163.836 129.438 161.405 135.566 165.421 132.185C165.421 132.185 161.299 136.517 165.21 135.249C165.21 135.249 163.307 136.095 163.202 136.94C163.096 137.891 164.893 137.574 164.893 137.574" stroke="#263238" stroke-miterlimit="10" stroke-linecap="round" stroke-linejoin="round"/>
<path d="M74.3076 173.288C74.3076 173.288 89.6341 176.881 122.401 172.02C122.401 172.02 147.558 158.918 154.006 146.767L147.981 139.898L117.116 157.227C117.116 157.227 84.8776 152.261 78.9584 153.001L74.3076 173.288Z" fill="#263238" stroke="#263238" stroke-miterlimit="10" stroke-linecap="round" stroke-linejoin="round"/>
<path d="M206.991 91.1667L155.36 100.275L162.139 138.672L213.77 129.564L206.991 91.1667Z" fill="#999999" stroke="#263238" stroke-width="0.75" stroke-miterlimit="10" stroke-linecap="round" stroke-linejoin="round"/>
<path d="M164.608 101.201L159.195 102.156L159.912 106.214L165.325 105.26L164.608 101.201Z" fill="#263238" stroke="#263238" stroke-miterlimit="10" stroke-linecap="round" stroke-linejoin="round"/>
<path d="M169.016 128.804L178 107.883L193.538 124.472L169.016 128.804Z" fill="#6970CF"/>
<path opacity="0.5" d="M169.016 128.804L178 107.883L193.538 124.472L169.016 128.804Z" fill="white"/>
<path d="M169.016 128.804L178 107.883L193.538 124.472L169.016 128.804Z" stroke="#263238" stroke-width="0.75" stroke-miterlimit="10" stroke-linecap="round" stroke-linejoin="round"/>
<path d="M185.293 125.951L192.058 109.996L203.896 122.57L185.293 125.951Z" fill="#6970CF" stroke="#263238" stroke-width="0.75" stroke-miterlimit="10" stroke-linecap="round" stroke-linejoin="round"/>
<path d="M190.156 105.77C190.473 107.46 189.31 109.151 187.619 109.468C185.928 109.785 184.236 108.623 183.919 106.932C183.602 105.241 184.765 103.551 186.456 103.234C188.253 102.917 189.839 104.079 190.156 105.77Z" fill="#6970CF"/>
<path opacity="0.7" d="M190.156 105.77C190.473 107.46 189.31 109.151 187.619 109.468C185.928 109.785 184.236 108.623 183.919 106.932C183.602 105.241 184.765 103.551 186.456 103.234C188.253 102.917 189.839 104.079 190.156 105.77Z" fill="white"/>
<path d="M190.156 105.77C190.473 107.46 189.31 109.151 187.619 109.468C185.928 109.785 184.236 108.623 183.919 106.932C183.602 105.241 184.765 103.551 186.456 103.234C188.253 102.917 189.839 104.079 190.156 105.77Z" stroke="#263238" stroke-width="0.75" stroke-miterlimit="10" stroke-linecap="round" stroke-linejoin="round"/>
<path d="M158.445 126.058C158.445 126.058 160.348 124.473 161.088 127.009C161.827 129.544 165.104 130.812 164.153 131.341C163.202 131.869 161.193 132.926 159.502 130.073C159.502 130.073 158.868 129.967 158.868 131.235C158.868 132.714 158.868 134.616 158.128 135.462" fill="#999999"/>
<path d="M158.445 126.058C158.445 126.058 160.348 124.473 161.088 127.009C161.827 129.544 165.104 130.812 164.153 131.341C163.202 131.869 161.193 132.926 159.502 130.073C159.502 130.073 158.868 129.967 158.868 131.235C158.868 132.714 158.868 134.616 158.128 135.462" stroke="#263238" stroke-miterlimit="10" stroke-linecap="round" stroke-linejoin="round"/>
<path d="M41.6461 383.346C41.6461 383.346 37.6294 387.995 35.9382 395.391C35.5154 397.188 36.6781 398.984 38.5807 399.301L60.0379 403.739C64.7944 404.69 71.982 404.478 75.5758 404.373C77.3727 404.267 78.7468 402.682 78.4297 400.886C78.2183 399.618 77.3727 398.35 75.3644 397.188C70.2908 394.335 58.241 392.538 53.2731 384.825L41.6461 383.346Z" fill="#263238" stroke="#263238" stroke-miterlimit="10" stroke-linecap="round" stroke-linejoin="round"/>
<path d="M105.7 251.372C105.7 251.372 94.3902 282.754 79.9092 312.763C79.9092 312.763 77.161 325.971 70.819 334.952L54.964 385.565C54.964 385.565 47.9878 388.418 39.7432 383.451C39.7432 383.451 43.6541 351.118 53.6956 327.556L59.6148 308.959L67.0138 271.448C67.0138 271.448 60.7775 260.565 62.4687 244.716L90.2679 244.293L105.7 251.372Z" fill="#6970CF"/>
<path opacity="0.2" d="M62.2571 265.426L67.0136 271.555C67.0136 271.555 73.8841 317.412 78.9577 316.356C84.0313 315.299 87.308 290.891 87.308 290.891L67.1193 239.75L58.769 247.78L54.1182 254.649L62.2571 265.426Z" fill="black"/>
<path d="M105.7 251.372C105.7 251.372 94.3902 282.754 79.9092 312.763C79.9092 312.763 77.161 325.971 70.819 334.952L54.964 385.565C54.964 385.565 47.9878 388.418 39.7432 383.451C39.7432 383.451 43.6541 351.118 53.6956 327.556L59.6148 308.959L67.0138 271.448C67.0138 271.448 60.7775 260.565 62.4687 244.716L90.2679 244.293L105.7 251.372Z" stroke="#263238" stroke-miterlimit="10" stroke-linecap="round" stroke-linejoin="round"/>
<path d="M89.6338 388.418C89.6338 388.418 86.2514 392.961 86.04 400.992C86.04 402.999 87.6255 404.584 89.5281 404.584H112.782C117.856 404.584 125.361 402.894 129.06 401.837C130.857 401.414 132.02 399.407 131.28 397.61C130.751 396.342 129.589 395.18 127.263 394.441C121.344 392.644 108.448 393.173 101.684 386.41L89.6338 388.418Z" fill="#263238" stroke="#263238" stroke-miterlimit="10" stroke-linecap="round" stroke-linejoin="round"/>
<path d="M103.692 241.758C103.692 241.758 108.343 275.464 103.692 308.431C103.692 308.431 104.009 322.167 100.732 332.628L103.375 386.833C103.375 386.833 97.6669 391.271 88.3653 389.052C88.3653 389.052 78.7466 354.923 80.9663 330.515L79.9093 310.967L72.5103 270.498C72.5103 270.498 63.9486 264.158 60.6719 248.52L87.0969 239.75L103.692 241.758Z" fill="#6970CF" stroke="#263238" stroke-miterlimit="10" stroke-linecap="round" stroke-linejoin="round"/>
<path d="M72.616 143.807C72.616 143.807 61.0947 152.577 59.4035 174.555C57.7123 196.533 54.2242 242.496 61.3061 254.542C61.3061 254.542 68.1766 242.179 105.277 247.145C105.277 247.145 109.083 228.76 103.375 192.729C97.5613 156.698 91.0078 147.611 72.616 143.807Z" fill="#263238" stroke="#263238" stroke-miterlimit="10" stroke-linecap="round" stroke-linejoin="round"/>
<path d="M72.6164 144.864L73.6734 137.996C73.6734 137.996 81.8124 137.996 88.7886 143.913C93.7565 148.034 95.2363 152.049 91.6425 156.698L72.5107 145.709V144.864H72.6164Z" fill="#263238" stroke="#263238" stroke-miterlimit="10" stroke-linecap="round" stroke-linejoin="round"/>
<path d="M91.4309 154.057C87.4143 148.879 82.235 146.027 75.2588 144.336" stroke="#7F7F7F" stroke-width="0.75" stroke-linecap="round" stroke-linejoin="round"/>
<path d="M100.309 176.035C98.4066 167.793 96.1869 161.665 93.333 157.016" stroke="#7F7F7F" stroke-width="0.75" stroke-linecap="round" stroke-linejoin="round"/>
<path d="M131.888 223.022L79.4609 223.092L79.5127 262.081L131.94 262.012L131.888 223.022Z" fill="#999999" stroke="#263238" stroke-width="0.75" stroke-miterlimit="10" stroke-linecap="round" stroke-linejoin="round"/>
<path d="M88.3626 225.588L82.8662 225.596L82.8717 229.717L88.3681 229.709L88.3626 225.588Z" fill="#263238" stroke="#263238" stroke-miterlimit="10" stroke-linecap="round" stroke-linejoin="round"/>
<path d="M88.0488 253.486L100.416 234.467L112.888 253.486H88.0488Z" fill="#6970CF"/>
<path opacity="0.5" d="M88.0488 253.486L100.416 234.467L112.888 253.486H88.0488Z" fill="white"/>
<path d="M88.0488 253.486L100.416 234.467L112.888 253.486H88.0488Z" stroke="#263238" stroke-width="0.75" stroke-miterlimit="10" stroke-linecap="round" stroke-linejoin="round"/>
<path d="M104.432 253.488L113.945 239.012L123.458 253.488H104.432Z" fill="#6970CF" stroke="#263238" stroke-width="0.75" stroke-miterlimit="10" stroke-linecap="round" stroke-linejoin="round"/>
<path d="M112.782 234.467C112.782 236.263 111.408 237.637 109.611 237.637C107.815 237.637 106.44 236.263 106.44 234.467C106.44 232.67 107.815 231.297 109.611 231.297C111.408 231.297 112.782 232.776 112.782 234.467Z" fill="#6970CF"/>
<path opacity="0.7" d="M112.782 234.467C112.782 236.263 111.408 237.637 109.611 237.637C107.815 237.637 106.44 236.263 106.44 234.467C106.44 232.67 107.815 231.297 109.611 231.297C111.408 231.297 112.782 232.776 112.782 234.467Z" fill="white"/>
<path d="M112.782 234.467C112.782 236.263 111.408 237.637 109.611 237.637C107.815 237.637 106.44 236.263 106.44 234.467C106.44 232.67 107.815 231.297 109.611 231.297C111.408 231.297 112.782 232.776 112.782 234.467Z" stroke="#263238" stroke-width="0.75" stroke-miterlimit="10" stroke-linecap="round" stroke-linejoin="round"/>
<path d="M129.161 219.815L77.1797 226.639L82.2579 265.297L134.24 258.473L129.161 219.815Z" fill="white" stroke="#263238" stroke-width="0.75" stroke-miterlimit="10" stroke-linecap="round" stroke-linejoin="round"/>
<path d="M86.2778 227.9L80.8281 228.615L81.3648 232.701L86.8145 231.986L86.2778 227.9Z" fill="#263238" stroke="#263238" stroke-miterlimit="10" stroke-linecap="round" stroke-linejoin="round"/>
<path d="M89.6338 255.705L99.4639 235.312L114.262 252.43L89.6338 255.705Z" fill="#6970CF"/>
<path opacity="0.5" d="M89.6338 255.705L99.4639 235.312L114.262 252.43L89.6338 255.705Z" fill="white"/>
<path d="M89.6338 255.705L99.4639 235.312L114.262 252.43L89.6338 255.705Z" stroke="#263238" stroke-width="0.75" stroke-miterlimit="10" stroke-linecap="round" stroke-linejoin="round"/>
<path d="M105.911 253.593L113.416 237.955L124.726 251.057L105.911 253.593Z" fill="#6970CF" stroke="#263238" stroke-width="0.75" stroke-miterlimit="10" stroke-linecap="round" stroke-linejoin="round"/>
<path d="M111.725 233.622C111.937 235.312 110.774 236.897 108.977 237.214C107.286 237.426 105.7 236.263 105.383 234.467C105.172 232.777 106.334 231.192 108.131 230.875C109.928 230.663 111.514 231.931 111.725 233.622Z" fill="#6970CF"/>
<path opacity="0.7" d="M111.725 233.622C111.937 235.312 110.774 236.897 108.977 237.214C107.286 237.426 105.7 236.263 105.383 234.467C105.172 232.777 106.334 231.192 108.131 230.875C109.928 230.663 111.514 231.931 111.725 233.622Z" fill="white"/>
<path d="M111.725 233.622C111.937 235.312 110.774 236.897 108.977 237.214C107.286 237.426 105.7 236.263 105.383 234.467C105.172 232.777 106.334 231.192 108.131 230.875C109.928 230.663 111.514 231.931 111.725 233.622Z" stroke="#263238" stroke-width="0.75" stroke-miterlimit="10" stroke-linecap="round" stroke-linejoin="round"/>
<path d="M98.6182 241.758L104.115 249.683L110.457 251.162C113.099 251.796 114.473 252.324 115.425 254.86C116.164 256.656 115.636 257.185 114.368 257.713C114.368 257.713 118.173 265.004 114.156 264.264C114.156 264.264 114.473 267.54 110.562 266.377C110.562 266.377 109.294 268.596 106.546 266.8C106.546 266.8 104.432 268.385 101.472 262.996L97.2441 255.177L91.0078 248.203L98.6182 241.758Z" fill="#999999" stroke="#263238" stroke-miterlimit="10" stroke-linecap="round" stroke-linejoin="round"/>
<path d="M113.945 261.834C113.945 261.834 114.473 264.053 112.253 263.947C110.034 263.947 110.456 266.061 105.383 265.321" fill="#999999"/>
<path d="M113.945 261.834C113.945 261.834 114.473 264.053 112.253 263.947C110.034 263.947 110.456 266.061 105.383 265.321" stroke="#263238" stroke-miterlimit="10" stroke-linecap="round" stroke-linejoin="round"/>
<path d="M68.7055 162.723C68.7055 162.723 63.2091 179.206 66.2744 215.554C66.2744 215.554 79.804 244.189 93.6508 252.114L102.318 244.929L85.5119 210.799C85.5119 210.799 94.0736 175.825 93.6508 169.274" fill="#263238"/>
<path d="M68.7055 162.723C68.7055 162.723 63.2091 179.206 66.2744 215.554C66.2744 215.554 79.804 244.189 93.6508 252.114L102.318 244.929L85.5119 210.799C85.5119 210.799 94.0736 175.825 93.6508 169.274" stroke="#263238" stroke-miterlimit="10" stroke-linecap="round" stroke-linejoin="round"/>
<path d="M91.6426 183.538C92.911 177.198 93.7566 171.598 93.6509 169.379" stroke="#7F7F7F" stroke-width="0.75" stroke-linecap="round" stroke-linejoin="round"/>
<path d="M86.463 212.701L85.5117 210.904C85.5117 210.904 88.6827 198.014 91.1138 186.391" stroke="#7F7F7F" stroke-width="0.75" stroke-linecap="round" stroke-linejoin="round"/>
<path d="M91.1143 222.211L87.5205 214.92" stroke="#7F7F7F" stroke-width="0.75" stroke-linecap="round" stroke-linejoin="round"/>
<path d="M65.958 211.645C66.0637 212.912 66.1694 214.18 66.2751 215.554C66.2751 215.554 70.9259 225.381 77.4793 234.996" stroke="#7F7F7F" stroke-width="0.75" stroke-linecap="round" stroke-linejoin="round"/>
<path d="M68.8114 162.723C68.8114 162.723 64.0549 177.093 65.8518 208.58" stroke="#7F7F7F" stroke-width="0.75" stroke-linecap="round" stroke-linejoin="round"/>
<path d="M420.369 103.126C420.052 99.4281 418.678 88.8618 414.027 75.8652" stroke="#263238" stroke-miterlimit="10" stroke-linecap="round" stroke-linejoin="round"/>
<path d="M387.813 34.9746C387.919 34.9746 387.919 35.0803 387.919 35.0803" stroke="#263238" stroke-miterlimit="10" stroke-linecap="round" stroke-linejoin="round"/>
<path d="M384.854 32.2272C384.431 31.8046 383.903 31.3819 383.48 30.9593C371.747 20.8156 362.552 18.5967 358.641 18.0684" stroke="#263238" stroke-miterlimit="10" stroke-linecap="round" stroke-linejoin="round"/>
<path d="M357.519 15.9424L355.145 17.1016L356.304 19.4753L358.679 18.3162L357.519 15.9424Z" stroke="#263238" stroke-miterlimit="10" stroke-linecap="round" stroke-linejoin="round"/>
<path d="M421.044 102.81L418.67 103.969L419.829 106.342L422.204 105.183L421.044 102.81Z" stroke="#263238" stroke-miterlimit="10" stroke-linecap="round" stroke-linejoin="round"/>
<path d="M400.391 47.3374L401.766 48.711C401.766 48.9223 401.66 49.028 401.448 49.1337C401.343 49.2393 401.131 49.345 401.026 49.4507L399.546 47.9714L387.073 35.5031L387.919 34.8691L400.391 47.3374Z" fill="#263238" stroke="#263238" stroke-miterlimit="10" stroke-linecap="round" stroke-linejoin="round"/>
<path d="M402.083 47.6553C402.505 48.0779 402.611 48.6062 402.505 49.1346C402.4 49.3459 402.294 49.5572 402.188 49.7685C401.977 49.9799 401.766 50.0855 401.554 50.0855C401.026 50.2969 400.391 50.1912 399.969 49.7685C399.546 49.3459 399.44 48.7119 399.652 48.1836C399.757 47.9723 399.863 47.7609 399.969 47.5496C400.18 47.3383 400.391 47.2326 400.603 47.127C401.131 47.127 401.66 47.2326 402.083 47.6553Z" fill="#263238" stroke="#263238" stroke-miterlimit="10" stroke-linecap="round" stroke-linejoin="round"/>
<path d="M384.642 32.2274L372.381 20.0762" stroke="#263238" stroke-miterlimit="10" stroke-linecap="round" stroke-linejoin="round"/>
<path d="M372.593 18.7036C372.91 19.3376 372.593 19.9716 372.065 20.2886C371.43 20.6056 370.796 20.2886 370.479 19.7602C370.162 19.1263 370.479 18.4923 371.008 18.1753C371.642 17.8583 372.382 18.1753 372.593 18.7036Z" stroke="#263238" stroke-miterlimit="10" stroke-linecap="round" stroke-linejoin="round"/>
<path d="M387.919 32.2285V34.8701L387.813 34.9758L387.602 35.1871L387.073 35.7154H384.431V32.2285H387.919Z" stroke="#263238" stroke-miterlimit="10" stroke-linecap="round" stroke-linejoin="round"/>
<path d="M387.919 34.8691V35.5031V35.7144H387.073L387.602 35.1861L387.813 34.9748L387.919 34.8691Z" stroke="#5C5C5C" stroke-miterlimit="10"/>
<path d="M411.913 41.5267L416.353 53.2553L405.994 63.5046L394.261 59.1724L386.017 36.7718L387.602 35.1869L387.813 34.9756L389.399 33.3906L411.913 41.5267Z" stroke="#263238" stroke-miterlimit="10" stroke-linecap="round" stroke-linejoin="round"/>
<path d="M430.094 60.6523L414.344 76.3961L405.994 63.5052L416.247 53.2559L430.094 60.6523Z" stroke="#263238" stroke-miterlimit="10" stroke-linecap="round" stroke-linejoin="round"/>
<path d="M411.067 62.3417L417.515 56.002L423.434 59.1718" stroke="#263238" stroke-miterlimit="10" stroke-linecap="round" stroke-linejoin="round"/>
<path d="M409.165 64.3488L409.799 63.7148" stroke="#263238" stroke-miterlimit="10" stroke-linecap="round" stroke-linejoin="round"/>
<path d="M104.326 45.4366C100.944 37.0892 91.5366 32.9683 83.1862 36.3495C74.8359 39.7307 70.7136 49.1348 74.096 57.4822C76.5271 63.505 82.9748 65.7239 87.9428 69.3164C89.5283 70.4787 91.6423 76.0789 91.6423 76.0789L104.538 71.007C104.538 71.007 102.212 65.5126 102.529 63.6106C103.586 57.5878 106.757 51.565 104.326 45.4366Z" stroke="#263238" stroke-miterlimit="10" stroke-linecap="round" stroke-linejoin="round"/>
<path d="M102.846 76.8177L96.7155 79.248C94.9186 79.9876 92.8046 79.0367 92.0647 77.2404L91.959 76.9234L104.749 71.8516L104.854 72.1686C105.594 73.9648 104.749 76.0781 102.846 76.8177Z" stroke="#263238" stroke-miterlimit="10" stroke-linecap="round" stroke-linejoin="round"/>
<path opacity="0.5" d="M102.846 76.8177L96.7155 79.248C94.9186 79.9876 92.8046 79.0367 92.0647 77.2404L91.959 76.9234L104.749 71.8516L104.854 72.1686C105.594 73.9648 104.749 76.0781 102.846 76.8177Z" stroke="#263238" stroke-miterlimit="10" stroke-linecap="round" stroke-linejoin="round"/>
<path d="M101.578 81.7851L101.05 81.9964C99.5698 82.6304 97.8786 81.8908 97.2444 80.3058L97.1387 79.9888L103.164 77.5586L103.269 77.8756C103.798 79.4605 103.058 81.1511 101.578 81.7851Z" stroke="#263238" stroke-miterlimit="10" stroke-linecap="round" stroke-linejoin="round"/>
<path opacity="0.2" d="M101.578 81.7851L101.05 81.9964C99.5698 82.6304 97.8786 81.8908 97.2444 80.3058L97.1387 79.9888L103.164 77.5586L103.269 77.8756C103.798 79.4605 103.058 81.1511 101.578 81.7851Z" stroke="#263238" stroke-miterlimit="10" stroke-linecap="round" stroke-linejoin="round"/>
<path d="M80.2266 16.9062L84.0318 30.8538" stroke="#263238" stroke-miterlimit="10" stroke-linecap="round" stroke-linejoin="round"/>
<path d="M78.7471 11.3066L79.487 14.0539" stroke="#263238" stroke-miterlimit="10" stroke-linecap="round" stroke-linejoin="round"/>
<path d="M64.0547 57.5879L49.7852 61.3918" stroke="#263238" stroke-miterlimit="10" stroke-linecap="round" stroke-linejoin="round"/>
<path d="M69.34 56.1074L67.0146 56.7414" stroke="#263238" stroke-miterlimit="10" stroke-linecap="round" stroke-linejoin="round"/>
<path d="M124.303 41.4199L109.294 45.4351" stroke="#263238" stroke-miterlimit="10" stroke-linecap="round" stroke-linejoin="round"/>
<path d="M128.849 40.1523L126.735 40.7863" stroke="#263238" stroke-miterlimit="10" stroke-linecap="round" stroke-linejoin="round"/>
<path d="M78.9585 68.6816L68.917 86.2217" stroke="#263238" stroke-miterlimit="10" stroke-linecap="round" stroke-linejoin="round"/>
<path d="M109.823 15.3223L99.6758 32.8624" stroke="#263238" stroke-miterlimit="10" stroke-linecap="round" stroke-linejoin="round"/>
<path d="M71.4535 40.4698L53.9072 30.3262" stroke="#263238" stroke-miterlimit="10" stroke-linecap="round" stroke-linejoin="round"/>
<path d="M109.929 62.6592L107.286 61.0742" stroke="#263238" stroke-miterlimit="10" stroke-linecap="round" stroke-linejoin="round"/>
<path d="M124.832 71.2183L112.359 64.0332" stroke="#263238" stroke-miterlimit="10" stroke-linecap="round" stroke-linejoin="round"/>
</g>
<defs>
<clipPath id="clip0_1768_11688">
<rect width="471" height="431" fill="white"/>
</clipPath>
</defs>
</svg>
