<svg width="839" height="618" viewBox="0 0 839 618" fill="none" xmlns="http://www.w3.org/2000/svg">
<g clip-path="url(#clip0_1768_6570)">
<path d="M754.76 575.605H699.23V575.941H754.76V575.605Z" fill="#EBEBEB"/>
<path d="M555.627 580.297H541.031V580.632H555.627V580.297Z" fill="#EBEBEB"/>
<path d="M697.554 560.188H665.344V560.523H697.554V560.188Z" fill="#EBEBEB"/>
<path d="M160.547 562.871H88.0742V563.206H160.547V562.871Z" fill="#EBEBEB"/>
<path d="M186.049 562.871H175.48V563.206H186.049V562.871Z" fill="#EBEBEB"/>
<path d="M377.798 570.074H220.605V570.409H377.798V570.074Z" fill="#EBEBEB"/>
<path d="M397.596 473.889H73.6483C68.4477 473.889 64.0859 469.533 64.0859 464.338V9.55152C64.0859 4.35683 68.4477 0 73.6483 0H397.596C402.796 0 407.158 4.35683 407.158 9.55152V464.338C407.158 469.7 402.964 473.889 397.596 473.889ZM73.6483 0.335141C68.6155 0.335141 64.4215 4.35683 64.4215 9.55152V464.338C64.4215 469.365 68.4477 473.554 73.6483 473.554H397.596C402.629 473.554 406.823 469.533 406.823 464.338V9.55152C406.823 4.5244 402.796 0.335141 397.596 0.335141H73.6483Z" fill="#EBEBEB"/>
<path d="M760.463 473.889H436.516C431.315 473.889 426.953 469.533 426.953 464.338V9.55152C426.953 4.35683 431.315 0 436.516 0H760.463C765.664 0 770.025 4.35683 770.025 9.55152V464.338C770.025 469.7 765.831 473.889 760.463 473.889ZM436.516 0.335141C431.483 0.335141 427.289 4.35683 427.289 9.55152V464.338C427.289 469.365 431.315 473.554 436.516 473.554H760.463C765.496 473.554 769.69 469.533 769.69 464.338V9.55152C769.69 4.5244 765.664 0.335141 760.463 0.335141H436.516Z" fill="#EBEBEB"/>
<path d="M838.808 548.625H0V548.96H838.808V548.625Z" fill="#EBEBEB"/>
<path d="M527.944 195.89H283.516L298.111 29.4922H542.539L527.944 195.89Z" fill="#F5F5F5"/>
<path d="M444.735 166.395H312.035V167.735H444.735V166.395Z" fill="#E0E0E0"/>
<path d="M447.585 142.268H313.711V141.598L321.763 49.6016H455.637V50.2718L447.585 142.268ZM315.053 140.927H446.243L454.127 50.7746H322.938L315.053 140.927Z" fill="#E0E0E0"/>
<path d="M319.079 186.172H315.389C313.879 186.172 312.537 185.501 311.53 184.496C310.524 183.49 310.02 181.982 310.188 180.474L310.524 176.788C310.859 173.771 313.543 171.258 316.563 171.258H320.254C321.764 171.258 323.106 171.928 324.112 172.934C325.119 173.939 325.622 175.447 325.454 176.955L325.119 180.642C324.951 183.658 322.267 186.172 319.079 186.172ZM316.731 172.598C314.382 172.598 312.201 174.609 312.033 176.955L311.698 180.642C311.53 181.815 311.866 182.82 312.704 183.658C313.376 184.496 314.55 184.831 315.556 184.831H319.247C321.596 184.831 323.777 182.82 323.945 180.474L324.28 176.788C324.448 175.615 324.112 174.609 323.273 173.771C322.602 172.934 321.428 172.598 320.422 172.598H316.731Z" fill="#E0E0E0"/>
<path d="M379.811 158.69H312.203L312.874 151.484H380.482L379.811 158.69ZM313.713 157.349H378.637L378.972 152.825H314.048L313.713 157.349Z" fill="#E0E0E0"/>
<path d="M443.893 182.315H417.051L417.722 175.109H444.564L443.893 182.315ZM418.393 180.974H442.718L443.054 176.45H418.728L418.393 180.974Z" fill="#E0E0E0"/>
<path d="M446.077 158.69H438.863L439.534 151.484H446.748L446.077 158.69ZM440.373 157.349H444.903L445.238 152.825H440.709L440.373 157.349Z" fill="#E0E0E0"/>
<path d="M436.179 158.69H428.965L429.636 151.484H436.85L436.179 158.69ZM430.475 157.349H435.004L435.34 152.825H430.81L430.475 157.349Z" fill="#E0E0E0"/>
<path d="M426.28 158.69H419.066L419.737 151.484H426.951L426.28 158.69ZM420.576 157.349H425.106L425.441 152.825H420.912L420.576 157.349Z" fill="#E0E0E0"/>
<path d="M456.309 42.563H355.652L356.156 36.1953H456.813L456.309 42.563ZM356.994 41.2224H455.135L455.47 37.5359H357.33L356.994 41.2224Z" fill="#E0E0E0"/>
<path d="M348.939 42.8969H322.098L322.769 35.6914H349.611L348.939 42.8969ZM323.44 41.5564H347.765L348.101 37.032H323.775L323.44 41.5564Z" fill="#E0E0E0"/>
<path d="M519.555 79.5956H472.246L474.595 52.4492H521.904L519.555 79.5956ZM473.588 78.2551H518.213L520.394 53.7898H475.769L473.588 78.2551Z" fill="#E0E0E0"/>
<path d="M515.028 130.537H467.719L470.067 103.391H517.376L515.028 130.537ZM469.229 129.196H513.853L516.034 104.731H471.41L469.229 129.196Z" fill="#E0E0E0"/>
<path d="M510.496 181.478H463.188L465.536 154.332H512.845L510.496 181.478ZM464.697 180.138H509.322L511.503 155.673H466.878L464.697 180.138Z" fill="#E0E0E0"/>
<path d="M520.879 52.4813L472.691 78.3203L473.326 79.5015L521.514 53.6624L520.879 52.4813Z" fill="#E0E0E0"/>
<path d="M518.551 79.4281L474.766 53.6222L475.437 52.4492L519.222 78.4226L518.551 79.4281Z" fill="#E0E0E0"/>
<path d="M516.353 103.504L468.133 129.277L468.766 130.459L516.986 104.686L516.353 103.504Z" fill="#E0E0E0"/>
<path d="M471.117 103.479L470.434 104.633L514.184 130.487L514.868 129.333L471.117 103.479Z" fill="#E0E0E0"/>
<path d="M463.188 181.98L465.704 153.828L488.184 167.066L512.006 154.331L512.677 155.504L489.526 167.904L510.328 180.304L509.657 181.477L488.184 168.742L463.188 181.98ZM466.878 156.007L464.865 179.634L486.842 167.904L466.878 156.007Z" fill="#E0E0E0"/>
<path d="M454.596 49.5696L314.012 140.996L314.744 142.119L455.328 50.693L454.596 49.5696Z" fill="#E0E0E0"/>
<path d="M322.764 49.5371L321.969 50.6172L446.456 142.028L447.251 140.948L322.764 49.5371Z" fill="#E0E0E0"/>
<path d="M624.912 549.63H490.367L509.324 333.129H643.869L624.912 549.63Z" fill="#F5F5F5"/>
<path d="M534.319 539.91H501.605L503.619 516.953H536.332L534.319 539.91ZM503.115 538.57H533.145L534.99 518.294H504.961L503.115 538.57Z" fill="#E0E0E0"/>
<path d="M574.245 539.91H541.531L543.544 516.953H576.258L574.245 539.91ZM542.873 538.57H572.903L574.748 518.294H544.719L542.873 538.57Z" fill="#E0E0E0"/>
<path d="M614.174 539.91H581.461L583.474 516.953H616.188L614.174 539.91ZM582.803 538.57H612.832L614.678 518.294H584.648L582.803 538.57Z" fill="#E0E0E0"/>
<path d="M618.367 484.277H507.141V485.618H618.367V484.277Z" fill="#E0E0E0"/>
<path d="M582.804 453.277H509.324L509.995 444.73H583.475L582.804 453.277ZM510.834 451.936H581.629L582.133 446.071H511.337L510.834 451.936Z" fill="#E0E0E0"/>
<path d="M617.025 507.402H586.492L587.163 499.023H617.696L617.025 507.402ZM587.834 506.061H615.683L616.186 500.364H588.338L587.834 506.061Z" fill="#E0E0E0"/>
<path d="M619.876 474.559H608.301L609.307 462.996H620.883L619.876 474.559ZM609.643 473.218H618.534L619.373 464.337H610.482L609.643 473.218Z" fill="#E0E0E0"/>
<path d="M569.38 474.559H557.805L558.811 462.996H570.387L569.38 474.559ZM559.315 473.218H568.206L569.045 464.337H560.153L559.315 473.218Z" fill="#E0E0E0"/>
<path d="M519.052 474.559H507.477L508.483 462.996H520.059L519.052 474.559ZM508.819 473.218H517.71L518.549 464.337H509.657L508.819 473.218Z" fill="#E0E0E0"/>
<path d="M552.774 353.237H518.215L519.054 344.355H553.613L552.774 353.237ZM519.557 351.896H551.599L552.103 345.696H520.06L519.557 351.896Z" fill="#E0E0E0"/>
<path d="M515.36 509.58H512.508C510.327 509.58 508.314 508.742 506.972 507.234C505.63 505.726 504.959 503.715 505.127 501.537L505.462 498.688C505.798 494.331 509.824 490.645 514.186 490.645H517.038C519.219 490.645 521.232 491.482 522.574 492.991C523.916 494.499 524.587 496.51 524.419 498.688L524.084 501.537C523.748 506.061 519.722 509.58 515.36 509.58ZM514.018 491.985C510.327 491.985 506.972 495.001 506.637 498.688L506.301 501.537C506.133 503.38 506.637 505.056 507.811 506.229C508.985 507.402 510.495 508.239 512.341 508.239H515.193C518.883 508.239 522.239 505.223 522.574 501.537L522.91 498.688C523.077 496.845 522.574 495.169 521.4 493.996C520.225 492.823 518.716 491.985 516.87 491.985H514.018Z" fill="#E0E0E0"/>
<path d="M622.897 437.694H510.664V437.024L517.375 359.941H629.607V360.612L622.897 437.694ZM512.006 436.354H621.554L628.097 361.114H518.549L512.006 436.354Z" fill="#E0E0E0"/>
<path d="M518.475 359.912L517.68 360.992L621.892 437.515L622.687 436.435L518.475 359.912Z" fill="#E0E0E0"/>
<path d="M511.671 437.524L511 436.519L627.93 360.609L628.601 361.782L511.671 437.524Z" fill="#E0E0E0"/>
<path d="M533.315 539.915L503.789 518.13L504.628 517.125L534.154 538.742L533.315 539.915Z" fill="#E0E0E0"/>
<path d="M535.272 517.117L501.953 538.785L502.685 539.909L536.004 518.24L535.272 517.117Z" fill="#E0E0E0"/>
<path d="M573.241 539.915L543.715 518.13L544.554 517.125L574.08 538.742L573.241 539.915Z" fill="#E0E0E0"/>
<path d="M575.205 517.074L541.891 538.75L542.623 539.873L575.938 518.197L575.205 517.074Z" fill="#E0E0E0"/>
<path d="M613.167 539.915L583.641 518.13L584.312 517.125L613.838 538.742L613.167 539.915Z" fill="#E0E0E0"/>
<path d="M614.982 517.14L581.668 538.816L582.4 539.94L615.715 518.264L614.982 517.14Z" fill="#E0E0E0"/>
<path d="M665.678 79.597C665.678 75.7428 665.174 72.0563 664 68.5373L673.73 59.9912L667.691 49.4343L655.444 53.6235C650.411 48.2613 643.869 44.4072 636.319 42.5639L633.803 29.9961H621.724L619.208 42.5639C611.826 44.2396 605.116 48.2613 600.083 53.6235L587.836 49.4343L581.797 59.9912L591.527 68.5373C590.521 72.0563 589.849 75.7428 589.849 79.597C589.849 83.4511 590.353 87.1376 591.527 90.6566L581.797 99.2027L587.836 109.76L600.083 105.57C605.116 110.933 611.658 114.787 619.208 116.63L621.724 129.198H633.803L636.319 116.63C643.701 114.954 650.411 110.933 655.444 105.57L667.691 109.76L673.73 99.2027L664 90.6566C665.007 87.1376 665.678 83.4511 665.678 79.597ZM627.764 100.041C616.859 100.041 608.135 91.1593 608.135 80.4348C608.135 69.5427 617.027 60.8291 627.764 60.8291C638.668 60.8291 647.392 69.7103 647.392 80.4348C647.392 91.1593 638.668 100.041 627.764 100.041Z" fill="#EBEBEB"/>
<path d="M249.461 397.979C252.649 391.779 254.997 385.412 256.172 378.876L278.987 373.347L278.149 351.227L254.997 347.541C251.474 334.638 244.093 322.74 233.692 313.691L240.402 291.237L220.774 280.848L206.011 298.945C192.59 295.426 178.666 296.097 165.916 300.453L149.811 283.529L131.022 295.259L139.41 317.043C134.712 321.735 130.686 327.265 127.499 333.297C124.311 339.497 121.963 345.865 120.788 352.4L97.9727 357.93L98.8115 380.049L121.963 383.736C125.486 396.639 132.867 408.536 143.268 417.585L136.558 440.04L156.186 450.429L170.949 432.331C184.37 435.85 198.294 435.18 211.044 430.823L227.149 447.748L245.938 436.018L237.55 414.234C242.248 409.709 246.274 404.18 249.461 397.979ZM171.117 398.817C153.669 389.601 146.959 367.817 156.186 350.389C165.413 332.962 187.054 326.092 204.669 335.476C222.116 344.692 228.994 366.476 219.6 383.904C210.205 401.331 188.564 408.034 171.117 398.817Z" fill="#EBEBEB"/>
<path d="M664.334 339.161L677.42 346.366C678.091 346.701 678.594 347.037 678.762 347.372C678.929 347.707 679.097 348.042 679.097 348.545C679.097 349.047 678.929 349.55 678.426 350.053C678.091 350.388 677.587 350.723 676.916 350.723C676.581 350.723 676.078 350.556 675.239 350.053L658.295 340.669C657.12 339.999 657.12 338.323 658.295 337.82L675.239 328.436C675.91 328.101 676.413 327.934 676.749 327.934C677.252 327.934 677.755 328.101 678.258 328.604C678.594 328.939 678.93 329.442 678.93 330.112C678.93 330.615 678.762 330.95 678.594 331.285C678.426 331.62 677.923 331.955 677.252 332.29L664.334 339.161Z" fill="#EBEBEB"/>
<path d="M698.221 325.589L685.135 353.574C684.8 354.244 684.464 354.747 684.297 354.914C683.961 355.249 683.458 355.249 683.122 355.249C682.619 355.249 682.116 355.082 681.612 354.579C681.277 354.244 680.941 353.741 680.941 353.238C680.941 352.903 681.109 352.401 681.445 351.73L694.53 323.746C694.866 323.076 695.201 322.573 695.369 322.405C695.704 322.07 696.208 322.07 696.543 322.07C697.047 322.07 697.55 322.238 698.053 322.573C698.389 322.908 698.724 323.411 698.724 323.914C698.556 324.416 698.556 324.919 698.221 325.589Z" fill="#EBEBEB"/>
<path d="M714.493 339.164L701.408 331.958C700.737 331.623 700.234 331.288 700.066 330.953C699.898 330.618 699.73 330.283 699.73 329.78C699.73 329.277 699.898 328.775 700.402 328.272C700.737 327.937 701.24 327.602 701.911 327.602C702.247 327.602 702.75 327.769 703.421 328.104L720.365 337.488C721.539 338.158 721.539 339.834 720.365 340.337L703.421 349.721C702.75 350.056 702.247 350.391 701.911 350.391C701.408 350.391 700.905 350.224 700.402 349.721C700.066 349.386 699.73 348.883 699.73 348.213C699.73 347.71 699.898 347.375 700.066 347.04C700.234 346.705 700.737 346.369 701.408 346.034L714.493 339.164Z" fill="#EBEBEB"/>
<path d="M411.352 617.832C591.005 617.832 736.642 609.354 736.642 598.896C736.642 588.439 591.005 579.961 411.352 579.961C231.7 579.961 86.0625 588.439 86.0625 598.896C86.0625 609.354 231.7 617.832 411.352 617.832Z" fill="#F5F5F5"/>
<path d="M190.409 220.187H128.337C125.485 220.187 122.969 219.014 121.123 217.003C119.278 214.992 118.439 212.311 118.607 209.462L131.525 61.1624C132.028 55.2974 137.228 50.6055 142.932 50.6055H159.037C160.547 50.6055 161.722 51.7785 161.722 53.2866V53.7893C161.889 55.8002 163.399 57.4759 165.58 57.4759H180.846C183.027 57.4759 185.04 55.8002 185.544 53.6217L185.712 53.119C186.047 51.6109 187.389 50.6055 188.731 50.6055H204.836C207.688 50.6055 210.205 51.7785 212.05 53.7893C213.895 55.8002 214.734 58.4813 214.567 61.33L201.649 209.63C201.481 215.495 196.28 220.187 190.409 220.187ZM143.1 52.4487C138.067 52.4487 133.705 56.4704 133.37 61.4976L120.452 209.797C120.285 212.143 120.956 214.322 122.465 215.998C123.975 217.673 126.156 218.511 128.505 218.511H190.577C195.609 218.511 199.971 214.489 200.307 209.462L213.224 61.1624C213.392 58.8164 212.721 56.638 211.211 54.9623C209.701 53.2866 207.521 52.4487 205.172 52.4487H189.067C188.396 52.4487 187.725 52.9515 187.725 53.6217L187.557 54.1244C186.886 56.9731 184.202 59.3191 181.182 59.3191H165.916C162.896 59.3191 160.547 56.9731 160.38 53.9569V53.4542C160.38 52.7839 159.876 52.4487 159.373 52.4487H143.1Z" fill="#7981EC"/>
<path d="M212.888 74.0664H131.355V75.7421H212.888V74.0664Z" fill="#7981EC"/>
<path d="M205.172 50.7734H189.066V52.4491H205.172V50.7734Z" fill="#7981EC"/>
<path d="M190.074 143.274H142.43L146.624 95.6836H194.268L190.074 143.274ZM144.275 141.598H188.564L192.423 97.3593H148.134L144.275 141.598Z" fill="#7981EC"/>
<path d="M190.576 197.064H132.195L133.705 179.469H192.086L190.576 197.064ZM134.041 195.388H189.066L190.241 181.144H135.383L134.041 195.388Z" fill="#7981EC"/>
<path d="M152.159 167.738C150.817 167.738 149.643 167.236 148.636 166.23C147.797 165.225 147.294 164.052 147.462 162.711C147.63 160.03 150.146 157.852 152.83 157.852C154.172 157.852 155.347 158.354 156.353 159.36C157.192 160.365 157.695 161.538 157.528 162.879C157.36 165.56 154.843 167.738 152.159 167.738ZM152.998 159.36C151.153 159.36 149.475 160.868 149.307 162.711C149.307 163.549 149.475 164.387 149.978 165.057C150.482 165.727 151.32 166.063 152.159 166.063C154.005 166.063 155.682 164.554 155.85 162.711C155.85 161.873 155.682 161.035 155.179 160.365C154.508 159.695 153.837 159.36 152.998 159.36Z" fill="#7981EC"/>
<path d="M164.237 167.738C162.895 167.738 161.721 167.236 160.714 166.23C159.875 165.225 159.372 164.052 159.54 162.711C159.708 160.03 162.224 157.852 164.908 157.852C166.25 157.852 167.425 158.354 168.431 159.36C169.27 160.365 169.773 161.538 169.606 162.879C169.438 165.56 166.921 167.738 164.237 167.738ZM164.908 159.36C163.063 159.36 161.385 160.868 161.218 162.711C161.218 163.549 161.385 164.387 161.889 165.057C162.392 165.727 163.231 166.063 164.07 166.063C165.915 166.063 167.593 164.554 167.76 162.711C167.76 161.873 167.593 161.035 167.089 160.365C166.586 159.695 165.915 159.36 164.908 159.36Z" fill="#7981EC"/>
<path d="M176.315 167.738C174.973 167.738 173.799 167.236 172.792 166.23C171.954 165.225 171.45 164.052 171.618 162.711C171.786 160.03 174.302 157.852 176.986 157.852C178.329 157.852 179.503 158.354 180.509 159.36C181.348 160.365 181.852 161.538 181.684 162.879C181.516 165.56 179 167.738 176.315 167.738ZM176.986 159.36C175.141 159.36 173.463 160.868 173.296 162.711C173.296 163.549 173.463 164.387 173.967 165.057C174.47 165.727 175.309 166.063 176.148 166.063C177.993 166.063 179.671 164.554 179.838 162.711C179.838 161.873 179.671 161.035 179.167 160.365C178.664 159.695 177.993 159.36 176.986 159.36Z" fill="#7981EC"/>
<path d="M675.743 388.094H594.211V389.769H675.743V388.094Z" fill="#7981EC"/>
<path d="M653.432 534.214H591.36C588.509 534.214 585.992 533.041 584.147 531.03C582.301 529.019 581.463 526.338 581.63 523.49L594.548 375.19C595.051 369.325 600.252 364.633 605.956 364.633H622.061C623.571 364.633 624.745 365.806 624.745 367.314V367.817C624.913 369.827 626.423 371.503 628.604 371.503H643.87C646.051 371.503 648.064 369.827 648.567 367.649L648.735 367.146C649.07 365.806 650.413 364.633 651.755 364.633H667.86C670.712 364.633 673.228 365.806 675.073 367.817C676.919 369.827 677.758 372.509 677.59 375.357L664.672 523.657C664.337 529.522 659.304 534.214 653.432 534.214ZM605.956 366.476C600.923 366.476 596.561 370.498 596.226 375.525L583.308 523.825C583.14 526.171 583.811 528.349 585.321 530.025C586.831 531.701 589.012 532.538 591.36 532.538H653.432C658.465 532.538 662.827 528.517 663.162 523.49L676.08 375.19C676.248 372.844 675.577 370.665 674.067 368.99C672.557 367.314 670.376 366.476 668.028 366.476H651.922C651.251 366.476 650.58 366.979 650.58 367.649L650.413 368.152C649.742 371 647.057 373.346 644.038 373.346H628.771C625.752 373.346 623.403 371 623.235 368.152V367.649C623.235 366.979 622.732 366.644 622.229 366.644H605.956V366.476Z" fill="#7981EC"/>
<path d="M663.834 411.383H602.601C601.259 411.383 600.084 410.88 599.246 409.875C598.407 408.87 597.903 407.697 598.071 406.356C598.239 403.675 600.588 401.664 603.272 401.664H664.505C665.847 401.664 667.021 402.167 667.86 403.172C668.699 404.178 669.202 405.351 669.034 406.691C668.867 409.205 666.518 411.383 663.834 411.383ZM603.272 403.34C601.426 403.34 599.917 404.848 599.749 406.524C599.749 407.361 599.917 408.199 600.42 408.702C600.923 409.205 601.762 409.54 602.601 409.54H663.834C665.679 409.54 667.189 408.032 667.357 406.356C667.357 405.518 667.189 404.68 666.686 404.178C666.182 403.675 665.344 403.34 664.505 403.34H603.272Z" fill="#7981EC"/>
<path d="M662.49 427.305H601.257C599.915 427.305 598.741 426.802 597.902 425.797C597.063 424.791 596.56 423.618 596.727 422.278C596.895 419.597 599.244 417.586 601.928 417.586H663.161C664.503 417.586 665.677 418.089 666.516 419.094C667.355 420.1 667.858 421.272 667.691 422.613C667.355 425.127 665.006 427.305 662.49 427.305ZM601.928 419.262C600.083 419.262 598.573 420.77 598.405 422.445C598.405 423.283 598.573 424.121 599.076 424.624C599.579 425.127 600.418 425.462 601.257 425.462H662.49C664.335 425.462 665.845 423.954 666.013 422.278C666.013 421.44 665.845 420.602 665.342 420.099C664.839 419.597 664 419.262 663.161 419.262H601.928Z" fill="#7981EC"/>
<path d="M660.982 443.223H599.749C598.407 443.223 597.233 442.72 596.394 441.715C595.555 440.709 595.052 439.536 595.22 438.196C595.387 435.515 597.736 433.504 600.42 433.504H661.653C662.995 433.504 664.17 434.007 665.008 435.012C665.847 436.017 666.351 437.19 666.183 438.531C666.015 441.212 663.666 443.223 660.982 443.223ZM600.42 435.347C598.575 435.347 597.065 436.855 596.897 438.531C596.897 439.369 597.065 440.207 597.568 440.709C598.072 441.212 598.91 441.547 599.749 441.547H660.982C662.828 441.547 664.337 440.039 664.505 438.363C664.505 437.526 664.337 436.688 663.834 436.185C663.331 435.682 662.492 435.347 661.653 435.347H600.42Z" fill="#7981EC"/>
<path d="M657.291 486.957H596.058C594.716 486.957 593.541 486.455 592.703 485.449C591.864 484.444 591.36 483.271 591.528 481.93C591.696 479.249 594.045 477.238 596.729 477.238H657.962C659.304 477.238 660.478 477.741 661.317 478.746C662.156 479.752 662.659 480.925 662.491 482.265C662.156 484.947 659.807 486.957 657.291 486.957ZM596.561 479.082C594.716 479.082 593.206 480.59 593.038 482.265C593.038 483.103 593.206 483.941 593.709 484.444C594.212 484.947 595.051 485.282 595.89 485.282H657.123C658.968 485.282 660.478 483.774 660.646 482.098C660.646 481.26 660.478 480.422 659.975 479.919C659.472 479.417 658.633 479.082 657.794 479.082H596.561Z" fill="#7981EC"/>
<path d="M655.779 502.879H594.546C593.204 502.879 592.03 502.377 591.191 501.371C590.352 500.366 589.849 499.193 590.017 497.852C590.184 495.171 592.533 493.16 595.217 493.16H656.45C657.792 493.16 658.966 493.663 659.805 494.668C660.644 495.674 661.147 496.847 660.98 498.187C660.812 500.868 658.463 502.879 655.779 502.879ZM595.217 495.003C593.372 495.003 591.862 496.512 591.694 498.187C591.694 499.025 591.862 499.863 592.365 500.366C592.868 500.868 593.707 501.204 594.546 501.204H655.779C657.624 501.204 659.134 499.695 659.302 498.02C659.302 497.182 659.134 496.344 658.631 495.841C658.128 495.339 657.289 495.003 656.45 495.003H595.217Z" fill="#7981EC"/>
<path d="M654.439 518.965H593.206C591.864 518.965 590.69 518.462 589.851 517.457C589.012 516.452 588.509 515.279 588.677 513.938C588.844 511.257 591.193 509.246 593.877 509.246H655.11C656.452 509.246 657.627 509.749 658.465 510.754C659.304 511.76 659.808 512.933 659.64 514.273C659.304 516.787 657.123 518.965 654.439 518.965ZM593.877 510.922C592.032 510.922 590.522 512.43 590.354 514.106C590.354 514.943 590.522 515.781 591.025 516.284C591.529 516.787 592.367 517.122 593.206 517.122H654.439C656.285 517.122 657.794 515.614 657.962 513.938C657.962 513.1 657.794 512.262 657.291 511.76C656.788 511.257 655.949 510.922 655.11 510.922H593.877Z" fill="#7981EC"/>
<path d="M693.862 232.921H631.79C628.938 232.921 626.422 231.748 624.576 229.737C622.731 227.727 621.892 225.045 622.06 222.197L634.978 73.8968C635.481 68.0318 640.682 63.3398 646.385 63.3398H662.491C664 63.3398 665.175 64.5128 665.175 66.021V66.5237C665.343 68.5345 666.852 70.2102 669.033 70.2102H684.3C686.48 70.2102 688.494 68.5345 688.997 66.3561L689.165 65.8534C689.5 64.3453 690.842 63.3398 692.184 63.3398H708.29C711.141 63.3398 713.658 64.5128 715.503 66.5237C717.349 68.5345 718.187 71.2157 718.02 74.0644L705.102 222.364C704.766 228.062 699.566 232.921 693.862 232.921ZM646.385 65.1831C641.353 65.1831 636.991 69.2048 636.655 74.2319L623.738 222.532C623.57 224.878 624.241 227.056 625.751 228.732C627.261 230.408 629.442 231.245 631.79 231.245H693.862C698.895 231.245 703.257 227.224 703.592 222.197L716.51 73.8968C716.678 71.5508 716.007 69.3724 714.497 67.6967C712.987 66.021 710.806 65.1831 708.457 65.1831H692.352C691.681 65.1831 691.01 65.6858 691.01 66.3561L690.842 66.8588C690.171 69.7075 687.487 72.0535 684.467 72.0535H669.201C666.181 72.0535 663.833 69.7075 663.665 66.8588V66.3561C663.665 65.6858 663.162 65.3507 662.658 65.3507H646.385V65.1831Z" fill="#7981EC"/>
<path d="M716.173 86.8008H634.641V88.4765H716.173V86.8008Z" fill="#7981EC"/>
<path d="M697.719 215.492H631.621L635.815 167.902H701.913L697.719 215.492ZM633.634 213.817H696.209L700.068 169.578H637.493L633.634 213.817Z" fill="#7981EC"/>
<path d="M637.141 168.077L636.125 169.41L696.462 215.287L697.478 213.954L637.141 168.077Z" fill="#7981EC"/>
<path d="M700.466 168.103L632.09 213.98L633.025 215.371L701.401 169.494L700.466 168.103Z" fill="#7981EC"/>
<path d="M706.446 116.962H640.348L641.857 99.3672H707.956L706.446 116.962ZM642.193 115.286H704.936L706.11 101.043H643.367L642.193 115.286Z" fill="#7981EC"/>
<path d="M706.82 99.2818L641.125 115.246L641.522 116.874L707.216 100.91L706.82 99.2818Z" fill="#7981EC"/>
<path d="M642.901 99.3953L642.488 101.02L705.419 116.973L705.832 115.348L642.901 99.3953Z" fill="#7981EC"/>
<path d="M704.43 139.919H638.332L639.842 122.324H705.94L704.43 139.919ZM640.177 138.243H702.92L704.095 124H641.352L640.177 138.243Z" fill="#7981EC"/>
<path d="M704.792 122.246L639.098 138.203L639.494 139.831L705.189 123.874L704.792 122.246Z" fill="#7981EC"/>
<path d="M640.952 122.18L640.539 123.805L703.47 139.758L703.882 138.133L640.952 122.18Z" fill="#7981EC"/>
<path d="M702.418 162.872H636.32L637.83 145.277H703.928L702.418 162.872ZM638.166 161.197H700.909L702.083 146.953H639.34L638.166 161.197Z" fill="#7981EC"/>
<path d="M702.804 145.196L637.109 161.16L637.506 162.788L703.201 146.824L702.804 145.196Z" fill="#7981EC"/>
<path d="M638.803 145.083L638.391 146.707L701.321 162.66L701.734 161.036L638.803 145.083Z" fill="#7981EC"/>
<path d="M684.299 308.998C669.536 308.998 657.457 296.932 657.457 282.186C657.457 267.44 669.536 255.375 684.299 255.375C699.062 255.375 711.141 267.44 711.141 282.186C711.141 297.1 699.062 308.998 684.299 308.998ZM684.299 257.218C670.375 257.218 659.135 268.446 659.135 282.354C659.135 296.262 670.375 307.489 684.299 307.489C698.223 307.489 709.463 296.262 709.463 282.354C709.463 268.446 698.055 257.218 684.299 257.218Z" fill="#7981EC"/>
<path d="M679.602 297.772L667.02 281.183L668.362 280.177L678.931 294.086C683.796 278.669 693.694 264.928 706.947 255.544L710.638 252.863L711.644 254.204L707.953 256.885C694.532 266.437 684.634 280.345 680.105 296.096L679.602 297.772Z" fill="#7981EC"/>
<path d="M498.587 88.4766H454.969L411.016 590.015H454.634C474.765 590.015 492.548 573.593 494.393 553.485L531.972 125.007C533.649 104.898 518.719 88.4766 498.587 88.4766Z" fill="#24285B"/>
<path d="M445.741 590.015H266.236C246.104 590.015 231.174 573.593 232.851 553.485L270.43 125.007C272.275 104.898 290.058 88.4766 310.189 88.4766H489.694C509.826 88.4766 524.756 104.898 523.079 125.007L485.5 553.485C483.655 573.761 465.872 590.015 445.741 590.015Z" fill="#7981EC"/>
<path d="M488.856 96.8555H442.218C439.199 96.8555 436.347 99.2015 435.676 102.218L435.34 103.726C433.83 111.099 426.952 116.629 419.571 116.629H375.281C367.9 116.629 362.028 111.099 361.693 103.726V102.218C361.525 99.2015 359.176 96.8555 356.157 96.8555H309.519C293.917 96.8555 280.161 109.423 278.819 125.007L241.24 553.485C239.898 569.069 251.306 581.637 266.908 581.637H446.412C462.014 581.637 475.771 569.069 477.113 553.485L514.691 125.007C515.866 109.591 504.458 96.8555 488.856 96.8555Z" fill="white"/>
<g opacity="0.2">
<path opacity="0.2" d="M387.865 101.714C387.697 103.725 386.019 105.233 384.006 105.233C381.993 105.233 380.651 103.557 380.819 101.714C380.987 99.7033 382.664 98.1952 384.677 98.1952C386.523 98.0276 388.033 99.7033 387.865 101.714Z" fill="black"/>
<path opacity="0.2" d="M413.532 98.0273C412.19 98.0273 402.795 98.0273 401.285 98.0273C399.272 98.0273 397.595 99.703 397.427 101.546C397.259 103.557 398.769 105.065 400.614 105.065C401.789 105.065 411.687 105.065 412.861 105.065C414.874 105.065 416.552 103.39 416.719 101.546C416.887 99.703 415.377 98.0273 413.532 98.0273Z" fill="black"/>
</g>
<path d="M299.117 116.46H302.808L303.143 112.773H299.285L299.117 116.46Z" fill="#24285B"/>
<path d="M306.836 112.776L306.668 116.463H310.359L310.694 112.776L311.03 108.922H307.171L306.836 112.776Z" fill="#24285B"/>
<path d="M315.054 105.234L314.718 108.921L314.383 112.775L314.215 116.462H317.906L318.241 112.775L318.577 108.921L318.912 105.234H315.054Z" fill="#24285B"/>
<path d="M477.446 105.402L477.278 108.251H475.433L474.93 113.781H476.775L476.607 116.63H493.216L494.222 105.57H477.446V105.402ZM484.157 113.781H478.62L479.124 108.251H484.66L484.157 113.781Z" fill="#24285B"/>
<path opacity="0.8" d="M469.899 404.348H227.148L247.615 171.09H490.366L469.899 404.348Z" fill="#24285B"/>
<path d="M463.528 397.313H220.777L241.076 164.055H483.827L463.528 397.313Z" fill="#7981EC"/>
<g opacity="0.8">
<path opacity="0.8" d="M463.528 397.313H220.777L241.076 164.055H483.827L463.528 397.313Z" fill="white"/>
<path opacity="0.8" d="M464.198 398.149H219.77V397.311L240.236 163.383H484.833L464.198 398.149ZM221.615 396.473H462.688L482.987 164.891H241.914L221.615 396.473Z" fill="#7981EC"/>
</g>
<path opacity="0.8" d="M449.939 333.133H245.438L258.523 183.828H463.024L449.939 333.133Z" fill="white"/>
<path d="M450.777 333.969H244.598L257.851 182.988H464.03L450.777 333.969ZM246.443 332.294H449.267L462.184 184.664H259.361L246.443 332.294Z" fill="#7981EC"/>
<path d="M259.134 183.179L258.102 184.5L449.594 333.798L450.627 332.477L259.134 183.179Z" fill="#7981EC"/>
<path d="M462.489 183.082L244.992 332.379L245.942 333.76L463.44 184.464L462.489 183.082Z" fill="#7981EC"/>
<path d="M324.786 354.915C324.451 359.105 320.592 362.624 316.398 362.624C312.204 362.624 309.017 359.105 309.352 354.915C309.688 350.726 313.546 347.207 317.74 347.207C321.934 347.207 325.122 350.726 324.786 354.915Z" fill="#7981EC"/>
<path d="M353.474 354.915C353.138 359.105 349.28 362.624 345.086 362.624C340.892 362.624 337.704 359.105 338.04 354.915C338.375 350.726 342.234 347.207 346.428 347.207C350.79 347.207 353.809 350.726 353.474 354.915Z" fill="#7981EC"/>
<path d="M382.329 354.915C381.994 359.105 378.135 362.624 373.941 362.624C369.747 362.624 366.56 359.105 366.895 354.915C367.231 350.726 371.089 347.207 375.283 347.207C379.477 347.207 382.665 350.726 382.329 354.915Z" fill="#7981EC"/>
<path d="M322.942 528.682H209.199L218.762 419.426H332.504L322.942 528.682Z" fill="#7981EC"/>
<g opacity="0.8">
<path opacity="0.8" d="M322.942 528.682H209.199L218.762 419.426H332.504L322.942 528.682Z" fill="white"/>
<path opacity="0.8" d="M323.611 529.522H208.191L217.922 418.59H333.341L323.611 529.522ZM210.037 527.846H322.101L331.496 420.266H219.431L210.037 527.846Z" fill="#7981EC"/>
</g>
<path d="M316.565 498.518H220.773L226.981 428.641H322.605L316.565 498.518Z" fill="white"/>
<path d="M317.235 499.357H219.766L225.973 427.805H323.442L317.235 499.357ZM221.779 497.682H315.893L321.932 429.48H227.818L221.779 497.682Z" fill="#7981EC"/>
<path d="M227.446 428.031L226.414 429.352L316.077 499.258L317.109 497.937L227.446 428.031Z" fill="#7981EC"/>
<path d="M322.205 428.034L220.301 497.984L221.251 499.365L323.155 429.415L322.205 428.034Z" fill="#7981EC"/>
<path d="M257.85 508.909C257.683 510.92 255.837 512.596 253.992 512.596C252.146 512.596 250.469 510.92 250.637 508.909C250.804 506.898 252.65 505.223 254.495 505.223C256.676 505.223 258.018 506.898 257.85 508.909Z" fill="#7981EC"/>
<path d="M271.437 508.909C271.27 510.92 269.424 512.596 267.579 512.596C265.566 512.596 264.056 510.92 264.224 508.909C264.391 506.898 266.237 505.223 268.082 505.223C270.095 505.223 271.605 506.898 271.437 508.909Z" fill="#7981EC"/>
<path d="M284.859 508.909C284.692 510.92 282.846 512.596 281.001 512.596C278.988 512.596 277.478 510.92 277.646 508.909C277.813 506.898 279.659 505.223 281.504 505.223C283.517 505.223 285.027 506.898 284.859 508.909Z" fill="#7981EC"/>
<path d="M451.95 528.682H338.375L347.937 419.426H461.512L451.95 528.682Z" fill="#7981EC"/>
<g opacity="0.8">
<path opacity="0.8" d="M451.95 528.682H338.375L347.937 419.426H461.512L451.95 528.682Z" fill="white"/>
<path opacity="0.8" d="M452.787 529.522H337.367L347.097 418.59H462.517L452.787 529.522ZM339.213 527.846H451.277L460.672 420.266H348.607L339.213 527.846Z" fill="#7981EC"/>
</g>
<path d="M445.573 498.518H349.949L355.989 428.641H451.78L445.573 498.518Z" fill="white"/>
<path d="M446.411 499.357H348.941L355.149 427.805H452.618L446.411 499.357ZM350.787 497.682H444.901L450.94 429.48H356.826L350.787 497.682Z" fill="#7981EC"/>
<path d="M356.489 428.101L355.457 429.422L445.12 499.328L446.152 498.007L356.489 428.101Z" fill="#7981EC"/>
<path d="M451.373 427.987L349.469 497.938L350.419 499.319L452.323 429.369L451.373 427.987Z" fill="#7981EC"/>
<path d="M387.023 508.909C386.856 510.92 385.01 512.596 383.165 512.596C381.152 512.596 379.642 510.92 379.81 508.909C379.977 506.898 381.823 505.223 383.668 505.223C385.514 505.223 387.191 506.898 387.023 508.909Z" fill="#7981EC"/>
<path d="M400.444 508.909C400.276 510.92 398.431 512.596 396.586 512.596C394.74 512.596 393.063 510.92 393.23 508.909C393.398 506.898 395.243 505.223 397.089 505.223C399.102 505.223 400.612 506.898 400.444 508.909Z" fill="#7981EC"/>
<path d="M413.866 508.909C413.698 510.92 411.853 512.596 410.007 512.596C408.162 512.596 406.484 510.92 406.652 508.909C406.82 506.898 408.665 505.223 410.511 505.223C412.356 505.223 414.201 506.898 413.866 508.909Z" fill="#7981EC"/>
<path d="M449.938 154.501H329.82L331.162 138.414H451.28L449.938 154.501Z" fill="#7981EC"/>
<path d="M316.567 150.812H297.945V152.488H316.567V150.812Z" fill="#24285B"/>
<path d="M317.071 144.613H298.449V146.289H317.071V144.613Z" fill="#24285B"/>
<path d="M317.743 138.246H299.121V139.922H317.743V138.246Z" fill="#24285B"/>
<g opacity="0.2">
<path opacity="0.2" d="M375.284 116.629L251.309 576.777C255.503 579.793 260.871 581.637 266.743 581.637H276.473L401.623 116.461H375.284V116.629Z" fill="white"/>
<path opacity="0.2" d="M488.858 96.8555H442.22C439.201 96.8555 436.349 99.2015 435.678 102.218L435.342 103.726C433.832 110.931 427.29 116.294 420.076 116.629L294.926 581.805H390.382L514.526 120.65C513.687 107.245 502.95 96.8555 488.858 96.8555Z" fill="white"/>
</g>
<path d="M514.021 128.863H278.316V131.377H514.021V128.863Z" fill="#7981EC"/>
<path d="M534.656 189.355C534.824 188.852 535.16 188.35 535.663 188.015C535.998 187.847 536.502 187.679 537.005 187.512C540.36 186.842 543.883 186.171 547.238 187.177C547.406 187.177 547.742 187.344 547.91 187.512C548.077 187.679 548.077 187.847 548.077 188.182C548.413 190.025 548.581 192.036 548.916 193.88C548.916 194.215 549.084 194.717 548.916 195.053C548.748 195.388 548.413 195.723 548.077 196.058C546.4 197.566 539.521 201.755 538.515 202.091C536.837 202.426 531.637 200.75 530.127 200.08C528.281 199.242 533.147 192.371 534.656 189.355Z" fill="#CB7A63"/>
<path d="M496.91 246.83C498.419 234.933 525.094 202.592 528.617 198.067C530.63 195.554 538.682 197.397 540.36 202.257C533.146 212.311 529.12 220.857 524.087 232.252C522.913 234.933 517.544 245.322 515.867 247.668C502.278 266.604 496.239 252.025 496.91 246.83Z" fill="#7981EC"/>
<g opacity="0.1">
<g opacity="0.1">
<path opacity="0.1" d="M496.91 246.83C498.419 234.933 525.094 202.592 528.617 198.067C530.63 195.554 538.682 197.397 540.36 202.257C533.146 212.311 529.12 220.857 524.087 232.252C522.913 234.933 517.544 245.322 515.867 247.668C502.278 266.604 496.239 252.025 496.91 246.83Z" fill="black"/>
</g>
</g>
<path d="M593.374 275.32C593.374 275.32 584.818 275.488 582.301 277.834L578.611 281.018C577.94 281.688 577.772 282.693 578.443 283.531C580.456 285.71 584.818 290.067 589.683 291.742C590.857 292.077 592.032 291.91 592.87 291.24C592.87 291.24 598.742 283.866 597.735 282.358L593.374 275.32Z" fill="#CB7A63"/>
<path d="M615.684 275.989C614.845 276.325 614.174 276.827 613.335 277.162L601.257 281.519C593.036 285.541 592.533 275.487 592.533 275.487L595.888 272.638L618.2 254.205C618.2 254.205 597.398 238.789 583.977 225.886C573.911 214.324 575.254 206.615 587.165 207.956C595.72 208.794 634.809 245.492 638.332 249.346C641.687 253.535 633.802 266.103 615.684 275.989Z" fill="#7981EC"/>
<path opacity="0.1" d="M615.684 275.989C614.845 276.325 614.174 276.827 613.335 277.162L601.257 281.519C593.036 285.541 592.533 275.487 592.533 275.487L595.888 272.638L618.2 254.205C618.2 254.205 597.398 238.789 583.977 225.886C573.911 214.324 575.254 206.615 587.165 207.956C595.72 208.794 634.809 245.492 638.332 249.346C641.687 253.535 633.802 266.103 615.684 275.989Z" fill="black"/>
<path d="M622.057 235.772L621.891 235.605C621.891 235.605 622.057 235.605 622.057 235.772Z" fill="#24285B"/>
<path d="M544.552 160.865C543.881 160.698 543.21 161.535 542.875 162.541C542.707 163.546 543.043 164.552 543.714 164.719C544.385 164.887 545.056 164.049 545.391 163.044C545.727 161.871 545.223 161.033 544.552 160.865Z" fill="#24285B"/>
<path d="M542.705 174.609C540.86 174.777 539.182 174.107 537.84 172.766C540.356 170.42 542.705 167.739 544.55 164.723L542.705 174.609Z" fill="#B74D3C"/>
<path d="M549.92 157.85C548.913 156.677 547.235 156.007 545.726 156.174H545.558C545.222 156.174 544.887 155.839 544.887 155.504C544.887 155.169 545.222 154.834 545.558 154.834C547.571 154.666 549.584 155.336 550.926 156.845C551.094 157.012 551.094 157.18 551.094 157.18C551.094 157.515 550.758 157.85 550.423 157.85C550.255 158.018 550.087 157.85 549.92 157.85Z" fill="#24285B"/>
<path d="M558.14 221.023C576.091 220.855 578.607 210.968 578.607 210.968C573.239 205.941 572.735 196.39 573.742 187.844C572.4 189.855 570.722 191.53 568.541 193.038C564.347 195.887 559.65 196.557 555.456 195.72H555.288C555.288 195.887 555.288 196.055 555.456 196.222C556.63 203.093 555.791 210.298 548.745 212.644C548.578 212.644 538.344 221.358 558.14 221.023Z" fill="#CB7A63"/>
<path d="M554.617 193.207C554.785 194.045 554.953 194.883 555.12 195.72H555.288C559.482 196.726 564.18 196.056 568.374 193.039C570.555 191.531 572.232 189.855 573.574 187.845C573.742 185.666 574.078 183.488 574.581 181.645L555.288 192.704L554.617 193.207Z" fill="#CB7A63"/>
<path d="M580.453 210.301C580.453 210.301 577.769 202.593 573.91 200.079C570.052 197.733 553.275 200.582 550.591 201.755C547.907 202.761 545.391 208.961 545.391 208.961L580.453 210.301Z" fill="#7981EC"/>
<path opacity="0.8" d="M580.453 210.301C580.453 210.301 577.769 202.593 573.91 200.079C570.052 197.733 553.275 200.582 550.591 201.755C547.907 202.761 545.391 208.961 545.391 208.961L580.453 210.301Z" fill="white"/>
<path d="M558.478 595.544C556.8 595.544 555.29 595.376 554.787 594.538C554.451 594.203 554.451 593.7 554.787 593.198C554.955 592.863 555.29 592.528 555.793 592.528C557.806 592.025 562.336 594.371 562.504 594.538C562.672 594.538 562.672 594.706 562.672 594.873C562.672 595.041 562.504 595.041 562.504 595.209C561.162 595.376 559.82 595.544 558.478 595.544ZM556.464 593.198C556.297 593.198 556.129 593.198 555.961 593.198C555.793 593.198 555.458 593.365 555.29 593.7C555.122 594.036 555.122 594.203 555.29 594.371C555.793 595.209 558.981 595.209 561.329 594.873C559.987 593.868 558.31 593.365 556.464 593.198Z" fill="#7981EC"/>
<path d="M562.337 595.209C560.659 594.539 557.639 591.858 557.975 590.35C557.975 590.014 558.31 589.512 559.149 589.512C559.82 589.512 560.324 589.679 560.827 590.014C562.505 591.355 562.672 594.706 562.84 594.874C562.84 595.042 562.84 595.042 562.672 595.209C562.505 595.209 562.337 595.209 562.337 595.209ZM559.317 590.182H559.149C558.646 590.182 558.646 590.517 558.478 590.517C558.311 591.355 560.324 593.533 562.001 594.371C561.834 592.863 561.33 591.523 560.324 590.517C559.988 590.182 559.653 590.182 559.317 590.182Z" fill="#7981EC"/>
<path d="M575.086 565.883H562.504L563.51 594.872H576.093L575.086 565.883Z" fill="#CB7A63"/>
<path d="M560.66 594.373C552.104 599.567 549.42 599.902 539.522 602.081C537.341 602.584 538.684 607.778 543.884 607.778C552.44 607.778 553.447 607.443 560.66 607.276C566.867 607.276 574.081 607.611 579.114 607.611C579.282 607.611 579.45 607.611 579.617 607.611C580.624 607.443 581.127 606.438 580.959 605.432L578.443 594.205C578.275 593.702 577.94 593.367 577.436 593.367H563.68C562.506 593.535 561.499 593.87 560.66 594.373Z" fill="#24285B"/>
<path opacity="0.2" d="M575.086 565.883L575.589 582.137H563.007L562.504 565.883H575.086Z" fill="black"/>
<path d="M668.697 590.35C668.529 588.675 668.529 586.999 669.368 586.496C669.704 586.161 670.375 586.161 670.71 586.329C671.046 586.496 671.381 586.832 671.549 587.167C672.388 589.345 670.207 594.037 670.039 594.372C670.039 594.54 669.871 594.54 669.704 594.54C669.536 594.54 669.536 594.372 669.368 594.372C669.033 593.032 668.697 591.691 668.697 590.35ZM671.046 588.005C671.046 587.837 671.046 587.669 671.046 587.334C671.046 586.999 670.878 586.832 670.542 586.832C670.207 586.664 669.871 586.664 669.871 586.832C669.033 587.502 669.368 590.853 670.039 593.199C670.542 591.691 670.878 589.848 671.046 588.005Z" fill="#7981EC"/>
<path d="M669.367 594.203C669.87 592.527 672.387 589.176 673.897 589.176C674.232 589.176 674.736 589.343 674.903 590.181C675.071 590.851 674.903 591.522 674.568 592.024C673.393 593.868 669.87 594.37 669.703 594.538C669.535 594.538 669.535 594.538 669.367 594.37C669.367 594.37 669.367 594.37 669.367 594.203ZM674.4 590.684V590.516C674.4 590.014 674.064 590.014 674.064 590.014C673.226 590.014 671.213 592.192 670.374 593.868C671.884 593.533 673.226 592.862 674.232 591.857C674.232 591.354 674.4 591.019 674.4 590.684Z" fill="#7981EC"/>
<path d="M660.477 565.715L648.23 566.553L655.444 595.71L667.691 594.872L660.477 565.715Z" fill="#CB7A63"/>
<path d="M670.708 592.528C674.567 596.382 676.58 598.225 686.813 600.571C689.162 601.074 687.652 606.436 682.116 606.436C673.225 606.269 678.09 605.934 670.373 605.934C663.83 605.934 658.126 605.934 652.926 605.934C652.758 605.934 652.59 605.934 652.422 605.934C651.416 605.766 650.745 604.593 650.912 603.588L653.597 592.025C653.764 591.523 654.1 591.188 654.771 591.188L667.353 591.523C668.695 591.355 669.869 591.858 670.708 592.528Z" fill="#24285B"/>
<path opacity="0.2" d="M660.477 565.715L664.168 580.796L651.921 581.634L648.23 566.553L660.477 565.715Z" fill="black"/>
<path d="M594.213 311.847C594.213 311.847 601.091 322.404 605.788 335.14C612.499 353.237 610.15 362.789 612.331 375.021C616.357 396.638 622.229 413.227 626.423 429.649C639.34 480.926 666.686 572.084 666.686 572.084L644.541 576.944C644.541 576.944 603.607 468.191 591.864 431.493C581.463 398.481 554.453 311.68 554.453 311.68L594.213 311.847Z" fill="#7981EC"/>
<path opacity="0.4" d="M594.213 311.847C594.213 311.847 601.091 322.404 605.788 335.14C612.499 353.237 610.15 362.789 612.331 375.021C616.357 396.638 622.229 413.227 626.423 429.649C639.34 480.926 666.686 572.084 666.686 572.084L644.541 576.944C644.541 576.944 603.607 468.191 591.864 431.493C581.463 398.481 554.453 311.68 554.453 311.68L594.213 311.847Z" fill="black"/>
<path d="M669.2 568.062L669.367 575.938L642.693 578.787C642.693 578.787 640.345 570.241 640.512 570.241L669.2 568.062Z" fill="#7981EC"/>
<path opacity="0.8" d="M669.2 568.062L669.367 575.938L642.693 578.787C642.693 578.787 640.345 570.241 640.512 570.241L669.2 568.062Z" fill="white"/>
<path opacity="0.3" d="M567.035 351.73C575.591 379.044 586.16 413.396 592.032 431.493C592.367 432.331 592.535 433.337 592.87 434.174C590.69 404.012 584.65 353.238 569.384 351.395C568.545 351.395 567.706 351.395 567.035 351.73Z" fill="black"/>
<path d="M573.744 311.68C573.744 311.68 580.287 394.962 580.958 434.341C581.629 471.039 578.944 577.949 578.944 577.949H557.639C557.639 577.949 547.405 468.861 543.715 431.493C540.192 396.135 530.797 312.35 530.797 312.35L573.744 311.68Z" fill="#7981EC"/>
<path opacity="0.4" d="M573.744 311.68C573.744 311.68 580.287 394.962 580.958 434.341C581.629 471.039 578.944 577.949 578.944 577.949H557.639C557.639 577.949 547.405 468.861 543.715 431.493C540.192 396.135 530.797 312.35 530.797 312.35L573.744 311.68Z" fill="black"/>
<path d="M582.134 570.408L581.463 578.284H555.627L554.453 569.57L582.134 570.408Z" fill="#7981EC"/>
<path opacity="0.8" d="M582.134 570.408L581.463 578.284H555.627L554.453 569.57L582.134 570.408Z" fill="white"/>
<path d="M615.011 338.325L609.14 336.649C599.577 333.968 589.512 333.633 579.781 335.812L572.735 319.892L574.916 336.649H571.897C563.173 336.482 554.449 338.158 546.397 341.844C542.203 343.687 538.344 345.363 538.344 345.195C538.344 344.693 530.795 312.687 530.795 312.687C523.078 260.74 524.42 234.431 526.769 221.696C527.943 214.826 533.311 209.463 540.19 208.123C542.706 207.62 545.726 207.117 548.745 206.95C557.637 206.28 566.696 206.28 575.587 206.615L581.459 207.117C590.854 207.62 600.416 215.496 598.738 224.712C593.034 255.378 592.196 277.832 592.531 292.578L615.011 338.325Z" fill="#7981EC"/>
<path opacity="0.2" d="M525.258 263.42C525.258 263.42 525.09 237.782 525.258 233.09L544.383 220.02C540.86 226.22 532.136 239.793 525.258 263.42Z" fill="black"/>
<path d="M541.532 178.795C541.868 185.33 545.559 190.86 550.591 193.876C551.933 194.714 553.443 195.217 555.121 195.72H555.289C559.483 196.725 564.18 196.055 568.374 193.038C570.555 191.53 572.233 189.855 573.575 187.844C576.93 182.984 578.272 176.449 580.621 167.4C581.292 164.719 581.459 161.87 580.956 159.189C578.943 149.47 569.548 143.27 559.818 145.281C546.397 147.962 541.029 166.73 541.532 178.795Z" fill="#CB7A63"/>
<path opacity="0.2" d="M550.758 193.877C552.1 194.715 553.61 195.218 555.287 195.721L554.616 187.845C554.616 187.51 551.597 193.877 550.758 193.877Z" fill="black"/>
<path d="M596.557 169.58C595.047 171.424 593.202 173.434 590.853 173.602C589.511 173.77 588.001 173.434 586.827 172.932C582.633 180.137 573.741 187.845 573.741 187.845C571.56 188.683 569.212 189.186 566.695 189.186C564.179 189.186 561.83 188.683 559.482 187.845C558.81 187.51 558.139 187.343 558.139 187.343C557.468 187.175 554.113 173.099 549.416 170.921C548.409 170.418 548.409 170.418 548.409 170.418C548.745 168.91 548.242 164.721 549.751 163.38C550.59 162.542 548.409 160.699 548.577 159.191C548.577 159.023 548.577 159.023 548.577 158.856C547.067 157.85 546.899 155.839 547.57 153.829C548.913 148.466 551.932 149.975 551.932 149.975C551.932 149.975 550.422 148.131 550.926 145.115C551.597 142.099 557.301 140.423 557.301 140.423C557.301 140.423 558.139 140.591 559.314 140.758C560.656 139.753 562.333 139.25 564.011 139.25C566.192 139.418 569.044 140.926 570.218 142.769C572.064 141.261 574.58 140.926 576.761 141.596C578.942 142.266 580.787 144.277 581.291 146.456C583.471 145.618 585.652 146.456 587.33 148.131C589.008 149.639 589.679 152.153 589.008 154.331C590.685 154.834 591.692 156.007 591.859 157.85C592.027 159.526 591.692 161.369 591.356 163.045C591.188 164.721 591.188 166.564 592.027 168.072C593.034 169.58 595.047 170.418 596.557 169.58Z" fill="#24285B"/>
<path d="M554.45 162.208C550.759 163.381 548.914 168.91 548.746 172.429C548.578 176.284 551.262 178.797 554.617 176.116C557.134 174.105 558.979 171.256 559.65 168.073C560.489 164.219 558.14 161.035 554.45 162.208Z" fill="#CB7A63"/>
<path d="M522.24 221.023C522.24 221.023 522.24 221.023 498.586 247.835C495.231 255.375 506.639 263.754 514.691 256.381L543.043 223.704C545.056 219.18 545.392 215.493 542.372 212.645C538.513 208.623 531.467 206.109 522.24 221.023Z" fill="#7981EC"/>
<path d="M198.965 272.134C209.869 283.696 216.412 289.561 220.438 292.745C224.8 296.264 262.546 273.307 267.244 270.626C267.244 270.626 263.05 266.437 261.204 266.939C254.662 268.615 225.136 278.669 225.136 278.669C223.794 278.166 210.205 262.75 210.205 262.75L198.965 272.134Z" fill="#B97964"/>
<path d="M272.107 264.761C272.107 264.761 268.752 270.29 264.222 271.631L260.699 268.28L262.209 258.225L262.377 257.555L262.712 257.22L267.41 252.695C268.416 251.69 269.926 251.69 270.933 252.695L274.456 256.047C275.294 256.885 275.462 258.058 274.959 258.896L272.107 264.761Z" fill="#B97964"/>
<path d="M219.265 267.609C209.703 253.869 192.759 244.987 187.894 244.82C181.015 244.652 178.834 246.328 181.351 251.523C185.88 260.404 193.262 269.62 203.328 280.512L219.265 267.609Z" fill="#24285B"/>
<path d="M191.754 245.657C187.728 244.317 186.218 243.646 179.843 242.138C172.462 240.462 165.08 239.122 157.531 238.452C152.834 237.949 148.136 237.781 144.446 237.781C143.942 237.781 143.607 237.781 143.104 237.949C139.748 238.787 137.567 242.138 138.238 245.657C145.62 284.533 145.956 301.793 144.949 321.902L189.741 323.577C190.916 323.577 191.922 322.74 192.09 321.567C194.103 311.512 200.31 289.058 200.31 289.058C206.685 284.533 206.35 279.506 204.672 272.804C204.169 270.793 202.994 268.782 197.794 257.722C197.962 257.387 194.103 246.495 191.754 245.657Z" fill="#24285B"/>
<path d="M163.402 322.404L179.675 323.074C182.192 303.636 180.85 289.225 180.85 267.273C181.017 287.717 169.274 312.35 163.402 322.404Z" fill="white"/>
<path d="M180.513 330.113C180.513 330.113 200.644 429.65 199.638 470.872C198.631 514.273 190.075 589.177 190.075 589.177L179.506 589.01C179.506 589.01 169.944 533.544 175.48 472.883C147.632 411.888 140.418 333.967 140.418 333.967L180.513 330.113Z" fill="#B97964"/>
<path d="M180.513 330.113C180.513 330.113 200.644 429.65 199.638 470.872C198.631 514.273 190.075 589.177 190.075 589.177L179.506 589.01C179.506 589.01 169.944 533.544 175.48 472.883C147.632 411.888 140.418 333.967 140.418 333.967L180.513 330.113Z" fill="#A86955"/>
<path d="M171.454 354.745C171.454 354.745 176.654 432.666 171.286 473.553C165.582 516.618 148.974 590.182 148.974 590.182L138.405 589.009C138.405 589.009 134.882 532.873 146.793 473.05C125.655 409.541 131.023 354.41 131.023 354.41L171.454 354.745Z" fill="#B97964"/>
<path d="M171.454 354.745C171.454 354.745 176.654 432.666 171.286 473.553C165.582 516.618 148.974 590.182 148.974 590.182L138.405 589.009C138.405 589.009 134.882 532.873 146.793 473.05C125.655 409.541 131.023 354.41 131.023 354.41L171.454 354.745Z" fill="#B97964"/>
<path d="M131.359 444.228C137.733 445.569 147.631 448.417 164.408 449.925C164.743 449.925 165.079 449.925 165.414 449.925C166.085 449.925 166.924 450.093 167.595 450.093C172.125 450.261 202.154 454.282 204.335 441.882C204.335 441.882 197.792 411.217 191.585 377.032C187.726 356.421 190.914 327.264 190.914 327.264C177.828 325.756 164.575 325.421 151.49 326.091L143.773 326.594C143.773 326.594 117.938 352.064 124.313 377.367C134.043 415.574 131.359 444.228 131.359 444.228Z" fill="#7981EC"/>
<g opacity="0.4">
<path opacity="0.4" d="M131.359 444.228C137.733 445.569 147.631 448.417 164.408 449.925C164.743 449.925 165.079 449.925 165.414 449.925C166.085 449.925 166.924 450.093 167.595 450.093C172.125 450.261 202.154 454.282 204.335 441.882C204.335 441.882 197.792 411.217 191.585 377.032C187.726 356.421 190.914 327.264 190.914 327.264C177.828 325.756 164.575 325.421 151.49 326.091L143.773 326.594C143.773 326.594 117.938 352.064 124.313 377.367C134.043 415.574 131.359 444.228 131.359 444.228Z" fill="black"/>
</g>
<path opacity="0.1" d="M151.32 237.781C152.327 241.635 154.172 245.489 156.521 248.673C163.064 257.555 172.626 267.274 176.82 268.447C177.994 265.598 179.84 260.236 179.84 260.236C182.692 261.576 183.363 265.43 184.369 268.447C188.731 261.241 192.254 248.841 191.08 244.317C191.08 244.317 185.711 242.641 183.027 242.138C175.646 240.462 168.264 239.289 160.715 238.619C157.527 237.949 154.172 237.781 151.32 237.781Z" fill="black"/>
<path d="M151.156 236.945L152.666 239.626C158.37 250.016 171.623 263.421 176.824 264.594C177.998 261.746 179.34 256.886 179.34 256.886C182.192 258.227 184.205 262.081 185.044 265.097C189.406 257.892 192.09 247.837 190.916 243.313C188.232 242.475 185.547 241.637 182.863 241.135C175.482 239.459 168.1 238.286 160.551 237.616C157.363 237.113 154.008 236.945 151.156 236.945Z" fill="white"/>
<path d="M145.116 326.764L167.764 327.434H169.609L174.474 327.602H176.32L189.573 327.937C189.908 327.937 190.412 327.77 190.412 327.434L190.915 323.245C190.915 322.91 190.579 322.743 190.076 322.743L176.823 322.24H175.313L168.77 322.072H167.26L145.451 321.234C145.116 321.234 144.78 321.402 144.613 321.57L144.109 326.429C144.109 326.429 144.613 326.764 145.116 326.764Z" fill="#7981EC"/>
<path opacity="0.2" d="M145.116 326.764L167.764 327.434H169.609L174.474 327.602H176.32L189.573 327.937C189.908 327.937 190.412 327.77 190.412 327.434L190.915 323.245C190.915 322.91 190.579 322.743 190.076 322.743L176.823 322.24H175.313L168.77 322.072H167.26L145.451 321.234C145.116 321.234 144.78 321.402 144.613 321.57L144.109 326.429C144.109 326.429 144.613 326.764 145.116 326.764Z" fill="white"/>
<path d="M183.533 328.437H182.023C181.687 328.437 181.52 328.27 181.52 328.102L182.358 322.07C182.358 321.902 182.694 321.734 182.862 321.734H184.371C184.707 321.734 184.875 321.902 184.875 322.07L184.036 328.102C184.036 328.27 183.868 328.437 183.533 328.437Z" fill="#24285B"/>
<path d="M158.201 328.101H156.859C156.523 328.101 156.355 327.934 156.355 327.766L157.194 321.734C157.194 321.566 157.53 321.398 157.698 321.398H159.04C159.375 321.398 159.543 321.566 159.543 321.734L158.704 327.766C158.704 327.934 158.536 328.101 158.201 328.101Z" fill="#24285B"/>
<path d="M206.348 310.341H172.125L176.151 264.594H210.375L206.348 310.341Z" fill="#7981EC"/>
<path d="M145.282 301.793C146.624 300.285 147.462 298.609 147.127 296.766C147.127 296.766 147.127 293.917 147.295 289.728C147.462 277.328 147.462 252.695 146.288 249.343C143.436 242.305 138.571 238.451 136.055 242.641C133.035 247.5 132.867 284.198 132.867 284.198C133.538 308.496 142.43 305.144 145.282 301.793Z" fill="#B97964"/>
<path d="M192.591 298.106C192.591 298.106 187.055 301.457 182.357 300.452L180.848 295.928L187.055 287.884L187.39 287.381L187.894 287.214L194.269 285.371C195.611 285.035 196.953 285.706 197.288 287.046L198.798 291.738C199.134 292.744 198.798 293.917 197.792 294.587L192.591 298.106Z" fill="#B97964"/>
<path d="M137.901 303.134C141.927 307.994 182.861 300.788 183.196 300.621C184.538 299.95 184.706 296.599 183.196 295.258C182.357 294.588 140.417 290.734 137.565 290.566C132.7 298.107 135.888 300.621 137.901 303.134Z" fill="#B97964"/>
<path d="M195.947 189.355C201.483 196.058 204.503 201.085 200.98 223.707C200.309 227.896 202.154 237.95 202.993 238.118C181.184 235.604 174.809 231.918 164.408 225.718C157.53 221.528 151.826 206.112 153.671 198.236C155.684 189.69 164.911 179.636 173.97 178.798C184.204 177.792 189.74 181.646 195.947 189.355Z" fill="#24285B"/>
<path d="M181.017 231.75C178.668 236.275 177.326 241.637 182.862 246.329C184.037 247.334 185.043 248.675 185.211 250.183C185.714 252.697 184.708 255.21 175.984 251.859C163.402 246.999 163.066 239.124 163.066 239.124C168.77 236.275 170.28 223.037 170.448 215.496L181.017 231.75Z" fill="#B97964"/>
<path opacity="0.2" d="M172.965 226.221C172.629 229.404 176.656 233.929 179.508 235.437C179.843 234.264 180.347 232.923 181.018 231.75L174.81 222.031C173.972 223.372 173.301 224.712 172.965 226.221Z" fill="black"/>
<path d="M164.91 197.065C168.097 188.686 177.492 184.497 185.88 187.848C197.623 192.373 199.804 209.968 197.623 220.692C195.275 232.757 180.679 236.611 171.453 227.563C165.245 221.53 165.078 216.503 164.071 204.605C163.568 201.924 163.903 199.411 164.91 197.065Z" fill="#B97964"/>
<path d="M166.252 217.004C166.252 217.004 171.285 212.145 170.278 203.264C170.278 203.264 175.647 197.734 175.479 191.701C175.479 191.701 177.157 196.393 175.479 199.912C175.479 199.912 189.571 198.907 189.235 191.701C189.235 191.701 190.41 197.901 188.397 199.745C188.397 199.745 198.127 198.907 197.288 192.372C196.114 182.15 187.39 181.647 187.39 181.647C187.39 181.647 177.995 173.771 165.078 187.68C165.078 187.68 149.811 197.231 160.716 212.983L166.252 217.004Z" fill="#24285B"/>
<path d="M190.41 216.335C191.584 216.67 192.926 216.335 193.765 215.665C192.255 213.822 191.081 211.811 190.074 209.465L190.41 216.335Z" fill="#B74D3C"/>
<path d="M181.352 217.507C181.184 217.34 181.352 217.172 181.352 217.172C181.52 217.005 181.687 217.172 181.687 217.172C183.197 219.015 185.546 220.188 188.062 220.021C188.23 220.021 188.398 220.188 188.398 220.356C188.398 220.524 188.23 220.691 188.062 220.691C187.559 220.691 187.056 220.691 186.72 220.691C184.707 220.188 182.694 219.183 181.352 217.507Z" fill="#24285B"/>
<path d="M159.375 211.642C159.375 209.128 161.22 207.117 163.569 207.117C166.924 207.117 169.105 211.306 169.608 214.155C170.112 217.339 168.099 220.188 164.911 218.847C162.562 217.842 160.717 215.831 159.711 213.485C159.543 212.815 159.375 212.144 159.375 211.642Z" fill="#B97964"/>
<path d="M182.359 206.28C182.359 207.453 182.863 208.458 183.701 208.458C184.54 208.458 185.211 207.621 185.211 206.28C185.211 205.107 184.708 204.102 183.869 204.102C183.03 204.102 182.359 204.939 182.359 206.28Z" fill="#24285B"/>
<path d="M193.434 207.452C193.434 208.625 193.937 209.63 194.776 209.63C195.614 209.63 196.286 208.792 196.286 207.452C196.286 206.279 195.782 205.273 194.943 205.273C194.105 205.273 193.434 206.279 193.434 207.452Z" fill="#24285B"/>
<path d="M194.605 205.441L197.457 204.771C197.457 204.603 195.948 206.782 194.605 205.441Z" fill="#24285B"/>
<path d="M179.004 202.257C178.837 202.257 178.837 202.257 178.669 202.089C178.501 201.922 178.501 201.419 178.669 201.251C180.179 199.576 182.36 198.738 184.54 199.073C184.876 199.073 185.044 199.408 185.044 199.743C185.044 200.078 184.708 200.246 184.373 200.246C182.527 200.078 180.682 200.749 179.508 202.089C179.34 202.257 179.172 202.257 179.004 202.257Z" fill="#24285B"/>
<path d="M197.626 203.764C197.458 203.764 197.458 203.597 197.458 203.597C196.452 202.089 194.774 201.083 192.929 201.083C192.593 201.083 192.258 200.916 192.258 200.58C192.258 200.245 192.426 199.91 192.761 199.91C194.942 199.91 197.123 201.083 198.297 202.926C198.465 203.262 198.465 203.597 198.129 203.764C198.129 203.764 197.794 203.764 197.626 203.764Z" fill="#24285B"/>
<path d="M183.367 204.1L186.219 203.43C186.387 203.43 184.709 205.608 183.367 204.1Z" fill="#24285B"/>
<path d="M140.921 238.286C143.773 237.616 146.792 238.453 148.973 240.464C151.154 242.81 152.664 246.162 153 249.346C153.671 254.373 148.134 272.638 148.302 277.832C142.934 274.816 134.881 270.795 127.332 270.124C128.339 258.059 129.848 250.183 132.029 246.162C133.371 243.816 134.714 241.47 136.894 239.962C137.733 239.124 139.411 238.621 140.921 238.286Z" fill="#24285B"/>
<path d="M192.759 590.52C196.618 594.374 198.631 596.218 208.864 598.564C211.213 599.066 209.703 604.429 204.167 604.429C195.275 604.261 200.141 603.926 192.424 603.926C185.881 603.926 180.177 603.926 174.976 603.926C174.809 603.926 174.641 603.926 174.473 603.926C173.466 603.758 172.795 602.585 172.963 601.58L175.647 590.018C175.815 589.515 176.151 589.18 176.822 589.18L189.404 589.515C190.578 589.515 191.752 589.85 192.759 590.52Z" fill="#24285B"/>
<path d="M152.662 591.357C155.179 596.216 156.353 598.562 165.412 604.092C167.425 605.265 164.238 609.957 159.205 608.281C150.649 605.433 155.514 606.606 148.3 604.092C142.093 601.914 136.725 600.238 131.692 598.73C131.524 598.73 131.357 598.562 131.189 598.562C130.35 598.06 130.014 596.887 130.518 595.881L136.557 585.659C136.893 585.157 137.396 584.989 137.899 585.157L149.81 589.346C150.985 589.681 151.991 590.351 152.662 591.357Z" fill="#24285B"/>
</g>
<defs>
<clipPath id="clip0_1768_6570">
<rect width="838.808" height="618" fill="white"/>
</clipPath>
</defs>
</svg>
