<svg width="494" height="260" viewBox="0 0 494 260" fill="none" xmlns="http://www.w3.org/2000/svg">
<path d="M366.111 37.5234L366.176 37.7777L366.25 37.5234L370.007 27.0563H371.114L366.668 39H365.7L361.254 27.0563H362.354L366.111 37.5234ZM373.688 39H372.703V30.1242H373.688V39ZM372.531 27.5566C372.531 27.3707 372.591 27.2148 372.711 27.0891C372.832 26.9578 372.996 26.8922 373.204 26.8922C373.411 26.8922 373.576 26.9578 373.696 27.0891C373.822 27.2148 373.885 27.3707 373.885 27.5566C373.885 27.7426 373.822 27.8984 373.696 28.0242C373.576 28.15 373.411 28.2129 373.204 28.2129C372.996 28.2129 372.832 28.15 372.711 28.0242C372.591 27.8984 372.531 27.7426 372.531 27.5566ZM379.739 39.1641C378.984 39.1641 378.301 38.9781 377.688 38.6063C377.081 38.2344 376.608 37.7176 376.269 37.0559C375.93 36.3887 375.76 35.6422 375.76 34.8164V34.4637C375.76 33.6105 375.925 32.8422 376.253 32.1586C376.586 31.475 377.048 30.9391 377.639 30.5508C378.23 30.157 378.869 29.9602 379.559 29.9602C380.636 29.9602 381.489 30.3293 382.118 31.0676C382.752 31.8004 383.069 32.8039 383.069 34.0781V34.6277H376.737V34.8164C376.737 35.8227 377.024 36.6621 377.598 37.3348C378.178 38.002 378.905 38.3355 379.78 38.3355C380.305 38.3355 380.767 38.2398 381.166 38.0484C381.571 37.857 381.937 37.5508 382.266 37.1297L382.881 37.5973C382.159 38.6418 381.112 39.1641 379.739 39.1641ZM379.559 30.7969C378.82 30.7969 378.197 31.0676 377.688 31.609C377.185 32.1504 376.879 32.8777 376.769 33.791H382.093V33.6844C382.066 32.8313 381.823 32.1367 381.363 31.6008C380.904 31.0648 380.302 30.7969 379.559 30.7969ZM387.045 36.9574L387.193 37.7203L387.39 36.9164L389.523 30.1242H390.359L392.468 36.859L392.697 37.7941L392.886 36.9328L394.707 30.1242H395.724L393.14 39H392.304L390.023 31.9617L389.916 31.4777L389.81 31.9699L387.57 39H386.734L384.158 30.1242H385.167L387.045 36.9574ZM402.651 39H401.666V26.4H402.651V39ZM410.868 39C410.769 38.7211 410.706 38.3082 410.679 37.7613C410.335 38.2098 409.894 38.557 409.358 38.8031C408.828 39.0437 408.265 39.1641 407.669 39.1641C406.815 39.1641 406.124 38.9262 405.593 38.4504C405.068 37.9746 404.806 37.373 404.806 36.6457C404.806 35.7816 405.164 35.098 405.88 34.5949C406.602 34.0918 407.606 33.8402 408.891 33.8402H410.671V32.8313C410.671 32.1969 410.474 31.6992 410.08 31.3383C409.692 30.9719 409.123 30.7887 408.374 30.7887C407.69 30.7887 407.124 30.9637 406.676 31.3137C406.227 31.6637 406.003 32.0848 406.003 32.577L405.019 32.5688C405.019 31.8633 405.347 31.2535 406.003 30.7395C406.66 30.2199 407.466 29.9602 408.423 29.9602C409.413 29.9602 410.192 30.209 410.761 30.7066C411.335 31.1988 411.631 31.8879 411.647 32.7738V36.9738C411.647 37.8324 411.737 38.475 411.918 38.9016V39H410.868ZM407.783 38.2945C408.44 38.2945 409.025 38.1359 409.539 37.8188C410.058 37.5016 410.436 37.0777 410.671 36.5473V34.5949H408.915C407.936 34.6059 407.171 34.7863 406.619 35.1363C406.066 35.4809 405.79 35.9566 405.79 36.5637C405.79 37.0613 405.973 37.4742 406.34 37.8023C406.711 38.1305 407.193 38.2945 407.783 38.2945ZM415.147 30.1242L415.18 31.6418C415.514 31.0949 415.929 30.6793 416.427 30.3949C416.925 30.1051 417.474 29.9602 418.076 29.9602C419.027 29.9602 419.735 30.2281 420.2 30.7641C420.665 31.3 420.9 32.1039 420.906 33.1758V39H419.93V33.1676C419.924 32.3746 419.755 31.784 419.421 31.3957C419.093 31.0074 418.565 30.8133 417.838 30.8133C417.231 30.8133 416.692 31.0047 416.222 31.3875C415.757 31.7648 415.412 32.2762 415.188 32.9215V39H414.212V30.1242H415.147ZM422.995 34.4801C422.995 33.102 423.301 32.0055 423.914 31.1906C424.532 30.3703 425.368 29.9602 426.424 29.9602C427.622 29.9602 428.535 30.4332 429.164 31.3793V26.4H430.14V39H429.221L429.18 37.8188C428.551 38.7156 427.627 39.1641 426.407 39.1641C425.385 39.1641 424.559 38.7539 423.93 37.9336C423.307 37.1078 422.995 35.9949 422.995 34.5949V34.4801ZM423.988 34.6523C423.988 35.7844 424.215 36.6785 424.668 37.3348C425.122 37.9855 425.762 38.3109 426.588 38.3109C427.797 38.3109 428.655 37.7777 429.164 36.7113V32.5441C428.655 31.3902 427.802 30.8133 426.604 30.8133C425.779 30.8133 425.136 31.1387 424.677 31.7895C424.217 32.4348 423.988 33.3891 423.988 34.6523ZM433.763 39H432.779V30.1242H433.763V39ZM432.606 27.5566C432.606 27.3707 432.667 27.2148 432.787 27.0891C432.907 26.9578 433.071 26.8922 433.279 26.8922C433.487 26.8922 433.651 26.9578 433.771 27.0891C433.897 27.2148 433.96 27.3707 433.96 27.5566C433.96 27.7426 433.897 27.8984 433.771 28.0242C433.651 28.15 433.487 28.2129 433.279 28.2129C433.071 28.2129 432.907 28.15 432.787 28.0242C432.667 27.8984 432.606 27.7426 432.606 27.5566ZM437.312 30.1242L437.345 31.6418C437.679 31.0949 438.095 30.6793 438.592 30.3949C439.09 30.1051 439.639 29.9602 440.241 29.9602C441.193 29.9602 441.901 30.2281 442.366 30.7641C442.83 31.3 443.066 32.1039 443.071 33.1758V39H442.095V33.1676C442.089 32.3746 441.92 31.784 441.586 31.3957C441.258 31.0074 440.73 30.8133 440.003 30.8133C439.396 30.8133 438.857 31.0047 438.387 31.3875C437.922 31.7648 437.578 32.2762 437.354 32.9215V39H436.377V30.1242H437.312ZM445.16 34.4801C445.16 33.091 445.467 31.9918 446.079 31.1824C446.697 30.3676 447.534 29.9602 448.589 29.9602C449.798 29.9602 450.717 30.4414 451.345 31.4039L451.395 30.1242H452.313V38.8195C452.313 39.9625 451.994 40.8676 451.354 41.5348C450.714 42.202 449.847 42.5355 448.753 42.5355C448.135 42.5355 447.545 42.3961 446.981 42.1172C446.424 41.8437 445.983 41.4773 445.661 41.018L446.21 40.4273C446.905 41.2805 447.731 41.707 448.688 41.707C449.508 41.707 450.148 41.4637 450.607 40.977C451.067 40.4957 451.304 39.8258 451.321 38.9672V37.8516C450.692 38.7266 449.776 39.1641 448.573 39.1641C447.545 39.1641 446.719 38.7539 446.095 37.9336C445.472 37.1133 445.16 36.0059 445.16 34.6113V34.4801ZM446.153 34.6523C446.153 35.7844 446.38 36.6785 446.834 37.3348C447.288 37.9855 447.927 38.3109 448.753 38.3109C449.962 38.3109 450.818 37.7695 451.321 36.6867V32.5605C451.091 31.9918 450.76 31.5598 450.328 31.2645C449.896 30.9637 449.377 30.8133 448.77 30.8133C447.944 30.8133 447.301 31.1387 446.842 31.7895C446.383 32.4348 446.153 33.3891 446.153 34.6523ZM465.975 34.6523C465.975 36.0359 465.668 37.1352 465.056 37.95C464.443 38.7594 463.623 39.1641 462.595 39.1641C461.381 39.1641 460.451 38.7375 459.806 37.8844V42.4125H458.83V30.1242H459.74L459.79 31.3793C460.429 30.4332 461.356 29.9602 462.57 29.9602C463.631 29.9602 464.463 30.3621 465.064 31.166C465.671 31.9699 465.975 33.0855 465.975 34.5129V34.6523ZM464.99 34.4801C464.99 33.348 464.758 32.4539 464.293 31.7977C463.828 31.1414 463.18 30.8133 462.349 30.8133C461.747 30.8133 461.231 30.9582 460.799 31.248C460.366 31.5379 460.036 31.959 459.806 32.5113V36.7688C460.041 37.2773 460.377 37.6656 460.815 37.9336C461.252 38.2016 461.769 38.3355 462.365 38.3355C463.191 38.3355 463.834 38.0074 464.293 37.3512C464.758 36.6895 464.99 35.7324 464.99 34.4801ZM473.699 39C473.601 38.7211 473.538 38.3082 473.511 37.7613C473.166 38.2098 472.726 38.557 472.19 38.8031C471.66 39.0437 471.096 39.1641 470.5 39.1641C469.647 39.1641 468.955 38.9262 468.425 38.4504C467.9 37.9746 467.637 37.373 467.637 36.6457C467.637 35.7816 467.996 35.098 468.712 34.5949C469.434 34.0918 470.437 33.8402 471.722 33.8402H473.503V32.8313C473.503 32.1969 473.306 31.6992 472.912 31.3383C472.524 30.9719 471.955 30.7887 471.206 30.7887C470.522 30.7887 469.956 30.9637 469.508 31.3137C469.059 31.6637 468.835 32.0848 468.835 32.577L467.851 32.5688C467.851 31.8633 468.179 31.2535 468.835 30.7395C469.491 30.2199 470.298 29.9602 471.255 29.9602C472.245 29.9602 473.024 30.209 473.593 30.7066C474.167 31.1988 474.462 31.8879 474.479 32.7738V36.9738C474.479 37.8324 474.569 38.475 474.749 38.9016V39H473.699ZM470.615 38.2945C471.271 38.2945 471.856 38.1359 472.371 37.8188C472.89 37.5016 473.267 37.0777 473.503 36.5473V34.5949H471.747C470.768 34.6059 470.003 34.7863 469.45 35.1363C468.898 35.4809 468.622 35.9566 468.622 36.5637C468.622 37.0613 468.805 37.4742 469.171 37.8023C469.543 38.1305 470.024 38.2945 470.615 38.2945ZM476.65 34.4801C476.65 33.091 476.956 31.9918 477.569 31.1824C478.187 30.3676 479.023 29.9602 480.079 29.9602C481.287 29.9602 482.206 30.4414 482.835 31.4039L482.884 30.1242H483.803V38.8195C483.803 39.9625 483.483 40.8676 482.843 41.5348C482.204 42.202 481.337 42.5355 480.243 42.5355C479.625 42.5355 479.034 42.3961 478.471 42.1172C477.913 41.8437 477.473 41.4773 477.15 41.018L477.7 40.4273C478.395 41.2805 479.22 41.707 480.177 41.707C480.998 41.707 481.637 41.4637 482.097 40.977C482.556 40.4957 482.794 39.8258 482.811 38.9672V37.8516C482.182 38.7266 481.266 39.1641 480.062 39.1641C479.034 39.1641 478.209 38.7539 477.585 37.9336C476.962 37.1133 476.65 36.0059 476.65 34.6113V34.4801ZM477.643 34.6523C477.643 35.7844 477.87 36.6785 478.323 37.3348C478.777 37.9855 479.417 38.3109 480.243 38.3109C481.452 38.3109 482.307 37.7695 482.811 36.6867V32.5605C482.581 31.9918 482.25 31.5598 481.818 31.2645C481.386 30.9637 480.866 30.8133 480.259 30.8133C479.434 30.8133 478.791 31.1387 478.332 31.7895C477.872 32.4348 477.643 33.3891 477.643 34.6523ZM489.74 39.1641C488.985 39.1641 488.301 38.9781 487.689 38.6063C487.082 38.2344 486.609 37.7176 486.27 37.0559C485.931 36.3887 485.761 35.6422 485.761 34.8164V34.4637C485.761 33.6105 485.925 32.8422 486.253 32.1586C486.587 31.475 487.049 30.9391 487.64 30.5508C488.23 30.157 488.87 29.9602 489.559 29.9602C490.636 29.9602 491.49 30.3293 492.119 31.0676C492.753 31.8004 493.07 32.8039 493.07 34.0781V34.6277H486.737V34.8164C486.737 35.8227 487.024 36.6621 487.599 37.3348C488.178 38.002 488.906 38.3355 489.781 38.3355C490.306 38.3355 490.768 38.2398 491.167 38.0484C491.572 37.857 491.938 37.5508 492.266 37.1297L492.881 37.5973C492.16 38.6418 491.112 39.1641 489.74 39.1641ZM489.559 30.7969C488.821 30.7969 488.197 31.0676 487.689 31.609C487.186 32.1504 486.879 32.8777 486.77 33.791H492.094V33.6844C492.067 32.8313 491.823 32.1367 491.364 31.6008C490.904 31.0648 490.303 30.7969 489.559 30.7969Z" fill="#131313"/>
<path d="M341.967 93.2758C341.83 94.5336 341.379 95.4961 340.613 96.1633C339.853 96.8305 338.839 97.1641 337.57 97.1641C336.684 97.1641 335.899 96.9426 335.216 96.4996C334.537 96.0566 334.012 95.4305 333.641 94.6211C333.269 93.8063 333.08 92.8766 333.075 91.832V90.2816C333.075 89.2207 333.261 88.2801 333.632 87.4598C334.004 86.6395 334.537 86.0078 335.232 85.5648C335.932 85.1164 336.736 84.8922 337.644 84.8922C338.923 84.8922 339.932 85.2395 340.671 85.934C341.414 86.623 341.846 87.5773 341.967 88.7969H340.95C340.698 86.768 339.596 85.7535 337.644 85.7535C336.561 85.7535 335.697 86.1582 335.052 86.9676C334.412 87.777 334.092 88.8953 334.092 90.3227V91.7828C334.092 93.1609 334.404 94.2602 335.027 95.0805C335.656 95.9008 336.504 96.3109 337.57 96.3109C338.625 96.3109 339.421 96.0594 339.957 95.5563C340.493 95.0477 340.824 94.2875 340.95 93.2758H341.967ZM345.229 97H344.245V84.4H345.229V97ZM348.942 97H347.958V88.1242H348.942V97ZM347.786 85.5566C347.786 85.3707 347.846 85.2148 347.966 85.0891C348.087 84.9578 348.251 84.8922 348.459 84.8922C348.666 84.8922 348.83 84.9578 348.951 85.0891C349.076 85.2148 349.139 85.3707 349.139 85.5566C349.139 85.7426 349.076 85.8984 348.951 86.0242C348.83 86.15 348.666 86.2129 348.459 86.2129C348.251 86.2129 348.087 86.15 347.966 86.0242C347.846 85.8984 347.786 85.7426 347.786 85.5566ZM354.838 96.3355C355.522 96.3355 356.093 96.1441 356.552 95.7613C357.017 95.373 357.269 94.8727 357.307 94.2602H358.25C358.223 94.8016 358.054 95.2965 357.742 95.7449C357.43 96.1879 357.015 96.5352 356.495 96.7867C355.981 97.0383 355.429 97.1641 354.838 97.1641C353.673 97.1641 352.749 96.7594 352.065 95.95C351.387 95.1406 351.048 94.0523 351.048 92.6852V92.3898C351.048 91.5148 351.201 90.741 351.507 90.0684C351.814 89.3957 352.251 88.8762 352.82 88.5098C353.394 88.1434 354.064 87.9602 354.83 87.9602C355.803 87.9602 356.604 88.25 357.233 88.8297C357.868 89.4094 358.207 90.1723 358.25 91.1184H357.307C357.263 90.4238 357.012 89.8633 356.552 89.4367C356.099 89.0102 355.524 88.7969 354.83 88.7969C353.944 88.7969 353.255 89.1168 352.763 89.7566C352.276 90.3965 352.032 91.2934 352.032 92.4473V92.7344C352.032 93.8664 352.276 94.7496 352.763 95.384C353.255 96.0184 353.947 96.3355 354.838 96.3355ZM362.267 92.5293L361.144 93.6121V97H360.159V84.4H361.144V92.4637L362.071 91.4629L365.467 88.1242H366.705L362.94 91.8648L367.033 97H365.86L362.267 92.5293ZM372.59 97V85.0563H376.117C377.397 85.0563 378.368 85.3215 379.029 85.852C379.691 86.377 380.022 87.1535 380.022 88.1816C380.022 88.7996 379.852 89.3383 379.513 89.7977C379.18 90.2516 378.72 90.577 378.135 90.7738C378.83 90.927 379.388 91.2688 379.809 91.7992C380.235 92.3297 380.449 92.9422 380.449 93.6367C380.449 94.6922 380.107 95.518 379.423 96.1141C378.745 96.7047 377.799 97 376.585 97H372.59ZM373.599 91.2578V96.1469H376.626C377.49 96.1469 378.174 95.9281 378.677 95.4906C379.185 95.0477 379.44 94.4352 379.44 93.6531C379.44 92.9148 379.196 92.3324 378.71 91.9059C378.228 91.4738 377.561 91.2578 376.708 91.2578H373.599ZM373.599 90.4129H376.355C377.197 90.3965 377.848 90.1996 378.308 89.8223C378.772 89.4395 379.005 88.8844 379.005 88.157C379.005 87.3914 378.764 86.8281 378.283 86.4672C377.807 86.1008 377.085 85.9176 376.117 85.9176H373.599V90.4129ZM388.313 95.8762C387.722 96.7348 386.779 97.1641 385.483 97.1641C384.537 97.1641 383.817 96.8906 383.325 96.3438C382.833 95.7914 382.582 94.9766 382.571 93.8992V88.1242H383.547V93.7762C383.547 95.466 384.23 96.3109 385.598 96.3109C387.019 96.3109 387.919 95.723 388.296 94.5473V88.1242H389.281V97H388.329L388.313 95.8762ZM393.306 85.852V88.1242H395.143V88.9281H393.306V94.8426C393.306 95.3348 393.393 95.7012 393.568 95.9418C393.749 96.1824 394.047 96.3027 394.463 96.3027C394.627 96.3027 394.892 96.2754 395.258 96.2207L395.299 97.0246C395.042 97.1176 394.692 97.1641 394.249 97.1641C393.577 97.1641 393.087 96.9699 392.781 96.5816C392.475 96.1879 392.322 95.6109 392.322 94.8508V88.9281H390.689V88.1242H392.322V85.852H393.306ZM398.644 85.852V88.1242H400.481V88.9281H398.644V94.8426C398.644 95.3348 398.731 95.7012 398.906 95.9418C399.087 96.1824 399.385 96.3027 399.8 96.3027C399.964 96.3027 400.23 96.2754 400.596 96.2207L400.637 97.0246C400.38 97.1176 400.03 97.1641 399.587 97.1641C398.914 97.1641 398.425 96.9699 398.119 96.5816C397.812 96.1879 397.659 95.6109 397.659 94.8508V88.9281H396.027V88.1242H397.659V85.852H398.644ZM401.75 92.4309C401.75 91.5777 401.914 90.8094 402.242 90.1258C402.576 89.4422 403.043 88.9117 403.645 88.5344C404.252 88.1516 404.938 87.9602 405.704 87.9602C406.885 87.9602 407.842 88.3758 408.575 89.207C409.308 90.0328 409.674 91.1293 409.674 92.4965V92.7016C409.674 93.5602 409.507 94.334 409.174 95.023C408.846 95.7066 408.381 96.2344 407.779 96.6063C407.178 96.9781 406.491 97.1641 405.72 97.1641C404.545 97.1641 403.587 96.7512 402.849 95.9254C402.116 95.0941 401.75 93.9949 401.75 92.6277V92.4309ZM402.734 92.7016C402.734 93.7625 403.008 94.6348 403.555 95.3184C404.107 95.9965 404.829 96.3355 405.72 96.3355C406.606 96.3355 407.323 95.9965 407.87 95.3184C408.422 94.6348 408.698 93.7352 408.698 92.6195V92.4309C408.698 91.7527 408.572 91.132 408.321 90.5688C408.069 90.0055 407.716 89.5707 407.262 89.2645C406.809 88.9527 406.289 88.7969 405.704 88.7969C404.829 88.7969 404.115 89.1414 403.563 89.8305C403.011 90.5141 402.734 91.4109 402.734 92.5211V92.7016ZM412.584 88.1242L412.617 89.6418C412.95 89.0949 413.366 88.6793 413.863 88.3949C414.361 88.1051 414.911 87.9602 415.512 87.9602C416.464 87.9602 417.172 88.2281 417.637 88.7641C418.102 89.3 418.337 90.1039 418.342 91.1758V97H417.366V91.1676C417.361 90.3746 417.191 89.784 416.858 89.3957C416.529 89.0074 416.002 88.8133 415.274 88.8133C414.667 88.8133 414.129 89.0047 413.658 89.3875C413.194 89.7648 412.849 90.2762 412.625 90.9215V97H411.649V88.1242H412.584Z" fill="#131313"/>
<path d="M305.967 153.276C305.83 154.534 305.379 155.496 304.613 156.163C303.853 156.83 302.839 157.164 301.57 157.164C300.684 157.164 299.899 156.943 299.216 156.5C298.537 156.057 298.012 155.43 297.641 154.621C297.269 153.806 297.08 152.877 297.075 151.832V150.282C297.075 149.221 297.261 148.28 297.632 147.46C298.004 146.639 298.537 146.008 299.232 145.565C299.932 145.116 300.736 144.892 301.644 144.892C302.923 144.892 303.932 145.239 304.671 145.934C305.414 146.623 305.846 147.577 305.967 148.797H304.95C304.698 146.768 303.596 145.754 301.644 145.754C300.561 145.754 299.697 146.158 299.052 146.968C298.412 147.777 298.092 148.895 298.092 150.323V151.783C298.092 153.161 298.404 154.26 299.027 155.08C299.656 155.901 300.504 156.311 301.57 156.311C302.625 156.311 303.421 156.059 303.957 155.556C304.493 155.048 304.824 154.288 304.95 153.276H305.967ZM309.229 157H308.245V144.4H309.229V157ZM312.942 157H311.958V148.124H312.942V157ZM311.786 145.557C311.786 145.371 311.846 145.215 311.966 145.089C312.087 144.958 312.251 144.892 312.459 144.892C312.666 144.892 312.83 144.958 312.951 145.089C313.076 145.215 313.139 145.371 313.139 145.557C313.139 145.743 313.076 145.898 312.951 146.024C312.83 146.15 312.666 146.213 312.459 146.213C312.251 146.213 312.087 146.15 311.966 146.024C311.846 145.898 311.786 145.743 311.786 145.557ZM318.838 156.336C319.522 156.336 320.093 156.144 320.552 155.761C321.017 155.373 321.269 154.873 321.307 154.26H322.25C322.223 154.802 322.054 155.296 321.742 155.745C321.43 156.188 321.015 156.535 320.495 156.787C319.981 157.038 319.429 157.164 318.838 157.164C317.673 157.164 316.749 156.759 316.065 155.95C315.387 155.141 315.048 154.052 315.048 152.685V152.39C315.048 151.515 315.201 150.741 315.507 150.068C315.814 149.396 316.251 148.876 316.82 148.51C317.394 148.143 318.064 147.96 318.83 147.96C319.803 147.96 320.604 148.25 321.233 148.83C321.868 149.409 322.207 150.172 322.25 151.118H321.307C321.263 150.424 321.012 149.863 320.552 149.437C320.099 149.01 319.524 148.797 318.83 148.797C317.944 148.797 317.255 149.117 316.763 149.757C316.276 150.396 316.032 151.293 316.032 152.447V152.734C316.032 153.866 316.276 154.75 316.763 155.384C317.255 156.018 317.947 156.336 318.838 156.336ZM326.267 152.529L325.144 153.612V157H324.159V144.4H325.144V152.464L326.071 151.463L329.467 148.124H330.705L326.94 151.865L331.033 157H329.86L326.267 152.529ZM343.349 154.063C343.349 153.402 343.117 152.879 342.652 152.496C342.187 152.108 341.337 151.742 340.101 151.397C338.865 151.047 337.963 150.667 337.394 150.257C336.585 149.677 336.18 148.917 336.18 147.977C336.18 147.063 336.554 146.322 337.304 145.754C338.058 145.179 339.021 144.892 340.191 144.892C340.984 144.892 341.692 145.045 342.316 145.352C342.945 145.658 343.431 146.084 343.776 146.631C344.12 147.178 344.293 147.788 344.293 148.461H343.276C343.276 147.646 342.997 146.992 342.439 146.5C341.881 146.002 341.132 145.754 340.191 145.754C339.278 145.754 338.551 145.959 338.009 146.369C337.468 146.773 337.197 147.304 337.197 147.96C337.197 148.567 337.44 149.062 337.927 149.445C338.414 149.828 339.193 150.167 340.265 150.462C341.337 150.752 342.149 151.055 342.701 151.373C343.254 151.684 343.669 152.059 343.948 152.496C344.227 152.934 344.367 153.451 344.367 154.047C344.367 154.988 343.989 155.742 343.235 156.311C342.485 156.88 341.495 157.164 340.265 157.164C339.423 157.164 338.649 157.014 337.944 156.713C337.244 156.412 336.71 155.991 336.344 155.45C335.983 154.908 335.802 154.288 335.802 153.588H336.811C336.811 154.43 337.126 155.094 337.755 155.581C338.384 156.068 339.22 156.311 340.265 156.311C341.195 156.311 341.941 156.106 342.504 155.696C343.068 155.286 343.349 154.741 343.349 154.063ZM349.54 156.336C350.224 156.336 350.795 156.144 351.255 155.761C351.719 155.373 351.971 154.873 352.009 154.26H352.953C352.925 154.802 352.756 155.296 352.444 155.745C352.132 156.188 351.717 156.535 351.197 156.787C350.683 157.038 350.131 157.164 349.54 157.164C348.375 157.164 347.451 156.759 346.767 155.95C346.089 155.141 345.75 154.052 345.75 152.685V152.39C345.75 151.515 345.903 150.741 346.21 150.068C346.516 149.396 346.953 148.876 347.522 148.51C348.096 148.143 348.766 147.96 349.532 147.96C350.505 147.96 351.307 148.25 351.935 148.83C352.57 149.409 352.909 150.172 352.953 151.118H352.009C351.966 150.424 351.714 149.863 351.255 149.437C350.801 149.01 350.226 148.797 349.532 148.797C348.646 148.797 347.957 149.117 347.465 149.757C346.978 150.396 346.735 151.293 346.735 152.447V152.734C346.735 153.866 346.978 154.75 347.465 155.384C347.957 156.018 348.649 156.336 349.54 156.336ZM355.838 149.625C356.16 149.095 356.573 148.685 357.076 148.395C357.579 148.105 358.129 147.96 358.725 147.96C359.677 147.96 360.385 148.228 360.85 148.764C361.315 149.3 361.55 150.104 361.555 151.176V157H360.579V151.168C360.574 150.375 360.404 149.784 360.07 149.396C359.742 149.007 359.215 148.813 358.487 148.813C357.88 148.813 357.341 149.005 356.871 149.388C356.406 149.765 356.062 150.276 355.838 150.921V157H354.861V144.4H355.838V149.625ZM367.459 157.164C366.704 157.164 366.021 156.978 365.408 156.606C364.801 156.234 364.328 155.718 363.989 155.056C363.65 154.389 363.48 153.642 363.48 152.816V152.464C363.48 151.611 363.644 150.842 363.972 150.159C364.306 149.475 364.768 148.939 365.359 148.551C365.949 148.157 366.589 147.96 367.278 147.96C368.356 147.96 369.209 148.329 369.838 149.068C370.472 149.8 370.789 150.804 370.789 152.078V152.628H364.456V152.816C364.456 153.823 364.744 154.662 365.318 155.335C365.897 156.002 366.625 156.336 367.5 156.336C368.025 156.336 368.487 156.24 368.886 156.048C369.291 155.857 369.657 155.551 369.985 155.13L370.601 155.597C369.879 156.642 368.831 157.164 367.459 157.164ZM367.278 148.797C366.54 148.797 365.917 149.068 365.408 149.609C364.905 150.15 364.599 150.878 364.489 151.791H369.813V151.684C369.786 150.831 369.542 150.137 369.083 149.601C368.624 149.065 368.022 148.797 367.278 148.797ZM372.247 152.48C372.247 151.102 372.553 150.005 373.166 149.191C373.784 148.37 374.62 147.96 375.676 147.96C376.873 147.96 377.787 148.433 378.416 149.379V144.4H379.392V157H378.473L378.432 155.819C377.803 156.716 376.879 157.164 375.659 157.164C374.637 157.164 373.811 156.754 373.182 155.934C372.559 155.108 372.247 153.995 372.247 152.595V152.48ZM373.239 152.652C373.239 153.784 373.466 154.679 373.92 155.335C374.374 155.986 375.014 156.311 375.84 156.311C377.048 156.311 377.907 155.778 378.416 154.711V150.544C377.907 149.39 377.054 148.813 375.856 148.813C375.03 148.813 374.388 149.139 373.929 149.789C373.469 150.435 373.239 151.389 373.239 152.652ZM387.625 155.876C387.035 156.735 386.091 157.164 384.795 157.164C383.849 157.164 383.13 156.891 382.638 156.344C382.145 155.791 381.894 154.977 381.883 153.899V148.124H382.859V153.776C382.859 155.466 383.543 156.311 384.91 156.311C386.332 156.311 387.231 155.723 387.609 154.547V148.124H388.593V157H387.642L387.625 155.876ZM392.192 157H391.207V144.4H392.192V157ZM398.243 157.164C397.488 157.164 396.805 156.978 396.192 156.606C395.585 156.234 395.112 155.718 394.773 155.056C394.434 154.389 394.265 153.642 394.265 152.816V152.464C394.265 151.611 394.429 150.842 394.757 150.159C395.09 149.475 395.552 148.939 396.143 148.551C396.734 148.157 397.374 147.96 398.063 147.96C399.14 147.96 399.993 148.329 400.622 149.068C401.256 149.8 401.574 150.804 401.574 152.078V152.628H395.241V152.816C395.241 153.823 395.528 154.662 396.102 155.335C396.682 156.002 397.409 156.336 398.284 156.336C398.809 156.336 399.271 156.24 399.67 156.048C400.075 155.857 400.441 155.551 400.77 155.13L401.385 155.597C400.663 156.642 399.616 157.164 398.243 157.164ZM398.063 148.797C397.324 148.797 396.701 149.068 396.192 149.609C395.689 150.15 395.383 150.878 395.274 151.791H400.597V151.684C400.57 150.831 400.327 150.137 399.867 149.601C399.408 149.065 398.806 148.797 398.063 148.797Z" fill="#131313"/>
<path d="M283.269 214.063C283.269 213.402 283.036 212.879 282.571 212.496C282.107 212.108 281.256 211.742 280.02 211.397C278.784 211.047 277.882 210.667 277.313 210.257C276.504 209.677 276.099 208.917 276.099 207.977C276.099 207.063 276.474 206.322 277.223 205.754C277.978 205.179 278.94 204.892 280.111 204.892C280.904 204.892 281.612 205.045 282.235 205.352C282.864 205.658 283.351 206.084 283.695 206.631C284.04 207.178 284.212 207.788 284.212 208.461H283.195C283.195 207.646 282.916 206.992 282.358 206.5C281.8 206.002 281.051 205.754 280.111 205.754C279.197 205.754 278.47 205.959 277.929 206.369C277.387 206.773 277.116 207.304 277.116 207.96C277.116 208.567 277.36 209.062 277.846 209.445C278.333 209.828 279.112 210.167 280.184 210.462C281.256 210.752 282.068 211.055 282.621 211.373C283.173 211.684 283.589 212.059 283.868 212.496C284.146 212.934 284.286 213.451 284.286 214.047C284.286 214.988 283.909 215.742 283.154 216.311C282.405 216.88 281.415 217.164 280.184 217.164C279.342 217.164 278.568 217.014 277.863 216.713C277.163 216.412 276.63 215.991 276.263 215.45C275.902 214.908 275.722 214.288 275.722 213.588H276.731C276.731 214.43 277.045 215.094 277.674 215.581C278.303 216.068 279.14 216.311 280.184 216.311C281.114 216.311 281.861 216.106 282.424 215.696C282.987 215.286 283.269 214.741 283.269 214.063ZM287.277 217H286.293V208.124H287.277V217ZM286.121 205.557C286.121 205.371 286.181 205.215 286.301 205.089C286.422 204.958 286.586 204.892 286.794 204.892C287.001 204.892 287.165 204.958 287.286 205.089C287.411 205.215 287.474 205.371 287.474 205.557C287.474 205.743 287.411 205.898 287.286 206.024C287.165 206.15 287.001 206.213 286.794 206.213C286.586 206.213 286.422 206.15 286.301 206.024C286.181 205.898 286.121 205.743 286.121 205.557ZM289.498 212.48C289.498 211.091 289.804 209.992 290.417 209.182C291.035 208.368 291.871 207.96 292.927 207.96C294.135 207.96 295.054 208.441 295.683 209.404L295.732 208.124H296.651V216.82C296.651 217.962 296.331 218.868 295.691 219.535C295.051 220.202 294.185 220.536 293.091 220.536C292.473 220.536 291.882 220.396 291.319 220.117C290.761 219.844 290.321 219.477 289.998 219.018L290.548 218.427C291.242 219.28 292.068 219.707 293.025 219.707C293.846 219.707 294.485 219.464 294.945 218.977C295.404 218.496 295.642 217.826 295.659 216.967V215.852C295.03 216.727 294.114 217.164 292.91 217.164C291.882 217.164 291.057 216.754 290.433 215.934C289.81 215.113 289.498 214.006 289.498 212.611V212.48ZM290.491 212.652C290.491 213.784 290.717 214.679 291.171 215.335C291.625 215.986 292.265 216.311 293.091 216.311C294.3 216.311 295.155 215.77 295.659 214.687V210.561C295.429 209.992 295.098 209.56 294.666 209.264C294.234 208.964 293.714 208.813 293.107 208.813C292.282 208.813 291.639 209.139 291.18 209.789C290.72 210.435 290.491 211.389 290.491 212.652ZM300.086 208.124L300.118 209.642C300.452 209.095 300.868 208.679 301.365 208.395C301.863 208.105 302.413 207.96 303.014 207.96C303.966 207.96 304.674 208.228 305.139 208.764C305.604 209.3 305.839 210.104 305.844 211.176V217H304.868V211.168C304.863 210.375 304.693 209.784 304.359 209.396C304.031 209.007 303.504 208.813 302.776 208.813C302.169 208.813 301.631 209.005 301.16 209.388C300.695 209.765 300.351 210.276 300.127 210.921V217H299.15V208.124H300.086ZM314.037 215.876C313.446 216.735 312.503 217.164 311.206 217.164C310.26 217.164 309.541 216.891 309.049 216.344C308.557 215.791 308.305 214.977 308.294 213.899V208.124H309.271V213.776C309.271 215.466 309.954 216.311 311.321 216.311C312.743 216.311 313.643 215.723 314.02 214.547V208.124H315.005V217H314.053L314.037 215.876ZM324.641 212.652C324.641 214.036 324.334 215.135 323.722 215.95C323.109 216.759 322.289 217.164 321.261 217.164C320.047 217.164 319.117 216.738 318.472 215.884V220.412H317.496V208.124H318.406L318.455 209.379C319.095 208.433 320.022 207.96 321.236 207.96C322.297 207.96 323.129 208.362 323.73 209.166C324.337 209.97 324.641 211.086 324.641 212.513V212.652ZM323.656 212.48C323.656 211.348 323.424 210.454 322.959 209.798C322.494 209.141 321.846 208.813 321.015 208.813C320.413 208.813 319.896 208.958 319.464 209.248C319.032 209.538 318.702 209.959 318.472 210.511V214.769C318.707 215.277 319.043 215.666 319.481 215.934C319.918 216.202 320.435 216.336 321.031 216.336C321.857 216.336 322.5 216.007 322.959 215.351C323.424 214.689 323.656 213.732 323.656 212.48Z" fill="#131313"/>
<g filter="url(#filter0_d_245_265)">
<path d="M321.77 12C317.152 24.7709 312.538 37.638 307.93 50.6013C216.668 52.4634 125.341 52.4634 33.9494 50.6013C29.3469 37.6411 24.7336 24.774 20.1094 12H321.77Z" fill="url(#paint0_linear_245_265)"/>
<path d="M301.016 70.1113C296.408 83.146 291.799 96.2707 287.19 109.485C209.792 112.842 132.087 112.842 54.6884 109.485C50.0797 96.2863 45.471 83.1615 40.8623 70.1113C127.497 72.6298 214.382 72.6298 301.016 70.1113Z" fill="url(#paint1_linear_245_265)"/>
<path d="M280.292 129.336C275.686 142.6 271.08 155.919 266.475 169.292C202.842 172.914 139.056 172.914 75.4232 169.292C70.8207 155.922 66.2151 142.603 61.6064 129.336C134.391 132.888 207.488 132.888 280.292 129.336Z" fill="url(#paint2_linear_245_265)"/>
<path d="M259.553 189.378C254.944 202.795 250.334 216.241 245.722 229.716C195.914 232.761 145.966 232.761 96.1579 229.716C91.5461 216.235 86.9358 202.786 82.3271 189.369C141.35 192.878 200.529 192.881 259.553 189.378Z" fill="url(#paint3_linear_245_265)"/>
</g>
<path d="M147.271 26.9488V37H152.599V35.4016H149.287V26.9488H147.271ZM153.362 32.9824C153.362 35.4736 154.975 37.1296 156.991 37.1296C158.258 37.1296 159.165 36.5248 159.64 35.8336V37H161.671V29.0224H159.64V30.16C159.165 29.4976 158.287 28.8928 157.005 28.8928C154.975 28.8928 153.362 30.4912 153.362 32.9824ZM159.64 33.0112C159.64 34.5232 158.632 35.3584 157.524 35.3584C156.444 35.3584 155.421 34.4944 155.421 32.9824C155.421 31.4704 156.444 30.664 157.524 30.664C158.632 30.664 159.64 31.4992 159.64 33.0112ZM167.038 34.5952L164.979 29.0224H162.718L165.915 36.7984L164.187 40.7728H166.332L171.272 29.0224H169.126L167.038 34.5952ZM175.786 30.5488C176.822 30.5488 177.658 31.2112 177.686 32.2624H173.899C174.058 31.168 174.821 30.5488 175.786 30.5488ZM179.573 34.4944H177.398C177.139 35.0272 176.664 35.4592 175.8 35.4592C174.792 35.4592 173.986 34.7968 173.885 33.616H179.717C179.76 33.3568 179.774 33.0976 179.774 32.8384C179.774 30.4624 178.147 28.8928 175.843 28.8928C173.482 28.8928 171.84 30.4912 171.84 33.0112C171.84 35.5168 173.525 37.1296 175.843 37.1296C177.816 37.1296 179.141 35.9632 179.573 34.4944ZM183.262 33.0256C183.262 31.4848 183.982 31.024 185.177 31.024H185.71V28.9072C184.601 28.9072 183.766 29.44 183.262 30.2608V29.0224H181.246V37H183.262V33.0256ZM191.421 37H193.494V26.5024H190.024V28.36H191.421V37Z" fill="white"/>
<path d="M146.245 85.9488V96H151.573V94.4016H148.261V85.9488H146.245ZM152.336 91.9824C152.336 94.4736 153.949 96.1296 155.965 96.1296C157.232 96.1296 158.139 95.5248 158.615 94.8336V96H160.645V88.0224H158.615V89.16C158.139 88.4976 157.261 87.8928 155.979 87.8928C153.949 87.8928 152.336 89.4912 152.336 91.9824ZM158.615 92.0112C158.615 93.5232 157.607 94.3584 156.498 94.3584C155.418 94.3584 154.395 93.4944 154.395 91.9824C154.395 90.4704 155.418 89.664 156.498 89.664C157.607 89.664 158.615 90.4992 158.615 92.0112ZM166.012 93.5952L163.953 88.0224H161.692L164.889 95.7984L163.161 99.7728H165.307L170.246 88.0224H168.1L166.012 93.5952ZM174.76 89.5488C175.797 89.5488 176.632 90.2112 176.661 91.2624H172.873C173.032 90.168 173.795 89.5488 174.76 89.5488ZM178.547 93.4944H176.373C176.113 94.0272 175.638 94.4592 174.774 94.4592C173.766 94.4592 172.96 93.7968 172.859 92.616H178.691C178.734 92.3568 178.749 92.0976 178.749 91.8384C178.749 89.4624 177.121 87.8928 174.817 87.8928C172.456 87.8928 170.814 89.4912 170.814 92.0112C170.814 94.5168 172.499 96.1296 174.817 96.1296C176.79 96.1296 178.115 94.9632 178.547 93.4944ZM182.236 92.0256C182.236 90.4848 182.956 90.024 184.151 90.024H184.684V87.9072C183.575 87.9072 182.74 88.44 182.236 89.2608V88.0224H180.22V96H182.236V92.0256ZM189.128 95.856H196.241V94.1856H191.993C193.664 92.7744 196.011 90.8736 196.011 88.44C196.011 86.6112 194.873 85.272 192.612 85.272C190.726 85.272 189.185 86.3808 189.113 88.7856H191.072C191.086 87.6768 191.619 86.9856 192.584 86.9856C193.577 86.9856 193.995 87.6192 193.995 88.5552C193.995 90.4848 191.504 92.3424 189.128 94.3584V95.856Z" fill="white"/>
<path d="M146.069 145.043V155.094H151.397V153.495H148.085V145.043H146.069ZM152.16 151.076C152.16 153.567 153.773 155.223 155.789 155.223C157.056 155.223 157.964 154.619 158.439 153.927V155.094H160.469V147.116H158.439V148.254C157.964 147.591 157.085 146.987 155.804 146.987C153.773 146.987 152.16 148.585 152.16 151.076ZM158.439 151.105C158.439 152.617 157.431 153.452 156.322 153.452C155.242 153.452 154.22 152.588 154.22 151.076C154.22 149.564 155.242 148.758 156.322 148.758C157.431 148.758 158.439 149.593 158.439 151.105ZM165.837 152.689L163.777 147.116H161.517L164.713 154.892L162.985 158.867H165.131L170.07 147.116H167.925L165.837 152.689ZM174.584 148.643C175.621 148.643 176.456 149.305 176.485 150.356H172.698C172.856 149.262 173.619 148.643 174.584 148.643ZM178.371 152.588H176.197C175.938 153.121 175.462 153.553 174.598 153.553C173.59 153.553 172.784 152.891 172.683 151.71H178.515C178.558 151.451 178.573 151.191 178.573 150.932C178.573 148.556 176.946 146.987 174.642 146.987C172.28 146.987 170.638 148.585 170.638 151.105C170.638 153.611 172.323 155.223 174.642 155.223C176.614 155.223 177.939 154.057 178.371 152.588ZM182.06 151.119C182.06 149.579 182.78 149.118 183.976 149.118H184.508V147.001C183.4 147.001 182.564 147.534 182.06 148.355V147.116H180.044V155.094H182.06V151.119ZM189.096 147.361H191.069C191.141 146.699 191.558 146.065 192.538 146.065C193.459 146.065 193.963 146.555 193.963 147.375C193.963 148.412 193.099 148.743 191.918 148.743H191.501V150.399H191.918C193.416 150.399 194.165 150.831 194.165 152.012C194.165 152.847 193.646 153.481 192.638 153.481C191.558 153.481 190.954 152.833 190.91 151.926H188.952C189.038 154.129 190.608 155.166 192.682 155.166C194.885 155.166 196.094 153.899 196.094 152.185C196.094 150.759 195.389 149.895 194.323 149.564V149.507C195.086 149.247 195.907 148.441 195.907 147.131C195.907 145.575 194.755 144.351 192.595 144.351C190.579 144.351 189.197 145.417 189.096 147.361Z" fill="white"/>
<path d="M149.849 208.519V216.895H154.289V215.563H151.529V208.519H149.849ZM154.925 213.547C154.925 215.623 156.269 217.003 157.949 217.003C159.005 217.003 159.761 216.499 160.157 215.923V216.895H161.849V210.247H160.157V211.195C159.761 210.643 159.029 210.139 157.961 210.139C156.269 210.139 154.925 211.471 154.925 213.547ZM160.157 213.571C160.157 214.831 159.317 215.527 158.393 215.527C157.493 215.527 156.641 214.807 156.641 213.547C156.641 212.287 157.493 211.615 158.393 211.615C159.317 211.615 160.157 212.311 160.157 213.571ZM166.322 214.891L164.606 210.247H162.722L165.386 216.727L163.946 220.039H165.734L169.85 210.247H168.062L166.322 214.891ZM173.612 211.519C174.476 211.519 175.172 212.071 175.196 212.947H172.04C172.172 212.035 172.808 211.519 173.612 211.519ZM176.768 214.807H174.956C174.74 215.251 174.344 215.611 173.624 215.611C172.784 215.611 172.112 215.059 172.028 214.075H176.888C176.924 213.859 176.936 213.643 176.936 213.427C176.936 211.447 175.58 210.139 173.66 210.139C171.692 210.139 170.324 211.471 170.324 213.571C170.324 215.659 171.728 217.003 173.66 217.003C175.304 217.003 176.408 216.031 176.768 214.807ZM179.842 213.583C179.842 212.299 180.442 211.915 181.438 211.915H181.882V210.151C180.958 210.151 180.262 210.595 179.842 211.279V210.247H178.162V216.895H179.842V213.583ZM189.809 216.895H191.489V215.191H192.545V213.727H191.489V208.255H189.533L185.609 213.871V215.191H189.809V216.895ZM187.457 213.727L189.917 210.055V213.727H187.457Z" fill="white"/>
<defs>
<filter id="filter0_d_245_265" x="0.109375" y="0" width="341.66" height="260" filterUnits="userSpaceOnUse" color-interpolation-filters="sRGB">
<feFlood flood-opacity="0" result="BackgroundImageFix"/>
<feColorMatrix in="SourceAlpha" type="matrix" values="0 0 0 0 0 0 0 0 0 0 0 0 0 0 0 0 0 0 127 0" result="hardAlpha"/>
<feOffset dy="8"/>
<feGaussianBlur stdDeviation="10"/>
<feComposite in2="hardAlpha" operator="out"/>
<feColorMatrix type="matrix" values="0 0 0 0 0 0 0 0 0 0 0 0 0 0 0 0 0 0 0.4 0"/>
<feBlend mode="normal" in2="BackgroundImageFix" result="effect1_dropShadow_245_265"/>
<feBlend mode="normal" in="SourceGraphic" in2="effect1_dropShadow_245_265" result="shape"/>
</filter>
<linearGradient id="paint0_linear_245_265" x1="26.5" y1="32" x2="313.5" y2="32" gradientUnits="userSpaceOnUse">
<stop stop-color="#4B75F7"/>
<stop offset="0.516301" stop-color="#819EFB"/>
<stop offset="1" stop-color="#4B75F7"/>
</linearGradient>
<linearGradient id="paint1_linear_245_265" x1="44.499" y1="91" x2="294.999" y2="91" gradientUnits="userSpaceOnUse">
<stop stop-color="#2F54BD"/>
<stop offset="0.489583" stop-color="#6682DA"/>
<stop offset="1" stop-color="#2F54BD"/>
</linearGradient>
<linearGradient id="paint2_linear_245_265" x1="68.501" y1="151" x2="277.001" y2="151" gradientUnits="userSpaceOnUse">
<stop stop-color="#243F8F"/>
<stop offset="0.529991" stop-color="#6782D1"/>
<stop offset="1" stop-color="#243F8F"/>
</linearGradient>
<linearGradient id="paint3_linear_245_265" x1="87.001" y1="210.998" x2="254.001" y2="210.998" gradientUnits="userSpaceOnUse">
<stop stop-color="#192C63"/>
<stop offset="0.479167" stop-color="#374C8B"/>
<stop offset="1" stop-color="#192C63"/>
</linearGradient>
</defs>
</svg>
