<svg width="93" height="495" viewBox="0 0 93 495" fill="none" xmlns="http://www.w3.org/2000/svg">
<path d="M15.0053 402.108H15.907V402.543H14.4564V399.806H15.0053V402.108ZM16.1147 401.449C16.1147 401.23 16.1579 401.035 16.2441 400.865C16.333 400.695 16.4519 400.564 16.6009 400.473C16.7525 400.381 16.9211 400.336 17.1067 400.336C17.2687 400.336 17.4099 400.368 17.5301 400.434C17.6529 400.499 17.751 400.581 17.8241 400.681V400.371H18.377V402.543H17.8241V402.225C17.7536 402.327 17.6556 402.412 17.5301 402.48C17.4072 402.546 17.2648 402.578 17.1027 402.578C16.9198 402.578 16.7525 402.531 16.6009 402.437C16.4519 402.343 16.333 402.211 16.2441 402.041C16.1579 401.869 16.1147 401.671 16.1147 401.449ZM17.8241 401.457C17.8241 401.324 17.798 401.21 17.7457 401.116C17.6935 401.019 17.6229 400.946 17.534 400.896C17.4451 400.844 17.3497 400.818 17.2478 400.818C17.1459 400.818 17.0518 400.843 16.9655 400.892C16.8793 400.942 16.8087 401.015 16.7538 401.112C16.7015 401.206 16.6754 401.318 16.6754 401.449C16.6754 401.58 16.7015 401.695 16.7538 401.794C16.8087 401.891 16.8793 401.965 16.9655 402.018C17.0544 402.07 17.1485 402.096 17.2478 402.096C17.3497 402.096 17.4451 402.071 17.534 402.022C17.6229 401.969 17.6935 401.896 17.7457 401.802C17.798 401.705 17.8241 401.59 17.8241 401.457ZM20.991 400.371L19.6462 403.57H19.062L19.5325 402.488L18.6621 400.371H19.2777L19.8383 401.888L20.4068 400.371H20.991ZM23.306 401.41C23.306 401.488 23.3008 401.559 23.2903 401.622H21.7025C21.7155 401.778 21.7704 401.901 21.8671 401.99C21.9638 402.079 22.0828 402.123 22.2239 402.123C22.4278 402.123 22.5728 402.036 22.6591 401.861H23.2511C23.1884 402.07 23.0681 402.242 22.8904 402.378C22.7127 402.512 22.4944 402.578 22.2357 402.578C22.0266 402.578 21.8384 402.533 21.6711 402.441C21.5064 402.347 21.377 402.215 21.2829 402.045C21.1915 401.875 21.1457 401.679 21.1457 401.457C21.1457 401.232 21.1915 401.035 21.2829 400.865C21.3744 400.695 21.5025 400.564 21.6672 400.473C21.8318 400.381 22.0213 400.336 22.2357 400.336C22.4421 400.336 22.6264 400.38 22.7885 400.469C22.9531 400.558 23.0799 400.685 23.1688 400.849C23.2603 401.011 23.306 401.198 23.306 401.41ZM22.7375 401.253C22.7349 401.112 22.6839 401 22.5846 400.916C22.4853 400.83 22.3637 400.787 22.22 400.787C22.0841 400.787 21.9691 400.828 21.875 400.912C21.7835 400.993 21.7273 401.107 21.7064 401.253H22.7375ZM24.2555 400.708C24.3261 400.593 24.4176 400.503 24.53 400.438C24.645 400.372 24.7757 400.34 24.922 400.34V400.916H24.777C24.6045 400.916 24.4738 400.956 24.3849 401.037C24.2987 401.118 24.2555 401.26 24.2555 401.461V402.543H23.7066V400.371H24.2555V400.708ZM26.1711 400.438C26.1841 400.176 26.2756 399.975 26.4455 399.834C26.618 399.69 26.8441 399.618 27.1238 399.618C27.3146 399.618 27.4779 399.652 27.6139 399.72C27.7498 399.785 27.8517 399.876 27.9197 399.991C27.9902 400.103 28.0255 400.231 28.0255 400.375C28.0255 400.54 27.9824 400.679 27.8962 400.794C27.8125 400.907 27.7119 400.983 27.5943 401.022V401.037C27.7459 401.084 27.8635 401.168 27.9471 401.288C28.0334 401.409 28.0765 401.563 28.0765 401.751C28.0765 401.908 28.0399 402.048 27.9667 402.171C27.8962 402.293 27.7903 402.39 27.6492 402.461C27.5106 402.529 27.3433 402.563 27.1473 402.563C26.852 402.563 26.6115 402.488 26.4259 402.339C26.2403 402.19 26.1423 401.971 26.1319 401.68H26.6651C26.6703 401.809 26.7134 401.912 26.7945 401.99C26.8781 402.066 26.9918 402.104 27.1355 402.104C27.2688 402.104 27.3708 402.067 27.4414 401.994C27.5145 401.918 27.5511 401.822 27.5511 401.704C27.5511 401.547 27.5015 401.435 27.4022 401.367C27.3028 401.299 27.1486 401.265 26.9395 401.265H26.8258V400.814H26.9395C27.3107 400.814 27.4962 400.69 27.4962 400.442C27.4962 400.329 27.4623 400.242 27.3943 400.179C27.329 400.116 27.2336 400.085 27.1081 400.085C26.9853 400.085 26.8899 400.119 26.8219 400.187C26.7566 400.252 26.7187 400.336 26.7082 400.438H26.1711Z" fill="white"/>
<path d="M16.4203 461.724H17.0644V462.035H16.0282V460.08H16.4203V461.724ZM17.2128 461.254C17.2128 461.097 17.2436 460.958 17.3052 460.837C17.3687 460.715 17.4536 460.622 17.56 460.557C17.6683 460.491 17.7887 460.458 17.9213 460.458C18.037 460.458 18.1378 460.482 18.2237 460.529C18.3115 460.575 18.3815 460.634 18.4338 460.705V460.484H18.8286V462.035H18.4338V461.808C18.3834 461.881 18.3133 461.942 18.2237 461.99C18.136 462.037 18.0342 462.06 17.9185 462.06C17.7878 462.06 17.6683 462.027 17.56 461.96C17.4536 461.892 17.3687 461.798 17.3052 461.677C17.2436 461.553 17.2128 461.413 17.2128 461.254ZM18.4338 461.259C18.4338 461.164 18.4151 461.083 18.3778 461.016C18.3404 460.947 18.29 460.894 18.2265 460.859C18.163 460.822 18.0949 460.803 18.0221 460.803C17.9493 460.803 17.8821 460.821 17.8205 460.856C17.7588 460.892 17.7084 460.944 17.6692 461.013C17.6319 461.08 17.6132 461.16 17.6132 461.254C17.6132 461.347 17.6319 461.429 17.6692 461.5C17.7084 461.569 17.7588 461.623 17.8205 461.66C17.8839 461.697 17.9511 461.716 18.0221 461.716C18.0949 461.716 18.163 461.698 18.2265 461.663C18.29 461.625 18.3404 461.573 18.3778 461.506C18.4151 461.437 18.4338 461.355 18.4338 461.259ZM20.6958 460.484L19.7352 462.769H19.318L19.654 461.996L19.0323 460.484H19.472L19.8725 461.567L20.2785 460.484H20.6958ZM22.3494 461.226C22.3494 461.282 22.3456 461.332 22.3382 461.377H21.204C21.2133 461.489 21.2525 461.577 21.3216 461.64C21.3907 461.704 21.4756 461.736 21.5764 461.736C21.7221 461.736 21.8257 461.673 21.8873 461.548H22.3102C22.2654 461.697 22.1795 461.82 22.0525 461.918C21.9256 462.013 21.7697 462.06 21.5848 462.06C21.4355 462.06 21.3011 462.028 21.1816 461.962C21.064 461.895 20.9715 461.801 20.9043 461.679C20.839 461.558 20.8063 461.418 20.8063 461.259C20.8063 461.099 20.839 460.958 20.9043 460.837C20.9697 460.715 21.0612 460.622 21.1788 460.557C21.2964 460.491 21.4318 460.458 21.5848 460.458C21.7323 460.458 21.864 460.49 21.9797 460.554C22.0973 460.617 22.1879 460.708 22.2514 460.825C22.3167 460.941 22.3494 461.075 22.3494 461.226ZM21.9433 461.114C21.9414 461.013 21.905 460.933 21.8341 460.873C21.7631 460.811 21.6763 460.781 21.5736 460.781C21.4766 460.781 21.3944 460.81 21.3272 460.87C21.2619 460.928 21.2217 461.009 21.2068 461.114H21.9433ZM23.0276 460.725C23.078 460.642 23.1434 460.578 23.2236 460.531C23.3058 460.485 23.3991 460.461 23.5037 460.461V460.873H23.4001C23.2768 460.873 23.1835 460.902 23.12 460.96C23.0584 461.018 23.0276 461.118 23.0276 461.262V462.035H22.6355V460.484H23.0276V460.725ZM24.3734 461.637V461.329L25.2892 460.019H25.7457V461.296H25.9921V461.637H25.7457V462.035H25.3536V461.637H24.3734ZM25.3788 460.439L24.8047 461.296H25.3788V460.439Z" fill="white"/>
<path d="M14.3639 21.0651H15.3944V21.5625H13.7366V18.4349H14.3639V21.0651ZM15.6318 20.3124C15.6318 20.0615 15.6811 19.8389 15.7797 19.6447C15.8813 19.4506 16.0172 19.3012 16.1875 19.1967C16.3607 19.0921 16.5534 19.0398 16.7655 19.0398C16.9507 19.0398 17.112 19.0772 17.2494 19.1519C17.3898 19.2265 17.5018 19.3206 17.5854 19.4342V19.0802H18.2172V21.5625H17.5854V21.1996C17.5048 21.3161 17.3928 21.4131 17.2494 21.4908C17.109 21.5655 16.9462 21.6028 16.761 21.6028C16.5519 21.6028 16.3607 21.5491 16.1875 21.4415C16.0172 21.334 15.8813 21.1831 15.7797 20.989C15.6811 20.7918 15.6318 20.5663 15.6318 20.3124ZM17.5854 20.3213C17.5854 20.169 17.5556 20.039 17.4958 19.9315C17.4361 19.821 17.3554 19.7373 17.2539 19.6806C17.1523 19.6208 17.0433 19.591 16.9268 19.591C16.8103 19.591 16.7027 19.6194 16.6042 19.6761C16.5056 19.7329 16.4249 19.8165 16.3622 19.927C16.3025 20.0346 16.2726 20.163 16.2726 20.3124C16.2726 20.4617 16.3025 20.5932 16.3622 20.7067C16.4249 20.8172 16.5056 20.9023 16.6042 20.9621C16.7057 21.0218 16.8133 21.0517 16.9268 21.0517C17.0433 21.0517 17.1523 21.0233 17.2539 20.9666C17.3554 20.9068 17.4361 20.8232 17.4958 20.7156C17.5556 20.6051 17.5854 20.4737 17.5854 20.3213ZM21.2047 19.0802L19.6678 22.7365H19.0002L19.5379 21.4998L18.5431 19.0802H19.2466L19.8873 20.8142L20.5371 19.0802H21.2047ZM23.8504 20.2676C23.8504 20.3572 23.8444 20.4378 23.8325 20.5095H22.0178C22.0327 20.6888 22.0955 20.8292 22.206 20.9307C22.3165 21.0323 22.4524 21.0831 22.6137 21.0831C22.8467 21.0831 23.0125 20.983 23.1111 20.7829H23.7877C23.716 21.0218 23.5786 21.219 23.3755 21.3743C23.1723 21.5267 22.9229 21.6028 22.6272 21.6028C22.3882 21.6028 22.1731 21.5506 21.982 21.446C21.7938 21.3385 21.6459 21.1876 21.5384 20.9934C21.4338 20.7993 21.3815 20.5752 21.3815 20.3213C21.3815 20.0644 21.4338 19.8389 21.5384 19.6447C21.6429 19.4506 21.7893 19.3012 21.9775 19.1967C22.1657 19.0921 22.3822 19.0398 22.6272 19.0398C22.8632 19.0398 23.0738 19.0906 23.259 19.1922C23.4472 19.2938 23.592 19.4386 23.6936 19.6268C23.7981 19.812 23.8504 20.0256 23.8504 20.2676ZM23.2007 20.0883C23.1977 19.927 23.1395 19.7986 23.026 19.703C22.9125 19.6044 22.7735 19.5551 22.6093 19.5551C22.4539 19.5551 22.3225 19.6029 22.2149 19.6985C22.1104 19.7911 22.0462 19.9211 22.0223 20.0883H23.2007ZM24.9356 19.4655C25.0162 19.3341 25.1208 19.231 25.2492 19.1563C25.3807 19.0817 25.53 19.0443 25.6973 19.0443V19.703H25.5315C25.3344 19.703 25.185 19.7493 25.0835 19.8419C24.9849 19.9345 24.9356 20.0958 24.9356 20.3258V21.5625H24.3083V19.0802H24.9356V19.4655ZM27.0397 18.8741V18.296H28.1195V21.5625H27.4743V18.8741H27.0397Z" fill="white"/>
<path d="M14.0405 343.678H15.0711V344.176H13.4132V341.048H14.0405V343.678ZM15.3085 342.926C15.3085 342.675 15.3578 342.452 15.4563 342.258C15.5579 342.064 15.6938 341.915 15.8641 341.81C16.0373 341.705 16.23 341.653 16.4421 341.653C16.6273 341.653 16.7886 341.69 16.926 341.765C17.0664 341.84 17.1784 341.934 17.2621 342.047V341.693H17.8939V344.176H17.2621V343.813C17.1814 343.929 17.0694 344.026 16.926 344.104C16.7856 344.179 16.6228 344.216 16.4376 344.216C16.2285 344.216 16.0373 344.162 15.8641 344.055C15.6938 343.947 15.5579 343.796 15.4563 343.602C15.3578 343.405 15.3085 343.18 15.3085 342.926ZM17.2621 342.935C17.2621 342.782 17.2322 342.652 17.1725 342.545C17.1127 342.434 17.0321 342.351 16.9305 342.294C16.8289 342.234 16.7199 342.204 16.6034 342.204C16.4869 342.204 16.3794 342.233 16.2808 342.289C16.1822 342.346 16.1016 342.43 16.0388 342.54C15.9791 342.648 15.9492 342.776 15.9492 342.926C15.9492 343.075 15.9791 343.206 16.0388 343.32C16.1016 343.43 16.1822 343.516 16.2808 343.575C16.3824 343.635 16.4899 343.665 16.6034 343.665C16.7199 343.665 16.8289 343.637 16.9305 343.58C17.0321 343.52 17.1127 343.436 17.1725 343.329C17.2322 343.218 17.2621 343.087 17.2621 342.935ZM20.8813 341.693L19.3444 345.35H18.6768L19.2145 344.113L18.2198 341.693H18.9232L19.564 343.427L20.2137 341.693H20.8813ZM23.5271 342.881C23.5271 342.97 23.5211 343.051 23.5091 343.123H21.6944C21.7094 343.302 21.7721 343.442 21.8826 343.544C21.9931 343.646 22.1291 343.696 22.2904 343.696C22.5234 343.696 22.6892 343.596 22.7877 343.396H23.4643C23.3926 343.635 23.2552 343.832 23.0521 343.988C22.849 344.14 22.5995 344.216 22.3038 344.216C22.0648 344.216 21.8498 344.164 21.6586 344.059C21.4704 343.952 21.3225 343.801 21.215 343.607C21.1104 343.413 21.0582 343.189 21.0582 342.935C21.0582 342.678 21.1104 342.452 21.215 342.258C21.3195 342.064 21.4659 341.915 21.6541 341.81C21.8423 341.705 22.0589 341.653 22.3038 341.653C22.5398 341.653 22.7504 341.704 22.9356 341.805C23.1238 341.907 23.2687 342.052 23.3702 342.24C23.4748 342.425 23.5271 342.639 23.5271 342.881ZM22.8773 342.702C22.8744 342.54 22.8161 342.412 22.7026 342.316C22.5891 342.218 22.4502 342.168 22.2859 342.168C22.1306 342.168 21.9991 342.216 21.8916 342.312C21.787 342.404 21.7228 342.534 21.6989 342.702H22.8773ZM24.6122 342.079C24.6929 341.947 24.7974 341.844 24.9259 341.77C25.0573 341.695 25.2067 341.658 25.374 341.658V342.316H25.2082C25.011 342.316 24.8617 342.363 24.7601 342.455C24.6615 342.548 24.6122 342.709 24.6122 342.939V344.176H23.9849V341.693H24.6122V342.079ZM26.9896 343.468C27.2764 343.229 27.5049 343.03 27.6752 342.872C27.8454 342.711 27.9873 342.543 28.1008 342.37C28.2143 342.197 28.2711 342.027 28.2711 341.859C28.2711 341.707 28.2353 341.587 28.1636 341.501C28.0919 341.414 27.9813 341.371 27.832 341.371C27.6826 341.371 27.5676 341.422 27.487 341.523C27.4063 341.622 27.3645 341.758 27.3615 341.931H26.7521C26.7641 341.572 26.8701 341.301 27.0703 341.115C27.2734 340.93 27.5303 340.838 27.8409 340.838C28.1815 340.838 28.4429 340.929 28.6251 341.111C28.8073 341.29 28.8984 341.528 28.8984 341.823C28.8984 342.056 28.8357 342.279 28.7102 342.491C28.5848 342.703 28.4414 342.888 28.2801 343.047C28.1188 343.202 27.9082 343.39 27.6483 343.611H28.9701V344.131H26.7566V343.665L26.9896 343.468Z" fill="white"/>
<rect opacity="0.1" x="10.9556" y="6.17969" width="39.8461" height="329.307" fill="#4B75F7"/>
<path opacity="0.08" d="M15.0728 340.848H47.1802L43.5578 388.926H18.5305L15.0728 340.848Z" fill="#4B75F7"/>
<path opacity="0.09" d="M21.8237 395.68H40.2649L39.277 440.63H22.8117L21.8237 395.68Z" fill="#4B75F7"/>
<path opacity="0.09" d="M24.7866 446.551H37.6296V489.525H24.7866V446.551Z" fill="#4B75F7"/>
<path d="M60.2099 391.968C60.1798 392.245 60.0803 392.458 59.9116 392.605C59.744 392.752 59.5204 392.825 59.2408 392.825C59.0455 392.825 58.8726 392.776 58.7219 392.679C58.5725 392.581 58.4567 392.443 58.3748 392.265C58.2928 392.085 58.2512 391.88 58.25 391.65V391.308C58.25 391.074 58.291 390.867 58.373 390.686C58.4549 390.506 58.5725 390.366 58.7255 390.269C58.8798 390.17 59.057 390.12 59.2571 390.12C59.5391 390.12 59.7615 390.197 59.9242 390.35C60.0882 390.502 60.1834 390.712 60.2099 390.981H59.9857C59.9303 390.534 59.6874 390.31 59.2571 390.31C59.0184 390.31 58.828 390.399 58.6858 390.578C58.5447 390.756 58.4742 391.003 58.4742 391.317V391.639C58.4742 391.943 58.5429 392.185 58.6803 392.366C58.8189 392.547 59.0058 392.637 59.2408 392.637C59.4734 392.637 59.6488 392.582 59.7669 392.471C59.8851 392.359 59.958 392.191 59.9857 391.968H60.2099ZM60.9282 392.789H60.7112V390.012H60.9282V392.789ZM61.746 392.789H61.529V390.833H61.746V392.789ZM61.491 390.267C61.491 390.226 61.5043 390.192 61.5308 390.164C61.5573 390.135 61.5935 390.12 61.6393 390.12C61.6851 390.12 61.7212 390.135 61.7478 390.164C61.7755 390.192 61.7893 390.226 61.7893 390.267C61.7893 390.308 61.7755 390.342 61.7478 390.37C61.7212 390.398 61.6851 390.412 61.6393 390.412C61.5935 390.412 61.5573 390.398 61.5308 390.37C61.5043 390.342 61.491 390.308 61.491 390.267ZM63.0446 392.643C63.1953 392.643 63.3213 392.6 63.4225 392.516C63.525 392.43 63.5804 392.32 63.5888 392.185H63.7968C63.7907 392.305 63.7534 392.414 63.6847 392.512C63.616 392.61 63.5244 392.687 63.4098 392.742C63.2965 392.797 63.1748 392.825 63.0446 392.825C62.7879 392.825 62.5842 392.736 62.4335 392.558C62.2841 392.379 62.2093 392.139 62.2093 391.838V391.773C62.2093 391.58 62.2431 391.41 62.3106 391.261C62.3781 391.113 62.4745 390.999 62.5999 390.918C62.7264 390.837 62.8741 390.797 63.0428 390.797C63.2574 390.797 63.434 390.861 63.5726 390.988C63.7124 391.116 63.7871 391.284 63.7968 391.493H63.5888C63.5792 391.34 63.5237 391.216 63.4225 391.122C63.3225 391.028 63.1959 390.981 63.0428 390.981C62.8476 390.981 62.6957 391.052 62.5872 391.193C62.4799 391.334 62.4263 391.531 62.4263 391.786V391.849C62.4263 392.098 62.4799 392.293 62.5872 392.433C62.6957 392.573 62.8482 392.643 63.0446 392.643ZM64.6814 391.804L64.4337 392.042V392.789H64.2167V390.012H64.4337V391.789L64.638 391.569L65.3865 390.833H65.6595L64.8297 391.657L65.7318 392.789H65.4733L64.6814 391.804ZM66.9551 392.789V390.157H67.7326C68.0146 390.157 68.2286 390.215 68.3744 390.332C68.5202 390.448 68.5932 390.619 68.5932 390.845C68.5932 390.982 68.5558 391.1 68.4811 391.202C68.4075 391.302 68.3063 391.373 68.1773 391.417C68.3304 391.451 68.4533 391.526 68.5462 391.643C68.6402 391.76 68.6872 391.895 68.6872 392.048C68.6872 392.28 68.6118 392.462 68.4612 392.594C68.3117 392.724 68.1032 392.789 67.8356 392.789H66.9551ZM67.1775 391.523V392.601H67.8447C68.0351 392.601 68.1858 392.553 68.2967 392.456C68.4087 392.359 68.4648 392.224 68.4648 392.051C68.4648 391.889 68.4112 391.76 68.3039 391.666C68.1978 391.571 68.0508 391.523 67.8627 391.523H67.1775ZM67.1775 391.337H67.785C67.9706 391.334 68.114 391.29 68.2153 391.207C68.3177 391.123 68.369 391 68.369 390.84C68.369 390.671 68.3159 390.547 68.2099 390.468C68.105 390.387 67.9459 390.346 67.7326 390.346H67.1775V391.337ZM70.4198 392.541C70.2896 392.731 70.0817 392.825 69.796 392.825C69.5875 392.825 69.429 392.765 69.3205 392.644C69.212 392.523 69.1566 392.343 69.1542 392.106V390.833H69.3693V392.079C69.3693 392.451 69.52 392.637 69.8213 392.637C70.1347 392.637 70.333 392.508 70.4162 392.248V390.833H70.6331V392.789H70.4234L70.4198 392.541ZM71.5196 390.332V390.833H71.9246V391.01H71.5196V392.314C71.5196 392.422 71.5389 392.503 71.5774 392.556C71.6172 392.609 71.6829 392.635 71.7745 392.635C71.8107 392.635 71.8691 392.629 71.9499 392.617L71.9589 392.794C71.9023 392.815 71.8251 392.825 71.7275 392.825C71.5792 392.825 71.4714 392.782 71.4039 392.697C71.3364 392.61 71.3026 392.483 71.3026 392.315V391.01H70.9428V390.833H71.3026V390.332H71.5196ZM72.6953 390.332V390.833H73.1003V391.01H72.6953V392.314C72.6953 392.422 72.7146 392.503 72.7532 392.556C72.7929 392.609 72.8586 392.635 72.9502 392.635C72.9864 392.635 73.0448 392.629 73.1256 392.617L73.1346 392.794C73.078 392.815 73.0009 392.825 72.9032 392.825C72.755 392.825 72.6471 392.782 72.5796 392.697C72.5121 392.61 72.4783 392.483 72.4783 392.315V391.01H72.1186V390.833H72.4783V390.332H72.6953ZM73.3793 391.782C73.3793 391.594 73.4154 391.425 73.4877 391.274C73.5613 391.123 73.6643 391.006 73.7969 390.923C73.9307 390.839 74.082 390.797 74.2507 390.797C74.5111 390.797 74.722 390.888 74.8835 391.071C75.045 391.253 75.1258 391.495 75.1258 391.796V391.842C75.1258 392.031 75.089 392.201 75.0155 392.353C74.9432 392.504 74.8407 392.62 74.7081 392.702C74.5755 392.784 74.4243 392.825 74.2543 392.825C73.9952 392.825 73.7843 392.734 73.6215 392.552C73.46 392.369 73.3793 392.127 73.3793 391.825V391.782ZM73.5962 391.842C73.5962 392.076 73.6565 392.268 73.777 392.418C73.8988 392.568 74.0579 392.643 74.2543 392.643C74.4496 392.643 74.6075 392.568 74.728 392.418C74.8498 392.268 74.9106 392.069 74.9106 391.824V391.782C74.9106 391.633 74.8829 391.496 74.8275 391.372C74.772 391.247 74.6943 391.152 74.5942 391.084C74.4942 391.015 74.3797 390.981 74.2507 390.981C74.0579 390.981 73.9006 391.057 73.7788 391.209C73.6571 391.36 73.5962 391.557 73.5962 391.802V391.842ZM75.7663 390.833L75.7736 391.167C75.8471 391.047 75.9387 390.955 76.0484 390.892C76.1581 390.829 76.2792 390.797 76.4118 390.797C76.6215 390.797 76.7776 390.856 76.8801 390.974C76.9825 391.092 77.0344 391.269 77.0356 391.505V392.789H76.8204V391.504C76.8192 391.329 76.7818 391.199 76.7083 391.113C76.636 391.027 76.5197 390.985 76.3594 390.985C76.2256 390.985 76.1069 391.027 76.0032 391.111C75.9007 391.194 75.8248 391.307 75.7754 391.449V392.789H75.5602V390.833H75.7663Z" fill="#131313"/>
<path d="M49.4488 493.398C49.4267 493.601 49.3538 493.757 49.23 493.865C49.1072 493.973 48.9432 494.027 48.7382 494.027C48.595 494.027 48.4681 493.991 48.3576 493.919C48.248 493.848 48.1632 493.746 48.1031 493.615C48.043 493.484 48.0125 493.334 48.0116 493.165V492.914C48.0116 492.743 48.0416 492.591 48.1017 492.458C48.1618 492.325 48.248 492.223 48.3603 492.152C48.4734 492.079 48.6034 492.043 48.7501 492.043C48.9569 492.043 49.12 492.099 49.2393 492.211C49.3595 492.323 49.4294 492.477 49.4488 492.674H49.2844C49.2437 492.346 49.0656 492.182 48.7501 492.182C48.5751 492.182 48.4354 492.248 48.3311 492.378C48.2277 492.509 48.176 492.69 48.176 492.921V493.157C48.176 493.379 48.2264 493.557 48.3271 493.69C48.4288 493.822 48.5658 493.889 48.7382 493.889C48.9087 493.889 49.0374 493.848 49.124 493.767C49.2106 493.684 49.2641 493.562 49.2844 493.398H49.4488ZM49.9719 494H49.8128V491.963H49.9719V494ZM50.5678 494H50.4087V492.565H50.5678V494ZM50.3809 492.15C50.3809 492.12 50.3906 492.095 50.41 492.075C50.4295 492.054 50.456 492.043 50.4896 492.043C50.5232 492.043 50.5497 492.054 50.5692 492.075C50.5895 492.095 50.5996 492.12 50.5996 492.15C50.5996 492.18 50.5895 492.206 50.5692 492.226C50.5497 492.246 50.5232 492.256 50.4896 492.256C50.456 492.256 50.4295 492.246 50.41 492.226C50.3906 492.206 50.3809 492.18 50.3809 492.15ZM51.5165 493.893C51.627 493.893 51.7193 493.862 51.7936 493.8C51.8687 493.737 51.9094 493.656 51.9156 493.557H52.068C52.0636 493.645 52.0362 493.725 51.9858 493.797C51.9354 493.869 51.8683 493.925 51.7843 493.966C51.7012 494.006 51.6119 494.027 51.5165 494.027C51.3282 494.027 51.1788 493.961 51.0683 493.83C50.9587 493.699 50.9039 493.524 50.9039 493.303V493.255C50.9039 493.113 50.9287 492.988 50.9782 492.88C51.0277 492.771 51.0984 492.687 51.1903 492.628C51.2831 492.569 51.3914 492.539 51.5151 492.539C51.6725 492.539 51.802 492.586 51.9036 492.679C52.0062 492.773 52.061 492.896 52.068 493.049H51.9156C51.9085 492.937 51.8678 492.846 51.7936 492.778C51.7202 492.709 51.6274 492.674 51.5151 492.674C51.372 492.674 51.2606 492.726 51.181 492.829C51.1024 492.933 51.063 493.078 51.063 493.264V493.311C51.063 493.494 51.1024 493.636 51.181 493.739C51.2606 493.841 51.3724 493.893 51.5165 493.893ZM52.7131 493.277L52.5314 493.452V494H52.3723V491.963H52.5314V493.267L52.6812 493.105L53.2301 492.565H53.4304L52.8218 493.17L53.4834 494H53.2938L52.7131 493.277ZM54.373 494V492.07H54.9431C55.15 492.07 55.3069 492.112 55.4138 492.198C55.5208 492.283 55.5743 492.409 55.5743 492.575C55.5743 492.675 55.5469 492.762 55.4921 492.836C55.4381 492.909 55.3639 492.962 55.2693 492.994C55.3816 493.018 55.4717 493.074 55.5398 493.159C55.6087 493.245 55.6432 493.344 55.6432 493.456C55.6432 493.627 55.588 493.76 55.4775 493.857C55.3679 493.952 55.2149 494 55.0187 494H54.373ZM54.5361 493.072V493.862H55.0253C55.165 493.862 55.2755 493.827 55.3568 493.756C55.439 493.684 55.4801 493.585 55.4801 493.459C55.4801 493.34 55.4408 493.246 55.3621 493.177C55.2843 493.107 55.1765 493.072 55.0386 493.072H54.5361ZM54.5361 492.935H54.9816C55.1177 492.933 55.2229 492.901 55.2971 492.84C55.3723 492.778 55.4098 492.688 55.4098 492.571C55.4098 492.447 55.371 492.356 55.2932 492.298C55.2163 492.238 55.0996 492.209 54.9431 492.209H54.5361V492.935ZM56.9101 493.818C56.8146 493.957 56.6621 494.027 56.4526 494.027C56.2997 494.027 56.1835 493.982 56.1039 493.894C56.0244 493.805 55.9837 493.673 55.982 493.499V492.565H56.1397V493.479C56.1397 493.752 56.2502 493.889 56.4712 493.889C56.701 493.889 56.8464 493.794 56.9074 493.604V492.565H57.0665V494H56.9127L56.9101 493.818ZM57.7129 492.198V492.565H58.0099V492.695H57.7129V493.651C57.7129 493.731 57.727 493.79 57.7553 493.829C57.7845 493.868 57.8326 493.887 57.8998 493.887C57.9263 493.887 57.9692 493.883 58.0284 493.874L58.035 494.004C57.9935 494.019 57.9369 494.027 57.8653 494.027C57.7566 494.027 57.6775 493.995 57.628 493.932C57.5785 493.869 57.5538 493.775 57.5538 493.653V492.695H57.2899V492.565H57.5538V492.198H57.7129ZM58.5713 492.198V492.565H58.8683V492.695H58.5713V493.651C58.5713 493.731 58.5855 493.79 58.6138 493.829C58.6429 493.868 58.6911 493.887 58.7583 493.887C58.7848 493.887 58.8277 493.883 58.8869 493.874L58.8935 494.004C58.852 494.019 58.7954 494.027 58.7238 494.027C58.6151 494.027 58.536 493.995 58.4865 493.932C58.437 493.869 58.4122 493.775 58.4122 493.653V492.695H58.1484V492.565H58.4122V492.198H58.5713ZM59.0692 493.261C59.0692 493.124 59.0957 492.999 59.1488 492.889C59.2027 492.778 59.2782 492.693 59.3755 492.632C59.4736 492.57 59.5845 492.539 59.7083 492.539C59.8992 492.539 60.0539 492.606 60.1723 492.74C60.2908 492.874 60.35 493.051 60.35 493.272V493.305C60.35 493.444 60.323 493.569 60.2691 493.68C60.2161 493.791 60.1409 493.876 60.0437 493.936C59.9465 493.996 59.8355 494.027 59.7109 494.027C59.5209 494.027 59.3662 493.96 59.2469 493.826C59.1284 493.692 59.0692 493.514 59.0692 493.293V493.261ZM59.2283 493.305C59.2283 493.477 59.2725 493.618 59.3609 493.728C59.4502 493.838 59.5668 493.893 59.7109 493.893C59.8541 493.893 59.9699 493.838 60.0583 493.728C60.1476 493.618 60.1922 493.472 60.1922 493.292V493.261C60.1922 493.152 60.1719 493.052 60.1312 492.961C60.0906 492.869 60.0335 492.799 59.9602 492.75C59.8868 492.699 59.8028 492.674 59.7083 492.674C59.5668 492.674 59.4515 492.73 59.3622 492.841C59.2729 492.952 59.2283 493.097 59.2283 493.276V493.305ZM60.816 492.565L60.8213 492.811C60.8752 492.722 60.9424 492.655 61.0229 492.609C61.1033 492.562 61.1921 492.539 61.2893 492.539C61.4432 492.539 61.5576 492.582 61.6327 492.669C61.7079 492.755 61.7459 492.885 61.7468 493.059V494H61.589V493.057C61.5881 492.929 61.5607 492.834 61.5068 492.771C61.4538 492.708 61.3685 492.677 61.2509 492.677C61.1528 492.677 61.0657 492.708 60.9897 492.77C60.9146 492.831 60.8589 492.913 60.8226 493.018V494H60.6649V492.565H60.816Z" fill="#131313"/>
<path d="M63.784 5.16819L63.7978 5.22197L63.8134 5.16819L64.608 2.95449H64.8422L63.9019 5.48047H63.6972L62.7569 2.95449H62.9894L63.784 5.16819ZM65.3864 5.48047H65.1782V3.60333H65.3864V5.48047ZM65.1418 3.06031C65.1418 3.02099 65.1545 2.98803 65.18 2.96143C65.2054 2.93367 65.2401 2.91979 65.2841 2.91979C65.328 2.91979 65.3627 2.93367 65.3882 2.96143C65.4148 2.98803 65.4281 3.02099 65.4281 3.06031C65.4281 3.09964 65.4148 3.1326 65.3882 3.1592C65.3627 3.1858 65.328 3.1991 65.2841 3.1991C65.2401 3.1991 65.2054 3.1858 65.18 3.1592C65.1545 3.1326 65.1418 3.09964 65.1418 3.06031ZM66.6662 5.51517C66.5066 5.51517 66.362 5.47584 66.2325 5.39719C66.1041 5.31855 66.0041 5.20925 65.9324 5.0693C65.8607 4.9282 65.8248 4.77033 65.8248 4.59568V4.52108C65.8248 4.34065 65.8595 4.17815 65.9289 4.03358C65.9995 3.88901 66.0972 3.77566 66.2221 3.69354C66.347 3.61027 66.4823 3.56863 66.6281 3.56863C66.8559 3.56863 67.0363 3.6467 67.1693 3.80284C67.3035 3.95782 67.3706 4.17006 67.3706 4.43954V4.55578H66.0313V4.59568C66.0313 4.80849 66.092 4.98603 66.2134 5.12829C66.336 5.26939 66.4899 5.33994 66.6749 5.33994C66.7859 5.33994 66.8837 5.3197 66.9681 5.27922C67.0537 5.23874 67.1312 5.17397 67.2006 5.08492L67.3307 5.1838C67.178 5.40471 66.9565 5.51517 66.6662 5.51517ZM66.6281 3.74559C66.4719 3.74559 66.3401 3.80284 66.2325 3.91734C66.1261 4.03185 66.0613 4.18567 66.0382 4.37882H67.1641V4.35627C67.1584 4.17584 67.1069 4.02895 67.0097 3.91561C66.9126 3.80226 66.7854 3.74559 66.6281 3.74559ZM68.2115 5.04848L68.2427 5.20983L68.2843 5.03981L68.7354 3.60333H68.9124L69.3582 5.02767L69.4068 5.22544L69.4467 5.04328L69.8318 3.60333H70.047L69.5005 5.48047H69.3235L68.8412 3.99194L68.8187 3.88959L68.7961 3.99368L68.3225 5.48047H68.1455L67.6008 3.60333H67.8142L68.2115 5.04848ZM71.5118 5.48047H71.3037V2.8157H71.5118V5.48047ZM73.2496 5.48047C73.2288 5.42148 73.2155 5.33416 73.2097 5.2185C73.1369 5.31334 73.0438 5.38679 72.9304 5.43883C72.8182 5.48972 72.6991 5.51517 72.573 5.51517C72.3926 5.51517 72.2463 5.46485 72.1341 5.36423C72.0231 5.26361 71.9676 5.13638 71.9676 4.98256C71.9676 4.79982 72.0433 4.65525 72.1948 4.54884C72.3475 4.44243 72.5597 4.38923 72.8315 4.38923H73.208V4.17584C73.208 4.04168 73.1664 3.93643 73.0831 3.86009C73.001 3.7826 72.8807 3.74386 72.7222 3.74386C72.5777 3.74386 72.458 3.78087 72.3631 3.85489C72.2683 3.92891 72.2209 4.01797 72.2209 4.12206L72.0127 4.12032C72.0127 3.97113 72.0821 3.84217 72.2209 3.73345C72.3597 3.62357 72.5302 3.56863 72.7327 3.56863C72.942 3.56863 73.1068 3.62126 73.2271 3.72651C73.3485 3.8306 73.411 3.97633 73.4145 4.1637V5.05195C73.4145 5.23354 73.4335 5.36944 73.4717 5.45965V5.48047H73.2496ZM72.5973 5.33127C72.7361 5.33127 72.8599 5.29773 72.9686 5.23065C73.0785 5.16356 73.1583 5.07393 73.208 4.96174V4.54884H72.8367C72.6297 4.55115 72.4678 4.58932 72.351 4.66334C72.2342 4.73621 72.1758 4.83683 72.1758 4.96521C72.1758 5.07046 72.2145 5.15778 72.292 5.22718C72.3706 5.29657 72.4724 5.33127 72.5973 5.33127ZM74.1547 3.60333L74.1616 3.92428C74.2322 3.80863 74.3201 3.72072 74.4253 3.66058C74.5306 3.59928 74.6468 3.56863 74.7741 3.56863C74.9753 3.56863 75.1251 3.62531 75.2234 3.73865C75.3217 3.852 75.3714 4.02201 75.3726 4.24871V5.48047H75.1661V4.24697C75.165 4.07927 75.1291 3.95435 75.0586 3.87224C74.9892 3.79012 74.8776 3.74906 74.7237 3.74906C74.5954 3.74906 74.4814 3.78954 74.382 3.8705C74.2837 3.95031 74.2108 4.05845 74.1634 4.19492V5.48047H73.9569V3.60333H74.1547ZM75.8144 4.52455C75.8144 4.23309 75.8792 4.0012 76.0087 3.82887C76.1394 3.65538 76.3164 3.56863 76.5396 3.56863C76.7929 3.56863 76.9861 3.66868 77.1191 3.86877V2.8157H77.3255V5.48047H77.1312L77.1225 5.23065C76.9895 5.42033 76.7941 5.51517 76.5361 5.51517C76.3199 5.51517 76.1452 5.42842 76.0122 5.25493C75.8804 5.08029 75.8144 4.84493 75.8144 4.54884V4.52455ZM76.0244 4.56098C76.0244 4.8004 76.0724 4.9895 76.1684 5.12829C76.2643 5.26592 76.3997 5.33474 76.5743 5.33474C76.8299 5.33474 77.0115 5.22197 77.1191 4.99644V4.11512C77.0115 3.87108 76.8311 3.74906 76.5778 3.74906C76.4031 3.74906 76.2672 3.81788 76.1701 3.95551C76.0729 4.09199 76.0244 4.29381 76.0244 4.56098ZM78.0918 5.48047H77.8836V3.60333H78.0918V5.48047ZM77.8472 3.06031C77.8472 3.02099 77.8599 2.98803 77.8853 2.96143C77.9108 2.93367 77.9455 2.91979 77.9894 2.91979C78.0334 2.91979 78.0681 2.93367 78.0935 2.96143C78.1201 2.98803 78.1334 3.02099 78.1334 3.06031C78.1334 3.09964 78.1201 3.1326 78.0935 3.1592C78.0681 3.1858 78.0334 3.1991 77.9894 3.1991C77.9455 3.1991 77.9108 3.1858 77.8853 3.1592C77.8599 3.1326 77.8472 3.09964 77.8472 3.06031ZM78.8424 3.60333L78.8494 3.92428C78.9199 3.80863 79.0078 3.72072 79.1131 3.66058C79.2183 3.59928 79.3346 3.56863 79.4618 3.56863C79.663 3.56863 79.8128 3.62531 79.9111 3.73865C80.0094 3.852 80.0592 4.02201 80.0603 4.24871V5.48047H79.8539V4.24697C79.8527 4.07927 79.8169 3.95435 79.7463 3.87224C79.6769 3.79012 79.5653 3.74906 79.4115 3.74906C79.2831 3.74906 79.1692 3.78954 79.0697 3.8705C78.9714 3.95031 78.8985 4.05845 78.8511 4.19492V5.48047H78.6447V3.60333H78.8424ZM80.5022 4.52455C80.5022 4.23078 80.5669 3.9983 80.6965 3.82713C80.8272 3.6548 81.0041 3.56863 81.2274 3.56863C81.483 3.56863 81.6773 3.67041 81.8103 3.87397L81.8207 3.60333H82.015V5.4423C82.015 5.68403 81.9473 5.87544 81.812 6.01655C81.6767 6.15765 81.4934 6.2282 81.2621 6.2282C81.1314 6.2282 81.0064 6.19871 80.8873 6.13972C80.7693 6.08189 80.6762 6.0044 80.608 5.90725L80.7242 5.78234C80.8711 5.96276 81.0458 6.05298 81.2482 6.05298C81.4217 6.05298 81.557 6.00151 81.6541 5.89857C81.7513 5.79679 81.8016 5.65511 81.8051 5.47353V5.23759C81.6721 5.42264 81.4783 5.51517 81.2239 5.51517C81.0064 5.51517 80.8318 5.42842 80.7 5.25493C80.5681 5.08145 80.5022 4.84724 80.5022 4.55231V4.52455ZM80.7121 4.56098C80.7121 4.8004 80.7601 4.9895 80.8561 5.12829C80.9521 5.26592 81.0874 5.33474 81.2621 5.33474C81.5177 5.33474 81.6987 5.22024 81.8051 4.99123V4.11859C81.7565 3.9983 81.6865 3.90693 81.5951 3.84448C81.5038 3.78087 81.3939 3.74906 81.2655 3.74906C81.0909 3.74906 80.955 3.81788 80.8578 3.95551C80.7607 4.09199 80.7121 4.29381 80.7121 4.56098ZM84.9042 4.56098C84.9042 4.8536 84.8394 5.08607 84.7099 5.2584C84.5804 5.42958 84.4069 5.51517 84.1894 5.51517C83.9327 5.51517 83.7361 5.42495 83.5996 5.24453V6.20218H83.3931V3.60333H83.5857L83.5961 3.86877C83.7314 3.66868 83.9275 3.56863 84.1842 3.56863C84.4086 3.56863 84.5844 3.65364 84.7116 3.82366C84.84 3.99368 84.9042 4.22962 84.9042 4.53149V4.56098ZM84.696 4.52455C84.696 4.28514 84.6469 4.09604 84.5486 3.95725C84.4502 3.81846 84.3132 3.74906 84.1374 3.74906C84.0102 3.74906 83.9009 3.77971 83.8095 3.84101C83.7181 3.90231 83.6482 3.99137 83.5996 4.10818V5.00858C83.6493 5.11614 83.7204 5.19826 83.813 5.25493C83.9055 5.31161 84.0148 5.33994 84.1409 5.33994C84.3155 5.33994 84.4514 5.27055 84.5486 5.13176C84.6469 4.99181 84.696 4.78941 84.696 4.52455ZM86.5379 5.48047C86.5171 5.42148 86.5038 5.33416 86.498 5.2185C86.4251 5.31334 86.332 5.38679 86.2187 5.43883C86.1065 5.48972 85.9874 5.51517 85.8613 5.51517C85.6809 5.51517 85.5346 5.46485 85.4224 5.36423C85.3114 5.26361 85.2558 5.13638 85.2558 4.98256C85.2558 4.79982 85.3316 4.65525 85.4831 4.54884C85.6358 4.44243 85.848 4.38923 86.1198 4.38923H86.4963V4.17584C86.4963 4.04168 86.4546 3.93643 86.3714 3.86009C86.2892 3.7826 86.169 3.74386 86.0105 3.74386C85.8659 3.74386 85.7462 3.78087 85.6514 3.85489C85.5566 3.92891 85.5091 4.01797 85.5091 4.12206L85.3009 4.12032C85.3009 3.97113 85.3703 3.84217 85.5091 3.73345C85.6479 3.62357 85.8185 3.56863 86.0209 3.56863C86.2303 3.56863 86.3951 3.62126 86.5154 3.72651C86.6368 3.8306 86.6993 3.97633 86.7027 4.1637V5.05195C86.7027 5.23354 86.7218 5.36944 86.76 5.45965V5.48047H86.5379ZM85.8856 5.33127C86.0244 5.33127 86.1481 5.29773 86.2569 5.23065C86.3667 5.16356 86.4465 5.07393 86.4963 4.96174V4.54884H86.125C85.918 4.55115 85.7561 4.58932 85.6392 4.66334C85.5224 4.73621 85.464 4.83683 85.464 4.96521C85.464 5.07046 85.5028 5.15778 85.5803 5.22718C85.6589 5.29657 85.7607 5.33127 85.8856 5.33127ZM87.1619 4.52455C87.1619 4.23078 87.2267 3.9983 87.3562 3.82713C87.4869 3.6548 87.6639 3.56863 87.8871 3.56863C88.1427 3.56863 88.337 3.67041 88.47 3.87397L88.4804 3.60333H88.6747V5.4423C88.6747 5.68403 88.6071 5.87544 88.4718 6.01655C88.3364 6.15765 88.1531 6.2282 87.9218 6.2282C87.7911 6.2282 87.6662 6.19871 87.5471 6.13972C87.4291 6.08189 87.336 6.0044 87.2678 5.90725L87.384 5.78234C87.5309 5.96276 87.7055 6.05298 87.9079 6.05298C88.0814 6.05298 88.2167 6.00151 88.3139 5.89857C88.411 5.79679 88.4613 5.65511 88.4648 5.47353V5.23759C88.3318 5.42264 88.1381 5.51517 87.8836 5.51517C87.6662 5.51517 87.4916 5.42842 87.3597 5.25493C87.2279 5.08145 87.1619 4.84724 87.1619 4.55231V4.52455ZM87.3718 4.56098C87.3718 4.8004 87.4198 4.9895 87.5158 5.12829C87.6118 5.26592 87.7472 5.33474 87.9218 5.33474C88.1774 5.33474 88.3584 5.22024 88.4648 4.99123V4.11859C88.4162 3.9983 88.3463 3.90693 88.2549 3.84448C88.1635 3.78087 88.0537 3.74906 87.9253 3.74906C87.7506 3.74906 87.6147 3.81788 87.5176 3.95551C87.4204 4.09199 87.3718 4.29381 87.3718 4.56098ZM89.9302 5.51517C89.7706 5.51517 89.6261 5.47584 89.4965 5.39719C89.3681 5.31855 89.2681 5.20925 89.1964 5.0693C89.1247 4.9282 89.0888 4.77033 89.0888 4.59568V4.52108C89.0888 4.34065 89.1235 4.17815 89.1929 4.03358C89.2635 3.88901 89.3612 3.77566 89.4861 3.69354C89.611 3.61027 89.7463 3.56863 89.8921 3.56863C90.1199 3.56863 90.3004 3.6467 90.4334 3.80284C90.5675 3.95782 90.6346 4.17006 90.6346 4.43954V4.55578H89.2953V4.59568C89.2953 4.80849 89.356 4.98603 89.4774 5.12829C89.6 5.26939 89.7539 5.33994 89.9389 5.33994C90.05 5.33994 90.1477 5.3197 90.2321 5.27922C90.3177 5.23874 90.3952 5.17397 90.4646 5.08492L90.5947 5.1838C90.442 5.40471 90.2205 5.51517 89.9302 5.51517ZM89.8921 3.74559C89.7359 3.74559 89.6041 3.80284 89.4965 3.91734C89.3901 4.03185 89.3254 4.18567 89.3022 4.37882H90.4282V4.35627C90.4224 4.17584 90.3709 4.02895 90.2738 3.91561C90.1766 3.80226 90.0494 3.74559 89.8921 3.74559Z" fill="#131313"/>
<path fill-rule="evenodd" clip-rule="evenodd" d="M50.5817 6.49589C50.5817 7.39757 41.7467 8.12851 30.8484 8.12851C19.95 8.12851 11.1152 7.39757 11.1152 6.49589C11.1152 5.59422 19.95 4.86328 30.8484 4.86328C41.7467 4.86328 50.5817 5.59422 50.5817 6.49589Z" fill="#4B75F7"/>
<path fill-rule="evenodd" clip-rule="evenodd" d="M47.1999 340.991C47.1999 341.981 39.9807 342.784 31.0753 342.784C22.1698 342.784 14.9507 341.981 14.9507 340.991C14.9507 340.002 22.1698 339.199 31.0753 339.199C39.9807 339.199 47.1999 340.002 47.1999 340.991Z" fill="#2F54BD"/>
<path d="M61.808 339.35C61.7763 339.642 61.6716 339.866 61.4938 340.021C61.3173 340.175 61.0818 340.253 60.7873 340.253C60.5816 340.253 60.3994 340.202 60.2407 340.099C60.0833 339.996 59.9614 339.85 59.875 339.663C59.7887 339.473 59.7449 339.258 59.7436 339.015V338.655C59.7436 338.409 59.7868 338.19 59.8731 338C59.9595 337.81 60.0833 337.663 60.2445 337.56C60.407 337.456 60.5936 337.404 60.8044 337.404C61.1015 337.404 61.3357 337.484 61.5071 337.646C61.6798 337.806 61.7801 338.027 61.808 338.31H61.5719C61.5135 337.839 61.2577 337.604 60.8044 337.604C60.553 337.604 60.3524 337.698 60.2026 337.886C60.054 338.074 59.9798 338.333 59.9798 338.665V339.004C59.9798 339.324 60.0521 339.579 60.1969 339.769C60.3429 339.96 60.5397 340.055 60.7873 340.055C61.0323 340.055 61.217 339.996 61.3415 339.88C61.4659 339.762 61.5427 339.585 61.5719 339.35H61.808ZM62.5654 340.215H62.3369V337.29H62.5654V340.215ZM63.4275 340.215H63.199V338.154H63.4275V340.215ZM63.159 337.558C63.159 337.515 63.173 337.479 63.2009 337.45C63.2288 337.419 63.2669 337.404 63.3152 337.404C63.3634 337.404 63.4015 337.419 63.4294 337.45C63.4586 337.479 63.4732 337.515 63.4732 337.558C63.4732 337.601 63.4586 337.637 63.4294 337.667C63.4015 337.696 63.3634 337.71 63.3152 337.71C63.2669 337.71 63.2288 337.696 63.2009 337.667C63.173 337.637 63.159 337.601 63.159 337.558ZM64.7962 340.061C64.9549 340.061 65.0876 340.016 65.1943 339.927C65.3022 339.837 65.3606 339.721 65.3695 339.579H65.5885C65.5821 339.704 65.5428 339.819 65.4704 339.923C65.3981 340.026 65.3016 340.107 65.1809 340.165C65.0616 340.224 64.9334 340.253 64.7962 340.253C64.5258 340.253 64.3112 340.159 64.1525 339.971C63.9951 339.783 63.9164 339.531 63.9164 339.213V339.145C63.9164 338.941 63.9519 338.762 64.023 338.606C64.0941 338.449 64.1957 338.329 64.3277 338.244C64.4611 338.159 64.6166 338.116 64.7943 338.116C65.0203 338.116 65.2063 338.183 65.3523 338.318C65.4996 338.453 65.5783 338.63 65.5885 338.849H65.3695C65.3593 338.688 65.3009 338.558 65.1943 338.459C65.0889 338.36 64.9556 338.31 64.7943 338.31C64.5887 338.31 64.4287 338.385 64.3144 338.533C64.2014 338.682 64.1449 338.89 64.1449 339.158V339.225C64.1449 339.487 64.2014 339.692 64.3144 339.84C64.4287 339.987 64.5893 340.061 64.7962 340.061ZM66.5211 339.177L66.2602 339.428V340.215H66.0316V337.29H66.2602V339.162L66.4754 338.929L67.2638 338.154H67.5514L66.6772 339.023L67.6276 340.215H67.3552L66.5211 339.177ZM68.9176 340.215V337.442H69.7365C70.0336 337.442 70.259 337.504 70.4126 337.627C70.5662 337.749 70.643 337.929 70.643 338.168C70.643 338.311 70.6037 338.436 70.5249 338.543C70.4475 338.648 70.3408 338.724 70.205 338.769C70.3662 338.805 70.4957 338.884 70.5935 339.007C70.6925 339.131 70.7421 339.273 70.7421 339.434C70.7421 339.679 70.6627 339.871 70.504 340.009C70.3466 340.146 70.1269 340.215 69.8451 340.215H68.9176ZM69.1518 338.882V340.017H69.8546C70.0552 340.017 70.2139 339.966 70.3307 339.864C70.4488 339.762 70.5078 339.619 70.5078 339.438C70.5078 339.266 70.4513 339.131 70.3383 339.032C70.2266 338.932 70.0717 338.882 69.8736 338.882H69.1518ZM69.1518 338.686H69.7917C69.9873 338.682 70.1383 338.636 70.245 338.548C70.3529 338.46 70.4069 338.331 70.4069 338.162C70.4069 337.984 70.351 337.853 70.2393 337.77C70.1288 337.684 69.9612 337.642 69.7365 337.642H69.1518V338.686ZM72.5678 339.954C72.4307 340.153 72.2117 340.253 71.9108 340.253C71.6911 340.253 71.5242 340.189 71.4099 340.062C71.2956 339.934 71.2372 339.745 71.2347 339.495V338.154H71.4613V339.466C71.4613 339.859 71.62 340.055 71.9374 340.055C72.2676 340.055 72.4764 339.918 72.564 339.645V338.154H72.7925V340.215H72.5716L72.5678 339.954ZM73.727 337.627V338.154H74.1536V338.341H73.727V339.714C73.727 339.828 73.7473 339.913 73.788 339.969C73.8299 340.025 73.8991 340.053 73.9956 340.053C74.0337 340.053 74.0952 340.047 74.1803 340.034L74.1898 340.221C74.1301 340.242 74.0489 340.253 73.946 340.253C73.7899 340.253 73.6762 340.208 73.6051 340.118C73.534 340.026 73.4985 339.892 73.4985 339.716V338.341H73.1195V338.154H73.4985V337.627H73.727ZM74.9662 337.627V338.154H75.3928V338.341H74.9662V339.714C74.9662 339.828 74.9865 339.913 75.0272 339.969C75.0691 340.025 75.1383 340.053 75.2348 340.053C75.2729 340.053 75.3344 340.047 75.4195 340.034L75.429 340.221C75.3693 340.242 75.2881 340.253 75.1852 340.253C75.0291 340.253 74.9154 340.208 74.8443 340.118C74.7732 340.026 74.7377 339.892 74.7377 339.716V338.341H74.3587V338.154H74.7377V337.627H74.9662ZM75.6874 339.154C75.6874 338.956 75.7255 338.778 75.8017 338.619C75.8791 338.46 75.9877 338.337 76.1274 338.249C76.2683 338.161 76.4276 338.116 76.6054 338.116C76.8796 338.116 77.1018 338.213 77.2719 338.406C77.4421 338.597 77.5271 338.852 77.5271 339.169V339.217C77.5271 339.416 77.4884 339.596 77.411 339.756C77.3348 339.915 77.2269 340.037 77.0872 340.123C76.9475 340.21 76.7882 340.253 76.6092 340.253C76.3362 340.253 76.114 340.157 75.9426 339.965C75.7725 339.772 75.6874 339.517 75.6874 339.2V339.154ZM75.916 339.217C75.916 339.463 75.9794 339.666 76.1064 339.824C76.2346 339.982 76.4022 340.061 76.6092 340.061C76.8149 340.061 76.9812 339.982 77.1081 339.824C77.2364 339.666 77.3005 339.457 77.3005 339.198V339.154C77.3005 338.997 77.2713 338.853 77.2129 338.722C77.1545 338.591 77.0726 338.49 76.9672 338.419C76.8618 338.347 76.7412 338.31 76.6054 338.31C76.4022 338.31 76.2365 338.39 76.1083 338.55C75.9801 338.709 75.916 338.917 75.916 339.175V339.217ZM78.2026 338.154L78.2102 338.507C78.2877 338.38 78.3842 338.283 78.4997 338.217C78.6152 338.15 78.7428 338.116 78.8825 338.116C79.1034 338.116 79.2678 338.178 79.3757 338.303C79.4837 338.427 79.5383 338.614 79.5395 338.863V340.215H79.3129V338.861C79.3116 338.677 79.2723 338.54 79.1948 338.449C79.1186 338.359 78.9961 338.314 78.8273 338.314C78.6863 338.314 78.5613 338.359 78.4521 338.448C78.3442 338.535 78.2642 338.654 78.2121 338.804V340.215H77.9855V338.154H78.2026Z" fill="#131313"/>
<path d="M61.9337 0C60.9932 2.60096 60.0536 5.22152 59.115 7.86167C40.5284 8.24092 21.9285 8.24092 3.31529 7.86167C2.37794 5.22215 1.43836 2.6016 0.496582 0H61.9337Z" fill="url(#paint0_linear_289_154)"/>
<path d="M26.621 5.14242H27.3215V5.48047H26.1947V3.35474H26.621V5.14242ZM27.4829 4.63079C27.4829 4.46024 27.5164 4.30898 27.5834 4.17701C27.6524 4.04504 27.7448 3.94353 27.8605 3.87247C27.9783 3.80141 28.1092 3.76588 28.2534 3.76588C28.3792 3.76588 28.4889 3.79126 28.5823 3.84201C28.6777 3.89277 28.7538 3.95673 28.8107 4.03388V3.79329H29.2401V5.48047H28.8107V5.23379C28.7559 5.31297 28.6797 5.37895 28.5823 5.43174C28.4868 5.4825 28.3762 5.50788 28.2503 5.50788C28.1082 5.50788 27.9783 5.47133 27.8605 5.39824C27.7448 5.32515 27.6524 5.22262 27.5834 5.09065C27.5164 4.95665 27.4829 4.80336 27.4829 4.63079ZM28.8107 4.63688C28.8107 4.53333 28.7904 4.44501 28.7498 4.37192C28.7092 4.2968 28.6543 4.23995 28.5853 4.20138C28.5163 4.16077 28.4422 4.14047 28.363 4.14047C28.2838 4.14047 28.2107 4.15976 28.1437 4.19833C28.0767 4.23691 28.0219 4.29376 27.9793 4.36888C27.9387 4.44197 27.9184 4.52927 27.9184 4.63079C27.9184 4.7323 27.9387 4.82164 27.9793 4.89879C28.0219 4.97391 28.0767 5.03177 28.1437 5.07238C28.2128 5.11298 28.2858 5.13329 28.363 5.13329C28.4422 5.13329 28.5163 5.114 28.5853 5.07542C28.6543 5.03482 28.7092 4.97797 28.7498 4.90488C28.7904 4.82976 28.8107 4.74042 28.8107 4.63688ZM31.2706 3.79329L30.226 6.27838H29.7722L30.1377 5.43783L29.4616 3.79329H29.9397L30.3752 4.97188L30.8168 3.79329H31.2706ZM33.0688 4.60033C33.0688 4.66124 33.0648 4.71606 33.0567 4.76479H31.8233C31.8334 4.88661 31.876 4.98203 31.9512 5.05106C32.0263 5.12009 32.1187 5.15461 32.2283 5.15461C32.3867 5.15461 32.4993 5.08659 32.5663 4.95056H33.0262C32.9775 5.11298 32.8841 5.24698 32.746 5.35256C32.608 5.45611 32.4384 5.50788 32.2374 5.50788C32.075 5.50788 31.9288 5.47235 31.7989 5.40129C31.671 5.3282 31.5705 5.22567 31.4974 5.0937C31.4263 4.96173 31.3908 4.80945 31.3908 4.63688C31.3908 4.46227 31.4263 4.30898 31.4974 4.17701C31.5684 4.04504 31.6679 3.94353 31.7958 3.87247C31.9238 3.80141 32.0709 3.76588 32.2374 3.76588C32.3978 3.76588 32.541 3.80039 32.6668 3.86942C32.7948 3.93845 32.8932 4.03692 32.9623 4.16483C33.0333 4.29071 33.0688 4.43588 33.0688 4.60033ZM32.6273 4.47851C32.6252 4.36888 32.5856 4.28158 32.5085 4.21661C32.4313 4.14961 32.3369 4.11611 32.2253 4.11611C32.1197 4.11611 32.0303 4.14859 31.9573 4.21356C31.8862 4.2765 31.8425 4.36482 31.8263 4.47851H32.6273ZM33.8064 4.0552C33.8612 3.96586 33.9323 3.89582 34.0196 3.84506C34.1089 3.7943 34.2104 3.76892 34.3241 3.76892V4.21661H34.2115C34.0775 4.21661 33.9759 4.24808 33.9069 4.31101C33.8399 4.37395 33.8064 4.48359 33.8064 4.63992V5.48047H33.3801V3.79329H33.8064V4.0552ZM35.2365 3.6532V3.26033H35.9704V5.48047H35.5319V3.6532H35.2365Z" fill="white"/>
<path d="M56.2681 334.73C55.3719 337.265 54.4757 339.817 53.5795 342.387C38.5289 343.04 23.4184 343.04 8.36779 342.387C7.47159 339.82 6.5754 337.268 5.6792 334.73C22.5259 335.22 39.4214 335.22 56.2681 334.73Z" fill="url(#paint1_linear_289_154)"/>
<path d="M25.6652 340.09H26.4342V340.461H25.1972V338.127H25.6652V340.09ZM26.6113 339.528C26.6113 339.341 26.6481 339.175 26.7216 339.03C26.7974 338.885 26.8988 338.774 27.0258 338.696C27.1551 338.618 27.2989 338.579 27.4571 338.579C27.5953 338.579 27.7156 338.607 27.8182 338.662C27.9229 338.718 28.0065 338.788 28.0689 338.873V338.609H28.5403V340.461H28.0689V340.19C28.0087 340.277 27.9251 340.349 27.8182 340.407C27.7134 340.463 27.5919 340.491 27.4538 340.491C27.2978 340.491 27.1551 340.451 27.0258 340.371C26.8988 340.29 26.7974 340.178 26.7216 340.033C26.6481 339.886 26.6113 339.718 26.6113 339.528ZM28.0689 339.535C28.0689 339.421 28.0466 339.324 28.002 339.244C27.9575 339.162 27.8973 339.099 27.8215 339.057C27.7457 339.012 27.6644 338.99 27.5775 338.99C27.4905 338.99 27.4103 339.011 27.3368 339.053C27.2632 339.096 27.203 339.158 27.1562 339.241C27.1117 339.321 27.0894 339.417 27.0894 339.528C27.0894 339.64 27.1117 339.738 27.1562 339.822C27.203 339.905 27.2632 339.968 27.3368 340.013C27.4125 340.058 27.4928 340.08 27.5775 340.08C27.6644 340.08 27.7457 340.059 27.8215 340.016C27.8973 339.972 27.9575 339.909 28.002 339.829C28.0466 339.747 28.0689 339.649 28.0689 339.535ZM30.7693 338.609L29.6226 341.337H29.1244L29.5256 340.414L28.7834 338.609H29.3083L29.7864 339.903L30.2711 338.609H30.7693ZM32.7433 339.495C32.7433 339.562 32.7388 339.622 32.7299 339.675H31.3759C31.3871 339.809 31.4339 339.914 31.5163 339.99C31.5988 340.065 31.7002 340.103 31.8206 340.103C31.9944 340.103 32.1181 340.029 32.1917 339.879H32.6965C32.643 340.058 32.5405 340.205 32.3889 340.321C32.2373 340.434 32.0512 340.491 31.8306 340.491C31.6523 340.491 31.4918 340.452 31.3492 340.374C31.2088 340.294 31.0985 340.181 31.0182 340.036C30.9402 339.891 30.9012 339.724 30.9012 339.535C30.9012 339.343 30.9402 339.175 31.0182 339.03C31.0962 338.885 31.2054 338.774 31.3458 338.696C31.4863 338.618 31.6478 338.579 31.8306 338.579C32.0067 338.579 32.1638 338.617 32.302 338.692C32.4424 338.768 32.5505 338.876 32.6263 339.017C32.7043 339.155 32.7433 339.314 32.7433 339.495ZM32.2585 339.361C32.2563 339.241 32.2128 339.145 32.1281 339.074C32.0434 339 31.9398 338.963 31.8172 338.963C31.7013 338.963 31.6033 338.999 31.523 339.07C31.445 339.139 31.3971 339.236 31.3793 339.361H32.2585ZM33.5529 338.896C33.6131 338.798 33.6911 338.721 33.787 338.666C33.885 338.61 33.9965 338.582 34.1213 338.582V339.074H33.9976C33.8505 339.074 33.739 339.108 33.6633 339.177C33.5897 339.246 33.5529 339.367 33.5529 339.538V340.461H33.0849V338.609H33.5529V338.896ZM35.3267 339.933C35.5407 339.754 35.7112 339.606 35.8382 339.488C35.9653 339.368 36.0711 339.243 36.1558 339.114C36.2405 338.984 36.2829 338.857 36.2829 338.733C36.2829 338.619 36.2561 338.53 36.2026 338.465C36.1491 338.4 36.0667 338.368 35.9552 338.368C35.8438 338.368 35.758 338.406 35.6978 338.482C35.6376 338.555 35.6064 338.657 35.6042 338.786H35.1495C35.1585 338.519 35.2376 338.316 35.3869 338.178C35.5385 338.039 35.7301 337.97 35.9619 337.97C36.216 337.97 36.411 338.038 36.547 338.174C36.6829 338.308 36.7509 338.485 36.7509 338.706C36.7509 338.88 36.7041 339.046 36.6105 339.204C36.5169 339.362 36.4099 339.5 36.2896 339.618C36.1692 339.734 36.0121 339.875 35.8182 340.04H36.8044V340.428H35.1529V340.08L35.3267 339.933Z" fill="white"/>
<path d="M51.0989 387.805C50.2463 390.26 49.3937 392.726 48.5412 395.201C36.7619 395.872 24.9541 395.872 13.1749 395.201C12.3229 392.726 11.4703 390.261 10.6172 387.805C24.0907 388.462 37.6219 388.462 51.0989 387.805Z" fill="url(#paint2_linear_289_154)"/>
<path d="M26.6478 392.212H27.3095V392.531H26.2451V390.523H26.6478V392.212ZM27.4619 391.729C27.4619 391.568 27.4935 391.425 27.5568 391.3C27.622 391.175 27.7093 391.079 27.8186 391.012C27.9298 390.945 28.0535 390.912 28.1897 390.912C28.3086 390.912 28.4122 390.936 28.5004 390.984C28.5905 391.032 28.6625 391.092 28.7161 391.165V390.938H29.1218V392.531H28.7161V392.298C28.6644 392.373 28.5924 392.435 28.5004 392.485C28.4103 392.533 28.3057 392.557 28.1868 392.557C28.0526 392.557 27.9298 392.523 27.8186 392.454C27.7093 392.385 27.622 392.288 27.5568 392.163C27.4935 392.036 27.4619 391.892 27.4619 391.729ZM28.7161 391.734C28.7161 391.637 28.697 391.553 28.6586 391.484C28.6203 391.413 28.5685 391.359 28.5033 391.323C28.4381 391.285 28.3681 391.265 28.2933 391.265C28.2185 391.265 28.1494 391.284 28.0861 391.32C28.0229 391.357 27.9711 391.41 27.9308 391.481C27.8924 391.55 27.8733 391.633 27.8733 391.729C27.8733 391.825 27.8924 391.909 27.9308 391.982C27.9711 392.053 28.0229 392.107 28.0861 392.146C28.1513 392.184 28.2204 392.203 28.2933 392.203C28.3681 392.203 28.4381 392.185 28.5033 392.149C28.5685 392.11 28.6203 392.057 28.6586 391.988C28.697 391.917 28.7161 391.832 28.7161 391.734ZM31.0398 390.938L30.0531 393.285H29.6244L29.9696 392.491L29.331 390.938H29.7827L30.194 392.051L30.6112 390.938H31.0398ZM32.7384 391.7C32.7384 391.757 32.7346 391.809 32.7269 391.855H31.5618C31.5714 391.97 31.6117 392.06 31.6827 392.126C31.7536 392.191 31.8409 392.223 31.9444 392.223C32.094 392.223 32.2005 392.159 32.2638 392.031H32.6981C32.6521 392.184 32.5639 392.311 32.4335 392.41C32.3031 392.508 32.1429 392.557 31.9531 392.557C31.7996 392.557 31.6616 392.524 31.5388 392.456C31.418 392.387 31.3231 392.291 31.254 392.166C31.1869 392.041 31.1533 391.897 31.1533 391.734C31.1533 391.569 31.1869 391.425 31.254 391.3C31.3211 391.175 31.4151 391.079 31.5359 391.012C31.6568 390.945 31.7958 390.912 31.9531 390.912C32.1046 390.912 32.2398 390.944 32.3587 391.009C32.4795 391.075 32.5725 391.168 32.6377 391.288C32.7049 391.407 32.7384 391.545 32.7384 391.7ZM32.3213 391.585C32.3194 391.481 32.282 391.399 32.2091 391.337C32.1362 391.274 32.047 391.242 31.9416 391.242C31.8418 391.242 31.7575 391.273 31.6884 391.335C31.6213 391.394 31.5801 391.477 31.5647 391.585H32.3213ZM33.4351 391.185C33.4869 391.101 33.554 391.034 33.6365 390.986C33.7209 390.938 33.8168 390.915 33.9242 390.915V391.337H33.8177C33.6912 391.337 33.5953 391.367 33.5301 391.427C33.4668 391.486 33.4351 391.59 33.4351 391.737V392.531H33.0324V390.938H33.4351V391.185ZM34.8406 390.986C34.8502 390.795 34.9174 390.647 35.042 390.543C35.1686 390.438 35.3345 390.385 35.5397 390.385C35.6797 390.385 35.7996 390.41 35.8993 390.46C35.999 390.508 36.0738 390.574 36.1237 390.658C36.1755 390.741 36.2013 390.835 36.2013 390.94C36.2013 391.061 36.1697 391.164 36.1064 391.248C36.045 391.331 35.9712 391.386 35.8849 391.415V391.427C35.9961 391.461 36.0824 391.522 36.1438 391.611C36.2071 391.699 36.2387 391.812 36.2387 391.95C36.2387 392.065 36.2119 392.168 36.1582 392.258C36.1064 392.348 36.0287 392.419 35.9252 392.471C35.8235 392.521 35.7008 392.546 35.557 392.546C35.3402 392.546 35.1638 392.491 35.0276 392.382C34.8915 392.272 34.8195 392.111 34.8119 391.898H35.2031C35.2069 391.992 35.2386 392.068 35.298 392.126C35.3594 392.181 35.4428 392.209 35.5483 392.209C35.6461 392.209 35.7209 392.182 35.7727 392.129C35.8264 392.073 35.8533 392.002 35.8533 391.916C35.8533 391.801 35.8168 391.718 35.7439 391.668C35.6711 391.618 35.5579 391.593 35.4045 391.593H35.3211V391.263H35.4045C35.6768 391.263 35.813 391.172 35.813 390.989C35.813 390.907 35.788 390.843 35.7382 390.797C35.6902 390.751 35.6202 390.728 35.5282 390.728C35.438 390.728 35.368 390.752 35.3182 390.802C35.2702 390.85 35.2424 390.912 35.2348 390.986H34.8406Z" fill="white"/>
<path d="M46.0545 440.384C45.2806 442.637 44.5064 444.895 43.7319 447.158C35.3679 447.669 26.9805 447.669 18.6165 447.158C17.842 444.894 17.0679 442.636 16.2939 440.383C26.2054 440.972 36.143 440.972 46.0545 440.384Z" fill="url(#paint3_linear_289_154)"/>
<path d="M43.6392 488.767C42.9987 490.631 42.358 492.5 41.7171 494.373C34.7951 494.796 27.8538 494.796 20.9319 494.373C20.2909 492.499 19.6502 490.63 19.0098 488.766C27.2123 489.253 35.4366 489.254 43.6392 488.767Z" fill="url(#paint4_linear_289_154)"/>
<path d="M26.3925 444.462H27.0541V444.781H25.9898V442.773H26.3925V444.462ZM27.2066 443.979C27.2066 443.818 27.2382 443.675 27.3015 443.55C27.3667 443.425 27.454 443.329 27.5633 443.262C27.6745 443.195 27.7982 443.162 27.9344 443.162C28.0533 443.162 28.1569 443.186 28.2451 443.234C28.3352 443.282 28.4071 443.342 28.4608 443.415V443.188H28.8664V444.781H28.4608V444.548C28.409 444.623 28.3371 444.685 28.2451 444.735C28.1549 444.783 28.0504 444.807 27.9315 444.807C27.7973 444.807 27.6745 444.773 27.5633 444.704C27.454 444.635 27.3667 444.538 27.3015 444.413C27.2382 444.286 27.2066 444.142 27.2066 443.979ZM28.4608 443.984C28.4608 443.887 28.4416 443.803 28.4033 443.734C28.3649 443.663 28.3132 443.609 28.2479 443.573C28.1827 443.535 28.1127 443.515 28.0379 443.515C27.9632 443.515 27.8941 443.534 27.8308 443.57C27.7675 443.607 27.7158 443.66 27.6755 443.731C27.6371 443.8 27.6179 443.883 27.6179 443.979C27.6179 444.075 27.6371 444.159 27.6755 444.232C27.7158 444.303 27.7675 444.357 27.8308 444.396C27.896 444.434 27.9651 444.453 28.0379 444.453C28.1127 444.453 28.1827 444.435 28.2479 444.399C28.3132 444.36 28.3649 444.307 28.4033 444.238C28.4416 444.167 28.4608 444.082 28.4608 443.984ZM30.7845 443.188L29.7977 445.535H29.3691L29.7143 444.741L29.0757 443.188H29.5273L29.9387 444.301L30.3558 443.188H30.7845ZM32.4831 443.95C32.4831 444.007 32.4793 444.059 32.4716 444.105H31.3065C31.3161 444.22 31.3564 444.31 31.4273 444.376C31.4983 444.441 31.5856 444.473 31.6891 444.473C31.8387 444.473 31.9451 444.409 32.0084 444.281H32.4428C32.3968 444.434 32.3086 444.561 32.1782 444.66C32.0477 444.758 31.8876 444.807 31.6977 444.807C31.5443 444.807 31.4062 444.774 31.2835 444.706C31.1627 444.637 31.0677 444.541 30.9987 444.416C30.9316 444.291 30.898 444.147 30.898 443.984C30.898 443.819 30.9316 443.675 30.9987 443.55C31.0658 443.425 31.1598 443.329 31.2806 443.262C31.4014 443.195 31.5405 443.162 31.6977 443.162C31.8493 443.162 31.9845 443.194 32.1034 443.259C32.2242 443.325 32.3172 443.418 32.3824 443.538C32.4495 443.657 32.4831 443.795 32.4831 443.95ZM32.066 443.835C32.0641 443.731 32.0267 443.649 31.9538 443.587C31.8809 443.524 31.7917 443.492 31.6862 443.492C31.5865 443.492 31.5021 443.523 31.4331 443.585C31.366 443.644 31.3247 443.727 31.3094 443.835H32.066ZM33.1798 443.435C33.2316 443.351 33.2987 443.284 33.3812 443.236C33.4656 443.188 33.5615 443.165 33.6689 443.165V443.587H33.5624C33.4358 443.587 33.3399 443.617 33.2747 443.677C33.2115 443.736 33.1798 443.84 33.1798 443.987V444.781H32.7771V443.188H33.1798V443.435ZM34.5623 444.373V444.056L35.503 442.71H35.9719V444.022H36.2251V444.373H35.9719V444.781H35.5692V444.373H34.5623ZM35.5951 443.142L35.0053 444.022H35.5951V443.142Z" fill="white"/>
<path d="M50.1513 444.014C50.1196 444.306 50.0148 444.53 49.8371 444.685C49.6606 444.84 49.4251 444.917 49.1305 444.917C48.9248 444.917 48.7427 444.866 48.5839 444.763C48.4265 444.66 48.3046 444.515 48.2183 444.327C48.132 444.137 48.0882 443.922 48.0869 443.679V443.319C48.0869 443.073 48.1301 442.854 48.2164 442.664C48.3027 442.474 48.4265 442.327 48.5878 442.224C48.7503 442.12 48.9369 442.068 49.1477 442.068C49.4448 442.068 49.679 442.149 49.8504 442.31C50.0231 442.47 50.1234 442.691 50.1513 442.974H49.9152C49.8568 442.503 49.6009 442.268 49.1477 442.268C48.8963 442.268 48.6957 442.362 48.5459 442.55C48.3973 442.738 48.323 442.997 48.323 443.329V443.668C48.323 443.988 48.3954 444.243 48.5401 444.433C48.6862 444.624 48.8829 444.719 49.1305 444.719C49.3756 444.719 49.5603 444.661 49.6847 444.544C49.8091 444.426 49.886 444.249 49.9152 444.014H50.1513ZM50.9087 444.879H50.6802V441.954H50.9087V444.879ZM51.7708 444.879H51.5423V442.818H51.7708V444.879ZM51.5023 442.222C51.5023 442.179 51.5162 442.143 51.5442 442.114C51.5721 442.083 51.6102 442.068 51.6584 442.068C51.7067 442.068 51.7448 442.083 51.7727 442.114C51.8019 442.143 51.8165 442.179 51.8165 442.222C51.8165 442.265 51.8019 442.302 51.7727 442.331C51.7448 442.36 51.7067 442.375 51.6584 442.375C51.6102 442.375 51.5721 442.36 51.5442 442.331C51.5162 442.302 51.5023 442.265 51.5023 442.222ZM53.1395 444.725C53.2982 444.725 53.4309 444.68 53.5375 444.591C53.6455 444.501 53.7039 444.385 53.7127 444.243H53.9318C53.9254 444.369 53.8861 444.483 53.8137 444.588C53.7413 444.69 53.6448 444.771 53.5242 444.829C53.4049 444.888 53.2766 444.917 53.1395 444.917C52.8691 444.917 52.6545 444.823 52.4958 444.635C52.3384 444.447 52.2596 444.195 52.2596 443.877V443.809C52.2596 443.605 52.2952 443.426 52.3663 443.27C52.4374 443.113 52.539 442.993 52.671 442.908C52.8043 442.823 52.9599 442.78 53.1376 442.78C53.3636 442.78 53.5496 442.847 53.6956 442.982C53.8429 443.117 53.9216 443.294 53.9318 443.513H53.7127C53.7026 443.352 53.6442 443.222 53.5375 443.123C53.4322 443.024 53.2988 442.974 53.1376 442.974C52.9319 442.974 52.7719 443.049 52.6577 443.197C52.5447 443.346 52.4882 443.554 52.4882 443.822V443.889C52.4882 444.151 52.5447 444.356 52.6577 444.504C52.7719 444.651 52.9326 444.725 53.1395 444.725ZM54.8643 443.841L54.6034 444.092V444.879H54.3749V441.954H54.6034V443.826L54.8186 443.593L55.6071 442.818H55.8946L55.0205 443.687L55.9708 444.879H55.6985L54.8643 443.841ZM57.2608 444.879V442.106H58.0798C58.3769 442.106 58.6022 442.168 58.7558 442.291C58.9095 442.413 58.9863 442.593 58.9863 442.832C58.9863 442.975 58.9469 443.1 58.8682 443.207C58.7908 443.312 58.6841 443.388 58.5483 443.433C58.7095 443.469 58.839 443.548 58.9368 443.671C59.0358 443.795 59.0853 443.937 59.0853 444.098C59.0853 444.343 59.006 444.535 58.8473 444.673C58.6898 444.81 58.4702 444.879 58.1883 444.879H57.2608ZM57.4951 443.546V444.681H58.1978C58.3984 444.681 58.5571 444.63 58.674 444.528C58.792 444.426 58.8511 444.283 58.8511 444.102C58.8511 443.93 58.7946 443.795 58.6816 443.696C58.5698 443.596 58.4149 443.546 58.2169 443.546H57.4951ZM57.4951 443.35H58.135C58.3305 443.346 58.4816 443.3 58.5883 443.213C58.6962 443.124 58.7501 442.995 58.7501 442.826C58.7501 442.648 58.6943 442.517 58.5825 442.434C58.4721 442.349 58.3045 442.306 58.0798 442.306H57.4951V443.35ZM60.9111 444.618C60.774 444.817 60.5549 444.917 60.254 444.917C60.0344 444.917 59.8674 444.854 59.7532 444.727C59.6389 444.598 59.5805 444.409 59.578 444.159V442.818H59.8046V444.13C59.8046 444.523 59.9633 444.719 60.2807 444.719C60.6108 444.719 60.8197 444.582 60.9073 444.309V442.818H61.1358V444.879H60.9149L60.9111 444.618ZM62.0703 442.291V442.818H62.4969V443.005H62.0703V444.378C62.0703 444.492 62.0906 444.577 62.1312 444.633C62.1731 444.689 62.2423 444.717 62.3388 444.717C62.3769 444.717 62.4385 444.711 62.5236 444.698L62.5331 444.885C62.4734 444.906 62.3921 444.917 62.2893 444.917C62.1331 444.917 62.0195 444.872 61.9484 444.782C61.8773 444.69 61.8418 444.556 61.8418 444.38V443.005H61.4628V442.818H61.8418V442.291H62.0703ZM63.3095 442.291V442.818H63.7361V443.005H63.3095V444.378C63.3095 444.492 63.3298 444.577 63.3704 444.633C63.4123 444.689 63.4815 444.717 63.578 444.717C63.6161 444.717 63.6777 444.711 63.7628 444.698L63.7723 444.885C63.7126 444.906 63.6313 444.917 63.5285 444.917C63.3723 444.917 63.2587 444.872 63.1876 444.782C63.1165 444.69 63.081 444.556 63.081 444.38V443.005H62.702V442.818H63.081V442.291H63.3095ZM64.0307 443.818C64.0307 443.62 64.0688 443.442 64.145 443.283C64.2224 443.124 64.331 443.001 64.4706 442.914C64.6115 442.825 64.7709 442.78 64.9486 442.78C65.2229 442.78 65.4451 442.877 65.6152 443.07C65.7853 443.261 65.8704 443.516 65.8704 443.833V443.881C65.8704 444.08 65.8317 444.26 65.7542 444.42C65.678 444.579 65.5701 444.701 65.4305 444.787C65.2908 444.874 65.1315 444.917 64.9524 444.917C64.6795 444.917 64.4573 444.821 64.2859 444.629C64.1157 444.436 64.0307 444.181 64.0307 443.864V443.818ZM64.2592 443.881C64.2592 444.127 64.3227 444.33 64.4497 444.488C64.5779 444.646 64.7455 444.725 64.9524 444.725C65.1581 444.725 65.3244 444.646 65.4514 444.488C65.5796 444.33 65.6438 444.121 65.6438 443.862V443.818C65.6438 443.661 65.6146 443.517 65.5561 443.386C65.4977 443.255 65.4159 443.154 65.3105 443.083C65.2051 443.011 65.0845 442.974 64.9486 442.974C64.7455 442.974 64.5798 443.054 64.4516 443.214C64.3233 443.373 64.2592 443.581 64.2592 443.839V443.881ZM66.5459 442.818L66.5535 443.171C66.6309 443.044 66.7274 442.947 66.843 442.881C66.9585 442.814 67.0861 442.78 67.2258 442.78C67.4467 442.78 67.6111 442.842 67.719 442.967C67.8269 443.091 67.8815 443.278 67.8828 443.527V444.879H67.6562V443.525C67.6549 443.341 67.6155 443.204 67.5381 443.113C67.4619 443.023 67.3394 442.978 67.1705 442.978C67.0296 442.978 66.9045 443.023 66.7953 443.112C66.6874 443.199 66.6074 443.318 66.5554 443.468V444.879H66.3288V442.818H66.5459Z" fill="#131313"/>
<path d="M26.6297 492.931H27.2913V493.25H26.2269V491.242H26.6297V492.931ZM27.4438 492.447C27.4438 492.286 27.4754 492.143 27.5387 492.019C27.6039 491.894 27.6912 491.798 27.8005 491.731C27.9117 491.664 28.0354 491.63 28.1716 491.63C28.2905 491.63 28.394 491.654 28.4823 491.702C28.5724 491.75 28.6443 491.811 28.698 491.884V491.656H29.1036V493.25H28.698V493.017C28.6462 493.092 28.5743 493.154 28.4823 493.204C28.3921 493.252 28.2876 493.276 28.1687 493.276C28.0345 493.276 27.9117 493.241 27.8005 493.172C27.6912 493.103 27.6039 493.006 27.5387 492.882C27.4754 492.755 27.4438 492.61 27.4438 492.447ZM28.698 492.453C28.698 492.355 28.6788 492.272 28.6405 492.203C28.6021 492.132 28.5504 492.078 28.4851 492.042C28.4199 492.003 28.3499 491.984 28.2751 491.984C28.2003 491.984 28.1313 492.002 28.068 492.039C28.0047 492.075 27.9529 492.129 27.9127 492.2C27.8743 492.269 27.8551 492.351 27.8551 492.447C27.8551 492.543 27.8743 492.628 27.9127 492.701C27.9529 492.772 28.0047 492.826 28.068 492.865C28.1332 492.903 28.2023 492.922 28.2751 492.922C28.3499 492.922 28.4199 492.904 28.4851 492.867C28.5504 492.829 28.6021 492.775 28.6405 492.706C28.6788 492.635 28.698 492.551 28.698 492.453ZM31.0217 491.656L30.0349 494.004H29.6063L29.9515 493.21L29.3129 491.656H29.7645L30.1759 492.77L30.593 491.656H31.0217ZM32.7203 492.419C32.7203 492.476 32.7165 492.528 32.7088 492.574H31.5437C31.5533 492.689 31.5936 492.779 31.6645 492.844C31.7355 492.91 31.8228 492.942 31.9263 492.942C32.0759 492.942 32.1823 492.878 32.2456 492.749H32.68C32.634 492.903 32.5458 493.029 32.4154 493.129C32.2849 493.227 32.1248 493.276 31.9349 493.276C31.7815 493.276 31.6434 493.242 31.5207 493.175C31.3999 493.106 31.3049 493.009 31.2359 492.885C31.1688 492.76 31.1352 492.616 31.1352 492.453C31.1352 492.288 31.1688 492.143 31.2359 492.019C31.303 491.894 31.397 491.798 31.5178 491.731C31.6386 491.664 31.7777 491.63 31.9349 491.63C32.0865 491.63 32.2217 491.663 32.3406 491.728C32.4614 491.793 32.5544 491.886 32.6196 492.007C32.6867 492.126 32.7203 492.263 32.7203 492.419ZM32.3032 492.304C32.3012 492.2 32.2639 492.118 32.191 492.056C32.1181 491.993 32.0289 491.961 31.9234 491.961C31.8237 491.961 31.7393 491.992 31.6703 492.053C31.6032 492.113 31.5619 492.196 31.5466 492.304H32.3032ZM33.417 491.904C33.4688 491.819 33.5359 491.753 33.6184 491.705C33.7028 491.657 33.7987 491.633 33.9061 491.633V492.056H33.7996C33.673 492.056 33.5771 492.086 33.5119 492.145C33.4486 492.205 33.417 492.308 33.417 492.456V493.25H33.0143V491.656H33.417V491.904ZM36.2264 491.501H35.2943V491.993C35.3346 491.943 35.3921 491.903 35.4669 491.872C35.5417 491.839 35.6213 491.823 35.7057 491.823C35.8591 491.823 35.9847 491.857 36.0825 491.924C36.1803 491.991 36.2513 492.077 36.2954 492.183C36.3395 492.286 36.3616 492.398 36.3616 492.516C36.3616 492.737 36.2983 492.914 36.1717 493.049C36.0471 493.183 35.8687 493.25 35.6366 493.25C35.418 493.25 35.2435 493.195 35.1131 493.086C34.9827 492.977 34.9088 492.834 34.8916 492.657H35.2828C35.3001 492.734 35.3384 492.795 35.3979 492.842C35.4592 492.888 35.5369 492.911 35.6309 492.911C35.744 492.911 35.8294 492.875 35.8869 492.804C35.9444 492.733 35.9732 492.639 35.9732 492.522C35.9732 492.403 35.9435 492.313 35.884 492.252C35.8265 492.188 35.7412 492.157 35.628 492.157C35.5475 492.157 35.4803 492.177 35.4266 492.217C35.3729 492.258 35.3346 492.311 35.3116 492.378H34.9261V491.147H36.2264V491.501Z" fill="white"/>
<defs>
<linearGradient id="paint0_linear_289_154" x1="1.79812" y1="4.07327" x2="60.2495" y2="4.07327" gradientUnits="userSpaceOnUse">
<stop stop-color="#4B75F7"/>
<stop offset="0.516301" stop-color="#819EFB"/>
<stop offset="1" stop-color="#4B75F7"/>
</linearGradient>
<linearGradient id="paint1_linear_289_154" x1="6.38639" y1="338.792" x2="55.098" y2="338.792" gradientUnits="userSpaceOnUse">
<stop stop-color="#2F54BD"/>
<stop offset="0.489583" stop-color="#6682DA"/>
<stop offset="1" stop-color="#2F54BD"/>
</linearGradient>
<linearGradient id="paint2_linear_289_154" x1="11.8935" y1="391.815" x2="50.4897" y2="391.815" gradientUnits="userSpaceOnUse">
<stop stop-color="#243F8F"/>
<stop offset="0.529991" stop-color="#6782D1"/>
<stop offset="1" stop-color="#243F8F"/>
</linearGradient>
<linearGradient id="paint3_linear_289_154" x1="17.0788" y1="444.015" x2="45.1222" y2="444.015" gradientUnits="userSpaceOnUse">
<stop stop-color="#192C63"/>
<stop offset="0.479167" stop-color="#374C8B"/>
<stop offset="1" stop-color="#192C63"/>
</linearGradient>
<linearGradient id="paint4_linear_289_154" x1="19.6593" y1="491.771" x2="42.8677" y2="491.771" gradientUnits="userSpaceOnUse">
<stop stop-color="#192C63"/>
<stop offset="0.479167" stop-color="#374C8B"/>
<stop offset="1" stop-color="#192C63"/>
</linearGradient>
</defs>
</svg>
