<svg width="342" height="260" viewBox="0 0 342 260" fill="none" xmlns="http://www.w3.org/2000/svg">
<g filter="url(#filter0_d_1776_969)">
<path d="M321.66 12C317.042 24.7709 312.429 37.638 307.82 50.6013C216.559 52.4634 125.232 52.4634 33.8401 50.6013C29.2376 37.6411 24.6242 24.774 20 12H321.66Z" fill="url(#paint0_linear_1776_969)"/>
<path d="M300.907 70.1113C296.298 83.146 291.69 96.2707 287.081 109.485C209.683 112.842 131.977 112.842 54.579 109.485C49.9703 96.2863 45.3616 83.1615 40.7529 70.1113C127.387 72.6298 214.273 72.6298 300.907 70.1113Z" fill="url(#paint1_linear_1776_969)"/>
<path d="M280.182 129.336C275.577 142.6 270.971 155.919 266.365 169.292C202.733 172.914 138.946 172.914 75.3139 169.292C70.7114 155.922 66.1058 142.603 61.4971 129.336C134.282 132.888 207.379 132.888 280.182 129.336Z" fill="url(#paint2_linear_1776_969)"/>
<path d="M259.443 189.378C254.834 202.795 250.224 216.241 245.612 229.716C195.804 232.761 145.857 232.761 96.0485 229.716C91.4367 216.235 86.8265 202.786 82.2178 189.369C141.241 192.878 200.42 192.881 259.443 189.378Z" fill="url(#paint3_linear_1776_969)"/>
</g>
<defs>
<filter id="filter0_d_1776_969" x="0" y="0" width="341.66" height="260" filterUnits="userSpaceOnUse" color-interpolation-filters="sRGB">
<feFlood flood-opacity="0" result="BackgroundImageFix"/>
<feColorMatrix in="SourceAlpha" type="matrix" values="0 0 0 0 0 0 0 0 0 0 0 0 0 0 0 0 0 0 127 0" result="hardAlpha"/>
<feOffset dy="8"/>
<feGaussianBlur stdDeviation="10"/>
<feComposite in2="hardAlpha" operator="out"/>
<feColorMatrix type="matrix" values="0 0 0 0 0 0 0 0 0 0 0 0 0 0 0 0 0 0 0.4 0"/>
<feBlend mode="normal" in2="BackgroundImageFix" result="effect1_dropShadow_1776_969"/>
<feBlend mode="normal" in="SourceGraphic" in2="effect1_dropShadow_1776_969" result="shape"/>
</filter>
<linearGradient id="paint0_linear_1776_969" x1="26.3906" y1="32" x2="313.391" y2="32" gradientUnits="userSpaceOnUse">
<stop stop-color="#4B75F7"/>
<stop offset="0.516301" stop-color="#819EFB"/>
<stop offset="1" stop-color="#4B75F7"/>
</linearGradient>
<linearGradient id="paint1_linear_1776_969" x1="44.3896" y1="91" x2="294.89" y2="91" gradientUnits="userSpaceOnUse">
<stop stop-color="#2F54BD"/>
<stop offset="0.489583" stop-color="#6682DA"/>
<stop offset="1" stop-color="#2F54BD"/>
</linearGradient>
<linearGradient id="paint2_linear_1776_969" x1="68.3916" y1="151" x2="276.892" y2="151" gradientUnits="userSpaceOnUse">
<stop stop-color="#243F8F"/>
<stop offset="0.529991" stop-color="#6782D1"/>
<stop offset="1" stop-color="#243F8F"/>
</linearGradient>
<linearGradient id="paint3_linear_1776_969" x1="86.8916" y1="210.998" x2="253.892" y2="210.998" gradientUnits="userSpaceOnUse">
<stop stop-color="#192C63"/>
<stop offset="0.479167" stop-color="#374C8B"/>
<stop offset="1" stop-color="#192C63"/>
</linearGradient>
</defs>
</svg>
