<svg width="666" height="679" viewBox="0 0 666 679" fill="none" xmlns="http://www.w3.org/2000/svg">
<path d="M522.6 0.000367287C447.886 -0.114271 333.921 26.5963 302.245 94.6912C265.52 173.791 374.32 234.32 335.528 322.935C307.639 386.559 240.041 381.171 215.022 449.495C194.364 505.897 217.776 571.355 255.191 610.905C340.578 701.24 535.453 694.82 655.73 631.884C848.999 530.774 895.939 259.655 768.203 112.689C757.874 100.652 667.551 0.115005 522.6 0.000367287Z" fill="url(#paint0_linear_1817_971)"/>
<g clip-path="url(#clip0_1817_971)">
<path d="M606.488 546.102H561.867V546.371H606.488V546.102Z" fill="#EBEBEB"/>
<path d="M446.474 549.871H434.746V550.14H446.474V549.871Z" fill="#EBEBEB"/>
<path d="M560.521 533.711H534.639V533.98H560.521V533.711Z" fill="#EBEBEB"/>
<path d="M129.007 535.863H70.7715V536.133H129.007V535.863Z" fill="#EBEBEB"/>
<path d="M149.501 535.863H141.008V536.133H149.501V535.863Z" fill="#EBEBEB"/>
<path d="M303.58 541.652H177.268V541.922H303.58V541.652Z" fill="#EBEBEB"/>
<path d="M319.489 464.365H59.18C55.001 464.365 51.4961 460.864 51.4961 456.69V91.2455C51.4961 87.0713 55.001 83.5703 59.18 83.5703H319.489C323.668 83.5703 327.173 87.0713 327.173 91.2455V456.69C327.173 460.999 323.802 464.365 319.489 464.365ZM59.18 83.8396C55.1358 83.8396 51.7657 87.0713 51.7657 91.2455V456.69C51.7657 460.729 55.001 464.096 59.18 464.096H319.489C323.533 464.096 326.903 460.864 326.903 456.69V91.2455C326.903 87.2059 323.668 83.8396 319.489 83.8396H59.18Z" fill="#EBEBEB"/>
<path d="M611.071 464.365H350.762C346.583 464.365 343.078 460.864 343.078 456.69V91.2455C343.078 87.0713 346.583 83.5703 350.762 83.5703H611.071C615.25 83.5703 618.755 87.0713 618.755 91.2455V456.69C618.755 460.999 615.384 464.365 611.071 464.365ZM350.762 83.8396C346.718 83.8396 343.348 87.0713 343.348 91.2455V456.69C343.348 460.729 346.583 464.096 350.762 464.096H611.071C615.115 464.096 618.485 460.864 618.485 456.69V91.2455C618.485 87.2059 615.25 83.8396 611.071 83.8396H350.762Z" fill="#EBEBEB"/>
<path d="M674.026 524.418H0V524.687H674.026V524.418Z" fill="#EBEBEB"/>
<path d="M424.227 240.979H227.816L239.544 107.27H435.955L424.227 240.979Z" fill="#F5F5F5"/>
<path d="M357.365 217.277H250.734V218.355H357.365V217.277Z" fill="#E0E0E0"/>
<path d="M359.657 197.892H252.082V197.353L258.553 123.43H366.127V123.968L359.657 197.892ZM253.16 196.815H358.578L364.914 124.372H259.496L253.16 196.815Z" fill="#E0E0E0"/>
<path d="M256.395 233.171H253.429C252.216 233.171 251.137 232.633 250.329 231.825C249.52 231.017 249.115 229.805 249.25 228.593L249.52 225.631C249.789 223.207 251.946 221.188 254.373 221.188H257.338C258.552 221.188 259.63 221.726 260.439 222.534C261.248 223.342 261.652 224.554 261.517 225.766L261.248 228.728C261.113 231.152 258.956 233.171 256.395 233.171ZM254.508 222.265C252.62 222.265 250.868 223.881 250.733 225.766L250.463 228.728C250.329 229.671 250.598 230.478 251.272 231.152C251.811 231.825 252.755 232.094 253.564 232.094H256.53C258.417 232.094 260.169 230.478 260.304 228.593L260.574 225.631C260.709 224.688 260.439 223.881 259.765 223.207C259.226 222.534 258.282 222.265 257.473 222.265H254.508Z" fill="#E0E0E0"/>
<path d="M305.196 211.091H250.869L251.408 205.301H305.735L305.196 211.091ZM252.082 210.014H304.252L304.522 206.378H252.352L252.082 210.014Z" fill="#E0E0E0"/>
<path d="M356.69 230.071H335.121L335.66 224.281H357.229L356.69 230.071ZM336.2 228.994H355.746L356.016 225.358H336.469L336.2 228.994Z" fill="#E0E0E0"/>
<path d="M358.443 211.087H352.646L353.186 205.297H358.982L358.443 211.087ZM353.86 210.01H357.499L357.769 206.374H354.129L353.86 210.01Z" fill="#E0E0E0"/>
<path d="M350.49 211.087H344.693L345.233 205.297H351.029L350.49 211.087ZM345.907 210.01H349.546L349.816 206.374H346.176L345.907 210.01Z" fill="#E0E0E0"/>
<path d="M342.535 211.087H336.738L337.277 205.297H343.074L342.535 211.087ZM337.952 210.01H341.591L341.861 206.374H338.221L337.952 210.01Z" fill="#E0E0E0"/>
<path d="M366.666 117.773H285.783L286.188 112.656H367.071L366.666 117.773ZM286.862 116.696H365.723L365.992 113.733H287.131L286.862 116.696Z" fill="#E0E0E0"/>
<path d="M280.387 118.044H258.818L259.358 112.254H280.926L280.387 118.044ZM259.897 116.967H279.444L279.713 113.331H260.166L259.897 116.967Z" fill="#E0E0E0"/>
<path d="M417.488 147.536H379.473L381.36 125.723H419.375L417.488 147.536ZM380.551 146.459H416.409L418.162 126.8H382.304L380.551 146.459Z" fill="#E0E0E0"/>
<path d="M413.847 188.47H375.832L377.719 166.656H415.734L413.847 188.47ZM377.045 187.393H412.903L414.656 167.733H378.798L377.045 187.393Z" fill="#E0E0E0"/>
<path d="M410.208 229.403H372.193L374.081 207.59H412.096L410.208 229.403ZM373.407 228.326H409.265L411.017 208.667H375.159L373.407 228.326Z" fill="#E0E0E0"/>
<path d="M418.551 125.741L379.83 146.504L380.34 147.453L419.061 126.69L418.551 125.741Z" fill="#E0E0E0"/>
<path d="M416.682 147.398L381.498 126.661L382.037 125.719L417.221 146.59L416.682 147.398Z" fill="#E0E0E0"/>
<path d="M414.914 166.743L376.166 187.453L376.675 188.403L415.422 167.693L414.914 166.743Z" fill="#E0E0E0"/>
<path d="M378.565 166.717L378.016 167.645L413.172 188.42L413.721 187.492L378.565 166.717Z" fill="#E0E0E0"/>
<path d="M372.193 229.801L374.215 207.18L392.279 217.817L411.422 207.584L411.961 208.526L393.358 218.49L410.074 228.455L409.534 229.397L392.279 219.164L372.193 229.801ZM375.159 208.93L373.541 227.916L391.201 218.49L375.159 208.93Z" fill="#E0E0E0"/>
<path d="M365.291 123.397L252.324 196.863L252.913 197.766L365.879 124.3L365.291 123.397Z" fill="#E0E0E0"/>
<path d="M259.358 123.374L258.719 124.242L358.751 197.696L359.39 196.828L259.358 123.374Z" fill="#E0E0E0"/>
<path d="M502.143 525.228H394.029L409.262 351.258H517.376L502.143 525.228Z" fill="#F5F5F5"/>
<path d="M429.348 517.42H403.061L404.678 498.973H430.965L429.348 517.42ZM404.274 516.343H428.404L429.887 500.05H405.757L404.274 516.343Z" fill="#E0E0E0"/>
<path d="M461.43 517.42H435.143L436.76 498.973H463.047L461.43 517.42ZM436.221 516.343H460.351L461.834 500.05H437.704L436.221 516.343Z" fill="#E0E0E0"/>
<path d="M493.516 517.42H467.229L468.846 498.973H495.133L493.516 517.42ZM468.307 516.343H492.437L493.92 500.05H469.79L468.307 516.343Z" fill="#E0E0E0"/>
<path d="M496.884 472.715H407.508V473.792H496.884V472.715Z" fill="#E0E0E0"/>
<path d="M468.306 447.805H409.262L409.801 440.938H468.846L468.306 447.805ZM410.475 446.728H467.363L467.767 442.015H410.879L410.475 446.728Z" fill="#E0E0E0"/>
<path d="M495.806 491.299H471.271L471.811 484.566H496.345L495.806 491.299ZM472.35 490.222H494.728L495.132 485.644H472.754L472.35 490.222Z" fill="#E0E0E0"/>
<path d="M498.098 464.912H488.797L489.606 455.621H498.907L498.098 464.912ZM489.875 463.835H497.02L497.694 456.698H490.549L489.875 463.835Z" fill="#E0E0E0"/>
<path d="M457.52 464.912H448.219L449.028 455.621H458.329L457.52 464.912ZM449.432 463.835H456.577L457.251 456.698H450.106L449.432 463.835Z" fill="#E0E0E0"/>
<path d="M417.081 464.912H407.779L408.588 455.621H417.89L417.081 464.912ZM408.858 463.835H416.002L416.676 456.698H409.532L408.858 463.835Z" fill="#E0E0E0"/>
<path d="M444.176 367.418H416.406L417.08 360.281H444.85L444.176 367.418ZM417.485 366.341H443.232L443.637 361.358H417.889L417.485 366.341Z" fill="#E0E0E0"/>
<path d="M414.115 493.048H411.823C410.07 493.048 408.453 492.374 407.374 491.163C406.296 489.951 405.757 488.335 405.891 486.584L406.161 484.295C406.431 480.794 409.666 477.832 413.171 477.832H415.463C417.215 477.832 418.833 478.505 419.911 479.717C420.99 480.929 421.529 482.545 421.394 484.295L421.124 486.584C420.855 490.22 417.62 493.048 414.115 493.048ZM413.036 478.909C410.07 478.909 407.374 481.333 407.105 484.295L406.835 486.584C406.7 488.066 407.105 489.412 408.048 490.355C408.992 491.297 410.205 491.97 411.688 491.97H413.98C416.945 491.97 419.642 489.547 419.911 486.584L420.181 484.295C420.316 482.814 419.911 481.468 418.968 480.525C418.024 479.583 416.811 478.909 415.328 478.909H413.036Z" fill="#E0E0E0"/>
<path d="M500.526 435.283H410.342V434.744L415.734 372.805H505.919V373.343L500.526 435.283ZM411.42 434.206H499.448L504.705 373.747H416.678L411.42 434.206Z" fill="#E0E0E0"/>
<path d="M416.615 372.784L415.977 373.652L499.717 435.143L500.356 434.275L416.615 372.784Z" fill="#E0E0E0"/>
<path d="M411.149 435.153L410.609 434.345L504.569 373.348L505.108 374.29L411.149 435.153Z" fill="#E0E0E0"/>
<path d="M428.542 517.422L404.816 499.917L405.49 499.109L429.216 516.479L428.542 517.422Z" fill="#E0E0E0"/>
<path d="M430.113 499.104L403.34 516.516L403.928 517.418L430.701 500.007L430.113 499.104Z" fill="#E0E0E0"/>
<path d="M460.622 517.422L436.896 499.917L437.571 499.109L461.296 516.479L460.622 517.422Z" fill="#E0E0E0"/>
<path d="M462.202 499.07L435.432 516.488L436.02 517.391L462.79 499.973L462.202 499.07Z" fill="#E0E0E0"/>
<path d="M492.706 517.422L468.98 499.917L469.52 499.109L493.245 516.479L492.706 517.422Z" fill="#E0E0E0"/>
<path d="M494.164 499.125L467.395 516.543L467.983 517.446L494.753 500.028L494.164 499.125Z" fill="#E0E0E0"/>
<path d="M534.905 147.529C534.905 144.432 534.5 141.469 533.556 138.642L541.375 131.775L536.522 123.291L526.681 126.658C522.637 122.349 517.38 119.252 511.314 117.771L509.292 107.672H499.586L497.564 117.771C491.632 119.117 486.24 122.349 482.196 126.658L472.355 123.291L467.502 131.775L475.321 138.642C474.512 141.469 473.973 144.432 473.973 147.529C473.973 150.626 474.377 153.588 475.321 156.416L467.502 163.283L472.355 171.766L482.196 168.4C486.24 172.709 491.497 175.806 497.564 177.287L499.586 187.386H509.292L511.314 177.287C517.245 175.94 522.637 172.709 526.681 168.4L536.522 171.766L541.375 163.283L533.556 156.416C534.365 153.588 534.905 150.626 534.905 147.529ZM504.439 163.956C495.676 163.956 488.666 156.82 488.666 148.202C488.666 139.45 495.811 132.448 504.439 132.448C513.201 132.448 520.211 139.584 520.211 148.202C520.211 156.82 513.201 163.956 504.439 163.956Z" fill="#EBEBEB"/>
<path d="M200.454 403.368C203.015 398.385 204.902 393.269 205.846 388.017L224.179 383.574L223.505 365.8L204.902 362.837C202.071 352.469 196.14 342.909 187.782 335.638L193.174 317.594L177.402 309.246L165.539 323.788C154.755 320.961 143.566 321.499 133.321 325L120.379 311.401L105.281 320.826L112.021 338.331C108.247 342.101 105.012 346.545 102.45 351.392C99.889 356.374 98.0017 361.491 97.0581 366.742L78.7246 371.186L79.3986 388.96L98.0017 391.922C100.833 402.29 106.764 411.851 115.122 419.122L109.73 437.165L125.502 445.514L137.365 430.971C148.149 433.799 159.338 433.26 169.583 429.759L182.525 443.359L197.623 433.933L190.882 416.429C194.657 412.793 197.892 408.35 200.454 403.368ZM137.5 404.041C123.48 396.635 118.088 379.13 125.502 365.127C132.916 351.123 150.306 345.602 164.461 353.143C178.48 360.548 184.007 378.053 176.458 392.057C168.909 406.061 151.519 411.447 137.5 404.041Z" fill="#EBEBEB"/>
<path d="M533.826 356.104L544.341 361.894C544.88 362.163 545.285 362.432 545.42 362.702C545.554 362.971 545.689 363.24 545.689 363.644C545.689 364.048 545.554 364.452 545.15 364.856C544.88 365.125 544.476 365.395 543.937 365.395C543.667 365.395 543.263 365.26 542.589 364.856L528.973 357.316C528.03 356.777 528.03 355.43 528.973 355.026L542.589 347.486C543.128 347.217 543.532 347.082 543.802 347.082C544.206 347.082 544.611 347.217 545.015 347.621C545.285 347.89 545.554 348.294 545.554 348.833C545.554 349.236 545.42 349.506 545.285 349.775C545.15 350.044 544.746 350.314 544.206 350.583L533.826 356.104Z" fill="#EBEBEB"/>
<path d="M561.057 345.199L550.542 367.686C550.272 368.224 550.003 368.628 549.868 368.763C549.598 369.032 549.194 369.032 548.924 369.032C548.52 369.032 548.116 368.897 547.711 368.494C547.441 368.224 547.172 367.82 547.172 367.416C547.172 367.147 547.307 366.743 547.576 366.204L558.091 343.718C558.361 343.179 558.63 342.775 558.765 342.64C559.035 342.371 559.439 342.371 559.709 342.371C560.113 342.371 560.518 342.506 560.922 342.775C561.192 343.044 561.461 343.448 561.461 343.852C561.326 344.256 561.326 344.66 561.057 345.199Z" fill="#EBEBEB"/>
<path d="M574.132 356.107L563.618 350.317C563.078 350.048 562.674 349.779 562.539 349.509C562.404 349.24 562.27 348.971 562.27 348.567C562.27 348.163 562.404 347.759 562.809 347.355C563.078 347.086 563.483 346.816 564.022 346.816C564.292 346.816 564.696 346.951 565.235 347.22L578.851 354.761C579.794 355.299 579.794 356.646 578.851 357.05L565.235 364.59C564.696 364.86 564.292 365.129 564.022 365.129C563.618 365.129 563.213 364.994 562.809 364.59C562.539 364.321 562.27 363.917 562.27 363.379C562.27 362.975 562.404 362.705 562.539 362.436C562.674 362.167 563.078 361.897 563.618 361.628L574.132 356.107Z" fill="#EBEBEB"/>
<path d="M330.543 580.033C474.903 580.033 591.93 573.221 591.93 564.817C591.93 556.414 474.903 549.602 330.543 549.602C186.183 549.602 69.1562 556.414 69.1562 564.817C69.1562 573.221 186.183 580.033 330.543 580.033Z" fill="#F5F5F5"/>
<path d="M153.001 260.49H103.123C100.831 260.49 98.8089 259.548 97.326 257.932C95.8432 256.316 95.1692 254.161 95.304 251.872L105.684 132.706C106.088 127.993 110.267 124.223 114.851 124.223H127.792C129.005 124.223 129.949 125.165 129.949 126.377V126.781C130.084 128.397 131.297 129.743 133.049 129.743H145.317C147.069 129.743 148.687 128.397 149.091 126.646L149.226 126.242C149.496 125.031 150.574 124.223 151.653 124.223H164.594C166.885 124.223 168.908 125.165 170.39 126.781C171.873 128.397 172.547 130.551 172.412 132.84L162.032 252.007C161.898 256.72 157.719 260.49 153.001 260.49ZM114.986 125.704C110.941 125.704 107.436 128.935 107.167 132.975L96.7868 252.142C96.652 254.027 97.1912 255.777 98.4045 257.124C99.6177 258.47 101.37 259.144 103.257 259.144H153.135C157.18 259.144 160.684 255.912 160.954 251.872L171.334 132.706C171.469 130.821 170.93 129.07 169.716 127.724C168.503 126.377 166.751 125.704 164.863 125.704H151.922C151.383 125.704 150.844 126.108 150.844 126.646L150.709 127.05C150.17 129.339 148.013 131.225 145.586 131.225H133.319C130.893 131.225 129.005 129.339 128.87 126.916V126.512C128.87 125.973 128.466 125.704 128.062 125.704H114.986Z" fill="#7981EC"/>
<path d="M171.064 143.074H105.549V144.421H171.064V143.074Z" fill="#7981EC"/>
<path d="M164.863 124.359H151.922V125.706H164.863V124.359Z" fill="#7981EC"/>
<path d="M152.73 198.686H114.445L117.815 160.445H156.1L152.73 198.686ZM115.928 197.34H151.517L154.617 161.792H119.029L115.928 197.34Z" fill="#7981EC"/>
<path d="M153.135 241.908H106.223L107.436 227.77H154.348L153.135 241.908ZM107.706 240.561H151.922L152.865 229.116H108.784L107.706 240.561Z" fill="#7981EC"/>
<path d="M122.263 218.347C121.185 218.347 120.241 217.943 119.432 217.135C118.758 216.327 118.354 215.384 118.489 214.307C118.624 212.153 120.646 210.402 122.802 210.402C123.881 210.402 124.825 210.806 125.633 211.614C126.307 212.422 126.712 213.365 126.577 214.442C126.442 216.596 124.42 218.347 122.263 218.347ZM122.937 211.614C121.454 211.614 120.106 212.826 119.972 214.307C119.972 214.981 120.106 215.654 120.511 216.192C120.915 216.731 121.589 217 122.263 217C123.746 217 125.094 215.788 125.229 214.307C125.229 213.634 125.094 212.961 124.69 212.422C124.151 211.884 123.611 211.614 122.937 211.614Z" fill="#7981EC"/>
<path d="M131.968 218.347C130.89 218.347 129.946 217.943 129.137 217.135C128.463 216.327 128.059 215.384 128.194 214.307C128.329 212.153 130.351 210.402 132.508 210.402C133.586 210.402 134.53 210.806 135.338 211.614C136.012 212.422 136.417 213.365 136.282 214.442C136.147 216.596 134.125 218.347 131.968 218.347ZM132.508 211.614C131.025 211.614 129.677 212.826 129.542 214.307C129.542 214.981 129.677 215.654 130.081 216.192C130.485 216.731 131.16 217 131.834 217C133.316 217 134.664 215.788 134.799 214.307C134.799 213.634 134.664 212.961 134.26 212.422C133.856 211.884 133.316 211.614 132.508 211.614Z" fill="#7981EC"/>
<path d="M141.673 218.347C140.595 218.347 139.651 217.943 138.843 217.135C138.168 216.327 137.764 215.384 137.899 214.307C138.034 212.153 140.056 210.402 142.213 210.402C143.291 210.402 144.235 210.806 145.044 211.614C145.718 212.422 146.122 213.365 145.987 214.442C145.852 216.596 143.83 218.347 141.673 218.347ZM142.213 211.614C140.73 211.614 139.382 212.826 139.247 214.307C139.247 214.981 139.382 215.654 139.786 216.192C140.191 216.731 140.865 217 141.539 217C143.021 217 144.37 215.788 144.504 214.307C144.504 213.634 144.37 212.961 143.965 212.422C143.561 211.884 143.021 211.614 142.213 211.614Z" fill="#7981EC"/>
<path d="M542.992 395.418H477.477V396.764H542.992V395.418Z" fill="#7981EC"/>
<path d="M525.065 512.834H475.187C472.895 512.834 470.873 511.891 469.39 510.275C467.908 508.66 467.234 506.505 467.368 504.216L477.748 385.049C478.153 380.337 482.332 376.566 486.915 376.566H499.856C501.07 376.566 502.013 377.509 502.013 378.721V379.125C502.148 380.741 503.361 382.087 505.114 382.087H517.381C519.134 382.087 520.751 380.741 521.156 378.99L521.29 378.586C521.56 377.509 522.638 376.566 523.717 376.566H536.658C538.95 376.566 540.972 377.509 542.455 379.125C543.938 380.741 544.612 382.895 544.477 385.184L534.097 504.351C533.827 509.064 529.783 512.834 525.065 512.834ZM486.915 378.048C482.871 378.048 479.366 381.279 479.096 385.319L468.716 504.485C468.582 506.371 469.121 508.121 470.334 509.468C471.547 510.814 473.3 511.487 475.187 511.487H525.065C529.109 511.487 532.614 508.256 532.884 504.216L543.264 385.049C543.398 383.164 542.859 381.414 541.646 380.067C540.433 378.721 538.68 378.048 536.793 378.048H523.852C523.313 378.048 522.773 378.452 522.773 378.99L522.639 379.394C522.099 381.683 519.942 383.568 517.516 383.568H505.249C502.822 383.568 500.935 381.683 500.8 379.394V378.99C500.8 378.452 500.396 378.182 499.991 378.182H486.915V378.048Z" fill="#7981EC"/>
<path d="M533.424 414.13H484.22C483.142 414.13 482.198 413.726 481.524 412.918C480.85 412.11 480.446 411.168 480.581 410.091C480.715 407.936 482.603 406.32 484.759 406.32H533.963C535.042 406.32 535.985 406.724 536.659 407.532C537.333 408.34 537.738 409.283 537.603 410.36C537.468 412.38 535.581 414.13 533.424 414.13ZM484.759 407.667C483.277 407.667 482.063 408.879 481.929 410.225C481.929 410.898 482.063 411.572 482.468 411.976C482.872 412.38 483.546 412.649 484.22 412.649H533.424C534.907 412.649 536.12 411.437 536.255 410.091C536.255 409.417 536.12 408.744 535.716 408.34C535.311 407.936 534.637 407.667 533.963 407.667H484.759Z" fill="#7981EC"/>
<path d="M532.342 426.927H483.138C482.06 426.927 481.116 426.523 480.442 425.715C479.768 424.907 479.364 423.965 479.498 422.887C479.633 420.733 481.521 419.117 483.677 419.117H532.881C533.96 419.117 534.903 419.521 535.577 420.329C536.251 421.137 536.656 422.08 536.521 423.157C536.251 425.177 534.364 426.927 532.342 426.927ZM483.677 420.464C482.195 420.464 480.981 421.676 480.847 423.022C480.847 423.695 480.981 424.369 481.386 424.773C481.79 425.177 482.464 425.446 483.138 425.446H532.342C533.825 425.446 535.038 424.234 535.173 422.887C535.173 422.214 535.038 421.541 534.634 421.137C534.229 420.733 533.555 420.464 532.881 420.464H483.677Z" fill="#7981EC"/>
<path d="M531.131 439.72H481.927C480.849 439.72 479.905 439.316 479.231 438.508C478.557 437.7 478.153 436.758 478.288 435.68C478.422 433.526 480.31 431.91 482.467 431.91H531.67C532.749 431.91 533.692 432.314 534.366 433.122C535.041 433.93 535.445 434.872 535.31 435.95C535.175 438.104 533.288 439.72 531.131 439.72ZM482.467 433.391C480.984 433.391 479.77 434.603 479.636 435.95C479.636 436.623 479.77 437.296 480.175 437.7C480.579 438.104 481.253 438.373 481.927 438.373H531.131C532.614 438.373 533.827 437.162 533.962 435.815C533.962 435.142 533.827 434.469 533.423 434.065C533.018 433.661 532.344 433.391 531.67 433.391H482.467Z" fill="#7981EC"/>
<path d="M528.166 474.861H478.962C477.884 474.861 476.94 474.457 476.266 473.649C475.592 472.841 475.188 471.898 475.323 470.821C475.458 468.667 477.345 467.051 479.502 467.051H528.706C529.784 467.051 530.728 467.455 531.402 468.263C532.076 469.071 532.48 470.013 532.345 471.09C532.076 473.245 530.188 474.861 528.166 474.861ZM479.367 468.532C477.884 468.532 476.671 469.744 476.536 471.09C476.536 471.764 476.671 472.437 477.075 472.841C477.48 473.245 478.154 473.514 478.828 473.514H528.032C529.514 473.514 530.728 472.302 530.862 470.956C530.862 470.282 530.728 469.609 530.323 469.205C529.919 468.801 529.245 468.532 528.571 468.532H479.367Z" fill="#7981EC"/>
<path d="M526.949 487.657H477.746C476.667 487.657 475.724 487.254 475.05 486.446C474.375 485.638 473.971 484.695 474.106 483.618C474.241 481.464 476.128 479.848 478.285 479.848H527.489C528.567 479.848 529.511 480.252 530.185 481.06C530.859 481.867 531.263 482.81 531.128 483.887C530.994 486.042 529.106 487.657 526.949 487.657ZM478.285 481.329C476.802 481.329 475.589 482.541 475.454 483.887C475.454 484.56 475.589 485.234 475.993 485.638C476.398 486.042 477.072 486.311 477.746 486.311H526.949C528.432 486.311 529.646 485.099 529.78 483.753C529.78 483.079 529.646 482.406 529.241 482.002C528.837 481.598 528.163 481.329 527.489 481.329H478.285Z" fill="#7981EC"/>
<path d="M525.873 500.579H476.669C475.591 500.579 474.647 500.175 473.973 499.367C473.299 498.56 472.895 497.617 473.03 496.54C473.165 494.385 475.052 492.77 477.209 492.77H526.413C527.491 492.77 528.435 493.173 529.109 493.981C529.783 494.789 530.187 495.732 530.052 496.809C529.783 498.829 528.03 500.579 525.873 500.579ZM477.209 494.116C475.726 494.116 474.513 495.328 474.378 496.674C474.378 497.348 474.513 498.021 474.917 498.425C475.321 498.829 475.995 499.098 476.669 499.098H525.873C527.356 499.098 528.569 497.886 528.704 496.54C528.704 495.867 528.569 495.193 528.165 494.789C527.761 494.385 527.087 494.116 526.413 494.116H477.209Z" fill="#7981EC"/>
<path d="M557.553 270.724H507.675C505.384 270.724 503.362 269.782 501.879 268.166C500.396 266.55 499.722 264.396 499.857 262.107L510.237 142.94C510.641 138.227 514.82 134.457 519.403 134.457H532.345C533.558 134.457 534.502 135.4 534.502 136.611V137.015C534.636 138.631 535.85 139.978 537.602 139.978H549.869C551.622 139.978 553.24 138.631 553.644 136.881L553.779 136.477C554.048 135.265 555.127 134.457 556.205 134.457H569.147C571.438 134.457 573.46 135.4 574.943 137.015C576.426 138.631 577.1 140.786 576.965 143.075L566.585 262.241C566.316 266.82 562.137 270.724 557.553 270.724ZM519.403 135.938C515.359 135.938 511.854 139.17 511.585 143.209L501.205 262.376C501.07 264.261 501.609 266.012 502.822 267.358C504.036 268.705 505.788 269.378 507.675 269.378H557.553C561.597 269.378 565.102 266.146 565.372 262.107L575.752 142.94C575.887 141.055 575.348 139.304 574.134 137.958C572.921 136.611 571.169 135.938 569.281 135.938H556.34C555.801 135.938 555.262 136.342 555.262 136.881L555.127 137.285C554.588 139.574 552.431 141.459 550.004 141.459H537.737C535.31 141.459 533.423 139.574 533.288 137.285V136.881C533.288 136.342 532.884 136.073 532.48 136.073H519.403V135.938Z" fill="#7981EC"/>
<path d="M575.482 153.309H509.967V154.655H575.482V153.309Z" fill="#7981EC"/>
<path d="M560.652 256.722H507.539L510.909 218.48H564.022L560.652 256.722ZM509.157 255.375H559.439L562.54 219.827H512.257L509.157 255.375Z" fill="#7981EC"/>
<path d="M511.975 218.62L511.158 219.691L559.642 256.556L560.458 255.484L511.975 218.62Z" fill="#7981EC"/>
<path d="M562.86 218.639L507.916 255.504L508.668 256.622L563.611 219.757L562.86 218.639Z" fill="#7981EC"/>
<path d="M567.664 177.549H514.551L515.764 163.41H568.877L567.664 177.549ZM516.034 176.202H566.451L567.394 164.757H516.977L516.034 176.202Z" fill="#7981EC"/>
<path d="M567.965 163.344L515.176 176.172L515.494 177.48L568.283 164.652L567.965 163.344Z" fill="#7981EC"/>
<path d="M516.603 163.433L516.271 164.738L566.839 177.557L567.171 176.252L516.603 163.433Z" fill="#7981EC"/>
<path d="M566.047 195.998H512.934L514.147 181.859H567.26L566.047 195.998ZM514.416 194.651H564.834L565.777 183.206H515.36L514.416 194.651Z" fill="#7981EC"/>
<path d="M566.338 181.794L513.549 194.617L513.867 195.926L566.656 183.103L566.338 181.794Z" fill="#7981EC"/>
<path d="M515.039 181.742L514.707 183.047L565.275 195.866L565.607 194.561L515.039 181.742Z" fill="#7981EC"/>
<path d="M564.428 214.439H511.314L512.528 200.301H565.641L564.428 214.439ZM512.797 213.093H563.214L564.158 201.647H513.741L512.797 213.093Z" fill="#7981EC"/>
<path d="M564.738 200.234L511.949 213.062L512.268 214.371L565.057 201.543L564.738 200.234Z" fill="#7981EC"/>
<path d="M513.31 200.144L512.979 201.449L563.546 214.268L563.878 212.963L513.31 200.144Z" fill="#7981EC"/>
<path d="M549.868 331.862C538.005 331.862 528.299 322.167 528.299 310.318C528.299 298.468 538.005 288.773 549.868 288.773C561.73 288.773 571.436 298.468 571.436 310.318C571.436 322.302 561.73 331.862 549.868 331.862ZM549.868 290.255C538.679 290.255 529.647 299.276 529.647 310.452C529.647 321.628 538.679 330.65 549.868 330.65C561.056 330.65 570.088 321.628 570.088 310.452C570.088 299.276 560.922 290.255 549.868 290.255Z" fill="#7981EC"/>
<path d="M546.093 322.841L535.982 309.51L537.061 308.702L545.554 319.878C549.463 307.49 557.416 296.449 568.066 288.908L571.032 286.754L571.841 287.831L568.875 289.986C558.09 297.661 550.137 308.837 546.497 321.494L546.093 322.841Z" fill="#7981EC"/>
<path d="M400.644 154.66H365.594L330.275 557.673H365.325C381.501 557.673 395.791 544.477 397.274 528.318L427.47 184.014C428.818 167.856 416.82 154.66 400.644 154.66Z" fill="#263238"/>
<path d="M358.179 557.673H213.937C197.761 557.673 185.763 544.477 187.111 528.318L217.307 184.014C218.79 167.856 233.08 154.66 249.256 154.66H393.498C409.674 154.66 421.672 167.856 420.324 184.014L390.128 528.318C388.645 544.611 374.355 557.673 358.179 557.673Z" fill="#7981EC"/>
<path d="M392.826 161.395H355.35C352.924 161.395 350.632 163.28 350.093 165.703L349.823 166.915C348.61 172.84 343.083 177.283 337.152 177.283H301.563C295.632 177.283 290.913 172.84 290.644 166.915V165.703C290.509 163.28 288.622 161.395 286.195 161.395H248.719C236.183 161.395 225.129 171.493 224.05 184.016L193.854 528.32C192.775 540.843 201.942 550.942 214.479 550.942H358.72C371.257 550.942 382.311 540.843 383.39 528.32L413.586 184.016C414.53 171.628 405.363 161.395 392.826 161.395Z" fill="white"/>
<g opacity="0.2">
<path opacity="0.2" d="M311.673 165.298C311.538 166.914 310.19 168.126 308.573 168.126C306.955 168.126 305.877 166.779 306.011 165.298C306.146 163.682 307.494 162.47 309.112 162.47C310.595 162.336 311.808 163.682 311.673 165.298Z" fill="black"/>
<path opacity="0.2" d="M332.297 162.336C331.219 162.336 323.67 162.336 322.456 162.336C320.839 162.336 319.491 163.682 319.356 165.164C319.221 166.779 320.434 167.991 321.917 167.991C322.861 167.991 330.814 167.991 331.758 167.991C333.376 167.991 334.724 166.645 334.859 165.164C334.993 163.682 333.78 162.336 332.297 162.336Z" fill="black"/>
</g>
<path d="M240.357 177.146H243.323L243.593 174.184H240.492L240.357 177.146Z" fill="#263238"/>
<path d="M246.561 174.187L246.426 177.149H249.391L249.661 174.187L249.931 171.09H246.83L246.561 174.187Z" fill="#263238"/>
<path d="M253.164 168.125L252.895 171.087L252.625 174.184L252.49 177.147H255.456L255.726 174.184L255.995 171.087L256.265 168.125H253.164Z" fill="#263238"/>
<path d="M383.655 168.262L383.52 170.551H382.037L381.633 174.994H383.116L382.981 177.283H396.327L397.135 168.396H383.655V168.262ZM389.047 174.994H384.599L385.003 170.551H389.451L389.047 174.994Z" fill="#263238"/>
<path opacity="0.8" d="M377.588 408.486H182.525L198.972 221.051H394.035L377.588 408.486Z" fill="#263238"/>
<path d="M372.467 402.834H177.404L193.716 215.398H388.779L372.467 402.834Z" fill="#7981EC"/>
<g opacity="0.8">
<path opacity="0.8" d="M372.469 402.834H177.406L193.718 215.398H388.781L372.469 402.834Z" fill="white"/>
<path opacity="0.8" d="M373.007 403.506H176.596V402.833L193.042 214.859H389.588L373.007 403.506ZM178.079 402.16H371.794L388.105 216.071H194.39L178.079 402.16Z" fill="#7981EC"/>
</g>
<path opacity="0.8" d="M361.548 351.26H197.221L207.736 231.285H372.063L361.548 351.26Z" fill="white"/>
<path d="M362.22 351.934H196.545L207.195 230.613H372.87L362.22 351.934ZM198.028 350.588H361.007L371.387 231.96H208.408L198.028 350.588Z" fill="#7981EC"/>
<path d="M208.226 230.767L207.396 231.828L361.271 351.797L362.1 350.735L208.226 230.767Z" fill="#7981EC"/>
<path d="M371.634 230.693L196.863 350.66L197.627 351.77L372.397 231.802L371.634 230.693Z" fill="#7981EC"/>
<path d="M260.982 368.764C260.713 372.131 257.612 374.958 254.242 374.958C250.872 374.958 248.31 372.131 248.58 368.764C248.85 365.398 251.95 362.57 255.32 362.57C258.69 362.57 261.252 365.398 260.982 368.764Z" fill="#7981EC"/>
<path d="M284.033 368.764C283.763 372.131 280.663 374.958 277.293 374.958C273.922 374.958 271.361 372.131 271.631 368.764C271.9 365.398 275.001 362.57 278.371 362.57C281.876 362.57 284.302 365.398 284.033 368.764Z" fill="#7981EC"/>
<path d="M307.22 368.764C306.951 372.131 303.85 374.958 300.48 374.958C297.11 374.958 294.549 372.131 294.818 368.764C295.088 365.398 298.188 362.57 301.559 362.57C304.929 362.57 307.49 365.398 307.22 368.764Z" fill="#7981EC"/>
<path d="M259.501 508.394H168.104L175.787 420.602H267.185L259.501 508.394Z" fill="#7981EC"/>
<g opacity="0.8">
<path opacity="0.8" d="M259.501 508.394H168.104L175.787 420.602H267.185L259.501 508.394Z" fill="white"/>
<path opacity="0.8" d="M260.039 509.069H167.293L175.112 419.93H267.858L260.039 509.069ZM168.776 507.723H258.826L266.375 421.276H176.325L168.776 507.723Z" fill="#7981EC"/>
</g>
<path d="M254.376 484.158H177.402L182.39 428.008H259.229L254.376 484.158Z" fill="white"/>
<path d="M254.914 484.832H176.592L181.58 427.336H259.901L254.914 484.832ZM178.209 483.486H253.835L258.688 428.682H183.062L178.209 483.486Z" fill="#7981EC"/>
<path d="M182.767 427.521L181.938 428.582L253.986 484.755L254.816 483.694L182.767 427.521Z" fill="#7981EC"/>
<path d="M258.909 427.518L177.023 483.727L177.787 484.836L259.672 428.628L258.909 427.518Z" fill="#7981EC"/>
<path d="M207.197 492.509C207.062 494.125 205.579 495.472 204.096 495.472C202.613 495.472 201.265 494.125 201.4 492.509C201.535 490.893 203.018 489.547 204.5 489.547C206.253 489.547 207.331 490.893 207.197 492.509Z" fill="#7981EC"/>
<path d="M218.115 492.509C217.981 494.125 216.498 495.472 215.015 495.472C213.397 495.472 212.184 494.125 212.319 492.509C212.454 490.893 213.936 489.547 215.419 489.547C217.037 489.547 218.25 490.893 218.115 492.509Z" fill="#7981EC"/>
<path d="M228.901 492.509C228.766 494.125 227.283 495.472 225.8 495.472C224.182 495.472 222.969 494.125 223.104 492.509C223.239 490.893 224.722 489.547 226.205 489.547C227.822 489.547 229.035 490.893 228.901 492.509Z" fill="#7981EC"/>
<path d="M363.165 508.394H271.902L279.586 420.602H370.849L363.165 508.394Z" fill="#7981EC"/>
<g opacity="0.8">
<path opacity="0.8" d="M363.165 508.394H271.902L279.586 420.602H370.849L363.165 508.394Z" fill="white"/>
<path opacity="0.8" d="M363.838 509.069H271.092L278.91 419.93H371.656L363.838 509.069ZM272.575 507.723H362.624L370.174 421.276H280.124L272.575 507.723Z" fill="#7981EC"/>
</g>
<path d="M358.04 484.158H281.201L286.054 428.008H363.028L358.04 484.158Z" fill="white"/>
<path d="M358.712 484.832H280.391L285.378 427.336H363.7L358.712 484.832ZM281.873 483.486H357.499L362.352 428.682H286.726L281.873 483.486Z" fill="#7981EC"/>
<path d="M286.456 427.575L285.627 428.637L357.676 484.81L358.505 483.748L286.456 427.575Z" fill="#7981EC"/>
<path d="M362.7 427.479L280.814 483.688L281.578 484.797L363.463 428.589L362.7 427.479Z" fill="#7981EC"/>
<path d="M310.992 492.509C310.858 494.125 309.375 495.472 307.892 495.472C306.274 495.472 305.061 494.125 305.196 492.509C305.331 490.893 306.813 489.547 308.296 489.547C309.779 489.547 311.127 490.893 310.992 492.509Z" fill="#7981EC"/>
<path d="M321.777 492.509C321.642 494.125 320.159 495.472 318.676 495.472C317.193 495.472 315.845 494.125 315.98 492.509C316.115 490.893 317.598 489.547 319.081 489.547C320.698 489.547 321.911 490.893 321.777 492.509Z" fill="#7981EC"/>
<path d="M332.562 492.509C332.427 494.125 330.944 495.472 329.461 495.472C327.978 495.472 326.63 494.125 326.765 492.509C326.9 490.893 328.383 489.547 329.866 489.547C331.349 489.547 332.831 490.893 332.562 492.509Z" fill="#7981EC"/>
<path d="M361.548 207.72H265.027L266.106 194.793H362.626L361.548 207.72Z" fill="#7981EC"/>
<path d="M254.375 204.758H239.412V206.104H254.375V204.758Z" fill="#263238"/>
<path d="M254.784 199.777H239.82V201.124H254.784V199.777Z" fill="#263238"/>
<path d="M255.321 194.664H240.357V196.011H255.321V194.664Z" fill="#263238"/>
<g opacity="0.2">
<path opacity="0.2" d="M301.56 177.287L201.939 547.04C205.31 549.464 209.623 550.945 214.342 550.945H222.16L322.725 177.152H301.56V177.287Z" fill="white"/>
<path opacity="0.2" d="M392.823 161.398H355.347C352.921 161.398 350.629 163.284 350.09 165.707L349.82 166.919C348.607 172.709 343.349 177.018 337.553 177.287L236.988 551.08H313.692L413.448 180.519C412.774 169.747 404.147 161.398 392.823 161.398Z" fill="white"/>
</g>
<path d="M413.044 187.121H223.643V189.141H413.044V187.121Z" fill="#7981EC"/>
<path d="M429.623 235.729C429.758 235.325 430.027 234.921 430.432 234.652C430.702 234.517 431.106 234.382 431.51 234.248C434.206 233.709 437.037 233.17 439.733 233.978C439.868 233.978 440.138 234.113 440.273 234.248C440.408 234.382 440.408 234.517 440.408 234.786C440.677 236.267 440.812 237.883 441.082 239.364C441.082 239.634 441.216 240.038 441.082 240.307C440.947 240.576 440.677 240.846 440.408 241.115C439.059 242.327 433.532 245.693 432.724 245.962C431.376 246.232 427.197 244.885 425.983 244.347C424.5 243.673 428.41 238.153 429.623 235.729Z" fill="#CB7A63"/>
<path d="M399.288 281.906C400.502 272.345 421.936 246.358 424.767 242.722C426.384 240.702 432.855 242.183 434.203 246.088C428.406 254.167 425.171 261.035 421.127 270.191C420.183 272.345 415.869 280.694 414.521 282.579C403.602 297.795 398.749 286.08 399.288 281.906Z" fill="#7981EC"/>
<g opacity="0.1">
<g opacity="0.1">
<path opacity="0.1" d="M399.288 281.906C400.502 272.345 421.936 246.358 424.767 242.722C426.384 240.702 432.855 242.183 434.203 246.088C428.406 254.167 425.171 261.035 421.127 270.191C420.183 272.345 415.869 280.694 414.521 282.579C403.602 297.795 398.749 286.08 399.288 281.906Z" fill="black"/>
</g>
</g>
<path d="M476.806 304.801C476.806 304.801 469.931 304.935 467.909 306.821L464.943 309.379C464.404 309.918 464.269 310.725 464.808 311.399C466.426 313.149 469.931 316.65 473.84 317.997C474.784 318.266 475.727 318.131 476.401 317.593C476.401 317.593 481.12 311.668 480.311 310.456L476.806 304.801Z" fill="#CB7A63"/>
<path d="M494.734 305.341C494.06 305.61 493.521 306.014 492.847 306.283L483.141 309.784C476.535 313.016 476.131 304.937 476.131 304.937L478.827 302.648L496.756 287.836C496.756 287.836 480.04 275.448 469.256 265.08C461.167 255.789 462.246 249.595 471.817 250.672C478.692 251.345 510.102 280.834 512.932 283.931C515.629 287.297 509.293 297.396 494.734 305.341Z" fill="#7981EC"/>
<path opacity="0.1" d="M494.734 305.341C494.06 305.61 493.521 306.014 492.847 306.283L483.141 309.784C476.535 313.016 476.131 304.937 476.131 304.937L478.827 302.648L496.756 287.836C496.756 287.836 480.04 275.448 469.256 265.08C461.167 255.789 462.246 249.595 471.817 250.672C478.692 251.345 510.102 280.834 512.932 283.931C515.629 287.297 509.293 297.396 494.734 305.341Z" fill="black"/>
<path d="M499.855 273.025L499.721 272.891C499.721 272.891 499.855 272.891 499.855 273.025Z" fill="#263238"/>
<path d="M437.576 212.83C437.037 212.695 436.497 213.368 436.228 214.176C436.093 214.984 436.363 215.792 436.902 215.927C437.441 216.061 437.98 215.388 438.25 214.58C438.519 213.638 438.115 212.964 437.576 212.83Z" fill="#263238"/>
<path d="M436.091 223.874C434.608 224.009 433.26 223.47 432.182 222.393C434.204 220.508 436.091 218.353 437.574 215.93L436.091 223.874Z" fill="#B74D3C"/>
<path d="M441.888 210.409C441.079 209.466 439.731 208.928 438.518 209.062H438.383C438.113 209.062 437.844 208.793 437.844 208.524C437.844 208.254 438.113 207.985 438.383 207.985C440.001 207.85 441.618 208.389 442.697 209.601C442.832 209.736 442.832 209.87 442.832 209.87C442.832 210.139 442.562 210.409 442.292 210.409C442.158 210.543 442.023 210.409 441.888 210.409Z" fill="#263238"/>
<path d="M448.496 261.169C462.92 261.034 464.942 253.09 464.942 253.09C460.628 249.05 460.224 241.375 461.033 234.508C459.954 236.124 458.606 237.47 456.854 238.682C453.484 240.971 449.709 241.51 446.339 240.836H446.204C446.204 240.971 446.204 241.106 446.339 241.24C447.283 246.761 446.609 252.551 440.947 254.436C440.812 254.436 432.589 261.438 448.496 261.169Z" fill="#CB7A63"/>
<path d="M445.664 238.818C445.799 239.492 445.934 240.165 446.068 240.838H446.203C449.573 241.646 453.348 241.107 456.718 238.684C458.471 237.472 459.819 236.125 460.897 234.509C461.032 232.759 461.301 231.009 461.706 229.527L446.203 238.414L445.664 238.818Z" fill="#CB7A63"/>
<path d="M466.424 252.558C466.424 252.558 464.267 246.364 461.167 244.344C458.066 242.459 444.586 244.748 442.429 245.691C440.272 246.499 438.25 251.481 438.25 251.481L466.424 252.558Z" fill="#7981EC"/>
<path opacity="0.8" d="M466.424 252.558C466.424 252.558 464.267 246.364 461.167 244.344C458.066 242.459 444.586 244.748 442.429 245.691C440.272 246.499 438.25 251.481 438.25 251.481L466.424 252.558Z" fill="white"/>
<path d="M448.766 562.113C447.418 562.113 446.204 561.978 445.8 561.305C445.53 561.036 445.53 560.632 445.8 560.228C445.935 559.959 446.204 559.689 446.609 559.689C448.226 559.285 451.866 561.171 452.001 561.305C452.136 561.305 452.136 561.44 452.136 561.575C452.136 561.709 452.001 561.709 452.001 561.844C450.922 561.979 449.844 562.113 448.766 562.113ZM447.148 560.228C447.013 560.228 446.878 560.228 446.743 560.228C446.609 560.228 446.339 560.363 446.204 560.632C446.069 560.901 446.069 561.036 446.204 561.171C446.609 561.844 449.17 561.844 451.057 561.575C449.979 560.767 448.631 560.363 447.148 560.228Z" fill="#7981EC"/>
<path d="M451.867 561.844C450.519 561.305 448.093 559.151 448.363 557.939C448.363 557.67 448.632 557.266 449.306 557.266C449.845 557.266 450.25 557.4 450.654 557.67C452.002 558.747 452.137 561.44 452.272 561.574C452.272 561.709 452.272 561.709 452.137 561.844C452.002 561.844 451.867 561.844 451.867 561.844ZM449.441 557.804H449.306C448.902 557.804 448.902 558.074 448.767 558.074C448.632 558.747 450.25 560.497 451.598 561.171C451.463 559.959 451.059 558.881 450.25 558.074C449.98 557.804 449.711 557.804 449.441 557.804Z" fill="#7981EC"/>
<path d="M462.112 538.281H452.002L452.811 561.576H462.921L462.112 538.281Z" fill="#CB7A63"/>
<path d="M450.52 561.175C443.645 565.349 441.488 565.619 433.534 567.369C431.782 567.773 432.86 571.947 437.039 571.947C443.914 571.947 444.723 571.678 450.52 571.543C455.508 571.543 461.304 571.813 465.348 571.813C465.483 571.813 465.618 571.813 465.753 571.813C466.562 571.678 466.966 570.87 466.831 570.062L464.809 561.04C464.674 560.636 464.405 560.367 464 560.367H452.946C452.003 560.502 451.194 560.771 450.52 561.175Z" fill="#263238"/>
<path opacity="0.2" d="M462.112 538.281L462.517 551.342H452.406L452.002 538.281H462.112Z" fill="black"/>
<path d="M537.332 557.941C537.197 556.595 537.197 555.248 537.871 554.844C538.141 554.575 538.68 554.575 538.95 554.71C539.219 554.844 539.489 555.113 539.624 555.383C540.298 557.133 538.545 560.904 538.411 561.173C538.411 561.307 538.276 561.307 538.141 561.307C538.006 561.307 538.006 561.173 537.871 561.173C537.602 560.096 537.332 559.018 537.332 557.941ZM539.219 556.056C539.219 555.921 539.219 555.787 539.219 555.517C539.219 555.248 539.085 555.114 538.815 555.114C538.545 554.979 538.276 554.979 538.276 555.114C537.602 555.652 537.871 558.345 538.411 560.23C538.815 559.018 539.085 557.537 539.219 556.056Z" fill="#7981EC"/>
<path d="M537.871 561.036C538.276 559.689 540.298 556.996 541.511 556.996C541.78 556.996 542.185 557.131 542.32 557.804C542.454 558.343 542.32 558.881 542.05 559.285C541.106 560.766 538.276 561.17 538.141 561.305C538.006 561.305 538.006 561.305 537.871 561.17C537.871 561.17 537.871 561.17 537.871 561.036ZM541.915 558.208V558.073C541.915 557.669 541.646 557.669 541.646 557.669C540.972 557.669 539.354 559.42 538.68 560.766C539.893 560.497 540.972 559.958 541.78 559.151C541.78 558.747 541.915 558.477 541.915 558.208Z" fill="#7981EC"/>
<path d="M530.729 538.148L520.889 538.822L526.685 562.251L536.526 561.578L530.729 538.148Z" fill="#CB7A63"/>
<path d="M538.949 559.691C542.05 562.788 543.667 564.269 551.89 566.154C553.778 566.558 552.564 570.867 548.116 570.867C540.971 570.732 544.881 570.463 538.68 570.463C533.422 570.463 528.839 570.463 524.66 570.463C524.525 570.463 524.39 570.463 524.255 570.463C523.447 570.328 522.907 569.385 523.042 568.578L525.199 559.287C525.334 558.883 525.603 558.613 526.143 558.613L536.253 558.883C537.331 558.748 538.275 559.152 538.949 559.691Z" fill="#263238"/>
<path opacity="0.2" d="M530.729 538.148L533.695 550.267L523.854 550.94L520.889 538.822L530.729 538.148Z" fill="black"/>
<path d="M477.482 334.15C477.482 334.15 483.009 342.633 486.784 352.867C492.176 367.409 490.289 375.084 492.041 384.914C495.276 402.284 499.994 415.615 503.365 428.81C513.745 470.014 535.718 543.264 535.718 543.264L517.924 547.169C517.924 547.169 485.031 459.78 475.595 430.292C467.237 403.765 445.533 334.016 445.533 334.016L477.482 334.15Z" fill="#7981EC"/>
<path opacity="0.4" d="M477.482 334.15C477.482 334.15 483.009 342.633 486.784 352.867C492.176 367.409 490.289 375.084 492.041 384.914C495.276 402.284 499.994 415.615 503.365 428.81C513.745 470.014 535.718 543.264 535.718 543.264L517.924 547.169C517.924 547.169 485.031 459.78 475.595 430.292C467.237 403.765 445.533 334.016 445.533 334.016L477.482 334.15Z" fill="black"/>
<path d="M537.738 540.035L537.873 546.364L516.439 548.653C516.439 548.653 514.552 541.786 514.687 541.786L537.738 540.035Z" fill="#7981EC"/>
<path opacity="0.8" d="M537.738 540.035L537.873 546.364L516.439 548.653C516.439 548.653 514.552 541.786 514.687 541.786L537.738 540.035Z" fill="white"/>
<path opacity="0.3" d="M455.643 366.199C462.518 388.147 471.01 415.751 475.729 430.293C475.998 430.966 476.133 431.774 476.403 432.448C474.65 408.21 469.797 367.411 457.53 365.93C456.856 365.93 456.182 365.93 455.643 366.199Z" fill="black"/>
<path d="M461.034 334.016C461.034 334.016 466.291 400.938 466.83 432.581C467.369 462.069 465.213 547.977 465.213 547.977H448.092C448.092 547.977 439.869 460.319 436.903 430.292C434.073 401.88 426.523 334.554 426.523 334.554L461.034 334.016Z" fill="#7981EC"/>
<path opacity="0.4" d="M461.034 334.016C461.034 334.016 466.291 400.938 466.83 432.581C467.369 462.069 465.213 547.977 465.213 547.977H448.092C448.092 547.977 439.869 460.319 436.903 430.292C434.073 401.88 426.523 334.554 426.523 334.554L461.034 334.016Z" fill="black"/>
<path d="M467.776 541.919L467.237 548.248H446.477L445.533 541.246L467.776 541.919Z" fill="#7981EC"/>
<path opacity="0.8" d="M467.776 541.919L467.237 548.248H446.477L445.533 541.246L467.776 541.919Z" fill="white"/>
<path d="M494.193 355.423L489.475 354.077C481.791 351.922 473.703 351.653 465.884 353.403L460.223 340.612L461.975 354.077H459.548C452.539 353.942 445.529 355.289 439.058 358.251C435.688 359.732 432.587 361.079 432.587 360.944C432.587 360.54 426.521 334.822 426.521 334.822C420.32 293.08 421.399 271.939 423.286 261.706C424.23 256.185 428.543 251.876 434.07 250.799C436.092 250.395 438.519 249.991 440.945 249.856C448.09 249.318 455.37 249.318 462.514 249.587L467.232 249.991C474.781 250.395 482.465 256.724 481.117 264.129C476.534 288.771 475.86 306.814 476.13 318.663L494.193 355.423Z" fill="#7981EC"/>
<path opacity="0.2" d="M422.072 295.234C422.072 295.234 421.937 274.632 422.072 270.862L437.439 260.359C434.608 265.341 427.599 276.248 422.072 295.234Z" fill="black"/>
<path d="M435.149 227.238C435.419 232.49 438.384 236.933 442.428 239.357C443.507 240.03 444.72 240.434 446.068 240.838H446.203C449.573 241.646 453.348 241.107 456.718 238.684C458.47 237.472 459.818 236.125 460.897 234.51C463.593 230.605 464.671 225.353 466.559 218.082C467.098 215.928 467.233 213.639 466.828 211.484C465.21 203.674 457.661 198.692 449.843 200.308C439.058 202.462 434.744 217.543 435.149 227.238Z" fill="#CB7A63"/>
<path opacity="0.2" d="M442.562 239.358C443.641 240.031 444.854 240.435 446.202 240.839L445.663 234.51C445.663 234.241 443.237 239.358 442.562 239.358Z" fill="black"/>
<path d="M479.366 219.833C478.152 221.314 476.67 222.93 474.782 223.065C473.704 223.199 472.491 222.93 471.547 222.526C468.177 228.316 461.032 234.51 461.032 234.51C459.28 235.183 457.392 235.587 455.37 235.587C453.348 235.587 451.461 235.183 449.574 234.51C449.035 234.241 448.495 234.106 448.495 234.106C447.956 233.971 445.26 222.661 441.485 220.91C440.677 220.506 440.677 220.506 440.677 220.506C440.946 219.294 440.542 215.928 441.755 214.851C442.429 214.178 440.677 212.696 440.811 211.484C440.811 211.35 440.811 211.35 440.811 211.215C439.598 210.407 439.463 208.791 440.003 207.176C441.081 202.867 443.508 204.079 443.508 204.079C443.508 204.079 442.294 202.597 442.699 200.174C443.238 197.75 447.821 196.404 447.821 196.404C447.821 196.404 448.495 196.538 449.439 196.673C450.517 195.865 451.865 195.461 453.214 195.461C454.966 195.596 457.258 196.807 458.201 198.289C459.684 197.077 461.706 196.807 463.459 197.346C465.211 197.885 466.694 199.5 467.098 201.251C468.851 200.578 470.603 201.251 471.951 202.597C473.299 203.809 473.839 205.829 473.299 207.58C474.648 207.984 475.456 208.926 475.591 210.407C475.726 211.754 475.456 213.235 475.187 214.581C475.052 215.928 475.052 217.409 475.726 218.621C476.535 219.833 478.152 220.506 479.366 219.833Z" fill="#263238"/>
<path d="M445.529 213.909C442.563 214.852 441.08 219.295 440.945 222.123C440.811 225.22 442.968 227.24 445.664 225.085C447.686 223.469 449.169 221.18 449.708 218.622C450.382 215.525 448.495 212.967 445.529 213.909Z" fill="#CB7A63"/>
<path d="M419.647 261.173C419.647 261.173 419.647 261.173 400.64 282.717C397.944 288.776 407.11 295.509 413.581 289.584L436.363 263.327C437.981 259.691 438.25 256.729 435.824 254.44C432.723 251.208 427.062 249.189 419.647 261.173Z" fill="#7981EC"/>
<path d="M159.877 302.248C168.639 311.538 173.897 316.251 177.132 318.81C180.637 321.637 210.968 303.19 214.743 301.036C214.743 301.036 211.373 297.669 209.89 298.073C204.632 299.42 180.907 307.499 180.907 307.499C179.828 307.095 168.909 294.707 168.909 294.707L159.877 302.248Z" fill="#B97964"/>
<path d="M218.649 296.324C218.649 296.324 215.953 300.768 212.313 301.845L209.482 299.152L210.696 291.073L210.83 290.534L211.1 290.265L214.875 286.629C215.683 285.821 216.897 285.821 217.706 286.629L220.536 289.322C221.21 289.996 221.345 290.938 220.941 291.611L218.649 296.324Z" fill="#B97964"/>
<path d="M176.191 298.611C168.507 287.569 154.891 280.433 150.982 280.298C145.455 280.163 143.702 281.51 145.725 285.684C149.364 292.821 155.296 300.227 163.384 308.979L176.191 298.611Z" fill="#263238"/>
<path d="M154.083 280.965C150.847 279.888 149.634 279.35 144.512 278.138C138.58 276.791 132.649 275.714 126.582 275.175C122.808 274.771 119.033 274.637 116.068 274.637C115.663 274.637 115.394 274.637 114.989 274.771C112.293 275.445 110.541 278.138 111.08 280.965C117.011 312.205 117.281 326.074 116.472 342.232L152.465 343.578C153.409 343.578 154.218 342.905 154.352 341.963C155.97 333.883 160.958 315.84 160.958 315.84C166.08 312.205 165.811 308.165 164.463 302.779C164.058 301.163 163.115 299.547 158.936 290.66C159.071 290.391 155.97 281.639 154.083 280.965Z" fill="#263238"/>
<path d="M131.301 342.636L144.377 343.175C146.399 327.555 145.321 315.975 145.321 298.336C145.455 314.763 136.019 334.557 131.301 342.636Z" fill="white"/>
<path d="M145.049 348.836C145.049 348.836 161.225 428.819 160.416 461.943C159.607 496.818 152.732 557.007 152.732 557.007L144.24 556.873C144.24 556.873 136.556 512.303 141.004 463.559C118.627 414.546 112.83 351.933 112.83 351.933L145.049 348.836Z" fill="#B97964"/>
<path d="M145.049 348.836C145.049 348.836 161.225 428.819 160.416 461.943C159.607 496.818 152.732 557.007 152.732 557.007L144.24 556.873C144.24 556.873 136.556 512.303 141.004 463.559C118.627 414.546 112.83 351.933 112.83 351.933L145.049 348.836Z" fill="#A86955"/>
<path d="M137.768 368.629C137.768 368.629 141.947 431.242 137.634 464.097C133.05 498.702 119.705 557.814 119.705 557.814L111.212 556.872C111.212 556.872 108.381 511.763 117.952 463.693C100.967 412.66 105.28 368.359 105.28 368.359L137.768 368.629Z" fill="#B97964"/>
<path d="M137.768 368.629C137.768 368.629 141.947 431.242 137.634 464.097C133.05 498.702 119.705 557.814 119.705 557.814L111.212 556.872C111.212 556.872 108.381 511.763 117.952 463.693C100.967 412.66 105.28 368.359 105.28 368.359L137.768 368.629Z" fill="#B97964"/>
<path d="M105.549 440.534C110.672 441.611 118.625 443.9 132.106 445.112C132.375 445.112 132.645 445.112 132.914 445.112C133.454 445.112 134.128 445.247 134.667 445.247C138.307 445.381 162.437 448.613 164.189 438.649C164.189 438.649 158.932 414.007 153.944 386.538C150.844 369.976 153.405 346.547 153.405 346.547C142.89 345.335 132.24 345.066 121.726 345.604L115.525 346.008C115.525 346.008 94.7646 366.475 99.8872 386.808C107.706 417.508 105.549 440.534 105.549 440.534Z" fill="#7981EC"/>
<g opacity="0.4">
<path opacity="0.4" d="M105.549 440.534C110.672 441.611 118.625 443.9 132.106 445.112C132.375 445.112 132.645 445.112 132.914 445.112C133.454 445.112 134.128 445.247 134.667 445.247C138.307 445.381 162.437 448.613 164.189 438.649C164.189 438.649 158.932 414.007 153.944 386.538C150.844 369.976 153.405 346.547 153.405 346.547C142.89 345.335 132.24 345.066 121.726 345.604L115.525 346.008C115.525 346.008 94.7646 366.475 99.8872 386.808C107.706 417.508 105.549 440.534 105.549 440.534Z" fill="black"/>
</g>
<path opacity="0.1" d="M121.592 274.637C122.401 277.734 123.883 280.831 125.771 283.389C131.028 290.526 138.712 298.335 142.082 299.278C143.026 296.989 144.509 292.68 144.509 292.68C146.8 293.757 147.34 296.854 148.148 299.278C151.653 293.488 154.484 283.524 153.541 279.888C153.541 279.888 149.227 278.542 147.07 278.138C141.139 276.791 135.207 275.849 129.141 275.31C126.58 274.771 123.883 274.637 121.592 274.637Z" fill="black"/>
<path d="M121.459 273.965L122.672 276.119C127.256 284.468 137.905 295.24 142.084 296.182C143.028 293.893 144.106 289.988 144.106 289.988C146.398 291.066 148.016 294.163 148.69 296.586C152.195 290.796 154.351 282.717 153.408 279.082C151.251 278.408 149.094 277.735 146.937 277.331C141.006 275.985 135.074 275.042 129.008 274.503C126.447 274.1 123.751 273.965 121.459 273.965Z" fill="white"/>
<path d="M116.608 346.143L134.806 346.681H136.289L140.199 346.816H141.681L152.331 347.085C152.601 347.085 153.005 346.951 153.005 346.681L153.409 343.315C153.409 343.046 153.14 342.911 152.735 342.911L142.086 342.507H140.873L135.615 342.372H134.402L116.877 341.699C116.608 341.699 116.338 341.834 116.203 341.969L115.799 345.873C115.799 345.873 116.203 346.143 116.608 346.143Z" fill="#7981EC"/>
<path opacity="0.2" d="M116.608 346.143L134.806 346.681H136.289L140.199 346.816H141.681L152.331 347.085C152.601 347.085 153.005 346.951 153.005 346.681L153.409 343.315C153.409 343.046 153.14 342.911 152.735 342.911L142.086 342.507H140.873L135.615 342.372H134.402L116.877 341.699C116.608 341.699 116.338 341.834 116.203 341.969L115.799 345.873C115.799 345.873 116.203 346.143 116.608 346.143Z" fill="white"/>
<path d="M147.477 347.488H146.264C145.994 347.488 145.859 347.353 145.859 347.218L146.533 342.371C146.533 342.236 146.803 342.102 146.938 342.102H148.151C148.421 342.102 148.555 342.236 148.555 342.371L147.881 347.218C147.881 347.353 147.747 347.488 147.477 347.488Z" fill="#263238"/>
<path d="M127.122 347.218H126.043C125.773 347.218 125.639 347.083 125.639 346.949L126.313 342.101C126.313 341.967 126.582 341.832 126.717 341.832H127.796C128.065 341.832 128.2 341.967 128.2 342.101L127.526 346.949C127.526 347.083 127.391 347.218 127.122 347.218Z" fill="#263238"/>
<path d="M165.811 332.943H138.311L141.546 296.184H169.046L165.811 332.943Z" fill="#7981EC"/>
<path d="M116.741 326.074C117.82 324.862 118.494 323.516 118.224 322.035C118.224 322.035 118.224 319.745 118.359 316.379C118.494 306.415 118.494 286.621 117.55 283.928C115.258 278.273 111.349 275.176 109.327 278.542C106.9 282.447 106.766 311.936 106.766 311.936C107.305 331.46 114.45 328.767 116.741 326.074Z" fill="#B97964"/>
<path d="M154.757 323.111C154.757 323.111 150.308 325.804 146.534 324.996L145.32 321.36L150.308 314.897L150.578 314.493L150.982 314.358L156.105 312.877C157.183 312.608 158.262 313.147 158.531 314.224L159.744 317.994C160.014 318.802 159.744 319.744 158.936 320.283L154.757 323.111Z" fill="#B97964"/>
<path d="M110.809 327.154C114.045 331.058 146.937 325.268 147.207 325.134C148.285 324.595 148.42 321.902 147.207 320.825C146.533 320.286 112.831 317.189 110.54 317.055C106.63 323.114 109.192 325.134 110.809 327.154Z" fill="#B97964"/>
<path d="M157.456 235.727C161.905 241.113 164.331 245.152 161.5 263.33C160.961 266.696 162.444 274.775 163.118 274.91C145.593 272.89 140.471 269.928 132.113 264.946C126.586 261.58 122.002 249.192 123.485 242.863C125.103 235.996 132.517 227.917 139.797 227.243C148.02 226.436 152.468 229.533 157.456 235.727Z" fill="#263238"/>
<path d="M145.457 269.792C143.57 273.427 142.492 277.736 146.94 281.506C147.884 282.314 148.693 283.391 148.827 284.603C149.232 286.623 148.423 288.643 141.413 285.95C131.303 282.045 131.033 275.716 131.033 275.716C135.617 273.427 136.83 262.79 136.965 256.73L145.457 269.792Z" fill="#B97964"/>
<path opacity="0.2" d="M138.988 265.351C138.719 267.909 141.954 271.545 144.246 272.757C144.515 271.814 144.92 270.737 145.459 269.794L140.471 261.984C139.797 263.062 139.258 264.139 138.988 265.351Z" fill="black"/>
<path d="M132.516 241.921C135.077 235.189 142.626 231.823 149.367 234.516C158.803 238.151 160.556 252.29 158.803 260.907C156.916 270.602 145.188 273.699 137.773 266.428C132.786 261.581 132.651 257.541 131.842 247.981C131.438 245.826 131.707 243.807 132.516 241.921Z" fill="#B97964"/>
<path d="M133.594 257.946C133.594 257.946 137.638 254.042 136.83 246.905C136.83 246.905 141.143 242.461 141.008 237.614C141.008 237.614 142.357 241.384 141.008 244.212C141.008 244.212 152.332 243.404 152.063 237.614C152.063 237.614 153.006 242.596 151.388 244.077C151.388 244.077 159.207 243.404 158.533 238.153C157.59 229.939 150.58 229.535 150.58 229.535C150.58 229.535 143.031 223.206 132.651 234.382C132.651 234.382 120.383 242.058 129.146 254.715L133.594 257.946Z" fill="#263238"/>
<path d="M153.006 257.407C153.95 257.677 155.028 257.407 155.702 256.869C154.489 255.388 153.545 253.772 152.736 251.887L153.006 257.407Z" fill="#B74D3C"/>
<path d="M145.728 258.349C145.593 258.214 145.728 258.079 145.728 258.079C145.863 257.945 145.997 258.079 145.997 258.079C147.211 259.561 149.098 260.503 151.12 260.368C151.255 260.368 151.39 260.503 151.39 260.638C151.39 260.772 151.255 260.907 151.12 260.907C150.716 260.907 150.311 260.907 150.042 260.907C148.424 260.503 146.806 259.695 145.728 258.349Z" fill="#263238"/>
<path d="M128.068 253.636C128.068 251.616 129.551 250 131.438 250C134.135 250 135.887 253.366 136.291 255.655C136.696 258.214 135.078 260.503 132.517 259.426C130.63 258.618 129.147 257.002 128.338 255.117C128.203 254.578 128.068 254.04 128.068 253.636Z" fill="#B97964"/>
<path d="M146.533 249.325C146.533 250.267 146.938 251.075 147.612 251.075C148.286 251.075 148.825 250.402 148.825 249.325C148.825 248.382 148.42 247.574 147.746 247.574C147.072 247.574 146.533 248.247 146.533 249.325Z" fill="#263238"/>
<path d="M155.432 250.266C155.432 251.209 155.836 252.017 156.51 252.017C157.184 252.017 157.723 251.343 157.723 250.266C157.723 249.324 157.319 248.516 156.645 248.516C155.971 248.516 155.432 249.324 155.432 250.266Z" fill="#263238"/>
<path d="M156.375 248.648L158.667 248.109C158.667 247.974 157.453 249.725 156.375 248.648Z" fill="#263238"/>
<path d="M143.838 246.09C143.703 246.09 143.703 246.09 143.568 245.955C143.433 245.82 143.433 245.416 143.568 245.282C144.781 243.935 146.534 243.262 148.286 243.531C148.556 243.531 148.69 243.8 148.69 244.07C148.69 244.339 148.421 244.474 148.151 244.474C146.668 244.339 145.186 244.878 144.242 245.955C144.107 246.09 143.972 246.09 143.838 246.09Z" fill="#263238"/>
<path d="M158.8 247.3C158.665 247.3 158.665 247.165 158.665 247.165C157.856 245.954 156.508 245.146 155.026 245.146C154.756 245.146 154.486 245.011 154.486 244.742C154.486 244.472 154.621 244.203 154.891 244.203C156.643 244.203 158.396 245.146 159.339 246.627C159.474 246.896 159.474 247.165 159.205 247.3C159.205 247.3 158.935 247.3 158.8 247.3Z" fill="#263238"/>
<path d="M147.344 247.574L149.635 247.035C149.77 247.035 148.422 248.786 147.344 247.574Z" fill="#263238"/>
<path d="M113.234 275.046C115.525 274.507 117.952 275.181 119.704 276.796C121.457 278.681 122.67 281.375 122.94 283.933C123.479 287.972 119.03 302.649 119.165 306.824C114.851 304.4 108.381 301.168 102.314 300.63C103.123 290.935 104.337 284.606 106.089 281.375C107.167 279.489 108.246 277.604 109.998 276.392C110.672 275.719 112.02 275.315 113.234 275.046Z" fill="#263238"/>
<path d="M154.892 558.085C157.993 561.182 159.611 562.663 167.834 564.548C169.721 564.952 168.508 569.261 164.059 569.261C156.915 569.126 160.824 568.857 154.623 568.857C149.365 568.857 144.782 568.857 140.603 568.857C140.468 568.857 140.334 568.857 140.199 568.857C139.39 568.722 138.851 567.78 138.985 566.972L141.142 557.681C141.277 557.277 141.547 557.008 142.086 557.008L152.196 557.277C153.14 557.277 154.084 557.546 154.892 558.085Z" fill="#263238"/>
<path d="M122.674 558.755C124.696 562.66 125.639 564.545 132.919 568.989C134.537 569.931 131.975 573.702 127.931 572.355C121.056 570.066 124.965 571.009 119.169 568.989C114.181 567.238 109.867 565.892 105.823 564.68C105.688 564.68 105.553 564.545 105.419 564.545C104.745 564.141 104.475 563.199 104.879 562.391L109.732 554.177C110.002 553.773 110.406 553.639 110.811 553.773L120.382 557.139C121.326 557.409 122.135 557.947 122.674 558.755Z" fill="#263238"/>
</g>
<defs>
<linearGradient id="paint0_linear_1817_971" x1="775.014" y1="91.1994" x2="305.214" y2="338.283" gradientUnits="userSpaceOnUse">
<stop stop-color="#AABDFF" stop-opacity="0"/>
<stop offset="0.6875" stop-color="#89AEF4" stop-opacity="0.29"/>
<stop offset="1" stop-color="#EDEFFF" stop-opacity="0.4"/>
</linearGradient>
<clipPath id="clip0_1817_971">
<rect width="674.026" height="496.595" fill="white" transform="translate(0 83.5703)"/>
</clipPath>
</defs>
</svg>
