<svg width="64" height="86" viewBox="0 0 64 86" fill="none" xmlns="http://www.w3.org/2000/svg">
<path d="M27.2003 85.9624C26.3462 85.7472 25.487 85.5538 24.6412 85.31C20.5925 84.133 17.386 81.7976 15.1162 78.233C10.452 70.9089 5.80014 63.5752 1.16063 56.232C-0.312273 53.9016 -0.392977 51.4687 0.973993 49.0912C2.34096 46.7137 4.48137 45.609 7.19514 45.7284C8.23576 45.75 9.25517 46.0267 10.1639 46.5342C11.0727 47.0416 11.8431 47.7643 12.4074 48.6389C14.8825 52.2909 17.3485 55.9496 19.8056 59.615C19.9283 59.7966 20.0628 59.9731 20.3302 60.3481V59.2955C20.3302 44.9589 20.3302 30.6211 20.3302 16.2822C20.3302 13.0657 22.7598 10.7168 25.9325 10.816C28.7674 10.9034 31.0087 13.2978 31.0221 16.3175C31.044 20.9296 31.0221 25.5416 31.0221 30.152V31.0684C31.6039 29.693 32.4076 28.5143 33.7443 27.7981C35.081 27.0818 36.4698 26.8481 37.9309 27.3945C37.9309 46.9177 37.9309 66.4403 37.9309 85.9624H27.2003Z" fill="#88A3FA"/>
<path d="M37.9258 85.9639C37.9258 66.4407 37.9258 46.9181 37.9258 27.396C40.088 27.8853 41.6887 30.0459 41.7392 32.573C41.761 33.6575 41.7392 34.742 41.7997 35.85C42.3041 34.7807 42.8724 33.7937 43.856 33.1094C45.5778 31.9088 47.4223 31.7088 49.3038 32.5915C51.1533 33.4591 52.2176 34.9622 52.3504 37.0404C52.4076 37.9568 52.379 38.8799 52.3925 39.8013C52.3925 40.0468 52.3269 40.373 52.6111 40.4604C52.9473 40.5646 52.9591 40.1813 53.0768 39.993C54.2538 38.0863 56.4514 37.0102 58.4573 37.365C60.8112 37.7819 62.5195 39.3927 62.997 41.6844C63.046 42.0153 63.0746 42.3488 63.0828 42.6832C63.0744 45.5247 63.0559 48.368 63.0575 51.2095C63.0575 56.8142 63.066 62.4188 63.0828 68.0234C63.0105 68.8002 63.0189 69.577 62.9146 70.3572C62.4542 73.8484 60.9771 77.1271 58.6673 79.7852C56.3576 82.4433 53.317 84.3634 49.9242 85.3064C49.0011 85.5603 48.0629 85.7503 47.1314 85.979L37.9258 85.9639Z" fill="#6B85DA"/>
<path d="M14.7952 15.4745C14.6791 16.712 14.5614 17.9058 14.4589 19.1029C14.4353 19.3938 14.363 19.5872 14.02 19.5552C11.9631 19.3703 9.90678 19.1881 7.851 19.0088C7.55508 18.9819 7.49286 18.8188 7.51472 18.5497C7.6526 17.1609 7.79048 15.7721 7.90313 14.3799C7.93172 14.0318 8.09481 13.9663 8.38906 13.9932C10.3899 14.1781 12.3908 14.353 14.3916 14.5396C15.1331 14.6086 14.6859 15.1786 14.7952 15.4745Z" fill="#2D4898"/>
<path d="M37.2635 15.814C37.2546 15.6197 37.231 15.4263 37.1929 15.2356C37.0517 14.7144 37.2669 14.553 37.7713 14.5126C39.6208 14.3646 41.4872 14.1982 43.3401 14.0082C43.9084 13.9493 44.1202 14.0939 44.1488 14.6942C44.2093 15.9182 44.3573 17.1356 44.47 18.3563C44.5036 18.7094 44.5238 18.9952 44.0109 19.0288C42.1244 19.1751 40.2396 19.3365 38.3598 19.55C37.7158 19.624 37.5494 19.4038 37.5191 18.8102C37.467 17.8115 37.3392 16.8144 37.2433 15.8174L37.2635 15.814Z" fill="#2D4898"/>
<path d="M15.6207 3.02197C15.6978 3.17132 15.7878 3.31365 15.8897 3.44736C17.2012 4.89672 18.5177 6.34216 19.8393 7.78367C20.0831 8.04933 20.184 8.2242 19.8393 8.51844C18.8304 9.39781 17.8317 10.299 16.8632 11.2238C16.5118 11.5601 16.3302 11.439 16.0646 11.1431C14.7766 9.70886 13.4719 8.28472 12.1755 6.86395C11.9973 6.66554 11.7333 6.47555 12.0662 6.17458C13.1221 5.21787 14.1696 4.25106 15.2222 3.29099C15.3501 3.1943 15.4832 3.1045 15.6207 3.02197Z" fill="#2D4898"/>
<path d="M36.5038 3.09082C36.6332 3.1917 36.7476 3.27073 36.8501 3.3632C37.8388 4.26275 38.814 5.17742 39.8194 6.05343C40.1658 6.35776 40.1103 6.55785 39.8194 6.85546C38.4945 8.28576 37.1836 9.72951 35.8867 11.1867C35.5773 11.5364 35.3823 11.4726 35.0897 11.1867C34.138 10.29 33.1724 9.40612 32.1927 8.53516C31.9203 8.29136 31.8245 8.12491 32.1237 7.80376C33.4924 6.33759 34.8341 4.84788 36.1876 3.36657C36.2869 3.27914 36.3928 3.19339 36.5038 3.09082Z" fill="#2D4898"/>
<path d="M26.042 0.101386C26.8709 0.101386 27.9235 -0.187819 28.4632 0.21067C29.0029 0.60916 28.6313 1.72392 28.6162 2.51249C28.591 3.99884 28.7709 5.49192 28.5153 6.97323C27.8074 7.00517 27.0945 6.87402 26.3934 7.05225L26.0571 7.00686C26.0493 4.70559 26.0442 2.40377 26.042 0.101386Z" fill="#2D4898"/>
<path d="M26.0415 0.100975C26.0415 2.40224 26.0415 4.70406 26.0415 7.00645C23.5345 7.20653 23.5345 7.20653 23.5345 4.7248C23.5345 3.41331 23.5664 2.10183 23.5211 0.792024C23.4992 0.186724 23.7111 0.0152191 24.2794 0.0639795C24.8477 0.11274 25.4563 0.090887 26.0415 0.100975Z" fill="#2D4898"/>
<path d="M26.3931 7.0529C27.0942 6.87467 27.8071 7.00582 28.515 6.97388C27.8155 7.21936 27.1009 7.06971 26.3931 7.0529Z" fill="#05FBFE"/>
</svg>
