<svg width="89" height="89" viewBox="0 0 89 89" fill="none" xmlns="http://www.w3.org/2000/svg">
<path d="M48.0451 85.5411C48.275 84.322 48.6617 83.1342 48.9352 81.9237C49.0275 81.5179 49.1947 81.3664 49.6093 81.3072C51.0723 81.1244 52.5197 80.8333 53.9396 80.4363C54.3699 80.3092 54.511 80.5478 54.7009 80.8038C55.5422 81.9429 56.3801 83.0871 57.2284 84.2244C58.3885 85.7763 59.9806 86.2709 61.5622 85.5812C63.116 84.9037 63.8511 83.3554 63.5358 81.4709C63.318 80.1612 63.1317 78.8445 62.9226 77.5312C62.8477 77.0662 62.9069 76.7353 63.3982 76.4723C64.5919 75.8179 65.7262 75.0603 66.7879 74.2081C67.1729 73.9086 67.4359 73.8825 67.8505 74.1455C69.0698 74.9205 70.3222 75.6468 71.5659 76.3852C72.3045 76.8241 73.0918 77.0958 73.9645 76.946C76.452 76.5158 77.673 74.0201 76.4502 71.7942C75.7116 70.4514 74.9017 69.1469 74.0899 67.8459C73.8513 67.4644 73.8722 67.2102 74.1474 66.8566C74.995 65.7928 75.7524 64.6603 76.4119 63.4708C76.6906 62.9588 77.032 62.8699 77.5354 62.9605C78.4464 63.1207 79.3592 63.2845 80.2754 63.3977C81.1917 63.5109 82.1619 63.8087 83.1165 63.5718C84.51 63.2392 85.4175 62.3683 85.7415 60.9715C86.0585 59.6043 85.6283 58.4305 84.5483 57.5631C83.3081 56.5669 82.0173 55.6299 80.7283 54.6981C80.3886 54.4542 80.3346 54.2365 80.4252 53.8272C80.7388 52.4478 81.0244 51.0615 81.2613 49.6664C81.3362 49.2188 81.5052 49.0464 81.9337 48.9454C83.3969 48.597 84.8514 48.2208 86.3041 47.8412C87.3684 47.5625 88.1784 46.9564 88.6365 45.9253C89.5075 43.9677 88.5634 41.8394 86.4766 41.2124C84.982 40.7648 83.4596 40.4147 81.9477 40.0559C81.5261 39.9549 81.3449 39.7929 81.2683 39.3401C81.0279 37.9172 80.7457 36.4995 80.4148 35.0939C80.3224 34.6951 80.4479 34.5262 80.7318 34.3189C81.8797 33.4846 83.0137 32.6347 84.1494 31.7848C85.7171 30.6109 86.2397 29.0347 85.5725 27.4637C84.9002 25.8666 83.3394 25.1229 81.4059 25.4521C80.1239 25.6698 78.8331 25.837 77.5511 26.06C76.9867 26.1592 76.6802 25.9903 76.3736 25.4817C75.7064 24.3653 74.9679 23.2907 74.2032 22.237C73.907 21.8295 73.8391 21.5543 74.1317 21.1014C74.8982 19.9119 75.6124 18.684 76.3248 17.4596C77.2741 15.8277 77.1313 14.2811 75.9485 13.0794C74.7292 11.8497 73.1615 11.7 71.505 12.6718C70.2856 13.3894 69.0576 14.1069 67.8609 14.8646C67.4533 15.1241 67.1868 15.1258 66.7983 14.8158C65.7653 13.9766 64.6574 13.2339 63.4887 12.5969C62.9453 12.3061 62.8408 11.9577 62.9331 11.4126C63.1578 10.1011 63.3476 8.78616 63.5567 7.47295C63.8511 5.63724 63.1073 4.11677 61.5814 3.44448C59.998 2.74782 58.4041 3.23375 57.244 4.78556C56.394 5.92113 55.5521 7.06192 54.7183 8.20793C54.5005 8.5075 54.3194 8.69386 53.8735 8.55626C52.5437 8.16071 51.1805 7.88786 49.8009 7.74116C49.1843 7.67846 48.9857 7.39283 48.8672 6.84943C48.5798 5.55189 48.2471 4.2648 47.9266 2.97423C47.7124 2.1156 47.3553 1.33359 46.6394 0.767553C44.6919 -0.768592 41.9362 0.0970135 41.1994 2.50921C40.7831 3.89035 40.4556 5.29587 40.1421 6.7101C40.0027 7.34406 39.7745 7.69936 39.0551 7.75509C37.7607 7.88847 36.4818 8.1433 35.2351 8.5162C34.7735 8.64682 34.5088 8.558 34.2301 8.15742C33.434 7.02011 32.5927 5.91416 31.7618 4.7995C30.5947 3.23201 28.9991 2.72344 27.4384 3.40617C25.8376 4.10284 25.1164 5.63898 25.4457 7.58616C25.6669 8.89589 25.8428 10.2143 26.0553 11.5258C26.1285 11.9734 26.0414 12.2712 25.6024 12.5151C24.3888 13.193 23.2314 13.9671 22.1413 14.8297C21.7929 15.1119 21.5334 15.1119 21.1536 14.8715C19.9343 14.1017 18.6853 13.3632 17.4329 12.6387C15.7973 11.6947 14.2592 11.8445 13.0573 13.0341C11.8554 14.2236 11.6881 15.8051 12.6671 17.4788C13.383 18.698 14.0989 19.9171 14.8584 21.1223C15.1232 21.5369 15.0814 21.7964 14.7992 22.1848C14.0188 23.2611 13.2576 24.3566 12.5817 25.4939C12.2665 26.0286 11.925 26.1174 11.3868 26.0269C10.0473 25.8004 8.70427 25.5949 7.35952 25.3981C5.54272 25.1316 4.01508 25.9363 3.38451 27.4777C2.75394 29.019 3.24341 30.5587 4.7188 31.6751C5.87194 32.5471 7.0332 33.4074 8.2026 34.2562C8.51266 34.4791 8.64678 34.6725 8.55098 35.1061C8.22002 36.5117 7.94132 37.9294 7.69571 39.3523C7.62429 39.7633 7.47972 39.9358 7.07734 40.0281C5.86672 40.3067 4.677 40.6916 3.45941 40.9198C1.74886 41.2385 0.543473 42.0919 0 43.7831V45.1764C0.552182 46.8571 1.7419 47.721 3.45941 48.0397C4.67874 48.2661 5.86672 48.651 7.07734 48.9297C7.47623 49.022 7.62429 49.1909 7.69571 49.6037C7.94132 51.0249 8.21827 52.4426 8.54923 53.8481C8.65026 54.2766 8.52311 54.4751 8.21305 54.6998C7.04017 55.5497 5.8789 56.4095 4.72925 57.2792C3.22251 58.42 2.75046 59.9945 3.42806 61.5498C4.09346 63.0789 5.61762 63.8366 7.44313 63.5509C8.78439 63.3402 10.1309 63.1504 11.4687 62.9205C11.9912 62.8282 12.2891 62.9814 12.5782 63.4551C13.275 64.5907 14.0101 65.7001 14.8009 66.7643C15.1249 67.1997 15.0901 67.4801 14.8253 67.9016C14.0693 69.0999 13.3482 70.3208 12.6375 71.5452C11.6986 73.1649 11.8571 74.7254 13.052 75.9167C14.247 77.108 15.7903 77.2735 17.426 76.333C18.654 75.6259 19.882 74.917 21.0683 74.1437C21.5525 73.8302 21.8469 73.9069 22.2754 74.2204C23.2944 74.9826 24.3532 75.6901 25.4474 76.3399C26.0431 76.6883 26.1442 77.068 26.0344 77.6741C25.8027 78.982 25.6024 80.297 25.4143 81.6119C25.2035 83.068 25.5746 84.3289 26.8218 85.1998C27.9314 85.9748 29.1298 86.048 30.3543 85.4471C30.971 85.1458 31.3995 84.6477 31.8071 84.106C32.6136 83.0123 33.4392 81.9307 34.2231 80.8212C34.4913 80.445 34.7282 80.3127 35.2142 80.4276C36.5903 80.7533 37.9804 81.0268 39.3739 81.2671C39.7867 81.3385 39.9505 81.4883 40.0428 81.8889C40.318 83.0993 40.7047 84.2871 40.9329 85.5046C41.2534 87.2149 42.1191 88.4097 43.8001 88.9618H45.1936C46.8606 88.4497 47.7246 87.2515 48.0451 85.5411ZM44.2024 76.2981C36.9631 76.124 30.4414 73.9156 24.7332 69.3785C19.7984 65.4546 16.3495 60.4961 14.3271 54.5466C13.0603 50.8778 12.5144 46.9988 12.7193 43.123C13.1287 35.8341 15.6196 29.3395 20.4377 23.7906C25.5693 17.8689 32.0318 14.3542 39.731 13.1037C42.786 12.5861 45.9059 12.5796 48.963 13.0846C49.1372 13.1142 49.3114 13.1542 49.4856 13.1995C50.0082 13.3302 50.5308 13.4886 51.0742 13.4643C54.9574 14.2543 58.6498 15.7923 61.9454 17.9926C62.7084 18.4977 63.4556 19.0387 64.1872 19.6158C67.9707 22.5883 71.0208 26.39 73.1023 30.7276C74.8377 34.3495 75.8692 38.268 76.1419 42.2748C76.5903 47.9111 75.4835 53.5624 72.942 58.6133C69.7491 65.0575 64.8648 69.8819 58.4076 73.0691C56.0892 74.2442 53.6171 75.0872 51.0638 75.5736C48.8028 76.0439 46.5174 76.3556 44.2024 76.2981Z" fill="#2D4898"/>
<path d="M53.0564 74.6663C56.7864 73.0729 60.1001 70.6434 62.7414 67.5655C66.3367 63.443 68.5907 58.6831 69.9285 53.425C70.9283 49.4923 71.1234 45.483 70.8569 41.4789C70.5502 36.626 69.2148 31.8937 66.9394 27.5962C63.9363 21.9323 59.7505 17.4423 53.849 14.7079C53.1697 14.3944 52.445 14.1854 51.7587 13.8893C51.5148 13.7865 51.1508 13.8283 51.0741 13.4504C50.5237 13.4748 50.0064 13.3163 49.4855 13.1857C49.3113 13.1404 49.1372 13.1003 48.963 13.0707C45.9058 12.5658 42.7859 12.5723 39.7309 13.0899C32.0317 14.3404 25.5693 17.8603 20.4376 23.7767C15.6195 29.3326 13.1216 35.8273 12.7193 43.1091C12.5116 46.9919 13.0576 50.8782 14.327 54.5536C16.3494 60.5031 19.7983 65.4616 24.7331 69.3856C30.4379 73.9226 36.963 76.1241 44.2024 76.3052C46.5173 76.3627 48.8027 76.0509 51.0689 75.5841C51.5793 74.9502 52.391 74.9502 53.0564 74.6663ZM47.1166 27.2095C47.1566 25.0446 48.8585 23.8324 50.9156 24.5239C57.6951 26.8089 62.224 31.3471 64.5025 38.1384C65.1713 40.1361 63.9555 41.8221 61.8373 41.8917C61.5691 41.8917 61.3026 41.9057 61.0343 41.9074C60.2331 41.9074 59.43 41.8987 58.627 41.8987C57.5819 41.8987 56.5367 41.8987 55.5038 41.8987C55.0718 41.8987 54.8628 41.7715 54.713 41.3117C53.5703 37.8058 51.2292 35.458 47.7262 34.3016C47.228 34.1378 47.1026 33.9149 47.1044 33.4516C47.1148 31.3669 47.0765 29.2838 47.1166 27.2095ZM24.4492 38.0548C26.7938 31.4 31.2339 26.896 37.8793 24.5692C40.1681 23.7663 41.8438 25.0203 41.856 27.4743C41.856 28.4287 41.856 29.3901 41.856 30.3375C41.856 31.1196 41.856 31.905 41.856 32.6818C41.856 32.9431 41.856 33.2043 41.8665 33.4638C41.8752 33.9323 41.7289 34.1448 41.2359 34.3085C37.78 35.4667 35.4249 37.7779 34.277 41.2473C34.1028 41.7872 33.8607 41.9091 33.366 41.9057C31.3106 41.8894 29.2557 41.8894 27.2014 41.9057C25.2871 41.9091 23.7176 40.1292 24.4492 38.0479V38.0548ZM41.7567 62.466C41.3857 64.2494 39.9225 65.0959 38.1736 64.5751C35.3012 63.7182 32.7912 62.2308 30.5494 60.2506C27.6665 57.7025 25.7051 54.5884 24.437 50.9588C24.2778 50.534 24.2237 50.077 24.2792 49.6268C24.3347 49.1766 24.4983 48.7464 24.7559 48.373C25.0136 47.9996 25.3577 47.694 25.7589 47.4822C26.1601 47.2705 26.6066 47.1588 27.0603 47.1568C29.2011 47.1306 31.3437 47.1568 33.4844 47.1446C33.9321 47.1446 34.1115 47.3083 34.2579 47.7542C35.4075 51.2619 37.773 53.5887 41.2673 54.7487C41.7201 54.9002 41.8665 55.097 41.8612 55.5341C41.8456 56.6053 41.8612 57.6747 41.8612 58.9722C41.7794 59.9789 42.011 61.2311 41.7567 62.459V62.466ZM44.4845 49.9051C41.5721 49.9051 39.1073 47.4528 39.1003 44.5478C39.1118 43.1154 39.6875 41.7454 40.7026 40.7346C41.7177 39.7239 43.0903 39.1541 44.5229 39.1486C47.4231 39.1608 49.8705 41.6357 49.8635 44.5478C49.8566 47.4598 47.3935 49.8981 44.4845 49.8981V49.9051ZM47.1131 61.8372C47.1131 61.576 47.1009 61.3147 47.0991 61.0552C47.0991 60.2749 47.0991 59.4877 47.0991 58.7127C47.0991 57.9376 47.0991 57.1452 47.0991 56.3719C47.0991 56.1106 47.0991 55.8494 47.0991 55.5899C47.0991 55.1249 47.2246 54.9054 47.7245 54.7417C51.2274 53.5905 53.5546 51.2235 54.7078 47.7298C54.8593 47.27 55.0701 47.1446 55.5003 47.1463C57.6115 47.155 59.7244 47.115 61.8339 47.1602C63.9433 47.2055 65.1679 48.9141 64.4972 50.9118C62.2206 57.6868 57.6934 62.243 50.9104 64.5263C48.8637 65.2108 47.174 63.9969 47.1131 61.8303V61.8372Z" fill="#88A3FA"/>
<path d="M51.0691 13.4503C50.5186 13.4747 50.0013 13.3162 49.4805 13.1855C50.003 13.3162 50.5256 13.4747 51.0691 13.4503Z" fill="#A2D2F9"/>
<path d="M51.7528 13.8966C52.4495 14.1892 53.1689 14.4016 53.8431 14.7151C59.7446 17.4426 63.9304 21.9326 66.9334 27.6034C69.2089 31.901 70.5442 36.6332 70.851 41.4862C71.1175 45.492 70.9224 49.4978 69.9225 53.4323C68.5848 58.6868 66.3307 63.4503 62.7355 67.5728C60.0941 70.6507 56.7805 73.0802 53.0505 74.6736C52.3851 74.9574 51.5734 74.9574 51.063 75.5844C53.6163 75.0981 56.0885 74.255 58.4068 73.0799C64.8641 69.8892 69.7484 65.0683 72.9413 58.6241C75.4827 53.5732 76.5895 47.9219 76.1411 42.2856C75.8697 38.2753 74.8382 34.3531 73.1015 30.728C71.0173 26.3886 67.9635 22.5863 64.176 19.6144C63.4444 19.0339 62.6971 18.4928 61.9342 17.9912C58.6382 15.7917 54.946 14.2537 51.063 13.4629C51.1536 13.8356 51.502 13.799 51.7528 13.8966Z" fill="#6B85DA"/>
<path d="M61.9405 17.9912C58.6449 15.7909 54.9526 14.2529 51.0693 13.4629C54.9523 14.2537 58.6445 15.7917 61.9405 17.9912Z" fill="#A2D2F9"/>
<path d="M47.1082 58.7055C47.1082 57.9253 47.1082 57.138 47.1082 56.3647C47.1082 57.145 47.1082 57.9322 47.1082 58.7055C47.1082 59.4788 47.0943 60.273 47.1082 61.0481C47.0943 60.2678 47.1082 59.4875 47.1082 58.7055Z" fill="#FDFEFE"/>
<path d="M58.6232 41.8914C57.5781 41.8914 56.5329 41.8914 55.5 41.8914C56.5451 41.8775 57.5816 41.8914 58.6232 41.8914C59.4262 41.8914 60.2293 41.9071 61.0305 41.9002C60.2293 41.9071 59.4262 41.8914 58.6232 41.8914Z" fill="#FDFEFE"/>
</svg>
