<svg width="154" height="73" viewBox="0 0 154 73" fill="none" xmlns="http://www.w3.org/2000/svg">
<path d="M117.632 11.0844L118.676 8.18441H118.981L117.748 11.4961H117.523L117.632 11.0844ZM116.554 8.18441L117.594 11.0844L117.708 11.4961H117.48L116.25 8.18441H116.554ZM119.695 9.03507V11.4961H119.424V9.03507H119.695ZM119.376 8.32315C119.376 8.2716 119.392 8.22838 119.424 8.19351C119.457 8.15711 119.503 8.13892 119.561 8.13892C119.618 8.13892 119.664 8.15711 119.697 8.19351C119.732 8.22838 119.749 8.2716 119.749 8.32315C119.749 8.37319 119.732 8.41641 119.697 8.4528C119.664 8.48768 119.618 8.50511 119.561 8.50511C119.503 8.50511 119.457 8.48768 119.424 8.4528C119.392 8.41641 119.376 8.37319 119.376 8.32315ZM121.373 11.5416C121.212 11.5416 121.064 11.512 120.929 11.4529C120.796 11.3937 120.679 11.3103 120.579 11.2027C120.48 11.095 120.404 10.9676 120.349 10.8206C120.296 10.672 120.269 10.5097 120.269 10.3338V10.236C120.269 10.0465 120.297 9.87513 120.354 9.72198C120.41 9.56883 120.487 9.43766 120.586 9.32849C120.684 9.21931 120.796 9.13591 120.922 9.07829C121.05 9.01915 121.183 8.98958 121.323 8.98958C121.479 8.98958 121.617 9.01764 121.739 9.07374C121.86 9.12833 121.962 9.20642 122.044 9.30802C122.127 9.40809 122.19 9.52713 122.232 9.66511C122.275 9.80158 122.296 9.95246 122.296 10.1177V10.2838H120.433V10.0518H122.025V10.0199C122.022 9.88195 121.994 9.75306 121.941 9.63327C121.89 9.51196 121.812 9.4134 121.709 9.33758C121.606 9.26177 121.477 9.22386 121.323 9.22386C121.207 9.22386 121.101 9.24812 121.004 9.29664C120.909 9.34517 120.826 9.41492 120.756 9.5059C120.688 9.59536 120.635 9.70226 120.597 9.8266C120.561 9.94943 120.542 10.0859 120.542 10.236V10.3338C120.542 10.4703 120.562 10.5977 120.602 10.7159C120.642 10.8327 120.7 10.9358 120.774 11.0253C120.85 11.1147 120.94 11.1845 121.043 11.2345C121.146 11.2846 121.26 11.3096 121.384 11.3096C121.53 11.3096 121.658 11.283 121.771 11.23C121.883 11.1754 121.984 11.0897 122.073 10.973L122.244 11.1049C122.191 11.1837 122.124 11.2565 122.044 11.3232C121.965 11.3899 121.87 11.443 121.759 11.4824C121.649 11.5219 121.52 11.5416 121.373 11.5416ZM123.499 10.9206L124.092 9.03507H124.283L124.17 9.54229L123.549 11.4961H123.358L123.499 10.9206ZM122.882 9.03507L123.403 10.932L123.514 11.4961H123.317L122.602 9.03507H122.882ZM125.022 10.9252L125.53 9.03507H125.809L125.095 11.4961H124.9L125.022 10.9252ZM124.322 9.03507L124.906 10.9047L125.054 11.4961H124.863L124.229 9.54002L124.122 9.03507H124.322ZM127.739 8.00245V11.4961H127.468V8.00245H127.739ZM129.963 11.0548V9.78566C129.963 9.6689 129.939 9.56807 129.89 9.48315C129.842 9.39824 129.77 9.33304 129.676 9.28755C129.582 9.24206 129.466 9.21931 129.328 9.21931C129.201 9.21931 129.087 9.24206 128.987 9.28755C128.888 9.33152 128.81 9.39141 128.753 9.46723C128.697 9.54153 128.669 9.62417 128.669 9.71515L128.396 9.71288C128.396 9.62038 128.418 9.53092 128.464 9.44449C128.509 9.35806 128.574 9.28072 128.657 9.21249C128.741 9.14425 128.84 9.09042 128.955 9.051C129.072 9.01006 129.2 8.98958 129.34 8.98958C129.515 8.98958 129.67 9.01915 129.804 9.07829C129.939 9.13743 130.044 9.22613 130.12 9.34441C130.196 9.46268 130.233 9.61128 130.233 9.79021V10.9798C130.233 11.0647 130.24 11.1526 130.252 11.2436C130.265 11.3346 130.284 11.4097 130.309 11.4688V11.4961H130.02C130.001 11.4415 129.987 11.3733 129.976 11.2914C129.967 11.208 129.963 11.1291 129.963 11.0548ZM130.027 10.0632L130.031 10.2724H129.497C129.357 10.2724 129.232 10.2853 129.121 10.3111C129.012 10.3353 128.92 10.3717 128.844 10.4203C128.768 10.4673 128.71 10.5241 128.669 10.5908C128.629 10.6576 128.609 10.7334 128.609 10.8183C128.609 10.9062 128.631 10.9866 128.675 11.0594C128.721 11.1322 128.785 11.1906 128.867 11.2345C128.95 11.277 129.048 11.2982 129.162 11.2982C129.314 11.2982 129.447 11.2702 129.563 11.2141C129.679 11.158 129.776 11.0844 129.851 10.9934C129.927 10.9024 129.978 10.8031 130.004 10.6955L130.122 10.8524C130.102 10.9282 130.066 11.0063 130.013 11.0867C129.961 11.1655 129.894 11.2398 129.81 11.3096C129.727 11.3778 129.628 11.4339 129.515 11.4779C129.403 11.5204 129.275 11.5416 129.133 11.5416C128.972 11.5416 128.832 11.5113 128.712 11.4506C128.594 11.3899 128.501 11.3073 128.434 11.2027C128.369 11.0965 128.337 10.9767 128.337 10.8433C128.337 10.722 128.362 10.6136 128.414 10.5181C128.465 10.421 128.54 10.3391 128.637 10.2724C128.735 10.2042 128.854 10.1526 128.992 10.1177C129.131 10.0813 129.287 10.0632 129.46 10.0632H130.027ZM131.218 9.56049V11.4961H130.947V9.03507H131.206L131.218 9.56049ZM131.156 10.1132L131.036 10.045C131.045 9.89939 131.074 9.76292 131.124 9.63555C131.174 9.50817 131.242 9.39596 131.327 9.29892C131.413 9.20187 131.514 9.12606 131.629 9.07147C131.746 9.01688 131.875 8.98958 132.016 8.98958C132.139 8.98958 132.249 9.00626 132.346 9.03962C132.443 9.07298 132.525 9.12606 132.594 9.19884C132.662 9.27162 132.713 9.36488 132.748 9.4786C132.785 9.59233 132.803 9.73107 132.803 9.89484V11.4961H132.53V9.89256C132.53 9.72273 132.507 9.59006 132.46 9.49453C132.413 9.39748 132.346 9.32849 132.259 9.28755C132.173 9.2466 132.071 9.22613 131.952 9.22613C131.822 9.22613 131.707 9.25494 131.609 9.31257C131.512 9.36867 131.43 9.44221 131.363 9.53319C131.298 9.62266 131.248 9.71894 131.213 9.82206C131.178 9.92365 131.159 10.0207 131.156 10.1132ZM135.09 11.0184V8.00245H135.363V11.4961H135.109L135.09 11.0184ZM133.382 10.2906V10.2428C133.382 10.0518 133.404 9.87968 133.448 9.72653C133.492 9.57186 133.555 9.43994 133.637 9.33076C133.72 9.22007 133.82 9.13591 133.937 9.07829C134.054 9.01915 134.186 8.98958 134.333 8.98958C134.477 8.98958 134.604 9.01309 134.715 9.06009C134.826 9.1071 134.921 9.17458 134.999 9.26253C135.08 9.35047 135.144 9.4551 135.193 9.57641C135.243 9.69772 135.279 9.83267 135.302 9.98127V10.5886C135.284 10.7281 135.25 10.8562 135.202 10.973C135.153 11.0882 135.089 11.189 135.009 11.2755C134.928 11.3604 134.831 11.4263 134.717 11.4733C134.605 11.5188 134.476 11.5416 134.328 11.5416C134.183 11.5416 134.052 11.5113 133.935 11.4506C133.818 11.3899 133.719 11.3043 133.637 11.1936C133.555 11.0814 133.492 10.9487 133.448 10.7955C133.404 10.6424 133.382 10.4741 133.382 10.2906ZM133.655 10.2428V10.2906C133.655 10.4347 133.67 10.5681 133.698 10.6909C133.727 10.8137 133.771 10.9206 133.83 11.0116C133.889 11.1026 133.965 11.1739 134.056 11.2254C134.146 11.277 134.254 11.3028 134.378 11.3028C134.535 11.3028 134.666 11.2732 134.772 11.2141C134.878 11.1534 134.963 11.0738 135.027 10.9752C135.09 10.8752 135.137 10.766 135.165 10.6477V9.94033C135.147 9.85996 135.121 9.77808 135.086 9.69468C135.051 9.61128 135.003 9.53471 134.943 9.46496C134.883 9.39369 134.808 9.33683 134.715 9.29437C134.624 9.2504 134.513 9.22841 134.383 9.22841C134.257 9.22841 134.149 9.25419 134.058 9.30574C133.967 9.3573 133.891 9.42932 133.83 9.52182C133.771 9.6128 133.727 9.7197 133.698 9.84253C133.67 9.96535 133.655 10.0988 133.655 10.2428ZM136.366 9.03507V11.4961H136.095V9.03507H136.366ZM136.047 8.32315C136.047 8.2716 136.063 8.22838 136.095 8.19351C136.128 8.15711 136.174 8.13892 136.231 8.13892C136.289 8.13892 136.335 8.15711 136.368 8.19351C136.403 8.22838 136.42 8.2716 136.42 8.32315C136.42 8.37319 136.403 8.41641 136.368 8.4528C136.335 8.48768 136.289 8.50511 136.231 8.50511C136.174 8.50511 136.128 8.48768 136.095 8.4528C136.063 8.41641 136.047 8.37319 136.047 8.32315ZM137.363 9.56049V11.4961H137.093V9.03507H137.352L137.363 9.56049ZM137.302 10.1132L137.182 10.045C137.191 9.89939 137.22 9.76292 137.27 9.63555C137.32 9.50817 137.388 9.39596 137.473 9.29892C137.559 9.20187 137.66 9.12606 137.775 9.07147C137.892 9.01688 138.021 8.98958 138.162 8.98958C138.285 8.98958 138.395 9.00626 138.492 9.03962C138.589 9.07298 138.671 9.12606 138.74 9.19884C138.808 9.27162 138.859 9.36488 138.894 9.4786C138.931 9.59233 138.949 9.73107 138.949 9.89484V11.4961H138.676V9.89256C138.676 9.72273 138.652 9.59006 138.605 9.49453C138.558 9.39748 138.492 9.32849 138.405 9.28755C138.319 9.2466 138.216 9.22613 138.098 9.22613C137.968 9.22613 137.853 9.25494 137.755 9.31257C137.658 9.36867 137.576 9.44221 137.509 9.53319C137.444 9.62266 137.394 9.71894 137.359 9.82206C137.324 9.92365 137.305 10.0207 137.302 10.1132ZM141.257 9.03507H141.509V11.4529C141.509 11.6667 141.468 11.8502 141.386 12.0033C141.306 12.1565 141.192 12.274 141.043 12.3559C140.896 12.4377 140.722 12.4787 140.522 12.4787C140.42 12.4787 140.316 12.4628 140.208 12.4309C140.102 12.4006 140.001 12.3536 139.906 12.2899C139.812 12.2277 139.731 12.1504 139.665 12.0579L139.817 11.8919C139.917 12.0132 140.024 12.1019 140.138 12.158C140.251 12.2156 140.374 12.2444 140.506 12.2444C140.662 12.2444 140.794 12.2133 140.902 12.1512C141.011 12.089 141.094 11.9995 141.15 11.8828C141.207 11.766 141.236 11.6257 141.236 11.462V9.57641L141.257 9.03507ZM139.528 10.2906V10.2428C139.528 10.0518 139.549 9.87968 139.592 9.72653C139.636 9.57186 139.699 9.43994 139.781 9.33076C139.862 9.22007 139.962 9.13591 140.079 9.07829C140.197 9.01915 140.33 8.98958 140.479 8.98958C140.621 8.98958 140.748 9.01309 140.859 9.06009C140.969 9.1071 141.065 9.17458 141.145 9.26253C141.226 9.35047 141.29 9.4551 141.339 9.57641C141.389 9.69772 141.425 9.83267 141.448 9.98127V10.5886C141.43 10.7281 141.396 10.8562 141.348 10.973C141.299 11.0882 141.235 11.189 141.154 11.2755C141.074 11.3604 140.977 11.4263 140.863 11.4733C140.751 11.5188 140.621 11.5416 140.474 11.5416C140.327 11.5416 140.195 11.5113 140.079 11.4506C139.962 11.3899 139.862 11.3043 139.781 11.1936C139.699 11.0814 139.636 10.9487 139.592 10.7955C139.549 10.6424 139.528 10.4741 139.528 10.2906ZM139.801 10.2428V10.2906C139.801 10.4347 139.815 10.5681 139.844 10.6909C139.873 10.8137 139.917 10.9206 139.976 11.0116C140.035 11.1026 140.11 11.1739 140.201 11.2254C140.292 11.277 140.399 11.3028 140.522 11.3028C140.678 11.3028 140.809 11.2732 140.916 11.2141C141.022 11.1534 141.106 11.0738 141.168 10.9752C141.23 10.8752 141.276 10.766 141.304 10.6477V9.94033C141.288 9.85996 141.262 9.77808 141.227 9.69468C141.194 9.61128 141.147 9.53471 141.086 9.46496C141.027 9.39369 140.951 9.33683 140.859 9.29437C140.768 9.2504 140.657 9.22841 140.527 9.22841C140.402 9.22841 140.294 9.25419 140.201 9.30574C140.11 9.3573 140.035 9.42932 139.976 9.52182C139.917 9.6128 139.873 9.7197 139.844 9.84253C139.815 9.96535 139.801 10.0988 139.801 10.2428ZM143.593 9.50817V12.4423H143.321V9.03507H143.575L143.593 9.50817ZM145.304 10.2428V10.2906C145.304 10.4741 145.283 10.6424 145.24 10.7955C145.198 10.9487 145.136 11.0814 145.056 11.1936C144.977 11.3043 144.879 11.3899 144.763 11.4506C144.646 11.5113 144.513 11.5416 144.365 11.5416C144.217 11.5416 144.086 11.5188 143.971 11.4733C143.856 11.4279 143.757 11.3634 143.673 11.28C143.591 11.1951 143.525 11.0965 143.475 10.9843C143.427 10.8706 143.393 10.7463 143.373 10.6113V9.98127C143.396 9.83267 143.433 9.69772 143.484 9.57641C143.536 9.4551 143.602 9.35047 143.682 9.26253C143.764 9.17458 143.861 9.1071 143.973 9.06009C144.086 9.01309 144.214 8.98958 144.358 8.98958C144.508 8.98958 144.641 9.01915 144.758 9.07829C144.876 9.13591 144.976 9.22007 145.056 9.33076C145.138 9.43994 145.199 9.57186 145.24 9.72653C145.283 9.87968 145.304 10.0518 145.304 10.2428ZM145.031 10.2906V10.2428C145.031 10.0988 145.016 9.96535 144.985 9.84253C144.957 9.7197 144.912 9.6128 144.851 9.52182C144.792 9.42932 144.716 9.3573 144.624 9.30574C144.533 9.25419 144.424 9.22841 144.299 9.22841C144.168 9.22841 144.057 9.2504 143.964 9.29437C143.873 9.33683 143.797 9.39369 143.737 9.46496C143.676 9.53471 143.628 9.61128 143.593 9.69468C143.559 9.77808 143.533 9.85996 143.516 9.94033V10.6659C143.545 10.7811 143.591 10.888 143.655 10.9866C143.719 11.0836 143.804 11.1617 143.91 11.2209C144.017 11.2785 144.148 11.3073 144.303 11.3073C144.427 11.3073 144.535 11.2815 144.626 11.23C144.717 11.1784 144.792 11.1064 144.851 11.0139C144.912 10.9214 144.957 10.8137 144.985 10.6909C145.016 10.5681 145.031 10.4347 145.031 10.2906ZM147.389 11.0548V9.78566C147.389 9.6689 147.365 9.56807 147.316 9.48315C147.268 9.39824 147.196 9.33304 147.102 9.28755C147.008 9.24206 146.892 9.21931 146.754 9.21931C146.627 9.21931 146.513 9.24206 146.413 9.28755C146.315 9.33152 146.237 9.39141 146.179 9.46723C146.123 9.54153 146.095 9.62417 146.095 9.71515L145.822 9.71288C145.822 9.62038 145.845 9.53092 145.89 9.44449C145.936 9.35806 146 9.28072 146.083 9.21249C146.167 9.14425 146.266 9.09042 146.381 9.051C146.498 9.01006 146.626 8.98958 146.766 8.98958C146.942 8.98958 147.096 9.01915 147.23 9.07829C147.365 9.13743 147.47 9.22613 147.546 9.34441C147.622 9.46268 147.66 9.61128 147.66 9.79021V10.9798C147.66 11.0647 147.666 11.1526 147.678 11.2436C147.691 11.3346 147.71 11.4097 147.735 11.4688V11.4961H147.446C147.428 11.4415 147.413 11.3733 147.403 11.2914C147.393 11.208 147.389 11.1291 147.389 11.0548ZM147.453 10.0632L147.457 10.2724H146.923C146.783 10.2724 146.658 10.2853 146.547 10.3111C146.438 10.3353 146.346 10.3717 146.27 10.4203C146.194 10.4673 146.136 10.5241 146.095 10.5908C146.055 10.6576 146.036 10.7334 146.036 10.8183C146.036 10.9062 146.058 10.9866 146.102 11.0594C146.147 11.1322 146.211 11.1906 146.293 11.2345C146.376 11.277 146.475 11.2982 146.588 11.2982C146.74 11.2982 146.873 11.2702 146.989 11.2141C147.105 11.158 147.202 11.0844 147.277 10.9934C147.353 10.9024 147.404 10.8031 147.43 10.6955L147.548 10.8524C147.528 10.9282 147.492 11.0063 147.439 11.0867C147.387 11.1655 147.32 11.2398 147.237 11.3096C147.153 11.3778 147.055 11.4339 146.941 11.4779C146.829 11.5204 146.701 11.5416 146.559 11.5416C146.398 11.5416 146.258 11.5113 146.138 11.4506C146.02 11.3899 145.927 11.3073 145.86 11.2027C145.795 11.0965 145.763 10.9767 145.763 10.8433C145.763 10.722 145.788 10.6136 145.84 10.5181C145.892 10.421 145.966 10.3391 146.063 10.2724C146.161 10.2042 146.28 10.1526 146.418 10.1177C146.557 10.0813 146.713 10.0632 146.886 10.0632H147.453ZM149.993 9.03507H150.245V11.4529C150.245 11.6667 150.204 11.8502 150.122 12.0033C150.042 12.1565 149.927 12.274 149.779 12.3559C149.632 12.4377 149.458 12.4787 149.258 12.4787C149.156 12.4787 149.052 12.4628 148.944 12.4309C148.838 12.4006 148.737 12.3536 148.641 12.2899C148.547 12.2277 148.467 12.1504 148.4 12.0579L148.553 11.8919C148.653 12.0132 148.76 12.1019 148.873 12.158C148.987 12.2156 149.11 12.2444 149.242 12.2444C149.398 12.2444 149.53 12.2133 149.638 12.1512C149.747 12.089 149.83 11.9995 149.886 11.8828C149.943 11.766 149.972 11.6257 149.972 11.462V9.57641L149.993 9.03507ZM148.264 10.2906V10.2428C148.264 10.0518 148.285 9.87968 148.328 9.72653C148.372 9.57186 148.434 9.43994 148.516 9.33076C148.598 9.22007 148.698 9.13591 148.814 9.07829C148.933 9.01915 149.066 8.98958 149.215 8.98958C149.357 8.98958 149.484 9.01309 149.594 9.06009C149.705 9.1071 149.801 9.17458 149.881 9.26253C149.961 9.35047 150.026 9.4551 150.074 9.57641C150.124 9.69772 150.161 9.83267 150.184 9.98127V10.5886C150.165 10.7281 150.132 10.8562 150.084 10.973C150.035 11.0882 149.971 11.189 149.89 11.2755C149.81 11.3604 149.713 11.4263 149.599 11.4733C149.487 11.5188 149.357 11.5416 149.21 11.5416C149.063 11.5416 148.931 11.5113 148.814 11.4506C148.698 11.3899 148.598 11.3043 148.516 11.1936C148.434 11.0814 148.372 10.9487 148.328 10.7955C148.285 10.6424 148.264 10.4741 148.264 10.2906ZM148.537 10.2428V10.2906C148.537 10.4347 148.551 10.5681 148.58 10.6909C148.609 10.8137 148.653 10.9206 148.712 11.0116C148.771 11.1026 148.846 11.1739 148.937 11.2254C149.028 11.277 149.135 11.3028 149.258 11.3028C149.414 11.3028 149.545 11.2732 149.651 11.2141C149.758 11.1534 149.842 11.0738 149.904 10.9752C149.966 10.8752 150.011 10.766 150.04 10.6477V9.94033C150.024 9.85996 149.998 9.77808 149.963 9.69468C149.93 9.61128 149.883 9.53471 149.822 9.46496C149.763 9.39369 149.687 9.33683 149.594 9.29437C149.504 9.2504 149.393 9.22841 149.262 9.22841C149.138 9.22841 149.03 9.25419 148.937 9.30574C148.846 9.3573 148.771 9.42932 148.712 9.52182C148.653 9.6128 148.609 9.7197 148.58 9.84253C148.551 9.96535 148.537 10.0988 148.537 10.2428ZM151.891 11.5416C151.73 11.5416 151.582 11.512 151.448 11.4529C151.314 11.3937 151.197 11.3103 151.097 11.2027C150.999 11.095 150.922 10.9676 150.868 10.8206C150.814 10.672 150.788 10.5097 150.788 10.3338V10.236C150.788 10.0465 150.816 9.87513 150.872 9.72198C150.928 9.56883 151.005 9.43766 151.104 9.32849C151.203 9.21931 151.315 9.13591 151.441 9.07829C151.568 9.01915 151.701 8.98958 151.841 8.98958C151.997 8.98958 152.136 9.01764 152.257 9.07374C152.379 9.12833 152.48 9.20642 152.562 9.30802C152.645 9.40809 152.708 9.52713 152.751 9.66511C152.793 9.80158 152.814 9.95246 152.814 10.1177V10.2838H150.952V10.0518H152.544V10.0199C152.541 9.88195 152.513 9.75306 152.46 9.63327C152.408 9.51196 152.331 9.4134 152.228 9.33758C152.125 9.26177 151.996 9.22386 151.841 9.22386C151.726 9.22386 151.62 9.24812 151.523 9.29664C151.427 9.34517 151.344 9.41492 151.275 9.5059C151.206 9.59536 151.153 9.70226 151.115 9.8266C151.079 9.94943 151.061 10.0859 151.061 10.236V10.3338C151.061 10.4703 151.081 10.5977 151.12 10.7159C151.161 10.8327 151.219 10.9358 151.293 11.0253C151.369 11.1147 151.458 11.1845 151.561 11.2345C151.664 11.2846 151.778 11.3096 151.902 11.3096C152.048 11.3096 152.177 11.283 152.289 11.23C152.401 11.1754 152.502 11.0897 152.592 10.973L152.762 11.1049C152.709 11.1837 152.642 11.2565 152.562 11.3232C152.483 11.3899 152.388 11.443 152.278 11.4824C152.167 11.5219 152.038 11.5416 151.891 11.5416Z" fill="#131313"/>
<path d="M2.21712 11.2207H1.46589V8.32493L0.569079 8.60307V7.9922L2.13654 7.43072H2.21712V11.2207ZM3.6564 12.1695L3.26388 11.9641L3.35746 11.7952C3.47357 11.5838 3.53336 11.3732 3.53682 11.1635V10.5812H4.17108L4.16849 11.1011C4.16675 11.2935 4.11823 11.4876 4.02292 11.6834C3.9276 11.8792 3.80543 12.0413 3.6564 12.1695ZM7.30519 11.2207H4.71095V10.706L5.93529 9.4011C6.10338 9.2174 6.22729 9.0571 6.30701 8.9202C6.38846 8.7833 6.42918 8.65332 6.42918 8.53028C6.42918 8.36219 6.38672 8.23048 6.30181 8.13517C6.21689 8.03812 6.09559 7.9896 5.93789 7.9896C5.76806 7.9896 5.63375 8.04852 5.53497 8.16636C5.43793 8.28247 5.3894 8.43584 5.3894 8.62646H4.63557C4.63557 8.39598 4.69016 8.18542 4.79933 7.9948C4.91024 7.80417 5.06621 7.65514 5.26723 7.5477C5.46825 7.43852 5.69614 7.38393 5.95088 7.38393C6.3408 7.38393 6.6432 7.47751 6.85809 7.66467C7.07471 7.85183 7.18302 8.11611 7.18302 8.4575C7.18302 8.64466 7.13449 8.83528 7.03745 9.02938C6.9404 9.22347 6.77404 9.44962 6.53836 9.70783L5.67794 10.615H7.30519V11.2207ZM9.9714 9.79621H10.4003V10.4019H9.9714V11.2207H9.22016V10.4019H7.6683L7.6345 9.92878L9.21236 7.43592H9.9714V9.79621ZM8.38314 9.79621H9.22016V8.4601L9.17077 8.54588L8.38314 9.79621ZM12.544 9.70783C12.3482 9.90019 12.1195 9.99637 11.8578 9.99637C11.5233 9.99637 11.2556 9.88199 11.0545 9.65324C10.8535 9.42276 10.753 9.11256 10.753 8.72264C10.753 8.47483 10.8067 8.24781 10.9142 8.04159C11.0234 7.83363 11.175 7.67247 11.3691 7.55809C11.5632 7.44199 11.7815 7.38393 12.0241 7.38393C12.2737 7.38393 12.4955 7.44632 12.6896 7.57109C12.8837 7.69586 13.0345 7.87522 13.1419 8.10917C13.2493 8.34312 13.3039 8.61087 13.3057 8.9124V9.19054C13.3057 9.82134 13.1488 10.317 12.8352 10.6774C12.5215 11.0379 12.077 11.2302 11.5017 11.2545L11.3171 11.2571V10.6306L11.4835 10.628C12.1368 10.5986 12.4903 10.2918 12.544 9.70783ZM12.0423 9.42189C12.1636 9.42189 12.2676 9.3907 12.3543 9.32831C12.4426 9.26592 12.5094 9.19054 12.5544 9.10216V8.79283C12.5544 8.53808 12.5059 8.34052 12.4089 8.20015C12.3118 8.05979 12.1818 7.9896 12.0189 7.9896C11.8682 7.9896 11.7443 8.05892 11.6472 8.19756C11.5502 8.33446 11.5017 8.50689 11.5017 8.71484C11.5017 8.92107 11.5484 9.0909 11.642 9.22433C11.7373 9.35604 11.8708 9.42189 12.0423 9.42189Z" fill="#131313"/>
<path d="M110.899 26.5416C110.861 26.8903 110.736 27.1572 110.524 27.3422C110.313 27.5272 110.032 27.6197 109.68 27.6197C109.434 27.6197 109.217 27.5583 109.027 27.4355C108.839 27.3127 108.694 27.139 108.591 26.9146C108.488 26.6887 108.435 26.4309 108.434 26.1413V25.7114C108.434 25.4172 108.485 25.1564 108.588 24.929C108.691 24.7015 108.839 24.5264 109.032 24.4036C109.226 24.2792 109.449 24.217 109.701 24.217C110.055 24.217 110.335 24.3133 110.54 24.5059C110.746 24.697 110.866 24.9616 110.899 25.2997H110.617C110.547 24.7371 110.242 24.4559 109.701 24.4559C109.4 24.4559 109.161 24.5681 108.982 24.7925C108.804 25.0169 108.716 25.327 108.716 25.7228V26.1276C108.716 26.5097 108.802 26.8145 108.975 27.042C109.149 27.2694 109.384 27.3832 109.68 27.3832C109.973 27.3832 110.193 27.3134 110.342 27.1739C110.491 27.0329 110.582 26.8221 110.617 26.5416H110.899ZM111.804 27.5742H111.531V24.0806H111.804V27.5742ZM112.833 27.5742H112.561V25.1132H112.833V27.5742ZM112.513 24.4013C112.513 24.3497 112.529 24.3065 112.563 24.2716C112.596 24.2352 112.642 24.217 112.699 24.217C112.757 24.217 112.802 24.2352 112.836 24.2716C112.871 24.3065 112.888 24.3497 112.888 24.4013C112.888 24.4528 112.871 24.496 112.836 24.5309C112.802 24.5658 112.757 24.5832 112.699 24.5832C112.642 24.5832 112.596 24.5658 112.563 24.5309C112.529 24.496 112.513 24.4528 112.513 24.4013ZM114.468 27.39C114.658 27.39 114.816 27.3369 114.943 27.2308C115.072 27.1231 115.142 26.9844 115.153 26.8145H115.414C115.407 26.9647 115.36 27.1019 115.273 27.2262C115.187 27.349 115.072 27.4453 114.928 27.5151C114.785 27.5848 114.632 27.6197 114.468 27.6197C114.145 27.6197 113.889 27.5075 113.699 27.2831C113.511 27.0587 113.417 26.7569 113.417 26.3778V26.2959C113.417 26.0533 113.46 25.8388 113.545 25.6523C113.63 25.4657 113.751 25.3217 113.909 25.2201C114.068 25.1185 114.254 25.0677 114.466 25.0677C114.736 25.0677 114.958 25.1481 115.132 25.3088C115.308 25.4695 115.402 25.6811 115.414 25.9434H115.153C115.141 25.7508 115.071 25.5954 114.943 25.4771C114.818 25.3588 114.658 25.2997 114.466 25.2997C114.22 25.2997 114.029 25.3884 113.893 25.5658C113.758 25.7432 113.69 25.9919 113.69 26.3119V26.3915C113.69 26.7054 113.758 26.9502 113.893 27.1261C114.029 27.302 114.221 27.39 114.468 27.39ZM116.528 26.3346L116.216 26.6348V27.5742H115.944V24.0806H116.216V26.3164L116.474 26.0389L117.415 25.1132H117.759L116.715 26.1504L117.85 27.5742H117.524L116.528 26.3346ZM119.39 27.5742V24.2625H120.368C120.723 24.2625 120.992 24.3361 121.176 24.4832C121.359 24.6287 121.451 24.844 121.451 25.1291C121.451 25.3005 121.404 25.4498 121.31 25.5772C121.217 25.7031 121.09 25.7933 120.928 25.8479C121.12 25.8903 121.275 25.9851 121.392 26.1322C121.51 26.2793 121.569 26.4491 121.569 26.6417C121.569 26.9343 121.474 27.1633 121.285 27.3286C121.097 27.4923 120.835 27.5742 120.498 27.5742H119.39ZM119.67 25.9821V27.3377H120.509C120.749 27.3377 120.938 27.277 121.078 27.1557C121.219 27.0329 121.289 26.8631 121.289 26.6462C121.289 26.4415 121.222 26.28 121.087 26.1617C120.954 26.042 120.769 25.9821 120.532 25.9821H119.67ZM119.67 25.7478H120.434C120.668 25.7432 120.848 25.6887 120.976 25.584C121.104 25.4779 121.169 25.324 121.169 25.1223C121.169 24.91 121.102 24.7538 120.969 24.6537C120.837 24.5522 120.637 24.5014 120.368 24.5014H119.67V25.7478ZM123.75 27.2626C123.586 27.5007 123.324 27.6197 122.965 27.6197C122.703 27.6197 122.503 27.5439 122.367 27.3923C122.23 27.2391 122.161 27.0132 122.158 26.7145V25.1132H122.428V26.6803C122.428 27.1489 122.618 27.3832 122.997 27.3832C123.391 27.3832 123.641 27.2202 123.745 26.8941V25.1132H124.018V27.5742H123.754L123.75 27.2626ZM125.134 24.4832V25.1132H125.644V25.3361H125.134V26.976C125.134 27.1125 125.159 27.2141 125.207 27.2808C125.257 27.3475 125.34 27.3809 125.455 27.3809C125.5 27.3809 125.574 27.3733 125.676 27.3581L125.687 27.581C125.616 27.6068 125.519 27.6197 125.396 27.6197C125.209 27.6197 125.074 27.5659 124.989 27.4582C124.904 27.349 124.861 27.1891 124.861 26.9783V25.3361H124.409V25.1132H124.861V24.4832H125.134ZM126.614 24.4832V25.1132H127.124V25.3361H126.614V26.976C126.614 27.1125 126.639 27.2141 126.687 27.2808C126.737 27.3475 126.82 27.3809 126.935 27.3809C126.98 27.3809 127.054 27.3733 127.156 27.3581L127.167 27.581C127.096 27.6068 126.999 27.6197 126.876 27.6197C126.689 27.6197 126.554 27.5659 126.469 27.4582C126.384 27.349 126.341 27.1891 126.341 26.9783V25.3361H125.889V25.1132H126.341V24.4832H126.614ZM127.476 26.3073C127.476 26.0708 127.521 25.8577 127.612 25.6682C127.705 25.4786 127.834 25.3316 128.001 25.2269C128.169 25.1208 128.36 25.0677 128.572 25.0677C128.899 25.0677 129.165 25.183 129.368 25.4134C129.571 25.6424 129.673 25.9464 129.673 26.3255V26.3824C129.673 26.6204 129.626 26.835 129.534 27.0261C129.443 27.2156 129.314 27.3619 129.147 27.465C128.981 27.5682 128.79 27.6197 128.576 27.6197C128.25 27.6197 127.985 27.5052 127.78 27.2763C127.577 27.0458 127.476 26.741 127.476 26.3619V26.3073ZM127.749 26.3824C127.749 26.6765 127.824 26.9184 127.976 27.1079C128.129 27.296 128.329 27.39 128.576 27.39C128.822 27.39 129.021 27.296 129.172 27.1079C129.326 26.9184 129.402 26.669 129.402 26.3596V26.3073C129.402 26.1193 129.367 25.9472 129.297 25.791C129.228 25.6348 129.13 25.5143 129.004 25.4294C128.878 25.3429 128.734 25.2997 128.572 25.2997C128.329 25.2997 128.131 25.3952 127.978 25.5863C127.825 25.7758 127.749 26.0245 127.749 26.3323V26.3824ZM130.479 25.1132L130.489 25.534C130.581 25.3824 130.696 25.2671 130.834 25.1883C130.972 25.1079 131.125 25.0677 131.291 25.0677C131.555 25.0677 131.752 25.142 131.881 25.2906C132.009 25.4392 132.075 25.6621 132.076 25.9593V27.5742H131.806V25.957C131.804 25.7372 131.757 25.5734 131.664 25.4657C131.574 25.3581 131.427 25.3043 131.226 25.3043C131.057 25.3043 130.908 25.3573 130.777 25.4635C130.649 25.5681 130.553 25.7099 130.491 25.8888V27.5742H130.22V25.1132H130.479Z" fill="#131313"/>
<path d="M10.5125 26.7276H10.5619C10.7699 26.7276 10.9484 26.7025 11.0974 26.6522C11.2482 26.6002 11.3721 26.5257 11.4691 26.4287C11.5662 26.3316 11.6381 26.2129 11.6849 26.0725C11.7317 25.9304 11.7551 25.7693 11.7551 25.589V24.8716C11.7551 24.7347 11.7412 24.6143 11.7135 24.5103C11.6875 24.4063 11.6494 24.3205 11.5991 24.2529C11.5506 24.1836 11.4934 24.1316 11.4275 24.097C11.3634 24.0623 11.2924 24.045 11.2144 24.045C11.1312 24.045 11.0576 24.0658 10.9934 24.1074C10.9293 24.1472 10.8747 24.2018 10.8297 24.2711C10.7863 24.3404 10.7526 24.4202 10.7283 24.5103C10.7058 24.5987 10.6945 24.6914 10.6945 24.7884C10.6945 24.8855 10.7058 24.9782 10.7283 25.0666C10.7508 25.1532 10.7846 25.2303 10.8297 25.2979C10.8747 25.3638 10.931 25.4166 10.9986 25.4565C11.0662 25.4946 11.1459 25.5137 11.2378 25.5137C11.3262 25.5137 11.405 25.4972 11.4743 25.4643C11.5454 25.4296 11.6052 25.3846 11.6537 25.3291C11.7039 25.2736 11.7421 25.2121 11.7681 25.1445C11.7958 25.077 11.8097 25.0085 11.8097 24.9392L12.0566 25.0744C12.0566 25.1957 12.0306 25.3152 11.9786 25.4331C11.9266 25.5509 11.8538 25.6584 11.7603 25.7554C11.6684 25.8507 11.5618 25.927 11.4405 25.9842C11.3192 26.0413 11.1893 26.0699 11.0506 26.0699C10.8739 26.0699 10.717 26.0379 10.5801 25.9738C10.4432 25.9079 10.3271 25.8178 10.2318 25.7034C10.1382 25.5873 10.0672 25.4521 10.0186 25.2979C9.97012 25.1437 9.94586 24.9764 9.94586 24.7962C9.94586 24.6125 9.97532 24.4401 10.0342 24.2789C10.0949 24.1178 10.1807 23.9757 10.2916 23.8526C10.4042 23.7296 10.5385 23.6334 10.6945 23.5641C10.8522 23.493 11.0272 23.4575 11.2196 23.4575C11.4119 23.4575 11.587 23.4948 11.7447 23.5693C11.9024 23.6438 12.0375 23.7495 12.1502 23.8864C12.2628 24.0216 12.3495 24.1836 12.4101 24.3725C12.4725 24.5614 12.5037 24.7711 12.5037 25.0016V25.2615C12.5037 25.5076 12.4768 25.7363 12.4231 25.9478C12.3711 26.1592 12.2923 26.3507 12.1866 26.5222C12.0826 26.6921 11.9526 26.8376 11.7967 26.9589C11.6424 27.0803 11.4631 27.173 11.2586 27.2371C11.0541 27.3012 10.8253 27.3333 10.5723 27.3333H10.5125V26.7276ZM15.5702 26.2597C15.5702 26.4971 15.5148 26.6973 15.4039 26.8602C15.293 27.0213 15.1405 27.1435 14.9464 27.2267C14.754 27.3081 14.5357 27.3489 14.2913 27.3489C14.047 27.3489 13.8277 27.3081 13.6336 27.2267C13.4396 27.1435 13.2862 27.0213 13.1735 26.8602C13.0609 26.6973 13.0046 26.4971 13.0046 26.2597C13.0046 26.1003 13.0366 25.9564 13.1008 25.8282C13.1649 25.6982 13.2541 25.5873 13.3685 25.4955C13.4846 25.4019 13.6206 25.3308 13.7766 25.2823C13.9326 25.2321 14.1024 25.2069 14.2861 25.2069C14.5322 25.2069 14.7523 25.2502 14.9464 25.3369C15.1405 25.4235 15.293 25.5457 15.4039 25.7034C15.5148 25.8611 15.5702 26.0465 15.5702 26.2597ZM14.8164 26.2103C14.8164 26.0942 14.7939 25.9946 14.7488 25.9114C14.7055 25.8265 14.644 25.7615 14.5642 25.7164C14.4845 25.6714 14.3918 25.6488 14.2861 25.6488C14.1804 25.6488 14.0877 25.6714 14.008 25.7164C13.9282 25.7615 13.8659 25.8265 13.8208 25.9114C13.7775 25.9946 13.7558 26.0942 13.7558 26.2103C13.7558 26.3247 13.7775 26.4235 13.8208 26.5066C13.8659 26.5898 13.9282 26.6539 14.008 26.699C14.0894 26.7423 14.1839 26.764 14.2913 26.764C14.3987 26.764 14.4915 26.7423 14.5694 26.699C14.6492 26.6539 14.7098 26.5898 14.7514 26.5066C14.7947 26.4235 14.8164 26.3247 14.8164 26.2103ZM15.4896 24.5155C15.4896 24.7078 15.4385 24.8785 15.3363 25.0276C15.234 25.1749 15.0919 25.2901 14.91 25.3733C14.7297 25.4565 14.5235 25.4981 14.2913 25.4981C14.0574 25.4981 13.8494 25.4565 13.6674 25.3733C13.4855 25.2901 13.3434 25.1749 13.2411 25.0276C13.1389 24.8785 13.0878 24.7078 13.0878 24.5155C13.0878 24.2867 13.1389 24.0944 13.2411 23.9384C13.3451 23.7807 13.4872 23.6611 13.6674 23.5797C13.8494 23.4982 14.0556 23.4575 14.2861 23.4575C14.5201 23.4575 14.7271 23.4982 14.9074 23.5797C15.0893 23.6611 15.2314 23.7807 15.3337 23.9384C15.4377 24.0944 15.4896 24.2867 15.4896 24.5155ZM14.741 24.5493C14.741 24.447 14.7228 24.3586 14.6864 24.2841C14.65 24.2079 14.598 24.149 14.5305 24.1074C14.4646 24.0658 14.3832 24.045 14.2861 24.045C14.1925 24.045 14.1119 24.0649 14.0444 24.1048C13.9785 24.1446 13.9274 24.2027 13.891 24.2789C13.8563 24.3534 13.839 24.4436 13.839 24.5493C13.839 24.6515 13.8563 24.7416 13.891 24.8196C13.9274 24.8959 13.9794 24.9556 14.047 24.999C14.1145 25.0423 14.196 25.064 14.2913 25.064C14.3866 25.064 14.4672 25.0423 14.5331 24.999C14.6006 24.9556 14.6518 24.8959 14.6864 24.8196C14.7228 24.7416 14.741 24.6515 14.741 24.5493ZM18.629 23.5121V23.915L17.1655 27.2969H16.3752L17.8387 24.097H15.9541V23.5121H18.629Z" fill="#131313"/>
<path d="M100.919 43.1803C100.881 43.529 100.756 43.7959 100.544 43.9809C100.333 44.1659 100.051 44.2584 99.6997 44.2584C99.454 44.2584 99.2364 44.197 99.0469 44.0741C98.8589 43.9513 98.7133 43.7777 98.6102 43.5533C98.5071 43.3273 98.4548 43.0696 98.4532 42.7799V42.3501C98.4532 42.0559 98.5048 41.7951 98.6079 41.5676C98.711 41.3402 98.8589 41.165 99.0514 41.0422C99.2455 40.9179 99.4684 40.8557 99.7201 40.8557C100.075 40.8557 100.355 40.952 100.559 41.1446C100.766 41.3356 100.885 41.6002 100.919 41.9384H100.637C100.567 41.3758 100.261 41.0945 99.7201 41.0945C99.4199 41.0945 99.1803 41.2067 99.0014 41.4312C98.824 41.6556 98.7353 41.9657 98.7353 42.3614V42.7663C98.7353 43.1484 98.8217 43.4532 98.9946 43.6807C99.1689 43.9081 99.404 44.0218 99.6997 44.0218C99.9923 44.0218 100.213 43.9521 100.362 43.8126C100.51 43.6716 100.602 43.4608 100.637 43.1803H100.919ZM101.823 44.2129H101.55V40.7192H101.823V44.2129ZM102.853 44.2129H102.58V41.7519H102.853V44.2129ZM102.532 41.04C102.532 40.9884 102.549 40.9452 102.582 40.9103C102.616 40.8739 102.661 40.8557 102.719 40.8557C102.776 40.8557 102.822 40.8739 102.855 40.9103C102.89 40.9452 102.908 40.9884 102.908 41.04C102.908 41.0915 102.89 41.1347 102.855 41.1696C102.822 41.2045 102.776 41.2219 102.719 41.2219C102.661 41.2219 102.616 41.2045 102.582 41.1696C102.549 41.1347 102.532 41.0915 102.532 41.04ZM104.488 44.0287C104.677 44.0287 104.836 43.9756 104.963 43.8694C105.092 43.7618 105.162 43.623 105.172 43.4532H105.434C105.426 43.6033 105.379 43.7406 105.293 43.8649C105.206 43.9877 105.091 44.084 104.947 44.1538C104.805 44.2235 104.651 44.2584 104.488 44.2584C104.165 44.2584 103.908 44.1462 103.719 43.9218C103.531 43.6973 103.437 43.3956 103.437 43.0165V42.9346C103.437 42.692 103.479 42.4774 103.564 42.2909C103.649 42.1044 103.77 41.9604 103.928 41.8588C104.087 41.7572 104.273 41.7064 104.485 41.7064C104.755 41.7064 104.977 41.7867 105.152 41.9475C105.328 42.1082 105.422 42.3197 105.434 42.5821H105.172C105.16 42.3895 105.09 42.2341 104.963 42.1158C104.837 41.9975 104.678 41.9384 104.485 41.9384C104.24 41.9384 104.049 42.0271 103.912 42.2045C103.777 42.3819 103.71 42.6306 103.71 42.9505V43.0301C103.71 43.344 103.777 43.5889 103.912 43.7648C104.049 43.9407 104.24 44.0287 104.488 44.0287ZM106.548 42.9733L106.236 43.2735V44.2129H105.963V40.7192H106.236V42.9551L106.493 42.6776L107.435 41.7519H107.778L106.734 42.789L107.869 44.2129H107.544L106.548 42.9733ZM111.284 43.3986C111.284 43.2151 111.22 43.0703 111.091 42.9642C110.962 42.8565 110.726 42.7549 110.383 42.6594C110.041 42.5624 109.79 42.457 109.633 42.3432C109.408 42.1825 109.296 41.9717 109.296 41.7109C109.296 41.4577 109.4 41.2522 109.608 41.0945C109.817 40.9353 110.084 40.8557 110.408 40.8557C110.628 40.8557 110.825 40.8982 110.997 40.9831C111.172 41.068 111.307 41.1863 111.402 41.3379C111.498 41.4895 111.546 41.6586 111.546 41.8451H111.264C111.264 41.6192 111.186 41.438 111.032 41.3015C110.877 41.1635 110.669 41.0945 110.408 41.0945C110.155 41.0945 109.953 41.1514 109.803 41.2651C109.653 41.3773 109.578 41.5244 109.578 41.7064C109.578 41.8747 109.646 42.0119 109.781 42.1181C109.916 42.2242 110.132 42.3182 110.429 42.4001C110.726 42.4805 110.951 42.5646 111.104 42.6526C111.257 42.739 111.373 42.8429 111.45 42.9642C111.527 43.0855 111.566 43.2288 111.566 43.3941C111.566 43.6549 111.461 43.8641 111.252 44.0218C111.044 44.1795 110.77 44.2584 110.429 44.2584C110.195 44.2584 109.981 44.2167 109.785 44.1333C109.591 44.0499 109.443 43.9331 109.342 43.783C109.241 43.6329 109.191 43.4608 109.191 43.2667H109.471C109.471 43.5002 109.558 43.6844 109.733 43.8194C109.907 43.9544 110.139 44.0218 110.429 44.0218C110.687 44.0218 110.894 43.965 111.05 43.8512C111.206 43.7375 111.284 43.5866 111.284 43.3986ZM113.001 44.0287C113.19 44.0287 113.349 43.9756 113.476 43.8694C113.605 43.7618 113.675 43.623 113.685 43.4532H113.947C113.939 43.6033 113.892 43.7406 113.806 43.8649C113.719 43.9877 113.604 44.084 113.46 44.1538C113.317 44.2235 113.164 44.2584 113.001 44.2584C112.678 44.2584 112.421 44.1462 112.232 43.9218C112.044 43.6973 111.95 43.3956 111.95 43.0165V42.9346C111.95 42.692 111.992 42.4774 112.077 42.2909C112.162 42.1044 112.283 41.9604 112.441 41.8588C112.6 41.7572 112.786 41.7064 112.998 41.7064C113.268 41.7064 113.49 41.7867 113.665 41.9475C113.841 42.1082 113.935 42.3197 113.947 42.5821H113.685C113.673 42.3895 113.603 42.2341 113.476 42.1158C113.35 41.9975 113.191 41.9384 112.998 41.9384C112.753 41.9384 112.562 42.0271 112.425 42.2045C112.29 42.3819 112.223 42.6306 112.223 42.9505V43.0301C112.223 43.344 112.29 43.5889 112.425 43.7648C112.562 43.9407 112.753 44.0287 113.001 44.0287ZM114.747 42.1681C114.836 42.021 114.951 41.9073 115.09 41.8269C115.23 41.7466 115.382 41.7064 115.547 41.7064C115.811 41.7064 116.007 41.7807 116.136 41.9293C116.265 42.0779 116.33 42.3008 116.332 42.598V44.2129H116.061V42.5957C116.06 42.3758 116.013 42.2121 115.92 42.1044C115.829 41.9968 115.683 41.9429 115.481 41.9429C115.313 41.9429 115.164 41.996 115.033 42.1021C114.904 42.2068 114.809 42.3486 114.747 42.5275V44.2129H114.476V40.7192H114.747V42.1681ZM117.969 44.2584C117.76 44.2584 117.57 44.2068 117.4 44.1037C117.232 44.0006 117.101 43.8573 117.007 43.6738C116.913 43.4888 116.866 43.2819 116.866 43.0529V42.9551C116.866 42.7185 116.911 42.5055 117.002 42.316C117.095 42.1264 117.223 41.9778 117.387 41.8701C117.55 41.761 117.728 41.7064 117.919 41.7064C118.218 41.7064 118.454 41.8087 118.629 42.0134C118.804 42.2166 118.892 42.4949 118.892 42.8482V43.0006H117.136V43.0529C117.136 43.3319 117.216 43.5647 117.375 43.7512C117.536 43.9362 117.738 44.0287 117.98 44.0287C118.126 44.0287 118.254 44.0021 118.365 43.949C118.477 43.896 118.578 43.8111 118.669 43.6943L118.84 43.8239C118.64 44.1136 118.35 44.2584 117.969 44.2584ZM117.919 41.9384C117.714 41.9384 117.541 42.0134 117.4 42.1636C117.261 42.3137 117.176 42.5153 117.146 42.7686H118.622V42.739C118.614 42.5025 118.547 42.3099 118.419 42.1613C118.292 42.0127 118.125 41.9384 117.919 41.9384ZM119.297 42.9596C119.297 42.5775 119.381 42.2735 119.551 42.0476C119.723 41.8201 119.955 41.7064 120.247 41.7064C120.579 41.7064 120.833 41.8375 121.007 42.0999V40.7192H121.278V44.2129H121.023L121.011 43.8854C120.837 44.134 120.581 44.2584 120.243 44.2584C119.959 44.2584 119.73 44.1447 119.556 43.9172C119.383 43.6882 119.297 43.3797 119.297 42.9915V42.9596ZM119.572 43.0074C119.572 43.3213 119.635 43.5692 119.761 43.7512C119.886 43.9316 120.064 44.0218 120.293 44.0218C120.628 44.0218 120.866 43.874 121.007 43.5783V42.4229C120.866 42.1029 120.629 41.9429 120.297 41.9429C120.068 41.9429 119.89 42.0332 119.763 42.2136C119.635 42.3925 119.572 42.6571 119.572 43.0074ZM123.56 43.9013C123.397 44.1393 123.135 44.2584 122.776 44.2584C122.513 44.2584 122.314 44.1826 122.178 44.0309C122.041 43.8778 121.971 43.6518 121.968 43.3531V41.7519H122.239V43.319C122.239 43.7876 122.429 44.0218 122.808 44.0218C123.202 44.0218 123.451 43.8588 123.556 43.5328V41.7519H123.829V44.2129H123.565L123.56 43.9013ZM124.827 44.2129H124.554V40.7192H124.827V44.2129ZM126.505 44.2584C126.295 44.2584 126.106 44.2068 125.936 44.1037C125.768 44.0006 125.636 43.8573 125.542 43.6738C125.448 43.4888 125.401 43.2819 125.401 43.0529V42.9551C125.401 42.7185 125.447 42.5055 125.538 42.316C125.63 42.1264 125.759 41.9778 125.922 41.8701C126.086 41.761 126.263 41.7064 126.455 41.7064C126.753 41.7064 126.99 41.8087 127.164 42.0134C127.34 42.2166 127.428 42.4949 127.428 42.8482V43.0006H125.672V43.0529C125.672 43.3319 125.752 43.5647 125.911 43.7512C126.072 43.9362 126.273 44.0287 126.516 44.0287C126.662 44.0287 126.79 44.0021 126.9 43.949C127.013 43.896 127.114 43.8111 127.205 43.6943L127.376 43.8239C127.176 44.1136 126.885 44.2584 126.505 44.2584ZM126.455 41.9384C126.25 41.9384 126.077 42.0134 125.936 42.1636C125.796 42.3137 125.712 42.5153 125.681 42.7686H127.157V42.739C127.15 42.5025 127.082 42.3099 126.955 42.1613C126.828 42.0127 126.661 41.9384 126.455 41.9384Z" fill="#131313"/>
<path d="M17.5625 40.3891V41.0078H17.4897C17.1501 41.013 16.8763 41.1014 16.6683 41.2729C16.4621 41.4445 16.3382 41.6828 16.2966 41.9878C16.4976 41.7833 16.7515 41.681 17.0582 41.681C17.3875 41.681 17.6492 41.7989 17.8433 42.0346C18.0374 42.2702 18.1344 42.5804 18.1344 42.9652C18.1344 43.2112 18.0807 43.4339 17.9732 43.6332C17.8675 43.8325 17.7168 43.9876 17.5209 44.0985C17.3269 44.2094 17.1068 44.2649 16.8607 44.2649C16.4621 44.2649 16.1398 44.1262 15.8937 43.849C15.6493 43.5717 15.5272 43.2017 15.5272 42.739V42.4687C15.5272 42.058 15.6043 41.6958 15.7585 41.3821C15.9145 41.0667 16.1372 40.8232 16.4266 40.6517C16.7177 40.4784 17.0548 40.3908 17.4378 40.3891H17.5625ZM16.8295 42.2841C16.7082 42.2841 16.5981 42.3162 16.4994 42.3803C16.4006 42.4427 16.3278 42.5259 16.281 42.6298V42.8586C16.281 43.1099 16.3304 43.3066 16.4292 43.4487C16.528 43.589 16.6666 43.6592 16.8451 43.6592C17.0063 43.6592 17.1362 43.596 17.235 43.4695C17.3355 43.3412 17.3858 43.1757 17.3858 42.973C17.3858 42.7667 17.3355 42.6004 17.235 42.4739C17.1345 42.3474 16.9993 42.2841 16.8295 42.2841ZM20.6005 40.3891V41.0078H20.5277C20.188 41.013 19.9142 41.1014 19.7063 41.2729C19.5 41.4445 19.3761 41.6828 19.3345 41.9878C19.5356 41.7833 19.7894 41.681 20.0962 41.681C20.4254 41.681 20.6871 41.7989 20.8812 42.0346C21.0753 42.2702 21.1723 42.5804 21.1723 42.9652C21.1723 43.2112 21.1186 43.4339 21.0112 43.6332C20.9055 43.8325 20.7547 43.9876 20.5589 44.0985C20.3648 44.2094 20.1447 44.2649 19.8986 44.2649C19.5 44.2649 19.1777 44.1262 18.9316 43.849C18.6873 43.5717 18.5651 43.2017 18.5651 42.739V42.4687C18.5651 42.058 18.6422 41.6958 18.7965 41.3821C18.9524 41.0667 19.1751 40.8232 19.4645 40.6517C19.7556 40.4784 20.0927 40.3908 20.4757 40.3891H20.6005ZM19.8674 42.2841C19.7461 42.2841 19.6361 42.3162 19.5373 42.3803C19.4385 42.4427 19.3657 42.5259 19.3189 42.6298V42.8586C19.3189 43.1099 19.3683 43.3066 19.4671 43.4487C19.5659 43.589 19.7045 43.6592 19.883 43.6592C20.0442 43.6592 20.1742 43.596 20.2729 43.4695C20.3734 43.3412 20.4237 43.1757 20.4237 42.973C20.4237 42.7667 20.3734 42.6004 20.2729 42.4739C20.1724 42.3474 20.0372 42.2841 19.8674 42.2841ZM23.8229 42.7884H24.2519V43.3941H23.8229V44.2129H23.0717V43.3941H21.5198L21.4861 42.921L23.0639 40.4281H23.8229V42.7884ZM22.2347 42.7884H23.0717V41.4523L23.0223 41.5381L22.2347 42.7884Z" fill="#131313"/>
<path d="M94.6267 60.0353C94.6267 59.8519 94.5622 59.707 94.4334 59.6009C94.3045 59.4932 94.0687 59.3916 93.726 59.2961C93.3833 59.1991 93.1331 59.0937 92.9754 58.98C92.751 58.8192 92.6388 58.6085 92.6388 58.3476C92.6388 58.0944 92.7426 57.889 92.9504 57.7313C93.1596 57.572 93.4265 57.4924 93.751 57.4924C93.9709 57.4924 94.1672 57.5349 94.3401 57.6198C94.5145 57.7047 94.6494 57.823 94.745 57.9746C94.8405 58.1263 94.8883 58.2953 94.8883 58.4818H94.6062C94.6062 58.2559 94.5289 58.0747 94.3742 57.9382C94.2196 57.8003 94.0118 57.7313 93.751 57.7313C93.4978 57.7313 93.2961 57.7881 93.146 57.9018C92.9959 58.0141 92.9208 58.1611 92.9208 58.3431C92.9208 58.5114 92.9883 58.6486 93.1232 58.7548C93.2582 58.8609 93.4743 58.9549 93.7715 59.0368C94.0687 59.1172 94.2939 59.2013 94.447 59.2893C94.6002 59.3757 94.7154 59.4796 94.7927 59.6009C94.8701 59.7222 94.9087 59.8655 94.9087 60.0308C94.9087 60.2916 94.8041 60.5009 94.5948 60.6586C94.3871 60.8162 94.1127 60.8951 93.7715 60.8951C93.538 60.8951 93.3234 60.8534 93.1278 60.77C92.9337 60.6866 92.7859 60.5698 92.6843 60.4197C92.5842 60.2696 92.5341 60.0975 92.5341 59.9034H92.8139C92.8139 60.1369 92.9011 60.3212 93.0755 60.4561C93.2499 60.5911 93.4819 60.6586 93.7715 60.6586C94.0293 60.6586 94.2362 60.6017 94.3924 60.488C94.5486 60.3742 94.6267 60.2234 94.6267 60.0353ZM95.7382 60.8496H95.4653V58.3886H95.7382V60.8496ZM95.4175 57.6767C95.4175 57.6251 95.4342 57.5819 95.4675 57.547C95.5009 57.5106 95.5464 57.4924 95.604 57.4924C95.6616 57.4924 95.7071 57.5106 95.7405 57.547C95.7754 57.5819 95.7928 57.6251 95.7928 57.6767C95.7928 57.7282 95.7754 57.7714 95.7405 57.8063C95.7071 57.8412 95.6616 57.8586 95.604 57.8586C95.5464 57.8586 95.5009 57.8412 95.4675 57.8063C95.4342 57.7714 95.4175 57.7282 95.4175 57.6767ZM96.3539 59.5964C96.3539 59.2112 96.4388 58.9064 96.6086 58.682C96.78 58.4561 97.012 58.3431 97.3046 58.3431C97.6397 58.3431 97.8945 58.4765 98.0689 58.7434L98.0825 58.3886H98.3373V60.7996C98.3373 61.1165 98.2486 61.3674 98.0711 61.5524C97.8937 61.7374 97.6534 61.8299 97.3501 61.8299C97.1788 61.8299 97.015 61.7913 96.8588 61.7139C96.7042 61.6381 96.5821 61.5365 96.4926 61.4091L96.645 61.2454C96.8376 61.4819 97.0666 61.6002 97.3319 61.6002C97.5594 61.6002 97.7368 61.5327 97.8642 61.3978C97.9915 61.2643 98.0575 61.0786 98.062 60.8405V60.5312C97.8877 60.7738 97.6337 60.8951 97.3001 60.8951C97.015 60.8951 96.786 60.7814 96.6132 60.5539C96.4403 60.3265 96.3539 60.0194 96.3539 59.6327V59.5964ZM96.6291 59.6441C96.6291 59.958 96.692 60.2059 96.8179 60.3879C96.9437 60.5683 97.1212 60.6586 97.3501 60.6586C97.6852 60.6586 97.9225 60.5084 98.062 60.2082V59.0641C97.9984 58.9064 97.9066 58.7866 97.7868 58.7047C97.667 58.6213 97.523 58.5796 97.3547 58.5796C97.1257 58.5796 96.9475 58.6699 96.8202 58.8503C96.6928 59.0292 96.6291 59.2938 96.6291 59.6441ZM99.2896 58.3886L99.2987 58.8094C99.3912 58.6577 99.5064 58.5425 99.6444 58.4636C99.7824 58.3833 99.9348 58.3431 100.102 58.3431C100.365 58.3431 100.562 58.4174 100.691 58.566C100.82 58.7146 100.885 58.9375 100.886 59.2347V60.8496H100.616V59.2324C100.614 59.0126 100.567 58.8488 100.475 58.7411C100.384 58.6335 100.237 58.5796 100.036 58.5796C99.8673 58.5796 99.7179 58.6327 99.5875 58.7389C99.4586 58.8435 99.3631 58.9853 99.3009 59.1642V60.8496H99.0303V58.3886H99.2896ZM103.158 60.538C102.994 60.7761 102.732 60.8951 102.373 60.8951C102.111 60.8951 101.911 60.8193 101.775 60.6676C101.638 60.5145 101.569 60.2886 101.566 59.9898V58.3886H101.836V59.9557C101.836 60.4243 102.026 60.6586 102.405 60.6586C102.799 60.6586 103.049 60.4955 103.153 60.1695V58.3886H103.426V60.8496H103.162L103.158 60.538ZM106.098 59.6441C106.098 60.0278 106.013 60.3325 105.843 60.5585C105.673 60.7829 105.446 60.8951 105.161 60.8951C104.824 60.8951 104.567 60.7768 104.388 60.5403V61.7958H104.117V58.3886H104.369L104.383 58.7366C104.56 58.4743 104.817 58.3431 105.154 58.3431C105.448 58.3431 105.679 58.4546 105.846 58.6775C106.014 58.9004 106.098 59.2097 106.098 59.6055V59.6441ZM105.825 59.5964C105.825 59.2825 105.761 59.0346 105.632 58.8526C105.503 58.6706 105.323 58.5796 105.093 58.5796C104.926 58.5796 104.783 58.6198 104.663 58.7002C104.543 58.7806 104.451 58.8973 104.388 59.0505V60.2309C104.453 60.372 104.546 60.4796 104.667 60.5539C104.789 60.6282 104.932 60.6654 105.097 60.6654C105.326 60.6654 105.504 60.5744 105.632 60.3924C105.761 60.209 105.825 59.9436 105.825 59.5964Z" fill="#131313"/>
<path d="M25.6061 60.8496H23.0119V60.3349L24.2362 59.03C24.4043 58.8463 24.5282 58.686 24.6079 58.5491C24.6894 58.4122 24.7301 58.2822 24.7301 58.1592C24.7301 57.9911 24.6876 57.8594 24.6027 57.7641C24.5178 57.667 24.3965 57.6185 24.2388 57.6185C24.069 57.6185 23.9347 57.6774 23.8359 57.7953C23.7389 57.9114 23.6903 58.0647 23.6903 58.2554H22.9365C22.9365 58.0249 22.9911 57.8143 23.1003 57.6237C23.2112 57.4331 23.3671 57.284 23.5682 57.1766C23.7692 57.0674 23.9971 57.0128 24.2518 57.0128C24.6417 57.0128 24.9441 57.1064 25.159 57.2936C25.3756 57.4807 25.4839 57.745 25.4839 58.0864C25.4839 58.2736 25.4354 58.4642 25.3384 58.6583C25.2413 58.8524 25.075 59.0785 24.8393 59.3367L23.9789 60.2439H25.6061V60.8496ZM27.8746 60.8496H27.1234V57.9538L26.2266 58.232V57.6211L27.794 57.0596H27.8746V60.8496ZM31.682 60.8496H29.0877V60.3349L30.3121 59.03C30.4802 58.8463 30.6041 58.686 30.6838 58.5491C30.7652 58.4122 30.806 58.2822 30.806 58.1592C30.806 57.9911 30.7635 57.8594 30.6786 57.7641C30.5937 57.667 30.4724 57.6185 30.3147 57.6185C30.1448 57.6185 30.0105 57.6774 29.9118 57.7953C29.8147 57.9114 29.7662 58.0647 29.7662 58.2554H29.0123C29.0123 58.0249 29.0669 57.8143 29.1761 57.6237C29.287 57.4331 29.443 57.284 29.644 57.1766C29.845 57.0674 30.0729 57.0128 30.3277 57.0128C30.7176 57.0128 31.02 57.1064 31.2349 57.2936C31.4515 57.4807 31.5598 57.745 31.5598 58.0864C31.5598 58.2736 31.5113 58.4642 31.4142 58.6583C31.3172 58.8524 31.1508 59.0785 30.9151 59.3367L30.0547 60.2439H31.682V60.8496Z" fill="#131313"/>
<g filter="url(#filter0_d_287_473)">
<path d="M105.3 4C104.019 7.54103 102.74 11.1087 101.462 14.7031C76.1577 15.2194 50.8353 15.2194 25.4947 14.7031C24.2186 11.1096 22.9394 7.54189 21.6572 4H105.3Z" fill="url(#paint0_linear_287_473)"/>
<path d="M99.5479 20.1152C98.27 23.7294 96.9921 27.3685 95.7143 31.0326C74.2538 31.9633 52.7081 31.9633 31.2477 31.0326C29.9698 27.3728 28.6919 23.7337 27.4141 20.1152C51.4354 20.8135 75.5265 20.8135 99.5479 20.1152Z" fill="url(#paint1_linear_287_473)"/>
<path d="M93.7996 36.5332C92.5226 40.2111 91.2456 43.904 89.9686 47.6119C72.325 48.6162 54.6387 48.6162 36.9951 47.6119C35.7189 43.9048 34.4419 40.2119 33.1641 36.5332C53.3454 37.5181 73.6132 37.5181 93.7996 36.5332Z" fill="url(#paint2_linear_287_473)"/>
<path d="M88.0501 53.1823C86.7722 56.9023 85.4939 60.6305 84.2152 64.3669C70.4047 65.211 56.5555 65.211 42.7451 64.3669C41.4663 60.6288 40.188 56.8997 38.9102 53.1797C55.2757 54.1525 71.6845 54.1534 88.0501 53.1823V53.1823Z" fill="url(#paint3_linear_287_473)"/>
</g>
<path d="M57.4749 10.0529H58.3932V10.4961H56.9159V7.70916H57.4749V10.0529ZM58.6047 9.38212C58.6047 9.15853 58.6487 8.96022 58.7365 8.7872C58.827 8.61418 58.9481 8.48109 59.0998 8.38793C59.2542 8.29476 59.4259 8.24818 59.6149 8.24818C59.7799 8.24818 59.9237 8.28145 60.0461 8.348C60.1712 8.41455 60.271 8.49839 60.3456 8.59954V8.28412H60.9086V10.4961H60.3456V10.1727C60.2737 10.2765 60.1739 10.363 60.0461 10.4322C59.921 10.4988 59.7759 10.532 59.6109 10.532C59.4246 10.532 59.2542 10.4841 59.0998 10.3883C58.9481 10.2925 58.827 10.158 58.7365 9.98502C58.6487 9.80934 58.6047 9.60837 58.6047 9.38212ZM60.3456 9.39011C60.3456 9.25435 60.319 9.13856 60.2657 9.04274C60.2125 8.94425 60.1406 8.86972 60.0501 8.81914C59.9596 8.76591 59.8625 8.73929 59.7586 8.73929C59.6548 8.73929 59.559 8.76458 59.4712 8.81515C59.3833 8.86573 59.3115 8.94026 59.2556 9.03874C59.2023 9.13457 59.1757 9.24903 59.1757 9.38212C59.1757 9.51521 59.2023 9.63233 59.2556 9.73348C59.3115 9.83197 59.3833 9.90783 59.4712 9.96107C59.5617 10.0143 59.6575 10.0409 59.7586 10.0409C59.8625 10.0409 59.9596 10.0156 60.0501 9.96506C60.1406 9.91182 60.2125 9.83729 60.2657 9.74147C60.319 9.64298 60.3456 9.52586 60.3456 9.39011ZM63.5706 8.28412L62.2011 11.5422H61.6062L62.0853 10.4402L61.199 8.28412H61.8258L62.3968 9.82931L62.9757 8.28412H63.5706ZM65.9282 9.34219C65.9282 9.42205 65.9229 9.49392 65.9123 9.5578H64.2952C64.3085 9.71751 64.3644 9.84262 64.4629 9.93312C64.5614 10.0236 64.6825 10.0689 64.8262 10.0689C65.0339 10.0689 65.1816 9.9797 65.2694 9.80136H65.8723C65.8085 10.0143 65.686 10.19 65.505 10.3284C65.324 10.4642 65.1017 10.532 64.8382 10.532C64.6253 10.532 64.4336 10.4854 64.2633 10.3923C64.0956 10.2965 63.9638 10.162 63.868 9.98902C63.7748 9.816 63.7282 9.61636 63.7282 9.39011C63.7282 9.16119 63.7748 8.96022 63.868 8.7872C63.9611 8.61418 64.0916 8.48109 64.2593 8.38793C64.427 8.29476 64.6199 8.24818 64.8382 8.24818C65.0485 8.24818 65.2362 8.29343 65.4012 8.38394C65.5689 8.47444 65.698 8.60354 65.7885 8.77123C65.8817 8.93626 65.9282 9.12658 65.9282 9.34219ZM65.3493 9.18248C65.3466 9.03874 65.2947 8.92429 65.1936 8.83911C65.0924 8.75127 64.9686 8.70735 64.8222 8.70735C64.6838 8.70735 64.5667 8.74994 64.4709 8.83511C64.3777 8.91763 64.3205 9.03342 64.2992 9.18248H65.3493ZM66.8952 8.62749C66.9671 8.51037 67.0603 8.41854 67.1747 8.35199C67.2918 8.28545 67.4249 8.25217 67.574 8.25217V8.83911H67.4263C67.2506 8.83911 67.1175 8.88037 67.027 8.96288C66.9391 9.0454 66.8952 9.18914 66.8952 9.3941V10.4961H66.3362V8.28412H66.8952V8.62749ZM68.7701 8.10045V7.58539H69.7324V10.4961H69.1574V8.10045H68.7701Z" fill="white"/>
<path d="M57.1894 26.4103H58.1077V26.8535H56.6304V24.0666H57.1894V26.4103ZM58.3193 25.7395C58.3193 25.5159 58.3632 25.3176 58.451 25.1446C58.5415 24.9716 58.6626 24.8385 58.8144 24.7453C58.9688 24.6522 59.1404 24.6056 59.3294 24.6056C59.4945 24.6056 59.6382 24.6389 59.7607 24.7054C59.8858 24.772 59.9856 24.8558 60.0601 24.957V24.6415H60.6231V26.8535H60.0601V26.5301C59.9882 26.6339 59.8884 26.7204 59.7607 26.7896C59.6355 26.8562 59.4905 26.8895 59.3254 26.8895C59.1391 26.8895 58.9688 26.8415 58.8144 26.7457C58.6626 26.6499 58.5415 26.5155 58.451 26.3424C58.3632 26.1668 58.3193 25.9658 58.3193 25.7395ZM60.0601 25.7475C60.0601 25.6118 60.0335 25.496 59.9803 25.4002C59.927 25.3017 59.8551 25.2271 59.7646 25.1766C59.6741 25.1233 59.577 25.0967 59.4732 25.0967C59.3694 25.0967 59.2735 25.122 59.1857 25.1726C59.0979 25.2231 59.026 25.2977 58.9701 25.3962C58.9169 25.492 58.8902 25.6065 58.8902 25.7395C58.8902 25.8726 58.9169 25.9898 58.9701 26.0909C59.026 26.1894 59.0979 26.2653 59.1857 26.3185C59.2762 26.3717 59.372 26.3983 59.4732 26.3983C59.577 26.3983 59.6741 26.3731 59.7646 26.3225C59.8551 26.2692 59.927 26.1947 59.9803 26.0989C60.0335 26.0004 60.0601 25.8833 60.0601 25.7475ZM63.2852 24.6415L61.9157 27.8996H61.3208L61.7999 26.7976L60.9135 24.6415H61.5404L62.1113 26.1867L62.6903 24.6415H63.2852ZM65.6428 25.6996C65.6428 25.7795 65.6374 25.8513 65.6268 25.9152H64.0097C64.023 26.0749 64.0789 26.2 64.1774 26.2905C64.2759 26.381 64.397 26.4263 64.5408 26.4263C64.7484 26.4263 64.8961 26.3371 64.984 26.1588H65.5869C65.523 26.3717 65.4005 26.5474 65.2195 26.6858C65.0385 26.8216 64.8163 26.8895 64.5527 26.8895C64.3398 26.8895 64.1482 26.8429 63.9778 26.7497C63.8101 26.6539 63.6783 26.5195 63.5825 26.3464C63.4893 26.1734 63.4428 25.9738 63.4428 25.7475C63.4428 25.5186 63.4893 25.3176 63.5825 25.1446C63.6757 24.9716 63.8061 24.8385 63.9738 24.7453C64.1415 24.6522 64.3345 24.6056 64.5527 24.6056C64.763 24.6056 64.9507 24.6509 65.1157 24.7414C65.2834 24.8319 65.4125 24.961 65.503 25.1287C65.5962 25.2937 65.6428 25.484 65.6428 25.6996ZM65.0638 25.5399C65.0612 25.3962 65.0093 25.2817 64.9081 25.1965C64.807 25.1087 64.6832 25.0648 64.5368 25.0648C64.3984 25.0648 64.2812 25.1074 64.1854 25.1925C64.0923 25.2751 64.035 25.3908 64.0137 25.5399H65.0638ZM66.6098 24.9849C66.6816 24.8678 66.7748 24.776 66.8892 24.7094C67.0064 24.6429 67.1395 24.6096 67.2885 24.6096V25.1965H67.1408C66.9651 25.1965 66.832 25.2378 66.7415 25.3203C66.6537 25.4028 66.6098 25.5466 66.6098 25.7515V26.8535H66.0508V24.6415H66.6098V24.9849ZM68.7282 26.2227C68.9838 26.0097 69.1874 25.8327 69.3391 25.6916C69.4908 25.5479 69.6173 25.3988 69.7184 25.2444C69.8196 25.0901 69.8701 24.9383 69.8701 24.7893C69.8701 24.6535 69.8382 24.547 69.7743 24.4699C69.7104 24.3927 69.6119 24.3541 69.4789 24.3541C69.3458 24.3541 69.2433 24.3993 69.1714 24.4898C69.0995 24.5777 69.0623 24.6988 69.0596 24.8532H68.5166C68.5272 24.5337 68.6217 24.2915 68.8001 24.1265C68.9811 23.9614 69.21 23.8789 69.4868 23.8789C69.7903 23.8789 70.0232 23.9601 70.1856 24.1225C70.3479 24.2822 70.4291 24.4938 70.4291 24.7573C70.4291 24.965 70.3732 25.1633 70.2614 25.3522C70.1496 25.5412 70.0219 25.7063 69.8781 25.8473C69.7344 25.9858 69.5467 26.1535 69.3151 26.3504H70.493V26.8136H68.5206V26.3983L68.7282 26.2227Z" fill="white"/>
<path d="M57.1407 42.7931H58.059V43.2363H56.5817V40.4494H57.1407V42.7931ZM58.2705 42.1224C58.2705 41.8988 58.3145 41.7005 58.4023 41.5274C58.4928 41.3544 58.6139 41.2213 58.7656 41.1282C58.92 41.035 59.0917 40.9884 59.2807 40.9884C59.4457 40.9884 59.5895 41.0217 59.7119 41.0882C59.837 41.1548 59.9368 41.2386 60.0114 41.3398V41.0244H60.5743V43.2363H60.0114V42.9129C59.9395 43.0167 59.8397 43.1032 59.7119 43.1724C59.5868 43.239 59.4417 43.2723 59.2767 43.2723C59.0904 43.2723 58.92 43.2243 58.7656 43.1285C58.6139 43.0327 58.4928 42.8983 58.4023 42.7253C58.3145 42.5496 58.2705 42.3486 58.2705 42.1224ZM60.0114 42.1303C60.0114 41.9946 59.9847 41.8788 59.9315 41.783C59.8783 41.6845 59.8064 41.61 59.7159 41.5594C59.6254 41.5061 59.5282 41.4795 59.4244 41.4795C59.3206 41.4795 59.2248 41.5048 59.137 41.5554C59.0491 41.606 58.9772 41.6805 58.9214 41.779C58.8681 41.8748 58.8415 41.9893 58.8415 42.1224C58.8415 42.2554 58.8681 42.3726 58.9214 42.4737C58.9772 42.5722 59.0491 42.6481 59.137 42.7013C59.2275 42.7545 59.3233 42.7812 59.4244 42.7812C59.5282 42.7812 59.6254 42.7559 59.7159 42.7053C59.8064 42.6521 59.8783 42.5775 59.9315 42.4817C59.9847 42.3832 60.0114 42.2661 60.0114 42.1303ZM63.2364 41.0244L61.8669 44.2824H61.272L61.7511 43.1804L60.8648 41.0244H61.4916L62.0626 42.5695L62.6415 41.0244H63.2364ZM65.594 42.0824C65.594 42.1623 65.5887 42.2342 65.5781 42.298H63.961C63.9743 42.4577 64.0302 42.5828 64.1287 42.6734C64.2272 42.7639 64.3483 42.8091 64.492 42.8091C64.6997 42.8091 64.8474 42.7199 64.9352 42.5416H65.5381C65.4742 42.7545 65.3518 42.9302 65.1708 43.0686C64.9898 43.2044 64.7675 43.2723 64.504 43.2723C64.2911 43.2723 64.0994 43.2257 63.9291 43.1325C63.7614 43.0367 63.6296 42.9023 63.5338 42.7293C63.4406 42.5562 63.394 42.3566 63.394 42.1303C63.394 41.9014 63.4406 41.7005 63.5338 41.5274C63.6269 41.3544 63.7574 41.2213 63.9251 41.1282C64.0928 41.035 64.2857 40.9884 64.504 40.9884C64.7143 40.9884 64.902 41.0337 65.067 41.1242C65.2347 41.2147 65.3638 41.3438 65.4543 41.5115C65.5474 41.6765 65.594 41.8668 65.594 42.0824ZM65.0151 41.9227C65.0124 41.779 64.9605 41.6645 64.8594 41.5793C64.7582 41.4915 64.6344 41.4476 64.488 41.4476C64.3496 41.4476 64.2325 41.4902 64.1367 41.5753C64.0435 41.6579 63.9863 41.7737 63.965 41.9227H65.0151ZM66.561 41.3677C66.6329 41.2506 66.7261 41.1588 66.8405 41.0922C66.9576 41.0257 67.0907 40.9924 67.2398 40.9924V41.5793H67.0921C66.9164 41.5793 66.7833 41.6206 66.6928 41.7031C66.6049 41.7856 66.561 41.9294 66.561 42.1343V43.2363H66.002V41.0244H66.561V41.3677ZM68.5118 41.0922C68.5251 40.826 68.6183 40.6211 68.7913 40.4773C68.967 40.3309 69.1972 40.2577 69.482 40.2577C69.6763 40.2577 69.8427 40.2923 69.9811 40.3616C70.1195 40.4281 70.2233 40.5199 70.2925 40.6371C70.3644 40.7515 70.4003 40.8819 70.4003 41.0283C70.4003 41.196 70.3564 41.3384 70.2686 41.4556C70.1834 41.57 70.0809 41.6472 69.9611 41.6871V41.7031C70.1155 41.751 70.2353 41.8362 70.3205 41.9587C70.4083 42.0811 70.4523 42.2381 70.4523 42.4298C70.4523 42.5895 70.415 42.7319 70.3405 42.857C70.2686 42.9821 70.1608 43.0806 70.017 43.1525C69.876 43.2217 69.7056 43.2563 69.506 43.2563C69.2052 43.2563 68.9603 43.1804 68.7713 43.0287C68.5823 42.877 68.4825 42.6534 68.4719 42.3579H69.0149C69.0202 42.4884 69.0641 42.5935 69.1466 42.6734C69.2318 42.7505 69.3476 42.7891 69.494 42.7891C69.6297 42.7891 69.7336 42.7519 69.8054 42.6773C69.88 42.6002 69.9172 42.5017 69.9172 42.3819C69.9172 42.2222 69.8667 42.1077 69.7655 42.0385C69.6644 41.9693 69.5073 41.9347 69.2944 41.9347H69.1786V41.4755H69.2944C69.6723 41.4755 69.8613 41.3491 69.8613 41.0962C69.8613 40.9818 69.8267 40.8926 69.7575 40.8287C69.691 40.7648 69.5938 40.7329 69.466 40.7329C69.3409 40.7329 69.2438 40.7675 69.1746 40.8367C69.108 40.9032 69.0694 40.9884 69.0588 41.0922H68.5118Z" fill="white"/>
<path d="M58.0969 60.8357H58.8621V61.2051H57.631V58.8826H58.0969V60.8357ZM59.0384 60.2768C59.0384 60.0904 59.075 59.9252 59.1482 59.781C59.2237 59.6368 59.3246 59.5259 59.451 59.4483C59.5797 59.3706 59.7227 59.3318 59.8802 59.3318C60.0178 59.3318 60.1375 59.3595 60.2396 59.415C60.3438 59.4705 60.427 59.5403 60.4891 59.6246V59.3618H60.9583V61.2051H60.4891V60.9356C60.4292 61.0221 60.3461 61.0942 60.2396 61.1518C60.1353 61.2073 60.0144 61.235 59.8769 61.235C59.7216 61.235 59.5797 61.1951 59.451 61.1152C59.3246 61.0354 59.2237 60.9234 59.1482 60.7792C59.075 60.6328 59.0384 60.4653 59.0384 60.2768ZM60.4891 60.2834C60.4891 60.1703 60.4669 60.0738 60.4226 59.9939C60.3782 59.9119 60.3183 59.8498 60.2429 59.8076C60.1675 59.7633 60.0865 59.7411 60 59.7411C59.9135 59.7411 59.8337 59.7621 59.7605 59.8043C59.6873 59.8464 59.6274 59.9085 59.5808 59.9906C59.5364 60.0705 59.5142 60.1659 59.5142 60.2768C59.5142 60.3877 59.5364 60.4853 59.5808 60.5696C59.6274 60.6516 59.6873 60.7149 59.7605 60.7592C59.8359 60.8036 59.9157 60.8258 60 60.8258C60.0865 60.8258 60.1675 60.8047 60.2429 60.7625C60.3183 60.7182 60.3782 60.6561 60.4226 60.5762C60.4669 60.4941 60.4891 60.3965 60.4891 60.2834ZM63.1767 59.3618L62.0354 62.0768H61.5397L61.9389 61.1585L61.2003 59.3618H61.7227L62.1985 60.6494L62.6809 59.3618H63.1767ZM65.1413 60.2435C65.1413 60.31 65.1369 60.3699 65.128 60.4232H63.7805C63.7916 60.5563 63.8382 60.6605 63.9202 60.7359C64.0023 60.8113 64.1032 60.8491 64.223 60.8491C64.396 60.8491 64.5191 60.7747 64.5923 60.6261H65.0948C65.0415 60.8036 64.9395 60.95 64.7887 61.0653C64.6378 61.1785 64.4526 61.235 64.233 61.235C64.0555 61.235 63.8958 61.1962 63.7539 61.1186C63.6141 61.0387 63.5043 60.9267 63.4245 60.7825C63.3468 60.6383 63.308 60.472 63.308 60.2834C63.308 60.0927 63.3468 59.9252 63.4245 59.781C63.5021 59.6368 63.6108 59.5259 63.7505 59.4483C63.8903 59.3706 64.0511 59.3318 64.233 59.3318C64.4082 59.3318 64.5646 59.3695 64.7021 59.4449C64.8419 59.5204 64.9495 59.6279 65.0249 59.7677C65.1025 59.9052 65.1413 60.0638 65.1413 60.2435ZM64.6589 60.1104C64.6567 59.9906 64.6134 59.8952 64.5291 59.8243C64.4448 59.7511 64.3417 59.7145 64.2197 59.7145C64.1043 59.7145 64.0067 59.7499 63.9269 59.8209C63.8493 59.8897 63.8016 59.9862 63.7838 60.1104H64.6589ZM65.9472 59.6479C66.0071 59.5503 66.0847 59.4738 66.1801 59.4183C66.2777 59.3629 66.3886 59.3351 66.5128 59.3351V59.8243H66.3897C66.2433 59.8243 66.1324 59.8586 66.057 59.9274C65.9838 59.9962 65.9472 60.1159 65.9472 60.2867V61.2051H65.4814V59.3618H65.9472V59.6479ZM67.5462 60.7326V60.3666L68.6342 58.8094H69.1766V60.3267H69.4694V60.7326H69.1766V61.2051H68.7107V60.7326H67.5462ZM68.7407 59.3085L68.0586 60.3267H68.7407V59.3085Z" fill="white"/>
<defs>
<filter id="filter0_d_287_473" x="16.1118" y="0.672718" width="94.7335" height="72.0909" filterUnits="userSpaceOnUse" color-interpolation-filters="sRGB">
<feFlood flood-opacity="0" result="BackgroundImageFix"/>
<feColorMatrix in="SourceAlpha" type="matrix" values="0 0 0 0 0 0 0 0 0 0 0 0 0 0 0 0 0 0 127 0" result="hardAlpha"/>
<feOffset dy="2.21819"/>
<feGaussianBlur stdDeviation="2.77274"/>
<feComposite in2="hardAlpha" operator="out"/>
<feColorMatrix type="matrix" values="0 0 0 0 0 0 0 0 0 0 0 0 0 0 0 0 0 0 0.4 0"/>
<feBlend mode="normal" in2="BackgroundImageFix" result="effect1_dropShadow_287_473"/>
<feBlend mode="normal" in="SourceGraphic" in2="effect1_dropShadow_287_473" result="shape"/>
</filter>
<linearGradient id="paint0_linear_287_473" x1="23.4292" y1="9.54548" x2="103.007" y2="9.54548" gradientUnits="userSpaceOnUse">
<stop stop-color="#4B75F7"/>
<stop offset="0.516301" stop-color="#819EFB"/>
<stop offset="1" stop-color="#4B75F7"/>
</linearGradient>
<linearGradient id="paint1_linear_287_473" x1="28.4224" y1="25.9071" x2="97.8794" y2="25.9071" gradientUnits="userSpaceOnUse">
<stop stop-color="#2F54BD"/>
<stop offset="0.489583" stop-color="#6682DA"/>
<stop offset="1" stop-color="#2F54BD"/>
</linearGradient>
<linearGradient id="paint2_linear_287_473" x1="35.0757" y1="42.5401" x2="92.8873" y2="42.5401" gradientUnits="userSpaceOnUse">
<stop stop-color="#243F8F"/>
<stop offset="0.529991" stop-color="#6782D1"/>
<stop offset="1" stop-color="#243F8F"/>
</linearGradient>
<linearGradient id="paint3_linear_287_473" x1="40.2061" y1="59.1768" x2="86.5108" y2="59.1768" gradientUnits="userSpaceOnUse">
<stop stop-color="#192C63"/>
<stop offset="0.479167" stop-color="#374C8B"/>
<stop offset="1" stop-color="#192C63"/>
</linearGradient>
</defs>
</svg>
