<svg width="161" height="868" viewBox="0 0 161 868" fill="none" xmlns="http://www.w3.org/2000/svg">
<rect opacity="0.1" x="18.4238" y="11.6445" width="69.791" height="576.785" fill="#4B75F7"/>
<path opacity="0.08" d="M25.6338 597.812H81.8703L75.5257 682.023H31.69L25.6338 597.812Z" fill="#4B75F7"/>
<path opacity="0.09" d="M37.4595 693.852H69.7594L68.0291 772.583H39.1898L37.4595 693.852Z" fill="#4B75F7"/>
<path opacity="0.09" d="M42.6489 782.961H65.1435V858.231H42.6489V782.961Z" fill="#4B75F7"/>
<path d="M104.693 687.351C104.64 687.837 104.466 688.208 104.171 688.466C103.877 688.724 103.486 688.852 102.996 688.852C102.654 688.852 102.351 688.767 102.087 688.596C101.825 688.425 101.623 688.183 101.479 687.871C101.335 687.556 101.263 687.197 101.261 686.794V686.196C101.261 685.786 101.332 685.423 101.476 685.106C101.619 684.789 101.825 684.546 102.093 684.375C102.364 684.202 102.674 684.115 103.024 684.115C103.518 684.115 103.908 684.249 104.193 684.517C104.48 684.783 104.647 685.152 104.693 685.622H104.301C104.203 684.839 103.778 684.447 103.024 684.447C102.606 684.447 102.273 684.604 102.024 684.916C101.777 685.229 101.653 685.66 101.653 686.211V686.775C101.653 687.307 101.774 687.731 102.014 688.048C102.257 688.365 102.584 688.523 102.996 688.523C103.403 688.523 103.711 688.426 103.917 688.232C104.124 688.035 104.252 687.742 104.301 687.351H104.693ZM105.951 688.789H105.571V683.925H105.951V688.789ZM107.384 688.789H107.004V685.363H107.384V688.789ZM106.937 684.371C106.937 684.3 106.96 684.24 107.007 684.191C107.053 684.14 107.117 684.115 107.197 684.115C107.277 684.115 107.34 684.14 107.387 684.191C107.435 684.24 107.46 684.3 107.46 684.371C107.46 684.443 107.435 684.503 107.387 684.552C107.34 684.601 107.277 684.625 107.197 684.625C107.117 684.625 107.053 684.601 107.007 684.552C106.96 684.503 106.937 684.443 106.937 684.371ZM109.658 688.533C109.922 688.533 110.143 688.459 110.32 688.311C110.5 688.161 110.597 687.968 110.612 687.731H110.976C110.965 687.94 110.9 688.131 110.779 688.305C110.659 688.476 110.499 688.61 110.298 688.707C110.1 688.804 109.886 688.852 109.658 688.852C109.209 688.852 108.852 688.696 108.588 688.384C108.326 688.071 108.195 687.651 108.195 687.123V687.009C108.195 686.672 108.254 686.373 108.373 686.113C108.491 685.854 108.66 685.653 108.879 685.512C109.101 685.37 109.36 685.299 109.655 685.299C110.031 685.299 110.34 685.411 110.583 685.635C110.828 685.859 110.959 686.153 110.976 686.519H110.612C110.595 686.25 110.498 686.034 110.32 685.869C110.145 685.705 109.923 685.622 109.655 685.622C109.313 685.622 109.047 685.746 108.857 685.993C108.669 686.24 108.575 686.586 108.575 687.032V687.142C108.575 687.579 108.669 687.92 108.857 688.165C109.047 688.41 109.314 688.533 109.658 688.533ZM112.525 687.063L112.091 687.481V688.789H111.711V683.925H112.091V687.038L112.449 686.652L113.76 685.363H114.238L112.785 686.807L114.365 688.789H113.912L112.525 687.063ZM116.508 688.789V684.178H117.869C118.363 684.178 118.738 684.281 118.993 684.485C119.249 684.688 119.377 684.988 119.377 685.385C119.377 685.623 119.311 685.831 119.18 686.009C119.052 686.184 118.874 686.31 118.648 686.386C118.916 686.445 119.132 686.577 119.294 686.781C119.459 686.986 119.541 687.223 119.541 687.491C119.541 687.898 119.409 688.217 119.145 688.447C118.884 688.675 118.518 688.789 118.05 688.789H116.508ZM116.897 686.572V688.46H118.066C118.399 688.46 118.663 688.375 118.857 688.206C119.054 688.035 119.152 687.799 119.152 687.497C119.152 687.212 119.058 686.987 118.87 686.823C118.684 686.656 118.427 686.572 118.097 686.572H116.897ZM116.897 686.246H117.961C118.286 686.24 118.537 686.164 118.715 686.018C118.894 685.87 118.984 685.656 118.984 685.375C118.984 685.08 118.891 684.862 118.705 684.723C118.522 684.582 118.243 684.511 117.869 684.511H116.897V686.246ZM122.576 688.355C122.348 688.687 121.984 688.852 121.483 688.852C121.118 688.852 120.841 688.747 120.651 688.536C120.461 688.322 120.364 688.008 120.359 687.592V685.363H120.736V687.545C120.736 688.197 121 688.523 121.528 688.523C122.077 688.523 122.424 688.296 122.57 687.842V685.363H122.95V688.789H122.582L122.576 688.355ZM124.502 684.485V685.363H125.212V685.673H124.502V687.956C124.502 688.146 124.536 688.288 124.604 688.381C124.673 688.473 124.788 688.52 124.949 688.52C125.012 688.52 125.115 688.509 125.256 688.488L125.272 688.799C125.173 688.834 125.037 688.852 124.866 688.852C124.607 688.852 124.418 688.777 124.3 688.628C124.181 688.476 124.122 688.253 124.122 687.959V685.673H123.492V685.363H124.122V684.485H124.502ZM126.562 684.485V685.363H127.271V685.673H126.562V687.956C126.562 688.146 126.595 688.288 126.663 688.381C126.733 688.473 126.848 688.52 127.008 688.52C127.071 688.52 127.174 688.509 127.315 688.488L127.331 688.799C127.232 688.834 127.097 688.852 126.926 688.852C126.666 688.852 126.477 688.777 126.359 688.628C126.241 688.476 126.182 688.253 126.182 687.959V685.673H125.551V685.363H126.182V684.485H126.562ZM127.76 687.025C127.76 686.696 127.823 686.399 127.95 686.135C128.078 685.871 128.259 685.667 128.491 685.521C128.725 685.373 128.99 685.299 129.286 685.299C129.742 685.299 130.111 685.46 130.394 685.781C130.677 686.099 130.819 686.523 130.819 687.051V687.13C130.819 687.461 130.754 687.76 130.625 688.026C130.499 688.29 130.319 688.494 130.087 688.637C129.855 688.781 129.59 688.852 129.292 688.852C128.838 688.852 128.469 688.693 128.184 688.374C127.901 688.053 127.76 687.629 127.76 687.101V687.025ZM128.14 687.13C128.14 687.539 128.245 687.876 128.456 688.14C128.669 688.402 128.948 688.533 129.292 688.533C129.634 688.533 129.911 688.402 130.122 688.14C130.335 687.876 130.442 687.529 130.442 687.098V687.025C130.442 686.763 130.393 686.524 130.296 686.306C130.199 686.089 130.063 685.921 129.888 685.803C129.712 685.683 129.512 685.622 129.286 685.622C128.948 685.622 128.673 685.755 128.459 686.021C128.246 686.285 128.14 686.631 128.14 687.06V687.13ZM131.941 685.363L131.953 685.949C132.082 685.737 132.242 685.577 132.435 685.467C132.627 685.355 132.839 685.299 133.071 685.299C133.438 685.299 133.712 685.403 133.891 685.61C134.071 685.817 134.162 686.127 134.164 686.541V688.789H133.787V686.538C133.785 686.231 133.719 686.003 133.59 685.854C133.464 685.704 133.26 685.629 132.979 685.629C132.745 685.629 132.537 685.703 132.355 685.85C132.176 685.996 132.043 686.193 131.956 686.443V688.789H131.58V685.363H131.941Z" fill="#131313"/>
<path d="M85.8445 865C85.8058 865.356 85.6781 865.629 85.4613 865.818C85.2461 866.007 84.9589 866.101 84.5998 866.101C84.349 866.101 84.1268 866.038 83.9333 865.913C83.7413 865.788 83.5927 865.61 83.4874 865.381C83.3821 865.151 83.3287 864.887 83.3272 864.592V864.153C83.3272 863.852 83.3798 863.586 83.4851 863.354C83.5904 863.122 83.7413 862.943 83.9379 862.817C84.1361 862.69 84.3637 862.627 84.6207 862.627C84.9829 862.627 85.2686 862.725 85.4776 862.922C85.6881 863.117 85.8104 863.387 85.8445 863.732H85.5565C85.4853 863.158 85.1734 862.871 84.6207 862.871C84.3141 862.871 84.0695 862.985 83.8868 863.215C83.7057 863.444 83.6151 863.76 83.6151 864.164V864.578C83.6151 864.968 83.7034 865.279 83.8799 865.511C84.0579 865.744 84.2979 865.86 84.5998 865.86C84.8986 865.86 85.1238 865.788 85.2755 865.646C85.4273 865.502 85.5209 865.287 85.5565 865H85.8445ZM86.7606 866.055H86.4819V862.488H86.7606V866.055ZM87.8045 866.055H87.5258V863.542H87.8045V866.055ZM87.477 862.815C87.477 862.762 87.4941 862.718 87.5281 862.683C87.5622 862.646 87.6086 862.627 87.6675 862.627C87.7263 862.627 87.7727 862.646 87.8068 862.683C87.8424 862.718 87.8602 862.762 87.8602 862.815C87.8602 862.868 87.8424 862.912 87.8068 862.947C87.7727 862.983 87.7263 863.001 87.6675 863.001C87.6086 863.001 87.5622 862.983 87.5281 862.947C87.4941 862.912 87.477 862.868 87.477 862.815ZM89.466 865.867C89.6596 865.867 89.8213 865.812 89.9514 865.704C90.083 865.594 90.1542 865.452 90.165 865.279H90.4321C90.4244 865.432 90.3764 865.572 90.2881 865.699C90.1999 865.825 90.0822 865.923 89.9351 865.994C89.7896 866.066 89.6332 866.101 89.466 866.101C89.1363 866.101 88.8746 865.987 88.6811 865.757C88.4891 865.528 88.3931 865.22 88.3931 864.833V864.75C88.3931 864.502 88.4365 864.283 88.5232 864.092C88.6099 863.902 88.7337 863.755 88.8948 863.651C89.0573 863.547 89.247 863.496 89.4637 863.496C89.7393 863.496 89.9661 863.578 90.1441 863.742C90.3237 863.906 90.4197 864.122 90.4321 864.39H90.165C90.1526 864.193 90.0814 864.034 89.9514 863.914C89.8229 863.793 89.6603 863.732 89.4637 863.732C89.2129 863.732 89.0178 863.823 88.8785 864.004C88.7407 864.185 88.6718 864.439 88.6718 864.766V864.847C88.6718 865.168 88.7407 865.418 88.8785 865.597C89.0178 865.777 89.2137 865.867 89.466 865.867ZM91.5619 864.789L91.2437 865.096V866.055H90.965V862.488H91.2437V864.77L91.5061 864.487L92.4675 863.542H92.8182L91.7523 864.601L92.9111 866.055H92.579L91.5619 864.789ZM94.4693 866.055V862.673H95.4679C95.8302 862.673 96.105 862.749 96.2923 862.899C96.4796 863.047 96.5733 863.267 96.5733 863.558C96.5733 863.733 96.5253 863.886 96.4293 864.016C96.3349 864.144 96.2048 864.236 96.0392 864.292C96.2358 864.335 96.3937 864.432 96.5129 864.582C96.6337 864.733 96.694 864.906 96.694 865.103C96.694 865.401 96.5973 865.635 96.4038 865.804C96.2118 865.971 95.944 866.055 95.6003 866.055H94.4693ZM94.755 864.429V865.813H95.6119C95.8565 865.813 96.05 865.751 96.1924 865.627C96.3364 865.502 96.4084 865.329 96.4084 865.107C96.4084 864.898 96.3395 864.733 96.2017 864.613C96.0655 864.49 95.8766 864.429 95.6351 864.429H94.755ZM94.755 864.19H95.5352C95.7737 864.185 95.9579 864.13 96.0879 864.023C96.2195 863.914 96.2853 863.757 96.2853 863.551C96.2853 863.335 96.2172 863.175 96.081 863.073C95.9463 862.969 95.7419 862.917 95.4679 862.917H94.755V864.19ZM98.913 865.737C98.7458 865.98 98.4787 866.101 98.1118 866.101C97.8439 866.101 97.6404 866.024 97.501 865.869C97.3617 865.713 97.2905 865.482 97.2874 865.177V863.542H97.5637V865.142C97.5637 865.62 97.7572 865.86 98.1443 865.86C98.5468 865.86 98.8015 865.693 98.9083 865.36V863.542H99.187V866.055H98.9176L98.913 865.737ZM100.319 862.899V863.542H100.839V863.77H100.319V865.444C100.319 865.583 100.344 865.687 100.393 865.755C100.444 865.823 100.529 865.857 100.647 865.857C100.693 865.857 100.768 865.85 100.872 865.834L100.883 866.062C100.811 866.088 100.712 866.101 100.586 866.101C100.396 866.101 100.257 866.046 100.17 865.936C100.084 865.825 100.04 865.661 100.04 865.446V863.77H99.5783V863.542H100.04V862.899H100.319ZM101.823 862.899V863.542H102.343V863.77H101.823V865.444C101.823 865.583 101.847 865.687 101.897 865.755C101.948 865.823 102.033 865.857 102.15 865.857C102.197 865.857 102.272 865.85 102.375 865.834L102.387 866.062C102.314 866.088 102.215 866.101 102.09 866.101C101.899 866.101 101.761 866.046 101.674 865.936C101.587 865.825 101.544 865.661 101.544 865.446V863.77H101.082V863.542H101.544V862.899H101.823ZM102.695 864.761C102.695 864.52 102.741 864.302 102.834 864.109C102.928 863.915 103.061 863.765 103.231 863.658C103.403 863.55 103.597 863.496 103.814 863.496C104.148 863.496 104.419 863.613 104.627 863.849C104.834 864.082 104.938 864.393 104.938 864.78V864.838C104.938 865.081 104.891 865.3 104.796 865.495C104.703 865.689 104.572 865.838 104.402 865.943C104.231 866.048 104.037 866.101 103.819 866.101C103.486 866.101 103.215 865.984 103.006 865.75C102.798 865.515 102.695 865.204 102.695 864.817V864.761ZM102.973 864.838C102.973 865.138 103.051 865.385 103.206 865.579C103.362 865.771 103.566 865.867 103.819 865.867C104.07 865.867 104.272 865.771 104.427 865.579C104.583 865.385 104.662 865.13 104.662 864.815V864.761C104.662 864.569 104.626 864.393 104.555 864.234C104.484 864.075 104.384 863.951 104.255 863.865C104.127 863.777 103.98 863.732 103.814 863.732C103.566 863.732 103.364 863.83 103.208 864.025C103.052 864.219 102.973 864.472 102.973 864.787V864.838ZM105.754 863.542L105.764 863.972C105.858 863.817 105.976 863.699 106.117 863.619C106.257 863.537 106.413 863.496 106.583 863.496C106.853 863.496 107.053 863.571 107.185 863.723C107.316 863.875 107.383 864.102 107.385 864.406V866.055H107.108V864.404C107.107 864.179 107.059 864.012 106.964 863.902C106.871 863.792 106.722 863.737 106.516 863.737C106.344 863.737 106.192 863.791 106.059 863.9C105.927 864.006 105.829 864.151 105.766 864.334V866.055H105.49V863.542H105.754Z" fill="#131313"/>
<path d="M110.954 9.8632L110.978 9.9574L111.005 9.8632L112.397 5.98587H112.807L111.16 10.4102H110.802L109.155 5.98587H109.562L110.954 9.8632ZM113.76 10.4102H113.396V7.12233H113.76V10.4102ZM113.332 6.17123C113.332 6.10235 113.354 6.04462 113.399 5.99802C113.443 5.94941 113.504 5.9251 113.581 5.9251C113.658 5.9251 113.719 5.94941 113.763 5.99802C113.81 6.04462 113.833 6.10235 113.833 6.17123C113.833 6.2401 113.81 6.29784 113.763 6.34443C113.719 6.39102 113.658 6.41432 113.581 6.41432C113.504 6.41432 113.443 6.39102 113.399 6.34443C113.354 6.29784 113.332 6.2401 113.332 6.17123ZM116.002 10.4709C115.722 10.4709 115.469 10.4021 115.242 10.2643C115.017 10.1265 114.842 9.93511 114.717 9.68999C114.591 9.44285 114.528 9.16633 114.528 8.86044V8.72978C114.528 8.41376 114.589 8.12914 114.711 7.87591C114.834 7.62269 115.005 7.42417 115.224 7.28034C115.443 7.13448 115.68 7.06155 115.935 7.06155C116.334 7.06155 116.65 7.19829 116.883 7.47177C117.118 7.74323 117.236 8.11496 117.236 8.58696V8.79055H114.89V8.86044C114.89 9.23318 114.996 9.54414 115.209 9.79331C115.424 10.0405 115.693 10.164 116.017 10.164C116.212 10.164 116.383 10.1286 116.531 10.0577C116.681 9.98677 116.816 9.87333 116.938 9.71734L117.166 9.89055C116.898 10.2775 116.51 10.4709 116.002 10.4709ZM115.935 7.3715C115.662 7.3715 115.431 7.47177 115.242 7.67232C115.056 7.87288 114.942 8.1423 114.902 8.48061H116.874V8.44111C116.864 8.12508 116.774 7.86781 116.604 7.66929C116.433 7.47076 116.211 7.3715 115.935 7.3715ZM118.708 9.65353L118.763 9.93613L118.836 9.63834L119.626 7.12233H119.936L120.717 9.61707L120.802 9.96347L120.872 9.64441L121.547 7.12233H121.923L120.966 10.4102H120.656L119.811 7.80299L119.772 7.62371L119.732 7.80603L118.903 10.4102H118.593L117.639 7.12233H118.013L118.708 9.65353ZM124.489 10.4102H124.124V5.74278H124.489V10.4102ZM127.533 10.4102C127.496 10.3068 127.473 10.1539 127.463 9.95132C127.335 10.1174 127.172 10.2461 126.974 10.3372C126.777 10.4264 126.569 10.4709 126.348 10.4709C126.032 10.4709 125.776 10.3828 125.579 10.2066C125.385 10.0303 125.287 9.80749 125.287 9.53806C125.287 9.21799 125.42 8.96477 125.685 8.7784C125.953 8.59203 126.325 8.49884 126.801 8.49884H127.46V8.12508C127.46 7.8901 127.387 7.70575 127.241 7.57205C127.097 7.43632 126.887 7.36846 126.609 7.36846C126.356 7.36846 126.146 7.43328 125.98 7.56293C125.814 7.69258 125.731 7.84857 125.731 8.03089L125.366 8.02785C125.366 7.76652 125.488 7.54065 125.731 7.35023C125.974 7.15778 126.273 7.06155 126.627 7.06155C126.994 7.06155 127.283 7.15373 127.493 7.33807C127.706 7.52039 127.815 7.77564 127.822 8.10381V9.65961C127.822 9.97765 127.855 10.2157 127.922 10.3737V10.4102H127.533ZM126.39 10.1488C126.633 10.1488 126.85 10.0901 127.041 9.97259C127.233 9.85509 127.373 9.6981 127.46 9.5016V8.7784H126.81C126.447 8.78245 126.163 8.8493 125.959 8.97895C125.754 9.10657 125.652 9.28281 125.652 9.50767C125.652 9.69202 125.72 9.84497 125.856 9.96651C125.993 10.0881 126.172 10.1488 126.39 10.1488ZM129.118 7.12233L129.13 7.68448C129.254 7.4819 129.408 7.32794 129.592 7.2226C129.777 7.11524 129.98 7.06155 130.203 7.06155C130.555 7.06155 130.818 7.16082 130.99 7.35934C131.162 7.55787 131.249 7.85566 131.251 8.25271V10.4102H130.89V8.24967C130.888 7.95593 130.825 7.73715 130.701 7.59332C130.58 7.44949 130.384 7.37757 130.115 7.37757C129.89 7.37757 129.69 7.44848 129.516 7.59028C129.344 7.73006 129.216 7.91947 129.133 8.15851V10.4102H128.772V7.12233H129.118ZM132.025 8.73586C132.025 8.22536 132.139 7.81919 132.365 7.51735C132.594 7.21349 132.904 7.06155 133.295 7.06155C133.739 7.06155 134.077 7.23678 134.31 7.58724V5.74278H134.672V10.4102H134.332L134.316 9.97259C134.083 10.3048 133.741 10.4709 133.289 10.4709C132.91 10.4709 132.605 10.319 132.372 10.0151C132.141 9.70924 132.025 9.29699 132.025 8.7784V8.73586ZM132.393 8.79967C132.393 9.219 132.477 9.55022 132.645 9.79331C132.813 10.0344 133.05 10.1549 133.356 10.1549C133.804 10.1549 134.122 9.9574 134.31 9.56237V8.01873C134.122 7.59129 133.806 7.37757 133.362 7.37757C133.056 7.37757 132.818 7.49811 132.648 7.73918C132.478 7.97822 132.393 8.33171 132.393 8.79967ZM136.014 10.4102H135.649V7.12233H136.014V10.4102ZM135.586 6.17123C135.586 6.10235 135.608 6.04462 135.652 5.99802C135.697 5.94941 135.758 5.9251 135.835 5.9251C135.912 5.9251 135.972 5.94941 136.017 5.99802C136.064 6.04462 136.087 6.10235 136.087 6.17123C136.087 6.2401 136.064 6.29784 136.017 6.34443C135.972 6.39102 135.912 6.41432 135.835 6.41432C135.758 6.41432 135.697 6.39102 135.652 6.34443C135.608 6.29784 135.586 6.2401 135.586 6.17123ZM137.329 7.12233L137.341 7.68448C137.464 7.4819 137.618 7.32794 137.803 7.2226C137.987 7.11524 138.191 7.06155 138.414 7.06155C138.766 7.06155 139.028 7.16082 139.201 7.35934C139.373 7.55787 139.46 7.85566 139.462 8.25271V10.4102H139.1V8.24967C139.098 7.95593 139.035 7.73715 138.912 7.59332C138.79 7.44949 138.595 7.37757 138.325 7.37757C138.101 7.37757 137.901 7.44848 137.727 7.59028C137.555 7.73006 137.427 7.91947 137.344 8.15851V10.4102H136.982V7.12233H137.329ZM140.236 8.73586C140.236 8.22131 140.349 7.81413 140.576 7.51431C140.805 7.21247 141.115 7.06155 141.506 7.06155C141.954 7.06155 142.294 7.23982 142.527 7.59636L142.545 7.12233H142.886V10.3433C142.886 10.7667 142.767 11.102 142.53 11.3491C142.293 11.5962 141.972 11.7198 141.567 11.7198C141.338 11.7198 141.119 11.6682 140.91 11.5648C140.704 11.4636 140.541 11.3278 140.421 11.1577L140.625 10.9389C140.882 11.2549 141.188 11.4129 141.542 11.4129C141.846 11.4129 142.083 11.3228 142.253 11.1425C142.424 10.9642 142.512 10.716 142.518 10.398V9.98474C142.285 10.3089 141.946 10.4709 141.5 10.4709C141.119 10.4709 140.813 10.319 140.582 10.0151C140.351 9.71126 140.236 9.30105 140.236 8.78447V8.73586ZM140.603 8.79967C140.603 9.219 140.688 9.55022 140.856 9.79331C141.024 10.0344 141.261 10.1549 141.567 10.1549C142.014 10.1549 142.331 9.95436 142.518 9.55325V8.02481C142.433 7.81413 142.31 7.65409 142.15 7.5447C141.99 7.43328 141.798 7.37757 141.573 7.37757C141.267 7.37757 141.029 7.49811 140.859 7.73918C140.689 7.97822 140.603 8.33171 140.603 8.79967ZM147.946 8.79967C147.946 9.31219 147.833 9.71937 147.606 10.0212C147.379 10.321 147.075 10.4709 146.694 10.4709C146.244 10.4709 145.9 10.3129 145.661 9.9969V11.6742H145.299V7.12233H145.637L145.655 7.58724C145.892 7.23678 146.235 7.06155 146.685 7.06155C147.078 7.06155 147.386 7.21045 147.609 7.50824C147.834 7.80603 147.946 8.21928 147.946 8.74801V8.79967ZM147.581 8.73586C147.581 8.31652 147.495 7.98531 147.323 7.74221C147.151 7.49912 146.911 7.37757 146.603 7.37757C146.38 7.37757 146.189 7.43126 146.029 7.53862C145.869 7.64599 145.746 7.80197 145.661 8.00658V9.58364C145.748 9.77204 145.873 9.91587 146.035 10.0151C146.197 10.1144 146.388 10.164 146.609 10.164C146.915 10.164 147.153 10.0425 147.323 9.79939C147.495 9.55427 147.581 9.19976 147.581 8.73586ZM150.807 10.4102C150.771 10.3068 150.748 10.1539 150.738 9.95132C150.61 10.1174 150.447 10.2461 150.248 10.3372C150.052 10.4264 149.843 10.4709 149.622 10.4709C149.306 10.4709 149.05 10.3828 148.854 10.2066C148.659 10.0303 148.562 9.80749 148.562 9.53806C148.562 9.21799 148.695 8.96477 148.96 8.7784C149.227 8.59203 149.599 8.49884 150.075 8.49884H150.735V8.12508C150.735 7.8901 150.662 7.70575 150.516 7.57205C150.372 7.43632 150.161 7.36846 149.884 7.36846C149.63 7.36846 149.421 7.43328 149.255 7.56293C149.089 7.69258 149.006 7.84857 149.006 8.03089L148.641 8.02785C148.641 7.76652 148.762 7.54065 149.006 7.35023C149.249 7.15778 149.547 7.06155 149.902 7.06155C150.269 7.06155 150.557 7.15373 150.768 7.33807C150.981 7.52039 151.09 7.77564 151.096 8.10381V9.65961C151.096 9.97765 151.13 10.2157 151.196 10.3737V10.4102H150.807ZM149.665 10.1488C149.908 10.1488 150.125 10.0901 150.315 9.97259C150.508 9.85509 150.647 9.6981 150.735 9.5016V8.7784H150.084C149.722 8.78245 149.438 8.8493 149.233 8.97895C149.029 9.10657 148.927 9.28281 148.927 9.50767C148.927 9.69202 148.994 9.84497 149.13 9.96651C149.268 10.0881 149.446 10.1488 149.665 10.1488ZM151.9 8.73586C151.9 8.22131 152.014 7.81413 152.241 7.51431C152.47 7.21247 152.78 7.06155 153.171 7.06155C153.618 7.06155 153.959 7.23982 154.192 7.59636L154.21 7.12233H154.55V10.3433C154.55 10.7667 154.432 11.102 154.195 11.3491C153.958 11.5962 153.637 11.7198 153.231 11.7198C153.002 11.7198 152.784 11.6682 152.575 11.5648C152.368 11.4636 152.205 11.3278 152.086 11.1577L152.289 10.9389C152.547 11.2549 152.853 11.4129 153.207 11.4129C153.511 11.4129 153.748 11.3228 153.918 11.1425C154.088 10.9642 154.176 10.716 154.182 10.398V9.98474C153.949 10.3089 153.61 10.4709 153.165 10.4709C152.784 10.4709 152.478 10.319 152.247 10.0151C152.016 9.71126 151.9 9.30105 151.9 8.78447V8.73586ZM152.268 8.79967C152.268 9.219 152.352 9.55022 152.52 9.79331C152.688 10.0344 152.925 10.1549 153.231 10.1549C153.679 10.1549 153.996 9.95436 154.182 9.55325V8.02481C154.097 7.81413 153.975 7.65409 153.815 7.5447C153.655 7.43328 153.462 7.37757 153.237 7.37757C152.932 7.37757 152.694 7.49811 152.523 7.73918C152.353 7.97822 152.268 8.33171 152.268 8.79967ZM156.749 10.4709C156.47 10.4709 156.216 10.4021 155.99 10.2643C155.765 10.1265 155.589 9.93511 155.464 9.68999C155.338 9.44285 155.275 9.16633 155.275 8.86044V8.72978C155.275 8.41376 155.336 8.12914 155.458 7.87591C155.581 7.62269 155.752 7.42417 155.971 7.28034C156.19 7.13448 156.427 7.06155 156.682 7.06155C157.081 7.06155 157.397 7.19829 157.63 7.47177C157.865 7.74323 157.983 8.11496 157.983 8.58696V8.79055H155.637V8.86044C155.637 9.23318 155.743 9.54414 155.956 9.79331C156.171 10.0405 156.44 10.164 156.764 10.164C156.959 10.164 157.13 10.1286 157.278 10.0577C157.428 9.98677 157.564 9.87333 157.685 9.71734L157.913 9.89055C157.646 10.2775 157.258 10.4709 156.749 10.4709ZM156.682 7.3715C156.409 7.3715 156.178 7.47177 155.99 7.67232C155.803 7.87288 155.69 8.1423 155.649 8.48061H157.621V8.44111C157.611 8.12508 157.521 7.86781 157.351 7.66929C157.181 7.47076 156.958 7.3715 156.682 7.3715Z" fill="#131313"/>
<path fill-rule="evenodd" clip-rule="evenodd" d="M87.828 12.1955C87.828 13.7748 72.3536 15.055 53.2651 15.055C34.1764 15.055 18.7021 13.7748 18.7021 12.1955C18.7021 10.6162 34.1764 9.33594 53.2651 9.33594C72.3536 9.33594 87.828 10.6162 87.828 12.1955Z" fill="#4B75F7"/>
<path fill-rule="evenodd" clip-rule="evenodd" d="M81.9054 598.065C81.9054 599.798 69.2607 601.204 53.6629 601.204C38.0649 601.204 25.4204 599.798 25.4204 598.065C25.4204 596.331 38.0649 594.926 53.6629 594.926C69.2607 594.926 81.9054 596.331 81.9054 598.065Z" fill="#2F54BD"/>
<path d="M107.493 595.185C107.437 595.696 107.254 596.088 106.942 596.359C106.633 596.63 106.221 596.766 105.705 596.766C105.345 596.766 105.025 596.676 104.748 596.496C104.472 596.316 104.258 596.061 104.107 595.732C103.956 595.401 103.879 595.022 103.877 594.598V593.967C103.877 593.536 103.953 593.153 104.104 592.82C104.255 592.486 104.472 592.229 104.754 592.049C105.039 591.867 105.366 591.776 105.735 591.776C106.255 591.776 106.666 591.917 106.966 592.199C107.268 592.48 107.444 592.868 107.493 593.364H107.079C106.977 592.539 106.529 592.126 105.735 592.126C105.295 592.126 104.943 592.291 104.681 592.62C104.421 592.949 104.291 593.404 104.291 593.984V594.578C104.291 595.138 104.417 595.585 104.671 595.919C104.927 596.252 105.271 596.419 105.705 596.419C106.134 596.419 106.458 596.317 106.676 596.112C106.893 595.905 107.028 595.596 107.079 595.185H107.493ZM108.819 596.699H108.419V591.576H108.819V596.699ZM110.329 596.699H109.929V593.09H110.329V596.699ZM109.859 592.046C109.859 591.97 109.883 591.907 109.932 591.856C109.981 591.802 110.048 591.776 110.133 591.776C110.217 591.776 110.284 591.802 110.333 591.856C110.384 591.907 110.409 591.97 110.409 592.046C110.409 592.122 110.384 592.185 110.333 592.236C110.284 592.287 110.217 592.313 110.133 592.313C110.048 592.313 109.981 592.287 109.932 592.236C109.883 592.185 109.859 592.122 109.859 592.046ZM112.727 596.429C113.005 596.429 113.237 596.351 113.424 596.196C113.613 596.038 113.715 595.834 113.731 595.585H114.114C114.103 595.805 114.034 596.007 113.907 596.189C113.781 596.369 113.612 596.51 113.4 596.612C113.191 596.715 112.967 596.766 112.727 596.766C112.253 596.766 111.877 596.601 111.599 596.272C111.323 595.943 111.186 595.501 111.186 594.945V594.825C111.186 594.469 111.248 594.154 111.372 593.881C111.497 593.607 111.675 593.396 111.906 593.247C112.14 593.098 112.412 593.023 112.723 593.023C113.119 593.023 113.445 593.141 113.701 593.377C113.959 593.613 114.096 593.923 114.114 594.308H113.731C113.713 594.025 113.611 593.797 113.424 593.624C113.239 593.45 113.006 593.364 112.723 593.364C112.363 593.364 112.083 593.494 111.883 593.754C111.685 594.014 111.586 594.379 111.586 594.848V594.965C111.586 595.425 111.685 595.784 111.883 596.042C112.083 596.3 112.364 596.429 112.727 596.429ZM115.748 594.881L115.291 595.322V596.699H114.89V591.576H115.291V594.855L115.668 594.448L117.049 593.09H117.552L116.021 594.611L117.686 596.699H117.209L115.748 594.881ZM119.945 596.699V591.842H121.38C121.9 591.842 122.295 591.95 122.564 592.166C122.833 592.38 122.967 592.695 122.967 593.113C122.967 593.365 122.898 593.584 122.761 593.771C122.625 593.955 122.438 594.087 122.2 594.167C122.483 594.23 122.709 594.369 122.881 594.584C123.054 594.8 123.141 595.049 123.141 595.332C123.141 595.761 123.002 596.097 122.724 596.339C122.448 596.579 122.063 596.699 121.57 596.699H119.945ZM120.356 594.364V596.352H121.586C121.938 596.352 122.216 596.263 122.42 596.085C122.627 595.905 122.731 595.656 122.731 595.338C122.731 595.038 122.632 594.801 122.434 594.628C122.238 594.452 121.967 594.364 121.62 594.364H120.356ZM120.356 594.021H121.476C121.819 594.014 122.083 593.934 122.27 593.781C122.459 593.625 122.554 593.399 122.554 593.103C122.554 592.792 122.456 592.563 122.26 592.416C122.067 592.267 121.773 592.193 121.38 592.193H120.356V594.021ZM126.339 596.242C126.098 596.591 125.715 596.766 125.188 596.766C124.803 596.766 124.511 596.655 124.311 596.432C124.11 596.208 124.008 595.876 124.004 595.438V593.09H124.401V595.388C124.401 596.075 124.679 596.419 125.235 596.419C125.813 596.419 126.179 596.18 126.332 595.702V593.09H126.732V596.699H126.345L126.339 596.242ZM128.369 592.166V593.09H129.116V593.417H128.369V595.822C128.369 596.022 128.405 596.171 128.476 596.269C128.549 596.367 128.67 596.416 128.839 596.416C128.906 596.416 129.014 596.405 129.163 596.382L129.18 596.709C129.075 596.747 128.933 596.766 128.753 596.766C128.479 596.766 128.28 596.687 128.156 596.529C128.031 596.369 127.969 596.134 127.969 595.825V593.417H127.305V593.09H127.969V592.166H128.369ZM130.539 592.166V593.09H131.287V593.417H130.539V595.822C130.539 596.022 130.575 596.171 130.646 596.269C130.72 596.367 130.841 596.416 131.01 596.416C131.077 596.416 131.184 596.405 131.333 596.382L131.35 596.709C131.246 596.747 131.103 596.766 130.923 596.766C130.65 596.766 130.451 596.687 130.326 596.529C130.201 596.369 130.139 596.134 130.139 595.825V593.417H129.475V593.09H130.139V592.166H130.539ZM131.803 594.841C131.803 594.494 131.869 594.182 132.003 593.904C132.138 593.626 132.329 593.41 132.573 593.257C132.82 593.101 133.099 593.023 133.41 593.023C133.891 593.023 134.28 593.192 134.578 593.53C134.876 593.866 135.025 594.312 135.025 594.868V594.951C135.025 595.3 134.957 595.615 134.821 595.895C134.688 596.173 134.499 596.388 134.254 596.539C134.01 596.69 133.731 596.766 133.417 596.766C132.939 596.766 132.55 596.598 132.25 596.262C131.952 595.924 131.803 595.477 131.803 594.921V594.841ZM132.203 594.951C132.203 595.383 132.314 595.737 132.537 596.015C132.761 596.291 133.055 596.429 133.417 596.429C133.777 596.429 134.069 596.291 134.291 596.015C134.516 595.737 134.628 595.372 134.628 594.918V594.841C134.628 594.566 134.577 594.313 134.475 594.084C134.372 593.855 134.229 593.678 134.044 593.554C133.86 593.427 133.648 593.364 133.41 593.364C133.055 593.364 132.764 593.504 132.54 593.784C132.315 594.062 132.203 594.427 132.203 594.878V594.951ZM136.208 593.09L136.221 593.707C136.357 593.485 136.526 593.316 136.728 593.2C136.931 593.082 137.154 593.023 137.399 593.023C137.786 593.023 138.074 593.132 138.263 593.35C138.452 593.568 138.547 593.895 138.55 594.331V596.699H138.153V594.328C138.151 594.005 138.082 593.765 137.946 593.607C137.812 593.449 137.598 593.37 137.302 593.37C137.055 593.37 136.836 593.448 136.645 593.604C136.456 593.757 136.316 593.965 136.225 594.227V596.699H135.828V593.09H136.208Z" fill="#131313"/>
<path d="M107.712 0.816406C106.065 5.37203 104.419 9.96196 102.775 14.5862C70.2206 15.2505 37.6427 15.2505 5.0415 14.5862C3.3997 9.96307 1.75404 5.37313 0.104492 0.816406H107.712Z" fill="url(#paint0_linear_289_97)"/>
<path d="M45.8627 8.81807H47.0895V9.41016H45.1159V5.68692H45.8627V8.81807ZM47.3722 7.92193C47.3722 7.62322 47.4308 7.35829 47.5482 7.12714C47.6691 6.89599 47.8309 6.71819 48.0336 6.59373C48.2398 6.46926 48.4692 6.40703 48.7217 6.40703C48.9422 6.40703 49.1342 6.45148 49.2978 6.54038C49.4649 6.62929 49.5983 6.7413 49.6978 6.87644V6.45504H50.45V9.41016H49.6978V8.97809C49.6018 9.11678 49.4685 9.23235 49.2978 9.32481C49.1307 9.41371 48.9368 9.45816 48.7164 9.45816C48.4674 9.45816 48.2398 9.39415 48.0336 9.26613C47.8309 9.13811 47.6691 8.95853 47.5482 8.72739C47.4308 8.49268 47.3722 8.2242 47.3722 7.92193ZM49.6978 7.9326C49.6978 7.75124 49.6623 7.59655 49.5912 7.46853C49.52 7.33695 49.424 7.23738 49.3031 7.16981C49.1822 7.09869 49.0524 7.06313 48.9137 7.06313C48.775 7.06313 48.647 7.09691 48.5297 7.16448C48.4123 7.23205 48.3163 7.33162 48.2416 7.46319C48.1705 7.59121 48.1349 7.74412 48.1349 7.92193C48.1349 8.09973 48.1705 8.2562 48.2416 8.39133C48.3163 8.52291 48.4123 8.62426 48.5297 8.69538C48.6506 8.7665 48.7786 8.80206 48.9137 8.80206C49.0524 8.80206 49.1822 8.76828 49.3031 8.70071C49.424 8.62959 49.52 8.53002 49.5912 8.402C49.6623 8.27043 49.6978 8.11396 49.6978 7.9326ZM54.0064 6.45504L52.1768 10.8077H51.382L52.0221 9.33548L50.8379 6.45504H51.6754L52.4382 8.51935L53.2116 6.45504H54.0064ZM57.1561 7.86859C57.1561 7.97527 57.149 8.07129 57.1347 8.15663H54.9744C54.9922 8.37 55.0669 8.53713 55.1984 8.65804C55.33 8.77895 55.4918 8.8394 55.6838 8.8394C55.9612 8.8394 56.1586 8.72027 56.2759 8.48201H57.0814C56.996 8.7665 56.8325 9.0012 56.5907 9.18612C56.3488 9.36748 56.0519 9.45816 55.6998 9.45816C55.4154 9.45816 55.1593 9.39593 54.9317 9.27147C54.7077 9.14345 54.5317 8.96387 54.4036 8.73272C54.2792 8.50157 54.217 8.23487 54.217 7.9326C54.217 7.62677 54.2792 7.35829 54.4036 7.12714C54.5281 6.89599 54.7024 6.71819 54.9264 6.59373C55.1504 6.46926 55.4082 6.40703 55.6998 6.40703C55.9808 6.40703 56.2315 6.46748 56.452 6.58839C56.676 6.7093 56.8485 6.88177 56.9694 7.1058C57.0938 7.32628 57.1561 7.58054 57.1561 7.86859ZM56.3826 7.65522C56.3791 7.46319 56.3097 7.31028 56.1746 7.19648C56.0395 7.07913 55.8741 7.02046 55.6785 7.02046C55.4936 7.02046 55.3371 7.07736 55.2091 7.19115C55.0846 7.30139 55.0082 7.45608 54.9797 7.65522H56.3826ZM58.4479 6.91377C58.5439 6.75731 58.6684 6.63462 58.8213 6.54572C58.9778 6.45682 59.1556 6.41236 59.3547 6.41236V7.19648H59.1574C58.9227 7.19648 58.7449 7.2516 58.624 7.36184C58.5066 7.47208 58.4479 7.66411 58.4479 7.93793V9.41016H57.7012V6.45504H58.4479V6.91377ZM60.9527 6.20967V5.52156H62.2383V9.41016H61.4701V6.20967H60.9527Z" fill="white"/>
<path d="M97.7902 587.102C96.2205 591.541 94.6508 596.011 93.0811 600.512C66.7197 601.655 40.2536 601.655 13.8922 600.512C12.3225 596.017 10.7528 591.546 9.18311 587.102C38.6903 587.959 68.283 587.959 97.7902 587.102Z" fill="url(#paint1_linear_289_97)"/>
<path d="M44.1876 596.479H45.5344V597.129H43.3679V593.042H44.1876V596.479ZM45.8447 595.495C45.8447 595.167 45.9091 594.876 46.0379 594.623C46.1706 594.369 46.3482 594.174 46.5707 594.037C46.7972 593.901 47.0489 593.832 47.3261 593.832C47.5681 593.832 47.7789 593.881 47.9585 593.979C48.142 594.076 48.2884 594.199 48.3977 594.348V593.885H49.2233V597.129H48.3977V596.655C48.2923 596.807 48.1459 596.934 47.9585 597.035C47.775 597.133 47.5623 597.182 47.3202 597.182C47.047 597.182 46.7972 597.111 46.5707 596.971C46.3482 596.83 46.1706 596.633 46.0379 596.379C45.9091 596.122 45.8447 595.827 45.8447 595.495ZM48.3977 595.507C48.3977 595.308 48.3586 595.138 48.2806 594.997C48.2025 594.853 48.0971 594.744 47.9644 594.67C47.8316 594.592 47.6891 594.552 47.5369 594.552C47.3847 594.552 47.2441 594.59 47.1153 594.664C46.9865 594.738 46.8811 594.847 46.7991 594.992C46.721 595.132 46.682 595.3 46.682 595.495C46.682 595.69 46.721 595.862 46.7991 596.01C46.8811 596.155 46.9865 596.266 47.1153 596.344C47.248 596.422 47.3886 596.461 47.5369 596.461C47.6891 596.461 47.8316 596.424 47.9644 596.35C48.0971 596.272 48.2025 596.163 48.2806 596.022C48.3586 595.878 48.3977 595.706 48.3977 595.507ZM53.1274 593.885L51.1189 598.663H50.2465L50.9491 597.047L49.6492 593.885H50.5685L51.4058 596.151L52.2549 593.885H53.1274ZM56.5849 595.437C56.5849 595.554 56.5771 595.659 56.5615 595.753H54.19C54.2095 595.987 54.2915 596.171 54.4359 596.303C54.5803 596.436 54.758 596.502 54.9688 596.502C55.2732 596.502 55.4899 596.372 55.6187 596.11H56.5029C56.4092 596.422 56.2296 596.68 55.9642 596.883C55.6987 597.082 55.3728 597.182 54.9863 597.182C54.674 597.182 54.393 597.113 54.1431 596.977C53.8972 596.836 53.704 596.639 53.5634 596.385C53.4268 596.132 53.3585 595.839 53.3585 595.507C53.3585 595.171 53.4268 594.876 53.5634 594.623C53.7001 594.369 53.8913 594.174 54.1373 594.037C54.3832 593.901 54.6662 593.832 54.9863 593.832C55.2947 593.832 55.5699 593.899 55.812 594.031C56.0579 594.164 56.2472 594.353 56.3799 594.599C56.5166 594.841 56.5849 595.12 56.5849 595.437ZM55.7358 595.202C55.7319 594.992 55.6558 594.824 55.5075 594.699C55.3591 594.57 55.1776 594.506 54.9629 594.506C54.7599 594.506 54.5881 594.568 54.4476 594.693C54.311 594.814 54.2271 594.984 54.1958 595.202H55.7358ZM58.003 594.389C58.1084 594.217 58.245 594.082 58.4129 593.984C58.5847 593.887 58.7799 593.838 58.9985 593.838V594.699H58.7818C58.5242 594.699 58.329 594.759 58.1963 594.88C58.0674 595.001 58.003 595.212 58.003 595.513V597.129H57.1832V593.885H58.003V594.389ZM61.1098 596.204C61.4846 595.891 61.7832 595.632 62.0057 595.425C62.2282 595.214 62.4137 594.996 62.562 594.769C62.7103 594.543 62.7845 594.32 62.7845 594.102C62.7845 593.903 62.7377 593.746 62.644 593.633C62.5503 593.52 62.4059 593.463 62.2107 593.463C62.0155 593.463 61.8652 593.53 61.7598 593.662C61.6544 593.791 61.5998 593.969 61.5958 594.195H60.7995C60.8151 593.727 60.9537 593.372 61.2152 593.13C61.4807 592.888 61.8164 592.767 62.2224 592.767C62.6674 592.767 63.009 592.886 63.2471 593.124C63.4852 593.358 63.6043 593.668 63.6043 594.055C63.6043 594.359 63.5223 594.65 63.3584 594.927C63.1944 595.204 63.007 595.446 62.7962 595.653C62.5854 595.856 62.3102 596.102 61.9706 596.391H63.698V597.07H60.8053V596.461L61.1098 596.204Z" fill="white"/>
<path d="M88.7357 680.062C87.2424 684.363 85.7491 688.682 84.2559 693.017C63.6244 694.192 42.9428 694.192 22.3114 693.017C20.8191 688.683 19.3258 684.364 17.8315 680.062C41.4305 681.214 65.1307 681.214 88.7357 680.062Z" fill="url(#paint2_linear_289_97)"/>
<path d="M45.9082 688.527H47.0671V689.086H45.2028V685.569H45.9082V688.527ZM47.334 687.68C47.334 687.398 47.3895 687.148 47.5003 686.929C47.6145 686.711 47.7673 686.543 47.9588 686.426C48.1536 686.308 48.3703 686.249 48.6088 686.249C48.8171 686.249 48.9985 686.291 49.153 686.375C49.3109 686.459 49.4368 686.565 49.5309 686.693V686.295H50.2413V689.086H49.5309V688.678C49.4402 688.809 49.3142 688.918 49.153 689.005C48.9951 689.089 48.812 689.131 48.6038 689.131C48.3686 689.131 48.1536 689.071 47.9588 688.95C47.7673 688.829 47.6145 688.659 47.5003 688.441C47.3895 688.219 47.334 687.966 47.334 687.68ZM49.5309 687.69C49.5309 687.519 49.4973 687.373 49.4301 687.252C49.3629 687.128 49.2722 687.034 49.158 686.97C49.0438 686.903 48.9212 686.869 48.7902 686.869C48.6592 686.869 48.5383 686.901 48.4274 686.965C48.3166 687.028 48.2259 687.123 48.1553 687.247C48.0881 687.368 48.0546 687.512 48.0546 687.68C48.0546 687.848 48.0881 687.996 48.1553 688.124C48.2259 688.248 48.3166 688.344 48.4274 688.411C48.5416 688.478 48.6625 688.512 48.7902 688.512C48.9212 688.512 49.0438 688.48 49.158 688.416C49.2722 688.349 49.3629 688.255 49.4301 688.134C49.4973 688.009 49.5309 687.862 49.5309 687.69ZM53.6008 686.295L51.8725 690.406H51.1218L51.7264 689.015L50.6078 686.295H51.3989L52.1194 688.244L52.85 686.295H53.6008ZM56.5759 687.63C56.5759 687.731 56.5692 687.821 56.5558 687.902H54.5151C54.5319 688.103 54.6025 688.261 54.7267 688.375C54.851 688.49 55.0039 688.547 55.1853 688.547C55.4473 688.547 55.6337 688.434 55.7446 688.209H56.5054C56.4248 688.478 56.2703 688.7 56.0418 688.874C55.8134 689.046 55.5329 689.131 55.2004 689.131C54.9317 689.131 54.6898 689.073 54.4748 688.955C54.2632 688.834 54.0969 688.664 53.976 688.446C53.8584 688.228 53.7996 687.976 53.7996 687.69C53.7996 687.401 53.8584 687.148 53.976 686.929C54.0936 686.711 54.2582 686.543 54.4698 686.426C54.6814 686.308 54.9249 686.249 55.2004 686.249C55.4657 686.249 55.7026 686.306 55.9108 686.42C56.1225 686.535 56.2854 686.698 56.3996 686.909C56.5171 687.118 56.5759 687.358 56.5759 687.63ZM55.8453 687.428C55.842 687.247 55.7765 687.102 55.6488 686.995C55.5212 686.884 55.365 686.829 55.1802 686.829C55.0056 686.829 54.8578 686.882 54.7368 686.99C54.6193 687.094 54.547 687.24 54.5202 687.428H55.8453ZM57.7962 686.728C57.8869 686.58 58.0045 686.464 58.1489 686.38C58.2967 686.296 58.4647 686.254 58.6528 686.254V686.995H58.4664C58.2447 686.995 58.0767 687.047 57.9625 687.151C57.8517 687.255 57.7962 687.437 57.7962 687.695V689.086H57.0908V686.295H57.7962V686.728ZM60.258 686.38C60.2748 686.044 60.3924 685.786 60.6107 685.604C60.8324 685.419 61.123 685.327 61.4824 685.327C61.7276 685.327 61.9375 685.371 62.1122 685.458C62.2869 685.542 62.4179 685.658 62.5052 685.806C62.5959 685.95 62.6413 686.115 62.6413 686.3C62.6413 686.511 62.5859 686.691 62.475 686.839C62.3675 686.983 62.2382 687.081 62.087 687.131V687.151C62.2819 687.212 62.433 687.319 62.5405 687.474C62.6514 687.628 62.7068 687.826 62.7068 688.068C62.7068 688.27 62.6598 688.449 62.5657 688.607C62.475 688.765 62.339 688.889 62.1576 688.98C61.9795 689.067 61.7646 689.111 61.5126 689.111C61.133 689.111 60.824 689.015 60.5855 688.824C60.347 688.632 60.221 688.35 60.2076 687.977H60.8929C60.8996 688.142 60.955 688.275 61.0591 688.375C61.1666 688.473 61.3128 688.522 61.4975 688.522C61.6688 688.522 61.7998 688.475 61.8905 688.381C61.9846 688.283 62.0316 688.159 62.0316 688.008C62.0316 687.806 61.9678 687.662 61.8401 687.574C61.7125 687.487 61.5143 687.443 61.2456 687.443H61.0995V686.864H61.2456C61.7226 686.864 61.9611 686.704 61.9611 686.385C61.9611 686.241 61.9174 686.128 61.8301 686.048C61.7461 685.967 61.6235 685.927 61.4622 685.927C61.3044 685.927 61.1818 685.97 61.0944 686.058C61.0104 686.142 60.9617 686.249 60.9483 686.38H60.258Z" fill="white"/>
<path d="M79.9003 772.155C78.5448 776.101 77.1888 780.056 75.8324 784.019C61.1827 784.915 46.492 784.915 31.8423 784.019C30.4859 780.054 29.1299 776.098 27.7744 772.152C45.1344 773.184 62.5403 773.185 79.9003 772.155Z" fill="url(#paint3_linear_289_97)"/>
<path d="M75.6699 856.897C74.5481 860.163 73.4259 863.435 72.3034 866.715C60.1795 867.457 48.0217 867.457 35.8978 866.715C34.7752 863.434 33.6531 860.16 32.5312 856.895C46.8981 857.749 61.303 857.749 75.6699 856.897Z" fill="url(#paint4_linear_289_97)"/>
<path d="M45.4615 780.038H46.6204V780.598H44.7561V777.081H45.4615V780.038ZM46.8873 779.192C46.8873 778.91 46.9428 778.659 47.0536 778.441C47.1678 778.223 47.3206 778.055 47.5121 777.937C47.7069 777.82 47.9236 777.761 48.1621 777.761C48.3704 777.761 48.5518 777.803 48.7063 777.887C48.8642 777.971 48.9901 778.077 49.0842 778.204V777.806H49.7946V780.598H49.0842V780.19C48.9935 780.321 48.8675 780.43 48.7063 780.517C48.5484 780.601 48.3653 780.643 48.1571 780.643C47.9219 780.643 47.7069 780.583 47.5121 780.462C47.3206 780.341 47.1678 780.171 47.0536 779.953C46.9428 779.731 46.8873 779.477 46.8873 779.192ZM49.0842 779.202C49.0842 779.031 49.0506 778.885 48.9834 778.764C48.9162 778.639 48.8255 778.545 48.7113 778.481C48.5971 778.414 48.4745 778.381 48.3435 778.381C48.2125 778.381 48.0916 778.413 47.9807 778.476C47.8699 778.54 47.7792 778.634 47.7086 778.759C47.6414 778.879 47.6079 779.024 47.6079 779.192C47.6079 779.36 47.6414 779.508 47.7086 779.635C47.7792 779.76 47.8699 779.855 47.9807 779.922C48.0949 779.99 48.2158 780.023 48.3435 780.023C48.4745 780.023 48.5971 779.991 48.7113 779.928C48.8255 779.86 48.9162 779.766 48.9834 779.645C49.0506 779.521 49.0842 779.373 49.0842 779.202ZM53.1541 777.806L51.4258 781.918H50.675L51.2797 780.527L50.1611 777.806H50.9522L51.6727 779.756L52.4033 777.806H53.1541ZM56.1292 779.141C56.1292 779.242 56.1225 779.333 56.1091 779.414H54.0684C54.0852 779.615 54.1558 779.773 54.28 779.887C54.4043 780.001 54.5572 780.059 54.7386 780.059C55.0006 780.059 55.187 779.946 55.2979 779.721H56.0587C55.9781 779.99 55.8236 780.211 55.5951 780.386C55.3667 780.557 55.0862 780.643 54.7537 780.643C54.4849 780.643 54.2431 780.584 54.0281 780.467C53.8165 780.346 53.6502 780.176 53.5293 779.958C53.4117 779.739 53.3529 779.487 53.3529 779.202C53.3529 778.913 53.4117 778.659 53.5293 778.441C53.6469 778.223 53.8115 778.055 54.0231 777.937C54.2347 777.82 54.4782 777.761 54.7537 777.761C55.019 777.761 55.2559 777.818 55.4641 777.932C55.6758 778.046 55.8387 778.209 55.9529 778.421C56.0704 778.629 56.1292 778.869 56.1292 779.141ZM55.3986 778.94C55.3953 778.759 55.3298 778.614 55.2021 778.507C55.0745 778.396 54.9183 778.34 54.7335 778.34C54.5588 778.34 54.411 778.394 54.2901 778.502C54.1726 778.606 54.1003 778.752 54.0735 778.94H55.3986ZM57.3495 778.24C57.4402 778.092 57.5578 777.976 57.7022 777.892C57.85 777.808 58.018 777.766 58.2061 777.766V778.507H58.0197C57.798 778.507 57.63 778.559 57.5158 778.663C57.405 778.767 57.3495 778.948 57.3495 779.207V780.598H56.6441V777.806H57.3495V778.24ZM59.771 779.882V779.328L61.4186 776.97H62.2399V779.267H62.6833V779.882H62.2399V780.598H61.5345V779.882H59.771ZM61.5799 777.726L60.5469 779.267H61.5799V777.726Z" fill="white"/>
<path d="M87.0758 778.501C87.0202 779.013 86.8367 779.404 86.5254 779.675C86.2163 779.947 85.8038 780.082 85.2879 780.082C84.9276 780.082 84.6085 779.992 84.3305 779.812C84.0548 779.632 83.8413 779.377 83.6901 779.048C83.5389 778.717 83.4621 778.339 83.4599 777.914V777.284C83.4599 776.852 83.5355 776.47 83.6867 776.136C83.838 775.803 84.0548 775.546 84.3372 775.366C84.6218 775.183 84.9487 775.092 85.3179 775.092C85.8383 775.092 86.2485 775.233 86.5488 775.516C86.8512 775.796 87.0269 776.184 87.0758 776.68H86.6622C86.5599 775.855 86.1118 775.442 85.3179 775.442C84.8776 775.442 84.5262 775.607 84.2638 775.936C84.0036 776.265 83.8735 776.72 83.8735 777.3V777.894C83.8735 778.455 84.0003 778.902 84.2538 779.235C84.5095 779.569 84.8542 779.735 85.2879 779.735C85.7171 779.735 86.0406 779.633 86.2585 779.429C86.4765 779.222 86.611 778.913 86.6622 778.501H87.0758ZM88.4023 780.016H88.0021V774.892H88.4023V780.016ZM89.9123 780.016H89.5121V776.406H89.9123V780.016ZM89.442 775.362C89.442 775.287 89.4665 775.223 89.5154 775.172C89.5643 775.119 89.631 775.092 89.7155 775.092C89.8 775.092 89.8668 775.119 89.9157 775.172C89.9668 775.223 89.9924 775.287 89.9924 775.362C89.9924 775.438 89.9668 775.501 89.9157 775.552C89.8668 775.604 89.8 775.629 89.7155 775.629C89.631 775.629 89.5643 775.604 89.5154 775.552C89.4665 775.501 89.442 775.438 89.442 775.362ZM92.3096 779.745C92.5876 779.745 92.82 779.668 93.0068 779.512C93.1958 779.354 93.2981 779.151 93.3137 778.902H93.6973C93.6862 779.122 93.6172 779.323 93.4905 779.505C93.3637 779.685 93.1947 779.827 92.9835 779.929C92.7744 780.031 92.5498 780.082 92.3096 780.082C91.836 780.082 91.4602 779.918 91.1822 779.589C90.9064 779.26 90.7686 778.817 90.7686 778.261V778.141C90.7686 777.785 90.8308 777.471 90.9554 777.197C91.0799 776.923 91.2578 776.712 91.4891 776.563C91.7226 776.414 91.995 776.34 92.3063 776.34C92.7021 776.34 93.0279 776.458 93.2837 776.693C93.5416 776.929 93.6795 777.239 93.6973 777.624H93.3137C93.2959 777.342 93.1936 777.114 93.0068 776.94C92.8222 776.767 92.5887 776.68 92.3063 776.68C91.9461 776.68 91.6659 776.81 91.4657 777.07C91.2678 777.33 91.1688 777.695 91.1688 778.164V778.281C91.1688 778.741 91.2678 779.101 91.4657 779.358C91.6659 779.616 91.9472 779.745 92.3096 779.745ZM95.3307 778.198L94.8737 778.638V780.016H94.4734V774.892H94.8737V778.171L95.2507 777.764L96.6316 776.406H97.1353L95.6042 777.927L97.2687 780.016H96.7917L95.3307 778.198ZM99.5282 780.016V775.159H100.963C101.483 775.159 101.878 775.267 102.147 775.482C102.416 775.696 102.55 776.012 102.55 776.43C102.55 776.681 102.481 776.9 102.344 777.087C102.208 777.271 102.021 777.404 101.783 777.484C102.066 777.546 102.292 777.685 102.464 777.901C102.637 778.117 102.724 778.366 102.724 778.648C102.724 779.077 102.585 779.413 102.307 779.655C102.031 779.896 101.646 780.016 101.153 780.016H99.5282ZM99.9385 777.681V779.669H101.169C101.521 779.669 101.799 779.58 102.003 779.402C102.21 779.222 102.314 778.973 102.314 778.655C102.314 778.354 102.215 778.118 102.017 777.944C101.821 777.768 101.55 777.681 101.203 777.681H99.9385ZM99.9385 777.337H101.059C101.402 777.33 101.666 777.25 101.853 777.097C102.042 776.941 102.137 776.716 102.137 776.42C102.137 776.108 102.039 775.879 101.843 775.733C101.65 775.584 101.356 775.509 100.963 775.509H99.9385V777.337ZM105.922 779.559C105.681 779.908 105.298 780.082 104.771 780.082C104.386 780.082 104.094 779.971 103.894 779.749C103.693 779.524 103.591 779.193 103.587 778.755V776.406H103.984V778.705C103.984 779.392 104.262 779.735 104.818 779.735C105.396 779.735 105.762 779.496 105.915 779.018V776.406H106.315V780.016H105.928L105.922 779.559ZM107.952 775.482V776.406H108.699V776.733H107.952V779.138C107.952 779.338 107.988 779.487 108.059 779.585C108.132 779.683 108.253 779.732 108.422 779.732C108.489 779.732 108.597 779.721 108.746 779.699L108.763 780.026C108.658 780.063 108.516 780.082 108.336 780.082C108.062 780.082 107.863 780.003 107.739 779.846C107.614 779.685 107.552 779.451 107.552 779.142V776.733H106.888V776.406H107.552V775.482H107.952ZM110.123 775.482V776.406H110.87V776.733H110.123V779.138C110.123 779.338 110.158 779.487 110.229 779.585C110.303 779.683 110.424 779.732 110.593 779.732C110.66 779.732 110.767 779.721 110.916 779.699L110.933 780.026C110.829 780.063 110.686 780.082 110.506 780.082C110.233 780.082 110.034 780.003 109.909 779.846C109.784 779.685 109.722 779.451 109.722 779.142V776.733H109.058V776.406H109.722V775.482H110.123ZM111.386 778.158C111.386 777.811 111.452 777.498 111.586 777.22C111.721 776.942 111.912 776.727 112.156 776.573C112.403 776.418 112.682 776.34 112.993 776.34C113.474 776.34 113.863 776.509 114.161 776.847C114.459 777.183 114.608 777.628 114.608 778.184V778.268C114.608 778.617 114.54 778.932 114.404 779.212C114.271 779.49 114.082 779.704 113.837 779.856C113.593 780.007 113.314 780.082 113 780.082C112.522 780.082 112.133 779.914 111.833 779.579C111.535 779.241 111.386 778.794 111.386 778.238V778.158ZM111.786 778.268C111.786 778.699 111.897 779.054 112.12 779.332C112.344 779.608 112.638 779.745 113 779.745C113.36 779.745 113.652 779.608 113.874 779.332C114.099 779.054 114.211 778.688 114.211 778.234V778.158C114.211 777.882 114.16 777.63 114.058 777.4C113.955 777.171 113.812 776.995 113.627 776.87C113.443 776.743 113.231 776.68 112.993 776.68C112.638 776.68 112.347 776.82 112.123 777.1C111.898 777.378 111.786 777.743 111.786 778.194V778.268ZM115.791 776.406L115.804 777.024C115.94 776.801 116.109 776.632 116.311 776.517C116.514 776.399 116.737 776.34 116.982 776.34C117.369 776.34 117.657 776.449 117.846 776.667C118.035 776.885 118.13 777.211 118.133 777.647V780.016H117.736V777.644C117.734 777.322 117.665 777.081 117.529 776.923C117.396 776.766 117.181 776.687 116.885 776.687C116.638 776.687 116.419 776.764 116.228 776.92C116.039 777.074 115.899 777.281 115.808 777.544V780.016H115.411V776.406H115.791Z" fill="#131313"/>
<path d="M45.8778 864.933H47.0367V865.492H45.1724V861.975H45.8778V864.933ZM47.3037 864.086C47.3037 863.804 47.3591 863.554 47.47 863.336C47.5842 863.117 47.737 862.949 47.9285 862.832C48.1233 862.714 48.34 862.655 48.5785 862.655C48.7867 862.655 48.9681 862.697 49.1226 862.781C49.2805 862.865 49.4065 862.971 49.5005 863.099V862.701H50.211V865.492H49.5005V865.084C49.4098 865.215 49.2839 865.324 49.1226 865.412C48.9648 865.496 48.7817 865.538 48.5734 865.538C48.3383 865.538 48.1233 865.477 47.9285 865.356C47.737 865.235 47.5842 865.066 47.47 864.847C47.3591 864.626 47.3037 864.372 47.3037 864.086ZM49.5005 864.096C49.5005 863.925 49.4669 863.779 49.3998 863.658C49.3326 863.534 49.2419 863.44 49.1277 863.376C49.0135 863.309 48.8909 863.275 48.7598 863.275C48.6288 863.275 48.5079 863.307 48.3971 863.371C48.2862 863.435 48.1955 863.529 48.125 863.653C48.0578 863.774 48.0242 863.918 48.0242 864.086C48.0242 864.254 48.0578 864.402 48.125 864.53C48.1955 864.654 48.2862 864.75 48.3971 864.817C48.5113 864.884 48.6322 864.918 48.7598 864.918C48.8909 864.918 49.0135 864.886 49.1277 864.822C49.2419 864.755 49.3326 864.661 49.3998 864.54C49.4669 864.416 49.5005 864.268 49.5005 864.096ZM53.5704 862.701L51.8422 866.812H51.0914L51.696 865.422L50.5775 862.701H51.3685L52.0891 864.651L52.8197 862.701H53.5704ZM56.5456 864.036C56.5456 864.137 56.5389 864.227 56.5254 864.308H54.4848C54.5016 864.51 54.5721 864.668 54.6964 864.782C54.8207 864.896 54.9735 864.953 55.1549 864.953C55.4169 864.953 55.6034 864.841 55.7142 864.615H56.475C56.3944 864.884 56.2399 865.106 56.0115 865.281C55.7831 865.452 55.5026 865.538 55.17 865.538C54.9013 865.538 54.6594 865.479 54.4445 865.361C54.2328 865.24 54.0666 865.071 53.9456 864.852C53.8281 864.634 53.7693 864.382 53.7693 864.096C53.7693 863.808 53.8281 863.554 53.9456 863.336C54.0632 863.117 54.2278 862.949 54.4394 862.832C54.6511 862.714 54.8946 862.655 55.17 862.655C55.4354 862.655 55.6722 862.713 55.8805 862.827C56.0921 862.941 56.255 863.104 56.3692 863.315C56.4868 863.524 56.5456 863.764 56.5456 864.036ZM55.815 863.834C55.8116 863.653 55.7461 863.509 55.6185 863.401C55.4908 863.29 55.3346 863.235 55.1499 863.235C54.9752 863.235 54.8274 863.289 54.7065 863.396C54.5889 863.5 54.5167 863.646 54.4898 863.834H55.815ZM57.7659 863.134C57.8566 862.986 57.9741 862.87 58.1186 862.786C58.2664 862.702 58.4343 862.66 58.6225 862.66V863.401H58.436C58.2143 863.401 58.0464 863.453 57.9322 863.557C57.8213 863.661 57.7659 863.843 57.7659 864.102V865.492H57.0605V862.701H57.7659V863.134ZM62.6865 862.429H61.054V863.29C61.1245 863.203 61.2253 863.132 61.3563 863.079C61.4873 863.022 61.6267 862.993 61.7745 862.993C62.0432 862.993 62.2633 863.052 62.4346 863.169C62.6059 863.287 62.7302 863.438 62.8074 863.623C62.8847 863.804 62.9233 863.999 62.9233 864.207C62.9233 864.594 62.8125 864.904 62.5908 865.139C62.3724 865.375 62.06 865.492 61.6536 865.492C61.2707 865.492 60.965 865.396 60.7366 865.205C60.5081 865.014 60.3788 864.763 60.3486 864.454H61.0338C61.0641 864.589 61.1313 864.696 61.2354 864.777C61.3429 864.857 61.4789 864.898 61.6435 864.898C61.8417 864.898 61.9912 864.835 62.092 864.711C62.1927 864.587 62.2431 864.422 62.2431 864.217C62.2431 864.009 62.191 863.851 62.0869 863.744C61.9861 863.633 61.8367 863.578 61.6385 863.578C61.4974 863.578 61.3798 863.613 61.2858 863.683C61.1917 863.754 61.1245 863.848 61.0842 863.965H60.409V861.809H62.6865V862.429Z" fill="white"/>
<defs>
<linearGradient id="paint0_linear_289_97" x1="2.38415" y1="7.95079" x2="104.762" y2="7.95079" gradientUnits="userSpaceOnUse">
<stop stop-color="#4B75F7"/>
<stop offset="0.516301" stop-color="#819EFB"/>
<stop offset="1" stop-color="#4B75F7"/>
</linearGradient>
<linearGradient id="paint1_linear_289_97" x1="10.4218" y1="594.216" x2="95.7407" y2="594.216" gradientUnits="userSpaceOnUse">
<stop stop-color="#2F54BD"/>
<stop offset="0.489583" stop-color="#6682DA"/>
<stop offset="1" stop-color="#2F54BD"/>
</linearGradient>
<linearGradient id="paint2_linear_289_97" x1="20.067" y1="687.087" x2="87.6688" y2="687.087" gradientUnits="userSpaceOnUse">
<stop stop-color="#243F8F"/>
<stop offset="0.529991" stop-color="#6782D1"/>
<stop offset="1" stop-color="#243F8F"/>
</linearGradient>
<linearGradient id="paint3_linear_289_97" x1="29.1491" y1="778.514" x2="78.2675" y2="778.514" gradientUnits="userSpaceOnUse">
<stop stop-color="#192C63"/>
<stop offset="0.479167" stop-color="#374C8B"/>
<stop offset="1" stop-color="#192C63"/>
</linearGradient>
<linearGradient id="paint4_linear_289_97" x1="33.6689" y1="862.159" x2="74.3186" y2="862.159" gradientUnits="userSpaceOnUse">
<stop stop-color="#192C63"/>
<stop offset="0.479167" stop-color="#374C8B"/>
<stop offset="1" stop-color="#192C63"/>
</linearGradient>
</defs>
</svg>
