<svg width="202" height="203" viewBox="0 0 202 203" fill="none" xmlns="http://www.w3.org/2000/svg">
<path d="M1.27246 198.216L2.30346 201.602L12.4638 201.58C12.4638 201.58 9.85775 197.018 1.27246 198.216Z" fill="#221E50"/>
<path d="M24.3857 198.216L25.4167 201.602L35.5771 201.58C35.5771 201.58 32.9656 197.018 24.3857 198.216Z" fill="#221E50"/>
<path d="M10.7764 137.992H24.7873L32.9306 198.629L23.2857 198.675L10.7764 137.992Z" fill="#24285B"/>
<path d="M17.5943 138.278V146.575C17.5943 146.575 16.8626 146.679 16.3852 147.119C16.1911 147.29 16.0575 147.519 16.0043 147.772C15.8057 148.77 15.2127 158.76 15.2127 158.76V158.812C14.1164 169.063 10.9962 198.713 10.9962 198.713C10.9962 198.713 2.15523 199.068 0.39791 198.669C-0.887435 198.376 1.98521 163.377 3.43241 144.921L4.2077 138.44L17.325 138.27L17.5943 138.278Z" fill="#333381"/>
<path d="M32.7354 78.9152L34.2696 76.9184C34.2696 76.9184 33.9173 73.3127 37.7054 72.1021C37.7054 72.1021 39.2927 71.7227 39.0587 72.9182C38.8248 74.1138 38.7499 73.6364 38.4534 75.3203C38.1569 77.0041 36.5016 78.2677 35.793 78.5955L34.7049 80.2998L32.7354 78.9152Z" fill="#E5B0B4"/>
<path d="M17.141 96.734C15.8979 94.3742 15.9019 92.81 15.9019 92.81L9.8275 89.6816C9.94447 94.4871 9.26576 95.8676 9.54595 97.731C9.55411 97.7746 17.1655 96.7816 17.141 96.734Z" fill="#D78587"/>
<path d="M17.1115 92.4633C17.1115 92.4633 10.7052 94.9252 9.23353 90.9114C7.76184 86.8976 5.94467 84.5187 9.97209 82.7723C13.9995 81.0258 15.361 82.2704 16.1785 83.4904C16.9959 84.7105 18.7396 91.7193 17.1115 92.4633Z" fill="#E5B0B4"/>
<path d="M9.33653 91.1897C9.33653 91.1897 8.33409 85.6131 14.1936 83.4872C18.2074 82.0291 14.992 79.0844 14.4072 78.6328C14.4072 78.6328 11.3672 79.8855 8.27424 81.2606C1.78223 84.1455 8.44971 90.5124 9.33653 91.1897Z" fill="#555CA3"/>
<path d="M25.241 137.764C24.9132 138.615 15.4479 138.628 9.3558 138.545C6.45051 138.507 4.32323 138.445 4.32323 138.445C3.61051 138.537 1.53356 136.657 2.92908 128.59C3.84854 123.267 3.54795 114.267 1.49139 107.507C1.36263 107.08 1.22662 106.663 1.08335 106.255C1.06838 106.214 1.05478 106.173 1.03982 106.131C-0.440027 101.959 2.44486 97.9604 6.20841 96.8084C7.2054 96.5024 8.44722 96.0508 9.49182 95.8726C10.1651 96.1446 13.0772 97.396 15.4058 96.6384C16.6408 96.2303 16.6517 95.7325 16.5034 95.4482C22.2623 94.896 26.8814 94.3887 26.8814 94.3887C29.788 109.579 26.7073 133.969 25.241 137.764Z" fill="#AEC0F8"/>
<path d="M4.86314 142.378C8.88784 142.378 10.4683 139.32 10.4683 139.32C10.452 139.349 8.71917 142.232 4.72168 142.162V142.377L4.86314 142.378Z" fill="#221E50"/>
<path d="M0.947047 194.684C2.15183 188.937 3.06251 183.132 3.67552 177.292C3.77753 176.34 3.87546 175.346 3.96795 174.36C4.0686 173.271 4.16381 172.168 4.2495 171.083C4.27943 170.71 4.18286 170.285 4.08901 169.872C4.00332 169.489 3.91355 169.093 3.93667 168.772C4.23046 164.647 4.29982 160.883 4.36239 157.551C4.3769 156.679 4.39368 155.824 4.41272 154.987C4.58546 147.423 4.71332 143.136 4.7174 143.094C4.7174 143.136 4.30935 147.412 4.14069 154.987C4.12165 155.825 4.10668 156.679 4.09036 157.551C4.02915 160.874 3.95435 164.64 3.66464 168.758C3.6388 169.118 3.73401 169.532 3.82514 169.934C3.91627 170.335 4.00604 170.733 3.97884 171.068C3.89315 172.156 3.79793 173.252 3.69728 174.341C3.60479 175.327 3.50686 176.311 3.40485 177.27C2.73973 183.537 1.95221 189.61 0.868164 194.691L0.947047 194.684Z" fill="#2B295E"/>
<path d="M44.4081 77.6154C44.4081 77.6154 40.4052 89.6854 38.2208 92.0466C36.5274 93.8787 30.9644 100.607 27.0254 103.862C25.8869 104.803 24.8831 105.454 24.15 105.614C20.8748 106.321 17.0527 100.497 17.0527 100.497C17.0527 100.497 20.3892 95.5626 30.8814 89.0026C30.8814 89.0026 38.3419 79.5563 41.254 77.0332L43.3282 77.4127L44.4081 77.6154Z" fill="#AEC0F8"/>
<path d="M36.7966 79.3105C36.7966 79.3105 34.5279 84.0465 31.7926 88.803C29.2559 93.2126 26.2582 97.644 25.8488 98.1431C23.9364 100.466 16.3998 107.075 12.9654 109.499C12.1493 110.077 11.5617 110.417 11.3414 110.404C-1.2319 109.698 2.50036 99.4775 2.50036 99.4775C2.50036 99.4775 13.2973 95.4745 19.9566 92.3611C19.9566 92.3611 24.6015 86.7056 26.3371 84.6776C28.0386 82.6918 33.7064 76.3086 33.7064 76.3086L35.5684 78.1149L36.7966 79.3105Z" fill="#AEC0F8"/>
<path opacity="0.2" d="M9.3566 138.545C6.45131 138.507 4.32403 138.446 4.32403 138.446C3.61131 138.537 1.53435 136.657 2.92987 128.59C3.84934 123.268 3.54874 114.268 1.49219 107.508C3.82757 110.636 7.74074 116.297 7.83731 121.259C7.97332 128.218 4.97146 134.359 6.61317 136.132C7.45249 137.018 8.37076 137.826 9.3566 138.545Z" fill="#94A8E5"/>
<path opacity="0.2" d="M36.7951 79.3108C36.7951 79.3108 34.5264 84.0469 31.7911 88.8033C29.2544 93.2129 26.2566 97.6443 25.8472 98.1435C23.9349 100.467 16.3983 107.076 12.9639 109.499C14.626 107.14 19.2097 100.845 23.1487 97.4158C27.3244 93.7815 33.7334 81.6693 35.5642 78.1152L36.7951 79.3108Z" fill="#94A8E5"/>
<path opacity="0.2" d="M44.4094 77.6146C44.4094 77.6146 40.4065 89.6846 38.2221 92.0458C36.5287 93.878 30.9657 100.607 27.0266 103.861C26.8906 102.885 26.8417 102.186 26.9709 102.055C27.4265 101.601 36.8878 91.1386 38.0711 90.0464C39.0994 89.0943 42.4698 79.8126 43.3295 77.416L44.4094 77.6146Z" fill="#94A8E5"/>
<path d="M41.125 77.6283L42.4335 75.4765C42.4335 75.4765 41.6935 71.9293 45.3279 70.3216C45.3279 70.3216 46.8648 69.7775 46.7601 70.984C46.6554 72.1904 46.5316 71.7293 46.4201 73.4322C46.3085 75.1352 44.8015 76.5728 44.1282 76.9686L43.2278 78.7831L41.125 77.6283Z" fill="#E5B0B4"/>
<path d="M105.792 198.216L104.761 201.602L94.6006 201.58C94.6006 201.58 97.2093 197.018 105.792 198.216Z" fill="#221E50"/>
<path d="M82.6832 198.216L81.6521 201.602L71.4932 201.58C71.4932 201.58 74.1006 197.018 82.6832 198.216Z" fill="#221E50"/>
<path d="M96.2915 137.992H82.2806L74.1387 198.629L83.7822 198.675L96.2915 137.992Z" fill="#24285B"/>
<path d="M89.4668 138.278V146.575C89.4668 146.575 90.1986 146.679 90.676 147.119C90.87 147.29 91.0036 147.519 91.0568 147.772C91.2554 148.77 91.8484 158.76 91.8484 158.76V158.812C92.9461 169.063 96.0649 198.713 96.0649 198.713C96.0649 198.713 104.906 199.068 106.663 198.669C107.949 198.376 105.076 163.377 103.63 144.921L102.848 138.44L89.7361 138.27L89.4668 138.278Z" fill="#333381"/>
<path d="M127.251 78.0571L128.566 75.9094C128.566 75.9094 132.058 74.9437 131.831 70.9775C131.831 70.9775 131.616 69.3589 130.587 70.0064C129.559 70.6538 130.028 70.5504 128.562 71.4318C127.096 72.3132 126.51 74.3058 126.461 75.0893L125.26 76.7215L127.251 78.0571Z" fill="#E5B0B4"/>
<path d="M65.94 77.6283L64.6316 75.4765C64.6316 75.4765 65.3715 71.9293 61.7372 70.3216C61.7372 70.3216 60.2002 69.7775 60.3049 70.984C60.4097 72.1904 60.5334 71.7293 60.645 73.4322C60.7565 75.1352 62.2635 76.5728 62.9368 76.9686L63.8372 78.7831L65.94 77.6283Z" fill="#E5B0B4"/>
<path d="M89.9268 96.734C91.17 94.3742 91.1659 92.81 91.1659 92.81L97.2404 89.6816C97.1234 94.4871 97.8021 95.8676 97.5219 97.731C97.5138 97.7746 89.9023 96.7816 89.9268 96.734Z" fill="#D78587"/>
<path d="M89.9557 92.4633C89.9557 92.4633 96.3607 94.9252 97.8324 90.9114C99.3041 86.8976 101.121 84.5187 97.0938 82.7723C93.0664 81.0258 91.7049 82.2704 90.8888 83.4904C90.0727 84.7105 88.3235 91.7193 89.9557 92.4633Z" fill="#E5B0B4"/>
<path d="M97.7331 91.1892C97.7331 91.1892 98.7355 85.6125 92.8759 83.4866C88.8676 82.0312 92.0775 79.0838 92.6624 78.6309C92.6624 78.6309 95.7037 79.8836 98.7953 81.2587C105.287 84.1449 98.6199 90.5118 97.7331 91.1892Z" fill="#555CA3"/>
<path d="M81.8264 137.766C82.1542 138.617 91.6195 138.63 97.7116 138.547C100.617 138.509 102.744 138.447 102.744 138.447C103.458 138.539 105.535 136.659 104.14 128.592C103.219 123.269 103.519 114.269 105.576 107.509C105.705 107.082 105.841 106.665 105.984 106.257C105.999 106.216 106.013 106.175 106.028 106.133C107.507 101.961 104.623 97.9624 100.859 96.8103C99.8607 96.5043 98.6188 96.0527 97.5756 95.8746C96.9023 96.1466 93.9889 97.3979 91.6603 96.6403C90.4253 96.2323 90.3627 95.729 90.511 95.4447C84.7521 94.9007 80.1847 94.3906 80.1847 94.3906C77.2794 109.581 80.3629 133.971 81.8264 137.766Z" fill="#AEC0F8"/>
<path d="M102.205 142.378C98.1801 142.378 96.5996 139.32 96.5996 139.32C96.6159 139.349 98.3488 142.232 102.346 142.162V142.377L102.205 142.378Z" fill="#221E50"/>
<path d="M106.12 194.684C104.916 188.937 104.005 183.132 103.391 177.292C103.289 176.34 103.192 175.346 103.1 174.36C102.998 173.271 102.903 172.168 102.817 171.083C102.788 170.71 102.884 170.285 102.978 169.872C103.079 169.514 103.131 169.144 103.132 168.772C102.837 164.647 102.767 160.883 102.706 157.551C102.69 156.679 102.672 155.824 102.654 154.987C102.482 147.423 102.354 143.136 102.35 143.094C102.35 143.136 102.758 147.412 102.926 154.987C102.945 155.825 102.96 156.679 102.977 157.551C103.038 160.874 103.113 164.64 103.402 168.758C103.428 169.118 103.333 169.532 103.243 169.934C103.153 170.335 103.061 170.733 103.088 171.068C103.174 172.156 103.269 173.252 103.37 174.341C103.462 175.327 103.56 176.311 103.662 177.27C104.327 183.537 105.115 189.61 106.199 194.691L106.12 194.684Z" fill="#2B295E"/>
<path d="M62.6602 77.6154C62.6602 77.6154 66.6645 89.6854 68.8475 92.0466C70.5409 93.8787 76.1053 100.607 80.0429 103.862C81.1814 104.803 82.1852 105.454 82.9183 105.614C86.1935 106.321 90.0156 100.497 90.0156 100.497C90.0156 100.497 86.6791 95.5626 76.1869 89.0026C76.1869 89.0026 68.7265 79.5563 65.8157 77.0332L63.7401 77.4127L62.6602 77.6154Z" fill="#AEC0F8"/>
<path d="M128.774 77.4921C128.774 77.4921 126.505 82.2282 123.77 86.9846C121.235 91.3942 118.236 95.8256 117.828 96.3248C115.914 98.6493 108.379 105.257 104.944 107.681C104.128 108.259 103.539 108.599 103.312 108.587C90.7388 107.879 94.4711 97.6591 94.4711 97.6591C94.4711 97.6591 105.268 93.6562 111.927 90.5428C111.927 90.5428 116.572 84.8873 118.308 82.8606C120.009 80.8734 125.677 74.4902 125.677 74.4902L127.539 76.2965L128.774 77.4921Z" fill="#AEC0F8"/>
<path opacity="0.2" d="M97.707 138.545C100.612 138.507 102.74 138.446 102.74 138.446C103.454 138.537 105.531 136.657 104.135 128.59C103.214 123.268 103.515 114.268 105.571 107.508C103.236 110.636 99.3229 116.297 99.2263 121.259C99.0903 128.218 102.092 134.359 100.45 136.132C99.6115 137.018 98.6932 137.826 97.707 138.545Z" fill="#2D4898"/>
<path opacity="0.2" d="M128.775 77.4905C128.775 77.4905 126.506 82.2266 123.771 86.983C121.236 91.3926 118.237 95.824 117.829 96.3232C115.915 98.6477 108.38 105.255 104.945 107.679C106.607 105.319 111.19 99.0244 115.129 95.5955C119.304 91.9612 125.714 79.849 127.544 76.2949L128.775 77.4905Z" fill="#2D4898"/>
<path opacity="0.2" d="M62.6602 77.6146C62.6602 77.6146 66.6645 89.6846 68.8475 92.0458C70.5409 93.878 76.1053 100.607 80.0429 103.861C80.1789 102.885 80.2293 102.186 80.0987 102.055C79.6444 101.601 70.1818 91.1386 68.9998 90.0464C67.9702 89.0943 64.5997 79.8126 63.7401 77.416L62.6602 77.6146Z" fill="#2D4898"/>
<path d="M89.8298 89.5977C89.8298 89.5977 89.7156 90.1635 90.9819 90.645C90.9819 90.645 92.0442 91.053 92.2659 90.4709C92.2672 90.4654 91.4511 89.614 89.8298 89.5977Z" fill="white"/>
<path d="M140.353 91.961L138.547 89.5794C138.547 89.5794 135.482 90.2078 134.103 87.0658C134.103 87.0658 133.634 85.7383 134.678 85.8308C135.723 85.9233 135.323 86.0307 136.795 86.1327C138.267 86.2348 139.625 86.9652 140.042 87.939L142.036 90.3465L140.353 91.961Z" fill="#E5B0B4"/>
<path d="M148.972 90.5921L147.046 88.1439C147.046 88.1439 143.933 87.8433 143.54 84.4347C143.54 84.4347 143.483 83.027 144.454 83.4241C145.425 83.8213 145.01 83.8036 146.388 84.3341C147.766 84.8645 148.847 85.9663 148.957 87.0177L151.278 89.3422L148.972 90.5921Z" fill="#E5B0B4"/>
<path d="M169.208 191.896L167.502 200.056L164.931 199.675L163.793 192.132L169.208 191.896Z" fill="#E5B0B4"/>
<path d="M168.451 199.629L167.465 202.894H157.679C157.679 202.894 160.181 198.491 168.451 199.629Z" fill="#D25C2A"/>
<path d="M158.915 136.324C158.915 136.324 159.126 160.781 159.794 168.934C160.308 175.191 163.639 193.991 163.639 193.991H170.377C170.377 193.991 176.486 147.174 173.42 138.407L158.915 136.324Z" fill="#24285B"/>
<path d="M161.806 92.3603C161.806 92.3603 162.047 84.4061 169.683 85.3841C177.319 86.362 177.957 96.3728 176.42 99.7133C174.883 103.054 179.5 103.114 180.847 106.065C182.194 109.017 180.013 112.355 180.013 113.188C180.013 114.022 179.079 122.573 174.011 122.437C168.943 122.301 160.423 122.057 160.827 113.118C161.034 108.537 157.897 106.826 159.902 105.136C163.381 102.208 161.806 92.3603 161.806 92.3603Z" fill="#333381"/>
<path d="M177.241 105.308C175.692 104.911 174.123 104.598 172.54 104.371C172.54 104.371 171.895 104.244 171.588 97.4707L165.906 99.2008C165.906 99.2008 166.335 101.702 165.498 104.014C163.99 104.091 163.111 104.247 163 104.247C163 104.247 158.141 114.75 158.919 119.561C159.697 124.372 159.463 137.967 159.463 137.967L176.366 137.757C175.883 135.202 175.164 132.698 174.216 130.276C172.651 126.321 177.241 105.308 177.241 105.308Z" fill="#D78587"/>
<path d="M193.406 180.881L199.705 186.341L198.121 188.401L190.977 185.727L193.406 180.881Z" fill="#E5B0B4"/>
<path d="M199.028 184.518L201.691 186.645L198.057 195.731C198.057 195.731 194.901 191.771 199.028 184.518Z" fill="#D25C2A"/>
<path d="M176.912 169.816C174.464 168.986 180.867 144.619 176.315 137.967H160.994L161.629 144.724C161.629 144.724 162.989 145.166 163.164 147.839C163.778 158.022 165.398 172.698 168.086 176.465C171.078 180.661 193.28 187.029 193.28 187.029L197.649 183.765C197.649 183.765 185.82 172.836 176.912 169.816Z" fill="#555CA3"/>
<path d="M179.725 106.278C178.528 104.918 173.205 104.473 173.205 104.473C172.984 104.819 172.288 105.317 171.386 105.862C168.071 104.608 164.539 103.373 162.708 103.056C162.708 103.056 158.1 95.5345 149.73 87.4688L147.668 89.4097C147.668 89.4097 148.348 90.5685 149.36 92.3068C151.48 95.9235 155.097 102.043 157.249 105.397C155.935 104.973 154.79 104.652 153.984 104.511C153.984 104.511 149.375 96.9898 141.006 88.9241L139.451 90.3876L138.942 90.8651C138.942 90.8651 148.991 108.177 150.164 109.182C151.24 110.104 155.094 112.073 158.632 113.788C158.505 114.864 158.444 115.947 158.45 117.03C158.569 121.017 159.641 128.165 159.048 131.61C158.696 133.665 158.488 136.3 158.61 137.509C158.65 137.895 158.738 138.164 159.74 138.25C161.18 138.375 164.736 138.816 168.037 138.816C169.837 138.799 171.633 138.663 173.414 138.408C174.997 138.19 176.119 137.969 176.314 137.969C176.45 137.969 176.534 137.82 176.566 137.561C176.734 136.104 175.371 131.126 174.463 128.484C173.647 126.123 175.778 119.933 176.859 117.07C177.204 116.153 177.443 115.574 177.443 115.574L177.471 115.507C177.805 114.741 180.86 107.569 179.725 106.278Z" fill="#88A3FA"/>
<path opacity="0.2" d="M158.628 113.788C155.091 112.073 151.234 110.104 150.157 109.181C148.984 108.176 138.936 90.8641 138.936 90.8641L139.444 90.3867C141.271 93.209 149.509 105.933 150.368 107.117C151.339 108.45 158.801 111.968 159.162 112.635C159.375 113.028 158.987 113.481 158.628 113.788Z" fill="#053B8C"/>
<path opacity="0.2" d="M164.271 107.795C161.279 106.643 158.743 105.495 158.252 104.511C157.371 102.743 152.617 96.5054 149.362 92.3066C152.278 97.2794 158.021 106.981 158.883 107.725C160.516 109.12 168.462 112.894 172.1 114.587C170.952 113.06 168.26 109.926 164.271 107.795Z" fill="#053B8C"/>
<path opacity="0.2" d="M176.663 117.596C174.487 120.396 170.6 125.94 171.105 129.406C171.535 131.99 174.356 137.333 176.567 137.557C176.735 136.101 175.372 131.122 174.464 128.481C173.698 126.257 175.542 120.633 176.663 117.596Z" fill="#053B8C"/>
<path d="M164.803 100.647C164.803 100.647 171.739 100.964 171.863 96.6451C171.987 92.3266 172.977 89.458 168.558 89.0731C164.139 88.6882 163.229 90.3108 162.834 91.7417C162.44 93.1726 163.003 100.453 164.803 100.647Z" fill="#E5B0B4"/>
<path d="M172.924 88.6948C171.956 86.6818 168.893 85.0088 168.694 85.2945C168.694 85.2945 165.18 84.6375 162.366 88.7438C161.154 90.512 161.794 93.4839 162.808 95.1012C162.808 95.1012 163.454 91.1649 165.478 89.9924C165.872 89.7532 166.229 89.4566 166.536 89.1124C166.842 89.7354 167.51 90.7011 168.96 91.8667C171.544 93.9437 171.68 98.3329 171.68 98.3329C171.68 98.3329 174.237 91.422 172.924 88.6948Z" fill="#333381"/>
<path d="M164.121 97.9673C164.121 97.9673 164.19 98.5386 165.397 98.5753C165.397 98.5753 166.409 98.6066 166.425 97.9877C166.425 97.9877 165.484 97.4491 164.121 97.9673Z" fill="white"/>
<path d="M66.7061 10.3217C66.7183 10.2877 66.8924 9.80895 67.1005 9.16016C67.0283 9.56501 66.8953 9.95663 66.7061 10.3217Z" fill="#D25C2A"/>
<path d="M44.284 27.9933C36.2197 27.7063 38.1729 20.775 38.1729 20.775C35.5967 12.5501 48.5957 7.5815 48.5957 7.5815C56.8247 4.44363 57.1946 0 57.1946 0L57.9414 0.417568C58.4296 2.21841 58.8663 5.29372 56.7662 6.77629C57.1525 6.51106 59.5953 4.66941 59.1614 1.10717C61.7457 2.58021 64.1001 3.99613 65.7854 5.02713C65.9214 5.64872 66.105 6.7042 65.9214 7.2401C66.1417 6.65409 66.3186 6.05263 66.4505 5.44062C66.8218 5.66776 67.1455 5.87042 67.4189 6.04044C67.3958 6.72052 67.3223 8.08068 67.0938 9.15384C67.374 8.27654 67.7141 7.0864 67.7889 6.27031L68.39 6.65115C68.4853 16.3613 52.3484 28.2817 44.284 27.9933Z" fill="#053B8C"/>
<path d="M82.9961 0.409858C80.3574 1.22595 80.5791 3.73271 80.5791 3.73271C76.9394 7.4813 70.2257 15.8381 70.2257 15.8381C64.5484 18.489 55.3184 23.999 55.3184 23.999L62.1096 26.7193C62.1096 26.7193 71.2566 20.8394 74.1266 18.4033C77.3202 15.6925 82.2453 4.84396 82.2453 4.84396C82.8452 4.41823 83.3335 3.58854 83.498 2.66771C83.7143 1.49798 83.7619 1.8285 83.9333 1.00153C84.1047 0.174552 82.9961 0.409858 82.9961 0.409858Z" fill="#E5B0B4"/>
<path d="M124.897 20.4151L134.565 20.056L134.344 17.4663L126.886 15.8613L124.897 20.4151Z" fill="#E5B0B4"/>
<path d="M132.44 20.6654L135.797 21.2489L140.192 12.5059C140.192 12.5059 135.136 12.767 132.44 20.6654Z" fill="#D25C2A"/>
<path d="M101.428 10.1602C101.428 10.1602 98.8441 11.7352 90.4207 21.2277C88.1085 23.8365 81.7715 32.0328 81.7715 32.0328L93.7408 36.033C93.7408 36.033 105.274 27.9523 107.342 19.5112C107.342 19.5112 115.756 22.6981 129.799 21.3501L130.314 15.7939C130.314 15.7939 119.461 13.1185 115.728 12.3935C112.24 11.7107 101.428 10.1602 101.428 10.1602Z" fill="#6B7BCB"/>
<path d="M120.448 50.0326L126.391 55.8785L128.319 54.1361L125.085 47.2266L120.448 50.0326Z" fill="#E5B0B4"/>
<path d="M124.62 54.5554L126.186 57.5818L135.806 55.7918C135.806 55.7918 132.54 51.9249 124.62 54.5554Z" fill="#D25C2A"/>
<path d="M127.095 50.2542L124.443 51.3274L121.761 52.4155C121.761 52.4155 109.596 43.8942 107.276 37.2185C107.276 37.2185 92.0142 47.0266 82.1572 42.7571C81.5273 42.4886 80.9185 42.173 80.3359 41.8131C73.6018 37.5966 81.7722 32.0377 81.7722 32.0377C81.7722 32.0377 107.623 25.7334 110.287 26.3332C112.95 26.933 126.036 48.3378 127.095 50.2542Z" fill="#88A3FA"/>
<path opacity="0.5" d="M124.443 51.3276L121.761 52.4157C121.761 52.4157 109.596 43.8943 107.277 37.2187C107.277 37.2187 92.0147 47.0268 82.1576 42.7572C81.5277 42.4887 80.9189 42.1732 80.3364 41.8133L79.7393 38.1926L83.934 37.0174C83.934 37.0174 102.296 37.3737 106.851 34.3719C106.851 34.3719 108.483 33.5558 109.672 35.5552C110.785 37.4363 120.778 49.4097 124.443 51.3276Z" fill="#4E549C"/>
<path d="M50.4189 22.3203C50.4189 22.3203 53.2344 26.2838 57.1313 25.6595L50.2163 31.1001C50.2163 31.1001 49.9238 30.1385 45.2422 25.2351L50.4189 22.3203Z" fill="#D78587"/>
<path d="M52.2265 22.5178C52.2265 22.5178 47.6659 27.7435 44.4545 24.8531C41.2432 21.9628 38.4916 20.6897 41.2691 17.2363C44.0465 13.7829 45.846 14.2439 47.1531 14.9444C48.4602 15.6449 53.3309 21.0828 52.2265 22.5178Z" fill="#E5B0B4"/>
<path d="M45.3324 12.0984C44.4224 12.9498 43.4962 12.6574 41.796 13.8054C38.5167 16.0265 39.2919 23.2407 43.6091 24.5424C43.6091 24.5424 43.6553 21.7432 42.691 19.8744C41.7266 18.0055 42.4393 17.592 42.4393 17.592C42.4393 17.592 46.6164 17.2941 50.0562 14.6636C53.496 12.0331 56.2571 12.501 56.2571 12.501C56.2571 12.501 47.5603 10.0132 45.3324 12.0984Z" fill="#053B8C"/>
<path d="M48.5264 21.6155C48.5264 21.6155 48.9616 21.995 50.0062 21.134C50.0062 21.134 50.8835 20.4104 50.4904 19.9316C50.4904 19.9316 49.3397 20.2214 48.5264 21.6155Z" fill="white"/>
<path d="M83.9318 37.0096C83.7142 38.9383 83.2028 40.9744 82.1554 42.7494C82.1554 42.7494 69.3428 42.759 65.7901 42.3291C63.9824 42.1115 59.1253 41.0397 54.9007 39.2688C51.6649 37.9086 48.8045 36.1404 47.9911 34.0349C47.9911 34.0349 46.6309 31.6751 48.8072 29.1574C48.8072 29.1574 59.0369 27.513 53.5786 25.0253C53.5786 25.0253 55.1101 23.1564 56.0486 22.9334C56.9871 22.7103 61.0907 20.6211 61.0907 20.6211C61.0907 20.6211 62.7229 22.917 64.0912 24.0745C64.4612 24.3874 64.8529 24.6363 65.1453 24.7165C65.1453 24.7165 62.289 26.6901 62.4563 26.8438C62.4665 26.8545 62.4799 26.8616 62.4944 26.8642C62.5507 26.8745 62.6088 26.8684 62.6617 26.8465C62.9941 26.7361 63.3424 26.6809 63.6927 26.6833C64.4751 26.6706 65.2558 26.7584 66.0159 26.9444C69.2217 27.6476 73.3022 30.7665 74.0312 30.795C78.2668 30.9596 83.6122 29.6852 83.6122 29.6852C84.0756 32.098 84.1833 34.5656 83.9318 37.0096Z" fill="#555CA3"/>
<path opacity="0.2" d="M63.7733 28.2258C63.7733 28.2258 58.9054 28.0898 57.0406 28.5904C55.1758 29.0909 50.7635 29.7723 50.6723 30.9557C50.5812 32.139 63.7733 28.2258 63.7733 28.2258Z" fill="#333381"/>
<path opacity="0.2" d="M83.9337 37.0109C83.7161 38.9396 83.2047 40.9758 82.1574 42.7508C82.1574 42.7508 69.3447 42.7603 65.792 42.3305C63.9844 42.1129 59.1273 41.0411 54.9026 39.2701C53.8431 38.401 52.3415 36.9905 53.2038 36.5798C54.4783 35.9731 56.1159 36.5186 57.8746 37.3074C59.6332 38.0963 65.8192 41.2519 69.459 40.9459C72.3874 40.7051 80.4953 37.6352 83.9337 37.0109Z" fill="#333381"/>
<path opacity="0.2" d="M62.4589 26.8474C62.4691 26.8581 62.4824 26.8652 62.497 26.8678C61.7421 26.9399 60.9287 26.9276 60.6784 26.5876C60.3234 26.1048 62.6874 24.799 64.0938 24.0781C64.4637 24.391 64.8555 24.6399 65.1479 24.7201C65.1479 24.7201 62.2916 26.6937 62.4589 26.8474Z" fill="#333381"/>
<path d="M82.977 15.2838C80.3546 16.1489 80.6253 18.6516 80.6253 18.6516L80.1261 18.9304C76.3367 20.7748 66.8891 27.3552 66.8891 27.3552C61.2472 28.1835 49.184 31.3731 49.184 31.3731C49.184 31.3731 46.699 34.4688 53.4005 37.1755C54.815 37.7468 67.2836 32.128 69.6094 31.1133C71.5803 30.2537 78.9142 22.8341 81.1163 20.5803L81.8263 19.975C82.6424 19.7152 83.3225 18.6842 83.5211 17.5118C83.7197 16.3393 83.7686 16.6685 83.9291 15.8388C84.0896 15.0091 82.977 15.2838 82.977 15.2838Z" fill="#E5B0B4"/>
<path d="M48.9368 30.8282L55.3867 29.7891C55.3867 29.7891 55.962 35.9927 56.6748 36.4633C56.6748 36.4633 54.5788 37.4155 53.9109 37.3964C53.2431 37.3774 46.0424 34.6285 48.9368 30.8282Z" fill="#555CA3"/>
<path d="M48.1719 55.3823C48.1719 55.3823 50.4352 55.872 51.8606 54.1133L53.014 55.9631C53.014 55.9631 50.4297 57.6918 48.3433 56.903L48.1719 55.3823Z" fill="#F0D170"/>
<path d="M141.859 67.2372C141.859 67.2372 143.648 65.7655 143.153 63.5566L145.313 63.8056C145.313 63.8056 145.069 66.8985 143.152 68.0506L141.859 67.2372Z" fill="#F0D170"/>
<path d="M141.812 43.0302C141.812 43.0302 143.6 41.5585 143.106 39.3496L145.272 39.5944C145.272 39.5944 145.027 42.6888 143.11 43.8395L141.812 43.0302Z" fill="#D25C2A"/>
<path d="M77.0328 63.5781C77.0328 63.5781 77.7822 65.7693 80.0251 66.0822L79.0308 68.0217C79.0308 68.0217 76.2208 66.7065 75.8154 64.5071L77.0328 63.5781Z" fill="#D25C2A"/>
<path d="M53.6019 98.3809C53.6019 98.3809 54.3514 100.572 56.5943 100.885L55.6054 102.827C55.6054 102.827 52.794 101.512 52.3887 99.3126L53.6019 98.3809Z" fill="#D25C2A"/>
<path d="M22.5541 67.6289C22.5541 67.6289 23.3035 69.8201 25.5464 70.133L24.5576 72.0752C24.5576 72.0752 21.7461 70.76 21.3408 68.5606L22.5541 67.6289Z" fill="#D25C2A"/>
<path d="M163.233 19.4766C163.233 19.4766 163.982 21.6678 166.225 21.9806L165.236 23.9229C165.236 23.9229 162.425 22.6076 162.02 20.4083L163.233 19.4766Z" fill="#555CA3"/>
<path d="M21.5036 40.3594C21.5036 40.3594 23.4255 41.6529 25.4004 40.5471L25.7867 42.692C25.7867 42.692 22.7522 43.3422 21.0996 41.8351L21.5036 40.3594Z" fill="#555CA3"/>
<path d="M114.438 117.365C114.438 117.365 116.702 117.854 118.126 116.096L119.28 117.946C119.28 117.946 116.702 119.674 114.609 118.885L114.438 117.365Z" fill="#F0D170"/>
<path d="M89.9994 55.3594C89.9994 55.3594 90.7488 57.5506 92.9917 57.8634L92.0029 59.8044C92.0029 59.8044 89.1915 58.4905 88.7861 56.2911L89.9994 55.3594Z" fill="#D25C2A"/>
<path d="M98.2526 68.9609C98.2526 68.9609 100.174 70.2544 102.151 69.1486L102.536 71.2936C102.536 71.2936 99.5012 71.9451 97.8486 70.4367L98.2526 68.9609Z" fill="#555CA3"/>
<path d="M160.774 57.582C160.774 57.582 162.696 58.8755 164.671 57.7697L165.057 59.9147C165.057 59.9147 162.023 60.5648 160.37 59.0578L160.774 57.582Z" fill="#555CA3"/>
<path d="M14.0947 0.871107C14.0947 0.871107 22.0897 4.27149 21.5429 9.39519C20.9961 14.5189 24.3299 16.0015 26.5129 16.9563C28.696 17.9111 28.8334 22.1426 28.8334 22.1426H29.61C29.61 22.1426 29.372 17.3262 26.2096 15.8546C21.853 13.8225 22.2434 10.7581 22.2434 10.7581C22.2434 10.7581 22.9085 4.84004 17.9494 2.24758L14.0947 0.382812V0.871107Z" fill="#D25C2A"/>
<path d="M168.494 34.6854C168.494 34.6854 160.499 38.0858 161.046 43.2081C161.592 48.3305 158.259 49.8157 156.076 50.7706C153.893 51.7254 153.755 55.9555 153.755 55.9555H152.979C152.979 55.9555 153.215 51.1392 156.379 49.6675C160.74 47.6354 160.349 44.5764 160.349 44.5764C160.349 44.5764 159.684 38.6598 164.643 36.0659L168.498 34.2012L168.494 34.6854Z" fill="#F0D170"/>
</svg>
