<svg width="391" height="2110" viewBox="0 0 391 2110" fill="none" xmlns="http://www.w3.org/2000/svg">
<rect opacity="0.1" x="44.9814" y="26.3438" width="169.849" height="1403.71" fill="#4B75F7"/>
<path opacity="0.08" d="M62.5264 1452.89H199.388L183.947 1657.83H77.2653L62.5264 1452.89Z" fill="#4B75F7"/>
<path opacity="0.09" d="M91.3022 1686.63H169.91L165.699 1878.24H95.5134L91.3022 1686.63Z" fill="#4B75F7"/>
<path opacity="0.09" d="M103.938 1903.49H158.682V2086.68H103.938V1903.49Z" fill="#4B75F7"/>
<path d="M254.929 1670.77C254.801 1671.95 254.377 1672.86 253.658 1673.48C252.943 1674.11 251.99 1674.42 250.798 1674.42C249.966 1674.42 249.229 1674.22 248.586 1673.8C247.949 1673.38 247.456 1672.79 247.107 1672.03C246.757 1671.27 246.58 1670.4 246.575 1669.41V1667.96C246.575 1666.96 246.75 1666.08 247.099 1665.31C247.448 1664.54 247.949 1663.94 248.602 1663.53C249.26 1663.1 250.015 1662.89 250.868 1662.89C252.07 1662.89 253.018 1663.22 253.712 1663.87C254.41 1664.52 254.816 1665.42 254.929 1666.56H253.974C253.737 1664.66 252.702 1663.7 250.868 1663.7C249.85 1663.7 249.039 1664.08 248.432 1664.84C247.831 1665.6 247.531 1666.66 247.531 1668V1669.37C247.531 1670.66 247.824 1671.7 248.409 1672.47C249 1673.24 249.796 1673.62 250.798 1673.62C251.79 1673.62 252.538 1673.39 253.041 1672.91C253.545 1672.44 253.855 1671.72 253.974 1670.77H254.929ZM257.991 1674.27H257.066V1662.43H257.991V1674.27ZM261.477 1674.27H260.552V1665.93H261.477V1674.27ZM260.39 1663.52C260.39 1663.34 260.447 1663.2 260.56 1663.08C260.673 1662.96 260.827 1662.89 261.022 1662.89C261.217 1662.89 261.371 1662.96 261.485 1663.08C261.603 1663.2 261.662 1663.34 261.662 1663.52C261.662 1663.69 261.603 1663.84 261.485 1663.96C261.371 1664.08 261.217 1664.14 261.022 1664.14C260.827 1664.14 260.673 1664.08 260.56 1663.96C260.447 1663.84 260.39 1663.69 260.39 1663.52ZM267.013 1673.65C267.655 1673.65 268.192 1673.47 268.623 1673.11C269.06 1672.74 269.296 1672.27 269.332 1671.7H270.219C270.193 1672.2 270.034 1672.67 269.741 1673.09C269.448 1673.51 269.057 1673.83 268.569 1674.07C268.086 1674.31 267.567 1674.42 267.013 1674.42C265.918 1674.42 265.05 1674.04 264.408 1673.28C263.771 1672.52 263.452 1671.5 263.452 1670.22V1669.94C263.452 1669.12 263.596 1668.39 263.884 1667.76C264.171 1667.13 264.582 1666.64 265.117 1666.29C265.656 1665.95 266.286 1665.78 267.005 1665.78C267.919 1665.78 268.672 1666.05 269.263 1666.59C269.859 1667.14 270.177 1667.85 270.219 1668.74H269.332C269.291 1668.09 269.055 1667.56 268.623 1667.16C268.197 1666.76 267.657 1666.56 267.005 1666.56C266.173 1666.56 265.525 1666.86 265.063 1667.46C264.605 1668.07 264.377 1668.91 264.377 1669.99V1670.26C264.377 1671.33 264.605 1672.16 265.063 1672.75C265.525 1673.35 266.175 1673.65 267.013 1673.65ZM273.989 1670.07L272.934 1671.09V1674.27H272.009V1662.43H272.934V1670.01L273.805 1669.07L276.995 1665.93H278.159L274.621 1669.45L278.467 1674.27H277.365L273.989 1670.07ZM283.681 1674.27V1663.05H286.995C288.198 1663.05 289.11 1663.3 289.731 1663.8C290.353 1664.29 290.664 1665.02 290.664 1665.98C290.664 1666.57 290.505 1667.07 290.186 1667.5C289.873 1667.93 289.441 1668.24 288.891 1668.42C289.544 1668.56 290.068 1668.89 290.463 1669.38C290.864 1669.88 291.065 1670.46 291.065 1671.11C291.065 1672.1 290.743 1672.88 290.101 1673.44C289.464 1673.99 288.575 1674.27 287.435 1674.27H283.681ZM284.629 1668.87V1673.47H287.473C288.285 1673.47 288.927 1673.26 289.4 1672.85C289.878 1672.44 290.117 1671.86 290.117 1671.13C290.117 1670.43 289.888 1669.88 289.431 1669.48C288.979 1669.08 288.352 1668.87 287.55 1668.87H284.629ZM284.629 1668.08H287.219C288.01 1668.07 288.622 1667.88 289.053 1667.53C289.49 1667.17 289.708 1666.64 289.708 1665.96C289.708 1665.24 289.482 1664.71 289.03 1664.37C288.583 1664.03 287.905 1663.86 286.995 1663.86H284.629V1668.08ZM298.45 1673.21C297.895 1674.02 297.009 1674.42 295.791 1674.42C294.902 1674.42 294.227 1674.17 293.764 1673.65C293.302 1673.13 293.065 1672.37 293.055 1671.36V1665.93H293.972V1671.24C293.972 1672.83 294.615 1673.62 295.899 1673.62C297.235 1673.62 298.08 1673.07 298.435 1671.97V1665.93H299.359V1674.27H298.465L298.45 1673.21ZM303.138 1663.8V1665.93H304.864V1666.69H303.138V1672.24C303.138 1672.71 303.22 1673.05 303.385 1673.28C303.554 1673.5 303.834 1673.61 304.225 1673.61C304.379 1673.61 304.628 1673.59 304.972 1673.54L305.011 1674.29C304.769 1674.38 304.44 1674.42 304.024 1674.42C303.392 1674.42 302.932 1674.24 302.645 1673.88C302.357 1673.51 302.213 1672.96 302.213 1672.25V1666.69H300.68V1665.93H302.213V1663.8H303.138ZM308.15 1663.8V1665.93H309.876V1666.69H308.15V1672.24C308.15 1672.71 308.232 1673.05 308.396 1673.28C308.566 1673.5 308.846 1673.61 309.236 1673.61C309.39 1673.61 309.64 1673.59 309.984 1673.54L310.022 1674.29C309.781 1674.38 309.452 1674.42 309.036 1674.42C308.404 1674.42 307.944 1674.24 307.656 1673.88C307.369 1673.51 307.225 1672.96 307.225 1672.25V1666.69H305.691V1665.93H307.225V1663.8H308.15ZM311.065 1669.98C311.065 1669.18 311.219 1668.45 311.528 1667.81C311.841 1667.17 312.28 1666.67 312.845 1666.32C313.416 1665.96 314.06 1665.78 314.78 1665.78C315.89 1665.78 316.789 1666.17 317.477 1666.95C318.166 1667.72 318.51 1668.75 318.51 1670.04V1670.23C318.51 1671.04 318.353 1671.76 318.04 1672.41C317.731 1673.05 317.295 1673.55 316.73 1673.9C316.164 1674.25 315.52 1674.42 314.795 1674.42C313.691 1674.42 312.791 1674.04 312.098 1673.26C311.409 1672.48 311.065 1671.45 311.065 1670.16V1669.98ZM311.99 1670.23C311.99 1671.23 312.247 1672.05 312.761 1672.69C313.28 1673.33 313.958 1673.65 314.795 1673.65C315.628 1673.65 316.301 1673.33 316.814 1672.69C317.333 1672.05 317.593 1671.2 317.593 1670.15V1669.98C317.593 1669.34 317.475 1668.76 317.238 1668.23C317.002 1667.7 316.671 1667.29 316.244 1667C315.818 1666.71 315.33 1666.56 314.78 1666.56C313.958 1666.56 313.287 1666.89 312.768 1667.53C312.249 1668.18 311.99 1669.02 311.99 1670.06V1670.23ZM321.24 1665.93L321.271 1667.36C321.585 1666.84 321.975 1666.45 322.443 1666.19C322.91 1665.91 323.427 1665.78 323.992 1665.78C324.886 1665.78 325.551 1666.03 325.988 1666.53C326.424 1667.04 326.645 1667.79 326.651 1668.8V1674.27H325.733V1668.79C325.728 1668.05 325.569 1667.49 325.256 1667.13C324.947 1666.76 324.452 1666.58 323.768 1666.58C323.198 1666.58 322.692 1666.76 322.25 1667.12C321.813 1667.47 321.49 1667.95 321.279 1668.56V1674.27H320.362V1665.93H321.24Z" fill="#131313"/>
<path d="M209.063 2102.12C208.968 2102.98 208.658 2103.65 208.13 2104.11C207.606 2104.57 206.907 2104.8 206.033 2104.8C205.423 2104.8 204.882 2104.64 204.411 2104.34C203.944 2104.03 203.582 2103.6 203.326 2103.04C203.07 2102.48 202.94 2101.84 202.936 2101.12V2100.05C202.936 2099.32 203.064 2098.68 203.32 2098.11C203.577 2097.55 203.944 2097.11 204.423 2096.81C204.905 2096.5 205.459 2096.34 206.084 2096.34C206.966 2096.34 207.661 2096.58 208.17 2097.06C208.682 2097.53 208.98 2098.19 209.063 2099.03H208.362C208.188 2097.63 207.429 2096.94 206.084 2096.94C205.338 2096.94 204.743 2097.21 204.298 2097.77C203.857 2098.33 203.637 2099.1 203.637 2100.08V2101.09C203.637 2102.04 203.852 2102.8 204.281 2103.36C204.715 2103.93 205.299 2104.21 206.033 2104.21C206.76 2104.21 207.309 2104.04 207.678 2103.69C208.047 2103.34 208.275 2102.81 208.362 2102.12H209.063ZM211.292 2104.68H210.614V2096H211.292V2104.68ZM213.832 2104.68H213.154V2098.57H213.832V2104.68ZM213.036 2096.8C213.036 2096.67 213.077 2096.56 213.16 2096.48C213.243 2096.39 213.356 2096.34 213.499 2096.34C213.642 2096.34 213.755 2096.39 213.838 2096.48C213.925 2096.56 213.968 2096.67 213.968 2096.8C213.968 2096.93 213.925 2097.04 213.838 2097.12C213.755 2097.21 213.642 2097.25 213.499 2097.25C213.356 2097.25 213.243 2097.21 213.16 2097.12C213.077 2097.04 213.036 2096.93 213.036 2096.8ZM217.876 2104.23C218.347 2104.23 218.741 2104.09 219.057 2103.83C219.378 2103.56 219.551 2103.22 219.577 2102.8H220.227C220.208 2103.17 220.092 2103.51 219.877 2103.82C219.662 2104.12 219.376 2104.36 219.018 2104.54C218.664 2104.71 218.283 2104.8 217.876 2104.8C217.074 2104.8 216.437 2104.52 215.966 2103.96C215.499 2103.4 215.265 2102.65 215.265 2101.71V2101.51C215.265 2100.9 215.371 2100.37 215.582 2099.91C215.793 2099.44 216.094 2099.09 216.486 2098.83C216.882 2098.58 217.343 2098.46 217.871 2098.46C218.541 2098.46 219.093 2098.66 219.526 2099.05C219.964 2099.45 220.197 2099.98 220.227 2100.63H219.577C219.547 2100.15 219.374 2099.77 219.057 2099.47C218.745 2099.18 218.349 2099.03 217.871 2099.03C217.26 2099.03 216.785 2099.25 216.446 2099.69C216.111 2100.13 215.943 2100.75 215.943 2101.55V2101.74C215.943 2102.52 216.111 2103.13 216.446 2103.57C216.785 2104.01 217.262 2104.23 217.876 2104.23ZM222.977 2101.6L222.202 2102.35V2104.68H221.524V2096H222.202V2101.56L222.841 2100.87L225.181 2098.57H226.034L223.44 2101.15L226.26 2104.68H225.452L222.977 2101.6ZM230.053 2104.68V2096.45H232.483C233.364 2096.45 234.033 2096.64 234.489 2097C234.945 2097.36 235.173 2097.9 235.173 2098.61C235.173 2099.03 235.056 2099.4 234.823 2099.72C234.593 2100.03 234.276 2100.26 233.873 2100.39C234.352 2100.5 234.736 2100.73 235.026 2101.1C235.32 2101.47 235.467 2101.89 235.467 2102.37C235.467 2103.09 235.231 2103.66 234.76 2104.07C234.293 2104.48 233.641 2104.68 232.805 2104.68H230.053ZM230.748 2100.73V2104.1H232.833C233.428 2104.1 233.899 2103.95 234.246 2103.64C234.596 2103.34 234.772 2102.92 234.772 2102.38C234.772 2101.87 234.604 2101.47 234.269 2101.17C233.937 2100.88 233.477 2100.73 232.89 2100.73H230.748ZM230.748 2100.15H232.647C233.227 2100.13 233.675 2100 233.992 2099.74C234.312 2099.47 234.472 2099.09 234.472 2098.59C234.472 2098.06 234.306 2097.68 233.975 2097.43C233.647 2097.17 233.15 2097.05 232.483 2097.05H230.748V2100.15ZM240.867 2103.91C240.46 2104.5 239.81 2104.8 238.917 2104.8C238.265 2104.8 237.77 2104.61 237.431 2104.23C237.092 2103.85 236.918 2103.29 236.911 2102.55V2098.57H237.583V2102.46C237.583 2103.63 238.054 2104.21 238.996 2104.21C239.976 2104.21 240.596 2103.8 240.856 2102.99V2098.57H241.534V2104.68H240.878L240.867 2103.91ZM244.289 2097V2098.57H245.555V2099.12H244.289V2103.2C244.289 2103.54 244.349 2103.79 244.47 2103.95C244.594 2104.12 244.8 2104.2 245.086 2104.2C245.199 2104.2 245.382 2104.18 245.634 2104.15L245.662 2104.7C245.485 2104.76 245.244 2104.8 244.939 2104.8C244.475 2104.8 244.138 2104.66 243.927 2104.4C243.716 2104.12 243.611 2103.73 243.611 2103.2V2099.12H242.486V2098.57H243.611V2097H244.289ZM247.948 2097V2098.57H249.214V2099.12H247.948V2103.2C247.948 2103.54 248.009 2103.79 248.129 2103.95C248.254 2104.12 248.459 2104.2 248.745 2104.2C248.858 2104.2 249.041 2104.18 249.293 2104.15L249.322 2104.7C249.145 2104.76 248.904 2104.8 248.598 2104.8C248.135 2104.8 247.798 2104.66 247.587 2104.4C247.376 2104.12 247.27 2103.73 247.27 2103.2V2099.12H246.146V2098.57H247.27V2097H247.948ZM250.071 2101.54C250.071 2100.95 250.184 2100.42 250.41 2099.95C250.639 2099.48 250.962 2099.11 251.376 2098.85C251.794 2098.59 252.267 2098.46 252.795 2098.46C253.608 2098.46 254.268 2098.74 254.773 2099.31C255.278 2099.88 255.53 2100.64 255.53 2101.58V2101.72C255.53 2102.31 255.415 2102.85 255.185 2103.32C254.959 2103.79 254.639 2104.16 254.225 2104.41C253.81 2104.67 253.337 2104.8 252.806 2104.8C251.996 2104.8 251.337 2104.51 250.828 2103.94C250.323 2103.37 250.071 2102.61 250.071 2101.67V2101.54ZM250.749 2101.72C250.749 2102.45 250.937 2103.05 251.314 2103.53C251.694 2103.99 252.192 2104.23 252.806 2104.23C253.416 2104.23 253.91 2103.99 254.287 2103.53C254.667 2103.05 254.858 2102.43 254.858 2101.67V2101.54C254.858 2101.07 254.771 2100.64 254.598 2100.25C254.424 2099.86 254.181 2099.57 253.868 2099.35C253.556 2099.14 253.198 2099.03 252.795 2099.03C252.192 2099.03 251.7 2099.27 251.32 2099.74C250.939 2100.22 250.749 2100.83 250.749 2101.6V2101.72ZM257.517 2098.57L257.539 2099.61C257.769 2099.24 258.055 2098.95 258.398 2098.76C258.741 2098.56 259.12 2098.46 259.534 2098.46C260.19 2098.46 260.678 2098.64 260.998 2099.01C261.318 2099.38 261.48 2099.93 261.484 2100.67V2104.68H260.811V2100.67C260.808 2100.12 260.691 2099.71 260.461 2099.44C260.235 2099.18 259.871 2099.04 259.37 2099.04C258.952 2099.04 258.581 2099.18 258.257 2099.44C257.937 2099.7 257.699 2100.05 257.545 2100.5V2104.68H256.872V2098.57H257.517Z" fill="#131313"/>
<path d="M270.165 20.9814L270.224 21.2106L270.291 20.9814L273.678 11.5452H274.676L270.668 22.3125H269.796L265.787 11.5452H266.778L270.165 20.9814ZM276.996 22.3125H276.109V14.311H276.996V22.3125ZM275.953 11.9963C275.953 11.8287 276.008 11.6882 276.116 11.5748C276.224 11.4565 276.372 11.3973 276.56 11.3973C276.747 11.3973 276.895 11.4565 277.003 11.5748C277.117 11.6882 277.174 11.8287 277.174 11.9963C277.174 12.1639 277.117 12.3044 277.003 12.4178C276.895 12.5312 276.747 12.5879 276.56 12.5879C276.372 12.5879 276.224 12.5312 276.116 12.4178C276.008 12.3044 275.953 12.1639 275.953 11.9963ZM282.451 22.4604C281.771 22.4604 281.155 22.2928 280.603 21.9575C280.055 21.6223 279.629 21.1564 279.323 20.5599C279.017 19.9584 278.865 19.2854 278.865 18.541V18.223C278.865 17.4539 279.013 16.7612 279.308 16.145C279.609 15.5287 280.026 15.0456 280.558 14.6955C281.091 14.3406 281.667 14.1631 282.289 14.1631C283.26 14.1631 284.029 14.4959 284.596 15.1614C285.168 15.8221 285.454 16.7267 285.454 17.8754V18.3709H279.745V18.541C279.745 19.4481 280.004 20.2049 280.521 20.8113C281.044 21.4128 281.699 21.7135 282.488 21.7135C282.962 21.7135 283.378 21.6272 283.738 21.4547C284.103 21.2821 284.433 21.006 284.729 20.6264L285.284 21.0479C284.633 21.9896 283.689 22.4604 282.451 22.4604ZM282.289 14.9174C281.623 14.9174 281.061 15.1614 280.603 15.6495C280.149 16.1376 279.873 16.7933 279.774 17.6166H284.574V17.5205C284.549 16.7514 284.33 16.1253 283.916 15.6421C283.501 15.159 282.959 14.9174 282.289 14.9174ZM289.038 20.4711L289.171 21.1589L289.349 20.4341L291.271 14.311H292.026L293.926 20.3824L294.133 21.2254L294.303 20.4489L295.945 14.311H296.862L294.533 22.3125H293.778L291.722 15.9675L291.626 15.5312L291.53 15.9749L289.511 22.3125H288.757L286.435 14.311H287.345L289.038 20.4711ZM303.106 22.3125H302.219V10.9536H303.106V22.3125ZM310.514 22.3125C310.425 22.0611 310.368 21.6888 310.344 21.1958C310.033 21.6001 309.636 21.9132 309.153 22.135C308.675 22.3519 308.167 22.4604 307.63 22.4604C306.861 22.4604 306.237 22.2459 305.759 21.817C305.286 21.3881 305.049 20.8458 305.049 20.1901C305.049 19.4111 305.372 18.7949 306.018 18.3413C306.668 17.8878 307.573 17.661 308.732 17.661H310.336V16.7514C310.336 16.1795 310.159 15.7308 309.804 15.4055C309.454 15.0751 308.941 14.91 308.266 14.91C307.649 14.91 307.139 15.0678 306.735 15.3833C306.331 15.6988 306.129 16.0784 306.129 16.5221L305.241 16.5147C305.241 15.8787 305.537 15.329 306.129 14.8656C306.72 14.3973 307.447 14.1631 308.31 14.1631C309.202 14.1631 309.905 14.3874 310.418 14.836C310.935 15.2797 311.202 15.9009 311.216 16.6996V20.4859C311.216 21.2599 311.298 21.8392 311.46 22.2238V22.3125H310.514ZM307.733 21.6765C308.325 21.6765 308.852 21.5335 309.316 21.2476C309.784 20.9617 310.124 20.5796 310.336 20.1014V18.3413H308.754C307.871 18.3512 307.181 18.5139 306.683 18.8294C306.185 19.14 305.936 19.5689 305.936 20.1162C305.936 20.5648 306.101 20.937 306.432 21.2328C306.767 21.5286 307.201 21.6765 307.733 21.6765ZM314.372 14.311L314.401 15.6791C314.702 15.1861 315.077 14.8114 315.525 14.555C315.974 14.2937 316.47 14.1631 317.012 14.1631C317.87 14.1631 318.508 14.4047 318.927 14.8878C319.346 15.371 319.558 16.0957 319.563 17.062V22.3125H318.683V17.0546C318.678 16.3397 318.525 15.8073 318.225 15.4572C317.929 15.1072 317.453 14.9322 316.797 14.9322C316.25 14.9322 315.765 15.1047 315.341 15.4498C314.921 15.79 314.611 16.251 314.409 16.8327V22.3125H313.529V14.311H314.372ZM321.447 18.2378C321.447 16.9954 321.723 16.0069 322.275 15.2723C322.832 14.5328 323.586 14.1631 324.538 14.1631C325.617 14.1631 326.441 14.5895 327.008 15.4424V10.9536H327.888V22.3125H327.059L327.023 21.2476C326.456 22.0561 325.622 22.4604 324.523 22.4604C323.601 22.4604 322.857 22.0906 322.29 21.3511C321.728 20.6067 321.447 19.6034 321.447 18.3413V18.2378ZM322.341 18.3931C322.341 19.4136 322.546 20.2197 322.955 20.8113C323.364 21.398 323.941 21.6913 324.686 21.6913C325.775 21.6913 326.549 21.2106 327.008 20.2493V16.4925C326.549 15.4523 325.78 14.9322 324.7 14.9322C323.956 14.9322 323.377 15.2255 322.963 15.8122C322.548 16.3939 322.341 17.2542 322.341 18.3931ZM331.154 22.3125H330.267V14.311H331.154V22.3125ZM330.111 11.9963C330.111 11.8287 330.166 11.6882 330.274 11.5748C330.382 11.4565 330.53 11.3973 330.718 11.3973C330.905 11.3973 331.053 11.4565 331.161 11.5748C331.275 11.6882 331.332 11.8287 331.332 11.9963C331.332 12.1639 331.275 12.3044 331.161 12.4178C331.053 12.5312 330.905 12.5879 330.718 12.5879C330.53 12.5879 330.382 12.5312 330.274 12.4178C330.166 12.3044 330.111 12.1639 330.111 11.9963ZM334.354 14.311L334.383 15.6791C334.684 15.1861 335.059 14.8114 335.507 14.555C335.956 14.2937 336.452 14.1631 336.994 14.1631C337.852 14.1631 338.49 14.4047 338.909 14.8878C339.328 15.371 339.54 16.0957 339.545 17.062V22.3125H338.665V17.0546C338.66 16.3397 338.507 15.8073 338.207 15.4572C337.911 15.1072 337.435 14.9322 336.779 14.9322C336.232 14.9322 335.747 15.1047 335.323 15.4498C334.904 15.79 334.593 16.251 334.391 16.8327V22.3125H333.511V14.311H334.354ZM341.429 18.2378C341.429 16.9856 341.705 15.9946 342.257 15.265C342.814 14.5304 343.568 14.1631 344.52 14.1631C345.609 14.1631 346.438 14.5969 347.005 15.4646L347.049 14.311H347.877V22.1498C347.877 23.1802 347.589 23.9961 347.012 24.5976C346.435 25.1991 345.654 25.4998 344.668 25.4998C344.111 25.4998 343.578 25.3741 343.07 25.1226C342.567 24.8761 342.171 24.5458 341.88 24.1317L342.375 23.5993C343.001 24.3683 343.746 24.7529 344.609 24.7529C345.348 24.7529 345.925 24.5335 346.339 24.0947C346.753 23.6609 346.968 23.0569 346.982 22.2829V21.2772C346.415 22.066 345.59 22.4604 344.505 22.4604C343.578 22.4604 342.834 22.0906 342.272 21.3511C341.71 20.6116 341.429 19.6133 341.429 18.3561V18.2378ZM342.323 18.3931C342.323 19.4136 342.528 20.2197 342.937 20.8113C343.346 21.398 343.923 21.6913 344.668 21.6913C345.757 21.6913 346.529 21.2032 346.982 20.2271V16.5073C346.775 15.9946 346.477 15.6051 346.088 15.3389C345.698 15.0678 345.23 14.9322 344.682 14.9322C343.938 14.9322 343.359 15.2255 342.945 15.8122C342.53 16.3939 342.323 17.2542 342.323 18.3931ZM360.193 18.3931C360.193 19.6404 359.917 20.6313 359.365 21.3659C358.812 22.0956 358.073 22.4604 357.146 22.4604C356.052 22.4604 355.213 22.0759 354.632 21.3068V25.3889H353.752V14.311H354.572L354.617 15.4424C355.194 14.5895 356.029 14.1631 357.124 14.1631C358.08 14.1631 358.83 14.5254 359.372 15.2502C359.919 15.9749 360.193 16.9806 360.193 18.2674V18.3931ZM359.305 18.2378C359.305 17.2173 359.096 16.4112 358.677 15.8196C358.258 15.228 357.674 14.9322 356.924 14.9322C356.382 14.9322 355.916 15.0628 355.526 15.3241C355.137 15.5854 354.839 15.965 354.632 16.463V20.301C354.844 20.7595 355.147 21.1096 355.541 21.3511C355.936 21.5927 356.402 21.7135 356.939 21.7135C357.683 21.7135 358.263 21.4177 358.677 20.8261C359.096 20.2295 359.305 19.3668 359.305 18.2378ZM367.157 22.3125C367.068 22.0611 367.011 21.6888 366.987 21.1958C366.676 21.6001 366.279 21.9132 365.796 22.135C365.318 22.3519 364.81 22.4604 364.273 22.4604C363.503 22.4604 362.88 22.2459 362.402 21.817C361.928 21.3881 361.692 20.8458 361.692 20.1901C361.692 19.4111 362.015 18.7949 362.66 18.3413C363.311 17.8878 364.216 17.661 365.374 17.661H366.979V16.7514C366.979 16.1795 366.802 15.7308 366.447 15.4055C366.097 15.0751 365.584 14.91 364.909 14.91C364.292 14.91 363.782 15.0678 363.378 15.3833C362.973 15.6988 362.771 16.0784 362.771 16.5221L361.884 16.5147C361.884 15.8787 362.18 15.329 362.771 14.8656C363.363 14.3973 364.09 14.1631 364.953 14.1631C365.845 14.1631 366.548 14.3874 367.061 14.836C367.578 15.2797 367.844 15.9009 367.859 16.6996V20.4859C367.859 21.2599 367.941 21.8392 368.103 22.2238V22.3125H367.157ZM364.376 21.6765C364.968 21.6765 365.495 21.5335 365.959 21.2476C366.427 20.9617 366.767 20.5796 366.979 20.1014V18.3413H365.397C364.514 18.3512 363.824 18.5139 363.326 18.8294C362.828 19.14 362.579 19.5689 362.579 20.1162C362.579 20.5648 362.744 20.937 363.075 21.2328C363.41 21.5286 363.844 21.6765 364.376 21.6765ZM369.817 18.2378C369.817 16.9856 370.093 15.9946 370.645 15.265C371.202 14.5304 371.956 14.1631 372.908 14.1631C373.997 14.1631 374.826 14.5969 375.392 15.4646L375.437 14.311H376.265V22.1498C376.265 23.1802 375.977 23.9961 375.4 24.5976C374.823 25.1991 374.042 25.4998 373.056 25.4998C372.499 25.4998 371.966 25.3741 371.458 25.1226C370.955 24.8761 370.559 24.5458 370.268 24.1317L370.763 23.5993C371.389 24.3683 372.134 24.7529 372.996 24.7529C373.736 24.7529 374.313 24.5335 374.727 24.0947C375.141 23.6609 375.356 23.0569 375.37 22.2829V21.2772C374.803 22.066 373.978 22.4604 372.893 22.4604C371.966 22.4604 371.222 22.0906 370.66 21.3511C370.098 20.6116 369.817 19.6133 369.817 18.3561V18.2378ZM370.711 18.3931C370.711 19.4136 370.916 20.2197 371.325 20.8113C371.734 21.398 372.311 21.6913 373.056 21.6913C374.145 21.6913 374.917 21.2032 375.37 20.2271V16.5073C375.163 15.9946 374.865 15.6051 374.475 15.3389C374.086 15.0678 373.618 14.9322 373.07 14.9322C372.326 14.9322 371.747 15.2255 371.333 15.8122C370.918 16.3939 370.711 17.2542 370.711 18.3931ZM381.617 22.4604C380.937 22.4604 380.32 22.2928 379.768 21.9575C379.221 21.6223 378.794 21.1564 378.489 20.5599C378.183 19.9584 378.03 19.2854 378.03 18.541V18.223C378.03 17.4539 378.178 16.7612 378.474 16.145C378.775 15.5287 379.191 15.0456 379.724 14.6955C380.256 14.3406 380.833 14.1631 381.454 14.1631C382.425 14.1631 383.194 14.4959 383.761 15.1614C384.333 15.8221 384.619 16.7267 384.619 17.8754V18.3709H378.91V18.541C378.91 19.4481 379.169 20.2049 379.687 20.8113C380.209 21.4128 380.865 21.7135 381.654 21.7135C382.127 21.7135 382.544 21.6272 382.904 21.4547C383.268 21.2821 383.599 21.006 383.895 20.6264L384.449 21.0479C383.798 21.9896 382.854 22.4604 381.617 22.4604ZM381.454 14.9174C380.789 14.9174 380.227 15.1614 379.768 15.6495C379.315 16.1376 379.038 16.7933 378.94 17.6166H383.739V17.5205C383.715 16.7514 383.495 16.1253 383.081 15.6421C382.667 15.159 382.125 14.9174 381.454 14.9174Z" fill="#131313"/>
<path fill-rule="evenodd" clip-rule="evenodd" d="M213.885 27.6897C213.885 31.5332 176.226 34.6489 129.77 34.6489C83.3147 34.6489 45.6553 31.5332 45.6553 27.6897C45.6553 23.8462 83.3147 20.7305 129.77 20.7305C176.226 20.7305 213.885 23.8462 213.885 27.6897Z" fill="#4B75F7"/>
<path fill-rule="evenodd" clip-rule="evenodd" d="M199.475 1453.51C199.475 1457.73 168.701 1461.15 130.741 1461.15C92.7808 1461.15 62.0083 1457.73 62.0083 1453.51C62.0083 1449.29 92.7808 1445.87 130.741 1445.87C168.701 1445.87 199.475 1449.29 199.475 1453.51Z" fill="#2F54BD"/>
<path d="M261.742 1447.46C261.607 1448.7 261.16 1449.66 260.403 1450.32C259.65 1450.98 258.647 1451.31 257.391 1451.31C256.514 1451.31 255.738 1451.09 255.061 1450.65C254.39 1450.21 253.871 1449.59 253.502 1448.79C253.134 1447.98 252.948 1447.06 252.942 1446.03V1444.5C252.942 1443.45 253.126 1442.52 253.494 1441.7C253.862 1440.89 254.39 1440.27 255.077 1439.83C255.77 1439.38 256.566 1439.16 257.464 1439.16C258.73 1439.16 259.729 1439.51 260.46 1440.19C261.196 1440.88 261.623 1441.82 261.742 1443.03H260.736C260.487 1441.02 259.396 1440.01 257.464 1440.01C256.392 1440.01 255.537 1440.42 254.899 1441.22C254.266 1442.02 253.949 1443.12 253.949 1444.54V1445.98C253.949 1447.35 254.257 1448.43 254.874 1449.24C255.497 1450.06 256.336 1450.46 257.391 1450.46C258.436 1450.46 259.223 1450.21 259.753 1449.72C260.284 1449.21 260.611 1448.46 260.736 1447.46H261.742ZM264.971 1451.14H263.996V1438.68H264.971V1451.14ZM268.645 1451.14H267.671V1442.36H268.645V1451.14ZM267.501 1439.82C267.501 1439.64 267.56 1439.48 267.679 1439.36C267.799 1439.23 267.961 1439.16 268.167 1439.16C268.372 1439.16 268.535 1439.23 268.654 1439.36C268.778 1439.48 268.84 1439.64 268.84 1439.82C268.84 1440 268.778 1440.16 268.654 1440.28C268.535 1440.41 268.372 1440.47 268.167 1440.47C267.961 1440.47 267.799 1440.41 267.679 1440.28C267.56 1440.16 267.501 1440 267.501 1439.82ZM274.48 1450.49C275.156 1450.49 275.722 1450.3 276.176 1449.92C276.636 1449.53 276.885 1449.04 276.923 1448.43H277.857C277.83 1448.97 277.662 1449.46 277.353 1449.9C277.045 1450.34 276.634 1450.68 276.12 1450.93C275.611 1451.18 275.064 1451.31 274.48 1451.31C273.327 1451.31 272.412 1450.91 271.736 1450.11C271.065 1449.3 270.729 1448.23 270.729 1446.87V1446.58C270.729 1445.72 270.881 1444.95 271.184 1444.28C271.487 1443.62 271.92 1443.11 272.483 1442.74C273.051 1442.38 273.714 1442.2 274.472 1442.2C275.435 1442.2 276.228 1442.49 276.85 1443.06C277.478 1443.63 277.814 1444.39 277.857 1445.32H276.923C276.88 1444.64 276.631 1444.08 276.176 1443.66C275.727 1443.24 275.159 1443.03 274.472 1443.03C273.595 1443.03 272.913 1443.34 272.426 1443.98C271.944 1444.61 271.703 1445.5 271.703 1446.64V1446.92C271.703 1448.04 271.944 1448.92 272.426 1449.55C272.913 1450.17 273.598 1450.49 274.48 1450.49ZM281.832 1446.72L280.72 1447.79V1451.14H279.746V1438.68H280.72V1446.66L281.637 1445.66L284.998 1442.36H286.224L282.498 1446.06L286.549 1451.14H285.388L281.832 1446.72ZM292.047 1451.14V1439.32H295.538C296.805 1439.32 297.765 1439.59 298.42 1440.11C299.075 1440.63 299.402 1441.4 299.402 1442.42C299.402 1443.03 299.235 1443.56 298.899 1444.02C298.569 1444.47 298.114 1444.79 297.535 1444.98C298.222 1445.13 298.775 1445.47 299.191 1446C299.613 1446.52 299.824 1447.13 299.824 1447.82C299.824 1448.86 299.486 1449.68 298.81 1450.27C298.139 1450.85 297.202 1451.14 296.001 1451.14H292.047ZM293.046 1445.46V1450.3H296.041C296.897 1450.3 297.573 1450.08 298.071 1449.65C298.574 1449.21 298.826 1448.61 298.826 1447.83C298.826 1447.1 298.585 1446.53 298.103 1446.1C297.627 1445.68 296.967 1445.46 296.123 1445.46H293.046ZM293.046 1444.63H295.774C296.607 1444.61 297.251 1444.41 297.706 1444.04C298.166 1443.66 298.396 1443.11 298.396 1442.39C298.396 1441.64 298.158 1441.08 297.681 1440.72C297.21 1440.36 296.496 1440.18 295.538 1440.18H293.046V1444.63ZM307.607 1450.03C307.022 1450.88 306.089 1451.31 304.806 1451.31C303.87 1451.31 303.158 1451.04 302.671 1450.5C302.184 1449.95 301.935 1449.14 301.924 1448.08V1442.36H302.89V1447.95C302.89 1449.63 303.567 1450.46 304.92 1450.46C306.327 1450.46 307.217 1449.88 307.591 1448.72V1442.36H308.565V1451.14H307.623L307.607 1450.03ZM312.548 1440.11V1442.36H314.367V1443.16H312.548V1449.01C312.548 1449.5 312.635 1449.86 312.808 1450.1C312.987 1450.34 313.282 1450.45 313.693 1450.45C313.855 1450.45 314.118 1450.43 314.48 1450.37L314.521 1451.17C314.267 1451.26 313.92 1451.31 313.482 1451.31C312.816 1451.31 312.332 1451.11 312.029 1450.73C311.726 1450.34 311.574 1449.77 311.574 1449.02V1443.16H309.959V1442.36H311.574V1440.11H312.548ZM317.83 1440.11V1442.36H319.649V1443.16H317.83V1449.01C317.83 1449.5 317.917 1449.86 318.09 1450.1C318.269 1450.34 318.564 1450.45 318.975 1450.45C319.137 1450.45 319.4 1450.43 319.763 1450.37L319.803 1451.17C319.549 1451.26 319.202 1451.31 318.764 1451.31C318.098 1451.31 317.614 1451.11 317.311 1450.73C317.008 1450.34 316.856 1449.77 316.856 1449.02V1443.16H315.241V1442.36H316.856V1440.11H317.83ZM320.905 1446.62C320.905 1445.78 321.067 1445.02 321.392 1444.34C321.722 1443.67 322.185 1443.14 322.78 1442.77C323.381 1442.39 324.06 1442.2 324.817 1442.2C325.986 1442.2 326.934 1442.61 327.659 1443.43C328.384 1444.25 328.747 1445.33 328.747 1446.69V1446.89C328.747 1447.74 328.582 1448.51 328.251 1449.19C327.927 1449.86 327.467 1450.39 326.871 1450.75C326.276 1451.12 325.597 1451.31 324.834 1451.31C323.67 1451.31 322.723 1450.9 321.992 1450.08C321.267 1449.26 320.905 1448.17 320.905 1446.82V1446.62ZM321.879 1446.89C321.879 1447.94 322.149 1448.8 322.691 1449.48C323.237 1450.15 323.952 1450.49 324.834 1450.49C325.71 1450.49 326.419 1450.15 326.961 1449.48C327.507 1448.8 327.781 1447.91 327.781 1446.81V1446.62C327.781 1445.95 327.656 1445.34 327.407 1444.78C327.158 1444.22 326.809 1443.79 326.36 1443.49C325.911 1443.18 325.397 1443.03 324.817 1443.03C323.952 1443.03 323.245 1443.37 322.699 1444.05C322.152 1444.73 321.879 1445.61 321.879 1446.71V1446.89ZM331.626 1442.36L331.658 1443.86C331.989 1443.32 332.4 1442.91 332.892 1442.63C333.385 1442.34 333.929 1442.2 334.524 1442.2C335.466 1442.2 336.167 1442.46 336.627 1442.99C337.087 1443.52 337.319 1444.32 337.325 1445.38V1451.14H336.359V1445.37C336.353 1444.59 336.185 1444 335.855 1443.62C335.531 1443.23 335.008 1443.04 334.289 1443.04C333.688 1443.04 333.155 1443.23 332.689 1443.61C332.229 1443.98 331.888 1444.49 331.666 1445.13V1451.14H330.7V1442.36H331.626Z" fill="#131313"/>
<path d="M262.278 0C258.269 11.0869 254.264 22.2573 250.263 33.5113C171.035 35.1279 91.7509 35.1279 12.4101 33.5113C8.41451 22.26 4.40948 11.0896 0.39502 0H262.278Z" fill="url(#paint0_linear_297_8590)"/>
<path d="M111.76 18.8715H114.746V20.3125H109.943V11.2513H111.76V18.8715ZM115.434 16.6906C115.434 15.9637 115.577 15.3189 115.862 14.7564C116.157 14.1938 116.55 13.7611 117.044 13.4582C117.546 13.1553 118.104 13.0039 118.718 13.0039C119.255 13.0039 119.722 13.112 120.12 13.3284C120.527 13.5448 120.852 13.8174 121.094 14.1462V13.1207H122.924V20.3125H121.094V19.261C120.86 19.5985 120.536 19.8798 120.12 20.1048C119.713 20.3212 119.242 20.4293 118.705 20.4293C118.099 20.4293 117.546 20.2736 117.044 19.962C116.55 19.6504 116.157 19.2134 115.862 18.6509C115.577 18.0797 115.434 17.4263 115.434 16.6906ZM121.094 16.7166C121.094 16.2752 121.007 15.8988 120.834 15.5872C120.661 15.267 120.427 15.0247 120.133 14.8602C119.839 14.6871 119.523 14.6006 119.186 14.6006C118.848 14.6006 118.536 14.6828 118.251 14.8472C117.965 15.0117 117.732 15.254 117.55 15.5742C117.377 15.8858 117.29 16.2579 117.29 16.6906C117.29 17.1234 117.377 17.5041 117.55 17.833C117.732 18.1532 117.965 18.3999 118.251 18.573C118.545 18.7461 118.857 18.8326 119.186 18.8326C119.523 18.8326 119.839 18.7504 120.133 18.5859C120.427 18.4129 120.661 18.1705 120.834 17.859C121.007 17.5388 121.094 17.158 121.094 16.7166ZM131.58 13.1207L127.127 23.7137H125.193L126.75 20.1308L123.868 13.1207H125.907L127.763 18.1446L129.645 13.1207H131.58ZM139.245 16.5608C139.245 16.8204 139.227 17.0541 139.193 17.2618H133.935C133.979 17.7811 134.16 18.1878 134.481 18.4821C134.801 18.7763 135.195 18.9235 135.662 18.9235C136.337 18.9235 136.817 18.6335 137.103 18.0537H139.063C138.855 18.7461 138.457 19.3172 137.869 19.7673C137.28 20.2086 136.558 20.4293 135.701 20.4293C135.008 20.4293 134.385 20.2779 133.831 19.975C133.286 19.6634 132.858 19.2264 132.546 18.6638C132.243 18.1013 132.092 17.4522 132.092 16.7166C132.092 15.9723 132.243 15.3189 132.546 14.7564C132.849 14.1938 133.273 13.7611 133.818 13.4582C134.364 13.1553 134.991 13.0039 135.701 13.0039C136.384 13.0039 136.995 13.151 137.531 13.4452C138.076 13.7395 138.496 14.1592 138.79 14.7044C139.093 15.241 139.245 15.8598 139.245 16.5608ZM137.362 16.0416C137.354 15.5742 137.185 15.2021 136.856 14.9251C136.527 14.6395 136.125 14.4967 135.649 14.4967C135.199 14.4967 134.818 14.6352 134.506 14.9122C134.204 15.1804 134.018 15.5569 133.948 16.0416H137.362ZM142.389 14.2371C142.622 13.8563 142.925 13.5577 143.297 13.3414C143.678 13.125 144.111 13.0168 144.596 13.0168V14.9251H144.115C143.544 14.9251 143.111 15.0593 142.817 15.3276C142.532 15.5959 142.389 16.0632 142.389 16.7296V20.3125H140.571V13.1207H142.389V14.2371ZM148.485 12.5235V10.8489H151.613V20.3125H149.744V12.5235H148.485Z" fill="white"/>
<path d="M238.133 1426.83C234.313 1437.63 230.492 1448.51 226.672 1459.47C162.517 1462.25 98.1073 1462.25 33.9521 1459.47C30.132 1448.52 26.3118 1437.65 22.4917 1426.83C94.3026 1428.92 166.322 1428.92 238.133 1426.83Z" fill="url(#paint1_linear_297_8590)"/>
<path d="M107.682 1447.61H110.96V1449.2H105.687V1439.25H107.682V1447.61ZM111.715 1445.22C111.715 1444.42 111.871 1443.71 112.185 1443.1C112.508 1442.48 112.94 1442 113.482 1441.67C114.033 1441.34 114.645 1441.17 115.32 1441.17C115.909 1441.17 116.422 1441.29 116.859 1441.53C117.306 1441.77 117.662 1442.07 117.928 1442.43V1441.3H119.937V1449.2H117.928V1448.04C117.671 1448.41 117.315 1448.72 116.859 1448.97C116.412 1449.2 115.895 1449.32 115.306 1449.32C114.641 1449.32 114.033 1449.15 113.482 1448.81C112.94 1448.47 112.508 1447.99 112.185 1447.37C111.871 1446.74 111.715 1446.03 111.715 1445.22ZM117.928 1445.25C117.928 1444.76 117.833 1444.35 117.643 1444.01C117.453 1443.66 117.196 1443.39 116.873 1443.21C116.55 1443.02 116.203 1442.93 115.833 1442.93C115.462 1442.93 115.12 1443.02 114.807 1443.2C114.493 1443.38 114.237 1443.64 114.037 1443.99C113.847 1444.34 113.752 1444.74 113.752 1445.22C113.752 1445.69 113.847 1446.11 114.037 1446.47C114.237 1446.82 114.493 1447.1 114.807 1447.29C115.13 1447.48 115.472 1447.57 115.833 1447.57C116.203 1447.57 116.55 1447.48 116.873 1447.3C117.196 1447.11 117.453 1446.84 117.643 1446.5C117.833 1446.15 117.928 1445.73 117.928 1445.25ZM129.438 1441.3L124.55 1452.93H122.427L124.137 1449L120.974 1441.3H123.211L125.249 1446.82L127.315 1441.3H129.438ZM137.853 1445.08C137.853 1445.36 137.834 1445.62 137.796 1445.85H132.024C132.072 1446.42 132.271 1446.86 132.623 1447.19C132.974 1447.51 133.407 1447.67 133.92 1447.67C134.661 1447.67 135.188 1447.35 135.502 1446.72H137.653C137.425 1447.48 136.988 1448.1 136.342 1448.6C135.696 1449.08 134.903 1449.32 133.962 1449.32C133.202 1449.32 132.518 1449.16 131.91 1448.82C131.312 1448.48 130.842 1448 130.5 1447.39C130.167 1446.77 130.001 1446.06 130.001 1445.25C130.001 1444.43 130.167 1443.71 130.5 1443.1C130.832 1442.48 131.298 1442 131.896 1441.67C132.495 1441.34 133.183 1441.17 133.962 1441.17C134.713 1441.17 135.383 1441.33 135.972 1441.66C136.57 1441.98 137.031 1442.44 137.354 1443.04C137.687 1443.63 137.853 1444.31 137.853 1445.08ZM135.787 1444.51C135.777 1443.99 135.592 1443.59 135.231 1443.28C134.87 1442.97 134.428 1442.81 133.905 1442.81C133.411 1442.81 132.993 1442.96 132.651 1443.27C132.319 1443.56 132.115 1443.97 132.039 1444.51H135.787ZM141.304 1442.53C141.561 1442.11 141.893 1441.78 142.302 1441.54C142.72 1441.31 143.195 1441.19 143.727 1441.19V1443.28H143.199C142.572 1443.28 142.097 1443.43 141.774 1443.72C141.461 1444.02 141.304 1444.53 141.304 1445.26V1449.2H139.309V1441.3H141.304V1442.53ZM148.865 1446.94C149.777 1446.18 150.504 1445.55 151.045 1445.05C151.587 1444.54 152.038 1444 152.399 1443.45C152.76 1442.9 152.941 1442.36 152.941 1441.83C152.941 1441.34 152.827 1440.96 152.599 1440.69C152.371 1440.41 152.019 1440.27 151.544 1440.27C151.069 1440.27 150.703 1440.44 150.447 1440.76C150.19 1441.07 150.057 1441.5 150.048 1442.06H148.11C148.148 1440.92 148.485 1440.05 149.122 1439.46C149.768 1438.87 150.585 1438.58 151.573 1438.58C152.656 1438.58 153.487 1438.87 154.067 1439.45C154.646 1440.02 154.936 1440.77 154.936 1441.71C154.936 1442.45 154.736 1443.16 154.337 1443.84C153.938 1444.51 153.482 1445.1 152.969 1445.6C152.456 1446.1 151.786 1446.7 150.96 1447.4H155.164V1449.05H148.124V1447.57L148.865 1446.94Z" fill="white"/>
<path d="M216.094 1653.06C212.46 1663.53 208.826 1674.03 205.192 1684.59C154.982 1687.44 104.649 1687.44 54.439 1684.59C50.8074 1674.04 47.1732 1663.53 43.5366 1653.06C100.969 1655.86 158.647 1655.86 216.094 1653.06Z" fill="url(#paint2_linear_297_8590)"/>
<path d="M111.868 1672.06H114.689V1673.43H110.152V1664.87H111.868V1672.06ZM115.338 1670C115.338 1669.32 115.473 1668.71 115.743 1668.18C116.021 1667.65 116.393 1667.24 116.859 1666.95C117.333 1666.67 117.86 1666.52 118.441 1666.52C118.948 1666.52 119.389 1666.62 119.765 1666.83C120.149 1667.03 120.456 1667.29 120.685 1667.6V1666.63H122.414V1673.43H120.685V1672.43C120.464 1672.75 120.157 1673.02 119.765 1673.23C119.381 1673.43 118.935 1673.54 118.428 1673.54C117.856 1673.54 117.333 1673.39 116.859 1673.09C116.393 1672.8 116.021 1672.39 115.743 1671.86C115.473 1671.32 115.338 1670.7 115.338 1670ZM120.685 1670.03C120.685 1669.61 120.603 1669.26 120.44 1668.96C120.276 1668.66 120.055 1668.43 119.777 1668.28C119.499 1668.11 119.201 1668.03 118.882 1668.03C118.563 1668.03 118.269 1668.11 117.999 1668.26C117.73 1668.42 117.509 1668.65 117.337 1668.95C117.174 1669.24 117.092 1669.6 117.092 1670C117.092 1670.41 117.174 1670.77 117.337 1671.08C117.509 1671.39 117.73 1671.62 117.999 1671.78C118.277 1671.95 118.572 1672.03 118.882 1672.03C119.201 1672.03 119.499 1671.95 119.777 1671.79C120.055 1671.63 120.276 1671.4 120.44 1671.11C120.603 1670.81 120.685 1670.45 120.685 1670.03ZM130.59 1666.63L126.384 1676.64H124.556L126.028 1673.25L123.306 1666.63H125.231L126.984 1671.38L128.762 1666.63H130.59ZM137.83 1669.88C137.83 1670.13 137.814 1670.35 137.781 1670.54H132.815C132.856 1671.03 133.027 1671.42 133.33 1671.7C133.632 1671.97 134.004 1672.11 134.446 1672.11C135.083 1672.11 135.537 1671.84 135.807 1671.29H137.658C137.462 1671.95 137.086 1672.49 136.53 1672.91C135.974 1673.33 135.292 1673.54 134.483 1673.54C133.829 1673.54 133.24 1673.39 132.717 1673.11C132.202 1672.81 131.797 1672.4 131.503 1671.87C131.217 1671.34 131.074 1670.72 131.074 1670.03C131.074 1669.33 131.217 1668.71 131.503 1668.18C131.789 1667.65 132.189 1667.24 132.704 1666.95C133.219 1666.67 133.812 1666.52 134.483 1666.52C135.128 1666.52 135.705 1666.66 136.212 1666.94C136.727 1667.22 137.123 1667.61 137.401 1668.13C137.687 1668.64 137.83 1669.22 137.83 1669.88ZM136.052 1669.39C136.044 1668.95 135.885 1668.6 135.574 1668.34C135.263 1668.07 134.883 1667.93 134.433 1667.93C134.008 1667.93 133.649 1668.06 133.354 1668.32C133.068 1668.58 132.892 1668.93 132.827 1669.39H136.052ZM140.8 1667.69C141.021 1667.33 141.307 1667.05 141.658 1666.84C142.018 1666.64 142.427 1666.53 142.885 1666.53V1668.34H142.431C141.891 1668.34 141.483 1668.46 141.205 1668.72C140.935 1668.97 140.8 1669.41 140.8 1670.04V1673.43H139.083V1666.63H140.8V1667.69ZM146.791 1666.84C146.832 1666.02 147.118 1665.39 147.65 1664.95C148.189 1664.5 148.896 1664.28 149.771 1664.28C150.368 1664.28 150.879 1664.38 151.304 1664.6C151.729 1664.8 152.048 1665.08 152.26 1665.44C152.481 1665.79 152.591 1666.2 152.591 1666.64C152.591 1667.16 152.456 1667.6 152.187 1667.96C151.925 1668.31 151.61 1668.55 151.242 1668.67V1668.72C151.717 1668.86 152.084 1669.13 152.346 1669.5C152.616 1669.88 152.751 1670.36 152.751 1670.95C152.751 1671.44 152.636 1671.88 152.407 1672.26C152.187 1672.65 151.856 1672.95 151.414 1673.17C150.981 1673.38 150.458 1673.49 149.844 1673.49C148.921 1673.49 148.169 1673.25 147.588 1672.79C147.008 1672.32 146.701 1671.64 146.669 1670.73H148.336C148.353 1671.13 148.487 1671.45 148.741 1671.7C149.002 1671.93 149.358 1672.05 149.808 1672.05C150.225 1672.05 150.543 1671.94 150.764 1671.71C150.993 1671.47 151.108 1671.17 151.108 1670.8C151.108 1670.31 150.952 1669.96 150.642 1669.75C150.331 1669.53 149.849 1669.43 149.195 1669.43H148.839V1668.02H149.195C150.355 1668.02 150.936 1667.63 150.936 1666.85C150.936 1666.5 150.83 1666.23 150.617 1666.03C150.413 1665.84 150.114 1665.74 149.722 1665.74C149.338 1665.74 149.039 1665.84 148.827 1666.06C148.622 1666.26 148.504 1666.52 148.471 1666.84H146.791Z" fill="white"/>
<path d="M194.595 1877.19C191.297 1886.79 187.997 1896.42 184.695 1906.06C149.043 1908.24 113.29 1908.24 77.6378 1906.06C74.3367 1896.41 71.0367 1886.79 67.7378 1877.18C109.986 1879.69 152.347 1879.7 194.595 1877.19Z" fill="url(#paint3_linear_297_8590)"/>
<path d="M184.298 2083.43C181.568 2091.38 178.837 2099.34 176.105 2107.32C146.599 2109.13 117.011 2109.13 87.5056 2107.32C84.7737 2099.34 82.0426 2091.37 79.3125 2083.42C114.277 2085.5 149.334 2085.5 184.298 2083.43Z" fill="url(#paint4_linear_297_8590)"/>
<path d="M110.783 1894.78H113.603V1896.14H109.066V1887.58H110.783V1894.78ZM114.253 1892.72C114.253 1892.03 114.388 1891.42 114.658 1890.89C114.936 1890.36 115.308 1889.95 115.774 1889.66C116.248 1889.38 116.775 1889.23 117.356 1889.23C117.862 1889.23 118.304 1889.34 118.68 1889.54C119.064 1889.74 119.371 1890 119.6 1890.31V1889.34H121.329V1896.14H119.6V1895.14C119.379 1895.46 119.072 1895.73 118.68 1895.94C118.296 1896.14 117.85 1896.25 117.343 1896.25C116.771 1896.25 116.248 1896.1 115.774 1895.81C115.308 1895.51 114.936 1895.1 114.658 1894.57C114.388 1894.03 114.253 1893.41 114.253 1892.72ZM119.6 1892.74C119.6 1892.32 119.518 1891.97 119.354 1891.67C119.191 1891.37 118.97 1891.14 118.692 1890.99C118.414 1890.82 118.116 1890.74 117.797 1890.74C117.478 1890.74 117.184 1890.82 116.914 1890.97C116.644 1891.13 116.424 1891.36 116.252 1891.66C116.088 1891.96 116.007 1892.31 116.007 1892.72C116.007 1893.12 116.088 1893.48 116.252 1893.79C116.424 1894.1 116.644 1894.33 116.914 1894.49C117.192 1894.66 117.486 1894.74 117.797 1894.74C118.116 1894.74 118.414 1894.66 118.692 1894.51C118.97 1894.34 119.191 1894.11 119.354 1893.82C119.518 1893.52 119.6 1893.16 119.6 1892.74ZM129.504 1889.34L125.298 1899.35H123.471L124.943 1895.97L122.221 1889.34H124.146L125.899 1894.09L127.677 1889.34H129.504ZM136.745 1892.59C136.745 1892.84 136.729 1893.06 136.696 1893.26H131.73C131.771 1893.75 131.942 1894.13 132.245 1894.41C132.547 1894.69 132.919 1894.82 133.361 1894.82C133.998 1894.82 134.452 1894.55 134.722 1894H136.573C136.377 1894.66 136.001 1895.2 135.445 1895.62C134.889 1896.04 134.207 1896.25 133.397 1896.25C132.743 1896.25 132.155 1896.1 131.632 1895.82C131.117 1895.52 130.712 1895.11 130.418 1894.58C130.131 1894.05 129.988 1893.43 129.988 1892.74C129.988 1892.04 130.131 1891.42 130.418 1890.89C130.704 1890.36 131.104 1889.95 131.619 1889.66C132.134 1889.38 132.727 1889.23 133.397 1889.23C134.043 1889.23 134.62 1889.37 135.126 1889.65C135.641 1889.93 136.038 1890.32 136.316 1890.84C136.602 1891.35 136.745 1891.93 136.745 1892.59ZM134.967 1892.1C134.959 1891.66 134.799 1891.31 134.489 1891.05C134.178 1890.78 133.798 1890.64 133.348 1890.64C132.923 1890.64 132.564 1890.77 132.269 1891.04C131.983 1891.29 131.807 1891.64 131.742 1892.1H134.967ZM139.715 1890.4C139.936 1890.04 140.222 1889.76 140.573 1889.55C140.933 1889.35 141.342 1889.25 141.799 1889.25V1891.05H141.346C140.806 1891.05 140.397 1891.17 140.119 1891.43C139.85 1891.68 139.715 1892.12 139.715 1892.75V1896.14H137.998V1889.34H139.715V1890.4ZM145.608 1894.4V1893.05L149.618 1887.31H151.616V1892.9H152.696V1894.4H151.616V1896.14H149.9V1894.4H145.608ZM150.01 1889.15L147.496 1892.9H150.01V1889.15Z" fill="white"/>
<path d="M212.059 1893.6C211.924 1894.85 211.477 1895.8 210.72 1896.46C209.967 1897.12 208.963 1897.45 207.708 1897.45C206.831 1897.45 206.055 1897.23 205.378 1896.79C204.707 1896.36 204.187 1895.74 203.819 1894.93C203.451 1894.13 203.265 1893.21 203.259 1892.17V1890.64C203.259 1889.59 203.443 1888.66 203.811 1887.85C204.179 1887.04 204.707 1886.41 205.394 1885.97C206.087 1885.53 206.883 1885.31 207.781 1885.31C209.047 1885.31 210.046 1885.65 210.776 1886.34C211.512 1887.02 211.94 1887.96 212.059 1889.17H211.052C210.804 1887.16 209.713 1886.16 207.781 1886.16C206.709 1886.16 205.854 1886.56 205.216 1887.36C204.582 1888.16 204.266 1889.27 204.266 1890.68V1892.13C204.266 1893.49 204.574 1894.58 205.191 1895.39C205.814 1896.2 206.653 1896.61 207.708 1896.61C208.752 1896.61 209.54 1896.36 210.07 1895.86C210.601 1895.36 210.928 1894.6 211.052 1893.6H212.059ZM215.287 1897.29H214.313V1884.82H215.287V1897.29ZM218.962 1897.29H217.988V1888.51H218.962V1897.29ZM217.818 1885.96C217.818 1885.78 217.877 1885.63 217.996 1885.5C218.115 1885.37 218.278 1885.31 218.483 1885.31C218.689 1885.31 218.851 1885.37 218.97 1885.5C219.095 1885.63 219.157 1885.78 219.157 1885.96C219.157 1886.15 219.095 1886.3 218.97 1886.43C218.851 1886.55 218.689 1886.61 218.483 1886.61C218.278 1886.61 218.115 1886.55 217.996 1886.43C217.877 1886.3 217.818 1886.15 217.818 1885.96ZM224.797 1896.63C225.473 1896.63 226.039 1896.44 226.493 1896.06C226.953 1895.68 227.202 1895.18 227.24 1894.58H228.174C228.147 1895.11 227.979 1895.6 227.67 1896.05C227.362 1896.49 226.951 1896.83 226.436 1897.08C225.928 1897.33 225.381 1897.45 224.797 1897.45C223.644 1897.45 222.729 1897.05 222.053 1896.25C221.382 1895.45 221.046 1894.37 221.046 1893.02V1892.73C221.046 1891.86 221.198 1891.1 221.501 1890.43C221.804 1889.76 222.237 1889.25 222.8 1888.89C223.368 1888.52 224.031 1888.34 224.789 1888.34C225.752 1888.34 226.545 1888.63 227.167 1889.2C227.795 1889.78 228.13 1890.53 228.174 1891.47H227.24C227.197 1890.78 226.948 1890.23 226.493 1889.8C226.044 1889.38 225.476 1889.17 224.789 1889.17C223.912 1889.17 223.23 1889.49 222.743 1890.12C222.261 1890.75 222.02 1891.64 222.02 1892.78V1893.07C222.02 1894.19 222.261 1895.06 222.743 1895.69C223.23 1896.32 223.914 1896.63 224.797 1896.63ZM232.149 1892.86L231.037 1893.94V1897.29H230.063V1884.82H231.037V1892.8L231.954 1891.81L235.315 1888.51H236.541L232.815 1892.21L236.865 1897.29H235.705L232.149 1892.86ZM242.364 1897.29V1885.47H245.855C247.121 1885.47 248.082 1885.73 248.737 1886.26C249.392 1886.78 249.719 1887.54 249.719 1888.56C249.719 1889.17 249.551 1889.71 249.216 1890.16C248.886 1890.61 248.431 1890.93 247.852 1891.13C248.539 1891.28 249.091 1891.62 249.508 1892.14C249.93 1892.67 250.141 1893.27 250.141 1893.96C250.141 1895.01 249.803 1895.82 249.127 1896.41C248.455 1897 247.519 1897.29 246.318 1897.29H242.364ZM243.363 1891.61V1896.44H246.358C247.213 1896.44 247.89 1896.23 248.388 1895.8C248.891 1895.36 249.143 1894.75 249.143 1893.98C249.143 1893.25 248.902 1892.67 248.42 1892.25C247.944 1891.82 247.284 1891.61 246.44 1891.61H243.363ZM243.363 1890.77H246.09C246.924 1890.75 247.568 1890.56 248.023 1890.19C248.483 1889.81 248.713 1889.26 248.713 1888.54C248.713 1887.78 248.474 1887.22 247.998 1886.87C247.527 1886.5 246.813 1886.32 245.855 1886.32H243.363V1890.77ZM257.924 1896.18C257.339 1897.03 256.406 1897.45 255.123 1897.45C254.187 1897.45 253.475 1897.18 252.988 1896.64C252.501 1896.09 252.252 1895.29 252.241 1894.22V1888.51H253.207V1894.1C253.207 1895.77 253.884 1896.61 255.237 1896.61C256.644 1896.61 257.534 1896.03 257.908 1894.86V1888.51H258.882V1897.29H257.94L257.924 1896.18ZM262.865 1886.26V1888.51H264.684V1889.3H262.865V1895.15C262.865 1895.64 262.952 1896 263.125 1896.24C263.304 1896.48 263.598 1896.6 264.01 1896.6C264.172 1896.6 264.435 1896.57 264.797 1896.52L264.838 1897.31C264.583 1897.41 264.237 1897.45 263.799 1897.45C263.133 1897.45 262.649 1897.26 262.346 1896.88C262.043 1896.49 261.891 1895.91 261.891 1895.16V1889.3H260.276V1888.51H261.891V1886.26H262.865ZM268.147 1886.26V1888.51H269.966V1889.3H268.147V1895.15C268.147 1895.64 268.234 1896 268.407 1896.24C268.586 1896.48 268.881 1896.6 269.292 1896.6C269.454 1896.6 269.717 1896.57 270.079 1896.52L270.12 1897.31C269.866 1897.41 269.519 1897.45 269.081 1897.45C268.415 1897.45 267.931 1897.26 267.628 1896.88C267.325 1896.49 267.173 1895.91 267.173 1895.16V1889.3H265.558V1888.51H267.173V1886.26H268.147ZM271.222 1892.77C271.222 1891.92 271.384 1891.16 271.709 1890.49C272.039 1889.81 272.501 1889.28 273.097 1888.91C273.698 1888.53 274.377 1888.34 275.134 1888.34C276.303 1888.34 277.25 1888.75 277.976 1889.58C278.701 1890.39 279.063 1891.48 279.063 1892.83V1893.04C279.063 1893.88 278.898 1894.65 278.568 1895.33C278.244 1896.01 277.784 1896.53 277.188 1896.9C276.593 1897.27 275.914 1897.45 275.151 1897.45C273.987 1897.45 273.04 1897.04 272.309 1896.23C271.584 1895.4 271.222 1894.32 271.222 1892.96V1892.77ZM272.196 1893.04C272.196 1894.09 272.466 1894.95 273.007 1895.62C273.554 1896.3 274.268 1896.63 275.151 1896.63C276.027 1896.63 276.736 1896.3 277.278 1895.62C277.824 1894.95 278.097 1894.06 278.097 1892.95V1892.77C278.097 1892.1 277.973 1891.48 277.724 1890.92C277.475 1890.37 277.126 1889.94 276.677 1889.63C276.228 1889.33 275.713 1889.17 275.134 1889.17C274.268 1889.17 273.562 1889.51 273.016 1890.19C272.469 1890.87 272.196 1891.76 272.196 1892.86V1893.04ZM281.943 1888.51L281.975 1890.01C282.305 1889.47 282.717 1889.05 283.209 1888.77C283.702 1888.49 284.246 1888.34 284.841 1888.34C285.783 1888.34 286.483 1888.61 286.943 1889.14C287.403 1889.67 287.636 1890.46 287.642 1891.53V1897.29H286.676V1891.52C286.67 1890.73 286.502 1890.15 286.172 1889.76C285.848 1889.38 285.325 1889.19 284.605 1889.19C284.005 1889.19 283.472 1889.38 283.006 1889.76C282.546 1890.13 282.205 1890.64 281.983 1891.27V1897.29H281.017V1888.51H281.943Z" fill="#131313"/>
<path d="M111.797 2101.38H114.618V2102.74H110.08V2094.18H111.797V2101.38ZM115.267 2099.32C115.267 2098.63 115.402 2098.02 115.672 2097.49C115.95 2096.96 116.322 2096.55 116.788 2096.26C117.262 2095.98 117.789 2095.83 118.37 2095.83C118.876 2095.83 119.318 2095.94 119.694 2096.14C120.078 2096.35 120.385 2096.6 120.614 2096.91V2095.94H122.343V2102.74H120.614V2101.75C120.393 2102.06 120.086 2102.33 119.694 2102.54C119.31 2102.75 118.864 2102.85 118.357 2102.85C117.785 2102.85 117.262 2102.7 116.788 2102.41C116.322 2102.11 115.95 2101.7 115.672 2101.17C115.402 2100.63 115.267 2100.01 115.267 2099.32ZM120.614 2099.34C120.614 2098.92 120.532 2098.57 120.368 2098.27C120.205 2097.97 119.984 2097.74 119.706 2097.59C119.428 2097.42 119.13 2097.34 118.811 2097.34C118.492 2097.34 118.198 2097.42 117.928 2097.58C117.658 2097.73 117.438 2097.96 117.266 2098.26C117.102 2098.56 117.021 2098.91 117.021 2099.32C117.021 2099.73 117.102 2100.09 117.266 2100.4C117.438 2100.7 117.658 2100.93 117.928 2101.1C118.206 2101.26 118.5 2101.34 118.811 2101.34C119.13 2101.34 119.428 2101.26 119.706 2101.11C119.984 2100.94 120.205 2100.71 120.368 2100.42C120.532 2100.12 120.614 2099.76 120.614 2099.34ZM130.518 2095.94L126.312 2105.95H124.485L125.957 2102.57L123.235 2095.94H125.16L126.913 2100.69L128.691 2095.94H130.518ZM137.759 2099.19C137.759 2099.44 137.743 2099.66 137.71 2099.86H132.744C132.785 2100.35 132.956 2100.73 133.259 2101.01C133.561 2101.29 133.933 2101.43 134.375 2101.43C135.012 2101.43 135.466 2101.15 135.736 2100.6H137.587C137.391 2101.26 137.015 2101.8 136.459 2102.22C135.903 2102.64 135.221 2102.85 134.411 2102.85C133.757 2102.85 133.169 2102.71 132.646 2102.42C132.131 2102.13 131.726 2101.71 131.432 2101.18C131.145 2100.65 131.002 2100.04 131.002 2099.34C131.002 2098.64 131.145 2098.02 131.432 2097.49C131.718 2096.96 132.118 2096.55 132.633 2096.26C133.148 2095.98 133.741 2095.83 134.411 2095.83C135.057 2095.83 135.634 2095.97 136.14 2096.25C136.655 2096.53 137.052 2096.93 137.33 2097.44C137.616 2097.95 137.759 2098.53 137.759 2099.19ZM135.981 2098.7C135.973 2098.26 135.813 2097.91 135.503 2097.65C135.192 2097.38 134.812 2097.24 134.362 2097.24C133.937 2097.24 133.578 2097.38 133.283 2097.64C132.997 2097.89 132.821 2098.25 132.756 2098.7H135.981ZM140.729 2097C140.95 2096.64 141.236 2096.36 141.587 2096.15C141.947 2095.95 142.356 2095.85 142.813 2095.85V2097.65H142.36C141.82 2097.65 141.411 2097.78 141.134 2098.03C140.864 2098.28 140.729 2098.72 140.729 2099.35V2102.74H139.012V2095.94H140.729V2097ZM152.704 2095.28H148.731V2097.38C148.903 2097.17 149.148 2097 149.467 2096.86C149.786 2096.73 150.125 2096.66 150.485 2096.66C151.139 2096.66 151.674 2096.8 152.091 2097.09C152.508 2097.37 152.81 2097.74 152.998 2098.19C153.186 2098.63 153.28 2099.1 153.28 2099.61C153.28 2100.55 153.011 2101.31 152.471 2101.88C151.94 2102.45 151.179 2102.74 150.19 2102.74C149.258 2102.74 148.514 2102.51 147.959 2102.04C147.403 2101.57 147.088 2100.96 147.014 2100.21H148.682C148.756 2100.54 148.919 2100.8 149.173 2101C149.434 2101.19 149.765 2101.29 150.166 2101.29C150.648 2101.29 151.012 2101.14 151.257 2100.84C151.502 2100.54 151.625 2100.13 151.625 2099.64C151.625 2099.13 151.498 2098.74 151.245 2098.48C151 2098.21 150.636 2098.08 150.153 2098.08C149.81 2098.08 149.524 2098.16 149.295 2098.34C149.066 2098.51 148.903 2098.74 148.805 2099.02H147.161V2093.77H152.704V2095.28Z" fill="white"/>
<defs>
<linearGradient id="paint0_linear_297_8590" x1="5.94297" y1="17.3628" x2="255.099" y2="17.3628" gradientUnits="userSpaceOnUse">
<stop stop-color="#4B75F7"/>
<stop offset="0.516301" stop-color="#819EFB"/>
<stop offset="1" stop-color="#4B75F7"/>
</linearGradient>
<linearGradient id="paint1_linear_297_8590" x1="25.5062" y1="1444.14" x2="233.145" y2="1444.14" gradientUnits="userSpaceOnUse">
<stop stop-color="#2F54BD"/>
<stop offset="0.489583" stop-color="#6682DA"/>
<stop offset="1" stop-color="#2F54BD"/>
</linearGradient>
<linearGradient id="paint2_linear_297_8590" x1="48.9769" y1="1670.15" x2="213.498" y2="1670.15" gradientUnits="userSpaceOnUse">
<stop stop-color="#243F8F"/>
<stop offset="0.529991" stop-color="#6782D1"/>
<stop offset="1" stop-color="#243F8F"/>
</linearGradient>
<linearGradient id="paint3_linear_297_8590" x1="71.0833" y1="1892.67" x2="190.622" y2="1892.67" gradientUnits="userSpaceOnUse">
<stop stop-color="#192C63"/>
<stop offset="0.479167" stop-color="#374C8B"/>
<stop offset="1" stop-color="#192C63"/>
</linearGradient>
<linearGradient id="paint4_linear_297_8590" x1="82.0812" y1="2096.23" x2="181.01" y2="2096.23" gradientUnits="userSpaceOnUse">
<stop stop-color="#192C63"/>
<stop offset="0.479167" stop-color="#374C8B"/>
<stop offset="1" stop-color="#192C63"/>
</linearGradient>
</defs>
</svg>
