<svg width="35" height="35" viewBox="0 0 35 35" fill="none" xmlns="http://www.w3.org/2000/svg">
<path d="M27.707 30.625H7.29037C6.90359 30.625 6.53266 30.4714 6.25917 30.1979C5.98568 29.9244 5.83203 29.5535 5.83203 29.1667V16.0417H1.45703L16.5172 2.35088C16.7857 2.10658 17.1357 1.97119 17.4987 1.97119C17.8617 1.97119 18.2117 2.10658 18.4802 2.35088L33.5404 16.0417H29.1654V29.1667C29.1654 29.5535 29.0117 29.9244 28.7382 30.1979C28.4647 30.4714 28.0938 30.625 27.707 30.625ZM8.7487 27.7084H26.2487V13.354L17.4987 5.40025L8.7487 13.354V27.7084ZM17.4987 21.875C16.5318 21.875 15.6044 21.4909 14.9207 20.8072C14.237 20.1235 13.8529 19.1961 13.8529 18.2292C13.8529 17.2623 14.237 16.3349 14.9207 15.6512C15.6044 14.9675 16.5318 14.5834 17.4987 14.5834C18.4656 14.5834 19.393 14.9675 20.0767 15.6512C20.7604 16.3349 21.1445 17.2623 21.1445 18.2292C21.1445 19.1961 20.7604 20.1235 20.0767 20.8072C19.393 21.4909 18.4656 21.875 17.4987 21.875Z" fill="#959595"/>
</svg>
