<svg width="70" height="70" viewBox="0 0 70 70" fill="none" xmlns="http://www.w3.org/2000/svg">
<g filter="url(#filter0_d_348_9865)">
<circle cx="34.9992" cy="22.1046" r="16.7999" fill="#24285B"/>
</g>
<path d="M40.2492 22.1047C40.2492 23.4971 39.6961 24.8324 38.7115 25.817C37.727 26.8016 36.3916 27.3547 34.9992 27.3547C33.6068 27.3547 32.2715 26.8016 31.2869 25.817C30.3023 24.8324 29.7492 23.4971 29.7492 22.1047C29.7492 21.8054 29.7807 21.5132 29.835 21.2297H27.9992V28.2244C27.9992 28.7109 28.393 29.1047 28.8795 29.1047H41.1207C41.3539 29.1042 41.5773 29.0113 41.742 28.8463C41.9067 28.6812 41.9992 28.4576 41.9992 28.2244V21.2297H40.1635C40.2177 21.5132 40.2492 21.8054 40.2492 22.1047ZM34.9992 25.6047C35.459 25.6046 35.9142 25.5139 36.3389 25.3379C36.7636 25.1618 37.1495 24.9039 37.4745 24.5787C37.7995 24.2535 38.0572 23.8675 38.2331 23.4427C38.4089 23.0179 38.4993 22.5627 38.4992 22.1029C38.4991 21.6432 38.4084 21.188 38.2324 20.7633C38.0564 20.3386 37.7984 19.9527 37.4732 19.6277C37.1481 19.3027 36.7621 19.0449 36.3373 18.8691C35.9125 18.6933 35.4572 18.6028 34.9975 18.6029C34.069 18.6032 33.1786 18.9722 32.5222 19.6289C31.8659 20.2856 31.4972 21.1762 31.4975 22.1047C31.4977 23.0332 31.8668 23.9235 32.5235 24.5799C33.1802 25.2363 34.0707 25.6049 34.9992 25.6047ZM39.1992 18.4297H41.2975C41.4369 18.4297 41.5706 18.3744 41.6693 18.276C41.7681 18.1776 41.8238 18.0441 41.8242 17.9047V15.8064C41.8242 15.6667 41.7687 15.5328 41.6699 15.434C41.5712 15.3352 41.4372 15.2797 41.2975 15.2797H39.1992C39.0595 15.2797 38.9255 15.3352 38.8268 15.434C38.728 15.5328 38.6725 15.6667 38.6725 15.8064V17.9047C38.6742 18.1934 38.9105 18.4297 39.1992 18.4297ZM34.9992 5.30469C30.5436 5.30469 26.2704 7.07468 23.1198 10.2253C19.9692 13.3759 18.1992 17.6491 18.1992 22.1047C18.1992 26.5603 19.9692 30.8335 23.1198 33.9841C26.2704 37.1347 30.5436 38.9047 34.9992 38.9047C37.2054 38.9047 39.39 38.4701 41.4283 37.6259C43.4666 36.7816 45.3186 35.5441 46.8786 33.9841C48.4386 32.4241 49.6761 30.572 50.5204 28.5338C51.3647 26.4955 51.7992 24.3109 51.7992 22.1047C51.7992 19.8985 51.3647 17.7139 50.5204 15.6756C49.6761 13.6373 48.4386 11.7853 46.8786 10.2253C45.3186 8.66527 43.4666 7.42779 41.4283 6.58351C39.39 5.73923 37.2054 5.30469 34.9992 5.30469ZM43.7492 28.9104C43.7492 29.9797 42.8742 30.8547 41.805 30.8547H28.1935C27.1242 30.8547 26.2492 29.9797 26.2492 28.9104V15.2989C26.2492 14.2297 27.1242 13.3547 28.1935 13.3547H41.805C42.8742 13.3547 43.7492 14.2297 43.7492 15.2989V28.9104Z" fill="white"/>
<defs>
<filter id="filter0_d_348_9865" x="0.199219" y="0.304688" width="69.6016" height="69.6016" filterUnits="userSpaceOnUse" color-interpolation-filters="sRGB">
<feFlood flood-opacity="0" result="BackgroundImageFix"/>
<feColorMatrix in="SourceAlpha" type="matrix" values="0 0 0 0 0 0 0 0 0 0 0 0 0 0 0 0 0 0 127 0" result="hardAlpha"/>
<feOffset dy="13"/>
<feGaussianBlur stdDeviation="9"/>
<feColorMatrix type="matrix" values="0 0 0 0 0.0658854 0 0 0 0 0.0730469 0 0 0 0 0.1375 0 0 0 0.08 0"/>
<feBlend mode="normal" in2="BackgroundImageFix" result="effect1_dropShadow_348_9865"/>
<feBlend mode="normal" in="SourceGraphic" in2="effect1_dropShadow_348_9865" result="shape"/>
</filter>
</defs>
</svg>
