<svg width="35" height="35" viewBox="0 0 35 35" fill="none" xmlns="http://www.w3.org/2000/svg">
<path d="M10.2096 7.29134V2.91634C10.2096 2.52957 10.3633 2.15863 10.6368 1.88514C10.9103 1.61165 11.2812 1.45801 11.668 1.45801H23.3346C23.7214 1.45801 24.0923 1.61165 24.3658 1.88514C24.6393 2.15863 24.793 2.52957 24.793 2.91634V7.29134H30.6263C31.0131 7.29134 31.384 7.44499 31.6575 7.71848C31.931 7.99197 32.0846 8.3629 32.0846 8.74967V29.1663C32.0846 29.5531 31.931 29.924 31.6575 30.1975C31.384 30.471 31.0131 30.6247 30.6263 30.6247H4.3763C3.98953 30.6247 3.6186 30.471 3.3451 30.1975C3.07161 29.924 2.91797 29.5531 2.91797 29.1663V8.74967C2.91797 8.3629 3.07161 7.99197 3.3451 7.71848C3.6186 7.44499 3.98953 7.29134 4.3763 7.29134H10.2096ZM13.1263 18.958H5.83464V27.708H29.168V18.958H21.8763V23.333H13.1263V18.958ZM29.168 10.208H5.83464V16.0413H13.1263V13.1247H21.8763V16.0413H29.168V10.208ZM16.043 16.0413V20.4163H18.9596V16.0413H16.043ZM13.1263 4.37467V7.29134H21.8763V4.37467H13.1263Z" fill="#959595"/>
</svg>
