<svg width="35" height="35" viewBox="0 0 35 35" fill="none" xmlns="http://www.w3.org/2000/svg">
<path d="M9.13776 5.55171L10.8105 7.94192C8.77782 9.36492 7.25179 11.3989 6.45405 13.7484C5.65631 16.0979 5.62843 18.6406 6.37444 21.007C7.12046 23.3735 8.60152 25.4404 10.6025 26.9077C12.6034 28.3749 15.0201 29.166 17.5013 29.166C19.9826 29.166 22.3992 28.3749 24.4001 26.9077C26.4011 25.4404 27.8822 23.3735 28.6282 21.007C29.3742 18.6406 29.3463 16.0979 28.5486 13.7484C27.7508 11.3989 26.2248 9.36492 24.1921 7.94192L25.8648 5.55171C27.7869 6.89546 29.356 8.68342 30.4389 10.7636C31.5217 12.8438 32.0863 15.1547 32.0846 17.4998C32.0846 25.5542 25.5557 32.0832 17.5013 32.0832C9.44693 32.0832 2.91797 25.5542 2.91797 17.4998C2.91628 15.1547 3.48087 12.8438 4.56375 10.7636C5.64662 8.68342 7.21575 6.89546 9.13776 5.55171ZM16.043 17.4998V2.9165H18.9596V17.4998H16.043Z" fill="#7942FB"/>
</svg>
