<svg width="35" height="34" viewBox="0 0 35 34" fill="none" xmlns="http://www.w3.org/2000/svg">
<path d="M17.5013 31.1668C9.44693 31.1668 2.91797 24.8244 2.91797 17.0002C2.91797 10.6563 7.20984 5.28716 13.1263 3.48233V6.49133C10.6193 7.48023 8.54392 9.28458 7.25514 11.5957C5.96635 13.9069 5.54425 16.5813 6.06105 19.1614C6.57784 21.7414 8.00141 24.0669 10.0883 25.74C12.1751 27.4131 14.7955 28.3299 17.5013 28.3335C19.8256 28.3334 22.0969 27.6592 24.0242 26.3973C25.9515 25.1353 27.4471 23.343 28.3192 21.2502H31.4167C29.5588 26.9976 24.0317 31.1668 17.5013 31.1668ZM32.0117 18.4168H16.043V2.90433C16.5228 2.85758 17.0098 2.8335 17.5013 2.8335C25.5557 2.8335 32.0846 9.17591 32.0846 17.0002C32.0846 17.4776 32.0598 17.9507 32.0117 18.4168ZM18.9596 5.75466V15.5835H29.0776C28.7529 13.0868 27.5826 10.7659 25.7507 8.98641C23.9189 7.20694 21.5298 6.06999 18.9596 5.75466Z" fill="#959595"/>
</svg>
