<svg width="35" height="35" viewBox="0 0 35 35" fill="none" xmlns="http://www.w3.org/2000/svg">
<path d="M4.87156 24.7917C4.25508 23.7256 3.77587 22.5859 3.44531 21.3996C4.16472 21.0337 4.76889 20.4759 5.19098 19.788C5.61307 19.1 5.83664 18.3087 5.83694 17.5016C5.83724 16.6945 5.61427 15.903 5.19269 15.2148C4.77111 14.5265 4.16736 13.9683 3.44823 13.6019C4.10745 11.2182 5.36263 9.04158 7.09552 7.27707C7.77232 7.71708 8.55767 7.96126 9.36466 7.98258C10.1716 8.0039 10.9688 7.80153 11.6679 7.39787C12.367 6.9942 12.9407 6.40498 13.3257 5.69542C13.7107 4.98586 13.8918 4.18362 13.8491 3.37749C16.2438 2.7586 18.7567 2.75961 21.1509 3.3804C21.1086 4.18652 21.2901 4.98864 21.6753 5.698C22.0606 6.40736 22.6346 6.9963 23.3338 7.39966C24.033 7.80301 24.8302 8.00505 25.6372 7.98341C26.4441 7.96178 27.2293 7.71731 27.9059 7.27707C28.7503 8.13749 29.4999 9.11603 30.1299 10.2083C30.7614 11.3006 31.2339 12.4396 31.5561 13.6004C30.8367 13.9663 30.2326 14.5241 29.8105 15.212C29.3884 15.9 29.1648 16.6913 29.1645 17.4984C29.1642 18.3055 29.3872 19.0969 29.8088 19.7852C30.2303 20.4734 30.8341 21.0317 31.5532 21.3981C30.894 23.7818 29.6388 25.9584 27.9059 27.7229C27.2291 27.2829 26.4438 27.0387 25.6368 27.0174C24.8298 26.9961 24.0327 27.1984 23.3336 27.6021C22.6345 28.0058 22.0607 28.595 21.6758 29.3045C21.2908 30.0141 21.1097 30.8164 21.1524 31.6225C18.7577 32.2414 16.2448 32.2404 13.8505 31.6196C13.8929 30.8135 13.7114 30.0113 13.3261 29.302C12.9409 28.5926 12.3669 28.0037 11.6676 27.6003C10.9684 27.197 10.1712 26.9949 9.36429 27.0166C8.55735 27.0382 7.77213 27.2827 7.09552 27.7229C6.23363 26.8434 5.48639 25.8586 4.87156 24.7917ZM13.1257 25.0775C14.6798 25.9738 15.8482 27.4123 16.407 29.1171C17.1347 29.1856 17.8653 29.1871 18.593 29.1185C19.1521 27.4135 20.3211 25.975 21.8757 25.0789C23.4292 24.1802 25.2598 23.8867 27.0164 24.255C27.4393 23.66 27.8039 23.0256 28.1072 22.3621C26.9105 21.0254 26.2494 19.294 26.2507 17.5C26.2507 15.6625 26.9361 13.946 28.1072 12.6379C27.8017 11.9746 27.4356 11.3409 27.0134 10.745C25.258 11.1129 23.4286 10.8201 21.8757 9.92249C20.3217 9.02615 19.1532 7.58767 18.5945 5.8829C17.8668 5.81436 17.1361 5.8129 16.4084 5.88144C15.8493 7.58645 14.6803 9.02497 13.1257 9.92103C11.5723 10.8198 9.74163 11.1132 7.9851 10.745C7.56301 11.3404 7.1978 11.9742 6.89427 12.6379C8.09094 13.9746 8.75202 15.7059 8.75073 17.5C8.75073 19.3375 8.06531 21.0539 6.89427 22.3621C7.19975 23.0254 7.56589 23.6591 7.98802 24.255C9.74344 23.887 11.5729 24.1799 13.1257 25.0775ZM17.5007 21.875C16.3404 21.875 15.2276 21.414 14.4071 20.5936C13.5867 19.7731 13.1257 18.6603 13.1257 17.5C13.1257 16.3397 13.5867 15.2269 14.4071 14.4064C15.2276 13.5859 16.3404 13.125 17.5007 13.125C18.6611 13.125 19.7738 13.5859 20.5943 14.4064C21.4148 15.2269 21.8757 16.3397 21.8757 17.5C21.8757 18.6603 21.4148 19.7731 20.5943 20.5936C19.7738 21.414 18.6611 21.875 17.5007 21.875ZM17.5007 18.9583C17.8875 18.9583 18.2584 18.8047 18.5319 18.5312C18.8054 18.2577 18.9591 17.8868 18.9591 17.5C18.9591 17.1132 18.8054 16.7423 18.5319 16.4688C18.2584 16.1953 17.8875 16.0417 17.5007 16.0417C17.114 16.0417 16.743 16.1953 16.4695 16.4688C16.196 16.7423 16.0424 17.1132 16.0424 17.5C16.0424 17.8868 16.196 18.2577 16.4695 18.5312C16.743 18.8047 17.114 18.9583 17.5007 18.9583Z" fill="#959595"/>
</svg>
