<svg width="71" height="70" viewBox="0 0 71 70" fill="none" xmlns="http://www.w3.org/2000/svg">
<g filter="url(#filter0_d_348_9862)">
<circle cx="35.4015" cy="22.1046" r="16.7999" fill="#24285B"/>
</g>
<path d="M35.4016 5.30469C26.1231 5.30469 18.6016 12.8262 18.6016 22.1047C18.6016 31.3832 26.1231 38.9047 35.4016 38.9047C44.6801 38.9047 52.2016 31.3832 52.2016 22.1047C52.2016 12.8262 44.6801 5.30469 35.4016 5.30469ZM42.2353 19.0667C42.2423 19.2102 42.2441 19.3537 42.2441 19.4937C42.2441 23.8687 38.9173 28.9104 32.8308 28.9104C31.0323 28.9134 29.2713 28.3969 27.7593 27.4229C28.0166 27.4544 28.2808 27.4667 28.5486 27.4667C30.0991 27.4667 31.5253 26.9399 32.6576 26.0509C31.9676 26.0374 31.299 25.8089 30.745 25.3973C30.191 24.9858 29.7793 24.4116 29.5671 23.7549C30.0626 23.8492 30.5731 23.8294 31.0598 23.6972C30.3109 23.5457 29.6374 23.1399 29.1536 22.5486C28.6697 21.9573 28.4053 21.2168 28.4051 20.4527V20.4124C28.8513 20.6592 29.3623 20.8097 29.9048 20.8272C29.2027 20.3598 28.7057 19.6419 28.5154 18.8202C28.3251 17.9985 28.4559 17.1351 28.8811 16.4067C29.7122 17.4287 30.7488 18.2647 31.9236 18.8607C33.0983 19.4567 34.3852 19.7993 35.7008 19.8664C35.5336 19.1565 35.6055 18.4111 35.9056 17.7463C36.2056 17.0815 36.7169 16.5344 37.3599 16.1902C38.003 15.8459 38.7417 15.7237 39.4614 15.8426C40.181 15.9615 40.8412 16.3149 41.3393 16.8477C42.0799 16.7012 42.79 16.4295 43.4393 16.0444C43.1925 16.8112 42.6757 17.4622 41.9851 17.8767C42.641 17.7977 43.2816 17.6213 43.8856 17.3534C43.4419 18.0183 42.8831 18.5985 42.2353 19.0667Z" fill="white"/>
<defs>
<filter id="filter0_d_348_9862" x="0.601562" y="0.304688" width="69.6016" height="69.6016" filterUnits="userSpaceOnUse" color-interpolation-filters="sRGB">
<feFlood flood-opacity="0" result="BackgroundImageFix"/>
<feColorMatrix in="SourceAlpha" type="matrix" values="0 0 0 0 0 0 0 0 0 0 0 0 0 0 0 0 0 0 127 0" result="hardAlpha"/>
<feOffset dy="13"/>
<feGaussianBlur stdDeviation="9"/>
<feColorMatrix type="matrix" values="0 0 0 0 0.0658854 0 0 0 0 0.0730469 0 0 0 0 0.1375 0 0 0 0.08 0"/>
<feBlend mode="normal" in2="BackgroundImageFix" result="effect1_dropShadow_348_9862"/>
<feBlend mode="normal" in="SourceGraphic" in2="effect1_dropShadow_348_9862" result="shape"/>
</filter>
</defs>
</svg>
