<svg width="23" height="22" viewBox="0 0 23 22" fill="none" xmlns="http://www.w3.org/2000/svg">
<path d="M22.2898 11.0472C22.2898 13.8777 21.1654 16.5922 19.1639 18.5936C17.1625 20.595 14.448 21.7194 11.6175 21.7194C8.78708 21.7194 6.07256 20.595 4.07113 18.5936C2.0697 16.5922 0.945313 13.8777 0.945312 11.0472C0.945313 8.21677 2.0697 5.50225 4.07113 3.50082C6.07256 1.49939 8.78708 0.375 11.6175 0.375C14.448 0.375 17.1625 1.49939 19.1639 3.50082C21.1654 5.50225 22.2898 8.21677 22.2898 11.0472ZM12.2845 6.37812C12.2845 6.20122 12.2143 6.03156 12.0892 5.90647C11.9641 5.78138 11.7944 5.71111 11.6175 5.71111C11.4406 5.71111 11.271 5.78138 11.1459 5.90647C11.0208 6.03156 10.9505 6.20122 10.9505 6.37812V14.1061L8.0877 11.242C7.96245 11.1167 7.79258 11.0464 7.61545 11.0464C7.43832 11.0464 7.26845 11.1167 7.1432 11.242C7.01796 11.3672 6.94759 11.5371 6.94759 11.7142C6.94759 11.8914 7.01796 12.0612 7.1432 12.1865L11.1453 16.1886C11.2072 16.2507 11.2809 16.3 11.3619 16.3336C11.4429 16.3672 11.5298 16.3845 11.6175 16.3845C11.7053 16.3845 11.7921 16.3672 11.8732 16.3336C11.9542 16.3 12.0278 16.2507 12.0898 16.1886L16.0919 12.1865C16.2171 12.0612 16.2875 11.8914 16.2875 11.7142C16.2875 11.5371 16.2171 11.3672 16.0919 11.242C15.9666 11.1167 15.7967 11.0464 15.6196 11.0464C15.4425 11.0464 15.2726 11.1167 15.1474 11.242L12.2845 14.1061V6.37812Z" fill="#FFA400"/>
</svg>
