<svg width="13" height="25" viewBox="0 0 13 25" fill="none" xmlns="http://www.w3.org/2000/svg">
<path d="M10.0846 0.449219C10.4949 0.480599 10.9047 0.510573 11.3145 0.54289C11.5688 0.563497 11.8222 0.589726 12.0826 0.61408V4.42228C11.9782 4.42228 11.8798 4.42228 11.7819 4.42228C10.9735 4.43492 10.1628 4.41197 9.35819 4.47192C8.49173 4.53609 7.98169 4.98711 7.92689 5.85404C7.85289 7.03102 7.90863 8.21596 7.90863 9.42338H11.729C11.551 10.8551 11.3773 12.2579 11.2002 13.6784H7.87491V24.3742H3.61662V13.6957H0.160156V9.43462H3.60913C3.60913 9.32315 3.60913 9.23369 3.60913 9.14424C3.6199 7.89045 3.58618 6.63432 3.65315 5.38334C3.73183 3.91177 4.23625 2.60084 5.39309 1.61355C6.16962 0.950827 7.08901 0.624852 8.08848 0.496054C8.16341 0.486687 8.23695 0.465143 8.31094 0.449219H10.0846Z" fill="white"/>
</svg>
